%
M48
M72
T01C0.0120
T02C0.0197
T03C0.0236
T04C0.0276
T05C0.0315
T06C0.0320
T07C0.0354
T08C0.0472
T09C0.0787
T10C0.1260
%
T01
X4934Y15087
X4934Y14787
X7734Y15087
X7734Y14787
X10534Y15087
X10534Y14787
X13334Y15087
X13334Y14787
X16134Y15087
X16134Y14787
X18934Y15087
X18934Y14787
X14534Y10937
X10584Y12187
X13934Y7737
X16334Y3887
X5434Y17037
X5984Y16437
X4984Y16437
X8784Y16437
X7784Y16437
X8234Y17037
X11034Y17037
X13834Y17037
X16634Y17037
X19434Y17037
X11584Y16437
X10584Y16437
X14384Y16437
X13384Y16437
X17184Y16437
X16184Y16437
X19984Y16437
X18984Y16437
X7584Y5937
X14434Y10137
X14434Y10537
X7584Y5437
X13284Y10637
X12884Y11037
X4684Y12187
X13934Y8337
X10584Y11587
X15934Y8487
X16534Y9087
X6384Y8087
X6384Y8457
X13534Y6837
X13934Y6837
X12384Y9037
X15484Y10637
X11434Y9137
X11984Y9037
X4384Y12487
X11734Y12487
X15034Y10337
X12484Y11037
X5434Y11087
X12084Y11037
X6134Y11087
X5984Y13687
X7434Y13687
X8834Y13687
X10234Y13687
X11634Y13687
X13034Y13687
X14434Y13687
X15834Y13687
X17234Y13687
X17934Y12987
X10434Y8537
X7284Y9487
X7334Y12087
X8084Y12387
X9934Y12687
X12334Y12487
X14034Y12737
X16934Y12987
X15184Y12237
X9784Y6857
X13284Y9837
X13284Y10237
X8134Y6137
X8134Y6737
X16334Y4487
X15684Y4487
T02
X7584Y13187
X10234Y13087
X12734Y13037
X8584Y13187
X11134Y13087
X13734Y13187
X14834Y12987
X15734Y12987
X18534Y4387
X9534Y11687
X8834Y11687
X21984Y15437
X21984Y16587
X21984Y17737
X19934Y18787
X19934Y19987
X5434Y19937
X5434Y18787
X4834Y13437
X3384Y7287
X3384Y3737
X6194Y9507
X16234Y9487
X15684Y10087
X16784Y10087
X3384Y5537
X17584Y15887
X18084Y15887
X18434Y15887
X20384Y15887
X20884Y15887
X21234Y15887
X14784Y15887
X15284Y15887
X15634Y15887
X11984Y15887
X12484Y15887
X12834Y15887
X9184Y15887
X9684Y15887
X10034Y15887
X6384Y15887
X6884Y15887
X7234Y15887
T03
X21884Y4187
X21884Y8687
X21134Y6437
X20534Y7137
X21784Y7137
X21784Y5737
X20534Y5737
X19384Y4437
X19384Y3937
T04
X9184Y9187
X9184Y11087
T05
X4584Y6404
X4584Y4671
T06
X10584Y18987
X11584Y18987
X14784Y18987
X13784Y18987
T07
X19534Y1987
X18534Y1987
X17534Y1987
X16534Y1987
X15534Y1987
X14284Y3987
X14284Y2987
X14284Y1987
X13284Y3987
X13284Y2987
X13284Y1987
X12084Y3987
X12084Y2987
X12084Y1987
X11084Y3987
X11084Y2987
X11084Y1987
X6684Y3987
X6684Y2987
X6684Y1987
X7684Y3987
X7684Y2987
X7684Y1987
X3584Y13037
X3584Y14037
X3584Y15037
X3584Y16037
X3584Y17037
X3584Y8587
X3584Y9587
X3584Y10587
X3584Y11587
X9884Y2987
X9884Y3987
X8684Y3987
X8684Y2987
X8684Y1987
T08
X16634Y19237
X17634Y19237
X18634Y19237
X6734Y19237
X7734Y19237
X8734Y19237
T09
X21284Y12737
X21284Y10737
T10
X3819Y19588
X21535Y19588
X3819Y1872
X21535Y1872
M30
