G75*
%MOIN*%
%OFA0B0*%
%FSLAX24Y24*%
%IPPOS*%
%LPD*%
%AMOC8*
5,1,8,0,0,1.08239X$1,22.5*
%
%ADD10C,0.0000*%
%ADD11R,0.0197X0.0551*%
%ADD12R,0.0315X0.0276*%
%ADD13OC8,0.0832*%
%ADD14R,0.0866X0.0709*%
%ADD15R,0.0984X0.0197*%
%ADD16R,0.0276X0.0315*%
%ADD17R,0.0255X0.0216*%
%ADD18R,0.0216X0.0255*%
%ADD19R,0.2441X0.2126*%
%ADD20R,0.0630X0.0394*%
%ADD21C,0.1147*%
%ADD22R,0.1147X0.1147*%
%ADD23R,0.0551X0.0197*%
%ADD24C,0.0630*%
%ADD25R,0.0630X0.0630*%
%ADD26R,0.0945X0.1102*%
%ADD27R,0.0315X0.0217*%
%ADD28OC8,0.0673*%
%ADD29R,0.0197X0.0315*%
%ADD30R,0.0117X0.0315*%
%ADD31R,0.0315X0.0197*%
%ADD32R,0.0315X0.0117*%
%ADD33R,0.0512X0.0394*%
%ADD34R,0.0432X0.0314*%
%ADD35R,0.0551X0.0551*%
%ADD36C,0.0524*%
%ADD37R,0.0472X0.0394*%
%ADD38R,0.0472X0.0098*%
%ADD39R,0.0098X0.0472*%
%ADD40C,0.0080*%
%ADD41C,0.0200*%
%ADD42C,0.0295*%
%ADD43C,0.0354*%
%ADD44C,0.0280*%
%ADD45C,0.0100*%
%ADD46C,0.0500*%
%ADD47C,0.0400*%
%ADD48C,0.0240*%
%ADD49C,0.0160*%
%ADD50C,0.0200*%
D10*
X002834Y001872D02*
X002834Y019588D01*
X003189Y019588D02*
X003191Y019638D01*
X003197Y019688D01*
X003207Y019737D01*
X003221Y019785D01*
X003238Y019832D01*
X003259Y019877D01*
X003284Y019921D01*
X003312Y019962D01*
X003344Y020001D01*
X003378Y020038D01*
X003415Y020072D01*
X003455Y020102D01*
X003497Y020129D01*
X003541Y020153D01*
X003587Y020174D01*
X003634Y020190D01*
X003682Y020203D01*
X003732Y020212D01*
X003781Y020217D01*
X003832Y020218D01*
X003882Y020215D01*
X003931Y020208D01*
X003980Y020197D01*
X004028Y020182D01*
X004074Y020164D01*
X004119Y020142D01*
X004162Y020116D01*
X004203Y020087D01*
X004242Y020055D01*
X004278Y020020D01*
X004310Y019982D01*
X004340Y019942D01*
X004367Y019899D01*
X004390Y019855D01*
X004409Y019809D01*
X004425Y019761D01*
X004437Y019712D01*
X004445Y019663D01*
X004449Y019613D01*
X004449Y019563D01*
X004445Y019513D01*
X004437Y019464D01*
X004425Y019415D01*
X004409Y019367D01*
X004390Y019321D01*
X004367Y019277D01*
X004340Y019234D01*
X004310Y019194D01*
X004278Y019156D01*
X004242Y019121D01*
X004203Y019089D01*
X004162Y019060D01*
X004119Y019034D01*
X004074Y019012D01*
X004028Y018994D01*
X003980Y018979D01*
X003931Y018968D01*
X003882Y018961D01*
X003832Y018958D01*
X003781Y018959D01*
X003732Y018964D01*
X003682Y018973D01*
X003634Y018986D01*
X003587Y019002D01*
X003541Y019023D01*
X003497Y019047D01*
X003455Y019074D01*
X003415Y019104D01*
X003378Y019138D01*
X003344Y019175D01*
X003312Y019214D01*
X003284Y019255D01*
X003259Y019299D01*
X003238Y019344D01*
X003221Y019391D01*
X003207Y019439D01*
X003197Y019488D01*
X003191Y019538D01*
X003189Y019588D01*
X002835Y019588D02*
X002837Y019650D01*
X002843Y019711D01*
X002852Y019772D01*
X002866Y019833D01*
X002883Y019892D01*
X002904Y019950D01*
X002929Y020007D01*
X002957Y020062D01*
X002988Y020115D01*
X003023Y020166D01*
X003061Y020215D01*
X003102Y020262D01*
X003145Y020305D01*
X003192Y020346D01*
X003241Y020384D01*
X003292Y020419D01*
X003345Y020450D01*
X003400Y020478D01*
X003457Y020503D01*
X003515Y020524D01*
X003574Y020541D01*
X003635Y020555D01*
X003696Y020564D01*
X003757Y020570D01*
X003819Y020572D01*
X021535Y020572D01*
X020905Y019588D02*
X020907Y019638D01*
X020913Y019688D01*
X020923Y019737D01*
X020937Y019785D01*
X020954Y019832D01*
X020975Y019877D01*
X021000Y019921D01*
X021028Y019962D01*
X021060Y020001D01*
X021094Y020038D01*
X021131Y020072D01*
X021171Y020102D01*
X021213Y020129D01*
X021257Y020153D01*
X021303Y020174D01*
X021350Y020190D01*
X021398Y020203D01*
X021448Y020212D01*
X021497Y020217D01*
X021548Y020218D01*
X021598Y020215D01*
X021647Y020208D01*
X021696Y020197D01*
X021744Y020182D01*
X021790Y020164D01*
X021835Y020142D01*
X021878Y020116D01*
X021919Y020087D01*
X021958Y020055D01*
X021994Y020020D01*
X022026Y019982D01*
X022056Y019942D01*
X022083Y019899D01*
X022106Y019855D01*
X022125Y019809D01*
X022141Y019761D01*
X022153Y019712D01*
X022161Y019663D01*
X022165Y019613D01*
X022165Y019563D01*
X022161Y019513D01*
X022153Y019464D01*
X022141Y019415D01*
X022125Y019367D01*
X022106Y019321D01*
X022083Y019277D01*
X022056Y019234D01*
X022026Y019194D01*
X021994Y019156D01*
X021958Y019121D01*
X021919Y019089D01*
X021878Y019060D01*
X021835Y019034D01*
X021790Y019012D01*
X021744Y018994D01*
X021696Y018979D01*
X021647Y018968D01*
X021598Y018961D01*
X021548Y018958D01*
X021497Y018959D01*
X021448Y018964D01*
X021398Y018973D01*
X021350Y018986D01*
X021303Y019002D01*
X021257Y019023D01*
X021213Y019047D01*
X021171Y019074D01*
X021131Y019104D01*
X021094Y019138D01*
X021060Y019175D01*
X021028Y019214D01*
X021000Y019255D01*
X020975Y019299D01*
X020954Y019344D01*
X020937Y019391D01*
X020923Y019439D01*
X020913Y019488D01*
X020907Y019538D01*
X020905Y019588D01*
X021535Y020572D02*
X021597Y020570D01*
X021658Y020564D01*
X021719Y020555D01*
X021780Y020541D01*
X021839Y020524D01*
X021897Y020503D01*
X021954Y020478D01*
X022009Y020450D01*
X022062Y020419D01*
X022113Y020384D01*
X022162Y020346D01*
X022209Y020305D01*
X022252Y020262D01*
X022293Y020215D01*
X022331Y020166D01*
X022366Y020115D01*
X022397Y020062D01*
X022425Y020007D01*
X022450Y019950D01*
X022471Y019892D01*
X022488Y019833D01*
X022502Y019772D01*
X022511Y019711D01*
X022517Y019650D01*
X022519Y019588D01*
X022519Y001872D01*
X020905Y001872D02*
X020907Y001922D01*
X020913Y001972D01*
X020923Y002021D01*
X020937Y002069D01*
X020954Y002116D01*
X020975Y002161D01*
X021000Y002205D01*
X021028Y002246D01*
X021060Y002285D01*
X021094Y002322D01*
X021131Y002356D01*
X021171Y002386D01*
X021213Y002413D01*
X021257Y002437D01*
X021303Y002458D01*
X021350Y002474D01*
X021398Y002487D01*
X021448Y002496D01*
X021497Y002501D01*
X021548Y002502D01*
X021598Y002499D01*
X021647Y002492D01*
X021696Y002481D01*
X021744Y002466D01*
X021790Y002448D01*
X021835Y002426D01*
X021878Y002400D01*
X021919Y002371D01*
X021958Y002339D01*
X021994Y002304D01*
X022026Y002266D01*
X022056Y002226D01*
X022083Y002183D01*
X022106Y002139D01*
X022125Y002093D01*
X022141Y002045D01*
X022153Y001996D01*
X022161Y001947D01*
X022165Y001897D01*
X022165Y001847D01*
X022161Y001797D01*
X022153Y001748D01*
X022141Y001699D01*
X022125Y001651D01*
X022106Y001605D01*
X022083Y001561D01*
X022056Y001518D01*
X022026Y001478D01*
X021994Y001440D01*
X021958Y001405D01*
X021919Y001373D01*
X021878Y001344D01*
X021835Y001318D01*
X021790Y001296D01*
X021744Y001278D01*
X021696Y001263D01*
X021647Y001252D01*
X021598Y001245D01*
X021548Y001242D01*
X021497Y001243D01*
X021448Y001248D01*
X021398Y001257D01*
X021350Y001270D01*
X021303Y001286D01*
X021257Y001307D01*
X021213Y001331D01*
X021171Y001358D01*
X021131Y001388D01*
X021094Y001422D01*
X021060Y001459D01*
X021028Y001498D01*
X021000Y001539D01*
X020975Y001583D01*
X020954Y001628D01*
X020937Y001675D01*
X020923Y001723D01*
X020913Y001772D01*
X020907Y001822D01*
X020905Y001872D01*
X021535Y000888D02*
X021597Y000890D01*
X021658Y000896D01*
X021719Y000905D01*
X021780Y000919D01*
X021839Y000936D01*
X021897Y000957D01*
X021954Y000982D01*
X022009Y001010D01*
X022062Y001041D01*
X022113Y001076D01*
X022162Y001114D01*
X022209Y001155D01*
X022252Y001198D01*
X022293Y001245D01*
X022331Y001294D01*
X022366Y001345D01*
X022397Y001398D01*
X022425Y001453D01*
X022450Y001510D01*
X022471Y001568D01*
X022488Y001627D01*
X022502Y001688D01*
X022511Y001749D01*
X022517Y001810D01*
X022519Y001872D01*
X021535Y000887D02*
X003819Y000887D01*
X003189Y001872D02*
X003191Y001922D01*
X003197Y001972D01*
X003207Y002021D01*
X003221Y002069D01*
X003238Y002116D01*
X003259Y002161D01*
X003284Y002205D01*
X003312Y002246D01*
X003344Y002285D01*
X003378Y002322D01*
X003415Y002356D01*
X003455Y002386D01*
X003497Y002413D01*
X003541Y002437D01*
X003587Y002458D01*
X003634Y002474D01*
X003682Y002487D01*
X003732Y002496D01*
X003781Y002501D01*
X003832Y002502D01*
X003882Y002499D01*
X003931Y002492D01*
X003980Y002481D01*
X004028Y002466D01*
X004074Y002448D01*
X004119Y002426D01*
X004162Y002400D01*
X004203Y002371D01*
X004242Y002339D01*
X004278Y002304D01*
X004310Y002266D01*
X004340Y002226D01*
X004367Y002183D01*
X004390Y002139D01*
X004409Y002093D01*
X004425Y002045D01*
X004437Y001996D01*
X004445Y001947D01*
X004449Y001897D01*
X004449Y001847D01*
X004445Y001797D01*
X004437Y001748D01*
X004425Y001699D01*
X004409Y001651D01*
X004390Y001605D01*
X004367Y001561D01*
X004340Y001518D01*
X004310Y001478D01*
X004278Y001440D01*
X004242Y001405D01*
X004203Y001373D01*
X004162Y001344D01*
X004119Y001318D01*
X004074Y001296D01*
X004028Y001278D01*
X003980Y001263D01*
X003931Y001252D01*
X003882Y001245D01*
X003832Y001242D01*
X003781Y001243D01*
X003732Y001248D01*
X003682Y001257D01*
X003634Y001270D01*
X003587Y001286D01*
X003541Y001307D01*
X003497Y001331D01*
X003455Y001358D01*
X003415Y001388D01*
X003378Y001422D01*
X003344Y001459D01*
X003312Y001498D01*
X003284Y001539D01*
X003259Y001583D01*
X003238Y001628D01*
X003221Y001675D01*
X003207Y001723D01*
X003197Y001772D01*
X003191Y001822D01*
X003189Y001872D01*
X002835Y001872D02*
X002837Y001810D01*
X002843Y001749D01*
X002852Y001688D01*
X002866Y001627D01*
X002883Y001568D01*
X002904Y001510D01*
X002929Y001453D01*
X002957Y001398D01*
X002988Y001345D01*
X003023Y001294D01*
X003061Y001245D01*
X003102Y001198D01*
X003145Y001155D01*
X003192Y001114D01*
X003241Y001076D01*
X003292Y001041D01*
X003345Y001010D01*
X003400Y000982D01*
X003457Y000957D01*
X003515Y000936D01*
X003574Y000919D01*
X003635Y000905D01*
X003696Y000896D01*
X003757Y000890D01*
X003819Y000888D01*
X004427Y004671D02*
X004429Y004696D01*
X004435Y004720D01*
X004444Y004742D01*
X004457Y004763D01*
X004473Y004782D01*
X004492Y004798D01*
X004513Y004811D01*
X004535Y004820D01*
X004559Y004826D01*
X004584Y004828D01*
X004609Y004826D01*
X004633Y004820D01*
X004655Y004811D01*
X004676Y004798D01*
X004695Y004782D01*
X004711Y004763D01*
X004724Y004742D01*
X004733Y004720D01*
X004739Y004696D01*
X004741Y004671D01*
X004739Y004646D01*
X004733Y004622D01*
X004724Y004600D01*
X004711Y004579D01*
X004695Y004560D01*
X004676Y004544D01*
X004655Y004531D01*
X004633Y004522D01*
X004609Y004516D01*
X004584Y004514D01*
X004559Y004516D01*
X004535Y004522D01*
X004513Y004531D01*
X004492Y004544D01*
X004473Y004560D01*
X004457Y004579D01*
X004444Y004600D01*
X004435Y004622D01*
X004429Y004646D01*
X004427Y004671D01*
X004427Y006404D02*
X004429Y006429D01*
X004435Y006453D01*
X004444Y006475D01*
X004457Y006496D01*
X004473Y006515D01*
X004492Y006531D01*
X004513Y006544D01*
X004535Y006553D01*
X004559Y006559D01*
X004584Y006561D01*
X004609Y006559D01*
X004633Y006553D01*
X004655Y006544D01*
X004676Y006531D01*
X004695Y006515D01*
X004711Y006496D01*
X004724Y006475D01*
X004733Y006453D01*
X004739Y006429D01*
X004741Y006404D01*
X004739Y006379D01*
X004733Y006355D01*
X004724Y006333D01*
X004711Y006312D01*
X004695Y006293D01*
X004676Y006277D01*
X004655Y006264D01*
X004633Y006255D01*
X004609Y006249D01*
X004584Y006247D01*
X004559Y006249D01*
X004535Y006255D01*
X004513Y006264D01*
X004492Y006277D01*
X004473Y006293D01*
X004457Y006312D01*
X004444Y006333D01*
X004435Y006355D01*
X004429Y006379D01*
X004427Y006404D01*
D11*
X004934Y014937D03*
X005434Y014937D03*
X005934Y014937D03*
X006434Y014937D03*
X007734Y014937D03*
X008234Y014937D03*
X008734Y014937D03*
X009234Y014937D03*
X010534Y014937D03*
X011034Y014937D03*
X011534Y014937D03*
X012034Y014937D03*
X013334Y014937D03*
X013834Y014937D03*
X014334Y014937D03*
X014834Y014937D03*
X016134Y014937D03*
X016634Y014937D03*
X017134Y014937D03*
X017634Y014937D03*
X018934Y014937D03*
X019434Y014937D03*
X019934Y014937D03*
X020434Y014937D03*
X020434Y017037D03*
X019934Y017037D03*
X019434Y017037D03*
X018934Y017037D03*
X017634Y017037D03*
X017134Y017037D03*
X016634Y017037D03*
X016134Y017037D03*
X014834Y017037D03*
X014334Y017037D03*
X013834Y017037D03*
X013334Y017037D03*
X012034Y017037D03*
X011534Y017037D03*
X011034Y017037D03*
X010534Y017037D03*
X009234Y017037D03*
X008734Y017037D03*
X008234Y017037D03*
X007734Y017037D03*
X006434Y017037D03*
X005934Y017037D03*
X005434Y017037D03*
X004934Y017037D03*
D12*
X005534Y014337D03*
X005534Y013737D03*
X006534Y013737D03*
X006534Y014337D03*
X008334Y014337D03*
X008334Y013737D03*
X009334Y013737D03*
X009334Y014337D03*
X011134Y014337D03*
X011134Y013737D03*
X012134Y013737D03*
X012134Y014337D03*
X013934Y014337D03*
X013934Y013737D03*
X014934Y013737D03*
X014934Y014337D03*
X016734Y014337D03*
X016734Y013737D03*
X017734Y013737D03*
X017734Y014337D03*
X019534Y014337D03*
X019534Y013737D03*
X020534Y013737D03*
X020534Y014337D03*
X015034Y011537D03*
X014534Y011537D03*
X015034Y010937D03*
X014534Y008687D03*
X013934Y008337D03*
X014534Y008087D03*
X016984Y006037D03*
X016334Y004487D03*
X014334Y005437D03*
X013684Y005437D03*
X013034Y005437D03*
X013034Y004837D03*
X013684Y004837D03*
X012384Y004837D03*
X011734Y004837D03*
X011734Y005437D03*
X012384Y005437D03*
X008134Y006137D03*
X007934Y009187D03*
X007934Y011087D03*
X006834Y012337D03*
X006134Y012337D03*
X005434Y012337D03*
X010584Y011587D03*
D13*
X008734Y019237D03*
X007734Y019237D03*
X006734Y019237D03*
X016634Y019237D03*
X017634Y019237D03*
X018634Y019237D03*
D14*
X005529Y007309D03*
X003403Y007309D03*
X003403Y003766D03*
X005529Y003766D03*
D15*
X005647Y004907D03*
X005647Y005222D03*
X005647Y005537D03*
X005647Y005852D03*
X005647Y006167D03*
D16*
X006484Y005937D03*
X006484Y005437D03*
X007084Y005437D03*
X007084Y005937D03*
X007084Y006437D03*
X007084Y006937D03*
X006484Y006437D03*
X009784Y005487D03*
X009884Y007637D03*
X015534Y007487D03*
X018184Y006787D03*
X018234Y004987D03*
X017634Y003837D03*
X016684Y011087D03*
X016684Y011587D03*
X016684Y012087D03*
X017284Y012087D03*
D17*
X014534Y010937D03*
X013934Y007737D03*
X016984Y005437D03*
X016334Y003887D03*
X014334Y004837D03*
X008134Y005537D03*
X007934Y009787D03*
X007934Y010487D03*
X010584Y012187D03*
X006834Y012937D03*
X006134Y012937D03*
X005434Y012937D03*
D18*
X009284Y007637D03*
X009184Y005487D03*
X006484Y006937D03*
X016134Y007487D03*
X017584Y006787D03*
X017634Y004987D03*
X018234Y003837D03*
X017284Y011087D03*
X017284Y011587D03*
D19*
X021119Y006437D03*
D20*
X018245Y005540D03*
X018245Y007335D03*
D21*
X021284Y012737D03*
D22*
X021284Y010737D03*
D23*
X020034Y011087D03*
X020034Y011587D03*
X020034Y012087D03*
X020034Y012587D03*
X017934Y012587D03*
X017934Y012087D03*
X017934Y011587D03*
X017934Y011087D03*
X017284Y009587D03*
X017284Y009087D03*
X017284Y008587D03*
X017284Y008087D03*
X015184Y008087D03*
X015184Y008587D03*
X015184Y009087D03*
X015184Y009587D03*
D24*
X014784Y018987D03*
X010584Y018987D03*
D25*
X011584Y018987D03*
X013784Y018987D03*
D26*
X019394Y008687D03*
X021874Y008687D03*
X021884Y004187D03*
X019404Y004187D03*
D27*
X007284Y008087D03*
X006384Y007717D03*
X006384Y008457D03*
D28*
X003584Y008587D03*
X003584Y009587D03*
X003584Y010587D03*
X003584Y011587D03*
X003584Y013037D03*
X003584Y014037D03*
X003584Y015037D03*
X003584Y016037D03*
X003584Y017037D03*
X006684Y003987D03*
X007684Y003987D03*
X008684Y003987D03*
X008684Y002987D03*
X007684Y002987D03*
X007684Y001987D03*
X008684Y001987D03*
X009884Y002987D03*
X011084Y002987D03*
X011084Y001987D03*
X012084Y001987D03*
X012084Y002987D03*
X012084Y003987D03*
X011084Y003987D03*
X009884Y003987D03*
X006684Y002987D03*
X006684Y001987D03*
X013284Y001987D03*
X014284Y001987D03*
X014284Y002987D03*
X013284Y002987D03*
X013284Y003987D03*
X014284Y003987D03*
X015534Y001987D03*
X016534Y001987D03*
X017534Y001987D03*
X018534Y001987D03*
X019534Y001987D03*
D29*
X016358Y004987D03*
X015610Y004987D03*
X015610Y006087D03*
X016358Y006087D03*
D30*
X015984Y004987D03*
D31*
X009784Y006113D03*
X009784Y006861D03*
X008684Y006861D03*
X008684Y006113D03*
D32*
X008684Y006487D03*
D33*
X008034Y006737D03*
X015684Y004437D03*
D34*
X015684Y003737D03*
X008034Y007437D03*
D35*
X010584Y007639D03*
X010584Y006536D03*
X015583Y006737D03*
X016685Y006737D03*
D36*
X009184Y009187D03*
X009184Y011087D03*
D37*
X006834Y011087D03*
X006134Y011087D03*
X005434Y011087D03*
X005434Y011787D03*
X006134Y011787D03*
X006834Y011787D03*
X016984Y004537D03*
X016984Y003837D03*
D38*
X013908Y008855D03*
X013908Y009052D03*
X013908Y009248D03*
X013908Y009445D03*
X013908Y009642D03*
X013908Y009839D03*
X013908Y010036D03*
X013908Y010233D03*
X013908Y010430D03*
X013908Y010626D03*
X013908Y010823D03*
X013908Y011020D03*
X010561Y011020D03*
X010561Y010823D03*
X010561Y010626D03*
X010561Y010430D03*
X010561Y010233D03*
X010561Y010036D03*
X010561Y009839D03*
X010561Y009642D03*
X010561Y009445D03*
X010561Y009248D03*
X010561Y009052D03*
X010561Y008855D03*
D39*
X011152Y008264D03*
X011348Y008264D03*
X011545Y008264D03*
X011742Y008264D03*
X011939Y008264D03*
X012136Y008264D03*
X012333Y008264D03*
X012530Y008264D03*
X012726Y008264D03*
X012923Y008264D03*
X013120Y008264D03*
X013317Y008264D03*
X013317Y011611D03*
X013120Y011611D03*
X012923Y011611D03*
X012726Y011611D03*
X012530Y011611D03*
X012333Y011611D03*
X012136Y011611D03*
X011939Y011611D03*
X011742Y011611D03*
X011545Y011611D03*
X011348Y011611D03*
X011152Y011611D03*
D40*
X011342Y011642D02*
X011356Y011642D01*
X011342Y011689D02*
X011341Y011690D01*
X011341Y011905D01*
X011259Y011987D01*
X011044Y011987D01*
X010962Y011905D01*
X010962Y011777D01*
X010882Y011777D01*
X010882Y011783D01*
X010800Y011865D01*
X010645Y011865D01*
X010640Y011867D01*
X010529Y011867D01*
X010523Y011865D01*
X010369Y011865D01*
X010287Y011783D01*
X010287Y011392D01*
X010369Y011310D01*
X010394Y011310D01*
X010394Y011209D01*
X010267Y011209D01*
X010185Y011127D01*
X010185Y010413D01*
X009914Y010413D01*
X009496Y010831D01*
X009525Y010860D01*
X009586Y011007D01*
X009586Y011167D01*
X009525Y011315D01*
X009412Y011428D01*
X009264Y011489D01*
X009104Y011489D01*
X008957Y011428D01*
X008844Y011315D01*
X008824Y011267D01*
X008232Y011267D01*
X008232Y011283D01*
X008150Y011365D01*
X007719Y011365D01*
X007637Y011283D01*
X007637Y010892D01*
X007719Y010810D01*
X008150Y010810D01*
X008232Y010892D01*
X008232Y010907D01*
X008824Y010907D01*
X008844Y010860D01*
X008957Y010747D01*
X009104Y010686D01*
X009132Y010686D01*
X009680Y010137D01*
X009132Y009589D01*
X009104Y009589D01*
X008957Y009528D01*
X008844Y009415D01*
X008824Y009367D01*
X008232Y009367D01*
X008232Y009383D01*
X008150Y009465D01*
X007719Y009465D01*
X007637Y009383D01*
X007637Y008992D01*
X007701Y008927D01*
X006513Y008927D01*
X004574Y010866D01*
X004574Y011930D01*
X004629Y011907D01*
X004740Y011907D01*
X004843Y011950D01*
X004922Y012029D01*
X004964Y012132D01*
X004964Y012243D01*
X004922Y012346D01*
X004874Y012393D01*
X004874Y013016D01*
X004056Y013835D01*
X004061Y013840D01*
X004061Y014235D01*
X003782Y014514D01*
X003387Y014514D01*
X003108Y014235D01*
X003108Y013840D01*
X002974Y013840D01*
X002974Y013918D02*
X003108Y013918D01*
X003108Y013840D02*
X003387Y013561D01*
X003782Y013561D01*
X003787Y013566D01*
X004494Y012859D01*
X004494Y012745D01*
X004440Y012767D01*
X004329Y012767D01*
X004226Y012725D01*
X004147Y012646D01*
X004104Y012543D01*
X004104Y012432D01*
X004147Y012329D01*
X004194Y012281D01*
X004194Y010807D01*
X004038Y010807D01*
X003782Y011064D01*
X003387Y011064D01*
X003108Y010785D01*
X003108Y010390D01*
X003387Y010111D01*
X003782Y010111D01*
X004038Y010367D01*
X004163Y010367D01*
X006087Y008444D01*
X006087Y008291D01*
X006094Y008284D01*
X006094Y007909D01*
X006103Y007900D01*
X006087Y007884D01*
X006087Y007551D01*
X006169Y007469D01*
X006591Y007469D01*
X006857Y007203D01*
X006807Y007153D01*
X006807Y006722D01*
X006841Y006687D01*
X006807Y006653D01*
X006807Y006222D01*
X006841Y006187D01*
X006807Y006153D01*
X006807Y005722D01*
X006841Y005687D01*
X006807Y005653D01*
X006807Y005222D01*
X006889Y005140D01*
X007280Y005140D01*
X007362Y005222D01*
X007362Y005247D01*
X007378Y005247D01*
X007426Y005200D01*
X007529Y005157D01*
X007640Y005157D01*
X007743Y005200D01*
X007822Y005279D01*
X007864Y005382D01*
X007864Y005493D01*
X007822Y005596D01*
X007743Y005675D01*
X007712Y005687D01*
X007743Y005700D01*
X007822Y005779D01*
X007864Y005882D01*
X007864Y005914D01*
X007919Y005860D01*
X008073Y005860D01*
X008079Y005857D01*
X008190Y005857D01*
X008195Y005860D01*
X008350Y005860D01*
X008364Y005873D01*
X008732Y005873D01*
X008736Y005875D01*
X008900Y005875D01*
X008982Y005957D01*
X008982Y006270D01*
X008900Y006352D01*
X008736Y006352D01*
X008732Y006353D01*
X008424Y006353D01*
X008424Y006477D01*
X008430Y006483D01*
X008430Y006621D01*
X008732Y006621D01*
X008736Y006623D01*
X008900Y006623D01*
X008982Y006705D01*
X008982Y007018D01*
X008900Y007100D01*
X008736Y007100D01*
X008732Y007101D01*
X008111Y007101D01*
X008053Y007077D01*
X008034Y007077D01*
X007774Y007337D01*
X007774Y007885D01*
X007738Y007973D01*
X007582Y008129D01*
X007582Y008254D01*
X007500Y008336D01*
X007069Y008336D01*
X006987Y008254D01*
X006987Y007921D01*
X007069Y007839D01*
X007193Y007839D01*
X007294Y007738D01*
X007294Y007389D01*
X007175Y007507D01*
X006745Y007937D01*
X006674Y007937D01*
X006674Y008284D01*
X006682Y008291D01*
X006682Y008547D01*
X009463Y008547D01*
X009574Y008659D01*
X009713Y008797D01*
X009824Y008909D01*
X009824Y009459D01*
X010015Y009649D01*
X011104Y009649D01*
X011348Y009405D01*
X011276Y009375D01*
X011197Y009296D01*
X011174Y009242D01*
X010937Y009242D01*
X010937Y009552D01*
X010855Y009634D01*
X010641Y009634D01*
X010640Y009635D01*
X010163Y009635D01*
X010056Y009527D01*
X009944Y009416D01*
X009944Y008077D01*
X009556Y008077D01*
X009444Y007966D01*
X009444Y006659D01*
X009556Y006547D01*
X009713Y006547D01*
X009856Y006547D01*
X010013Y006547D01*
X010124Y006659D01*
X010124Y006947D01*
X010913Y006947D01*
X010962Y006996D01*
X010962Y006083D01*
X009956Y005077D01*
X008906Y005077D01*
X008706Y004877D01*
X008006Y004877D01*
X007806Y004677D01*
X007106Y004677D01*
X006887Y004459D01*
X006882Y004464D01*
X006487Y004464D01*
X006208Y004185D01*
X006208Y003790D01*
X006487Y003511D01*
X006882Y003511D01*
X007161Y003790D01*
X007161Y004185D01*
X007156Y004190D01*
X007263Y004297D01*
X007320Y004297D01*
X007208Y004185D01*
X007208Y003790D01*
X007487Y003511D01*
X007882Y003511D01*
X008161Y003790D01*
X008161Y004185D01*
X008156Y004190D01*
X008263Y004297D01*
X008320Y004297D01*
X008208Y004185D01*
X008208Y003790D01*
X008487Y003511D01*
X008882Y003511D01*
X009161Y003790D01*
X009161Y004185D01*
X009156Y004190D01*
X009263Y004297D01*
X009520Y004297D01*
X009408Y004185D01*
X009408Y003790D01*
X009687Y003511D01*
X010082Y003511D01*
X010361Y003790D01*
X010361Y004185D01*
X010248Y004297D01*
X010313Y004297D01*
X010424Y004409D01*
X011437Y005421D01*
X011437Y005242D01*
X011519Y005160D01*
X011950Y005160D01*
X012032Y005242D01*
X012032Y005521D01*
X012087Y005466D01*
X012087Y005242D01*
X012169Y005160D01*
X012600Y005160D01*
X012682Y005242D01*
X012682Y005521D01*
X012737Y005466D01*
X012737Y005242D01*
X012819Y005160D01*
X013250Y005160D01*
X013332Y005242D01*
X013332Y005521D01*
X013387Y005466D01*
X013387Y005242D01*
X013469Y005160D01*
X013900Y005160D01*
X013982Y005242D01*
X013982Y005521D01*
X014037Y005466D01*
X014037Y005242D01*
X014119Y005160D01*
X014550Y005160D01*
X014632Y005242D01*
X014632Y005633D01*
X014550Y005715D01*
X014325Y005715D01*
X013713Y006327D01*
X013013Y006327D01*
X012720Y006621D01*
X012720Y007383D01*
X013254Y006849D01*
X013254Y006782D01*
X013297Y006679D01*
X013376Y006600D01*
X013479Y006557D01*
X013590Y006557D01*
X013693Y006600D01*
X013734Y006641D01*
X013776Y006600D01*
X013879Y006557D01*
X013990Y006557D01*
X014093Y006600D01*
X014172Y006679D01*
X014214Y006782D01*
X014214Y006893D01*
X014172Y006996D01*
X014093Y007075D01*
X013990Y007117D01*
X013923Y007117D01*
X013113Y007927D01*
X013113Y008343D01*
X013113Y008344D01*
X013113Y008558D01*
X013030Y008640D01*
X011044Y008640D01*
X010962Y008558D01*
X010962Y008344D01*
X010962Y008343D01*
X010962Y008029D01*
X010913Y008077D01*
X010324Y008077D01*
X010324Y008280D01*
X010379Y008257D01*
X010490Y008257D01*
X010593Y008300D01*
X010672Y008379D01*
X010714Y008482D01*
X010714Y008593D01*
X010684Y008666D01*
X010855Y008666D01*
X010937Y008748D01*
X010937Y008862D01*
X011369Y008862D01*
X011379Y008857D01*
X011490Y008857D01*
X011593Y008900D01*
X011672Y008979D01*
X011702Y009051D01*
X011704Y009049D01*
X011704Y008982D01*
X011747Y008879D01*
X011826Y008800D01*
X011929Y008757D01*
X012040Y008757D01*
X012143Y008800D01*
X012184Y008841D01*
X012226Y008800D01*
X012329Y008757D01*
X012440Y008757D01*
X012543Y008800D01*
X012622Y008879D01*
X012664Y008982D01*
X012664Y009093D01*
X012622Y009196D01*
X012543Y009275D01*
X012496Y009294D01*
X012463Y009327D01*
X010974Y010816D01*
X010937Y010816D01*
X010937Y011127D01*
X010855Y011209D01*
X010774Y011209D01*
X010774Y011310D01*
X010800Y011310D01*
X010882Y011392D01*
X010882Y011397D01*
X010962Y011397D01*
X010962Y011141D01*
X011444Y010659D01*
X011556Y010547D01*
X012794Y010547D01*
X012794Y009509D01*
X012906Y009397D01*
X013127Y009176D01*
X013127Y008185D01*
X013128Y008185D01*
X013128Y007970D01*
X013210Y007888D01*
X013424Y007888D01*
X013506Y007970D01*
X013506Y008074D01*
X013704Y008074D01*
X013719Y008060D01*
X013873Y008060D01*
X013879Y008057D01*
X013990Y008057D01*
X013995Y008060D01*
X014150Y008060D01*
X014186Y008096D01*
X014237Y008045D01*
X014237Y007892D01*
X014319Y007810D01*
X014750Y007810D01*
X014788Y007847D01*
X015232Y007847D01*
X015236Y007849D01*
X015294Y007849D01*
X015294Y007741D01*
X015257Y007703D01*
X015257Y007272D01*
X015294Y007234D01*
X015294Y007153D01*
X015250Y007153D01*
X015168Y007071D01*
X015168Y006404D01*
X015250Y006322D01*
X015370Y006322D01*
X015370Y006040D01*
X015372Y006036D01*
X015372Y005872D01*
X015454Y005790D01*
X015767Y005790D01*
X015849Y005872D01*
X015849Y006036D01*
X015850Y006040D01*
X015850Y006322D01*
X015917Y006322D01*
X015999Y006404D01*
X015999Y007071D01*
X015917Y007153D01*
X015774Y007153D01*
X015774Y007234D01*
X015812Y007272D01*
X015812Y007703D01*
X015774Y007741D01*
X015774Y008035D01*
X015738Y008123D01*
X015670Y008191D01*
X015570Y008291D01*
X015541Y008303D01*
X015518Y008326D01*
X015486Y008326D01*
X015482Y008327D01*
X015424Y008327D01*
X015424Y008349D01*
X015518Y008349D01*
X015566Y008397D01*
X015669Y008397D01*
X015697Y008329D01*
X015776Y008250D01*
X015879Y008207D01*
X015990Y008207D01*
X016093Y008250D01*
X016172Y008329D01*
X016202Y008401D01*
X016594Y008009D01*
X016706Y007897D01*
X016902Y007897D01*
X016951Y007849D01*
X017618Y007849D01*
X017700Y007931D01*
X017700Y008244D01*
X017618Y008326D01*
X016951Y008326D01*
X016902Y008277D01*
X016863Y008277D01*
X016743Y008397D01*
X016902Y008397D01*
X016951Y008349D01*
X017618Y008349D01*
X017700Y008431D01*
X017700Y008744D01*
X017618Y008826D01*
X016951Y008826D01*
X016902Y008777D01*
X016713Y008777D01*
X016656Y008835D01*
X016693Y008850D01*
X016740Y008897D01*
X016902Y008897D01*
X016951Y008849D01*
X017618Y008849D01*
X017700Y008931D01*
X017700Y009244D01*
X017618Y009326D01*
X016951Y009326D01*
X016902Y009277D01*
X016740Y009277D01*
X016693Y009325D01*
X016590Y009367D01*
X016479Y009367D01*
X016376Y009325D01*
X016297Y009246D01*
X016282Y009209D01*
X016074Y009416D01*
X015963Y009527D01*
X015600Y009527D01*
X015600Y009744D01*
X015518Y009826D01*
X014851Y009826D01*
X014802Y009777D01*
X014743Y009777D01*
X015023Y010057D01*
X015090Y010057D01*
X015193Y010100D01*
X015272Y010179D01*
X015314Y010282D01*
X015314Y010393D01*
X015301Y010424D01*
X015326Y010400D01*
X015429Y010357D01*
X015540Y010357D01*
X015643Y010400D01*
X015722Y010479D01*
X015764Y010582D01*
X015764Y010649D01*
X016013Y010897D01*
X016407Y010897D01*
X016407Y010872D01*
X016489Y010790D01*
X016880Y010790D01*
X016962Y010872D01*
X016962Y011303D01*
X016928Y011337D01*
X016962Y011372D01*
X016962Y011803D01*
X016928Y011837D01*
X016962Y011872D01*
X016962Y012303D01*
X016880Y012385D01*
X016489Y012385D01*
X016407Y012303D01*
X016407Y011872D01*
X016441Y011837D01*
X016407Y011803D01*
X016407Y011372D01*
X016441Y011337D01*
X016407Y011303D01*
X016407Y011277D01*
X015856Y011277D01*
X015496Y010917D01*
X015429Y010917D01*
X015332Y010877D01*
X015332Y011133D01*
X015250Y011215D01*
X014819Y011215D01*
X014737Y011133D01*
X014737Y010909D01*
X014598Y010770D01*
X014593Y010775D01*
X014490Y010817D01*
X014379Y010817D01*
X014276Y010775D01*
X014259Y010758D01*
X014202Y010816D01*
X013987Y010816D01*
X013986Y010816D01*
X013632Y010816D01*
X013646Y010830D01*
X014146Y010830D01*
X014146Y010831D01*
X014202Y010831D01*
X014284Y010913D01*
X014284Y011018D01*
X014525Y011260D01*
X014750Y011260D01*
X014784Y011294D01*
X014819Y011260D01*
X015250Y011260D01*
X015332Y011342D01*
X015332Y011733D01*
X015250Y011815D01*
X014819Y011815D01*
X014784Y011781D01*
X014750Y011815D01*
X014319Y011815D01*
X014237Y011733D01*
X014237Y011509D01*
X013938Y011210D01*
X013507Y011210D01*
X013507Y011689D01*
X013506Y011690D01*
X013506Y011905D01*
X013431Y011980D01*
X013509Y012057D01*
X014968Y012057D01*
X015026Y012000D01*
X015129Y011957D01*
X015240Y011957D01*
X015343Y012000D01*
X015422Y012079D01*
X015464Y012182D01*
X015464Y012293D01*
X015438Y012357D01*
X016009Y012357D01*
X016459Y012807D01*
X016718Y012807D01*
X016776Y012750D01*
X016879Y012707D01*
X016990Y012707D01*
X017093Y012750D01*
X017172Y012829D01*
X017214Y012932D01*
X017214Y013043D01*
X017172Y013146D01*
X017093Y013225D01*
X016990Y013267D01*
X016879Y013267D01*
X016776Y013225D01*
X016718Y013167D01*
X016310Y013167D01*
X016204Y013062D01*
X015860Y012717D01*
X014960Y012717D01*
X014860Y012617D01*
X014288Y012617D01*
X014314Y012682D01*
X014314Y012793D01*
X014272Y012896D01*
X014193Y012975D01*
X014090Y013017D01*
X013979Y013017D01*
X013876Y012975D01*
X013818Y012917D01*
X013360Y012917D01*
X012652Y012210D01*
X012546Y012104D01*
X012546Y011987D01*
X012326Y011987D01*
X012326Y012207D01*
X012390Y012207D01*
X012493Y012250D01*
X012572Y012329D01*
X012614Y012432D01*
X012614Y012543D01*
X012572Y012646D01*
X012493Y012725D01*
X012390Y012767D01*
X012279Y012767D01*
X012176Y012725D01*
X012097Y012646D01*
X012054Y012543D01*
X012054Y012476D01*
X012034Y012456D01*
X012014Y012476D01*
X012014Y012543D01*
X011972Y012646D01*
X011893Y012725D01*
X011790Y012767D01*
X011679Y012767D01*
X011576Y012725D01*
X011497Y012646D01*
X011477Y012599D01*
X011209Y012867D01*
X010150Y012867D01*
X010093Y012925D01*
X009990Y012967D01*
X009879Y012967D01*
X009776Y012925D01*
X009697Y012846D01*
X009654Y012743D01*
X009654Y012632D01*
X009681Y012567D01*
X008300Y012567D01*
X008243Y012625D01*
X008140Y012667D01*
X008029Y012667D01*
X007926Y012625D01*
X007847Y012546D01*
X007804Y012443D01*
X007804Y012332D01*
X007847Y012229D01*
X007926Y012150D01*
X008029Y012107D01*
X008140Y012107D01*
X008243Y012150D01*
X008300Y012207D01*
X010159Y012207D01*
X010259Y012307D01*
X011010Y012307D01*
X011365Y011952D01*
X011365Y011914D01*
X011356Y011905D01*
X011356Y011316D01*
X011438Y011234D01*
X011885Y011234D01*
X011847Y011196D01*
X011804Y011093D01*
X011804Y010982D01*
X011827Y010927D01*
X011713Y010927D01*
X011342Y011299D01*
X011342Y011689D01*
X011341Y011720D02*
X011356Y011720D01*
X011356Y011799D02*
X011341Y011799D01*
X011341Y011877D02*
X011356Y011877D01*
X011361Y011956D02*
X011290Y011956D01*
X011283Y012034D02*
X007614Y012034D01*
X007614Y012032D02*
X007614Y012143D01*
X007572Y012246D01*
X007493Y012325D01*
X007390Y012367D01*
X007279Y012367D01*
X007176Y012325D01*
X007132Y012281D01*
X007132Y012533D01*
X007050Y012615D01*
X006619Y012615D01*
X006537Y012533D01*
X006537Y012142D01*
X006554Y012124D01*
X006540Y012124D01*
X006484Y012068D01*
X006429Y012124D01*
X006414Y012124D01*
X006432Y012142D01*
X006432Y012533D01*
X006350Y012615D01*
X005919Y012615D01*
X005837Y012533D01*
X005837Y012142D01*
X005854Y012124D01*
X005840Y012124D01*
X005784Y012068D01*
X005729Y012124D01*
X005714Y012124D01*
X005732Y012142D01*
X005732Y012533D01*
X005650Y012615D01*
X005219Y012615D01*
X005137Y012533D01*
X005137Y012142D01*
X005154Y012124D01*
X005140Y012124D01*
X005058Y012042D01*
X005058Y011533D01*
X005140Y011451D01*
X005729Y011451D01*
X005784Y011506D01*
X005840Y011451D01*
X006429Y011451D01*
X006484Y011506D01*
X006540Y011451D01*
X006929Y011451D01*
X006902Y011424D01*
X006540Y011424D01*
X006484Y011368D01*
X006429Y011424D01*
X005840Y011424D01*
X005784Y011368D01*
X005729Y011424D01*
X005140Y011424D01*
X005058Y011342D01*
X005058Y010833D01*
X005140Y010751D01*
X005729Y010751D01*
X005784Y010806D01*
X005840Y010751D01*
X006429Y010751D01*
X006484Y010806D01*
X006540Y010751D01*
X006902Y010751D01*
X007094Y010559D01*
X007094Y009693D01*
X007047Y009646D01*
X007004Y009543D01*
X007004Y009432D01*
X007047Y009329D01*
X007126Y009250D01*
X007229Y009207D01*
X007340Y009207D01*
X007443Y009250D01*
X007522Y009329D01*
X007564Y009432D01*
X007564Y009543D01*
X007522Y009646D01*
X007474Y009693D01*
X007474Y010716D01*
X007211Y010980D01*
X007211Y011195D01*
X007524Y011509D01*
X007524Y011881D01*
X007572Y011929D01*
X007614Y012032D01*
X007614Y012113D02*
X008015Y012113D01*
X008153Y012113D02*
X011204Y012113D01*
X011126Y012191D02*
X008284Y012191D01*
X008084Y012387D02*
X010084Y012387D01*
X010184Y012487D01*
X011084Y012487D01*
X011545Y012026D01*
X011545Y011611D01*
X011356Y011563D02*
X011342Y011563D01*
X011342Y011485D02*
X011356Y011485D01*
X011356Y011406D02*
X011342Y011406D01*
X011342Y011328D02*
X011356Y011328D01*
X011391Y011249D02*
X011423Y011249D01*
X011469Y011171D02*
X011837Y011171D01*
X011804Y011092D02*
X011548Y011092D01*
X011626Y011014D02*
X011804Y011014D01*
X011823Y010935D02*
X011705Y010935D01*
X011403Y010700D02*
X011090Y010700D01*
X011012Y010778D02*
X011325Y010778D01*
X011246Y010857D02*
X010937Y010857D01*
X010937Y010935D02*
X011168Y010935D01*
X011089Y011014D02*
X010937Y011014D01*
X010937Y011092D02*
X011011Y011092D01*
X010962Y011171D02*
X010894Y011171D01*
X010962Y011249D02*
X010774Y011249D01*
X010818Y011328D02*
X010962Y011328D01*
X010962Y011799D02*
X010866Y011799D01*
X010962Y011877D02*
X007524Y011877D01*
X007524Y011799D02*
X010303Y011799D01*
X010287Y011720D02*
X007524Y011720D01*
X007524Y011642D02*
X010287Y011642D01*
X010287Y011563D02*
X007524Y011563D01*
X007501Y011485D02*
X009094Y011485D01*
X008935Y011406D02*
X007422Y011406D01*
X007344Y011328D02*
X007682Y011328D01*
X007637Y011249D02*
X007265Y011249D01*
X007211Y011171D02*
X007637Y011171D01*
X007637Y011092D02*
X007211Y011092D01*
X007211Y011014D02*
X007637Y011014D01*
X007637Y010935D02*
X007255Y010935D01*
X007333Y010857D02*
X007672Y010857D01*
X007474Y010700D02*
X009070Y010700D01*
X009196Y010621D02*
X007474Y010621D01*
X007474Y010543D02*
X009274Y010543D01*
X009353Y010464D02*
X007474Y010464D01*
X007474Y010386D02*
X009431Y010386D01*
X009510Y010307D02*
X007474Y010307D01*
X007474Y010229D02*
X009588Y010229D01*
X009667Y010150D02*
X007474Y010150D01*
X007474Y010072D02*
X009614Y010072D01*
X009536Y009993D02*
X007474Y009993D01*
X007474Y009915D02*
X009457Y009915D01*
X009379Y009836D02*
X007474Y009836D01*
X007474Y009758D02*
X009300Y009758D01*
X009222Y009679D02*
X007488Y009679D01*
X007540Y009601D02*
X009143Y009601D01*
X008951Y009522D02*
X007564Y009522D01*
X007564Y009444D02*
X007698Y009444D01*
X007637Y009365D02*
X007537Y009365D01*
X007480Y009287D02*
X007637Y009287D01*
X007637Y009208D02*
X007342Y009208D01*
X007226Y009208D02*
X006232Y009208D01*
X006310Y009130D02*
X007637Y009130D01*
X007637Y009051D02*
X006389Y009051D01*
X006467Y008973D02*
X007656Y008973D01*
X007934Y009187D02*
X009184Y009187D01*
X009184Y009387D01*
X009833Y010036D01*
X010561Y010036D01*
X010561Y010233D02*
X009839Y010233D01*
X009184Y010887D01*
X009184Y011087D01*
X007934Y011087D01*
X008187Y011328D02*
X008857Y011328D01*
X009275Y011485D02*
X010287Y011485D01*
X010287Y011406D02*
X009434Y011406D01*
X009512Y011328D02*
X010351Y011328D01*
X010394Y011249D02*
X009552Y011249D01*
X009585Y011171D02*
X010229Y011171D01*
X010185Y011092D02*
X009586Y011092D01*
X009586Y011014D02*
X010185Y011014D01*
X010185Y010935D02*
X009556Y010935D01*
X009522Y010857D02*
X010185Y010857D01*
X010185Y010778D02*
X009548Y010778D01*
X009626Y010700D02*
X010185Y010700D01*
X010185Y010621D02*
X009705Y010621D01*
X009783Y010543D02*
X010185Y010543D01*
X010185Y010464D02*
X009862Y010464D01*
X009967Y009601D02*
X010129Y009601D01*
X010051Y009522D02*
X009888Y009522D01*
X009824Y009444D02*
X009972Y009444D01*
X009944Y009365D02*
X009824Y009365D01*
X009824Y009287D02*
X009944Y009287D01*
X009944Y009208D02*
X009824Y009208D01*
X009824Y009130D02*
X009944Y009130D01*
X009944Y009051D02*
X009824Y009051D01*
X009824Y008973D02*
X009944Y008973D01*
X009944Y008894D02*
X009810Y008894D01*
X009732Y008816D02*
X009944Y008816D01*
X009944Y008737D02*
X009653Y008737D01*
X009575Y008659D02*
X009944Y008659D01*
X009944Y008580D02*
X009496Y008580D01*
X009574Y008659D02*
X009574Y008659D01*
X009944Y008502D02*
X006682Y008502D01*
X006682Y008423D02*
X009944Y008423D01*
X009944Y008345D02*
X006682Y008345D01*
X006674Y008266D02*
X007000Y008266D01*
X006987Y008188D02*
X006674Y008188D01*
X006674Y008109D02*
X006987Y008109D01*
X006987Y008031D02*
X006674Y008031D01*
X006674Y007952D02*
X006987Y007952D01*
X007034Y007874D02*
X006809Y007874D01*
X006887Y007795D02*
X007237Y007795D01*
X007294Y007717D02*
X006966Y007717D01*
X007044Y007638D02*
X007294Y007638D01*
X007294Y007560D02*
X007123Y007560D01*
X007201Y007481D02*
X007294Y007481D01*
X007294Y007403D02*
X007280Y007403D01*
X006815Y007246D02*
X002974Y007246D01*
X002974Y007324D02*
X006736Y007324D01*
X006658Y007403D02*
X002974Y007403D01*
X002974Y007481D02*
X006157Y007481D01*
X006087Y007560D02*
X002974Y007560D01*
X002974Y007638D02*
X006087Y007638D01*
X006087Y007717D02*
X002974Y007717D01*
X002974Y007795D02*
X006087Y007795D01*
X006087Y007874D02*
X002974Y007874D01*
X002974Y007952D02*
X006094Y007952D01*
X006094Y008031D02*
X002974Y008031D01*
X002974Y008109D02*
X006094Y008109D01*
X006094Y008188D02*
X003859Y008188D01*
X003782Y008111D02*
X004061Y008390D01*
X004061Y008785D01*
X003782Y009064D01*
X003387Y009064D01*
X003108Y008785D01*
X003108Y008390D01*
X003387Y008111D01*
X003782Y008111D01*
X003937Y008266D02*
X006094Y008266D01*
X006087Y008345D02*
X004016Y008345D01*
X004061Y008423D02*
X006087Y008423D01*
X006029Y008502D02*
X004061Y008502D01*
X004061Y008580D02*
X005950Y008580D01*
X005872Y008659D02*
X004061Y008659D01*
X004061Y008737D02*
X005793Y008737D01*
X005715Y008816D02*
X004030Y008816D01*
X003951Y008894D02*
X005636Y008894D01*
X005558Y008973D02*
X003873Y008973D01*
X003794Y009051D02*
X005479Y009051D01*
X005401Y009130D02*
X003801Y009130D01*
X003782Y009111D02*
X004061Y009390D01*
X004061Y009785D01*
X003782Y010064D01*
X003387Y010064D01*
X003108Y009785D01*
X003108Y009390D01*
X003387Y009111D01*
X003782Y009111D01*
X003879Y009208D02*
X005322Y009208D01*
X005244Y009287D02*
X003958Y009287D01*
X004036Y009365D02*
X005165Y009365D01*
X005087Y009444D02*
X004061Y009444D01*
X004061Y009522D02*
X005008Y009522D01*
X004930Y009601D02*
X004061Y009601D01*
X004061Y009679D02*
X004851Y009679D01*
X004773Y009758D02*
X004061Y009758D01*
X004009Y009836D02*
X004694Y009836D01*
X004616Y009915D02*
X003931Y009915D01*
X003852Y009993D02*
X004537Y009993D01*
X004459Y010072D02*
X002974Y010072D01*
X002974Y010150D02*
X003347Y010150D01*
X003269Y010229D02*
X002974Y010229D01*
X002974Y010307D02*
X003190Y010307D01*
X003112Y010386D02*
X002974Y010386D01*
X002974Y010464D02*
X003108Y010464D01*
X003108Y010543D02*
X002974Y010543D01*
X002974Y010621D02*
X003108Y010621D01*
X003108Y010700D02*
X002974Y010700D01*
X002974Y010778D02*
X003108Y010778D01*
X003180Y010857D02*
X002974Y010857D01*
X002974Y010935D02*
X003258Y010935D01*
X003337Y011014D02*
X002974Y011014D01*
X002974Y011092D02*
X004194Y011092D01*
X004194Y011014D02*
X003832Y011014D01*
X003910Y010935D02*
X004194Y010935D01*
X004194Y010857D02*
X003989Y010857D01*
X004194Y011171D02*
X002974Y011171D01*
X002974Y011249D02*
X004194Y011249D01*
X004194Y011328D02*
X002974Y011328D01*
X002974Y011406D02*
X004194Y011406D01*
X004194Y011485D02*
X002974Y011485D01*
X002974Y011563D02*
X004194Y011563D01*
X004194Y011642D02*
X002974Y011642D01*
X002974Y011720D02*
X004194Y011720D01*
X004194Y011799D02*
X002974Y011799D01*
X002974Y011877D02*
X004194Y011877D01*
X004194Y011956D02*
X002974Y011956D01*
X002974Y012034D02*
X004194Y012034D01*
X004194Y012113D02*
X002974Y012113D01*
X002974Y012191D02*
X004194Y012191D01*
X004194Y012270D02*
X002974Y012270D01*
X002974Y012348D02*
X004139Y012348D01*
X004106Y012427D02*
X002974Y012427D01*
X002974Y012505D02*
X004104Y012505D01*
X004121Y012584D02*
X003805Y012584D01*
X003782Y012561D02*
X004061Y012840D01*
X004061Y013235D01*
X003782Y013514D01*
X003387Y013514D01*
X003108Y013235D01*
X003108Y012840D01*
X003387Y012561D01*
X003782Y012561D01*
X003883Y012662D02*
X004163Y012662D01*
X004265Y012741D02*
X003962Y012741D01*
X004040Y012819D02*
X004494Y012819D01*
X004455Y012898D02*
X004061Y012898D01*
X004061Y012976D02*
X004377Y012976D01*
X004298Y013055D02*
X004061Y013055D01*
X004061Y013133D02*
X004220Y013133D01*
X004141Y013212D02*
X004061Y013212D01*
X004063Y013290D02*
X004005Y013290D01*
X003984Y013369D02*
X003927Y013369D01*
X003906Y013447D02*
X003848Y013447D01*
X003827Y013526D02*
X002974Y013526D01*
X002974Y013604D02*
X003343Y013604D01*
X003265Y013683D02*
X002974Y013683D01*
X002974Y013761D02*
X003186Y013761D01*
X003108Y013997D02*
X002974Y013997D01*
X002974Y014075D02*
X003108Y014075D01*
X003108Y014154D02*
X002974Y014154D01*
X002974Y014232D02*
X003108Y014232D01*
X003184Y014311D02*
X002974Y014311D01*
X002974Y014389D02*
X003262Y014389D01*
X003341Y014468D02*
X002974Y014468D01*
X002974Y014546D02*
X005024Y014546D01*
X005024Y014468D02*
X003828Y014468D01*
X003906Y014389D02*
X005024Y014389D01*
X005024Y014311D02*
X003985Y014311D01*
X004061Y014232D02*
X005024Y014232D01*
X005024Y014154D02*
X004061Y014154D01*
X004061Y014075D02*
X005024Y014075D01*
X005024Y013997D02*
X004061Y013997D01*
X004061Y013918D02*
X005099Y013918D01*
X005130Y013887D02*
X005237Y013780D01*
X005237Y013542D01*
X005319Y013460D01*
X005750Y013460D01*
X005783Y013493D01*
X005826Y013450D01*
X005929Y013407D01*
X006010Y013407D01*
X006054Y013363D01*
X006160Y013257D01*
X007259Y013257D01*
X007409Y013407D01*
X007490Y013407D01*
X007593Y013450D01*
X007672Y013529D01*
X007714Y013632D01*
X007714Y013743D01*
X007672Y013846D01*
X007593Y013925D01*
X007490Y013967D01*
X007379Y013967D01*
X007276Y013925D01*
X007197Y013846D01*
X007154Y013743D01*
X007154Y013662D01*
X007110Y013617D01*
X006832Y013617D01*
X006832Y013933D01*
X006750Y014015D01*
X006511Y014015D01*
X006467Y014060D01*
X006750Y014060D01*
X006832Y014142D01*
X006832Y014533D01*
X006750Y014615D01*
X006673Y014615D01*
X006673Y015127D01*
X007471Y015127D01*
X007594Y015250D01*
X007594Y015430D01*
X007697Y015327D01*
X007824Y015200D01*
X007824Y013993D01*
X008037Y013780D01*
X008037Y013542D01*
X008119Y013460D01*
X008550Y013460D01*
X008608Y013518D01*
X008676Y013450D01*
X008779Y013407D01*
X008860Y013407D01*
X008904Y013363D01*
X009010Y013257D01*
X010059Y013257D01*
X010209Y013407D01*
X010290Y013407D01*
X010393Y013450D01*
X010472Y013529D01*
X010514Y013632D01*
X010514Y013743D01*
X010472Y013846D01*
X010393Y013925D01*
X010290Y013967D01*
X010179Y013967D01*
X010076Y013925D01*
X009997Y013846D01*
X009954Y013743D01*
X009954Y013662D01*
X009910Y013617D01*
X009632Y013617D01*
X009632Y013933D01*
X009550Y014015D01*
X009311Y014015D01*
X009267Y014060D01*
X009550Y014060D01*
X009632Y014142D01*
X009632Y014533D01*
X009550Y014615D01*
X009473Y014615D01*
X009473Y015127D01*
X010271Y015127D01*
X010394Y015250D01*
X010394Y015380D01*
X010497Y015277D01*
X010624Y015150D01*
X010624Y013993D01*
X010730Y013887D01*
X010837Y013780D01*
X010837Y013542D01*
X010919Y013460D01*
X011350Y013460D01*
X011408Y013518D01*
X011476Y013450D01*
X011579Y013407D01*
X011660Y013407D01*
X011704Y013363D01*
X011810Y013257D01*
X012859Y013257D01*
X012964Y013363D01*
X013009Y013407D01*
X013090Y013407D01*
X013193Y013450D01*
X013272Y013529D01*
X013314Y013632D01*
X013314Y013743D01*
X013272Y013846D01*
X013193Y013925D01*
X013090Y013967D01*
X012979Y013967D01*
X012876Y013925D01*
X012797Y013846D01*
X012754Y013743D01*
X012754Y013662D01*
X012710Y013617D01*
X012432Y013617D01*
X012432Y013933D01*
X012350Y014015D01*
X012111Y014015D01*
X012067Y014060D01*
X012350Y014060D01*
X012432Y014142D01*
X012432Y014533D01*
X012350Y014615D01*
X012273Y014615D01*
X012273Y015127D01*
X013071Y015127D01*
X013194Y015250D01*
X013194Y015530D01*
X013204Y015520D01*
X013204Y015463D01*
X013424Y015243D01*
X013424Y013993D01*
X013530Y013887D01*
X013637Y013780D01*
X013637Y013542D01*
X013719Y013460D01*
X014150Y013460D01*
X014208Y013518D01*
X014276Y013450D01*
X014379Y013407D01*
X014460Y013407D01*
X014504Y013363D01*
X014610Y013257D01*
X015659Y013257D01*
X015809Y013407D01*
X015890Y013407D01*
X015993Y013450D01*
X016072Y013529D01*
X016114Y013632D01*
X016114Y013743D01*
X016072Y013846D01*
X015993Y013925D01*
X015890Y013967D01*
X015779Y013967D01*
X015676Y013925D01*
X015597Y013846D01*
X015554Y013743D01*
X015554Y013662D01*
X015510Y013617D01*
X015232Y013617D01*
X015232Y013933D01*
X015150Y014015D01*
X014911Y014015D01*
X014867Y014060D01*
X015150Y014060D01*
X015232Y014142D01*
X015232Y014533D01*
X015150Y014615D01*
X015073Y014615D01*
X015073Y015127D01*
X015871Y015127D01*
X015994Y015250D01*
X015994Y015480D01*
X016004Y015470D01*
X016004Y015413D01*
X016224Y015193D01*
X016224Y013993D01*
X016330Y013887D01*
X016437Y013780D01*
X016437Y013542D01*
X016519Y013460D01*
X016950Y013460D01*
X017008Y013518D01*
X017076Y013450D01*
X017179Y013407D01*
X017260Y013407D01*
X017474Y013193D01*
X017474Y012405D01*
X017080Y012405D01*
X016987Y012311D01*
X016987Y011864D01*
X017080Y011770D01*
X017474Y011770D01*
X017474Y011400D01*
X017597Y011277D01*
X018274Y011277D01*
X018274Y009756D01*
X018337Y009605D01*
X018452Y009490D01*
X018762Y009180D01*
X018762Y008070D01*
X018774Y008057D01*
X018774Y007937D01*
X018535Y007697D01*
X018175Y007697D01*
X018162Y007692D01*
X017863Y007692D01*
X017770Y007598D01*
X017770Y007072D01*
X017863Y006978D01*
X017887Y006978D01*
X017887Y006564D01*
X017980Y006470D01*
X018388Y006470D01*
X018482Y006564D01*
X018482Y006977D01*
X018756Y006977D01*
X018888Y007032D01*
X019338Y007482D01*
X019440Y007583D01*
X019494Y007716D01*
X019494Y007976D01*
X019933Y007976D01*
X020027Y008070D01*
X020027Y009305D01*
X019933Y009399D01*
X019594Y009399D01*
X019594Y009419D01*
X019532Y009570D01*
X019094Y010007D01*
X019094Y013324D01*
X018971Y013447D01*
X018794Y013624D01*
X018794Y015430D01*
X018804Y015420D01*
X018804Y015413D01*
X019024Y015193D01*
X019024Y013993D01*
X019130Y013887D01*
X019237Y013780D01*
X019237Y013542D01*
X019319Y013460D01*
X019750Y013460D01*
X019832Y013542D01*
X019832Y013933D01*
X019750Y014015D01*
X019511Y014015D01*
X019467Y014060D01*
X019750Y014060D01*
X019832Y014142D01*
X019832Y014477D01*
X020024Y014477D01*
X020024Y013993D01*
X020130Y013887D01*
X020237Y013780D01*
X020237Y013542D01*
X020319Y013460D01*
X020750Y013460D01*
X020832Y013542D01*
X020832Y013933D01*
X020750Y014015D01*
X020511Y014015D01*
X020467Y014060D01*
X020750Y014060D01*
X020832Y014142D01*
X020832Y014533D01*
X020750Y014615D01*
X020673Y014615D01*
X020673Y015127D01*
X021471Y015127D01*
X021594Y015250D01*
X021594Y017874D01*
X021471Y017997D01*
X019747Y017997D01*
X019734Y017984D01*
X019721Y017997D01*
X019444Y017997D01*
X019444Y018919D01*
X019382Y019070D01*
X019267Y019185D01*
X019267Y019185D01*
X019211Y019241D01*
X019211Y019476D01*
X018873Y019814D01*
X018396Y019814D01*
X018134Y019552D01*
X017873Y019814D01*
X017396Y019814D01*
X017134Y019552D01*
X016873Y019814D01*
X016396Y019814D01*
X016058Y019476D01*
X016058Y019241D01*
X015464Y018647D01*
X014259Y018647D01*
X014259Y019369D01*
X014166Y019462D01*
X013403Y019462D01*
X013388Y019447D01*
X011981Y019447D01*
X011966Y019462D01*
X011203Y019462D01*
X011109Y019369D01*
X011109Y018606D01*
X011203Y018512D01*
X011224Y018512D01*
X011224Y017997D01*
X010704Y017997D01*
X009311Y019391D01*
X009311Y019476D01*
X008973Y019814D01*
X008496Y019814D01*
X008234Y019552D01*
X007973Y019814D01*
X007496Y019814D01*
X007234Y019552D01*
X006973Y019814D01*
X006496Y019814D01*
X006158Y019476D01*
X006158Y019241D01*
X005202Y018285D01*
X005087Y018170D01*
X005024Y018019D01*
X005024Y017997D01*
X004747Y017997D01*
X004624Y017874D01*
X004624Y016600D01*
X004712Y016512D01*
X004704Y016493D01*
X004704Y016382D01*
X004747Y016279D01*
X004774Y016251D01*
X004774Y015450D01*
X004897Y015327D01*
X005024Y015200D01*
X005024Y013993D01*
X005130Y013887D01*
X005177Y013840D02*
X004061Y013840D01*
X004129Y013761D02*
X005237Y013761D01*
X005237Y013683D02*
X004207Y013683D01*
X004286Y013604D02*
X005237Y013604D01*
X005253Y013526D02*
X004364Y013526D01*
X004443Y013447D02*
X005832Y013447D01*
X006048Y013369D02*
X004521Y013369D01*
X004600Y013290D02*
X006127Y013290D01*
X006234Y013437D02*
X007184Y013437D01*
X007434Y013687D01*
X007154Y013683D02*
X006832Y013683D01*
X006832Y013761D02*
X007162Y013761D01*
X007194Y013840D02*
X006832Y013840D01*
X006832Y013918D02*
X007269Y013918D01*
X007599Y013918D02*
X007899Y013918D01*
X007824Y013997D02*
X006768Y013997D01*
X006766Y014075D02*
X007824Y014075D01*
X007824Y014154D02*
X006832Y014154D01*
X006832Y014232D02*
X007824Y014232D01*
X007824Y014311D02*
X006832Y014311D01*
X006832Y014389D02*
X007824Y014389D01*
X007824Y014468D02*
X006832Y014468D01*
X006819Y014546D02*
X007824Y014546D01*
X007824Y014625D02*
X006673Y014625D01*
X006673Y014703D02*
X007824Y014703D01*
X007824Y014782D02*
X006673Y014782D01*
X006673Y014860D02*
X007824Y014860D01*
X007824Y014939D02*
X006673Y014939D01*
X006673Y015017D02*
X007824Y015017D01*
X007824Y015096D02*
X006673Y015096D01*
X006434Y014937D02*
X006434Y014437D01*
X006534Y014337D01*
X006204Y014067D02*
X006204Y015517D01*
X005984Y015737D01*
X005984Y016437D01*
X004984Y016437D02*
X004984Y015537D01*
X005204Y015317D01*
X005204Y014067D01*
X005534Y013737D01*
X005984Y013687D02*
X006234Y013437D01*
X006534Y013737D02*
X006204Y014067D01*
X005534Y014337D02*
X005434Y014437D01*
X005434Y014937D01*
X005024Y014939D02*
X002974Y014939D01*
X002974Y015017D02*
X005024Y015017D01*
X005024Y015096D02*
X002974Y015096D01*
X002974Y015174D02*
X005024Y015174D01*
X004972Y015253D02*
X002974Y015253D01*
X002974Y015331D02*
X004893Y015331D01*
X004815Y015410D02*
X002974Y015410D01*
X002974Y015488D02*
X004774Y015488D01*
X004774Y015567D02*
X003788Y015567D01*
X003782Y015561D02*
X004061Y015840D01*
X004061Y016235D01*
X003782Y016514D01*
X003387Y016514D01*
X003108Y016235D01*
X003108Y015840D01*
X003387Y015561D01*
X003782Y015561D01*
X003866Y015645D02*
X004774Y015645D01*
X004774Y015724D02*
X003945Y015724D01*
X004023Y015802D02*
X004774Y015802D01*
X004774Y015881D02*
X004061Y015881D01*
X004061Y015959D02*
X004774Y015959D01*
X004774Y016038D02*
X004061Y016038D01*
X004061Y016116D02*
X004774Y016116D01*
X004774Y016195D02*
X004061Y016195D01*
X004022Y016273D02*
X004752Y016273D01*
X004717Y016352D02*
X003944Y016352D01*
X003865Y016430D02*
X004704Y016430D01*
X004711Y016509D02*
X003787Y016509D01*
X003782Y016561D02*
X004061Y016840D01*
X004061Y017235D01*
X003782Y017514D01*
X003387Y017514D01*
X003108Y017235D01*
X003108Y016840D01*
X003387Y016561D01*
X003782Y016561D01*
X003808Y016587D02*
X004637Y016587D01*
X004624Y016666D02*
X003887Y016666D01*
X003965Y016744D02*
X004624Y016744D01*
X004624Y016823D02*
X004044Y016823D01*
X004061Y016901D02*
X004624Y016901D01*
X004624Y016980D02*
X004061Y016980D01*
X004061Y017058D02*
X004624Y017058D01*
X004624Y017137D02*
X004061Y017137D01*
X004061Y017215D02*
X004624Y017215D01*
X004624Y017294D02*
X004002Y017294D01*
X003923Y017372D02*
X004624Y017372D01*
X004624Y017451D02*
X003845Y017451D01*
X003324Y017451D02*
X002974Y017451D01*
X002974Y017529D02*
X004624Y017529D01*
X004624Y017608D02*
X002974Y017608D01*
X002974Y017686D02*
X004624Y017686D01*
X004624Y017765D02*
X002974Y017765D01*
X002974Y017843D02*
X004624Y017843D01*
X004672Y017922D02*
X002974Y017922D01*
X002974Y018000D02*
X005024Y018000D01*
X005049Y018079D02*
X002974Y018079D01*
X002974Y018157D02*
X005082Y018157D01*
X005153Y018236D02*
X002974Y018236D01*
X002974Y018314D02*
X005232Y018314D01*
X005202Y018285D02*
X005202Y018285D01*
X005310Y018393D02*
X002974Y018393D01*
X002974Y018471D02*
X003642Y018471D01*
X003671Y018464D02*
X003967Y018464D01*
X004253Y018541D01*
X004509Y018689D01*
X004718Y018898D01*
X004866Y019154D01*
X004943Y019440D01*
X004943Y019736D01*
X004866Y020022D01*
X004718Y020278D01*
X004564Y020432D01*
X020789Y020432D01*
X020635Y020278D01*
X020487Y020022D01*
X020411Y019736D01*
X020411Y019440D01*
X020487Y019154D01*
X020635Y018898D01*
X020845Y018689D01*
X021101Y018541D01*
X021387Y018464D01*
X021683Y018464D01*
X021969Y018541D01*
X022225Y018689D01*
X022379Y018843D01*
X022379Y002617D01*
X022225Y002771D01*
X022379Y002771D01*
X022379Y002693D02*
X022304Y002693D01*
X022225Y002771D02*
X021969Y002919D01*
X021683Y002996D01*
X021387Y002996D01*
X021101Y002919D01*
X020845Y002771D01*
X020635Y002562D01*
X020487Y002306D01*
X020411Y002020D01*
X020411Y001724D01*
X020487Y001438D01*
X020635Y001181D01*
X020789Y001027D01*
X004564Y001027D01*
X004718Y001181D01*
X004866Y001438D01*
X004943Y001724D01*
X004943Y002020D01*
X004866Y002306D01*
X004718Y002562D01*
X004509Y002771D01*
X004253Y002919D01*
X003967Y002996D01*
X003671Y002996D01*
X003385Y002919D01*
X003128Y002771D01*
X002974Y002617D01*
X002974Y018843D01*
X003128Y018689D01*
X003385Y018541D01*
X003671Y018464D01*
X003368Y018550D02*
X002974Y018550D01*
X002974Y018628D02*
X003232Y018628D01*
X003110Y018707D02*
X002974Y018707D01*
X002974Y018785D02*
X003031Y018785D01*
X003995Y018471D02*
X005389Y018471D01*
X005467Y018550D02*
X004269Y018550D01*
X004405Y018628D02*
X005546Y018628D01*
X005624Y018707D02*
X004527Y018707D01*
X004606Y018785D02*
X005703Y018785D01*
X005781Y018864D02*
X004684Y018864D01*
X004744Y018942D02*
X005860Y018942D01*
X005938Y019021D02*
X004789Y019021D01*
X004835Y019099D02*
X006017Y019099D01*
X006095Y019178D02*
X004873Y019178D01*
X004894Y019256D02*
X006158Y019256D01*
X006158Y019335D02*
X004915Y019335D01*
X004936Y019413D02*
X006158Y019413D01*
X006174Y019492D02*
X004943Y019492D01*
X004943Y019570D02*
X006252Y019570D01*
X006331Y019649D02*
X004943Y019649D01*
X004943Y019727D02*
X006409Y019727D01*
X006488Y019806D02*
X004924Y019806D01*
X004903Y019884D02*
X020451Y019884D01*
X020430Y019806D02*
X018881Y019806D01*
X018959Y019727D02*
X020411Y019727D01*
X020411Y019649D02*
X019038Y019649D01*
X019116Y019570D02*
X020411Y019570D01*
X020411Y019492D02*
X019195Y019492D01*
X019211Y019413D02*
X020418Y019413D01*
X020439Y019335D02*
X019211Y019335D01*
X019211Y019256D02*
X020460Y019256D01*
X020481Y019178D02*
X019274Y019178D01*
X019352Y019099D02*
X020519Y019099D01*
X020564Y019021D02*
X019402Y019021D01*
X019435Y018942D02*
X020610Y018942D01*
X020669Y018864D02*
X019444Y018864D01*
X019444Y018785D02*
X020748Y018785D01*
X020826Y018707D02*
X019444Y018707D01*
X019444Y018628D02*
X020949Y018628D01*
X021085Y018550D02*
X019444Y018550D01*
X019444Y018471D02*
X021359Y018471D01*
X021711Y018471D02*
X022379Y018471D01*
X022379Y018393D02*
X019444Y018393D01*
X019444Y018314D02*
X022379Y018314D01*
X022379Y018236D02*
X019444Y018236D01*
X019444Y018157D02*
X022379Y018157D01*
X022379Y018079D02*
X019444Y018079D01*
X019444Y018000D02*
X022379Y018000D01*
X022379Y017922D02*
X021547Y017922D01*
X021594Y017843D02*
X022379Y017843D01*
X022379Y017765D02*
X021594Y017765D01*
X021594Y017686D02*
X022379Y017686D01*
X022379Y017608D02*
X021594Y017608D01*
X021594Y017529D02*
X022379Y017529D01*
X022379Y017451D02*
X021594Y017451D01*
X021594Y017372D02*
X022379Y017372D01*
X022379Y017294D02*
X021594Y017294D01*
X021594Y017215D02*
X022379Y017215D01*
X022379Y017137D02*
X021594Y017137D01*
X021594Y017058D02*
X022379Y017058D01*
X022379Y016980D02*
X021594Y016980D01*
X021594Y016901D02*
X022379Y016901D01*
X022379Y016823D02*
X021594Y016823D01*
X021594Y016744D02*
X022379Y016744D01*
X022379Y016666D02*
X021594Y016666D01*
X021594Y016587D02*
X022379Y016587D01*
X022379Y016509D02*
X021594Y016509D01*
X021594Y016430D02*
X022379Y016430D01*
X022379Y016352D02*
X021594Y016352D01*
X021594Y016273D02*
X022379Y016273D01*
X022379Y016195D02*
X021594Y016195D01*
X021594Y016116D02*
X022379Y016116D01*
X022379Y016038D02*
X021594Y016038D01*
X021594Y015959D02*
X022379Y015959D01*
X022379Y015881D02*
X021594Y015881D01*
X021594Y015802D02*
X022379Y015802D01*
X022379Y015724D02*
X021594Y015724D01*
X021594Y015645D02*
X022379Y015645D01*
X022379Y015567D02*
X021594Y015567D01*
X021594Y015488D02*
X022379Y015488D01*
X022379Y015410D02*
X021594Y015410D01*
X021594Y015331D02*
X022379Y015331D01*
X022379Y015253D02*
X021594Y015253D01*
X021518Y015174D02*
X022379Y015174D01*
X022379Y015096D02*
X020673Y015096D01*
X020673Y015017D02*
X022379Y015017D01*
X022379Y014939D02*
X020673Y014939D01*
X020673Y014860D02*
X022379Y014860D01*
X022379Y014782D02*
X020673Y014782D01*
X020673Y014703D02*
X022379Y014703D01*
X022379Y014625D02*
X020673Y014625D01*
X020819Y014546D02*
X022379Y014546D01*
X022379Y014468D02*
X020832Y014468D01*
X020832Y014389D02*
X022379Y014389D01*
X022379Y014311D02*
X020832Y014311D01*
X020832Y014232D02*
X022379Y014232D01*
X022379Y014154D02*
X020832Y014154D01*
X020766Y014075D02*
X022379Y014075D01*
X022379Y013997D02*
X020768Y013997D01*
X020832Y013918D02*
X022379Y013918D01*
X022379Y013840D02*
X020832Y013840D01*
X020832Y013761D02*
X022379Y013761D01*
X022379Y013683D02*
X020832Y013683D01*
X020832Y013604D02*
X022379Y013604D01*
X022379Y013526D02*
X020816Y013526D01*
X020534Y013737D02*
X020204Y014067D01*
X020204Y015517D01*
X019984Y015737D01*
X019984Y016437D01*
X018984Y016437D02*
X018984Y015487D01*
X019204Y015267D01*
X019204Y014067D01*
X019534Y013737D01*
X019237Y013761D02*
X018794Y013761D01*
X018794Y013683D02*
X019237Y013683D01*
X019237Y013604D02*
X018814Y013604D01*
X018893Y013526D02*
X019253Y013526D01*
X019050Y013369D02*
X022379Y013369D01*
X022379Y013447D02*
X018971Y013447D01*
X019094Y013290D02*
X022379Y013290D01*
X022379Y013212D02*
X019094Y013212D01*
X019094Y013133D02*
X022379Y013133D01*
X022379Y013055D02*
X019094Y013055D01*
X019094Y012976D02*
X022379Y012976D01*
X022379Y012898D02*
X019094Y012898D01*
X019094Y012819D02*
X019619Y012819D01*
X019574Y012774D02*
X019697Y012897D01*
X020371Y012897D01*
X020494Y012774D01*
X020494Y011997D01*
X021921Y011997D01*
X022044Y011874D01*
X022044Y010100D01*
X021921Y009977D01*
X019871Y009977D01*
X019697Y009977D01*
X019574Y010100D01*
X019574Y012774D01*
X019574Y012741D02*
X019094Y012741D01*
X019094Y012662D02*
X019574Y012662D01*
X019574Y012584D02*
X019094Y012584D01*
X019094Y012505D02*
X019574Y012505D01*
X019574Y012427D02*
X019094Y012427D01*
X019094Y012348D02*
X019574Y012348D01*
X019574Y012270D02*
X019094Y012270D01*
X019094Y012191D02*
X019574Y012191D01*
X019574Y012113D02*
X019094Y012113D01*
X019094Y012034D02*
X019574Y012034D01*
X019574Y011956D02*
X019094Y011956D01*
X019094Y011877D02*
X019574Y011877D01*
X019574Y011799D02*
X019094Y011799D01*
X019094Y011720D02*
X019574Y011720D01*
X019574Y011642D02*
X019094Y011642D01*
X019094Y011563D02*
X019574Y011563D01*
X019574Y011485D02*
X019094Y011485D01*
X019094Y011406D02*
X019574Y011406D01*
X019574Y011328D02*
X019094Y011328D01*
X019094Y011249D02*
X019574Y011249D01*
X019574Y011171D02*
X019094Y011171D01*
X019094Y011092D02*
X019574Y011092D01*
X019574Y011014D02*
X019094Y011014D01*
X019094Y010935D02*
X019574Y010935D01*
X019574Y010857D02*
X019094Y010857D01*
X019094Y010778D02*
X019574Y010778D01*
X019574Y010700D02*
X019094Y010700D01*
X019094Y010621D02*
X019574Y010621D01*
X019574Y010543D02*
X019094Y010543D01*
X019094Y010464D02*
X019574Y010464D01*
X019574Y010386D02*
X019094Y010386D01*
X019094Y010307D02*
X019574Y010307D01*
X019574Y010229D02*
X019094Y010229D01*
X019094Y010150D02*
X019574Y010150D01*
X019603Y010072D02*
X019094Y010072D01*
X019108Y009993D02*
X019681Y009993D01*
X019422Y009679D02*
X022379Y009679D01*
X022379Y009601D02*
X019501Y009601D01*
X019551Y009522D02*
X022379Y009522D01*
X022379Y009444D02*
X019584Y009444D01*
X019966Y009365D02*
X022379Y009365D01*
X022379Y009287D02*
X020027Y009287D01*
X020027Y009208D02*
X022379Y009208D01*
X022379Y009130D02*
X020027Y009130D01*
X020027Y009051D02*
X022379Y009051D01*
X022379Y008973D02*
X020027Y008973D01*
X020027Y008894D02*
X022379Y008894D01*
X022379Y008816D02*
X020027Y008816D01*
X020027Y008737D02*
X022379Y008737D01*
X022379Y008659D02*
X020027Y008659D01*
X020027Y008580D02*
X022379Y008580D01*
X022379Y008502D02*
X020027Y008502D01*
X020027Y008423D02*
X022379Y008423D01*
X022379Y008345D02*
X020027Y008345D01*
X020027Y008266D02*
X022379Y008266D01*
X022379Y008188D02*
X020027Y008188D01*
X020027Y008109D02*
X022379Y008109D01*
X022379Y008031D02*
X019988Y008031D01*
X019494Y007952D02*
X022379Y007952D01*
X022379Y007874D02*
X019494Y007874D01*
X019494Y007795D02*
X022379Y007795D01*
X022379Y007717D02*
X019494Y007717D01*
X019462Y007638D02*
X022379Y007638D01*
X022379Y007560D02*
X019416Y007560D01*
X019337Y007481D02*
X022379Y007481D01*
X022379Y007403D02*
X019259Y007403D01*
X019180Y007324D02*
X022379Y007324D01*
X022379Y007246D02*
X019102Y007246D01*
X019023Y007167D02*
X022379Y007167D01*
X022379Y007089D02*
X018945Y007089D01*
X018836Y007010D02*
X022379Y007010D01*
X022379Y006932D02*
X018482Y006932D01*
X018482Y006853D02*
X022379Y006853D01*
X022379Y006775D02*
X018482Y006775D01*
X018482Y006696D02*
X022379Y006696D01*
X022379Y006618D02*
X018482Y006618D01*
X018458Y006539D02*
X022379Y006539D01*
X022379Y006461D02*
X015999Y006461D01*
X015999Y006539D02*
X017911Y006539D01*
X017887Y006618D02*
X015999Y006618D01*
X015999Y006696D02*
X017887Y006696D01*
X017887Y006775D02*
X015999Y006775D01*
X015999Y006853D02*
X017887Y006853D01*
X017887Y006932D02*
X015999Y006932D01*
X015999Y007010D02*
X017831Y007010D01*
X017770Y007089D02*
X015981Y007089D01*
X015774Y007167D02*
X017770Y007167D01*
X017770Y007246D02*
X015786Y007246D01*
X015812Y007324D02*
X017770Y007324D01*
X017770Y007403D02*
X015812Y007403D01*
X015812Y007481D02*
X017770Y007481D01*
X017770Y007560D02*
X015812Y007560D01*
X015812Y007638D02*
X017810Y007638D01*
X017643Y007874D02*
X018712Y007874D01*
X018774Y007952D02*
X017700Y007952D01*
X017700Y008031D02*
X018774Y008031D01*
X018762Y008109D02*
X017700Y008109D01*
X017700Y008188D02*
X018762Y008188D01*
X018762Y008266D02*
X017677Y008266D01*
X017692Y008423D02*
X018762Y008423D01*
X018762Y008345D02*
X016795Y008345D01*
X016494Y008109D02*
X015744Y008109D01*
X015774Y008031D02*
X016572Y008031D01*
X016651Y007952D02*
X015774Y007952D01*
X015774Y007874D02*
X016926Y007874D01*
X016415Y008188D02*
X015673Y008188D01*
X015595Y008266D02*
X015759Y008266D01*
X015690Y008345D02*
X015424Y008345D01*
X015294Y007795D02*
X013245Y007795D01*
X013323Y007717D02*
X015271Y007717D01*
X015257Y007638D02*
X013402Y007638D01*
X013480Y007560D02*
X015257Y007560D01*
X015257Y007481D02*
X013559Y007481D01*
X013637Y007403D02*
X015257Y007403D01*
X015257Y007324D02*
X013716Y007324D01*
X013794Y007246D02*
X015283Y007246D01*
X015294Y007167D02*
X013873Y007167D01*
X014059Y007089D02*
X015185Y007089D01*
X015168Y007010D02*
X014157Y007010D01*
X014198Y006932D02*
X015168Y006932D01*
X015168Y006853D02*
X014214Y006853D01*
X014212Y006775D02*
X015168Y006775D01*
X015168Y006696D02*
X014179Y006696D01*
X014111Y006618D02*
X015168Y006618D01*
X015168Y006539D02*
X012801Y006539D01*
X012879Y006461D02*
X015168Y006461D01*
X015189Y006382D02*
X012958Y006382D01*
X012722Y006618D02*
X013358Y006618D01*
X013290Y006696D02*
X012720Y006696D01*
X012720Y006775D02*
X013257Y006775D01*
X013250Y006853D02*
X012720Y006853D01*
X012720Y006932D02*
X013171Y006932D01*
X013093Y007010D02*
X012720Y007010D01*
X012720Y007089D02*
X013014Y007089D01*
X012936Y007167D02*
X012720Y007167D01*
X012720Y007246D02*
X012857Y007246D01*
X012779Y007324D02*
X012720Y007324D01*
X013166Y007874D02*
X014255Y007874D01*
X014237Y007952D02*
X013489Y007952D01*
X013506Y008031D02*
X014237Y008031D01*
X013145Y007952D02*
X013113Y007952D01*
X013113Y008031D02*
X013128Y008031D01*
X013128Y008109D02*
X013113Y008109D01*
X013113Y008188D02*
X013127Y008188D01*
X013127Y008266D02*
X013113Y008266D01*
X013113Y008345D02*
X013127Y008345D01*
X013127Y008423D02*
X013113Y008423D01*
X013113Y008502D02*
X013127Y008502D01*
X013127Y008580D02*
X013090Y008580D01*
X013127Y008659D02*
X010687Y008659D01*
X010714Y008580D02*
X010984Y008580D01*
X010962Y008502D02*
X010714Y008502D01*
X010690Y008423D02*
X010962Y008423D01*
X010962Y008345D02*
X010638Y008345D01*
X010512Y008266D02*
X010962Y008266D01*
X010962Y008188D02*
X010324Y008188D01*
X010324Y008266D02*
X010357Y008266D01*
X010324Y008109D02*
X010962Y008109D01*
X010959Y008031D02*
X010962Y008031D01*
X010927Y008737D02*
X013127Y008737D01*
X013127Y008816D02*
X012559Y008816D01*
X012628Y008894D02*
X013127Y008894D01*
X013127Y008973D02*
X012661Y008973D01*
X012664Y009051D02*
X013127Y009051D01*
X013127Y009130D02*
X012649Y009130D01*
X012609Y009208D02*
X013095Y009208D01*
X013016Y009287D02*
X012514Y009287D01*
X012425Y009365D02*
X012938Y009365D01*
X012859Y009444D02*
X012346Y009444D01*
X012268Y009522D02*
X012794Y009522D01*
X012794Y009601D02*
X012189Y009601D01*
X012111Y009679D02*
X012794Y009679D01*
X012794Y009758D02*
X012032Y009758D01*
X011954Y009836D02*
X012794Y009836D01*
X012794Y009915D02*
X011875Y009915D01*
X011797Y009993D02*
X012794Y009993D01*
X012794Y010072D02*
X011718Y010072D01*
X011640Y010150D02*
X012794Y010150D01*
X012794Y010229D02*
X011561Y010229D01*
X011483Y010307D02*
X012794Y010307D01*
X012794Y010386D02*
X011404Y010386D01*
X011326Y010464D02*
X012794Y010464D01*
X012794Y010543D02*
X011247Y010543D01*
X011169Y010621D02*
X011482Y010621D01*
X011742Y011611D02*
X011742Y012080D01*
X011134Y012687D01*
X009934Y012687D01*
X009674Y012584D02*
X008284Y012584D01*
X008152Y012662D02*
X009654Y012662D01*
X009654Y012741D02*
X004874Y012741D01*
X004874Y012819D02*
X009686Y012819D01*
X009749Y012898D02*
X004874Y012898D01*
X004874Y012976D02*
X013880Y012976D01*
X014034Y012737D02*
X013434Y012737D01*
X012726Y012030D01*
X012726Y011611D01*
X012923Y011611D02*
X012923Y011976D01*
X013384Y012437D01*
X014934Y012437D01*
X015034Y012537D01*
X015934Y012537D01*
X016384Y012987D01*
X016934Y012987D01*
X016798Y012741D02*
X016392Y012741D01*
X016314Y012662D02*
X017474Y012662D01*
X017474Y012584D02*
X016235Y012584D01*
X016157Y012505D02*
X017474Y012505D01*
X017474Y012427D02*
X016078Y012427D01*
X015883Y012741D02*
X014314Y012741D01*
X014306Y012662D02*
X014905Y012662D01*
X015184Y012237D02*
X013434Y012237D01*
X013120Y011923D01*
X013120Y011611D01*
X013507Y011642D02*
X014237Y011642D01*
X014237Y011720D02*
X013506Y011720D01*
X013506Y011799D02*
X014303Y011799D01*
X014237Y011563D02*
X013507Y011563D01*
X013507Y011485D02*
X014213Y011485D01*
X014135Y011406D02*
X013507Y011406D01*
X013507Y011328D02*
X014056Y011328D01*
X013978Y011249D02*
X013507Y011249D01*
X013506Y011877D02*
X016407Y011877D01*
X016407Y011799D02*
X015266Y011799D01*
X015332Y011720D02*
X016407Y011720D01*
X016407Y011642D02*
X015332Y011642D01*
X015332Y011563D02*
X016407Y011563D01*
X016407Y011485D02*
X015332Y011485D01*
X015332Y011406D02*
X016407Y011406D01*
X016432Y011328D02*
X015318Y011328D01*
X015294Y011171D02*
X015749Y011171D01*
X015671Y011092D02*
X015332Y011092D01*
X015332Y011014D02*
X015592Y011014D01*
X015514Y010935D02*
X015332Y010935D01*
X015764Y010621D02*
X018274Y010621D01*
X018274Y010543D02*
X015748Y010543D01*
X015707Y010464D02*
X018274Y010464D01*
X018274Y010386D02*
X015609Y010386D01*
X015360Y010386D02*
X015314Y010386D01*
X015314Y010307D02*
X018274Y010307D01*
X018274Y010229D02*
X015292Y010229D01*
X015243Y010150D02*
X018274Y010150D01*
X018274Y010072D02*
X015125Y010072D01*
X014959Y009993D02*
X018274Y009993D01*
X018274Y009915D02*
X014881Y009915D01*
X014802Y009836D02*
X018274Y009836D01*
X018274Y009758D02*
X015586Y009758D01*
X015600Y009679D02*
X018306Y009679D01*
X018341Y009601D02*
X015600Y009601D01*
X015968Y009522D02*
X018419Y009522D01*
X018498Y009444D02*
X016046Y009444D01*
X016125Y009365D02*
X016474Y009365D01*
X016595Y009365D02*
X018576Y009365D01*
X018655Y009287D02*
X017657Y009287D01*
X017700Y009208D02*
X018733Y009208D01*
X018762Y009130D02*
X017700Y009130D01*
X017700Y009051D02*
X018762Y009051D01*
X018762Y008973D02*
X017700Y008973D01*
X017663Y008894D02*
X018762Y008894D01*
X018762Y008816D02*
X017628Y008816D01*
X017700Y008737D02*
X018762Y008737D01*
X018762Y008659D02*
X017700Y008659D01*
X017700Y008580D02*
X018762Y008580D01*
X018762Y008502D02*
X017700Y008502D01*
X016941Y008816D02*
X016674Y008816D01*
X016737Y008894D02*
X016905Y008894D01*
X016912Y009287D02*
X016731Y009287D01*
X016338Y009287D02*
X016203Y009287D01*
X016178Y008345D02*
X016258Y008345D01*
X016337Y008266D02*
X016109Y008266D01*
X015774Y007795D02*
X018633Y007795D01*
X018555Y007717D02*
X015798Y007717D01*
X015977Y006382D02*
X016199Y006382D01*
X016202Y006385D02*
X016120Y006303D01*
X016120Y006139D01*
X016118Y006135D01*
X016118Y006040D01*
X016120Y006036D01*
X016120Y005872D01*
X016202Y005790D01*
X016515Y005790D01*
X016522Y005797D01*
X016731Y005797D01*
X016769Y005760D01*
X017200Y005760D01*
X017282Y005842D01*
X017282Y006233D01*
X017200Y006315D01*
X016769Y006315D01*
X016731Y006277D01*
X016597Y006277D01*
X016597Y006303D01*
X016515Y006385D01*
X016202Y006385D01*
X016121Y006304D02*
X015850Y006304D01*
X015850Y006225D02*
X016120Y006225D01*
X016120Y006147D02*
X015850Y006147D01*
X015850Y006068D02*
X016118Y006068D01*
X016120Y005990D02*
X015849Y005990D01*
X015849Y005911D02*
X016120Y005911D01*
X016159Y005833D02*
X015810Y005833D01*
X015411Y005833D02*
X014208Y005833D01*
X014286Y005754D02*
X017790Y005754D01*
X017790Y005795D02*
X017790Y005285D01*
X017872Y005203D01*
X017957Y005203D01*
X017957Y005203D01*
X017957Y004772D01*
X018039Y004690D01*
X018430Y004690D01*
X018512Y004772D01*
X018512Y005200D01*
X018541Y005200D01*
X018794Y004947D01*
X018794Y004799D01*
X018792Y004797D01*
X018792Y003896D01*
X018273Y003377D01*
X014568Y003377D01*
X014482Y003464D01*
X014087Y003464D01*
X014000Y003377D01*
X013568Y003377D01*
X013482Y003464D01*
X013087Y003464D01*
X013000Y003377D01*
X012368Y003377D01*
X012282Y003464D01*
X011887Y003464D01*
X011800Y003377D01*
X011368Y003377D01*
X011282Y003464D01*
X010887Y003464D01*
X010800Y003377D01*
X010168Y003377D01*
X010082Y003464D01*
X009687Y003464D01*
X009408Y003185D01*
X009408Y002790D01*
X009687Y002511D01*
X010082Y002511D01*
X010168Y002597D01*
X010800Y002597D01*
X010887Y002511D01*
X011282Y002511D01*
X011368Y002597D01*
X011800Y002597D01*
X011887Y002511D01*
X012282Y002511D01*
X012368Y002597D01*
X013000Y002597D01*
X013087Y002511D01*
X013482Y002511D01*
X013568Y002597D01*
X014000Y002597D01*
X014087Y002511D01*
X014482Y002511D01*
X014568Y002597D01*
X018512Y002597D01*
X018655Y002657D01*
X019495Y003496D01*
X019934Y003496D01*
X020016Y003578D01*
X020016Y004797D01*
X019934Y004879D01*
X019474Y004879D01*
X019474Y005155D01*
X019423Y005280D01*
X019327Y005376D01*
X018875Y005828D01*
X018750Y005880D01*
X018177Y005880D01*
X018169Y005877D01*
X017872Y005877D01*
X017790Y005795D01*
X017828Y005833D02*
X017273Y005833D01*
X017282Y005911D02*
X022379Y005911D01*
X022379Y005833D02*
X018863Y005833D01*
X018948Y005754D02*
X022379Y005754D01*
X022379Y005676D02*
X019027Y005676D01*
X019105Y005597D02*
X022379Y005597D01*
X022379Y005519D02*
X019184Y005519D01*
X019262Y005440D02*
X022379Y005440D01*
X022379Y005362D02*
X019341Y005362D01*
X019419Y005283D02*
X022379Y005283D01*
X022379Y005205D02*
X019454Y005205D01*
X019474Y005126D02*
X022379Y005126D01*
X022379Y005048D02*
X019474Y005048D01*
X019474Y004969D02*
X022379Y004969D01*
X022379Y004891D02*
X019474Y004891D01*
X020001Y004812D02*
X022379Y004812D01*
X022379Y004734D02*
X020016Y004734D01*
X020016Y004655D02*
X022379Y004655D01*
X022379Y004577D02*
X020016Y004577D01*
X020016Y004498D02*
X022379Y004498D01*
X022379Y004420D02*
X020016Y004420D01*
X020016Y004341D02*
X022379Y004341D01*
X022379Y004263D02*
X020016Y004263D01*
X020016Y004184D02*
X022379Y004184D01*
X022379Y004106D02*
X020016Y004106D01*
X020016Y004027D02*
X022379Y004027D01*
X022379Y003949D02*
X020016Y003949D01*
X020016Y003870D02*
X022379Y003870D01*
X022379Y003792D02*
X020016Y003792D01*
X020016Y003713D02*
X022379Y003713D01*
X022379Y003635D02*
X020016Y003635D01*
X019995Y003556D02*
X022379Y003556D01*
X022379Y003478D02*
X019476Y003478D01*
X019398Y003399D02*
X022379Y003399D01*
X022379Y003321D02*
X019319Y003321D01*
X019241Y003242D02*
X022379Y003242D01*
X022379Y003164D02*
X019162Y003164D01*
X019084Y003085D02*
X022379Y003085D01*
X022379Y003007D02*
X019005Y003007D01*
X018927Y002928D02*
X021135Y002928D01*
X020981Y002850D02*
X018848Y002850D01*
X018770Y002771D02*
X020845Y002771D01*
X020766Y002693D02*
X018691Y002693D01*
X018553Y002614D02*
X020688Y002614D01*
X020620Y002536D02*
X014507Y002536D01*
X014062Y002536D02*
X013507Y002536D01*
X013062Y002536D02*
X012307Y002536D01*
X011862Y002536D02*
X011307Y002536D01*
X010862Y002536D02*
X010107Y002536D01*
X009662Y002536D02*
X008907Y002536D01*
X008882Y002511D02*
X009161Y002790D01*
X009161Y003185D01*
X008882Y003464D01*
X008487Y003464D01*
X008230Y003207D01*
X008138Y003207D01*
X007882Y003464D01*
X007487Y003464D01*
X007230Y003207D01*
X007138Y003207D01*
X006882Y003464D01*
X006487Y003464D01*
X006208Y003185D01*
X006208Y002790D01*
X006487Y002511D01*
X006882Y002511D01*
X007138Y002767D01*
X007230Y002767D01*
X007487Y002511D01*
X007882Y002511D01*
X008138Y002767D01*
X008230Y002767D01*
X008487Y002511D01*
X008882Y002511D01*
X008985Y002614D02*
X009583Y002614D01*
X009505Y002693D02*
X009064Y002693D01*
X009142Y002771D02*
X009426Y002771D01*
X009408Y002850D02*
X009161Y002850D01*
X009161Y002928D02*
X009408Y002928D01*
X009408Y003007D02*
X009161Y003007D01*
X009161Y003085D02*
X009408Y003085D01*
X009408Y003164D02*
X009161Y003164D01*
X009103Y003242D02*
X009465Y003242D01*
X009544Y003321D02*
X009025Y003321D01*
X008946Y003399D02*
X009622Y003399D01*
X009641Y003556D02*
X008927Y003556D01*
X009006Y003635D02*
X009563Y003635D01*
X009484Y003713D02*
X009084Y003713D01*
X009161Y003792D02*
X009408Y003792D01*
X009408Y003870D02*
X009161Y003870D01*
X009161Y003949D02*
X009408Y003949D01*
X009408Y004027D02*
X009161Y004027D01*
X009161Y004106D02*
X009408Y004106D01*
X009408Y004184D02*
X009161Y004184D01*
X009229Y004263D02*
X009486Y004263D01*
X010283Y004263D02*
X010686Y004263D01*
X010608Y004185D02*
X010608Y003790D01*
X010887Y003511D01*
X011282Y003511D01*
X011561Y003790D01*
X011561Y004185D01*
X011556Y004190D01*
X011813Y004447D01*
X011813Y004447D01*
X011924Y004559D01*
X011924Y004560D01*
X011950Y004560D01*
X012032Y004642D01*
X012032Y005033D01*
X011950Y005115D01*
X011519Y005115D01*
X011437Y005033D01*
X011437Y004642D01*
X011453Y004625D01*
X011287Y004459D01*
X011282Y004464D01*
X010887Y004464D01*
X010608Y004185D01*
X010608Y004184D02*
X010361Y004184D01*
X010361Y004106D02*
X010608Y004106D01*
X010608Y004027D02*
X010361Y004027D01*
X010361Y003949D02*
X010608Y003949D01*
X010608Y003870D02*
X010361Y003870D01*
X010361Y003792D02*
X010608Y003792D01*
X010684Y003713D02*
X010284Y003713D01*
X010206Y003635D02*
X010763Y003635D01*
X010841Y003556D02*
X010127Y003556D01*
X010146Y003399D02*
X010822Y003399D01*
X011346Y003399D02*
X011822Y003399D01*
X011887Y003511D02*
X012282Y003511D01*
X012561Y003790D01*
X012561Y004185D01*
X012556Y004190D01*
X012574Y004209D01*
X012574Y004560D01*
X012600Y004560D01*
X012682Y004642D01*
X012682Y005033D01*
X012600Y005115D01*
X012169Y005115D01*
X012087Y005033D01*
X012087Y004642D01*
X012169Y004560D01*
X012194Y004560D01*
X012194Y004464D01*
X011887Y004464D01*
X011608Y004185D01*
X011608Y003790D01*
X011887Y003511D01*
X011841Y003556D02*
X011327Y003556D01*
X011406Y003635D02*
X011763Y003635D01*
X011684Y003713D02*
X011484Y003713D01*
X011561Y003792D02*
X011608Y003792D01*
X011608Y003870D02*
X011561Y003870D01*
X011561Y003949D02*
X011608Y003949D01*
X011608Y004027D02*
X011561Y004027D01*
X011561Y004106D02*
X011608Y004106D01*
X011608Y004184D02*
X011561Y004184D01*
X011629Y004263D02*
X011686Y004263D01*
X011707Y004341D02*
X011764Y004341D01*
X011786Y004420D02*
X011843Y004420D01*
X011864Y004498D02*
X012194Y004498D01*
X012152Y004577D02*
X011967Y004577D01*
X012032Y004655D02*
X012087Y004655D01*
X012087Y004734D02*
X012032Y004734D01*
X012032Y004812D02*
X012087Y004812D01*
X012087Y004891D02*
X012032Y004891D01*
X012032Y004969D02*
X012087Y004969D01*
X012102Y005048D02*
X012017Y005048D01*
X011995Y005205D02*
X012124Y005205D01*
X012087Y005283D02*
X012032Y005283D01*
X012032Y005362D02*
X012087Y005362D01*
X012087Y005440D02*
X012032Y005440D01*
X012032Y005519D02*
X012034Y005519D01*
X011437Y005362D02*
X011378Y005362D01*
X011437Y005283D02*
X011299Y005283D01*
X011221Y005205D02*
X011474Y005205D01*
X011452Y005048D02*
X011064Y005048D01*
X011142Y005126D02*
X015372Y005126D01*
X015372Y005203D02*
X015372Y005039D01*
X015370Y005035D01*
X015370Y004774D01*
X015288Y004692D01*
X015288Y004183D01*
X015370Y004101D01*
X015998Y004101D01*
X016080Y004183D01*
X016080Y004197D01*
X016513Y004197D01*
X016525Y004210D01*
X016550Y004210D01*
X016588Y004247D01*
X016643Y004247D01*
X016690Y004201D01*
X017279Y004201D01*
X017361Y004283D01*
X017361Y004792D01*
X017279Y004874D01*
X016690Y004874D01*
X016608Y004792D01*
X016608Y004727D01*
X016598Y004727D01*
X016598Y005035D01*
X016597Y005039D01*
X016597Y005203D01*
X016515Y005285D01*
X016202Y005285D01*
X016120Y005203D01*
X016120Y005039D01*
X016118Y005035D01*
X016118Y004777D01*
X015850Y004777D01*
X015850Y005035D01*
X015849Y005039D01*
X015849Y005203D01*
X015767Y005285D01*
X015454Y005285D01*
X015372Y005203D01*
X015374Y005205D02*
X014595Y005205D01*
X014632Y005283D02*
X015452Y005283D01*
X015372Y005048D02*
X013967Y005048D01*
X013982Y005033D02*
X013900Y005115D01*
X013469Y005115D01*
X013387Y005033D01*
X013387Y004642D01*
X013469Y004560D01*
X013494Y004560D01*
X013494Y004509D01*
X013813Y004190D01*
X013808Y004185D01*
X013808Y003790D01*
X014087Y003511D01*
X014482Y003511D01*
X014761Y003790D01*
X014761Y004185D01*
X014482Y004464D01*
X014087Y004464D01*
X014082Y004459D01*
X013940Y004600D01*
X013982Y004642D01*
X013982Y005033D01*
X013982Y004969D02*
X015370Y004969D01*
X015370Y004891D02*
X013982Y004891D01*
X013982Y004812D02*
X015370Y004812D01*
X015330Y004734D02*
X013982Y004734D01*
X013982Y004655D02*
X015288Y004655D01*
X015288Y004577D02*
X013964Y004577D01*
X014042Y004498D02*
X015288Y004498D01*
X015288Y004420D02*
X014526Y004420D01*
X014604Y004341D02*
X015288Y004341D01*
X015288Y004263D02*
X014683Y004263D01*
X014761Y004184D02*
X015288Y004184D01*
X015365Y004106D02*
X014761Y004106D01*
X014761Y004027D02*
X016608Y004027D01*
X016608Y004092D02*
X016690Y004174D01*
X017279Y004174D01*
X017361Y004092D01*
X017361Y004057D01*
X017361Y004057D01*
X017439Y004135D01*
X017830Y004135D01*
X017912Y004053D01*
X017912Y003622D01*
X017830Y003540D01*
X017439Y003540D01*
X017361Y003617D01*
X017361Y003617D01*
X017361Y003583D01*
X017279Y003501D01*
X016690Y003501D01*
X016608Y003583D01*
X016608Y004092D01*
X016622Y004106D02*
X016004Y004106D01*
X016080Y004184D02*
X018792Y004184D01*
X018792Y004106D02*
X017859Y004106D01*
X017912Y004027D02*
X018792Y004027D01*
X018792Y003949D02*
X017912Y003949D01*
X017912Y003870D02*
X018766Y003870D01*
X018687Y003792D02*
X017912Y003792D01*
X017912Y003713D02*
X018609Y003713D01*
X018530Y003635D02*
X017912Y003635D01*
X017847Y003556D02*
X018452Y003556D01*
X018373Y003478D02*
X002974Y003478D01*
X002974Y003556D02*
X006441Y003556D01*
X006363Y003635D02*
X002974Y003635D01*
X002974Y003713D02*
X006284Y003713D01*
X006208Y003792D02*
X002974Y003792D01*
X002974Y003870D02*
X006208Y003870D01*
X006208Y003949D02*
X002974Y003949D01*
X002974Y004027D02*
X006208Y004027D01*
X006208Y004106D02*
X002974Y004106D01*
X002974Y004184D02*
X006208Y004184D01*
X006286Y004263D02*
X002974Y004263D01*
X002974Y004341D02*
X006364Y004341D01*
X006443Y004420D02*
X004754Y004420D01*
X004753Y004419D02*
X004837Y004503D01*
X004882Y004612D01*
X004882Y004730D01*
X004837Y004840D01*
X004753Y004923D01*
X004643Y004969D01*
X004525Y004969D01*
X004416Y004923D01*
X004332Y004840D01*
X004287Y004730D01*
X004287Y004612D01*
X004332Y004503D01*
X004416Y004419D01*
X004525Y004374D01*
X004643Y004374D01*
X004753Y004419D01*
X004832Y004498D02*
X006927Y004498D01*
X007005Y004577D02*
X004867Y004577D01*
X004882Y004655D02*
X007084Y004655D01*
X007229Y004263D02*
X007286Y004263D01*
X007208Y004184D02*
X007161Y004184D01*
X007161Y004106D02*
X007208Y004106D01*
X007208Y004027D02*
X007161Y004027D01*
X007161Y003949D02*
X007208Y003949D01*
X007208Y003870D02*
X007161Y003870D01*
X007161Y003792D02*
X007208Y003792D01*
X007284Y003713D02*
X007084Y003713D01*
X007006Y003635D02*
X007363Y003635D01*
X007441Y003556D02*
X006927Y003556D01*
X006946Y003399D02*
X007422Y003399D01*
X007344Y003321D02*
X007025Y003321D01*
X007103Y003242D02*
X007265Y003242D01*
X007305Y002693D02*
X007064Y002693D01*
X006985Y002614D02*
X007383Y002614D01*
X007462Y002536D02*
X006907Y002536D01*
X006462Y002536D02*
X004733Y002536D01*
X004779Y002457D02*
X015330Y002457D01*
X015337Y002464D02*
X015058Y002185D01*
X015058Y001790D01*
X015337Y001511D01*
X015732Y001511D01*
X016011Y001790D01*
X016011Y002185D01*
X015732Y002464D01*
X015337Y002464D01*
X015252Y002379D02*
X004824Y002379D01*
X004868Y002300D02*
X015173Y002300D01*
X015095Y002222D02*
X004889Y002222D01*
X004910Y002143D02*
X015058Y002143D01*
X015058Y002065D02*
X004931Y002065D01*
X004943Y001986D02*
X015058Y001986D01*
X015058Y001908D02*
X004943Y001908D01*
X004943Y001829D02*
X015058Y001829D01*
X015097Y001751D02*
X004943Y001751D01*
X004929Y001672D02*
X015175Y001672D01*
X015254Y001594D02*
X004908Y001594D01*
X004887Y001515D02*
X015332Y001515D01*
X015736Y001515D02*
X017332Y001515D01*
X017337Y001511D02*
X017732Y001511D01*
X018011Y001790D01*
X018011Y002185D01*
X017732Y002464D01*
X017337Y002464D01*
X017058Y002185D01*
X017058Y001790D01*
X017337Y001511D01*
X017254Y001594D02*
X015815Y001594D01*
X015893Y001672D02*
X017175Y001672D01*
X017097Y001751D02*
X015972Y001751D01*
X016011Y001829D02*
X017058Y001829D01*
X017058Y001908D02*
X016011Y001908D01*
X016011Y001986D02*
X017058Y001986D01*
X017058Y002065D02*
X016011Y002065D01*
X016011Y002143D02*
X017058Y002143D01*
X017095Y002222D02*
X015974Y002222D01*
X015895Y002300D02*
X017173Y002300D01*
X017252Y002379D02*
X015817Y002379D01*
X015738Y002457D02*
X017330Y002457D01*
X017738Y002457D02*
X018330Y002457D01*
X018337Y002464D02*
X018058Y002185D01*
X018058Y001790D01*
X018337Y001511D01*
X018732Y001511D01*
X019011Y001790D01*
X019011Y002185D01*
X018732Y002464D01*
X018337Y002464D01*
X018252Y002379D02*
X017817Y002379D01*
X017895Y002300D02*
X018173Y002300D01*
X018095Y002222D02*
X017974Y002222D01*
X018011Y002143D02*
X018058Y002143D01*
X018058Y002065D02*
X018011Y002065D01*
X018011Y001986D02*
X018058Y001986D01*
X018058Y001908D02*
X018011Y001908D01*
X018011Y001829D02*
X018058Y001829D01*
X018097Y001751D02*
X017972Y001751D01*
X017893Y001672D02*
X018175Y001672D01*
X018254Y001594D02*
X017815Y001594D01*
X017736Y001515D02*
X018332Y001515D01*
X018736Y001515D02*
X019332Y001515D01*
X019337Y001511D02*
X019732Y001511D01*
X020011Y001790D01*
X020011Y002185D01*
X019732Y002464D01*
X019337Y002464D01*
X019058Y002185D01*
X019058Y001790D01*
X019337Y001511D01*
X019254Y001594D02*
X018815Y001594D01*
X018893Y001672D02*
X019175Y001672D01*
X019097Y001751D02*
X018972Y001751D01*
X019011Y001829D02*
X019058Y001829D01*
X019058Y001908D02*
X019011Y001908D01*
X019011Y001986D02*
X019058Y001986D01*
X019058Y002065D02*
X019011Y002065D01*
X019011Y002143D02*
X019058Y002143D01*
X019095Y002222D02*
X018974Y002222D01*
X018895Y002300D02*
X019173Y002300D01*
X019252Y002379D02*
X018817Y002379D01*
X018738Y002457D02*
X019330Y002457D01*
X019738Y002457D02*
X020575Y002457D01*
X020530Y002379D02*
X019817Y002379D01*
X019895Y002300D02*
X020486Y002300D01*
X020465Y002222D02*
X019974Y002222D01*
X020011Y002143D02*
X020444Y002143D01*
X020423Y002065D02*
X020011Y002065D01*
X020011Y001986D02*
X020411Y001986D01*
X020411Y001908D02*
X020011Y001908D01*
X020011Y001829D02*
X020411Y001829D01*
X020411Y001751D02*
X019972Y001751D01*
X019893Y001672D02*
X020425Y001672D01*
X020446Y001594D02*
X019815Y001594D01*
X019736Y001515D02*
X020467Y001515D01*
X020488Y001437D02*
X004866Y001437D01*
X004820Y001358D02*
X020533Y001358D01*
X020579Y001280D02*
X004775Y001280D01*
X004730Y001201D02*
X020624Y001201D01*
X020694Y001123D02*
X004660Y001123D01*
X004581Y001044D02*
X020772Y001044D01*
X021935Y002928D02*
X022379Y002928D01*
X022379Y002850D02*
X022089Y002850D01*
X018792Y004263D02*
X017341Y004263D01*
X017361Y004341D02*
X018792Y004341D01*
X018792Y004420D02*
X017361Y004420D01*
X017361Y004498D02*
X018792Y004498D01*
X018792Y004577D02*
X017361Y004577D01*
X017361Y004655D02*
X018792Y004655D01*
X018792Y004734D02*
X018474Y004734D01*
X018512Y004812D02*
X018794Y004812D01*
X018794Y004891D02*
X018512Y004891D01*
X018512Y004969D02*
X018771Y004969D01*
X018693Y005048D02*
X018512Y005048D01*
X018512Y005126D02*
X018614Y005126D01*
X017995Y004734D02*
X017361Y004734D01*
X017340Y004812D02*
X017957Y004812D01*
X017957Y004891D02*
X016598Y004891D01*
X016598Y004969D02*
X017957Y004969D01*
X017957Y005048D02*
X016597Y005048D01*
X016597Y005126D02*
X017957Y005126D01*
X017870Y005205D02*
X016595Y005205D01*
X016516Y005283D02*
X017791Y005283D01*
X017790Y005362D02*
X014632Y005362D01*
X014632Y005440D02*
X017790Y005440D01*
X017790Y005519D02*
X014632Y005519D01*
X014632Y005597D02*
X017790Y005597D01*
X017790Y005676D02*
X014589Y005676D01*
X014129Y005911D02*
X015372Y005911D01*
X015372Y005990D02*
X014050Y005990D01*
X013972Y006068D02*
X015370Y006068D01*
X015370Y006147D02*
X013893Y006147D01*
X013815Y006225D02*
X015370Y006225D01*
X015370Y006304D02*
X013736Y006304D01*
X013711Y006618D02*
X013758Y006618D01*
X013982Y005519D02*
X013984Y005519D01*
X013982Y005440D02*
X014037Y005440D01*
X014037Y005362D02*
X013982Y005362D01*
X013982Y005283D02*
X014037Y005283D01*
X014074Y005205D02*
X013945Y005205D01*
X013424Y005205D02*
X013295Y005205D01*
X013332Y005283D02*
X013387Y005283D01*
X013387Y005362D02*
X013332Y005362D01*
X013332Y005440D02*
X013387Y005440D01*
X013334Y005519D02*
X013332Y005519D01*
X013250Y005115D02*
X012819Y005115D01*
X012737Y005033D01*
X012737Y004642D01*
X012819Y004560D01*
X012844Y004560D01*
X012844Y004221D01*
X012808Y004185D01*
X012808Y003790D01*
X013087Y003511D01*
X013482Y003511D01*
X013761Y003790D01*
X013761Y004185D01*
X013482Y004464D01*
X013224Y004464D01*
X013224Y004560D01*
X013250Y004560D01*
X013332Y004642D01*
X013332Y005033D01*
X013250Y005115D01*
X013317Y005048D02*
X013402Y005048D01*
X013387Y004969D02*
X013332Y004969D01*
X013332Y004891D02*
X013387Y004891D01*
X013387Y004812D02*
X013332Y004812D01*
X013332Y004734D02*
X013387Y004734D01*
X013387Y004655D02*
X013332Y004655D01*
X013267Y004577D02*
X013452Y004577D01*
X013505Y004498D02*
X013224Y004498D01*
X012844Y004498D02*
X012574Y004498D01*
X012574Y004420D02*
X012844Y004420D01*
X012844Y004341D02*
X012574Y004341D01*
X012574Y004263D02*
X012844Y004263D01*
X012808Y004184D02*
X012561Y004184D01*
X012561Y004106D02*
X012808Y004106D01*
X012808Y004027D02*
X012561Y004027D01*
X012561Y003949D02*
X012808Y003949D01*
X012808Y003870D02*
X012561Y003870D01*
X012561Y003792D02*
X012808Y003792D01*
X012884Y003713D02*
X012484Y003713D01*
X012406Y003635D02*
X012963Y003635D01*
X013041Y003556D02*
X012327Y003556D01*
X012346Y003399D02*
X013022Y003399D01*
X013546Y003399D02*
X014022Y003399D01*
X014041Y003556D02*
X013527Y003556D01*
X013606Y003635D02*
X013963Y003635D01*
X013884Y003713D02*
X013684Y003713D01*
X013761Y003792D02*
X013808Y003792D01*
X013808Y003870D02*
X013761Y003870D01*
X013761Y003949D02*
X013808Y003949D01*
X013808Y004027D02*
X013761Y004027D01*
X013761Y004106D02*
X013808Y004106D01*
X013808Y004184D02*
X013761Y004184D01*
X013740Y004263D02*
X013683Y004263D01*
X013662Y004341D02*
X013604Y004341D01*
X013583Y004420D02*
X013526Y004420D01*
X012802Y004577D02*
X012617Y004577D01*
X012682Y004655D02*
X012737Y004655D01*
X012737Y004734D02*
X012682Y004734D01*
X012682Y004812D02*
X012737Y004812D01*
X012737Y004891D02*
X012682Y004891D01*
X012682Y004969D02*
X012737Y004969D01*
X012752Y005048D02*
X012667Y005048D01*
X012645Y005205D02*
X012774Y005205D01*
X012737Y005283D02*
X012682Y005283D01*
X012682Y005362D02*
X012737Y005362D01*
X012737Y005440D02*
X012682Y005440D01*
X012682Y005519D02*
X012684Y005519D01*
X011437Y004969D02*
X010985Y004969D01*
X010907Y004891D02*
X011437Y004891D01*
X011437Y004812D02*
X010828Y004812D01*
X010750Y004734D02*
X011437Y004734D01*
X011437Y004655D02*
X010671Y004655D01*
X010593Y004577D02*
X011405Y004577D01*
X011327Y004498D02*
X010514Y004498D01*
X010436Y004420D02*
X010843Y004420D01*
X010764Y004341D02*
X010357Y004341D01*
X010005Y005126D02*
X006279Y005126D01*
X006289Y005140D02*
X006680Y005140D01*
X006762Y005222D01*
X006762Y005653D01*
X006728Y005687D01*
X006762Y005722D01*
X006762Y006153D01*
X006728Y006187D01*
X006762Y006222D01*
X006762Y006653D01*
X006680Y006735D01*
X006289Y006735D01*
X006207Y006653D01*
X006207Y006571D01*
X006114Y006479D01*
X006042Y006406D01*
X005097Y006406D01*
X005015Y006324D01*
X005015Y006011D01*
X005016Y006010D01*
X005015Y006009D01*
X005015Y005696D01*
X005016Y005695D01*
X005015Y005694D01*
X005015Y005381D01*
X005016Y005380D01*
X005015Y005379D01*
X005015Y005066D01*
X005097Y004984D01*
X006197Y004984D01*
X006279Y005066D01*
X006279Y005149D01*
X006289Y005140D01*
X006261Y005048D02*
X008876Y005048D01*
X008798Y004969D02*
X002974Y004969D01*
X002974Y004891D02*
X004383Y004891D01*
X004321Y004812D02*
X002974Y004812D01*
X002974Y004734D02*
X004288Y004734D01*
X004287Y004655D02*
X002974Y004655D01*
X002974Y004577D02*
X004301Y004577D01*
X004336Y004498D02*
X002974Y004498D01*
X002974Y004420D02*
X004415Y004420D01*
X004880Y004734D02*
X007862Y004734D01*
X007941Y004812D02*
X004848Y004812D01*
X004785Y004891D02*
X008719Y004891D01*
X008286Y004263D02*
X008229Y004263D01*
X008208Y004184D02*
X008161Y004184D01*
X008161Y004106D02*
X008208Y004106D01*
X008208Y004027D02*
X008161Y004027D01*
X008161Y003949D02*
X008208Y003949D01*
X008208Y003870D02*
X008161Y003870D01*
X008161Y003792D02*
X008208Y003792D01*
X008284Y003713D02*
X008084Y003713D01*
X008006Y003635D02*
X008363Y003635D01*
X008441Y003556D02*
X007927Y003556D01*
X007946Y003399D02*
X008422Y003399D01*
X008344Y003321D02*
X008025Y003321D01*
X008103Y003242D02*
X008265Y003242D01*
X008305Y002693D02*
X008064Y002693D01*
X007985Y002614D02*
X008383Y002614D01*
X008462Y002536D02*
X007907Y002536D01*
X006383Y002614D02*
X004666Y002614D01*
X004587Y002693D02*
X006305Y002693D01*
X006226Y002771D02*
X004509Y002771D01*
X004373Y002850D02*
X006208Y002850D01*
X006208Y002928D02*
X004218Y002928D01*
X003419Y002928D02*
X002974Y002928D01*
X002974Y002850D02*
X003264Y002850D01*
X003128Y002771D02*
X002974Y002771D01*
X002974Y002693D02*
X003050Y002693D01*
X002974Y003007D02*
X006208Y003007D01*
X006208Y003085D02*
X002974Y003085D01*
X002974Y003164D02*
X006208Y003164D01*
X006265Y003242D02*
X002974Y003242D01*
X002974Y003321D02*
X006344Y003321D01*
X006422Y003399D02*
X002974Y003399D01*
X002974Y005048D02*
X005033Y005048D01*
X005015Y005126D02*
X002974Y005126D01*
X002974Y005205D02*
X005015Y005205D01*
X005015Y005283D02*
X002974Y005283D01*
X002974Y005362D02*
X005015Y005362D01*
X005015Y005440D02*
X002974Y005440D01*
X002974Y005519D02*
X005015Y005519D01*
X005015Y005597D02*
X002974Y005597D01*
X002974Y005676D02*
X005015Y005676D01*
X005015Y005754D02*
X002974Y005754D01*
X002974Y005833D02*
X005015Y005833D01*
X005015Y005911D02*
X002974Y005911D01*
X002974Y005990D02*
X005015Y005990D01*
X005015Y006068D02*
X002974Y006068D01*
X002974Y006147D02*
X004427Y006147D01*
X004416Y006151D02*
X004525Y006106D01*
X004643Y006106D01*
X004753Y006151D01*
X004837Y006235D01*
X004882Y006344D01*
X004882Y006463D01*
X004837Y006572D01*
X004753Y006656D01*
X004643Y006701D01*
X004525Y006701D01*
X004416Y006656D01*
X004332Y006572D01*
X004287Y006463D01*
X004287Y006344D01*
X004332Y006235D01*
X004416Y006151D01*
X004342Y006225D02*
X002974Y006225D01*
X002974Y006304D02*
X004304Y006304D01*
X004287Y006382D02*
X002974Y006382D01*
X002974Y006461D02*
X004287Y006461D01*
X004319Y006539D02*
X002974Y006539D01*
X002974Y006618D02*
X004378Y006618D01*
X004514Y006696D02*
X002974Y006696D01*
X002974Y006775D02*
X006807Y006775D01*
X006807Y006853D02*
X002974Y006853D01*
X002974Y006932D02*
X006807Y006932D01*
X006807Y007010D02*
X002974Y007010D01*
X002974Y007089D02*
X006807Y007089D01*
X006821Y007167D02*
X002974Y007167D01*
X002974Y008188D02*
X003310Y008188D01*
X003231Y008266D02*
X002974Y008266D01*
X002974Y008345D02*
X003153Y008345D01*
X003108Y008423D02*
X002974Y008423D01*
X002974Y008502D02*
X003108Y008502D01*
X003108Y008580D02*
X002974Y008580D01*
X002974Y008659D02*
X003108Y008659D01*
X003108Y008737D02*
X002974Y008737D01*
X002974Y008816D02*
X003139Y008816D01*
X003217Y008894D02*
X002974Y008894D01*
X002974Y008973D02*
X003296Y008973D01*
X003374Y009051D02*
X002974Y009051D01*
X002974Y009130D02*
X003368Y009130D01*
X003289Y009208D02*
X002974Y009208D01*
X002974Y009287D02*
X003211Y009287D01*
X003132Y009365D02*
X002974Y009365D01*
X002974Y009444D02*
X003108Y009444D01*
X003108Y009522D02*
X002974Y009522D01*
X002974Y009601D02*
X003108Y009601D01*
X003108Y009679D02*
X002974Y009679D01*
X002974Y009758D02*
X003108Y009758D01*
X003159Y009836D02*
X002974Y009836D01*
X002974Y009915D02*
X003238Y009915D01*
X003316Y009993D02*
X002974Y009993D01*
X003821Y010150D02*
X004380Y010150D01*
X004302Y010229D02*
X003900Y010229D01*
X003978Y010307D02*
X004223Y010307D01*
X004662Y010778D02*
X005112Y010778D01*
X005058Y010857D02*
X004583Y010857D01*
X004574Y010935D02*
X005058Y010935D01*
X005058Y011014D02*
X004574Y011014D01*
X004574Y011092D02*
X005058Y011092D01*
X005058Y011171D02*
X004574Y011171D01*
X004574Y011249D02*
X005058Y011249D01*
X005058Y011328D02*
X004574Y011328D01*
X004574Y011406D02*
X005122Y011406D01*
X005106Y011485D02*
X004574Y011485D01*
X004574Y011563D02*
X005058Y011563D01*
X005058Y011642D02*
X004574Y011642D01*
X004574Y011720D02*
X005058Y011720D01*
X005058Y011799D02*
X004574Y011799D01*
X004574Y011877D02*
X005058Y011877D01*
X005058Y011956D02*
X004849Y011956D01*
X004924Y012034D02*
X005058Y012034D01*
X005129Y012113D02*
X004957Y012113D01*
X004964Y012191D02*
X005137Y012191D01*
X005137Y012270D02*
X004953Y012270D01*
X004919Y012348D02*
X005137Y012348D01*
X005137Y012427D02*
X004874Y012427D01*
X004874Y012505D02*
X005137Y012505D01*
X005188Y012584D02*
X004874Y012584D01*
X004874Y012662D02*
X008017Y012662D01*
X007885Y012584D02*
X007081Y012584D01*
X007132Y012505D02*
X007830Y012505D01*
X007804Y012427D02*
X007132Y012427D01*
X007132Y012348D02*
X007233Y012348D01*
X007436Y012348D02*
X007804Y012348D01*
X007830Y012270D02*
X007548Y012270D01*
X007594Y012191D02*
X007884Y012191D01*
X007583Y011956D02*
X011014Y011956D01*
X011047Y012270D02*
X010221Y012270D01*
X010120Y012898D02*
X013340Y012898D01*
X013262Y012819D02*
X011257Y012819D01*
X011335Y012741D02*
X011615Y012741D01*
X011513Y012662D02*
X011414Y012662D01*
X011854Y012741D02*
X012215Y012741D01*
X012113Y012662D02*
X011955Y012662D01*
X011997Y012584D02*
X012071Y012584D01*
X012054Y012505D02*
X012014Y012505D01*
X012326Y012191D02*
X012634Y012191D01*
X012555Y012113D02*
X012326Y012113D01*
X012326Y012034D02*
X012546Y012034D01*
X012513Y012270D02*
X012712Y012270D01*
X012791Y012348D02*
X012580Y012348D01*
X012612Y012427D02*
X012869Y012427D01*
X012948Y012505D02*
X012614Y012505D01*
X012597Y012584D02*
X013026Y012584D01*
X013105Y012662D02*
X012555Y012662D01*
X012454Y012741D02*
X013183Y012741D01*
X012892Y013290D02*
X014577Y013290D01*
X014498Y013369D02*
X012970Y013369D01*
X012964Y013363D02*
X012964Y013363D01*
X012784Y013437D02*
X013034Y013687D01*
X012754Y013683D02*
X012432Y013683D01*
X012432Y013761D02*
X012762Y013761D01*
X012794Y013840D02*
X012432Y013840D01*
X012432Y013918D02*
X012869Y013918D01*
X013199Y013918D02*
X013499Y013918D01*
X013424Y013997D02*
X012368Y013997D01*
X012366Y014075D02*
X013424Y014075D01*
X013424Y014154D02*
X012432Y014154D01*
X012432Y014232D02*
X013424Y014232D01*
X013424Y014311D02*
X012432Y014311D01*
X012432Y014389D02*
X013424Y014389D01*
X013424Y014468D02*
X012432Y014468D01*
X012419Y014546D02*
X013424Y014546D01*
X013424Y014625D02*
X012273Y014625D01*
X012273Y014703D02*
X013424Y014703D01*
X013424Y014782D02*
X012273Y014782D01*
X012273Y014860D02*
X013424Y014860D01*
X013424Y014939D02*
X012273Y014939D01*
X012273Y015017D02*
X013424Y015017D01*
X013424Y015096D02*
X012273Y015096D01*
X012034Y014937D02*
X012034Y014437D01*
X012134Y014337D01*
X011804Y014067D02*
X011804Y015517D01*
X011584Y015737D01*
X011584Y016437D01*
X010584Y016437D02*
X010584Y015487D01*
X010804Y015267D01*
X010804Y014067D01*
X011134Y013737D01*
X010853Y013526D02*
X010469Y013526D01*
X010503Y013604D02*
X010837Y013604D01*
X010837Y013683D02*
X010514Y013683D01*
X010507Y013761D02*
X010837Y013761D01*
X010777Y013840D02*
X010474Y013840D01*
X010399Y013918D02*
X010699Y013918D01*
X010624Y013997D02*
X009568Y013997D01*
X009566Y014075D02*
X010624Y014075D01*
X010624Y014154D02*
X009632Y014154D01*
X009632Y014232D02*
X010624Y014232D01*
X010624Y014311D02*
X009632Y014311D01*
X009632Y014389D02*
X010624Y014389D01*
X010624Y014468D02*
X009632Y014468D01*
X009619Y014546D02*
X010624Y014546D01*
X010624Y014625D02*
X009473Y014625D01*
X009473Y014703D02*
X010624Y014703D01*
X010624Y014782D02*
X009473Y014782D01*
X009473Y014860D02*
X010624Y014860D01*
X010624Y014939D02*
X009473Y014939D01*
X009473Y015017D02*
X010624Y015017D01*
X010624Y015096D02*
X009473Y015096D01*
X009234Y014937D02*
X009234Y014437D01*
X009334Y014337D01*
X009004Y014067D02*
X009004Y015467D01*
X008784Y015687D01*
X008784Y016437D01*
X007784Y016437D02*
X007784Y015537D01*
X008004Y015317D01*
X008004Y014067D01*
X008334Y013737D01*
X008037Y013761D02*
X007707Y013761D01*
X007714Y013683D02*
X008037Y013683D01*
X008037Y013604D02*
X007703Y013604D01*
X007669Y013526D02*
X008053Y013526D01*
X007977Y013840D02*
X007674Y013840D01*
X007587Y013447D02*
X008682Y013447D01*
X008898Y013369D02*
X007370Y013369D01*
X007292Y013290D02*
X008977Y013290D01*
X009084Y013437D02*
X009984Y013437D01*
X010234Y013687D01*
X009954Y013683D02*
X009632Y013683D01*
X009632Y013761D02*
X009962Y013761D01*
X009994Y013840D02*
X009632Y013840D01*
X009632Y013918D02*
X010069Y013918D01*
X010170Y013369D02*
X011698Y013369D01*
X011777Y013290D02*
X010092Y013290D01*
X010387Y013447D02*
X011482Y013447D01*
X011634Y013687D02*
X011884Y013437D01*
X012784Y013437D01*
X013187Y013447D02*
X014282Y013447D01*
X014434Y013687D02*
X014684Y013437D01*
X015584Y013437D01*
X015834Y013687D01*
X015554Y013683D02*
X015232Y013683D01*
X015232Y013761D02*
X015562Y013761D01*
X015594Y013840D02*
X015232Y013840D01*
X015232Y013918D02*
X015669Y013918D01*
X015999Y013918D02*
X016299Y013918D01*
X016330Y013887D02*
X016330Y013887D01*
X016377Y013840D02*
X016074Y013840D01*
X016107Y013761D02*
X016437Y013761D01*
X016437Y013683D02*
X016114Y013683D01*
X016103Y013604D02*
X016437Y013604D01*
X016453Y013526D02*
X016069Y013526D01*
X015987Y013447D02*
X017082Y013447D01*
X017298Y013369D02*
X015770Y013369D01*
X015692Y013290D02*
X017377Y013290D01*
X017455Y013212D02*
X017106Y013212D01*
X017177Y013133D02*
X017474Y013133D01*
X017474Y013055D02*
X017209Y013055D01*
X017214Y012976D02*
X017474Y012976D01*
X017474Y012898D02*
X017200Y012898D01*
X017162Y012819D02*
X017474Y012819D01*
X017474Y012741D02*
X017071Y012741D01*
X017024Y012348D02*
X016917Y012348D01*
X016962Y012270D02*
X016987Y012270D01*
X016987Y012191D02*
X016962Y012191D01*
X016962Y012113D02*
X016987Y012113D01*
X016987Y012034D02*
X016962Y012034D01*
X016962Y011956D02*
X016987Y011956D01*
X016987Y011877D02*
X016962Y011877D01*
X016962Y011799D02*
X017051Y011799D01*
X016962Y011720D02*
X017474Y011720D01*
X017474Y011642D02*
X016962Y011642D01*
X016962Y011563D02*
X017474Y011563D01*
X017474Y011485D02*
X016962Y011485D01*
X016962Y011406D02*
X017474Y011406D01*
X017547Y011328D02*
X016937Y011328D01*
X016962Y011249D02*
X018274Y011249D01*
X018274Y011171D02*
X016962Y011171D01*
X016962Y011092D02*
X018274Y011092D01*
X018274Y011014D02*
X016962Y011014D01*
X016962Y010935D02*
X018274Y010935D01*
X018274Y010857D02*
X016947Y010857D01*
X016422Y010857D02*
X015973Y010857D01*
X015894Y010778D02*
X018274Y010778D01*
X018274Y010700D02*
X015816Y010700D01*
X015828Y011249D02*
X014515Y011249D01*
X014437Y011171D02*
X014775Y011171D01*
X014737Y011092D02*
X014358Y011092D01*
X014284Y011014D02*
X014737Y011014D01*
X014737Y010935D02*
X014284Y010935D01*
X014228Y010857D02*
X014685Y010857D01*
X014607Y010778D02*
X014584Y010778D01*
X014285Y010778D02*
X014239Y010778D01*
X014766Y011799D02*
X014803Y011799D01*
X014991Y012034D02*
X013486Y012034D01*
X013455Y011956D02*
X016407Y011956D01*
X016407Y012034D02*
X015377Y012034D01*
X015436Y012113D02*
X016407Y012113D01*
X016407Y012191D02*
X015464Y012191D01*
X015464Y012270D02*
X016407Y012270D01*
X016452Y012348D02*
X015441Y012348D01*
X015962Y012819D02*
X014303Y012819D01*
X014270Y012898D02*
X016040Y012898D01*
X016119Y012976D02*
X014189Y012976D01*
X013653Y013526D02*
X013269Y013526D01*
X013303Y013604D02*
X013637Y013604D01*
X013637Y013683D02*
X013314Y013683D01*
X013307Y013761D02*
X013637Y013761D01*
X013577Y013840D02*
X013274Y013840D01*
X013604Y014067D02*
X013604Y015317D01*
X013384Y015537D01*
X013384Y016437D01*
X013204Y015488D02*
X013194Y015488D01*
X013194Y015410D02*
X013257Y015410D01*
X013194Y015331D02*
X013336Y015331D01*
X013414Y015253D02*
X013194Y015253D01*
X013118Y015174D02*
X013424Y015174D01*
X013834Y014937D02*
X013834Y014437D01*
X013934Y014337D01*
X013604Y014067D02*
X013934Y013737D01*
X014604Y014067D02*
X014604Y015517D01*
X014384Y015737D01*
X014384Y016437D01*
X015073Y015096D02*
X016224Y015096D01*
X016224Y015174D02*
X015918Y015174D01*
X015994Y015253D02*
X016164Y015253D01*
X016086Y015331D02*
X015994Y015331D01*
X015994Y015410D02*
X016007Y015410D01*
X016184Y015487D02*
X016404Y015267D01*
X016404Y014067D01*
X016734Y013737D01*
X017234Y013687D02*
X017934Y012987D01*
X017734Y013737D02*
X017404Y014067D01*
X017404Y015517D01*
X017184Y015737D01*
X017184Y016437D01*
X016184Y016437D02*
X016184Y015487D01*
X016224Y015017D02*
X015073Y015017D01*
X015073Y014939D02*
X016224Y014939D01*
X016224Y014860D02*
X015073Y014860D01*
X015073Y014782D02*
X016224Y014782D01*
X016224Y014703D02*
X015073Y014703D01*
X015073Y014625D02*
X016224Y014625D01*
X016224Y014546D02*
X015219Y014546D01*
X015232Y014468D02*
X016224Y014468D01*
X016224Y014389D02*
X015232Y014389D01*
X015232Y014311D02*
X016224Y014311D01*
X016224Y014232D02*
X015232Y014232D01*
X015232Y014154D02*
X016224Y014154D01*
X016224Y014075D02*
X015166Y014075D01*
X015168Y013997D02*
X016224Y013997D01*
X016634Y014437D02*
X016734Y014337D01*
X016634Y014437D02*
X016634Y014937D01*
X017634Y014937D02*
X017634Y014437D01*
X017734Y014337D01*
X018794Y014311D02*
X019024Y014311D01*
X019024Y014389D02*
X018794Y014389D01*
X018794Y014468D02*
X019024Y014468D01*
X019024Y014546D02*
X018794Y014546D01*
X018794Y014625D02*
X019024Y014625D01*
X019024Y014703D02*
X018794Y014703D01*
X018794Y014782D02*
X019024Y014782D01*
X019024Y014860D02*
X018794Y014860D01*
X018794Y014939D02*
X019024Y014939D01*
X019024Y015017D02*
X018794Y015017D01*
X018794Y015096D02*
X019024Y015096D01*
X019024Y015174D02*
X018794Y015174D01*
X018794Y015253D02*
X018964Y015253D01*
X018886Y015331D02*
X018794Y015331D01*
X018794Y015410D02*
X018807Y015410D01*
X019434Y014937D02*
X019434Y014437D01*
X019534Y014337D01*
X019832Y014311D02*
X020024Y014311D01*
X020024Y014389D02*
X019832Y014389D01*
X019832Y014468D02*
X020024Y014468D01*
X020024Y014232D02*
X019832Y014232D01*
X019832Y014154D02*
X020024Y014154D01*
X020024Y014075D02*
X019766Y014075D01*
X019768Y013997D02*
X020024Y013997D01*
X020099Y013918D02*
X019832Y013918D01*
X019832Y013840D02*
X020177Y013840D01*
X020237Y013761D02*
X019832Y013761D01*
X019832Y013683D02*
X020237Y013683D01*
X020237Y013604D02*
X019832Y013604D01*
X019816Y013526D02*
X020253Y013526D01*
X020449Y012819D02*
X022379Y012819D01*
X022379Y012741D02*
X020494Y012741D01*
X020494Y012662D02*
X022379Y012662D01*
X022379Y012584D02*
X020494Y012584D01*
X020494Y012505D02*
X022379Y012505D01*
X022379Y012427D02*
X020494Y012427D01*
X020494Y012348D02*
X022379Y012348D01*
X022379Y012270D02*
X020494Y012270D01*
X020494Y012191D02*
X022379Y012191D01*
X022379Y012113D02*
X020494Y012113D01*
X020494Y012034D02*
X022379Y012034D01*
X022379Y011956D02*
X021963Y011956D01*
X022041Y011877D02*
X022379Y011877D01*
X022379Y011799D02*
X022044Y011799D01*
X022044Y011720D02*
X022379Y011720D01*
X022379Y011642D02*
X022044Y011642D01*
X022044Y011563D02*
X022379Y011563D01*
X022379Y011485D02*
X022044Y011485D01*
X022044Y011406D02*
X022379Y011406D01*
X022379Y011328D02*
X022044Y011328D01*
X022044Y011249D02*
X022379Y011249D01*
X022379Y011171D02*
X022044Y011171D01*
X022044Y011092D02*
X022379Y011092D01*
X022379Y011014D02*
X022044Y011014D01*
X022044Y010935D02*
X022379Y010935D01*
X022379Y010857D02*
X022044Y010857D01*
X022044Y010778D02*
X022379Y010778D01*
X022379Y010700D02*
X022044Y010700D01*
X022044Y010621D02*
X022379Y010621D01*
X022379Y010543D02*
X022044Y010543D01*
X022044Y010464D02*
X022379Y010464D01*
X022379Y010386D02*
X022044Y010386D01*
X022044Y010307D02*
X022379Y010307D01*
X022379Y010229D02*
X022044Y010229D01*
X022044Y010150D02*
X022379Y010150D01*
X022379Y010072D02*
X022016Y010072D01*
X021937Y009993D02*
X022379Y009993D01*
X022379Y009915D02*
X019187Y009915D01*
X019265Y009836D02*
X022379Y009836D01*
X022379Y009758D02*
X019344Y009758D01*
X016517Y006382D02*
X022379Y006382D01*
X022379Y006304D02*
X017211Y006304D01*
X017282Y006225D02*
X022379Y006225D01*
X022379Y006147D02*
X017282Y006147D01*
X017282Y006068D02*
X022379Y006068D01*
X022379Y005990D02*
X017282Y005990D01*
X016758Y006304D02*
X016596Y006304D01*
X016200Y005283D02*
X015768Y005283D01*
X015847Y005205D02*
X016122Y005205D01*
X016120Y005126D02*
X015849Y005126D01*
X015849Y005048D02*
X016120Y005048D01*
X016118Y004969D02*
X015850Y004969D01*
X015850Y004891D02*
X016118Y004891D01*
X016118Y004812D02*
X015850Y004812D01*
X016598Y004812D02*
X016628Y004812D01*
X016608Y004734D02*
X016598Y004734D01*
X017347Y004106D02*
X017410Y004106D01*
X017422Y003556D02*
X017334Y003556D01*
X016634Y003556D02*
X014527Y003556D01*
X014606Y003635D02*
X016608Y003635D01*
X016608Y003713D02*
X014684Y003713D01*
X014761Y003792D02*
X016608Y003792D01*
X016608Y003870D02*
X014761Y003870D01*
X014761Y003949D02*
X016608Y003949D01*
X018295Y003399D02*
X014546Y003399D01*
X010947Y006068D02*
X010082Y006068D01*
X010082Y005990D02*
X010868Y005990D01*
X010790Y005911D02*
X010036Y005911D01*
X010024Y005899D02*
X010082Y005957D01*
X010082Y006270D01*
X010000Y006352D01*
X009836Y006352D01*
X009832Y006353D01*
X009737Y006353D01*
X009733Y006352D01*
X009569Y006352D01*
X009487Y006270D01*
X009487Y005957D01*
X009544Y005899D01*
X009544Y005741D01*
X009507Y005703D01*
X009507Y005272D01*
X009589Y005190D01*
X009980Y005190D01*
X010062Y005272D01*
X010062Y005703D01*
X010024Y005741D01*
X010024Y005899D01*
X010024Y005833D02*
X010711Y005833D01*
X010633Y005754D02*
X010024Y005754D01*
X010062Y005676D02*
X010554Y005676D01*
X010476Y005597D02*
X010062Y005597D01*
X010062Y005519D02*
X010397Y005519D01*
X010319Y005440D02*
X010062Y005440D01*
X010062Y005362D02*
X010240Y005362D01*
X010162Y005283D02*
X010062Y005283D01*
X010083Y005205D02*
X009995Y005205D01*
X009574Y005205D02*
X007748Y005205D01*
X007824Y005283D02*
X009507Y005283D01*
X009507Y005362D02*
X007856Y005362D01*
X007864Y005440D02*
X009507Y005440D01*
X009507Y005519D02*
X007854Y005519D01*
X007820Y005597D02*
X009507Y005597D01*
X009507Y005676D02*
X007740Y005676D01*
X007797Y005754D02*
X009544Y005754D01*
X009544Y005833D02*
X007844Y005833D01*
X007864Y005911D02*
X007867Y005911D01*
X008424Y006382D02*
X010962Y006382D01*
X010962Y006304D02*
X010048Y006304D01*
X010082Y006225D02*
X010962Y006225D01*
X010962Y006147D02*
X010082Y006147D01*
X010084Y006618D02*
X010962Y006618D01*
X010962Y006696D02*
X010124Y006696D01*
X010124Y006775D02*
X010962Y006775D01*
X010962Y006853D02*
X010124Y006853D01*
X010124Y006932D02*
X010962Y006932D01*
X010962Y006539D02*
X008430Y006539D01*
X008424Y006461D02*
X010962Y006461D01*
X009532Y005911D02*
X008936Y005911D01*
X008982Y005990D02*
X009487Y005990D01*
X009487Y006068D02*
X008982Y006068D01*
X008982Y006147D02*
X009487Y006147D01*
X009487Y006225D02*
X008982Y006225D01*
X008948Y006304D02*
X009521Y006304D01*
X009485Y006618D02*
X008430Y006618D01*
X008973Y006696D02*
X009444Y006696D01*
X009444Y006775D02*
X008982Y006775D01*
X008982Y006853D02*
X009444Y006853D01*
X009444Y006932D02*
X008982Y006932D01*
X008982Y007010D02*
X009444Y007010D01*
X009444Y007089D02*
X008911Y007089D01*
X009444Y007167D02*
X007944Y007167D01*
X008022Y007089D02*
X008080Y007089D01*
X007865Y007246D02*
X009444Y007246D01*
X009444Y007324D02*
X007787Y007324D01*
X007774Y007403D02*
X009444Y007403D01*
X009444Y007481D02*
X007774Y007481D01*
X007774Y007560D02*
X009444Y007560D01*
X009444Y007638D02*
X007774Y007638D01*
X007774Y007717D02*
X009444Y007717D01*
X009444Y007795D02*
X007774Y007795D01*
X007774Y007874D02*
X009444Y007874D01*
X009444Y007952D02*
X007746Y007952D01*
X007680Y008031D02*
X009509Y008031D01*
X009944Y008109D02*
X007602Y008109D01*
X007582Y008188D02*
X009944Y008188D01*
X009944Y008266D02*
X007569Y008266D01*
X007089Y009287D02*
X006153Y009287D01*
X006075Y009365D02*
X007032Y009365D01*
X007004Y009444D02*
X005996Y009444D01*
X005918Y009522D02*
X007004Y009522D01*
X007028Y009601D02*
X005839Y009601D01*
X005761Y009679D02*
X007080Y009679D01*
X007094Y009758D02*
X005682Y009758D01*
X005604Y009836D02*
X007094Y009836D01*
X007094Y009915D02*
X005525Y009915D01*
X005447Y009993D02*
X007094Y009993D01*
X007094Y010072D02*
X005368Y010072D01*
X005290Y010150D02*
X007094Y010150D01*
X007094Y010229D02*
X005211Y010229D01*
X005133Y010307D02*
X007094Y010307D01*
X007094Y010386D02*
X005054Y010386D01*
X004976Y010464D02*
X007094Y010464D01*
X007094Y010543D02*
X004897Y010543D01*
X004819Y010621D02*
X007032Y010621D01*
X006953Y010700D02*
X004740Y010700D01*
X005756Y010778D02*
X005812Y010778D01*
X005822Y011406D02*
X005746Y011406D01*
X005763Y011485D02*
X005806Y011485D01*
X005829Y012113D02*
X005740Y012113D01*
X005732Y012191D02*
X005837Y012191D01*
X005837Y012270D02*
X005732Y012270D01*
X005732Y012348D02*
X005837Y012348D01*
X005837Y012427D02*
X005732Y012427D01*
X005732Y012505D02*
X005837Y012505D01*
X005888Y012584D02*
X005681Y012584D01*
X006381Y012584D02*
X006588Y012584D01*
X006537Y012505D02*
X006432Y012505D01*
X006432Y012427D02*
X006537Y012427D01*
X006537Y012348D02*
X006432Y012348D01*
X006432Y012270D02*
X006537Y012270D01*
X006537Y012191D02*
X006432Y012191D01*
X006440Y012113D02*
X006529Y012113D01*
X006506Y011485D02*
X006463Y011485D01*
X006446Y011406D02*
X006522Y011406D01*
X006512Y010778D02*
X006456Y010778D01*
X007412Y010778D02*
X008925Y010778D01*
X008847Y010857D02*
X008197Y010857D01*
X008171Y009444D02*
X008873Y009444D01*
X010889Y009601D02*
X011152Y009601D01*
X011231Y009522D02*
X010937Y009522D01*
X010937Y009444D02*
X011309Y009444D01*
X011266Y009365D02*
X010937Y009365D01*
X010937Y009287D02*
X011193Y009287D01*
X010937Y008816D02*
X011810Y008816D01*
X011740Y008894D02*
X011579Y008894D01*
X011666Y008973D02*
X011708Y008973D01*
X012159Y008816D02*
X012210Y008816D01*
X016197Y013055D02*
X004835Y013055D01*
X004757Y013133D02*
X016276Y013133D01*
X016763Y013212D02*
X004678Y013212D01*
X003320Y013447D02*
X002974Y013447D01*
X002974Y013369D02*
X003242Y013369D01*
X003163Y013290D02*
X002974Y013290D01*
X002974Y013212D02*
X003108Y013212D01*
X003108Y013133D02*
X002974Y013133D01*
X002974Y013055D02*
X003108Y013055D01*
X003108Y012976D02*
X002974Y012976D01*
X002974Y012898D02*
X003108Y012898D01*
X003128Y012819D02*
X002974Y012819D01*
X002974Y012741D02*
X003207Y012741D01*
X003285Y012662D02*
X002974Y012662D01*
X002974Y012584D02*
X003364Y012584D01*
X002974Y014625D02*
X005024Y014625D01*
X005024Y014703D02*
X002974Y014703D01*
X002974Y014782D02*
X005024Y014782D01*
X005024Y014860D02*
X002974Y014860D01*
X002974Y015567D02*
X003381Y015567D01*
X003302Y015645D02*
X002974Y015645D01*
X002974Y015724D02*
X003224Y015724D01*
X003145Y015802D02*
X002974Y015802D01*
X002974Y015881D02*
X003108Y015881D01*
X003108Y015959D02*
X002974Y015959D01*
X002974Y016038D02*
X003108Y016038D01*
X003108Y016116D02*
X002974Y016116D01*
X002974Y016195D02*
X003108Y016195D01*
X003146Y016273D02*
X002974Y016273D01*
X002974Y016352D02*
X003225Y016352D01*
X003303Y016430D02*
X002974Y016430D01*
X002974Y016509D02*
X003382Y016509D01*
X003360Y016587D02*
X002974Y016587D01*
X002974Y016666D02*
X003282Y016666D01*
X003203Y016744D02*
X002974Y016744D01*
X002974Y016823D02*
X003125Y016823D01*
X003108Y016901D02*
X002974Y016901D01*
X002974Y016980D02*
X003108Y016980D01*
X003108Y017058D02*
X002974Y017058D01*
X002974Y017137D02*
X003108Y017137D01*
X003108Y017215D02*
X002974Y017215D01*
X002974Y017294D02*
X003167Y017294D01*
X003245Y017372D02*
X002974Y017372D01*
X004882Y019963D02*
X020472Y019963D01*
X020499Y020041D02*
X004855Y020041D01*
X004810Y020120D02*
X020544Y020120D01*
X020589Y020198D02*
X004764Y020198D01*
X004719Y020277D02*
X020635Y020277D01*
X020712Y020355D02*
X004641Y020355D01*
X006981Y019806D02*
X007488Y019806D01*
X007409Y019727D02*
X007059Y019727D01*
X007138Y019649D02*
X007331Y019649D01*
X007252Y019570D02*
X007216Y019570D01*
X007981Y019806D02*
X008488Y019806D01*
X008409Y019727D02*
X008059Y019727D01*
X008138Y019649D02*
X008331Y019649D01*
X008252Y019570D02*
X008216Y019570D01*
X008981Y019806D02*
X016388Y019806D01*
X016309Y019727D02*
X009059Y019727D01*
X009138Y019649D02*
X016231Y019649D01*
X016152Y019570D02*
X009216Y019570D01*
X009295Y019492D02*
X016074Y019492D01*
X016058Y019413D02*
X014215Y019413D01*
X014259Y019335D02*
X016058Y019335D01*
X016058Y019256D02*
X014259Y019256D01*
X014259Y019178D02*
X015995Y019178D01*
X015917Y019099D02*
X014259Y019099D01*
X014259Y019021D02*
X015838Y019021D01*
X015760Y018942D02*
X014259Y018942D01*
X014259Y018864D02*
X015681Y018864D01*
X015603Y018785D02*
X014259Y018785D01*
X014259Y018707D02*
X015524Y018707D01*
X016881Y019806D02*
X017388Y019806D01*
X017309Y019727D02*
X016959Y019727D01*
X017038Y019649D02*
X017231Y019649D01*
X017152Y019570D02*
X017116Y019570D01*
X017881Y019806D02*
X018388Y019806D01*
X018309Y019727D02*
X017959Y019727D01*
X018038Y019649D02*
X018231Y019649D01*
X018152Y019570D02*
X018116Y019570D01*
X021985Y018550D02*
X022379Y018550D01*
X022379Y018628D02*
X022121Y018628D01*
X022244Y018707D02*
X022379Y018707D01*
X022379Y018785D02*
X022322Y018785D01*
X020434Y014937D02*
X020434Y014437D01*
X020534Y014337D01*
X019177Y013840D02*
X018794Y013840D01*
X018794Y013918D02*
X019099Y013918D01*
X019024Y013997D02*
X018794Y013997D01*
X018794Y014075D02*
X019024Y014075D01*
X019024Y014154D02*
X018794Y014154D01*
X018794Y014232D02*
X019024Y014232D01*
X014934Y014337D02*
X014834Y014437D01*
X014834Y014937D01*
X014604Y014067D02*
X014934Y013737D01*
X012134Y013737D02*
X011804Y014067D01*
X011134Y014337D02*
X011034Y014437D01*
X011034Y014937D01*
X010600Y015174D02*
X010318Y015174D01*
X010394Y015253D02*
X010522Y015253D01*
X010443Y015331D02*
X010394Y015331D01*
X009004Y014067D02*
X009334Y013737D01*
X009084Y013437D02*
X008834Y013687D01*
X008334Y014337D02*
X008234Y014437D01*
X008234Y014937D01*
X007824Y015174D02*
X007518Y015174D01*
X007594Y015253D02*
X007772Y015253D01*
X007693Y015331D02*
X007594Y015331D01*
X007594Y015410D02*
X007615Y015410D01*
X010466Y018236D02*
X011224Y018236D01*
X011224Y018314D02*
X010387Y018314D01*
X010309Y018393D02*
X011224Y018393D01*
X011224Y018471D02*
X010230Y018471D01*
X010152Y018550D02*
X011165Y018550D01*
X011109Y018628D02*
X010073Y018628D01*
X009995Y018707D02*
X011109Y018707D01*
X011109Y018785D02*
X009916Y018785D01*
X009838Y018864D02*
X011109Y018864D01*
X011109Y018942D02*
X009759Y018942D01*
X009681Y019021D02*
X011109Y019021D01*
X011109Y019099D02*
X009602Y019099D01*
X009524Y019178D02*
X011109Y019178D01*
X011109Y019256D02*
X009445Y019256D01*
X009367Y019335D02*
X011109Y019335D01*
X011154Y019413D02*
X009311Y019413D01*
X010544Y018157D02*
X011224Y018157D01*
X011224Y018079D02*
X010623Y018079D01*
X010701Y018000D02*
X011224Y018000D01*
X006832Y006696D02*
X006719Y006696D01*
X006762Y006618D02*
X006807Y006618D01*
X006807Y006539D02*
X006762Y006539D01*
X006762Y006461D02*
X006807Y006461D01*
X006807Y006382D02*
X006762Y006382D01*
X006762Y006304D02*
X006807Y006304D01*
X006807Y006225D02*
X006762Y006225D01*
X006762Y006147D02*
X006807Y006147D01*
X006807Y006068D02*
X006762Y006068D01*
X006762Y005990D02*
X006807Y005990D01*
X006807Y005911D02*
X006762Y005911D01*
X006762Y005833D02*
X006807Y005833D01*
X006807Y005754D02*
X006762Y005754D01*
X006739Y005676D02*
X006830Y005676D01*
X006807Y005597D02*
X006762Y005597D01*
X006762Y005519D02*
X006807Y005519D01*
X006807Y005440D02*
X006762Y005440D01*
X006762Y005362D02*
X006807Y005362D01*
X006807Y005283D02*
X006762Y005283D01*
X006745Y005205D02*
X006824Y005205D01*
X007345Y005205D02*
X007421Y005205D01*
X006097Y006461D02*
X004882Y006461D01*
X004882Y006382D02*
X005074Y006382D01*
X005015Y006304D02*
X004865Y006304D01*
X004827Y006225D02*
X005015Y006225D01*
X005015Y006147D02*
X004742Y006147D01*
X004850Y006539D02*
X006175Y006539D01*
X006207Y006618D02*
X004791Y006618D01*
X004655Y006696D02*
X006250Y006696D01*
D41*
X010584Y012187D03*
X010534Y014787D03*
X010534Y015087D03*
X007734Y015087D03*
X007734Y014787D03*
X004934Y014787D03*
X004934Y015087D03*
X013334Y015087D03*
X013334Y014787D03*
X016134Y014787D03*
X016134Y015087D03*
X018934Y015087D03*
X018934Y014787D03*
X014534Y010937D03*
X013934Y007737D03*
X016334Y003887D03*
D42*
X018534Y004387D03*
X016234Y009487D03*
X015684Y010087D03*
X016784Y010087D03*
X015734Y012987D03*
X014834Y012987D03*
X013734Y013187D03*
X012734Y013037D03*
X011134Y013087D03*
X010234Y013087D03*
X009534Y011687D03*
X008834Y011687D03*
X008584Y013187D03*
X007584Y013187D03*
X004834Y013437D03*
X006384Y015887D03*
X006884Y015887D03*
X007234Y015887D03*
X009184Y015887D03*
X009684Y015887D03*
X010034Y015887D03*
X011984Y015887D03*
X012484Y015887D03*
X012834Y015887D03*
X014784Y015887D03*
X015284Y015887D03*
X015634Y015887D03*
X017584Y015887D03*
X018084Y015887D03*
X018434Y015887D03*
X020384Y015887D03*
X020884Y015887D03*
X021234Y015887D03*
X021984Y015437D03*
X021984Y016587D03*
X021984Y017737D03*
X019934Y018787D03*
X019934Y019987D03*
X006194Y009507D03*
X003384Y007287D03*
X003384Y005537D03*
X003384Y003737D03*
X005434Y018787D03*
X005434Y019937D03*
D43*
X020534Y007137D03*
X021134Y006437D03*
X020534Y005737D03*
X021784Y005737D03*
X021784Y007137D03*
X021884Y008687D03*
X019384Y004437D03*
X019384Y003937D03*
X021884Y004187D03*
D44*
X016334Y004487D03*
X015684Y004487D03*
X013934Y006837D03*
X013534Y006837D03*
X013934Y008337D03*
X012384Y009037D03*
X011984Y009037D03*
X011434Y009137D03*
X010434Y008537D03*
X009784Y006857D03*
X008134Y006737D03*
X008134Y006137D03*
X007584Y005937D03*
X007584Y005437D03*
X006384Y008087D03*
X006384Y008457D03*
X007284Y009487D03*
X006134Y011087D03*
X005434Y011087D03*
X004684Y012187D03*
X004384Y012487D03*
X005984Y013687D03*
X007434Y013687D03*
X008834Y013687D03*
X009934Y012687D03*
X010234Y013687D03*
X011634Y013687D03*
X011734Y012487D03*
X012334Y012487D03*
X013034Y013687D03*
X014034Y012737D03*
X014434Y013687D03*
X015834Y013687D03*
X016934Y012987D03*
X017234Y013687D03*
X017934Y012987D03*
X015184Y012237D03*
X015484Y010637D03*
X015034Y010337D03*
X014434Y010137D03*
X014434Y010537D03*
X013284Y010637D03*
X013284Y010237D03*
X013284Y009837D03*
X012884Y011037D03*
X012484Y011037D03*
X012084Y011037D03*
X010584Y011587D03*
X008084Y012387D03*
X007334Y012087D03*
X007784Y016437D03*
X008234Y017037D03*
X008784Y016437D03*
X010584Y016437D03*
X011034Y017037D03*
X011584Y016437D03*
X013384Y016437D03*
X013834Y017037D03*
X014384Y016437D03*
X016184Y016437D03*
X016634Y017037D03*
X017184Y016437D03*
X018984Y016437D03*
X019434Y017037D03*
X019984Y016437D03*
X016534Y009087D03*
X015934Y008487D03*
X005984Y016437D03*
X005434Y017037D03*
X004984Y016437D03*
D45*
X005194Y016209D02*
X005247Y016262D01*
X005294Y016376D01*
X005294Y016499D01*
X005247Y016613D01*
X005160Y016700D01*
X005046Y016747D01*
X004923Y016747D01*
X004834Y016711D01*
X004834Y017787D01*
X005634Y017787D01*
X005634Y016687D01*
X005718Y016604D01*
X005674Y016499D01*
X005674Y016376D01*
X005722Y016262D01*
X005774Y016209D01*
X005774Y015650D01*
X005984Y015440D01*
X005984Y014687D01*
X005703Y014687D01*
X005703Y015283D01*
X005603Y015383D01*
X005414Y015383D01*
X005414Y015404D01*
X005291Y015527D01*
X005194Y015624D01*
X005194Y016209D01*
X005194Y016155D02*
X005774Y016155D01*
X005774Y016056D02*
X005194Y016056D01*
X005194Y015958D02*
X005774Y015958D01*
X005774Y015859D02*
X005194Y015859D01*
X005194Y015761D02*
X005774Y015761D01*
X005774Y015662D02*
X005194Y015662D01*
X005255Y015564D02*
X005861Y015564D01*
X005959Y015465D02*
X005353Y015465D01*
X005619Y015367D02*
X005984Y015367D01*
X005984Y015268D02*
X005703Y015268D01*
X005703Y015170D02*
X005984Y015170D01*
X005984Y015071D02*
X005703Y015071D01*
X005703Y014973D02*
X005984Y014973D01*
X005984Y014874D02*
X005703Y014874D01*
X005703Y014776D02*
X005984Y014776D01*
X006414Y015383D02*
X006414Y015604D01*
X006291Y015727D01*
X006204Y015814D01*
X006204Y016219D01*
X006247Y016262D01*
X006294Y016376D01*
X006294Y016499D01*
X006247Y016613D01*
X006160Y016700D01*
X006046Y016747D01*
X005923Y016747D01*
X005896Y016737D01*
X005854Y016779D01*
X005854Y017763D01*
X005878Y017787D01*
X007384Y017787D01*
X007384Y015337D01*
X006649Y015337D01*
X006603Y015383D01*
X006414Y015383D01*
X006414Y015465D02*
X007384Y015465D01*
X007384Y015367D02*
X006619Y015367D01*
X006414Y015564D02*
X007384Y015564D01*
X007384Y015662D02*
X006356Y015662D01*
X006258Y015761D02*
X007384Y015761D01*
X007384Y015859D02*
X006204Y015859D01*
X006204Y015958D02*
X007384Y015958D01*
X007384Y016056D02*
X006204Y016056D01*
X006204Y016155D02*
X007384Y016155D01*
X007384Y016253D02*
X006239Y016253D01*
X006284Y016352D02*
X007384Y016352D01*
X007384Y016450D02*
X006294Y016450D01*
X006274Y016549D02*
X007384Y016549D01*
X007384Y016647D02*
X006213Y016647D01*
X006050Y016746D02*
X007384Y016746D01*
X007384Y016844D02*
X005854Y016844D01*
X005854Y016943D02*
X007384Y016943D01*
X007384Y017041D02*
X005854Y017041D01*
X005854Y017140D02*
X007384Y017140D01*
X007384Y017238D02*
X005854Y017238D01*
X005854Y017337D02*
X007384Y017337D01*
X007384Y017435D02*
X005854Y017435D01*
X005854Y017534D02*
X007384Y017534D01*
X007384Y017632D02*
X005854Y017632D01*
X005854Y017731D02*
X007384Y017731D01*
X007634Y017731D02*
X008434Y017731D01*
X008434Y017787D02*
X007634Y017787D01*
X007634Y016737D01*
X007653Y016719D01*
X007723Y016747D01*
X007846Y016747D01*
X007960Y016700D01*
X008047Y016613D01*
X008094Y016499D01*
X008094Y016376D01*
X008047Y016262D01*
X007994Y016209D01*
X007994Y015624D01*
X008091Y015527D01*
X008214Y015404D01*
X008214Y015383D01*
X008403Y015383D01*
X008503Y015283D01*
X008503Y014687D01*
X008784Y014687D01*
X008784Y015390D01*
X008574Y015600D01*
X008574Y016209D01*
X008522Y016262D01*
X008474Y016376D01*
X008474Y016499D01*
X008518Y016604D01*
X008434Y016687D01*
X008434Y017787D01*
X008434Y017632D02*
X007634Y017632D01*
X007634Y017534D02*
X008434Y017534D01*
X008434Y017435D02*
X007634Y017435D01*
X007634Y017337D02*
X008434Y017337D01*
X008434Y017238D02*
X007634Y017238D01*
X007634Y017140D02*
X008434Y017140D01*
X008434Y017041D02*
X007634Y017041D01*
X007634Y016943D02*
X008434Y016943D01*
X008434Y016844D02*
X007634Y016844D01*
X007634Y016746D02*
X007719Y016746D01*
X007850Y016746D02*
X008434Y016746D01*
X008474Y016647D02*
X008013Y016647D01*
X008074Y016549D02*
X008495Y016549D01*
X008474Y016450D02*
X008094Y016450D01*
X008084Y016352D02*
X008484Y016352D01*
X008530Y016253D02*
X008039Y016253D01*
X007994Y016155D02*
X008574Y016155D01*
X008574Y016056D02*
X007994Y016056D01*
X007994Y015958D02*
X008574Y015958D01*
X008574Y015859D02*
X007994Y015859D01*
X007994Y015761D02*
X008574Y015761D01*
X008574Y015662D02*
X007994Y015662D01*
X008055Y015564D02*
X008611Y015564D01*
X008709Y015465D02*
X008153Y015465D01*
X008419Y015367D02*
X008784Y015367D01*
X008784Y015268D02*
X008503Y015268D01*
X008503Y015170D02*
X008784Y015170D01*
X008784Y015071D02*
X008503Y015071D01*
X008503Y014973D02*
X008784Y014973D01*
X008784Y014874D02*
X008503Y014874D01*
X008503Y014776D02*
X008784Y014776D01*
X009214Y015383D02*
X009214Y015554D01*
X009091Y015677D01*
X009004Y015764D01*
X009004Y016219D01*
X009047Y016262D01*
X009094Y016376D01*
X009094Y016499D01*
X009047Y016613D01*
X008960Y016700D01*
X008846Y016747D01*
X008723Y016747D01*
X008696Y016737D01*
X008654Y016779D01*
X008654Y017787D01*
X009740Y017787D01*
X010184Y017343D01*
X010184Y015337D01*
X009449Y015337D01*
X009403Y015383D01*
X009214Y015383D01*
X009214Y015465D02*
X010184Y015465D01*
X010184Y015367D02*
X009419Y015367D01*
X009205Y015564D02*
X010184Y015564D01*
X010184Y015662D02*
X009106Y015662D01*
X009091Y015677D02*
X009091Y015677D01*
X009008Y015761D02*
X010184Y015761D01*
X010184Y015859D02*
X009004Y015859D01*
X009004Y015958D02*
X010184Y015958D01*
X010184Y016056D02*
X009004Y016056D01*
X009004Y016155D02*
X010184Y016155D01*
X010184Y016253D02*
X009039Y016253D01*
X009084Y016352D02*
X010184Y016352D01*
X010184Y016450D02*
X009094Y016450D01*
X009074Y016549D02*
X010184Y016549D01*
X010184Y016647D02*
X009013Y016647D01*
X008850Y016746D02*
X010184Y016746D01*
X010184Y016844D02*
X008654Y016844D01*
X008654Y016943D02*
X010184Y016943D01*
X010184Y017041D02*
X008654Y017041D01*
X008654Y017140D02*
X010184Y017140D01*
X010184Y017238D02*
X008654Y017238D01*
X008654Y017337D02*
X010184Y017337D01*
X010092Y017435D02*
X008654Y017435D01*
X008654Y017534D02*
X009994Y017534D01*
X009895Y017632D02*
X008654Y017632D01*
X008654Y017731D02*
X009797Y017731D01*
X010434Y017731D02*
X011234Y017731D01*
X011234Y017787D02*
X010434Y017787D01*
X010434Y016737D01*
X010453Y016719D01*
X010523Y016747D01*
X010646Y016747D01*
X010760Y016700D01*
X010847Y016613D01*
X010894Y016499D01*
X010894Y016376D01*
X010847Y016262D01*
X010794Y016209D01*
X010794Y015574D01*
X010986Y015383D01*
X011203Y015383D01*
X011303Y015283D01*
X011303Y014687D01*
X011584Y014687D01*
X011584Y015440D01*
X011374Y015650D01*
X011374Y016209D01*
X011322Y016262D01*
X011274Y016376D01*
X011274Y016499D01*
X011322Y016613D01*
X011333Y016624D01*
X011266Y016691D01*
X011266Y016706D01*
X011234Y016737D01*
X011234Y017787D01*
X011234Y017632D02*
X010434Y017632D01*
X010434Y017534D02*
X011234Y017534D01*
X011234Y017435D02*
X010434Y017435D01*
X010434Y017337D02*
X011234Y017337D01*
X011234Y017238D02*
X010434Y017238D01*
X010434Y017140D02*
X011234Y017140D01*
X011234Y017041D02*
X010434Y017041D01*
X010434Y016943D02*
X011234Y016943D01*
X011234Y016844D02*
X010434Y016844D01*
X010434Y016746D02*
X010519Y016746D01*
X010650Y016746D02*
X011234Y016746D01*
X011310Y016647D02*
X010813Y016647D01*
X010874Y016549D02*
X011295Y016549D01*
X011274Y016450D02*
X010894Y016450D01*
X010884Y016352D02*
X011284Y016352D01*
X011330Y016253D02*
X010839Y016253D01*
X010794Y016155D02*
X011374Y016155D01*
X011374Y016056D02*
X010794Y016056D01*
X010794Y015958D02*
X011374Y015958D01*
X011374Y015859D02*
X010794Y015859D01*
X010794Y015761D02*
X011374Y015761D01*
X011374Y015662D02*
X010794Y015662D01*
X010805Y015564D02*
X011461Y015564D01*
X011559Y015465D02*
X010903Y015465D01*
X011219Y015367D02*
X011584Y015367D01*
X011584Y015268D02*
X011303Y015268D01*
X011303Y015170D02*
X011584Y015170D01*
X011584Y015071D02*
X011303Y015071D01*
X011303Y014973D02*
X011584Y014973D01*
X011584Y014874D02*
X011303Y014874D01*
X011303Y014776D02*
X011584Y014776D01*
X012039Y015383D02*
X012014Y015407D01*
X012014Y015604D01*
X011891Y015727D01*
X011804Y015814D01*
X011804Y016219D01*
X011847Y016262D01*
X011894Y016376D01*
X011894Y016499D01*
X011847Y016613D01*
X011760Y016700D01*
X011646Y016747D01*
X011535Y016747D01*
X011454Y016829D01*
X011454Y017879D01*
X011434Y017899D01*
X011434Y019237D01*
X014034Y019237D01*
X014034Y018737D01*
X012984Y018737D01*
X012984Y015337D01*
X012249Y015337D01*
X012203Y015383D01*
X012039Y015383D01*
X012014Y015465D02*
X012984Y015465D01*
X012984Y015367D02*
X012219Y015367D01*
X012014Y015564D02*
X012984Y015564D01*
X012984Y015662D02*
X011956Y015662D01*
X011858Y015761D02*
X012984Y015761D01*
X012984Y015859D02*
X011804Y015859D01*
X011804Y015958D02*
X012984Y015958D01*
X012984Y016056D02*
X011804Y016056D01*
X011804Y016155D02*
X012984Y016155D01*
X012984Y016253D02*
X011839Y016253D01*
X011884Y016352D02*
X012984Y016352D01*
X012984Y016450D02*
X011894Y016450D01*
X011874Y016549D02*
X012984Y016549D01*
X012984Y016647D02*
X011813Y016647D01*
X011650Y016746D02*
X012984Y016746D01*
X012984Y016844D02*
X011454Y016844D01*
X011454Y016943D02*
X012984Y016943D01*
X012984Y017041D02*
X011454Y017041D01*
X011454Y017140D02*
X012984Y017140D01*
X012984Y017238D02*
X011454Y017238D01*
X011454Y017337D02*
X012984Y017337D01*
X012984Y017435D02*
X011454Y017435D01*
X011454Y017534D02*
X012984Y017534D01*
X012984Y017632D02*
X011454Y017632D01*
X011454Y017731D02*
X012984Y017731D01*
X012984Y017829D02*
X011454Y017829D01*
X011434Y017928D02*
X012984Y017928D01*
X012984Y018026D02*
X011434Y018026D01*
X011434Y018125D02*
X012984Y018125D01*
X012984Y018223D02*
X011434Y018223D01*
X011434Y018322D02*
X012984Y018322D01*
X012984Y018420D02*
X011434Y018420D01*
X011434Y018519D02*
X012984Y018519D01*
X012984Y018617D02*
X011434Y018617D01*
X011434Y018716D02*
X012984Y018716D01*
X013234Y018437D02*
X014034Y018437D01*
X014034Y016687D01*
X014121Y016613D01*
X014074Y016499D01*
X014074Y016376D01*
X014122Y016262D01*
X014174Y016209D01*
X014174Y015650D01*
X014384Y015440D01*
X014384Y014687D01*
X014103Y014687D01*
X014103Y015283D01*
X014003Y015383D01*
X013814Y015383D01*
X013814Y015404D01*
X013691Y015527D01*
X013594Y015624D01*
X013594Y016209D01*
X013647Y016262D01*
X013694Y016376D01*
X013694Y016499D01*
X013647Y016613D01*
X013560Y016700D01*
X013446Y016747D01*
X013323Y016747D01*
X013234Y016711D01*
X013234Y018437D01*
X013234Y018420D02*
X014034Y018420D01*
X014034Y018322D02*
X013234Y018322D01*
X013234Y018223D02*
X014034Y018223D01*
X014034Y018125D02*
X013234Y018125D01*
X013234Y018026D02*
X014034Y018026D01*
X014034Y017928D02*
X013234Y017928D01*
X013234Y017829D02*
X014034Y017829D01*
X014034Y017731D02*
X013234Y017731D01*
X013234Y017632D02*
X014034Y017632D01*
X014034Y017534D02*
X013234Y017534D01*
X013234Y017435D02*
X014034Y017435D01*
X014034Y017337D02*
X013234Y017337D01*
X013234Y017238D02*
X014034Y017238D01*
X014034Y017140D02*
X013234Y017140D01*
X013234Y017041D02*
X014034Y017041D01*
X014034Y016943D02*
X013234Y016943D01*
X013234Y016844D02*
X014034Y016844D01*
X014034Y016746D02*
X013450Y016746D01*
X013319Y016746D02*
X013234Y016746D01*
X013613Y016647D02*
X014081Y016647D01*
X014095Y016549D02*
X013674Y016549D01*
X013694Y016450D02*
X014074Y016450D01*
X014084Y016352D02*
X013684Y016352D01*
X013639Y016253D02*
X014130Y016253D01*
X014174Y016155D02*
X013594Y016155D01*
X013594Y016056D02*
X014174Y016056D01*
X014174Y015958D02*
X013594Y015958D01*
X013594Y015859D02*
X014174Y015859D01*
X014174Y015761D02*
X013594Y015761D01*
X013594Y015662D02*
X014174Y015662D01*
X014261Y015564D02*
X013655Y015564D01*
X013753Y015465D02*
X014359Y015465D01*
X014384Y015367D02*
X014019Y015367D01*
X014103Y015268D02*
X014384Y015268D01*
X014384Y015170D02*
X014103Y015170D01*
X014103Y015071D02*
X014384Y015071D01*
X014384Y014973D02*
X014103Y014973D01*
X014103Y014874D02*
X014384Y014874D01*
X014384Y014776D02*
X014103Y014776D01*
X014814Y015383D02*
X014814Y015604D01*
X014691Y015727D01*
X014604Y015814D01*
X014604Y016219D01*
X014647Y016262D01*
X014694Y016376D01*
X014694Y016499D01*
X014647Y016613D01*
X014560Y016700D01*
X014446Y016747D01*
X014323Y016747D01*
X014309Y016742D01*
X014254Y016789D01*
X014254Y017787D01*
X015784Y017787D01*
X015784Y015337D01*
X015049Y015337D01*
X015003Y015383D01*
X014814Y015383D01*
X014814Y015465D02*
X015784Y015465D01*
X015784Y015367D02*
X015019Y015367D01*
X014814Y015564D02*
X015784Y015564D01*
X015784Y015662D02*
X014756Y015662D01*
X014658Y015761D02*
X015784Y015761D01*
X015784Y015859D02*
X014604Y015859D01*
X014604Y015958D02*
X015784Y015958D01*
X015784Y016056D02*
X014604Y016056D01*
X014604Y016155D02*
X015784Y016155D01*
X015784Y016253D02*
X014639Y016253D01*
X014684Y016352D02*
X015784Y016352D01*
X015784Y016450D02*
X014694Y016450D01*
X014674Y016549D02*
X015784Y016549D01*
X015784Y016647D02*
X014613Y016647D01*
X014450Y016746D02*
X015784Y016746D01*
X015784Y016844D02*
X014254Y016844D01*
X014254Y016943D02*
X015784Y016943D01*
X015784Y017041D02*
X014254Y017041D01*
X014254Y017140D02*
X015784Y017140D01*
X015784Y017238D02*
X014254Y017238D01*
X014254Y017337D02*
X015784Y017337D01*
X015784Y017435D02*
X014254Y017435D01*
X014254Y017534D02*
X015784Y017534D01*
X015784Y017632D02*
X014254Y017632D01*
X014254Y017731D02*
X015784Y017731D01*
X016034Y017731D02*
X016834Y017731D01*
X016834Y017787D02*
X016034Y017787D01*
X016034Y016711D01*
X016123Y016747D01*
X016246Y016747D01*
X016360Y016700D01*
X016447Y016613D01*
X016494Y016499D01*
X016494Y016376D01*
X016447Y016262D01*
X016394Y016209D01*
X016394Y015574D01*
X016491Y015477D01*
X016586Y015383D01*
X016803Y015383D01*
X016903Y015283D01*
X016903Y014687D01*
X017184Y014687D01*
X017184Y015440D01*
X016974Y015650D01*
X016974Y016209D01*
X016922Y016262D01*
X016874Y016376D01*
X016874Y016499D01*
X016918Y016604D01*
X016834Y016687D01*
X016834Y017787D01*
X016834Y017632D02*
X016034Y017632D01*
X016034Y017534D02*
X016834Y017534D01*
X016834Y017435D02*
X016034Y017435D01*
X016034Y017337D02*
X016834Y017337D01*
X016834Y017238D02*
X016034Y017238D01*
X016034Y017140D02*
X016834Y017140D01*
X016834Y017041D02*
X016034Y017041D01*
X016034Y016943D02*
X016834Y016943D01*
X016834Y016844D02*
X016034Y016844D01*
X016034Y016746D02*
X016119Y016746D01*
X016250Y016746D02*
X016834Y016746D01*
X016874Y016647D02*
X016413Y016647D01*
X016474Y016549D02*
X016895Y016549D01*
X016874Y016450D02*
X016494Y016450D01*
X016484Y016352D02*
X016884Y016352D01*
X016930Y016253D02*
X016439Y016253D01*
X016394Y016155D02*
X016974Y016155D01*
X016974Y016056D02*
X016394Y016056D01*
X016394Y015958D02*
X016974Y015958D01*
X016974Y015859D02*
X016394Y015859D01*
X016394Y015761D02*
X016974Y015761D01*
X016974Y015662D02*
X016394Y015662D01*
X016405Y015564D02*
X017061Y015564D01*
X017159Y015465D02*
X016503Y015465D01*
X016819Y015367D02*
X017184Y015367D01*
X017184Y015268D02*
X016903Y015268D01*
X016903Y015170D02*
X017184Y015170D01*
X017184Y015071D02*
X016903Y015071D01*
X016903Y014973D02*
X017184Y014973D01*
X017184Y014874D02*
X016903Y014874D01*
X016903Y014776D02*
X017184Y014776D01*
X017614Y015383D02*
X017614Y015604D01*
X017491Y015727D01*
X017404Y015814D01*
X017404Y016219D01*
X017447Y016262D01*
X017494Y016376D01*
X017494Y016499D01*
X017447Y016613D01*
X017360Y016700D01*
X017246Y016747D01*
X017123Y016747D01*
X017096Y016737D01*
X017054Y016779D01*
X017054Y017513D01*
X017328Y017787D01*
X018584Y017787D01*
X018584Y013537D01*
X018884Y013237D01*
X018884Y011487D01*
X017684Y011487D01*
X017684Y011987D01*
X017234Y011987D01*
X017234Y012187D01*
X017684Y012187D01*
X017684Y012799D01*
X017759Y012725D01*
X017873Y012677D01*
X017996Y012677D01*
X018110Y012725D01*
X018197Y012812D01*
X018244Y012926D01*
X018244Y013049D01*
X018197Y013163D01*
X018110Y013250D01*
X017996Y013297D01*
X017921Y013297D01*
X017789Y013430D01*
X017962Y013430D01*
X018062Y013529D01*
X018062Y013946D01*
X017970Y014037D01*
X018062Y014129D01*
X018062Y014546D01*
X017962Y014645D01*
X017903Y014645D01*
X017903Y015283D01*
X017803Y015383D01*
X017614Y015383D01*
X017614Y015465D02*
X018584Y015465D01*
X018584Y015367D02*
X017819Y015367D01*
X017903Y015268D02*
X018584Y015268D01*
X018584Y015170D02*
X017903Y015170D01*
X017903Y015071D02*
X018584Y015071D01*
X018584Y014973D02*
X017903Y014973D01*
X017903Y014874D02*
X018584Y014874D01*
X018584Y014776D02*
X017903Y014776D01*
X017903Y014677D02*
X018584Y014677D01*
X018584Y014579D02*
X018028Y014579D01*
X018062Y014480D02*
X018584Y014480D01*
X018584Y014382D02*
X018062Y014382D01*
X018062Y014283D02*
X018584Y014283D01*
X018584Y014185D02*
X018062Y014185D01*
X018019Y014086D02*
X018584Y014086D01*
X018584Y013988D02*
X018019Y013988D01*
X018062Y013889D02*
X018584Y013889D01*
X018584Y013791D02*
X018062Y013791D01*
X018062Y013692D02*
X018584Y013692D01*
X018584Y013594D02*
X018062Y013594D01*
X018028Y013495D02*
X018626Y013495D01*
X018725Y013397D02*
X017822Y013397D01*
X017920Y013298D02*
X018823Y013298D01*
X018884Y013200D02*
X018160Y013200D01*
X018223Y013101D02*
X018884Y013101D01*
X018884Y013003D02*
X018244Y013003D01*
X018235Y012904D02*
X018884Y012904D01*
X018884Y012806D02*
X018191Y012806D01*
X018068Y012707D02*
X018884Y012707D01*
X018884Y012609D02*
X017684Y012609D01*
X017684Y012707D02*
X017800Y012707D01*
X017684Y012510D02*
X018884Y012510D01*
X018884Y012412D02*
X017684Y012412D01*
X017684Y012313D02*
X018884Y012313D01*
X018884Y012215D02*
X017684Y012215D01*
X017234Y012116D02*
X018884Y012116D01*
X018884Y012018D02*
X017234Y012018D01*
X017684Y011919D02*
X018884Y011919D01*
X018884Y011821D02*
X017684Y011821D01*
X017684Y011722D02*
X018884Y011722D01*
X018884Y011624D02*
X017684Y011624D01*
X017684Y011525D02*
X018884Y011525D01*
X019784Y011525D02*
X021834Y011525D01*
X021834Y011427D02*
X019784Y011427D01*
X019784Y011328D02*
X021834Y011328D01*
X021834Y011230D02*
X019784Y011230D01*
X019784Y011131D02*
X021834Y011131D01*
X021834Y011033D02*
X019784Y011033D01*
X019784Y010934D02*
X021834Y010934D01*
X021834Y010836D02*
X019784Y010836D01*
X019784Y010737D02*
X021834Y010737D01*
X021834Y010639D02*
X019784Y010639D01*
X019784Y010540D02*
X021834Y010540D01*
X021834Y010442D02*
X019784Y010442D01*
X019784Y010343D02*
X021834Y010343D01*
X021834Y010245D02*
X019784Y010245D01*
X019784Y010187D02*
X019784Y012687D01*
X020284Y012687D01*
X020284Y011787D01*
X021834Y011787D01*
X021834Y010187D01*
X019784Y010187D01*
X019784Y011624D02*
X021834Y011624D01*
X021834Y011722D02*
X019784Y011722D01*
X019784Y011821D02*
X020284Y011821D01*
X020284Y011919D02*
X019784Y011919D01*
X019784Y012018D02*
X020284Y012018D01*
X020284Y012116D02*
X019784Y012116D01*
X019784Y012215D02*
X020284Y012215D01*
X020284Y012313D02*
X019784Y012313D01*
X019784Y012412D02*
X020284Y012412D01*
X020284Y012510D02*
X019784Y012510D01*
X019784Y012609D02*
X020284Y012609D01*
X019984Y014687D02*
X019703Y014687D01*
X019703Y015283D01*
X019603Y015383D01*
X019386Y015383D01*
X019291Y015477D01*
X019194Y015574D01*
X019194Y016209D01*
X019247Y016262D01*
X019294Y016376D01*
X019294Y016499D01*
X019247Y016613D01*
X019160Y016700D01*
X019046Y016747D01*
X018923Y016747D01*
X018834Y016711D01*
X018834Y017787D01*
X019634Y017787D01*
X019634Y016587D01*
X019688Y016533D01*
X019674Y016499D01*
X019674Y016376D01*
X019722Y016262D01*
X019774Y016209D01*
X019774Y015650D01*
X019984Y015440D01*
X019984Y014687D01*
X019984Y014776D02*
X019703Y014776D01*
X019703Y014874D02*
X019984Y014874D01*
X019984Y014973D02*
X019703Y014973D01*
X019703Y015071D02*
X019984Y015071D01*
X019984Y015170D02*
X019703Y015170D01*
X019703Y015268D02*
X019984Y015268D01*
X019984Y015367D02*
X019619Y015367D01*
X019861Y015564D02*
X019205Y015564D01*
X019194Y015662D02*
X019774Y015662D01*
X019774Y015761D02*
X019194Y015761D01*
X019194Y015859D02*
X019774Y015859D01*
X019774Y015958D02*
X019194Y015958D01*
X019194Y016056D02*
X019774Y016056D01*
X019774Y016155D02*
X019194Y016155D01*
X019239Y016253D02*
X019730Y016253D01*
X019684Y016352D02*
X019284Y016352D01*
X019294Y016450D02*
X019674Y016450D01*
X019673Y016549D02*
X019274Y016549D01*
X019213Y016647D02*
X019634Y016647D01*
X019634Y016746D02*
X019050Y016746D01*
X018919Y016746D02*
X018834Y016746D01*
X018834Y016844D02*
X019634Y016844D01*
X019634Y016943D02*
X018834Y016943D01*
X018834Y017041D02*
X019634Y017041D01*
X019634Y017140D02*
X018834Y017140D01*
X018834Y017238D02*
X019634Y017238D01*
X019634Y017337D02*
X018834Y017337D01*
X018834Y017435D02*
X019634Y017435D01*
X019634Y017534D02*
X018834Y017534D01*
X018834Y017632D02*
X019634Y017632D01*
X019634Y017731D02*
X018834Y017731D01*
X018584Y017731D02*
X017272Y017731D01*
X017173Y017632D02*
X018584Y017632D01*
X018584Y017534D02*
X017075Y017534D01*
X017054Y017435D02*
X018584Y017435D01*
X018584Y017337D02*
X017054Y017337D01*
X017054Y017238D02*
X018584Y017238D01*
X018584Y017140D02*
X017054Y017140D01*
X017054Y017041D02*
X018584Y017041D01*
X018584Y016943D02*
X017054Y016943D01*
X017054Y016844D02*
X018584Y016844D01*
X018584Y016746D02*
X017250Y016746D01*
X017119Y016746D02*
X017087Y016746D01*
X017413Y016647D02*
X018584Y016647D01*
X018584Y016549D02*
X017474Y016549D01*
X017494Y016450D02*
X018584Y016450D01*
X018584Y016352D02*
X017484Y016352D01*
X017439Y016253D02*
X018584Y016253D01*
X018584Y016155D02*
X017404Y016155D01*
X017404Y016056D02*
X018584Y016056D01*
X018584Y015958D02*
X017404Y015958D01*
X017404Y015859D02*
X018584Y015859D01*
X018584Y015761D02*
X017458Y015761D01*
X017556Y015662D02*
X018584Y015662D01*
X018584Y015564D02*
X017614Y015564D01*
X019303Y015465D02*
X019959Y015465D01*
X020258Y015761D02*
X021384Y015761D01*
X021384Y015859D02*
X020204Y015859D01*
X020204Y015814D02*
X020204Y016219D01*
X020247Y016262D01*
X020294Y016376D01*
X020294Y016499D01*
X020247Y016613D01*
X020160Y016700D01*
X020046Y016747D01*
X019923Y016747D01*
X019854Y016719D01*
X019854Y017787D01*
X021384Y017787D01*
X021384Y015337D01*
X020649Y015337D01*
X020603Y015383D01*
X020414Y015383D01*
X020414Y015604D01*
X020291Y015727D01*
X020204Y015814D01*
X020204Y015958D02*
X021384Y015958D01*
X021384Y016056D02*
X020204Y016056D01*
X020204Y016155D02*
X021384Y016155D01*
X021384Y016253D02*
X020239Y016253D01*
X020284Y016352D02*
X021384Y016352D01*
X021384Y016450D02*
X020294Y016450D01*
X020274Y016549D02*
X021384Y016549D01*
X021384Y016647D02*
X020213Y016647D01*
X020050Y016746D02*
X021384Y016746D01*
X021384Y016844D02*
X019854Y016844D01*
X019854Y016746D02*
X019919Y016746D01*
X019854Y016943D02*
X021384Y016943D01*
X021384Y017041D02*
X019854Y017041D01*
X019854Y017140D02*
X021384Y017140D01*
X021384Y017238D02*
X019854Y017238D01*
X019854Y017337D02*
X021384Y017337D01*
X021384Y017435D02*
X019854Y017435D01*
X019854Y017534D02*
X021384Y017534D01*
X021384Y017632D02*
X019854Y017632D01*
X019854Y017731D02*
X021384Y017731D01*
X021384Y015662D02*
X020356Y015662D01*
X020414Y015564D02*
X021384Y015564D01*
X021384Y015465D02*
X020414Y015465D01*
X020619Y015367D02*
X021384Y015367D01*
X016684Y012087D02*
X016684Y011587D01*
X016684Y011087D01*
X015934Y011087D01*
X015484Y010637D01*
X015034Y010337D02*
X014339Y009642D01*
X013908Y009642D01*
X013908Y009445D02*
X014442Y009445D01*
X014584Y009587D01*
X015184Y009587D01*
X015184Y009087D02*
X015148Y009052D01*
X013908Y009052D01*
X013908Y009248D02*
X014525Y009248D01*
X014614Y009337D01*
X015884Y009337D01*
X016634Y008587D01*
X017284Y008587D01*
X017284Y008087D02*
X016784Y008087D01*
X016034Y008837D01*
X014684Y008837D01*
X014534Y008687D01*
X014367Y008855D01*
X013908Y008855D01*
X013934Y008337D02*
X013861Y008264D01*
X013317Y008264D01*
X013317Y009255D01*
X012984Y009587D01*
X012984Y010737D01*
X013184Y010937D01*
X013484Y010937D01*
X013567Y011020D01*
X013908Y011020D01*
X014067Y011020D01*
X014084Y011037D01*
X014084Y011087D01*
X014534Y011537D01*
X015034Y011537D01*
X015034Y010937D02*
X014634Y010537D01*
X014434Y010537D01*
X014326Y010430D01*
X013908Y010430D01*
X013908Y010626D02*
X013295Y010626D01*
X013284Y010637D01*
X012984Y010737D02*
X011634Y010737D01*
X011152Y011220D01*
X011152Y011587D01*
X010584Y011587D01*
X010584Y011020D01*
X010561Y011020D01*
X010561Y010626D02*
X010895Y010626D01*
X012384Y009137D01*
X012384Y009037D01*
X011984Y009037D02*
X011183Y009839D01*
X010561Y009839D01*
X009936Y009839D01*
X009634Y009537D01*
X009634Y008987D01*
X009384Y008737D01*
X006434Y008737D01*
X004384Y010787D01*
X004384Y012487D01*
X004684Y012187D02*
X004684Y012937D01*
X003584Y014037D01*
X005434Y012337D02*
X005434Y011787D01*
X006134Y011787D02*
X006134Y012337D01*
X006834Y012337D02*
X006834Y011787D01*
X007334Y011587D02*
X006834Y011087D01*
X007284Y010637D01*
X007284Y009487D01*
X006484Y008537D02*
X006284Y008537D01*
X006284Y007987D01*
X006484Y007987D01*
X006484Y008537D01*
X006484Y008472D02*
X006284Y008472D01*
X006284Y008373D02*
X006484Y008373D01*
X006484Y008275D02*
X006284Y008275D01*
X006284Y008176D02*
X006484Y008176D01*
X006484Y008078D02*
X006284Y008078D01*
X008034Y006887D02*
X008234Y006887D01*
X008234Y006087D01*
X008034Y006087D01*
X008034Y006887D01*
X008034Y006797D02*
X008234Y006797D01*
X008234Y006699D02*
X008034Y006699D01*
X008034Y006600D02*
X008234Y006600D01*
X008234Y006502D02*
X008034Y006502D01*
X008034Y006403D02*
X008234Y006403D01*
X008234Y006305D02*
X008034Y006305D01*
X008034Y006206D02*
X008234Y006206D01*
X008234Y006108D02*
X008034Y006108D01*
X007584Y005937D02*
X007084Y005937D01*
X007084Y005437D02*
X007584Y005437D01*
X008084Y004687D02*
X007884Y004487D01*
X007184Y004487D01*
X006684Y003987D01*
X007684Y003987D02*
X008184Y004487D01*
X008884Y004487D01*
X009084Y004687D01*
X010134Y004687D01*
X011348Y005902D01*
X011348Y008264D01*
X011152Y008264D02*
X011152Y006005D01*
X010034Y004887D01*
X008984Y004887D01*
X008784Y004687D01*
X008084Y004687D01*
X008684Y003987D02*
X009184Y004487D01*
X010234Y004487D01*
X011545Y005798D01*
X011545Y008264D01*
X011742Y008264D02*
X011742Y005445D01*
X011734Y005437D01*
X011939Y005883D02*
X012384Y005437D01*
X012534Y005737D02*
X012734Y005737D01*
X013034Y005437D01*
X013184Y005937D02*
X012734Y005937D01*
X012333Y006339D01*
X012333Y008264D01*
X012530Y008264D02*
X012530Y006542D01*
X012934Y006137D01*
X013634Y006137D01*
X014334Y005437D01*
X013684Y005437D02*
X013184Y005937D01*
X012534Y005737D02*
X012136Y006136D01*
X012136Y008264D01*
X011939Y008264D02*
X011939Y005883D01*
X011734Y004837D02*
X011734Y004637D01*
X011084Y003987D01*
X012084Y003987D02*
X012384Y004287D01*
X012384Y004837D01*
X013034Y004837D02*
X013034Y004237D01*
X013284Y003987D01*
X013684Y004587D02*
X014284Y003987D01*
X013684Y004587D02*
X013684Y004837D01*
X015484Y004587D02*
X015484Y004387D01*
X016434Y004387D01*
X016434Y004587D01*
X015484Y004587D01*
X015484Y004532D02*
X016434Y004532D01*
X016434Y004433D02*
X015484Y004433D01*
X013934Y006837D02*
X012923Y007848D01*
X012923Y008264D01*
X012726Y008264D02*
X012726Y007645D01*
X013534Y006837D01*
X015184Y008587D02*
X015834Y008587D01*
X015934Y008487D01*
X016534Y009087D02*
X017284Y009087D01*
X014434Y010137D02*
X014339Y010233D01*
X013908Y010233D01*
X013908Y010036D02*
X013486Y010036D01*
X013284Y010237D01*
X013286Y009839D02*
X013284Y009837D01*
X013286Y009839D02*
X013908Y009839D01*
X013184Y011137D02*
X012984Y011137D01*
X012884Y011037D01*
X013184Y011137D02*
X013317Y011270D01*
X013317Y011611D01*
X012530Y011611D02*
X012530Y011083D01*
X012484Y011037D01*
X012333Y011286D02*
X012084Y011037D01*
X012333Y011286D02*
X012333Y011611D01*
X012136Y011611D02*
X012136Y012289D01*
X012334Y012487D01*
X011939Y012283D02*
X011734Y012487D01*
X011939Y012283D02*
X011939Y011611D01*
X011152Y011611D02*
X011152Y011587D01*
X010561Y009445D02*
X010242Y009445D01*
X010134Y009337D01*
X010134Y007887D01*
X009634Y007887D02*
X010834Y007887D01*
X010834Y007137D01*
X009934Y007137D01*
X009934Y006737D01*
X009634Y006737D01*
X009634Y007887D01*
X009634Y007881D02*
X010834Y007881D01*
X010834Y007782D02*
X009634Y007782D01*
X009634Y007684D02*
X010834Y007684D01*
X010834Y007585D02*
X009634Y007585D01*
X009634Y007487D02*
X010834Y007487D01*
X010834Y007388D02*
X009634Y007388D01*
X009634Y007290D02*
X010834Y007290D01*
X010834Y007191D02*
X009634Y007191D01*
X009634Y007093D02*
X009934Y007093D01*
X009934Y006994D02*
X009634Y006994D01*
X009634Y006896D02*
X009934Y006896D01*
X009934Y006797D02*
X009634Y006797D01*
X010434Y008537D02*
X010434Y008855D01*
X010561Y008855D01*
X010561Y009052D02*
X011348Y009052D01*
X011434Y009137D01*
X007334Y011587D02*
X007334Y012087D01*
X006139Y011087D02*
X006134Y011087D01*
X006139Y011087D01*
X006484Y005937D02*
X006399Y005852D01*
X005647Y005852D01*
X005647Y005537D02*
X006384Y005537D01*
X006484Y005437D01*
X005730Y016253D02*
X005239Y016253D01*
X005284Y016352D02*
X005684Y016352D01*
X005674Y016450D02*
X005294Y016450D01*
X005274Y016549D02*
X005695Y016549D01*
X005674Y016647D02*
X005213Y016647D01*
X005050Y016746D02*
X005634Y016746D01*
X005634Y016844D02*
X004834Y016844D01*
X004834Y016746D02*
X004919Y016746D01*
X004834Y016943D02*
X005634Y016943D01*
X005634Y017041D02*
X004834Y017041D01*
X004834Y017140D02*
X005634Y017140D01*
X005634Y017238D02*
X004834Y017238D01*
X004834Y017337D02*
X005634Y017337D01*
X005634Y017435D02*
X004834Y017435D01*
X004834Y017534D02*
X005634Y017534D01*
X005634Y017632D02*
X004834Y017632D01*
X004834Y017731D02*
X005634Y017731D01*
X005887Y016746D02*
X005919Y016746D01*
X008687Y016746D02*
X008719Y016746D01*
X011434Y018814D02*
X014034Y018814D01*
X014034Y018913D02*
X011434Y018913D01*
X011434Y019011D02*
X014034Y019011D01*
X014034Y019110D02*
X011434Y019110D01*
X011434Y019208D02*
X014034Y019208D01*
X014304Y016746D02*
X014319Y016746D01*
D46*
X013834Y017087D02*
X013834Y018237D01*
X015634Y018237D01*
X016634Y019237D01*
X017634Y019237D02*
X017634Y018687D01*
X016634Y017687D01*
X016634Y017237D01*
X019034Y017037D02*
X019034Y018837D01*
X018634Y019237D01*
X010634Y017487D02*
X010634Y016987D01*
X010634Y017487D02*
X008884Y019237D01*
X008734Y019237D01*
X007834Y019137D02*
X007834Y017037D01*
X007834Y019137D02*
X007734Y019237D01*
X006734Y019237D02*
X005434Y017937D01*
X005434Y017037D01*
X018684Y011637D02*
X018684Y009837D01*
X019184Y009337D01*
X019184Y008887D01*
X019394Y008678D01*
X019394Y008687D01*
X019384Y004437D02*
X019384Y004207D01*
X019404Y004187D01*
X019384Y003937D02*
X018434Y002987D01*
X014284Y002987D01*
X013284Y002987D01*
X012084Y002987D01*
X011084Y002987D01*
X009884Y002987D01*
D47*
X018245Y005540D02*
X018682Y005540D01*
X019134Y005087D01*
X019134Y004457D01*
X019404Y004187D01*
X018247Y005537D02*
X018245Y005540D01*
X018245Y007335D02*
X018247Y007337D01*
X018684Y007337D01*
X019134Y007787D01*
X019134Y008428D01*
X019394Y008687D01*
D48*
X018245Y007335D02*
X018184Y007275D01*
X018184Y006787D01*
X018247Y005537D02*
X018234Y005525D01*
X018234Y004987D01*
D49*
X017634Y003837D02*
X016989Y003837D01*
X016984Y003837D01*
X016358Y004511D02*
X016334Y004487D01*
X015684Y004487D02*
X015610Y004561D01*
X015434Y008087D02*
X015184Y008087D01*
X009784Y006861D02*
X009784Y006857D01*
X008134Y006737D02*
X008034Y006737D01*
X008134Y006137D02*
X008158Y006113D01*
X007084Y006437D02*
X007084Y006937D01*
X007084Y007287D01*
X006654Y007717D01*
X006384Y007717D01*
X006384Y008457D02*
X004254Y010587D01*
X003584Y010587D01*
X006334Y006387D02*
X006434Y006387D01*
X006484Y006437D01*
X006334Y006387D02*
X006114Y006167D01*
X005647Y006167D01*
X006684Y002987D02*
X007684Y002987D01*
X008684Y002987D01*
D50*
X009784Y005487D02*
X009784Y006113D01*
X008684Y006113D02*
X008158Y006113D01*
X008034Y006737D02*
X007534Y007237D01*
X007534Y007837D01*
X007284Y008087D01*
X008158Y006861D02*
X008034Y006737D01*
X008158Y006861D02*
X008684Y006861D01*
X013934Y008337D02*
X014284Y008337D01*
X014534Y008087D01*
X015184Y008087D01*
X015184Y008587D01*
X015434Y008087D02*
X015534Y007987D01*
X015534Y007487D01*
X015534Y006786D01*
X015583Y006737D01*
X015610Y006710D01*
X015610Y006087D01*
X016358Y006087D02*
X016408Y006037D01*
X016984Y006037D01*
X016358Y004987D02*
X016358Y004511D01*
X016334Y004487D02*
X016934Y004487D01*
X016984Y004537D01*
X015610Y004561D02*
X015610Y004987D01*
M02*
