G75*
%MOIN*%
%OFA0B0*%
%FSLAX24Y24*%
%IPPOS*%
%LPD*%
%AMOC8*
5,1,8,0,0,1.08239X$1,22.5*
%
%ADD10C,0.0000*%
%ADD11C,0.0060*%
%ADD12C,0.0100*%
%ADD13C,0.0080*%
%ADD14C,0.0160*%
%ADD15C,0.0283*%
%ADD16C,0.0180*%
%ADD17R,0.6972X0.0007*%
%ADD18R,0.6986X0.0007*%
%ADD19R,0.7000X0.0007*%
%ADD20R,0.7000X0.0007*%
%ADD21R,0.5061X0.0007*%
%ADD22R,0.1841X0.0007*%
%ADD23R,0.3318X0.0007*%
%ADD24R,0.0259X0.0007*%
%ADD25R,0.1148X0.0007*%
%ADD26R,0.0091X0.0007*%
%ADD27R,0.0203X0.0007*%
%ADD28R,0.1344X0.0007*%
%ADD29R,0.0231X0.0007*%
%ADD30R,0.1127X0.0007*%
%ADD31R,0.0077X0.0007*%
%ADD32R,0.0196X0.0007*%
%ADD33R,0.1351X0.0007*%
%ADD34R,0.3318X0.0007*%
%ADD35R,0.0217X0.0007*%
%ADD36R,0.1120X0.0007*%
%ADD37R,0.0070X0.0007*%
%ADD38R,0.0189X0.0007*%
%ADD39R,0.1351X0.0007*%
%ADD40R,0.1106X0.0007*%
%ADD41R,0.0063X0.0007*%
%ADD42R,0.0189X0.0007*%
%ADD43R,0.0196X0.0007*%
%ADD44R,0.1099X0.0007*%
%ADD45R,0.0056X0.0007*%
%ADD46R,0.0182X0.0007*%
%ADD47R,0.1358X0.0007*%
%ADD48R,0.0189X0.0007*%
%ADD49R,0.1092X0.0007*%
%ADD50R,0.0049X0.0007*%
%ADD51R,0.0175X0.0007*%
%ADD52R,0.1358X0.0007*%
%ADD53R,0.1134X0.0007*%
%ADD54R,0.2016X0.0007*%
%ADD55R,0.0182X0.0007*%
%ADD56R,0.1085X0.0007*%
%ADD57R,0.1071X0.0007*%
%ADD58R,0.1953X0.0007*%
%ADD59R,0.0175X0.0007*%
%ADD60R,0.1078X0.0007*%
%ADD61R,0.0049X0.0007*%
%ADD62R,0.0168X0.0007*%
%ADD63R,0.1365X0.0007*%
%ADD64R,0.1029X0.0007*%
%ADD65R,0.1911X0.0007*%
%ADD66R,0.1078X0.0007*%
%ADD67R,0.0035X0.0007*%
%ADD68R,0.0042X0.0007*%
%ADD69R,0.0161X0.0007*%
%ADD70R,0.1365X0.0007*%
%ADD71R,0.0994X0.0007*%
%ADD72R,0.1876X0.0007*%
%ADD73R,0.0091X0.0007*%
%ADD74R,0.0042X0.0007*%
%ADD75R,0.0154X0.0007*%
%ADD76R,0.1372X0.0007*%
%ADD77R,0.0966X0.0007*%
%ADD78R,0.1848X0.0007*%
%ADD79R,0.0126X0.0007*%
%ADD80R,0.0168X0.0007*%
%ADD81R,0.1071X0.0007*%
%ADD82R,0.0112X0.0007*%
%ADD83R,0.0042X0.0007*%
%ADD84R,0.0154X0.0007*%
%ADD85R,0.1372X0.0007*%
%ADD86R,0.0938X0.0007*%
%ADD87R,0.1820X0.0007*%
%ADD88R,0.0140X0.0007*%
%ADD89R,0.1064X0.0007*%
%ADD90R,0.0147X0.0007*%
%ADD91R,0.0917X0.0007*%
%ADD92R,0.1799X0.0007*%
%ADD93R,0.0147X0.0007*%
%ADD94R,0.0161X0.0007*%
%ADD95R,0.1064X0.0007*%
%ADD96R,0.0140X0.0007*%
%ADD97R,0.0049X0.0007*%
%ADD98R,0.1379X0.0007*%
%ADD99R,0.0896X0.0007*%
%ADD100R,0.1778X0.0007*%
%ADD101R,0.0147X0.0007*%
%ADD102R,0.0049X0.0007*%
%ADD103R,0.1379X0.0007*%
%ADD104R,0.0875X0.0007*%
%ADD105R,0.1757X0.0007*%
%ADD106R,0.1057X0.0007*%
%ADD107R,0.0854X0.0007*%
%ADD108R,0.1736X0.0007*%
%ADD109R,0.1057X0.0007*%
%ADD110R,0.1386X0.0007*%
%ADD111R,0.0833X0.0007*%
%ADD112R,0.1715X0.0007*%
%ADD113R,0.0819X0.0007*%
%ADD114R,0.1701X0.0007*%
%ADD115R,0.1393X0.0007*%
%ADD116R,0.0805X0.0007*%
%ADD117R,0.1687X0.0007*%
%ADD118R,0.0056X0.0007*%
%ADD119R,0.1393X0.0007*%
%ADD120R,0.0784X0.0007*%
%ADD121R,0.1666X0.0007*%
%ADD122R,0.1281X0.0007*%
%ADD123R,0.0063X0.0007*%
%ADD124R,0.0770X0.0007*%
%ADD125R,0.1652X0.0007*%
%ADD126R,0.1274X0.0007*%
%ADD127R,0.0070X0.0007*%
%ADD128R,0.1400X0.0007*%
%ADD129R,0.0756X0.0007*%
%ADD130R,0.1638X0.0007*%
%ADD131R,0.1253X0.0007*%
%ADD132R,0.0742X0.0007*%
%ADD133R,0.1624X0.0007*%
%ADD134R,0.1225X0.0007*%
%ADD135R,0.0098X0.0007*%
%ADD136R,0.1400X0.0007*%
%ADD137R,0.0728X0.0007*%
%ADD138R,0.1610X0.0007*%
%ADD139R,0.0133X0.0007*%
%ADD140R,0.1197X0.0007*%
%ADD141R,0.0084X0.0007*%
%ADD142R,0.1407X0.0007*%
%ADD143R,0.0721X0.0007*%
%ADD144R,0.1603X0.0007*%
%ADD145R,0.0112X0.0007*%
%ADD146R,0.1169X0.0007*%
%ADD147R,0.0084X0.0007*%
%ADD148R,0.1407X0.0007*%
%ADD149R,0.0707X0.0007*%
%ADD150R,0.1589X0.0007*%
%ADD151R,0.1141X0.0007*%
%ADD152R,0.1414X0.0007*%
%ADD153R,0.0693X0.0007*%
%ADD154R,0.1575X0.0007*%
%ADD155R,0.1120X0.0007*%
%ADD156R,0.0105X0.0007*%
%ADD157R,0.0679X0.0007*%
%ADD158R,0.1561X0.0007*%
%ADD159R,0.0112X0.0007*%
%ADD160R,0.1414X0.0007*%
%ADD161R,0.0672X0.0007*%
%ADD162R,0.1554X0.0007*%
%ADD163R,0.1421X0.0007*%
%ADD164R,0.0658X0.0007*%
%ADD165R,0.1540X0.0007*%
%ADD166R,0.1421X0.0007*%
%ADD167R,0.0651X0.0007*%
%ADD168R,0.1533X0.0007*%
%ADD169R,0.0182X0.0007*%
%ADD170R,0.0637X0.0007*%
%ADD171R,0.1519X0.0007*%
%ADD172R,0.1050X0.0007*%
%ADD173R,0.1428X0.0007*%
%ADD174R,0.0630X0.0007*%
%ADD175R,0.1512X0.0007*%
%ADD176R,0.1036X0.0007*%
%ADD177R,0.0203X0.0007*%
%ADD178R,0.0042X0.0007*%
%ADD179R,0.1428X0.0007*%
%ADD180R,0.0616X0.0007*%
%ADD181R,0.1498X0.0007*%
%ADD182R,0.1029X0.0007*%
%ADD183R,0.1435X0.0007*%
%ADD184R,0.0609X0.0007*%
%ADD185R,0.1491X0.0007*%
%ADD186R,0.0119X0.0007*%
%ADD187R,0.0133X0.0007*%
%ADD188R,0.1022X0.0007*%
%ADD189R,0.0259X0.0007*%
%ADD190R,0.0035X0.0007*%
%ADD191R,0.1435X0.0007*%
%ADD192R,0.0602X0.0007*%
%ADD193R,0.1484X0.0007*%
%ADD194R,0.0014X0.0007*%
%ADD195R,0.1022X0.0007*%
%ADD196R,0.0287X0.0007*%
%ADD197R,0.0028X0.0007*%
%ADD198R,0.0588X0.0007*%
%ADD199R,0.0308X0.0007*%
%ADD200R,0.1470X0.0007*%
%ADD201R,0.0119X0.0007*%
%ADD202R,0.1008X0.0007*%
%ADD203R,0.0315X0.0007*%
%ADD204R,0.1442X0.0007*%
%ADD205R,0.0581X0.0007*%
%ADD206R,0.0378X0.0007*%
%ADD207R,0.1463X0.0007*%
%ADD208R,0.0028X0.0007*%
%ADD209R,0.1001X0.0007*%
%ADD210R,0.0329X0.0007*%
%ADD211R,0.0021X0.0007*%
%ADD212R,0.1442X0.0007*%
%ADD213R,0.0574X0.0007*%
%ADD214R,0.0448X0.0007*%
%ADD215R,0.1456X0.0007*%
%ADD216R,0.1001X0.0007*%
%ADD217R,0.0336X0.0007*%
%ADD218R,0.0567X0.0007*%
%ADD219R,0.0497X0.0007*%
%ADD220R,0.1449X0.0007*%
%ADD221R,0.0105X0.0007*%
%ADD222R,0.0126X0.0007*%
%ADD223R,0.0014X0.0007*%
%ADD224R,0.1449X0.0007*%
%ADD225R,0.0553X0.0007*%
%ADD226R,0.0546X0.0007*%
%ADD227R,0.0994X0.0007*%
%ADD228R,0.0007X0.0007*%
%ADD229R,0.1449X0.0007*%
%ADD230R,0.0987X0.0007*%
%ADD231R,0.0539X0.0007*%
%ADD232R,0.0980X0.0007*%
%ADD233R,0.1456X0.0007*%
%ADD234R,0.0532X0.0007*%
%ADD235R,0.0665X0.0007*%
%ADD236R,0.1414X0.0007*%
%ADD237R,0.0980X0.0007*%
%ADD238R,0.0525X0.0007*%
%ADD239R,0.0700X0.0007*%
%ADD240R,0.1407X0.0007*%
%ADD241R,0.0084X0.0007*%
%ADD242R,0.0973X0.0007*%
%ADD243R,0.0147X0.0007*%
%ADD244R,0.0518X0.0007*%
%ADD245R,0.0098X0.0007*%
%ADD246R,0.1463X0.0007*%
%ADD247R,0.0511X0.0007*%
%ADD248R,0.0763X0.0007*%
%ADD249R,0.0973X0.0007*%
%ADD250R,0.0504X0.0007*%
%ADD251R,0.0791X0.0007*%
%ADD252R,0.1386X0.0007*%
%ADD253R,0.1470X0.0007*%
%ADD254R,0.0497X0.0007*%
%ADD255R,0.0819X0.0007*%
%ADD256R,0.1379X0.0007*%
%ADD257R,0.0077X0.0007*%
%ADD258R,0.0490X0.0007*%
%ADD259R,0.0847X0.0007*%
%ADD260R,0.1372X0.0007*%
%ADD261R,0.0483X0.0007*%
%ADD262R,0.0868X0.0007*%
%ADD263R,0.1477X0.0007*%
%ADD264R,0.0476X0.0007*%
%ADD265R,0.0469X0.0007*%
%ADD266R,0.0917X0.0007*%
%ADD267R,0.0077X0.0007*%
%ADD268R,0.0210X0.0007*%
%ADD269R,0.1484X0.0007*%
%ADD270R,0.0462X0.0007*%
%ADD271R,0.0945X0.0007*%
%ADD272R,0.1344X0.0007*%
%ADD273R,0.0217X0.0007*%
%ADD274R,0.1484X0.0007*%
%ADD275R,0.0455X0.0007*%
%ADD276R,0.0959X0.0007*%
%ADD277R,0.1337X0.0007*%
%ADD278R,0.0231X0.0007*%
%ADD279R,0.0987X0.0007*%
%ADD280R,0.1330X0.0007*%
%ADD281R,0.1015X0.0007*%
%ADD282R,0.0252X0.0007*%
%ADD283R,0.1491X0.0007*%
%ADD284R,0.0441X0.0007*%
%ADD285R,0.3073X0.0007*%
%ADD286R,0.1862X0.0007*%
%ADD287R,0.0434X0.0007*%
%ADD288R,0.1029X0.0007*%
%ADD289R,0.4998X0.0007*%
%ADD290R,0.0427X0.0007*%
%ADD291R,0.1043X0.0007*%
%ADD292R,0.4991X0.0007*%
%ADD293R,0.0420X0.0007*%
%ADD294R,0.0441X0.0007*%
%ADD295R,0.4984X0.0007*%
%ADD296R,0.0420X0.0007*%
%ADD297R,0.0399X0.0007*%
%ADD298R,0.0406X0.0007*%
%ADD299R,0.4984X0.0007*%
%ADD300R,0.0413X0.0007*%
%ADD301R,0.0371X0.0007*%
%ADD302R,0.0378X0.0007*%
%ADD303R,0.4977X0.0007*%
%ADD304R,0.0406X0.0007*%
%ADD305R,0.0357X0.0007*%
%ADD306R,0.0357X0.0007*%
%ADD307R,0.4970X0.0007*%
%ADD308R,0.0399X0.0007*%
%ADD309R,0.0343X0.0007*%
%ADD310R,0.0350X0.0007*%
%ADD311R,0.4963X0.0007*%
%ADD312R,0.0399X0.0007*%
%ADD313R,0.0329X0.0007*%
%ADD314R,0.0336X0.0007*%
%ADD315R,0.4963X0.0007*%
%ADD316R,0.0392X0.0007*%
%ADD317R,0.0322X0.0007*%
%ADD318R,0.4956X0.0007*%
%ADD319R,0.0385X0.0007*%
%ADD320R,0.4949X0.0007*%
%ADD321R,0.0301X0.0007*%
%ADD322R,0.4942X0.0007*%
%ADD323R,0.0294X0.0007*%
%ADD324R,0.0301X0.0007*%
%ADD325R,0.4942X0.0007*%
%ADD326R,0.0371X0.0007*%
%ADD327R,0.0287X0.0007*%
%ADD328R,0.0294X0.0007*%
%ADD329R,0.4935X0.0007*%
%ADD330R,0.0364X0.0007*%
%ADD331R,0.0287X0.0007*%
%ADD332R,0.4928X0.0007*%
%ADD333R,0.0280X0.0007*%
%ADD334R,0.0273X0.0007*%
%ADD335R,0.4921X0.0007*%
%ADD336R,0.0266X0.0007*%
%ADD337R,0.0273X0.0007*%
%ADD338R,0.4914X0.0007*%
%ADD339R,0.0350X0.0007*%
%ADD340R,0.0266X0.0007*%
%ADD341R,0.4914X0.0007*%
%ADD342R,0.0259X0.0007*%
%ADD343R,0.4907X0.0007*%
%ADD344R,0.4900X0.0007*%
%ADD345R,0.0252X0.0007*%
%ADD346R,0.4900X0.0007*%
%ADD347R,0.0329X0.0007*%
%ADD348R,0.0252X0.0007*%
%ADD349R,0.4893X0.0007*%
%ADD350R,0.0322X0.0007*%
%ADD351R,0.0238X0.0007*%
%ADD352R,0.4886X0.0007*%
%ADD353R,0.0238X0.0007*%
%ADD354R,0.4886X0.0007*%
%ADD355R,0.4879X0.0007*%
%ADD356R,0.0315X0.0007*%
%ADD357R,0.4879X0.0007*%
%ADD358R,0.0224X0.0007*%
%ADD359R,0.0224X0.0007*%
%ADD360R,0.0224X0.0007*%
%ADD361R,0.0224X0.0007*%
%ADD362R,0.0217X0.0007*%
%ADD363R,0.0217X0.0007*%
%ADD364R,0.0210X0.0007*%
%ADD365R,0.0189X0.0007*%
%ADD366R,0.0364X0.0007*%
%ADD367R,0.0357X0.0007*%
%ADD368R,0.0448X0.0007*%
%ADD369R,0.0490X0.0007*%
%ADD370R,0.0518X0.0007*%
%ADD371R,0.0581X0.0007*%
%ADD372R,0.0616X0.0007*%
%ADD373R,0.0644X0.0007*%
%ADD374R,0.0637X0.0007*%
%ADD375R,0.0182X0.0007*%
%ADD376R,0.0665X0.0007*%
%ADD377R,0.0686X0.0007*%
%ADD378R,0.0714X0.0007*%
%ADD379R,0.0707X0.0007*%
%ADD380R,0.0728X0.0007*%
%ADD381R,0.0770X0.0007*%
%ADD382R,0.0329X0.0007*%
%ADD383R,0.0294X0.0007*%
%ADD384R,0.0245X0.0007*%
%ADD385R,0.0364X0.0007*%
%ADD386R,0.0392X0.0007*%
%ADD387R,0.0427X0.0007*%
%ADD388R,0.0077X0.0007*%
%ADD389R,0.0154X0.0007*%
%ADD390R,0.0252X0.0007*%
%ADD391R,0.0343X0.0007*%
%ADD392R,0.0385X0.0007*%
%ADD393R,0.0462X0.0007*%
%ADD394R,0.0245X0.0007*%
%ADD395R,0.0119X0.0007*%
%ADD396R,0.0462X0.0007*%
%ADD397R,0.0434X0.0007*%
%ADD398R,0.0427X0.0007*%
%ADD399R,0.0119X0.0007*%
%ADD400R,0.0364X0.0007*%
%ADD401R,0.0322X0.0007*%
%ADD402R,0.0007X0.0007*%
%ADD403R,0.0021X0.0007*%
%ADD404R,0.0357X0.0007*%
%ADD405R,0.0294X0.0007*%
%ADD406R,0.0504X0.0007*%
%ADD407R,0.0497X0.0007*%
%ADD408R,0.0084X0.0007*%
%ADD409R,0.0154X0.0007*%
%ADD410R,0.0287X0.0007*%
%ADD411R,0.1057X0.0007*%
%ADD412R,0.0952X0.0007*%
%ADD413R,0.0931X0.0007*%
%ADD414R,0.0903X0.0007*%
%ADD415R,0.0882X0.0007*%
%ADD416R,0.0854X0.0007*%
%ADD417R,0.0826X0.0007*%
%ADD418R,0.0322X0.0007*%
%ADD419R,0.0798X0.0007*%
%ADD420R,0.0777X0.0007*%
%ADD421R,0.0777X0.0007*%
%ADD422R,0.0742X0.0007*%
%ADD423R,0.0742X0.0007*%
%ADD424R,0.0735X0.0007*%
%ADD425R,0.0707X0.0007*%
%ADD426R,0.0714X0.0007*%
%ADD427R,0.0714X0.0007*%
%ADD428R,0.0672X0.0007*%
%ADD429R,0.0637X0.0007*%
%ADD430R,0.0672X0.0007*%
%ADD431R,0.0595X0.0007*%
%ADD432R,0.0644X0.0007*%
%ADD433R,0.0588X0.0007*%
%ADD434R,0.0560X0.0007*%
%ADD435R,0.0532X0.0007*%
%ADD436R,0.0455X0.0007*%
%ADD437R,0.0413X0.0007*%
%ADD438R,0.0308X0.0007*%
%ADD439R,0.6958X0.0007*%
%ADD440R,0.6944X0.0007*%
%ADD441R,0.6930X0.0007*%
%ADD442R,0.6930X0.0007*%
%ADD443R,0.6902X0.0007*%
%ADD444R,0.6888X0.0007*%
%ADD445R,0.6874X0.0007*%
%ADD446R,0.6846X0.0007*%
%ADD447R,0.6804X0.0007*%
%ADD448R,0.0300X0.0300*%
%ADD449C,0.0320*%
D10*
X002834Y001872D02*
X002834Y019588D01*
X003189Y019588D02*
X003191Y019638D01*
X003197Y019688D01*
X003207Y019737D01*
X003221Y019785D01*
X003238Y019832D01*
X003259Y019877D01*
X003284Y019921D01*
X003312Y019962D01*
X003344Y020001D01*
X003378Y020038D01*
X003415Y020072D01*
X003455Y020102D01*
X003497Y020129D01*
X003541Y020153D01*
X003587Y020174D01*
X003634Y020190D01*
X003682Y020203D01*
X003732Y020212D01*
X003781Y020217D01*
X003832Y020218D01*
X003882Y020215D01*
X003931Y020208D01*
X003980Y020197D01*
X004028Y020182D01*
X004074Y020164D01*
X004119Y020142D01*
X004162Y020116D01*
X004203Y020087D01*
X004242Y020055D01*
X004278Y020020D01*
X004310Y019982D01*
X004340Y019942D01*
X004367Y019899D01*
X004390Y019855D01*
X004409Y019809D01*
X004425Y019761D01*
X004437Y019712D01*
X004445Y019663D01*
X004449Y019613D01*
X004449Y019563D01*
X004445Y019513D01*
X004437Y019464D01*
X004425Y019415D01*
X004409Y019367D01*
X004390Y019321D01*
X004367Y019277D01*
X004340Y019234D01*
X004310Y019194D01*
X004278Y019156D01*
X004242Y019121D01*
X004203Y019089D01*
X004162Y019060D01*
X004119Y019034D01*
X004074Y019012D01*
X004028Y018994D01*
X003980Y018979D01*
X003931Y018968D01*
X003882Y018961D01*
X003832Y018958D01*
X003781Y018959D01*
X003732Y018964D01*
X003682Y018973D01*
X003634Y018986D01*
X003587Y019002D01*
X003541Y019023D01*
X003497Y019047D01*
X003455Y019074D01*
X003415Y019104D01*
X003378Y019138D01*
X003344Y019175D01*
X003312Y019214D01*
X003284Y019255D01*
X003259Y019299D01*
X003238Y019344D01*
X003221Y019391D01*
X003207Y019439D01*
X003197Y019488D01*
X003191Y019538D01*
X003189Y019588D01*
X002835Y019588D02*
X002837Y019650D01*
X002843Y019711D01*
X002852Y019772D01*
X002866Y019833D01*
X002883Y019892D01*
X002904Y019950D01*
X002929Y020007D01*
X002957Y020062D01*
X002988Y020115D01*
X003023Y020166D01*
X003061Y020215D01*
X003102Y020262D01*
X003145Y020305D01*
X003192Y020346D01*
X003241Y020384D01*
X003292Y020419D01*
X003345Y020450D01*
X003400Y020478D01*
X003457Y020503D01*
X003515Y020524D01*
X003574Y020541D01*
X003635Y020555D01*
X003696Y020564D01*
X003757Y020570D01*
X003819Y020572D01*
X021535Y020572D01*
X020905Y019588D02*
X020907Y019638D01*
X020913Y019688D01*
X020923Y019737D01*
X020937Y019785D01*
X020954Y019832D01*
X020975Y019877D01*
X021000Y019921D01*
X021028Y019962D01*
X021060Y020001D01*
X021094Y020038D01*
X021131Y020072D01*
X021171Y020102D01*
X021213Y020129D01*
X021257Y020153D01*
X021303Y020174D01*
X021350Y020190D01*
X021398Y020203D01*
X021448Y020212D01*
X021497Y020217D01*
X021548Y020218D01*
X021598Y020215D01*
X021647Y020208D01*
X021696Y020197D01*
X021744Y020182D01*
X021790Y020164D01*
X021835Y020142D01*
X021878Y020116D01*
X021919Y020087D01*
X021958Y020055D01*
X021994Y020020D01*
X022026Y019982D01*
X022056Y019942D01*
X022083Y019899D01*
X022106Y019855D01*
X022125Y019809D01*
X022141Y019761D01*
X022153Y019712D01*
X022161Y019663D01*
X022165Y019613D01*
X022165Y019563D01*
X022161Y019513D01*
X022153Y019464D01*
X022141Y019415D01*
X022125Y019367D01*
X022106Y019321D01*
X022083Y019277D01*
X022056Y019234D01*
X022026Y019194D01*
X021994Y019156D01*
X021958Y019121D01*
X021919Y019089D01*
X021878Y019060D01*
X021835Y019034D01*
X021790Y019012D01*
X021744Y018994D01*
X021696Y018979D01*
X021647Y018968D01*
X021598Y018961D01*
X021548Y018958D01*
X021497Y018959D01*
X021448Y018964D01*
X021398Y018973D01*
X021350Y018986D01*
X021303Y019002D01*
X021257Y019023D01*
X021213Y019047D01*
X021171Y019074D01*
X021131Y019104D01*
X021094Y019138D01*
X021060Y019175D01*
X021028Y019214D01*
X021000Y019255D01*
X020975Y019299D01*
X020954Y019344D01*
X020937Y019391D01*
X020923Y019439D01*
X020913Y019488D01*
X020907Y019538D01*
X020905Y019588D01*
X021535Y020572D02*
X021597Y020570D01*
X021658Y020564D01*
X021719Y020555D01*
X021780Y020541D01*
X021839Y020524D01*
X021897Y020503D01*
X021954Y020478D01*
X022009Y020450D01*
X022062Y020419D01*
X022113Y020384D01*
X022162Y020346D01*
X022209Y020305D01*
X022252Y020262D01*
X022293Y020215D01*
X022331Y020166D01*
X022366Y020115D01*
X022397Y020062D01*
X022425Y020007D01*
X022450Y019950D01*
X022471Y019892D01*
X022488Y019833D01*
X022502Y019772D01*
X022511Y019711D01*
X022517Y019650D01*
X022519Y019588D01*
X022519Y001872D01*
X020905Y001872D02*
X020907Y001922D01*
X020913Y001972D01*
X020923Y002021D01*
X020937Y002069D01*
X020954Y002116D01*
X020975Y002161D01*
X021000Y002205D01*
X021028Y002246D01*
X021060Y002285D01*
X021094Y002322D01*
X021131Y002356D01*
X021171Y002386D01*
X021213Y002413D01*
X021257Y002437D01*
X021303Y002458D01*
X021350Y002474D01*
X021398Y002487D01*
X021448Y002496D01*
X021497Y002501D01*
X021548Y002502D01*
X021598Y002499D01*
X021647Y002492D01*
X021696Y002481D01*
X021744Y002466D01*
X021790Y002448D01*
X021835Y002426D01*
X021878Y002400D01*
X021919Y002371D01*
X021958Y002339D01*
X021994Y002304D01*
X022026Y002266D01*
X022056Y002226D01*
X022083Y002183D01*
X022106Y002139D01*
X022125Y002093D01*
X022141Y002045D01*
X022153Y001996D01*
X022161Y001947D01*
X022165Y001897D01*
X022165Y001847D01*
X022161Y001797D01*
X022153Y001748D01*
X022141Y001699D01*
X022125Y001651D01*
X022106Y001605D01*
X022083Y001561D01*
X022056Y001518D01*
X022026Y001478D01*
X021994Y001440D01*
X021958Y001405D01*
X021919Y001373D01*
X021878Y001344D01*
X021835Y001318D01*
X021790Y001296D01*
X021744Y001278D01*
X021696Y001263D01*
X021647Y001252D01*
X021598Y001245D01*
X021548Y001242D01*
X021497Y001243D01*
X021448Y001248D01*
X021398Y001257D01*
X021350Y001270D01*
X021303Y001286D01*
X021257Y001307D01*
X021213Y001331D01*
X021171Y001358D01*
X021131Y001388D01*
X021094Y001422D01*
X021060Y001459D01*
X021028Y001498D01*
X021000Y001539D01*
X020975Y001583D01*
X020954Y001628D01*
X020937Y001675D01*
X020923Y001723D01*
X020913Y001772D01*
X020907Y001822D01*
X020905Y001872D01*
X021535Y000888D02*
X021597Y000890D01*
X021658Y000896D01*
X021719Y000905D01*
X021780Y000919D01*
X021839Y000936D01*
X021897Y000957D01*
X021954Y000982D01*
X022009Y001010D01*
X022062Y001041D01*
X022113Y001076D01*
X022162Y001114D01*
X022209Y001155D01*
X022252Y001198D01*
X022293Y001245D01*
X022331Y001294D01*
X022366Y001345D01*
X022397Y001398D01*
X022425Y001453D01*
X022450Y001510D01*
X022471Y001568D01*
X022488Y001627D01*
X022502Y001688D01*
X022511Y001749D01*
X022517Y001810D01*
X022519Y001872D01*
X021535Y000887D02*
X003819Y000887D01*
X003189Y001872D02*
X003191Y001922D01*
X003197Y001972D01*
X003207Y002021D01*
X003221Y002069D01*
X003238Y002116D01*
X003259Y002161D01*
X003284Y002205D01*
X003312Y002246D01*
X003344Y002285D01*
X003378Y002322D01*
X003415Y002356D01*
X003455Y002386D01*
X003497Y002413D01*
X003541Y002437D01*
X003587Y002458D01*
X003634Y002474D01*
X003682Y002487D01*
X003732Y002496D01*
X003781Y002501D01*
X003832Y002502D01*
X003882Y002499D01*
X003931Y002492D01*
X003980Y002481D01*
X004028Y002466D01*
X004074Y002448D01*
X004119Y002426D01*
X004162Y002400D01*
X004203Y002371D01*
X004242Y002339D01*
X004278Y002304D01*
X004310Y002266D01*
X004340Y002226D01*
X004367Y002183D01*
X004390Y002139D01*
X004409Y002093D01*
X004425Y002045D01*
X004437Y001996D01*
X004445Y001947D01*
X004449Y001897D01*
X004449Y001847D01*
X004445Y001797D01*
X004437Y001748D01*
X004425Y001699D01*
X004409Y001651D01*
X004390Y001605D01*
X004367Y001561D01*
X004340Y001518D01*
X004310Y001478D01*
X004278Y001440D01*
X004242Y001405D01*
X004203Y001373D01*
X004162Y001344D01*
X004119Y001318D01*
X004074Y001296D01*
X004028Y001278D01*
X003980Y001263D01*
X003931Y001252D01*
X003882Y001245D01*
X003832Y001242D01*
X003781Y001243D01*
X003732Y001248D01*
X003682Y001257D01*
X003634Y001270D01*
X003587Y001286D01*
X003541Y001307D01*
X003497Y001331D01*
X003455Y001358D01*
X003415Y001388D01*
X003378Y001422D01*
X003344Y001459D01*
X003312Y001498D01*
X003284Y001539D01*
X003259Y001583D01*
X003238Y001628D01*
X003221Y001675D01*
X003207Y001723D01*
X003197Y001772D01*
X003191Y001822D01*
X003189Y001872D01*
X002835Y001872D02*
X002837Y001810D01*
X002843Y001749D01*
X002852Y001688D01*
X002866Y001627D01*
X002883Y001568D01*
X002904Y001510D01*
X002929Y001453D01*
X002957Y001398D01*
X002988Y001345D01*
X003023Y001294D01*
X003061Y001245D01*
X003102Y001198D01*
X003145Y001155D01*
X003192Y001114D01*
X003241Y001076D01*
X003292Y001041D01*
X003345Y001010D01*
X003400Y000982D01*
X003457Y000957D01*
X003515Y000936D01*
X003574Y000919D01*
X003635Y000905D01*
X003696Y000896D01*
X003757Y000890D01*
X003819Y000888D01*
X004427Y004671D02*
X004429Y004696D01*
X004435Y004720D01*
X004444Y004742D01*
X004457Y004763D01*
X004473Y004782D01*
X004492Y004798D01*
X004513Y004811D01*
X004535Y004820D01*
X004559Y004826D01*
X004584Y004828D01*
X004609Y004826D01*
X004633Y004820D01*
X004655Y004811D01*
X004676Y004798D01*
X004695Y004782D01*
X004711Y004763D01*
X004724Y004742D01*
X004733Y004720D01*
X004739Y004696D01*
X004741Y004671D01*
X004739Y004646D01*
X004733Y004622D01*
X004724Y004600D01*
X004711Y004579D01*
X004695Y004560D01*
X004676Y004544D01*
X004655Y004531D01*
X004633Y004522D01*
X004609Y004516D01*
X004584Y004514D01*
X004559Y004516D01*
X004535Y004522D01*
X004513Y004531D01*
X004492Y004544D01*
X004473Y004560D01*
X004457Y004579D01*
X004444Y004600D01*
X004435Y004622D01*
X004429Y004646D01*
X004427Y004671D01*
X004427Y006404D02*
X004429Y006429D01*
X004435Y006453D01*
X004444Y006475D01*
X004457Y006496D01*
X004473Y006515D01*
X004492Y006531D01*
X004513Y006544D01*
X004535Y006553D01*
X004559Y006559D01*
X004584Y006561D01*
X004609Y006559D01*
X004633Y006553D01*
X004655Y006544D01*
X004676Y006531D01*
X004695Y006515D01*
X004711Y006496D01*
X004724Y006475D01*
X004733Y006453D01*
X004739Y006429D01*
X004741Y006404D01*
X004739Y006379D01*
X004733Y006355D01*
X004724Y006333D01*
X004711Y006312D01*
X004695Y006293D01*
X004676Y006277D01*
X004655Y006264D01*
X004633Y006255D01*
X004609Y006249D01*
X004584Y006247D01*
X004559Y006249D01*
X004535Y006255D01*
X004513Y006264D01*
X004492Y006277D01*
X004473Y006293D01*
X004457Y006312D01*
X004444Y006333D01*
X004435Y006355D01*
X004429Y006379D01*
X004427Y006404D01*
D11*
X005814Y004130D02*
X005814Y003957D01*
X005988Y004130D01*
X006031Y004130D01*
X006075Y004087D01*
X006075Y004000D01*
X006031Y003957D01*
X005944Y003836D02*
X005944Y003662D01*
X006075Y003792D01*
X005814Y003792D01*
X005858Y003541D02*
X005814Y003498D01*
X005814Y003411D01*
X005858Y003367D01*
X006031Y003367D01*
X006075Y003411D01*
X006075Y003498D01*
X006031Y003541D01*
X006184Y003217D02*
X005684Y003217D01*
X005684Y002157D01*
X006184Y002157D01*
X006184Y003217D01*
X009154Y003295D02*
X009198Y003251D01*
X009154Y003295D02*
X009154Y003381D01*
X009198Y003425D01*
X009241Y003425D01*
X009284Y003381D01*
X009284Y003338D01*
X009284Y003381D02*
X009328Y003425D01*
X009371Y003425D01*
X009415Y003381D01*
X009415Y003295D01*
X009371Y003251D01*
X009415Y003130D02*
X009241Y003130D01*
X009154Y003043D01*
X009241Y002957D01*
X009415Y002957D01*
X009371Y002836D02*
X009328Y002836D01*
X009284Y002792D01*
X009241Y002836D01*
X009198Y002836D01*
X009154Y002792D01*
X009154Y002705D01*
X009198Y002662D01*
X009284Y002749D02*
X009284Y002792D01*
X009371Y002836D02*
X009415Y002792D01*
X009415Y002705D01*
X009371Y002662D01*
X009284Y002541D02*
X009284Y002367D01*
X009198Y002454D02*
X009371Y002454D01*
X009744Y002346D02*
X009744Y002173D01*
X009788Y002173D01*
X009961Y002346D01*
X010005Y002346D01*
X010005Y002173D01*
X010005Y002052D02*
X009961Y002052D01*
X009788Y001878D01*
X009744Y001878D01*
X009744Y002052D01*
X010005Y002052D02*
X010005Y001878D01*
X010005Y001757D02*
X009788Y001757D01*
X009744Y001714D01*
X009744Y001627D01*
X009788Y001583D01*
X010005Y001583D01*
X009961Y001462D02*
X009918Y001462D01*
X009874Y001419D01*
X009874Y001289D01*
X009744Y001289D02*
X010005Y001289D01*
X010005Y001419D01*
X009961Y001462D01*
X009874Y001419D02*
X009831Y001462D01*
X009788Y001462D01*
X009744Y001419D01*
X009744Y001289D01*
X009371Y003617D02*
X009328Y003617D01*
X009284Y003661D01*
X009284Y003748D01*
X009241Y003791D01*
X009198Y003791D01*
X009154Y003748D01*
X009154Y003661D01*
X009198Y003617D01*
X009371Y003617D02*
X009415Y003661D01*
X009415Y003748D01*
X009371Y003791D01*
X009415Y003912D02*
X009415Y003999D01*
X009415Y003955D02*
X009154Y003955D01*
X009154Y003912D02*
X009154Y003999D01*
X009198Y004108D02*
X009154Y004152D01*
X009154Y004239D01*
X009198Y004282D01*
X009284Y004282D01*
X009284Y004195D01*
X009198Y004108D02*
X009371Y004108D01*
X009415Y004152D01*
X009415Y004239D01*
X009371Y004282D01*
X009407Y005261D02*
X009364Y005304D01*
X009364Y005478D01*
X009407Y005521D01*
X009537Y005521D01*
X009537Y005261D01*
X009407Y005261D01*
X009243Y005304D02*
X009199Y005261D01*
X009113Y005261D01*
X009069Y005304D01*
X009069Y005478D01*
X009113Y005521D01*
X009199Y005521D01*
X009243Y005478D01*
X009243Y005435D01*
X009199Y005391D01*
X009069Y005391D01*
X010674Y005877D02*
X011074Y005877D01*
X010674Y005877D02*
X010674Y006137D01*
X010674Y006737D02*
X010674Y006997D01*
X011074Y006997D01*
X011068Y007167D02*
X011068Y007428D01*
X011154Y007428D02*
X010981Y007428D01*
X010860Y007341D02*
X010773Y007428D01*
X010773Y007167D01*
X010860Y007167D02*
X010686Y007167D01*
X011234Y007657D02*
X011734Y007657D01*
X011734Y008717D01*
X011234Y008717D01*
X011234Y007657D01*
X011085Y007819D02*
X011041Y007775D01*
X010868Y007775D01*
X010825Y007819D01*
X010825Y007905D01*
X010868Y007949D01*
X010955Y008070D02*
X010955Y008243D01*
X011085Y008200D02*
X010955Y008070D01*
X011041Y007949D02*
X011085Y007905D01*
X011085Y007819D01*
X011085Y008200D02*
X010825Y008200D01*
X010868Y008365D02*
X010825Y008408D01*
X010825Y008495D01*
X010868Y008538D01*
X011041Y008538D01*
X010868Y008365D01*
X011041Y008365D01*
X011085Y008408D01*
X011085Y008495D01*
X011041Y008538D01*
X011854Y008737D02*
X011854Y008237D01*
X011854Y007737D01*
X012914Y007737D01*
X012914Y008237D01*
X011854Y008237D01*
X012914Y008237D01*
X012914Y008737D01*
X011854Y008737D01*
X013028Y008737D02*
X013071Y008693D01*
X013028Y008650D01*
X013028Y008606D01*
X013071Y008563D01*
X013158Y008563D01*
X013201Y008606D01*
X013114Y008693D02*
X013071Y008693D01*
X013028Y008737D02*
X013028Y008780D01*
X013071Y008823D01*
X013158Y008823D01*
X013201Y008780D01*
X013322Y008780D02*
X013366Y008823D01*
X013452Y008823D01*
X013496Y008780D01*
X013617Y008780D02*
X013617Y008693D01*
X013660Y008650D01*
X013790Y008650D01*
X013704Y008650D02*
X013617Y008563D01*
X013496Y008563D02*
X013322Y008737D01*
X013322Y008780D01*
X013322Y008563D02*
X013496Y008563D01*
X013617Y008780D02*
X013660Y008823D01*
X013790Y008823D01*
X013790Y008563D01*
X012788Y007558D02*
X012658Y007558D01*
X012615Y007514D01*
X012615Y007428D01*
X012658Y007384D01*
X012788Y007384D01*
X012702Y007384D02*
X012615Y007297D01*
X012494Y007341D02*
X012450Y007297D01*
X012364Y007297D01*
X012320Y007341D01*
X012320Y007384D01*
X012364Y007428D01*
X012407Y007428D01*
X012364Y007428D02*
X012320Y007471D01*
X012320Y007514D01*
X012364Y007558D01*
X012450Y007558D01*
X012494Y007514D01*
X012199Y007514D02*
X012156Y007558D01*
X012069Y007558D01*
X012025Y007514D01*
X012025Y007471D01*
X012199Y007297D01*
X012025Y007297D01*
X011854Y007137D02*
X011854Y006637D01*
X012914Y006637D01*
X012914Y007137D01*
X011854Y007137D01*
X012069Y006458D02*
X012025Y006414D01*
X012025Y006371D01*
X012069Y006328D01*
X012025Y006284D01*
X012025Y006241D01*
X012069Y006197D01*
X012156Y006197D01*
X012199Y006241D01*
X012320Y006241D02*
X012364Y006197D01*
X012450Y006197D01*
X012494Y006241D01*
X012407Y006328D02*
X012364Y006328D01*
X012320Y006284D01*
X012320Y006241D01*
X012364Y006328D02*
X012320Y006371D01*
X012320Y006414D01*
X012364Y006458D01*
X012450Y006458D01*
X012494Y006414D01*
X012615Y006414D02*
X012615Y006328D01*
X012658Y006284D01*
X012788Y006284D01*
X012702Y006284D02*
X012615Y006197D01*
X012788Y006197D02*
X012788Y006458D01*
X012658Y006458D01*
X012615Y006414D01*
X012199Y006414D02*
X012156Y006458D01*
X012069Y006458D01*
X012069Y006328D02*
X012112Y006328D01*
X012788Y007297D02*
X012788Y007558D01*
X016034Y010737D02*
X016734Y010737D01*
X016734Y012037D01*
X016034Y012037D01*
X016034Y010737D01*
X015811Y011033D02*
X015638Y011033D01*
X015594Y011077D01*
X015594Y011164D01*
X015638Y011207D01*
X015594Y011328D02*
X015768Y011502D01*
X015811Y011502D01*
X015855Y011458D01*
X015855Y011371D01*
X015811Y011328D01*
X015811Y011207D02*
X015855Y011164D01*
X015855Y011077D01*
X015811Y011033D01*
X015594Y011328D02*
X015594Y011502D01*
X015638Y011623D02*
X015594Y011666D01*
X015594Y011753D01*
X015638Y011796D01*
X015811Y011796D01*
X015855Y011753D01*
X015855Y011666D01*
X015811Y011623D01*
X015768Y011623D01*
X015724Y011666D01*
X015724Y011796D01*
X017084Y010637D02*
X017084Y009937D01*
X018384Y009937D01*
X018384Y010637D01*
X017084Y010637D01*
X017304Y010780D02*
X017865Y010780D01*
X017705Y010906D02*
X017705Y010993D01*
X017705Y010950D02*
X017444Y010950D01*
X017444Y010993D02*
X017444Y010906D01*
X017488Y011103D02*
X017444Y011146D01*
X017444Y011233D01*
X017488Y011276D01*
X017444Y011397D02*
X017444Y011571D01*
X017444Y011484D02*
X017705Y011484D01*
X017618Y011397D01*
X017661Y011276D02*
X017705Y011233D01*
X017705Y011146D01*
X017661Y011103D01*
X017488Y011103D01*
X017444Y011692D02*
X017618Y011866D01*
X017661Y011866D01*
X017705Y011822D01*
X017705Y011735D01*
X017661Y011692D01*
X017444Y011692D02*
X017444Y011866D01*
X017304Y011995D02*
X017865Y011995D01*
X018434Y012137D02*
X019134Y012137D01*
X019134Y010837D01*
X018434Y010837D01*
X018434Y012137D01*
X018392Y012267D02*
X018565Y012267D01*
X018478Y012267D02*
X018478Y012528D01*
X018565Y012441D01*
X018686Y012441D02*
X018730Y012398D01*
X018686Y012354D01*
X018686Y012311D01*
X018730Y012267D01*
X018816Y012267D01*
X018860Y012311D01*
X018981Y012311D02*
X019024Y012267D01*
X019111Y012267D01*
X019154Y012311D01*
X019154Y012484D01*
X019111Y012528D01*
X019024Y012528D01*
X018981Y012484D01*
X018860Y012484D02*
X018816Y012528D01*
X018730Y012528D01*
X018686Y012484D01*
X018686Y012441D01*
X018730Y012398D02*
X018773Y012398D01*
X018464Y014037D02*
X017404Y014037D01*
X017404Y014537D01*
X018464Y014537D01*
X018464Y014037D01*
X019292Y014334D02*
X019465Y014161D01*
X019465Y014117D01*
X019586Y014161D02*
X019630Y014117D01*
X019716Y014117D01*
X019760Y014161D01*
X019881Y014161D02*
X019924Y014117D01*
X020011Y014117D01*
X020054Y014161D01*
X020054Y014334D01*
X020011Y014378D01*
X019924Y014378D01*
X019881Y014334D01*
X019760Y014334D02*
X019716Y014378D01*
X019630Y014378D01*
X019586Y014334D01*
X019586Y014291D01*
X019630Y014248D01*
X019586Y014204D01*
X019586Y014161D01*
X019630Y014248D02*
X019673Y014248D01*
X019465Y014378D02*
X019292Y014378D01*
X019292Y014334D01*
X020204Y014537D02*
X020204Y014037D01*
X021264Y014037D01*
X021264Y014537D01*
X020204Y014537D01*
X019654Y015767D02*
X019568Y015767D01*
X019611Y015767D02*
X019611Y016028D01*
X019654Y016028D02*
X019568Y016028D01*
X019458Y015984D02*
X019458Y015811D01*
X019415Y015767D01*
X019328Y015767D01*
X019284Y015811D01*
X019163Y015811D02*
X019120Y015767D01*
X019033Y015767D01*
X018990Y015811D01*
X018990Y015854D01*
X019033Y015898D01*
X019163Y015898D01*
X019163Y015811D01*
X019163Y015898D02*
X019076Y015984D01*
X018990Y016028D01*
X019284Y015984D02*
X019328Y016028D01*
X019415Y016028D01*
X019458Y015984D01*
X018487Y017061D02*
X018357Y017061D01*
X018314Y017104D01*
X018314Y017278D01*
X018357Y017321D01*
X018487Y017321D01*
X018487Y017061D01*
X018193Y017104D02*
X018149Y017061D01*
X018063Y017061D01*
X018019Y017104D01*
X018019Y017191D01*
X018063Y017235D01*
X018106Y017235D01*
X018193Y017191D01*
X018193Y017321D01*
X018019Y017321D01*
X017784Y017437D02*
X017784Y018137D01*
X016484Y018137D01*
X016484Y017437D01*
X017784Y017437D01*
X018844Y017571D02*
X018888Y017528D01*
X019061Y017528D01*
X019105Y017571D01*
X019105Y017658D01*
X019061Y017702D01*
X018974Y017823D02*
X018974Y017953D01*
X018931Y017996D01*
X018888Y017996D01*
X018844Y017953D01*
X018844Y017866D01*
X018888Y017823D01*
X018974Y017823D01*
X019061Y017909D01*
X019105Y017996D01*
X019284Y018137D02*
X019284Y017437D01*
X020584Y017437D01*
X020584Y018137D01*
X019284Y018137D01*
X018888Y017702D02*
X018844Y017658D01*
X018844Y017571D01*
X020819Y017321D02*
X020906Y017278D01*
X020993Y017191D01*
X020863Y017191D01*
X020819Y017148D01*
X020819Y017104D01*
X020863Y017061D01*
X020949Y017061D01*
X020993Y017104D01*
X020993Y017191D01*
X021114Y017104D02*
X021114Y017278D01*
X021157Y017321D01*
X021287Y017321D01*
X021287Y017061D01*
X021157Y017061D01*
X021114Y017104D01*
X017254Y014384D02*
X017254Y014211D01*
X017211Y014167D01*
X017124Y014167D01*
X017081Y014211D01*
X016960Y014211D02*
X016916Y014167D01*
X016830Y014167D01*
X016786Y014211D01*
X016786Y014254D01*
X016830Y014298D01*
X016873Y014298D01*
X016830Y014298D02*
X016786Y014341D01*
X016786Y014384D01*
X016830Y014428D01*
X016916Y014428D01*
X016960Y014384D01*
X017081Y014384D02*
X017124Y014428D01*
X017211Y014428D01*
X017254Y014384D01*
X016665Y014298D02*
X016665Y014211D01*
X016622Y014167D01*
X016535Y014167D01*
X016492Y014211D01*
X016492Y014254D01*
X016535Y014298D01*
X016665Y014298D01*
X016578Y014384D01*
X016492Y014428D01*
X015664Y014537D02*
X015664Y014037D01*
X014604Y014037D01*
X014604Y014537D01*
X015664Y014537D01*
X014454Y014384D02*
X014454Y014211D01*
X014411Y014167D01*
X014324Y014167D01*
X014281Y014211D01*
X014160Y014211D02*
X014116Y014167D01*
X014030Y014167D01*
X013986Y014211D01*
X013986Y014254D01*
X014030Y014298D01*
X014073Y014298D01*
X014030Y014298D02*
X013986Y014341D01*
X013986Y014384D01*
X014030Y014428D01*
X014116Y014428D01*
X014160Y014384D01*
X014281Y014384D02*
X014324Y014428D01*
X014411Y014428D01*
X014454Y014384D01*
X013865Y014428D02*
X013865Y014298D01*
X013778Y014341D01*
X013735Y014341D01*
X013692Y014298D01*
X013692Y014211D01*
X013735Y014167D01*
X013822Y014167D01*
X013865Y014211D01*
X013865Y014428D02*
X013692Y014428D01*
X012864Y014537D02*
X012864Y014037D01*
X011804Y014037D01*
X011804Y014537D01*
X012864Y014537D01*
X012678Y013892D02*
X012547Y013892D01*
X012504Y013849D01*
X012504Y013762D01*
X012547Y013719D01*
X012678Y013719D01*
X012678Y013632D02*
X012678Y013892D01*
X012591Y013719D02*
X012504Y013632D01*
X012383Y013632D02*
X012209Y013806D01*
X012209Y013849D01*
X012253Y013892D01*
X012340Y013892D01*
X012383Y013849D01*
X012383Y013632D02*
X012209Y013632D01*
X012088Y013632D02*
X011915Y013632D01*
X012001Y013632D02*
X012001Y013892D01*
X012088Y013806D01*
X012464Y013437D02*
X011404Y013437D01*
X011404Y012937D01*
X012464Y012937D01*
X012464Y013437D01*
X011994Y012787D02*
X011474Y012787D01*
X011457Y012785D01*
X011440Y012781D01*
X011424Y012774D01*
X011410Y012764D01*
X011397Y012751D01*
X011387Y012737D01*
X011380Y012721D01*
X011376Y012704D01*
X011374Y012687D01*
X011374Y011787D01*
X011376Y011770D01*
X011380Y011753D01*
X011387Y011737D01*
X011397Y011723D01*
X011410Y011710D01*
X011424Y011700D01*
X011440Y011693D01*
X011457Y011689D01*
X011474Y011687D01*
X011994Y011687D01*
X012011Y011689D01*
X012028Y011693D01*
X012044Y011700D01*
X012058Y011710D01*
X012071Y011723D01*
X012081Y011737D01*
X012088Y011753D01*
X012092Y011770D01*
X012094Y011787D01*
X012094Y012687D01*
X012092Y012704D01*
X012088Y012721D01*
X012081Y012737D01*
X012071Y012751D01*
X012058Y012764D01*
X012044Y012774D01*
X012028Y012781D01*
X012011Y012785D01*
X011994Y012787D01*
X011895Y011558D02*
X011938Y011514D01*
X011938Y011341D01*
X011895Y011297D01*
X011808Y011297D01*
X011765Y011341D01*
X011765Y011514D01*
X011808Y011558D01*
X011895Y011558D01*
X012059Y011514D02*
X012059Y011471D01*
X012103Y011428D01*
X012233Y011428D01*
X012233Y011558D02*
X012233Y011297D01*
X012103Y011297D01*
X012059Y011341D01*
X012059Y011384D01*
X012103Y011428D01*
X012059Y011514D02*
X012103Y011558D01*
X012233Y011558D01*
X011644Y011514D02*
X011644Y011341D01*
X011600Y011297D01*
X011514Y011297D01*
X011470Y011341D01*
X011470Y011514D01*
X011514Y011558D01*
X011600Y011558D01*
X011644Y011514D01*
X011349Y011558D02*
X011175Y011558D01*
X011262Y011558D02*
X011262Y011297D01*
X010064Y014037D02*
X009004Y014037D01*
X009004Y014537D01*
X010064Y014537D01*
X010064Y014037D01*
X010892Y014298D02*
X011065Y014298D01*
X010935Y014428D01*
X010935Y014167D01*
X011186Y014211D02*
X011230Y014167D01*
X011316Y014167D01*
X011360Y014211D01*
X011481Y014211D02*
X011524Y014167D01*
X011611Y014167D01*
X011654Y014211D01*
X011654Y014384D01*
X011611Y014428D01*
X011524Y014428D01*
X011481Y014384D01*
X011360Y014384D02*
X011316Y014428D01*
X011230Y014428D01*
X011186Y014384D01*
X011186Y014341D01*
X011230Y014298D01*
X011186Y014254D01*
X011186Y014211D01*
X011230Y014298D02*
X011273Y014298D01*
X011254Y015767D02*
X011168Y015767D01*
X011211Y015767D02*
X011211Y016028D01*
X011254Y016028D02*
X011168Y016028D01*
X011058Y015984D02*
X011058Y015811D01*
X011015Y015767D01*
X010928Y015767D01*
X010884Y015811D01*
X010763Y015811D02*
X010720Y015767D01*
X010633Y015767D01*
X010590Y015811D01*
X010590Y015854D01*
X010633Y015898D01*
X010676Y015898D01*
X010633Y015898D02*
X010590Y015941D01*
X010590Y015984D01*
X010633Y016028D01*
X010720Y016028D01*
X010763Y015984D01*
X010884Y015984D02*
X010928Y016028D01*
X011015Y016028D01*
X011058Y015984D01*
X010087Y017061D02*
X009957Y017061D01*
X009914Y017104D01*
X009914Y017278D01*
X009957Y017321D01*
X010087Y017321D01*
X010087Y017061D01*
X009793Y017061D02*
X009619Y017235D01*
X009619Y017278D01*
X009663Y017321D01*
X009749Y017321D01*
X009793Y017278D01*
X009793Y017061D02*
X009619Y017061D01*
X009384Y017437D02*
X009384Y018137D01*
X008084Y018137D01*
X008084Y017437D01*
X009384Y017437D01*
X010444Y017571D02*
X010488Y017528D01*
X010661Y017528D01*
X010705Y017571D01*
X010705Y017658D01*
X010661Y017702D01*
X010661Y017823D02*
X010705Y017866D01*
X010705Y017953D01*
X010661Y017996D01*
X010618Y017996D01*
X010574Y017953D01*
X010531Y017996D01*
X010488Y017996D01*
X010444Y017953D01*
X010444Y017866D01*
X010488Y017823D01*
X010488Y017702D02*
X010444Y017658D01*
X010444Y017571D01*
X010574Y017909D02*
X010574Y017953D01*
X010884Y018137D02*
X010884Y017437D01*
X012184Y017437D01*
X012184Y018137D01*
X010884Y018137D01*
X012419Y017278D02*
X012419Y017235D01*
X012463Y017191D01*
X012419Y017148D01*
X012419Y017104D01*
X012463Y017061D01*
X012549Y017061D01*
X012593Y017104D01*
X012714Y017104D02*
X012757Y017061D01*
X012887Y017061D01*
X012887Y017321D01*
X012757Y017321D01*
X012714Y017278D01*
X012714Y017104D01*
X012593Y017278D02*
X012549Y017321D01*
X012463Y017321D01*
X012419Y017278D01*
X012463Y017191D02*
X012506Y017191D01*
X013244Y017571D02*
X013288Y017528D01*
X013461Y017528D01*
X013505Y017571D01*
X013505Y017658D01*
X013461Y017702D01*
X013374Y017823D02*
X013374Y017996D01*
X013244Y017953D02*
X013505Y017953D01*
X013374Y017823D01*
X013288Y017702D02*
X013244Y017658D01*
X013244Y017571D01*
X013684Y017437D02*
X014984Y017437D01*
X014984Y018137D01*
X013684Y018137D01*
X013684Y017437D01*
X013728Y016028D02*
X013815Y016028D01*
X013858Y015984D01*
X013858Y015811D01*
X013815Y015767D01*
X013728Y015767D01*
X013684Y015811D01*
X013563Y015898D02*
X013390Y015898D01*
X013433Y016028D02*
X013433Y015767D01*
X013563Y015898D02*
X013433Y016028D01*
X013684Y015984D02*
X013728Y016028D01*
X013968Y016028D02*
X014054Y016028D01*
X014011Y016028D02*
X014011Y015767D01*
X014054Y015767D02*
X013968Y015767D01*
X015263Y017061D02*
X015263Y017321D01*
X015393Y017191D01*
X015219Y017191D01*
X015514Y017104D02*
X015557Y017061D01*
X015687Y017061D01*
X015687Y017321D01*
X015557Y017321D01*
X015514Y017278D01*
X015514Y017104D01*
X016044Y017571D02*
X016044Y017658D01*
X016088Y017702D01*
X016088Y017823D02*
X016044Y017866D01*
X016044Y017953D01*
X016088Y017996D01*
X016174Y017996D01*
X016218Y017953D01*
X016218Y017909D01*
X016174Y017823D01*
X016305Y017823D01*
X016305Y017996D01*
X016261Y017702D02*
X016305Y017658D01*
X016305Y017571D01*
X016261Y017528D01*
X016088Y017528D01*
X016044Y017571D01*
X016190Y016028D02*
X016363Y016028D01*
X016363Y015898D01*
X016276Y015941D01*
X016233Y015941D01*
X016190Y015898D01*
X016190Y015811D01*
X016233Y015767D01*
X016320Y015767D01*
X016363Y015811D01*
X016484Y015811D02*
X016528Y015767D01*
X016615Y015767D01*
X016658Y015811D01*
X016658Y015984D01*
X016615Y016028D01*
X016528Y016028D01*
X016484Y015984D01*
X016768Y016028D02*
X016854Y016028D01*
X016811Y016028D02*
X016811Y015767D01*
X016854Y015767D02*
X016768Y015767D01*
X014614Y019437D02*
X013554Y019437D01*
X013554Y019937D01*
X014614Y019937D01*
X014614Y019437D01*
X014411Y020067D02*
X014324Y020067D01*
X014281Y020111D01*
X014160Y020067D02*
X013986Y020067D01*
X014073Y020067D02*
X014073Y020328D01*
X014160Y020241D01*
X014281Y020284D02*
X014324Y020328D01*
X014411Y020328D01*
X014454Y020284D01*
X014454Y020111D01*
X014411Y020067D01*
X013865Y020111D02*
X013822Y020067D01*
X013735Y020067D01*
X013692Y020111D01*
X013692Y020154D01*
X013735Y020198D01*
X013778Y020198D01*
X013735Y020198D02*
X013692Y020241D01*
X013692Y020284D01*
X013735Y020328D01*
X013822Y020328D01*
X013865Y020284D01*
X011814Y019937D02*
X011814Y019437D01*
X010754Y019437D01*
X010754Y019937D01*
X011814Y019937D01*
X011654Y020111D02*
X011611Y020067D01*
X011524Y020067D01*
X011481Y020111D01*
X011360Y020067D02*
X011186Y020067D01*
X011273Y020067D02*
X011273Y020328D01*
X011360Y020241D01*
X011481Y020284D02*
X011524Y020328D01*
X011611Y020328D01*
X011654Y020284D01*
X011654Y020111D01*
X011065Y020067D02*
X010892Y020241D01*
X010892Y020284D01*
X010935Y020328D01*
X011022Y020328D01*
X011065Y020284D01*
X011065Y020067D02*
X010892Y020067D01*
X007905Y017953D02*
X007905Y017866D01*
X007861Y017823D01*
X007861Y017702D02*
X007905Y017658D01*
X007905Y017571D01*
X007861Y017528D01*
X007688Y017528D01*
X007644Y017571D01*
X007644Y017658D01*
X007688Y017702D01*
X007644Y017823D02*
X007818Y017996D01*
X007861Y017996D01*
X007905Y017953D01*
X007644Y017996D02*
X007644Y017823D01*
X007287Y017321D02*
X007157Y017321D01*
X007114Y017278D01*
X007114Y017104D01*
X007157Y017061D01*
X007287Y017061D01*
X007287Y017321D01*
X006993Y017235D02*
X006906Y017321D01*
X006906Y017061D01*
X006993Y017061D02*
X006819Y017061D01*
X006584Y017437D02*
X006584Y018137D01*
X005284Y018137D01*
X005284Y017437D01*
X006584Y017437D01*
X005105Y017621D02*
X005061Y017578D01*
X004888Y017578D01*
X004844Y017621D01*
X004844Y017708D01*
X004888Y017752D01*
X004844Y017873D02*
X004844Y018046D01*
X004844Y017959D02*
X005105Y017959D01*
X005018Y017873D01*
X005061Y017752D02*
X005105Y017708D01*
X005105Y017621D01*
X005076Y016028D02*
X005076Y015767D01*
X004990Y015767D02*
X005163Y015767D01*
X005284Y015811D02*
X005328Y015767D01*
X005415Y015767D01*
X005458Y015811D01*
X005458Y015984D01*
X005415Y016028D01*
X005328Y016028D01*
X005284Y015984D01*
X005163Y015941D02*
X005076Y016028D01*
X005568Y016028D02*
X005654Y016028D01*
X005611Y016028D02*
X005611Y015767D01*
X005654Y015767D02*
X005568Y015767D01*
X006204Y014537D02*
X006204Y014037D01*
X007264Y014037D01*
X007264Y014537D01*
X006204Y014537D01*
X006054Y014384D02*
X006054Y014211D01*
X006011Y014167D01*
X005924Y014167D01*
X005881Y014211D01*
X005760Y014211D02*
X005716Y014167D01*
X005630Y014167D01*
X005586Y014211D01*
X005586Y014254D01*
X005630Y014298D01*
X005673Y014298D01*
X005630Y014298D02*
X005586Y014341D01*
X005586Y014384D01*
X005630Y014428D01*
X005716Y014428D01*
X005760Y014384D01*
X005881Y014384D02*
X005924Y014428D01*
X006011Y014428D01*
X006054Y014384D01*
X006214Y013937D02*
X006214Y013437D01*
X005154Y013437D01*
X005154Y013937D01*
X006214Y013937D01*
X006045Y013308D02*
X006088Y013264D01*
X006088Y013091D01*
X006045Y013047D01*
X005958Y013047D01*
X005915Y013091D01*
X005794Y013178D02*
X005620Y013178D01*
X005664Y013308D02*
X005794Y013178D01*
X005915Y013264D02*
X005958Y013308D01*
X006045Y013308D01*
X005664Y013308D02*
X005664Y013047D01*
X005499Y013091D02*
X005456Y013047D01*
X005369Y013047D01*
X005325Y013091D01*
X005325Y013134D01*
X005369Y013178D01*
X005412Y013178D01*
X005369Y013178D02*
X005325Y013221D01*
X005325Y013264D01*
X005369Y013308D01*
X005456Y013308D01*
X005499Y013264D01*
X005465Y014167D02*
X005292Y014167D01*
X005465Y014167D02*
X005292Y014341D01*
X005292Y014384D01*
X005335Y014428D01*
X005422Y014428D01*
X005465Y014384D01*
X007790Y015767D02*
X007963Y015767D01*
X007790Y015941D01*
X007790Y015984D01*
X007833Y016028D01*
X007920Y016028D01*
X007963Y015984D01*
X008084Y015984D02*
X008128Y016028D01*
X008215Y016028D01*
X008258Y015984D01*
X008258Y015811D01*
X008215Y015767D01*
X008128Y015767D01*
X008084Y015811D01*
X008368Y015767D02*
X008454Y015767D01*
X008411Y015767D02*
X008411Y016028D01*
X008454Y016028D02*
X008368Y016028D01*
X008430Y014428D02*
X008386Y014384D01*
X008386Y014341D01*
X008430Y014298D01*
X008386Y014254D01*
X008386Y014211D01*
X008430Y014167D01*
X008516Y014167D01*
X008560Y014211D01*
X008681Y014211D02*
X008724Y014167D01*
X008811Y014167D01*
X008854Y014211D01*
X008854Y014384D01*
X008811Y014428D01*
X008724Y014428D01*
X008681Y014384D01*
X008560Y014384D02*
X008516Y014428D01*
X008430Y014428D01*
X008430Y014298D02*
X008473Y014298D01*
X008265Y014384D02*
X008222Y014428D01*
X008135Y014428D01*
X008092Y014384D01*
X008092Y014341D01*
X008135Y014298D01*
X008092Y014254D01*
X008092Y014211D01*
X008135Y014167D01*
X008222Y014167D01*
X008265Y014211D01*
X008178Y014298D02*
X008135Y014298D01*
X004981Y011030D02*
X004808Y010857D01*
X004764Y010900D01*
X004764Y010987D01*
X004808Y011030D01*
X004981Y011030D01*
X005025Y010987D01*
X005025Y010900D01*
X004981Y010857D01*
X004808Y010857D01*
X004764Y010736D02*
X004764Y010562D01*
X004938Y010736D01*
X004981Y010736D01*
X005025Y010692D01*
X005025Y010605D01*
X004981Y010562D01*
X004981Y010441D02*
X004894Y010441D01*
X004851Y010398D01*
X004851Y010267D01*
X004764Y010267D02*
X005025Y010267D01*
X005025Y010398D01*
X004981Y010441D01*
X004851Y010354D02*
X004764Y010441D01*
X004525Y010398D02*
X004525Y010267D01*
X004264Y010267D01*
X004351Y010267D02*
X004351Y010398D01*
X004394Y010441D01*
X004481Y010441D01*
X004525Y010398D01*
X004351Y010354D02*
X004264Y010441D01*
X004264Y010562D02*
X004264Y010736D01*
X004264Y010649D02*
X004525Y010649D01*
X004438Y010562D01*
X004438Y010857D02*
X004394Y010900D01*
X004394Y011030D01*
X004308Y011030D02*
X004481Y011030D01*
X004525Y010987D01*
X004525Y010900D01*
X004481Y010857D01*
X004438Y010857D01*
X004308Y010857D02*
X004264Y010900D01*
X004264Y010987D01*
X004308Y011030D01*
X004134Y010117D02*
X004634Y010117D01*
X004634Y009057D01*
X005134Y009057D01*
X005134Y010117D01*
X004634Y010117D01*
X004634Y009057D01*
X004134Y009057D01*
X004134Y010117D01*
X014764Y004239D02*
X014764Y004152D01*
X014808Y004108D01*
X014981Y004108D01*
X015025Y004152D01*
X015025Y004239D01*
X014981Y004282D01*
X014894Y004282D02*
X014894Y004195D01*
X014894Y004282D02*
X014808Y004282D01*
X014764Y004239D01*
X014764Y003999D02*
X014764Y003912D01*
X014764Y003955D02*
X015025Y003955D01*
X015025Y003912D02*
X015025Y003999D01*
X014981Y003791D02*
X015025Y003748D01*
X015025Y003661D01*
X014981Y003617D01*
X014938Y003617D01*
X014894Y003661D01*
X014894Y003748D01*
X014851Y003791D01*
X014808Y003791D01*
X014764Y003748D01*
X014764Y003661D01*
X014808Y003617D01*
X014851Y003380D02*
X014764Y003293D01*
X014851Y003207D01*
X015025Y003207D01*
X015025Y003086D02*
X015025Y002912D01*
X014894Y002912D01*
X014938Y002999D01*
X014938Y003042D01*
X014894Y003086D01*
X014808Y003086D01*
X014764Y003042D01*
X014764Y002955D01*
X014808Y002912D01*
X014894Y002791D02*
X014894Y002617D01*
X014808Y002704D02*
X014981Y002704D01*
X014981Y002380D02*
X014808Y002380D01*
X014764Y002337D01*
X014764Y002207D01*
X015025Y002207D01*
X015025Y002337D01*
X014981Y002380D01*
X015025Y002086D02*
X014764Y002086D01*
X015025Y001912D01*
X014764Y001912D01*
X014808Y001791D02*
X014894Y001791D01*
X014894Y001704D01*
X014808Y001617D02*
X014764Y001661D01*
X014764Y001748D01*
X014808Y001791D01*
X014981Y001791D02*
X015025Y001748D01*
X015025Y001661D01*
X014981Y001617D01*
X014808Y001617D01*
X014851Y003380D02*
X015025Y003380D01*
X017419Y009497D02*
X017506Y009497D01*
X017549Y009541D01*
X017375Y009714D01*
X017375Y009541D01*
X017419Y009497D01*
X017549Y009541D02*
X017549Y009714D01*
X017506Y009758D01*
X017419Y009758D01*
X017375Y009714D01*
X017670Y009714D02*
X017670Y009671D01*
X017714Y009628D01*
X017670Y009584D01*
X017670Y009541D01*
X017714Y009497D01*
X017800Y009497D01*
X017844Y009541D01*
X017965Y009541D02*
X018008Y009497D01*
X018095Y009497D01*
X018138Y009541D01*
X018138Y009714D01*
X018095Y009758D01*
X018008Y009758D01*
X017965Y009714D01*
X017844Y009714D02*
X017800Y009758D01*
X017714Y009758D01*
X017670Y009714D01*
X017714Y009628D02*
X017757Y009628D01*
X019392Y009947D02*
X019436Y009904D01*
X019523Y009904D01*
X019566Y009947D01*
X019566Y009990D01*
X019523Y010034D01*
X019436Y010034D01*
X019392Y009990D01*
X019392Y009947D01*
X019436Y010034D02*
X019392Y010077D01*
X019392Y010121D01*
X019436Y010164D01*
X019523Y010164D01*
X019566Y010121D01*
X019566Y010077D01*
X019523Y010034D01*
X019687Y010121D02*
X019730Y010164D01*
X019861Y010164D01*
X019861Y009904D01*
X019730Y009904D01*
X019687Y009947D01*
X019687Y010121D01*
D12*
X020034Y010685D02*
X020435Y010685D01*
X020435Y010886D01*
X020368Y010952D01*
X020234Y010952D01*
X020168Y010886D01*
X020168Y010685D01*
X020101Y011146D02*
X020034Y011213D01*
X020034Y011346D01*
X020101Y011413D01*
X020368Y011413D01*
X020435Y011346D01*
X020435Y011213D01*
X020368Y011146D01*
X020101Y011146D01*
X020034Y011606D02*
X020168Y011740D01*
X020034Y011873D01*
X020435Y011873D01*
X020435Y012067D02*
X020034Y012067D01*
X020034Y012334D01*
X020034Y012527D02*
X020435Y012527D01*
X020435Y012727D01*
X020368Y012794D01*
X020234Y012794D01*
X020168Y012727D01*
X020168Y012527D01*
X020168Y012660D02*
X020034Y012794D01*
X020435Y012334D02*
X020435Y012067D01*
X020234Y012067D02*
X020234Y012200D01*
X020034Y011606D02*
X020435Y011606D01*
X020086Y009004D02*
X020086Y008938D01*
X020086Y008804D02*
X020086Y008537D01*
X020020Y008537D02*
X020153Y008537D01*
X020347Y008604D02*
X020413Y008671D01*
X020547Y008671D01*
X020614Y008738D01*
X020547Y008804D01*
X020347Y008804D01*
X020153Y008804D02*
X020086Y008804D01*
X019846Y008738D02*
X019846Y008604D01*
X019779Y008537D01*
X019579Y008537D01*
X019579Y008471D02*
X019579Y008804D01*
X019779Y008804D01*
X019846Y008738D01*
X019579Y008471D02*
X019646Y008404D01*
X019713Y008404D01*
X019626Y008121D02*
X019626Y007854D01*
X019559Y007787D01*
X019386Y007854D02*
X019319Y007921D01*
X019119Y007921D01*
X019119Y007988D02*
X019119Y007787D01*
X019319Y007787D01*
X019386Y007854D01*
X019319Y008054D02*
X019186Y008054D01*
X019119Y007988D01*
X018925Y007988D02*
X018859Y007921D01*
X018725Y007921D01*
X018659Y007854D01*
X018725Y007787D01*
X018925Y007787D01*
X018925Y007988D02*
X018859Y008054D01*
X018659Y008054D01*
X018725Y008537D02*
X018859Y008537D01*
X018925Y008604D01*
X018925Y008738D01*
X018859Y008804D01*
X018725Y008804D01*
X018659Y008738D01*
X018659Y008671D01*
X018925Y008671D01*
X019119Y008738D02*
X019119Y008537D01*
X019119Y008738D02*
X019186Y008804D01*
X019386Y008804D01*
X019386Y008537D01*
X019559Y008054D02*
X019693Y008054D01*
X019886Y007988D02*
X019886Y007787D01*
X019886Y007988D02*
X019953Y008054D01*
X020153Y008054D01*
X020153Y007787D01*
X020347Y007921D02*
X020614Y007921D01*
X020614Y007854D02*
X020614Y007988D01*
X020547Y008054D01*
X020413Y008054D01*
X020347Y007988D01*
X020347Y007921D01*
X020413Y007787D02*
X020547Y007787D01*
X020614Y007854D01*
X020807Y007921D02*
X020807Y008188D01*
X021074Y008188D02*
X021074Y007921D01*
X020940Y007787D01*
X020807Y007921D01*
X021267Y007921D02*
X021267Y007854D01*
X021334Y007787D01*
X021468Y007787D01*
X021534Y007854D01*
X021468Y007988D02*
X021334Y007988D01*
X021267Y007921D01*
X021267Y008121D02*
X021334Y008188D01*
X021468Y008188D01*
X021534Y008121D01*
X021534Y008054D01*
X021468Y007988D01*
X021468Y008537D02*
X021267Y008537D01*
X021267Y008938D01*
X021267Y008804D02*
X021468Y008804D01*
X021534Y008738D01*
X021534Y008604D01*
X021468Y008537D01*
X021074Y008604D02*
X021074Y008738D01*
X021007Y008804D01*
X020874Y008804D01*
X020807Y008738D01*
X020807Y008671D01*
X021074Y008671D01*
X021074Y008604D02*
X021007Y008537D01*
X020874Y008537D01*
X020614Y008537D02*
X020413Y008537D01*
X020347Y008604D01*
X018465Y008604D02*
X018465Y008738D01*
X018398Y008804D01*
X018198Y008804D01*
X018198Y008938D02*
X018198Y008537D01*
X018398Y008537D01*
X018465Y008604D01*
X018005Y008054D02*
X017871Y008188D01*
X017698Y008121D02*
X017631Y008188D01*
X017498Y008188D01*
X017431Y008121D01*
X017431Y008054D01*
X017698Y007787D01*
X017431Y007787D01*
X017237Y007854D02*
X016970Y008121D01*
X016970Y007854D01*
X017037Y007787D01*
X017171Y007787D01*
X017237Y007854D01*
X017237Y008121D01*
X017171Y008188D01*
X017037Y008188D01*
X016970Y008121D01*
X016777Y008054D02*
X016643Y008188D01*
X016643Y007787D01*
X016510Y007787D02*
X016777Y007787D01*
X016317Y007854D02*
X016250Y007787D01*
X016116Y007787D01*
X016050Y007854D01*
X016050Y007921D01*
X016116Y007988D01*
X016183Y007988D01*
X016116Y007988D02*
X016050Y008054D01*
X016050Y008121D01*
X016116Y008188D01*
X016250Y008188D01*
X016317Y008121D01*
X015856Y008188D02*
X015723Y008054D01*
X015723Y007921D01*
X015856Y007787D01*
X016817Y008471D02*
X016817Y008804D01*
X016817Y008537D02*
X017017Y008537D01*
X017084Y008604D01*
X017084Y008804D01*
X017277Y008738D02*
X017277Y008604D01*
X017344Y008537D01*
X017544Y008537D01*
X017544Y008938D01*
X017544Y008804D02*
X017344Y008804D01*
X017277Y008738D01*
X016950Y008404D02*
X016884Y008404D01*
X016817Y008471D01*
X017871Y007787D02*
X018005Y007921D01*
X018005Y008054D01*
X018299Y001488D02*
X018433Y001488D01*
X018366Y001488D02*
X018366Y001087D01*
X018433Y001087D02*
X018299Y001087D01*
X017665Y001087D02*
X017665Y001488D01*
X017532Y001354D01*
X017399Y001488D01*
X017399Y001087D01*
X016745Y001154D02*
X016745Y001488D01*
X016478Y001488D02*
X016478Y001154D01*
X016545Y001087D01*
X016678Y001087D01*
X016745Y001154D01*
X014364Y001087D02*
X014364Y001488D01*
X014164Y001488D01*
X014097Y001421D01*
X014097Y001288D01*
X014164Y001221D01*
X014364Y001221D01*
X014231Y001221D02*
X014097Y001087D01*
X013904Y001087D02*
X013637Y001087D01*
X013443Y001154D02*
X013376Y001087D01*
X013243Y001087D01*
X013176Y001154D01*
X012983Y001087D02*
X012716Y001087D01*
X012522Y001087D02*
X012389Y001087D01*
X012456Y001087D02*
X012456Y001488D01*
X012522Y001488D02*
X012389Y001488D01*
X012216Y001488D02*
X012216Y001221D01*
X012082Y001087D01*
X011949Y001221D01*
X011949Y001488D01*
X011755Y001488D02*
X011755Y001087D01*
X011488Y001087D01*
X011295Y001087D02*
X011295Y001488D01*
X011095Y001488D01*
X011028Y001421D01*
X011028Y001288D01*
X011095Y001221D01*
X011295Y001221D01*
X011161Y001221D02*
X011028Y001087D01*
X011488Y001488D02*
X011755Y001488D01*
X011755Y001288D02*
X011622Y001288D01*
X012716Y001488D02*
X012983Y001488D01*
X012983Y001087D01*
X012983Y001288D02*
X012849Y001288D01*
X013176Y001421D02*
X013243Y001488D01*
X013376Y001488D01*
X013443Y001421D01*
X013443Y001154D01*
X013770Y001288D02*
X013904Y001288D01*
X013904Y001488D02*
X013637Y001488D01*
X013904Y001488D02*
X013904Y001087D01*
X008736Y001087D02*
X008736Y001354D01*
X008603Y001488D01*
X008469Y001354D01*
X008469Y001087D01*
X008469Y001288D02*
X008736Y001288D01*
X007815Y001488D02*
X007815Y001087D01*
X007615Y001087D01*
X007549Y001154D01*
X007549Y001421D01*
X007615Y001488D01*
X007815Y001488D01*
X006895Y001421D02*
X006895Y001154D01*
X006828Y001087D01*
X006695Y001087D01*
X006628Y001154D01*
X006628Y001421D02*
X006695Y001488D01*
X006828Y001488D01*
X006895Y001421D01*
X006844Y004987D02*
X007174Y005317D01*
X006874Y005747D01*
X007064Y006207D02*
X007584Y006307D01*
X007584Y006757D01*
X007054Y006857D01*
X006864Y007297D02*
X007174Y007747D01*
X006844Y008067D01*
X006394Y007757D01*
X005964Y007937D02*
X005864Y008477D01*
X005404Y008477D01*
X005304Y007937D01*
X004874Y007757D02*
X004414Y008067D01*
X004094Y007747D01*
X004404Y007297D01*
X004214Y006857D02*
X003684Y006757D01*
X003684Y006307D01*
X004204Y006207D01*
X004384Y005747D02*
X004094Y005317D01*
X004414Y004997D01*
X004834Y005277D01*
X005014Y005177D01*
X005344Y005977D01*
X005914Y005977D02*
X006244Y005177D01*
X006424Y005277D01*
X006844Y004987D01*
X006395Y007757D02*
X006337Y007790D01*
X006278Y007820D01*
X006217Y007847D01*
X006156Y007871D01*
X006093Y007893D01*
X006029Y007912D01*
X005965Y007927D01*
X006864Y007297D02*
X006900Y007239D01*
X006933Y007178D01*
X006964Y007116D01*
X006991Y007053D01*
X007015Y006989D01*
X007036Y006923D01*
X007054Y006857D01*
X005305Y007927D02*
X005231Y007908D01*
X005159Y007885D01*
X005088Y007858D01*
X005018Y007828D01*
X004951Y007794D01*
X004885Y007757D01*
X005344Y005977D02*
X005302Y006001D01*
X005263Y006029D01*
X005226Y006060D01*
X005191Y006094D01*
X005159Y006130D01*
X005131Y006169D01*
X005105Y006210D01*
X005083Y006253D01*
X005065Y006298D01*
X005050Y006344D01*
X005038Y006391D01*
X005031Y006438D01*
X005027Y006486D01*
X005028Y006535D01*
X005032Y006583D01*
X005040Y006630D01*
X005052Y006677D01*
X005067Y006723D01*
X005086Y006767D01*
X005109Y006810D01*
X005135Y006851D01*
X005164Y006889D01*
X005196Y006925D01*
X005231Y006959D01*
X005269Y006989D01*
X005308Y007016D01*
X005350Y007041D01*
X005394Y007061D01*
X005439Y007078D01*
X005485Y007092D01*
X005533Y007101D01*
X005581Y007107D01*
X005629Y007109D01*
X005677Y007107D01*
X005725Y007101D01*
X005773Y007092D01*
X005819Y007078D01*
X005864Y007061D01*
X005908Y007041D01*
X005950Y007016D01*
X005989Y006989D01*
X006027Y006959D01*
X006062Y006925D01*
X006094Y006889D01*
X006123Y006851D01*
X006149Y006810D01*
X006172Y006767D01*
X006191Y006723D01*
X006206Y006677D01*
X006218Y006630D01*
X006226Y006583D01*
X006230Y006535D01*
X006231Y006486D01*
X006227Y006438D01*
X006220Y006391D01*
X006208Y006344D01*
X006193Y006298D01*
X006175Y006253D01*
X006153Y006210D01*
X006127Y006169D01*
X006099Y006130D01*
X006067Y006094D01*
X006032Y006060D01*
X005995Y006029D01*
X005956Y006001D01*
X005914Y005977D01*
X004384Y005747D02*
X004349Y005809D01*
X004316Y005872D01*
X004287Y005937D01*
X004262Y006003D01*
X004239Y006070D01*
X004220Y006138D01*
X004204Y006208D01*
X006874Y005747D02*
X006909Y005809D01*
X006942Y005872D01*
X006971Y005937D01*
X006996Y006003D01*
X007019Y006070D01*
X007038Y006138D01*
X007054Y006208D01*
X004404Y007297D02*
X004368Y007238D01*
X004335Y007178D01*
X004305Y007116D01*
X004278Y007053D01*
X004253Y006989D01*
X004232Y006923D01*
X004214Y006857D01*
X004218Y017687D02*
X004284Y017754D01*
X004218Y017687D02*
X004084Y017687D01*
X004017Y017754D01*
X004017Y017821D01*
X004084Y017888D01*
X004218Y017888D01*
X004284Y017954D01*
X004284Y018021D01*
X004218Y018088D01*
X004084Y018088D01*
X004017Y018021D01*
X003824Y018088D02*
X003824Y017687D01*
X003690Y017821D01*
X003557Y017687D01*
X003557Y018088D01*
X003364Y018088D02*
X003163Y018088D01*
X003097Y018021D01*
X003097Y017754D01*
X003163Y017687D01*
X003364Y017687D01*
X003364Y018088D01*
D13*
X004734Y016657D02*
X004734Y015317D01*
X006634Y015317D01*
X006634Y016657D01*
X004734Y016657D01*
X007534Y016657D02*
X007534Y015317D01*
X009434Y015317D01*
X009434Y016657D01*
X007534Y016657D01*
X010334Y016657D02*
X010334Y015317D01*
X012234Y015317D01*
X012234Y016657D01*
X010334Y016657D01*
X013134Y016657D02*
X013134Y015317D01*
X015034Y015317D01*
X015034Y016657D01*
X013134Y016657D01*
X015934Y016657D02*
X015934Y015317D01*
X017834Y015317D01*
X017834Y016657D01*
X015934Y016657D01*
X018734Y016657D02*
X018734Y015317D01*
X020634Y015317D01*
X020634Y016657D01*
X018734Y016657D01*
X018631Y019827D02*
X018631Y020148D01*
X018738Y020041D01*
X018844Y020148D01*
X018844Y019827D01*
X018476Y019881D02*
X018423Y019827D01*
X018316Y019827D01*
X018262Y019881D01*
X018262Y020094D01*
X018316Y020148D01*
X018423Y020148D01*
X018476Y020094D01*
X018476Y019881D01*
X018001Y019827D02*
X018001Y020148D01*
X018108Y020148D02*
X017894Y020148D01*
X017739Y020094D02*
X017739Y019881D01*
X017686Y019827D01*
X017579Y019827D01*
X017526Y019881D01*
X017526Y020094D01*
X017579Y020148D01*
X017686Y020148D01*
X017739Y020094D01*
X017371Y020148D02*
X017371Y019827D01*
X017371Y019934D02*
X017211Y019934D01*
X017158Y019988D01*
X017158Y020094D01*
X017211Y020148D01*
X017371Y020148D01*
X017264Y019934D02*
X017158Y019827D01*
X017003Y019988D02*
X016789Y019988D01*
X016634Y020094D02*
X016581Y020148D01*
X016474Y020148D01*
X016421Y020094D01*
X016421Y020041D01*
X016634Y019827D01*
X016421Y019827D01*
X008944Y019827D02*
X008944Y020148D01*
X008838Y020041D01*
X008731Y020148D01*
X008731Y019827D01*
X008576Y019881D02*
X008523Y019827D01*
X008416Y019827D01*
X008362Y019881D01*
X008362Y020094D01*
X008416Y020148D01*
X008523Y020148D01*
X008576Y020094D01*
X008576Y019881D01*
X008208Y020148D02*
X007994Y020148D01*
X008101Y020148D02*
X008101Y019827D01*
X007839Y019881D02*
X007839Y020094D01*
X007786Y020148D01*
X007679Y020148D01*
X007626Y020094D01*
X007626Y019881D01*
X007679Y019827D01*
X007786Y019827D01*
X007839Y019881D01*
X007471Y019934D02*
X007311Y019934D01*
X007258Y019988D01*
X007258Y020094D01*
X007311Y020148D01*
X007471Y020148D01*
X007471Y019827D01*
X007364Y019934D02*
X007258Y019827D01*
X007103Y019988D02*
X006889Y019988D01*
X006734Y020041D02*
X006628Y020148D01*
X006628Y019827D01*
X006734Y019827D02*
X006521Y019827D01*
D14*
X021084Y009637D02*
X021584Y009637D01*
X021334Y009887D02*
X021334Y009387D01*
X022134Y012487D02*
X022134Y012987D01*
D15*
X003584Y012387D03*
D16*
X005483Y010545D02*
X005606Y010668D01*
X005853Y010668D01*
X005977Y010545D01*
X005483Y010545D02*
X005483Y010421D01*
X005977Y009927D01*
X005483Y009927D01*
X006277Y009927D02*
X006400Y009927D01*
X006400Y010051D01*
X006277Y010051D01*
X006277Y009927D01*
X006754Y009927D02*
X007247Y009927D01*
X007000Y009927D02*
X007000Y010668D01*
X007247Y010421D01*
X007601Y010421D02*
X007848Y009927D01*
X008094Y010421D01*
X009295Y010545D02*
X009295Y010051D01*
X009418Y009927D01*
X009665Y009927D01*
X009789Y010051D01*
X009789Y010545D01*
X009665Y010668D01*
X009418Y010668D01*
X009295Y010545D01*
X010142Y010668D02*
X010142Y010051D01*
X010266Y009927D01*
X010512Y009927D01*
X010636Y010051D01*
X010636Y010668D01*
X010989Y010545D02*
X011113Y010668D01*
X011483Y010668D01*
X011483Y009927D01*
X011113Y009927D01*
X010989Y010051D01*
X010989Y010545D01*
X011836Y010421D02*
X011836Y009927D01*
X012207Y009927D01*
X012330Y010051D01*
X012330Y010421D01*
X012683Y010298D02*
X012683Y009927D01*
X013054Y009927D01*
X013177Y010051D01*
X013054Y010174D01*
X012683Y010174D01*
X012683Y010298D02*
X012807Y010421D01*
X013054Y010421D01*
X013531Y010174D02*
X013531Y010668D01*
X014024Y010668D02*
X014024Y010174D01*
X013777Y009927D01*
X013531Y010174D01*
D17*
X016733Y005129D03*
D18*
X016733Y005136D03*
D19*
X016733Y005143D03*
X016733Y005150D03*
X016733Y005164D03*
X016733Y005178D03*
X016733Y005185D03*
X016733Y005199D03*
X016733Y005213D03*
X016733Y005220D03*
X016733Y005234D03*
X016733Y005248D03*
X016733Y005255D03*
X016733Y005269D03*
D20*
X016733Y005262D03*
X016733Y005241D03*
X016733Y005227D03*
X016733Y005206D03*
X016733Y005192D03*
X016733Y005171D03*
X016733Y005157D03*
D21*
X017702Y005276D03*
D22*
X014153Y005276D03*
D23*
X018574Y005283D03*
X018574Y005290D03*
X018574Y005304D03*
X018574Y005318D03*
D24*
X018472Y005815D03*
X019543Y005808D03*
X019550Y005815D03*
X019543Y007075D03*
X016561Y005283D03*
X014580Y007243D03*
D25*
X015774Y005283D03*
D26*
X015000Y005283D03*
X014937Y005458D03*
X014769Y005444D03*
X015098Y006718D03*
X016610Y005654D03*
X016561Y005570D03*
X016561Y005563D03*
X019109Y006319D03*
X020173Y007523D03*
X013292Y007523D03*
D27*
X014503Y006228D03*
X015049Y006494D03*
X015098Y006774D03*
X015042Y006914D03*
X015238Y007208D03*
X015259Y007194D03*
X016155Y007194D03*
X016162Y006228D03*
X016911Y006228D03*
X016533Y005304D03*
X014769Y005283D03*
X018318Y005983D03*
X018339Y005955D03*
X018864Y006284D03*
X018864Y006599D03*
X018339Y006928D03*
X018325Y006914D03*
X018318Y006900D03*
X019683Y006928D03*
X019704Y006900D03*
X019711Y006893D03*
X019718Y006879D03*
X019718Y006004D03*
X019704Y005983D03*
X019683Y005955D03*
D28*
X013905Y005283D03*
D29*
X014986Y005514D03*
X014881Y006039D03*
X015203Y006193D03*
X015098Y006788D03*
X015203Y007229D03*
X014881Y007383D03*
X014552Y007229D03*
X014545Y006200D03*
X016211Y007229D03*
X016862Y007229D03*
X016540Y006039D03*
X016547Y005290D03*
X018402Y005878D03*
X018738Y006179D03*
X019263Y006179D03*
X019627Y006998D03*
X019620Y007005D03*
X019606Y007019D03*
X018430Y007033D03*
X018416Y007019D03*
X018402Y007005D03*
D30*
X015784Y005290D03*
D31*
X014993Y005290D03*
X014769Y005465D03*
X016575Y005598D03*
X016575Y005605D03*
X013278Y007509D03*
D32*
X014500Y007194D03*
X014682Y006508D03*
X014493Y006235D03*
X015256Y006228D03*
X015263Y006235D03*
X016152Y006235D03*
X016922Y006235D03*
X016915Y007194D03*
X018294Y006858D03*
X018308Y006879D03*
X018315Y006893D03*
X019015Y007355D03*
X019393Y006599D03*
X019729Y006858D03*
X019729Y006865D03*
X019729Y006025D03*
X019729Y006018D03*
X019708Y005990D03*
X019015Y005528D03*
X018315Y005990D03*
X018308Y006004D03*
X018294Y006018D03*
X014766Y005290D03*
D33*
X013908Y005290D03*
X013908Y005304D03*
D34*
X018574Y005297D03*
X018574Y005311D03*
D35*
X018360Y005927D03*
X018360Y006956D03*
X016883Y006207D03*
X016190Y006207D03*
X015224Y006207D03*
X015098Y006781D03*
X016540Y005297D03*
D36*
X015788Y005297D03*
D37*
X016390Y005577D03*
X016579Y005612D03*
X016586Y005626D03*
X014983Y005297D03*
X014934Y005437D03*
X014766Y005472D03*
X013275Y007502D03*
X018602Y006557D03*
X019127Y006557D03*
X020191Y007502D03*
D38*
X018269Y006816D03*
X018269Y006067D03*
X014769Y005297D03*
X014664Y006536D03*
D39*
X013908Y005297D03*
X017590Y005647D03*
D40*
X015795Y005304D03*
D41*
X014979Y005304D03*
X014769Y005479D03*
X015098Y006704D03*
X013264Y006704D03*
X013264Y006690D03*
X013264Y006683D03*
X013264Y006669D03*
X013264Y006655D03*
X013264Y006648D03*
X013264Y006634D03*
X013264Y006620D03*
X013264Y006613D03*
X013264Y006599D03*
X013264Y006585D03*
X013264Y006578D03*
X013264Y006564D03*
X013264Y006550D03*
X013264Y006543D03*
X013264Y006529D03*
X013264Y006515D03*
X013264Y006508D03*
X013264Y006494D03*
X013264Y006480D03*
X013264Y006473D03*
X013264Y006459D03*
X013264Y006445D03*
X013264Y006438D03*
X013264Y006424D03*
X013264Y006410D03*
X013264Y006403D03*
X013264Y006389D03*
X013264Y006375D03*
X013264Y006368D03*
X013264Y006354D03*
X013264Y006340D03*
X013264Y006333D03*
X013264Y006319D03*
X013264Y006305D03*
X013264Y006298D03*
X013264Y006284D03*
X013264Y006270D03*
X013264Y006263D03*
X013264Y006249D03*
X013264Y006235D03*
X013264Y006228D03*
X013264Y006214D03*
X013264Y006200D03*
X013264Y006193D03*
X013264Y006179D03*
X013264Y006165D03*
X013264Y006158D03*
X013264Y006144D03*
X013264Y006130D03*
X013264Y006123D03*
X013264Y006109D03*
X013264Y006095D03*
X013264Y006088D03*
X013264Y006074D03*
X013264Y006060D03*
X013264Y006053D03*
X013264Y006039D03*
X013264Y006025D03*
X013264Y006018D03*
X013264Y006004D03*
X013264Y005990D03*
X013264Y005983D03*
X013264Y005969D03*
X013264Y005955D03*
X013264Y005948D03*
X013264Y005934D03*
X013264Y005920D03*
X013264Y005913D03*
X013264Y005899D03*
X013264Y005885D03*
X013264Y005878D03*
X013264Y005864D03*
X013264Y006718D03*
X013264Y006725D03*
X013264Y006739D03*
X013264Y006753D03*
X013264Y006760D03*
X013264Y006774D03*
X013264Y006788D03*
X013264Y006795D03*
X013264Y006809D03*
X013264Y006823D03*
X013264Y006830D03*
X013264Y006844D03*
X013264Y006858D03*
X013264Y006865D03*
X013264Y006879D03*
X013264Y006893D03*
X013264Y006900D03*
X013264Y006914D03*
X013264Y006928D03*
X013264Y006935D03*
X013264Y006949D03*
X013264Y006963D03*
X013264Y006970D03*
X013264Y006984D03*
X013264Y006998D03*
X013264Y007005D03*
X013264Y007019D03*
X013264Y007033D03*
X013264Y007040D03*
X013264Y007054D03*
X013264Y007068D03*
X013264Y007075D03*
X013264Y007089D03*
X013264Y007103D03*
X013264Y007110D03*
X013264Y007124D03*
X013264Y007138D03*
X013264Y007145D03*
X013264Y007159D03*
X013264Y007173D03*
X013264Y007180D03*
X013264Y007194D03*
X013264Y007208D03*
X013264Y007215D03*
X013264Y007229D03*
X013264Y007243D03*
X013264Y007250D03*
X013264Y007264D03*
X013264Y007278D03*
X013264Y007285D03*
X013264Y007299D03*
X013264Y007313D03*
X013264Y007320D03*
X013264Y007334D03*
X013264Y007348D03*
X013264Y007355D03*
X013264Y007369D03*
X013264Y007383D03*
X013264Y007390D03*
X013264Y007404D03*
X013264Y007418D03*
X013264Y007425D03*
X013264Y007439D03*
X013264Y007453D03*
X013264Y007460D03*
X013264Y007474D03*
X013271Y007495D03*
X018591Y006333D03*
X019116Y006333D03*
X019263Y006158D03*
X020201Y006158D03*
X020201Y006165D03*
X020201Y006179D03*
X020201Y006193D03*
X020201Y006200D03*
X020201Y006214D03*
X020201Y006228D03*
X020201Y006235D03*
X020201Y006249D03*
X020201Y006263D03*
X020201Y006270D03*
X020201Y006284D03*
X020201Y006298D03*
X020201Y006305D03*
X020201Y006319D03*
X020201Y006333D03*
X020201Y006340D03*
X020201Y006354D03*
X020201Y006368D03*
X020201Y006375D03*
X020201Y006389D03*
X020201Y006403D03*
X020201Y006410D03*
X020201Y006424D03*
X020201Y006438D03*
X020201Y006445D03*
X020201Y006459D03*
X020201Y006473D03*
X020201Y006480D03*
X020201Y006494D03*
X020201Y006508D03*
X020201Y006515D03*
X020201Y006529D03*
X020201Y006543D03*
X020201Y006550D03*
X020201Y006564D03*
X020201Y006578D03*
X020201Y006585D03*
X020201Y006599D03*
X020201Y006613D03*
X020201Y006620D03*
X020201Y006634D03*
X020201Y006648D03*
X020201Y006655D03*
X020201Y006669D03*
X020201Y006683D03*
X020201Y006690D03*
X020201Y006704D03*
X020201Y006718D03*
X020201Y006725D03*
X020201Y006739D03*
X020201Y006753D03*
X020201Y006760D03*
X020201Y006774D03*
X020201Y006788D03*
X020201Y006795D03*
X020201Y006809D03*
X020201Y006823D03*
X020201Y006830D03*
X020201Y006844D03*
X020201Y006858D03*
X020201Y006865D03*
X020201Y006879D03*
X020201Y006893D03*
X020201Y006900D03*
X020201Y006914D03*
X020201Y006928D03*
X020201Y006935D03*
X020201Y006949D03*
X020201Y006963D03*
X020201Y006970D03*
X020201Y006984D03*
X020201Y006998D03*
X020201Y007005D03*
X020201Y007019D03*
X020201Y007033D03*
X020201Y007040D03*
X020201Y007054D03*
X020201Y007068D03*
X020201Y007075D03*
X020201Y007089D03*
X020201Y007103D03*
X020201Y007110D03*
X020201Y007124D03*
X020201Y007138D03*
X020201Y007145D03*
X020201Y007159D03*
X020201Y007173D03*
X020201Y007180D03*
X020201Y007194D03*
X020201Y007208D03*
X020201Y007215D03*
X020201Y007229D03*
X020201Y007243D03*
X020201Y007250D03*
X020201Y007264D03*
X020201Y007278D03*
X020201Y007285D03*
X020201Y007299D03*
X020201Y007313D03*
X020201Y007320D03*
X020201Y007334D03*
X020201Y007348D03*
X020201Y007355D03*
X020201Y007369D03*
X020201Y007383D03*
X020201Y007390D03*
X020201Y007404D03*
X020201Y007418D03*
X020201Y007425D03*
X020201Y007439D03*
X020201Y007453D03*
X020201Y007460D03*
X020201Y007474D03*
X020194Y007495D03*
X020201Y006144D03*
X020201Y006130D03*
X020201Y006123D03*
X020201Y006109D03*
X020201Y006095D03*
X020201Y006088D03*
X020201Y006074D03*
X020201Y006060D03*
X020201Y006053D03*
X020201Y006039D03*
X020201Y006025D03*
X020201Y006018D03*
X020201Y006004D03*
X020201Y005990D03*
X020201Y005983D03*
X020201Y005969D03*
X020201Y005955D03*
X020201Y005948D03*
X020201Y005934D03*
X020201Y005920D03*
X020201Y005913D03*
X020201Y005899D03*
X020201Y005885D03*
X020201Y005878D03*
X020201Y005864D03*
D42*
X019739Y006039D03*
X019739Y006844D03*
X016939Y007173D03*
X016939Y006249D03*
X016134Y006249D03*
X014769Y005304D03*
D43*
X014486Y006242D03*
X015060Y006501D03*
X015053Y006907D03*
X014689Y006907D03*
X014493Y007187D03*
X016145Y007187D03*
X016922Y007187D03*
X016929Y006242D03*
X016530Y005311D03*
X018301Y006011D03*
X018308Y005997D03*
X018735Y006172D03*
X018875Y006291D03*
X018735Y006711D03*
X018308Y006886D03*
X018301Y006872D03*
X019715Y006886D03*
X019722Y006872D03*
X019736Y006851D03*
X019743Y006837D03*
X019743Y006046D03*
X019736Y006032D03*
X019722Y006011D03*
X019715Y005997D03*
D44*
X015798Y005311D03*
X015770Y005472D03*
D45*
X014969Y005311D03*
X014766Y005486D03*
D46*
X014766Y005311D03*
X015291Y006256D03*
X014647Y006571D03*
X014661Y006872D03*
X014668Y006886D03*
X014451Y007152D03*
X015291Y007166D03*
X016103Y006277D03*
X016558Y005486D03*
X018238Y006137D03*
X018252Y006102D03*
X018238Y006746D03*
X018252Y006781D03*
X019421Y006312D03*
X019792Y006151D03*
X019778Y006116D03*
X019771Y006102D03*
X019792Y006732D03*
X019778Y006767D03*
X019771Y006781D03*
X016537Y007026D03*
X016537Y007047D03*
X016537Y007061D03*
X016537Y007082D03*
D47*
X013912Y005311D03*
D48*
X014916Y005640D03*
X015280Y006249D03*
X014678Y006515D03*
X014475Y006249D03*
X014678Y006900D03*
X014475Y007173D03*
X014482Y007180D03*
X015273Y007180D03*
X016141Y007180D03*
X016540Y007054D03*
X016932Y007180D03*
X018276Y006830D03*
X018283Y006844D03*
X018297Y006865D03*
X018276Y006053D03*
X018283Y006039D03*
X018290Y006025D03*
X019410Y006298D03*
X019760Y006074D03*
X019753Y006060D03*
X019746Y006053D03*
X019410Y006585D03*
X019760Y006809D03*
X019753Y006823D03*
X019746Y006830D03*
X016526Y005318D03*
D49*
X015802Y005318D03*
D50*
X014965Y005318D03*
X014965Y005325D03*
X014937Y005388D03*
X014937Y005395D03*
X018605Y006550D03*
X019130Y006550D03*
D51*
X018892Y006578D03*
X018899Y006319D03*
X018591Y006284D03*
X018220Y006193D03*
X018213Y006214D03*
X018227Y006165D03*
X018227Y006158D03*
X018234Y006144D03*
X018241Y006130D03*
X018241Y006123D03*
X018248Y006109D03*
X018255Y006095D03*
X018213Y006669D03*
X018220Y006690D03*
X018227Y006718D03*
X018234Y006739D03*
X018241Y006753D03*
X016974Y007145D03*
X016540Y007089D03*
X016540Y007019D03*
X016099Y007145D03*
X016092Y007138D03*
X015322Y007138D03*
X015315Y007145D03*
X015077Y006879D03*
X015098Y006760D03*
X015098Y006585D03*
X015077Y006529D03*
X014650Y006564D03*
X014643Y006578D03*
X014643Y006585D03*
X014636Y006599D03*
X014629Y006620D03*
X014629Y006634D03*
X014622Y006683D03*
X014622Y006690D03*
X014622Y006704D03*
X014622Y006718D03*
X014622Y006725D03*
X014629Y006788D03*
X014650Y006858D03*
X014657Y006865D03*
X014664Y006879D03*
X014440Y007145D03*
X014440Y006284D03*
X014958Y005500D03*
X014769Y005325D03*
X014769Y005318D03*
X016092Y006284D03*
X016561Y005500D03*
X016547Y005479D03*
X016519Y005339D03*
X016960Y006270D03*
X016974Y006284D03*
X019424Y006319D03*
X019431Y006333D03*
X019424Y006564D03*
X019417Y006578D03*
X019795Y006718D03*
X019795Y006725D03*
X019788Y006739D03*
X019781Y006760D03*
X019802Y006704D03*
X019809Y006690D03*
X019809Y006683D03*
X019816Y006655D03*
X019823Y006249D03*
X019816Y006228D03*
X019809Y006200D03*
X019809Y006193D03*
X019802Y006179D03*
X019795Y006165D03*
X019795Y006158D03*
X019788Y006144D03*
X019781Y006123D03*
D52*
X017594Y005640D03*
X013912Y005325D03*
X013912Y005318D03*
D53*
X019666Y005325D03*
D54*
X017923Y005325D03*
D55*
X018273Y006060D03*
X018266Y006074D03*
X018882Y006298D03*
X018882Y006585D03*
X018273Y006823D03*
X018266Y006809D03*
X018252Y006774D03*
X018231Y006725D03*
X016957Y007159D03*
X016537Y007075D03*
X016537Y007068D03*
X016537Y007040D03*
X016537Y007033D03*
X016131Y007173D03*
X016117Y007159D03*
X015298Y007159D03*
X015067Y006893D03*
X015067Y006508D03*
X015298Y006263D03*
X014668Y006529D03*
X014661Y006543D03*
X014451Y006270D03*
X014458Y006263D03*
X014913Y005633D03*
X016117Y006263D03*
X016957Y006263D03*
X016523Y005325D03*
X014458Y007159D03*
X019771Y006788D03*
X019778Y006774D03*
X019778Y006109D03*
X019771Y006095D03*
D56*
X015805Y005325D03*
X015777Y005479D03*
D57*
X015777Y005486D03*
X015812Y005346D03*
X019697Y005332D03*
D58*
X017891Y005332D03*
D59*
X018234Y006151D03*
X018227Y006172D03*
X018220Y006186D03*
X018213Y006207D03*
X018206Y006641D03*
X018220Y006697D03*
X018227Y006711D03*
X018234Y006732D03*
X018248Y006767D03*
X018892Y006571D03*
X018892Y006312D03*
X019417Y006571D03*
X019802Y006697D03*
X019802Y006711D03*
X019809Y006676D03*
X019816Y006662D03*
X019823Y006627D03*
X019816Y006221D03*
X019809Y006207D03*
X019802Y006186D03*
X019802Y006172D03*
X019788Y006137D03*
X016967Y006277D03*
X016085Y006291D03*
X015315Y006277D03*
X015077Y006522D03*
X015084Y006536D03*
X015077Y006872D03*
X015070Y006886D03*
X015308Y007152D03*
X014650Y006851D03*
X014643Y006837D03*
X014636Y006816D03*
X014629Y006781D03*
X014622Y006732D03*
X014622Y006711D03*
X014622Y006697D03*
X014622Y006676D03*
X014629Y006641D03*
X014629Y006627D03*
X014636Y006606D03*
X014636Y006592D03*
X014916Y005626D03*
X016519Y005332D03*
X016085Y007131D03*
X016106Y007152D03*
D60*
X015809Y005332D03*
D61*
X014958Y005332D03*
X014937Y005402D03*
X015098Y006697D03*
D62*
X015102Y006592D03*
X015095Y006571D03*
X015095Y006557D03*
X015088Y006851D03*
X015340Y007117D03*
X015326Y007131D03*
X014633Y006802D03*
X014626Y006767D03*
X014626Y006746D03*
X014626Y006662D03*
X014885Y006347D03*
X015326Y006291D03*
X015347Y006312D03*
X016068Y006312D03*
X016390Y005661D03*
X016516Y005346D03*
X016985Y006291D03*
X016537Y007012D03*
X016537Y007096D03*
X016985Y007131D03*
X016999Y007117D03*
X016075Y007117D03*
X014430Y007131D03*
X014416Y007117D03*
X014409Y006312D03*
X014430Y006291D03*
X014766Y005332D03*
X018203Y006242D03*
X018203Y006256D03*
X018210Y006221D03*
X018196Y006291D03*
X018189Y006347D03*
X018189Y006361D03*
X018189Y006522D03*
X018189Y006536D03*
X018196Y006571D03*
X018196Y006592D03*
X018203Y006627D03*
X018210Y006662D03*
X018217Y006676D03*
X018588Y006592D03*
X018903Y006557D03*
X018910Y006347D03*
X018903Y006326D03*
X019113Y006592D03*
X019428Y006557D03*
X019435Y006536D03*
X019442Y006522D03*
X019449Y006466D03*
X019449Y006452D03*
X019449Y006431D03*
X019449Y006417D03*
X019449Y006396D03*
X019442Y006361D03*
X019435Y006347D03*
X019428Y006326D03*
X019820Y006242D03*
X019827Y006256D03*
X019827Y006277D03*
X019834Y006291D03*
X019834Y006312D03*
X019841Y006347D03*
X019841Y006361D03*
X019841Y006382D03*
X019841Y006501D03*
X019841Y006522D03*
X019841Y006536D03*
X019834Y006557D03*
X019834Y006571D03*
X019834Y006592D03*
X019827Y006606D03*
X019820Y006641D03*
D63*
X013915Y005332D03*
D64*
X019718Y005339D03*
D65*
X017870Y005339D03*
D66*
X015809Y005339D03*
D67*
X015119Y005339D03*
X015098Y006690D03*
X018612Y006543D03*
X019137Y006543D03*
D68*
X019120Y006340D03*
X018595Y006340D03*
X016390Y005549D03*
X014955Y005339D03*
X014885Y007068D03*
D69*
X015098Y006809D03*
X015098Y006753D03*
X015364Y006333D03*
X015350Y006319D03*
X016043Y006340D03*
X016050Y006333D03*
X016540Y007005D03*
X016540Y007103D03*
X017002Y007110D03*
X017009Y007103D03*
X017023Y007089D03*
X017009Y006319D03*
X016533Y005465D03*
X016533Y005458D03*
X016519Y005444D03*
X016512Y005430D03*
X016512Y005423D03*
X016512Y005409D03*
X016512Y005395D03*
X016512Y005388D03*
X016512Y005374D03*
X016512Y005360D03*
X015126Y005388D03*
X015126Y005395D03*
X014769Y005339D03*
X014405Y006319D03*
X014391Y006333D03*
X014391Y007089D03*
X014405Y007103D03*
X015350Y007103D03*
X015364Y007089D03*
X016050Y007089D03*
X018192Y006564D03*
X018185Y006508D03*
X018185Y006494D03*
X018185Y006480D03*
X018185Y006473D03*
X018185Y006459D03*
X018185Y006445D03*
X018185Y006438D03*
X018185Y006424D03*
X018185Y006410D03*
X018185Y006403D03*
X018185Y006389D03*
X018185Y006375D03*
X018185Y006368D03*
X018192Y006319D03*
X018906Y006333D03*
X018913Y006354D03*
X018920Y006375D03*
X018920Y006389D03*
X018920Y006403D03*
X018920Y006410D03*
X018920Y006473D03*
X018920Y006480D03*
X018920Y006494D03*
X018920Y006508D03*
X018913Y006529D03*
X018906Y006543D03*
X018906Y006550D03*
X019102Y006298D03*
X019445Y006375D03*
X019445Y006389D03*
X019452Y006438D03*
X019452Y006445D03*
X019445Y006494D03*
X019445Y006508D03*
X019438Y006529D03*
X019837Y006543D03*
X019837Y006550D03*
X019844Y006480D03*
X019844Y006473D03*
X019844Y006459D03*
X019844Y006445D03*
X019844Y006438D03*
X019844Y006424D03*
X019844Y006410D03*
X019844Y006403D03*
X019837Y006340D03*
X019837Y006333D03*
D70*
X017597Y005633D03*
X013915Y005339D03*
D71*
X015711Y005661D03*
X015774Y005556D03*
X019736Y005346D03*
D72*
X017853Y005346D03*
D73*
X015119Y005346D03*
X014937Y005451D03*
D74*
X014955Y005346D03*
X016390Y005556D03*
D75*
X016390Y005647D03*
X016558Y005507D03*
X016754Y005416D03*
X016754Y005402D03*
X016754Y005381D03*
X017034Y006347D03*
X017041Y006361D03*
X017041Y007061D03*
X016019Y007047D03*
X015396Y007047D03*
X015375Y006347D03*
X016026Y006361D03*
X016040Y006347D03*
X015130Y005402D03*
X015123Y005381D03*
X014766Y005346D03*
X014381Y006347D03*
X014374Y006361D03*
X014374Y007061D03*
X014388Y007082D03*
X018924Y006466D03*
X018924Y006452D03*
X018924Y006431D03*
X018924Y006417D03*
D76*
X013919Y005346D03*
D77*
X019750Y005353D03*
D78*
X017839Y005353D03*
D79*
X016768Y005353D03*
X016558Y005528D03*
X016390Y005619D03*
X015949Y006515D03*
X015949Y006529D03*
X015942Y006543D03*
X015942Y006550D03*
X015935Y006564D03*
X015935Y006578D03*
X015935Y006585D03*
X015928Y006613D03*
X015928Y006620D03*
X015921Y006683D03*
X015921Y006690D03*
X015921Y006704D03*
X015921Y006718D03*
X015921Y006725D03*
X015921Y006739D03*
X015928Y006788D03*
X015928Y006795D03*
X015928Y006809D03*
X015935Y006830D03*
X015935Y006844D03*
X015935Y006858D03*
X015942Y006865D03*
X015942Y006879D03*
X015949Y006893D03*
X015949Y006900D03*
X015487Y006830D03*
X015487Y006823D03*
X015487Y006809D03*
X015494Y006788D03*
X015494Y006774D03*
X015494Y006760D03*
X015494Y006753D03*
X015494Y006669D03*
X015494Y006655D03*
X015494Y006648D03*
X015494Y006634D03*
X015487Y006613D03*
X015487Y006599D03*
X015487Y006585D03*
X015480Y006578D03*
X015480Y006564D03*
X015473Y006543D03*
X015466Y006515D03*
X015480Y006844D03*
X015480Y006858D03*
X015480Y006865D03*
X015473Y006879D03*
X015466Y006900D03*
X016537Y006984D03*
X016537Y007124D03*
X017125Y006900D03*
X017132Y006879D03*
X017132Y006865D03*
X017139Y006858D03*
X017139Y006844D03*
X017146Y006823D03*
X017146Y006809D03*
X017153Y006760D03*
X017153Y006753D03*
X017153Y006739D03*
X017153Y006725D03*
X017153Y006718D03*
X017153Y006704D03*
X017153Y006690D03*
X017153Y006683D03*
X017153Y006669D03*
X017153Y006655D03*
X017146Y006620D03*
X017146Y006613D03*
X017146Y006599D03*
X017139Y006585D03*
X017139Y006578D03*
X017139Y006564D03*
X017132Y006550D03*
X017132Y006543D03*
X018588Y006578D03*
X015130Y005584D03*
X015130Y005570D03*
X015123Y005360D03*
X014941Y005479D03*
X014913Y005563D03*
X014913Y005570D03*
X014297Y006508D03*
X014290Y006529D03*
X014283Y006543D03*
X014283Y006550D03*
X014283Y006564D03*
X014276Y006578D03*
X014276Y006585D03*
X014269Y006613D03*
X014269Y006620D03*
X014269Y006634D03*
X014269Y006648D03*
X014269Y006774D03*
X014269Y006788D03*
X014269Y006795D03*
X014269Y006809D03*
X014276Y006823D03*
X014276Y006830D03*
X014276Y006844D03*
X014283Y006858D03*
X014283Y006865D03*
X014290Y006893D03*
X014290Y006900D03*
X014297Y006914D03*
X014304Y006935D03*
D80*
X014409Y007110D03*
X014423Y007124D03*
X014437Y007138D03*
X014647Y006844D03*
X014640Y006830D03*
X014640Y006823D03*
X014633Y006809D03*
X014633Y006795D03*
X014626Y006774D03*
X014626Y006760D03*
X014626Y006753D03*
X014626Y006739D03*
X014626Y006669D03*
X014626Y006655D03*
X014626Y006648D03*
X014633Y006613D03*
X015081Y006865D03*
X015088Y006858D03*
X015088Y006844D03*
X015095Y006830D03*
X015095Y006823D03*
X015102Y006599D03*
X015095Y006578D03*
X015095Y006564D03*
X015088Y006550D03*
X015088Y006543D03*
X015333Y006298D03*
X015340Y006305D03*
X015319Y006284D03*
X014913Y005619D03*
X014423Y006298D03*
X014416Y006305D03*
X015333Y007124D03*
X015347Y007110D03*
X016061Y007103D03*
X016068Y007110D03*
X016082Y007124D03*
X016061Y006319D03*
X016075Y006305D03*
X016082Y006298D03*
X016390Y005654D03*
X016516Y005353D03*
X016992Y006298D03*
X016999Y006305D03*
X016992Y007124D03*
X016978Y007138D03*
X018224Y006704D03*
X018217Y006683D03*
X018210Y006655D03*
X018210Y006648D03*
X018203Y006634D03*
X018203Y006620D03*
X018203Y006613D03*
X018196Y006599D03*
X018196Y006585D03*
X018196Y006578D03*
X018189Y006550D03*
X018189Y006543D03*
X018189Y006529D03*
X018189Y006515D03*
X018189Y006354D03*
X018189Y006340D03*
X018189Y006333D03*
X018196Y006305D03*
X018196Y006298D03*
X018196Y006284D03*
X018203Y006270D03*
X018203Y006263D03*
X018203Y006249D03*
X018210Y006235D03*
X018210Y006228D03*
X018217Y006200D03*
X018224Y006179D03*
X018910Y006340D03*
X018917Y006368D03*
X018896Y006564D03*
X019435Y006550D03*
X019435Y006543D03*
X019442Y006515D03*
X019449Y006480D03*
X019449Y006473D03*
X019449Y006459D03*
X019449Y006424D03*
X019449Y006410D03*
X019449Y006403D03*
X019442Y006368D03*
X019442Y006354D03*
X019435Y006340D03*
X019827Y006284D03*
X019827Y006270D03*
X019827Y006263D03*
X019820Y006235D03*
X019813Y006214D03*
X019834Y006298D03*
X019834Y006305D03*
X019834Y006319D03*
X019841Y006354D03*
X019841Y006368D03*
X019841Y006375D03*
X019841Y006389D03*
X019841Y006494D03*
X019841Y006508D03*
X019841Y006515D03*
X019841Y006529D03*
X019834Y006564D03*
X019834Y006578D03*
X019834Y006585D03*
X019827Y006599D03*
X019827Y006613D03*
X019827Y006620D03*
X019820Y006634D03*
X019820Y006648D03*
X019813Y006669D03*
D81*
X015812Y005353D03*
D82*
X015123Y005353D03*
X016558Y005549D03*
D83*
X016537Y006963D03*
X014948Y005360D03*
X014948Y005353D03*
X014766Y005514D03*
D84*
X014766Y005353D03*
X014955Y005493D03*
X014913Y005605D03*
X015130Y005409D03*
X015368Y006340D03*
X015389Y006368D03*
X015396Y006375D03*
X016019Y006375D03*
X016033Y006354D03*
X016026Y007054D03*
X016033Y007068D03*
X016040Y007075D03*
X015389Y007054D03*
X015375Y007075D03*
X014381Y007075D03*
X014374Y007068D03*
X014374Y006354D03*
X014388Y006340D03*
X016754Y005409D03*
X016754Y005395D03*
X016754Y005388D03*
X017020Y006333D03*
X017034Y006354D03*
X017048Y006368D03*
X017048Y007054D03*
X017041Y007068D03*
X017034Y007075D03*
X018574Y006298D03*
X018924Y006424D03*
X018924Y006438D03*
X018924Y006445D03*
X018924Y006459D03*
D85*
X013919Y005360D03*
X013919Y005353D03*
D86*
X019764Y005360D03*
D87*
X017825Y005360D03*
D88*
X016761Y005360D03*
X016761Y005549D03*
X016761Y005563D03*
X016761Y005570D03*
X016390Y005633D03*
X015998Y006410D03*
X015991Y006424D03*
X015984Y006438D03*
X015977Y006445D03*
X015977Y006970D03*
X015984Y006984D03*
X015991Y006998D03*
X015438Y006970D03*
X015431Y006984D03*
X015424Y006998D03*
X015438Y006445D03*
X015431Y006438D03*
X015424Y006424D03*
X015417Y006410D03*
X014913Y005584D03*
X014339Y006410D03*
X014332Y006424D03*
X014325Y006438D03*
X014318Y006970D03*
X014325Y006984D03*
X014332Y006998D03*
X014339Y007005D03*
X014346Y007019D03*
X014353Y007033D03*
X017083Y006998D03*
X017090Y006984D03*
X017097Y006970D03*
X017090Y006438D03*
X017083Y006424D03*
X017076Y006410D03*
X017069Y006403D03*
X018735Y006718D03*
X019113Y006585D03*
X019260Y006718D03*
D89*
X015781Y005493D03*
X015816Y005374D03*
X015816Y005360D03*
D90*
X016393Y005640D03*
X016554Y005514D03*
X016645Y005668D03*
X017058Y006389D03*
X017079Y007005D03*
X017058Y007033D03*
X017058Y007040D03*
X016015Y007040D03*
X016008Y007033D03*
X015994Y007005D03*
X015420Y007005D03*
X015413Y007019D03*
X015399Y007040D03*
X015413Y006403D03*
X016008Y006389D03*
X014909Y005598D03*
X014769Y005360D03*
X014363Y006375D03*
X014349Y006389D03*
X018584Y006585D03*
X018738Y006165D03*
X019263Y006165D03*
D91*
X019774Y005367D03*
D92*
X017814Y005367D03*
D93*
X016757Y005367D03*
X015406Y006396D03*
X015406Y007026D03*
X014881Y007061D03*
X014356Y006382D03*
X017051Y007047D03*
D94*
X017016Y007096D03*
X017016Y006326D03*
X017002Y006312D03*
X016540Y005472D03*
X016526Y005451D03*
X016519Y005437D03*
X016512Y005416D03*
X016512Y005402D03*
X016512Y005381D03*
X016512Y005367D03*
X016057Y006326D03*
X015357Y006326D03*
X015098Y006816D03*
X015091Y006837D03*
X015357Y007096D03*
X015371Y007082D03*
X016043Y007082D03*
X016057Y007096D03*
X014398Y007096D03*
X014398Y006326D03*
X014909Y005612D03*
X018199Y006277D03*
X018192Y006312D03*
X018192Y006326D03*
X018185Y006382D03*
X018185Y006396D03*
X018185Y006417D03*
X018185Y006431D03*
X018185Y006452D03*
X018185Y006466D03*
X018185Y006487D03*
X018185Y006501D03*
X018192Y006557D03*
X018199Y006606D03*
X018584Y006291D03*
X018913Y006361D03*
X018920Y006382D03*
X018920Y006396D03*
X018920Y006487D03*
X018920Y006501D03*
X018913Y006522D03*
X018913Y006536D03*
X019109Y006291D03*
X019445Y006382D03*
X019445Y006487D03*
X019445Y006501D03*
X019844Y006487D03*
X019844Y006466D03*
X019844Y006452D03*
X019844Y006431D03*
X019844Y006417D03*
X019844Y006396D03*
X019837Y006326D03*
D95*
X015816Y005367D03*
D96*
X015123Y005367D03*
X014948Y005486D03*
X014913Y005577D03*
X015431Y006431D03*
X015438Y006452D03*
X015452Y006942D03*
X015445Y006956D03*
X015438Y006977D03*
X015431Y006991D03*
X015417Y007012D03*
X015970Y006956D03*
X015984Y006991D03*
X015998Y007012D03*
X016537Y006991D03*
X016537Y007117D03*
X017076Y007012D03*
X017083Y006991D03*
X017104Y006956D03*
X017104Y006466D03*
X017097Y006452D03*
X017083Y006431D03*
X016761Y005556D03*
X016761Y005542D03*
X016761Y005437D03*
X016005Y006396D03*
X015991Y006417D03*
X015984Y006431D03*
X014318Y006452D03*
X014332Y006991D03*
X014339Y007012D03*
D97*
X014944Y005381D03*
X014944Y005367D03*
D98*
X013922Y005367D03*
X013922Y005381D03*
D99*
X019015Y005640D03*
X019785Y005374D03*
D100*
X017804Y005374D03*
D101*
X016757Y005374D03*
X016757Y005423D03*
X016757Y005430D03*
X017051Y006375D03*
X017072Y007019D03*
X016001Y007019D03*
X015406Y007033D03*
X015406Y006389D03*
X016001Y006403D03*
X016022Y006368D03*
X015126Y005374D03*
X014342Y006403D03*
X014356Y007040D03*
D102*
X014769Y005500D03*
X014944Y005374D03*
D103*
X013922Y005374D03*
D104*
X019795Y005381D03*
D105*
X017793Y005381D03*
D106*
X015819Y005381D03*
X015819Y005402D03*
D107*
X019806Y005388D03*
D108*
X017783Y005388D03*
D109*
X015819Y005388D03*
X015819Y005395D03*
X015819Y005409D03*
D110*
X013926Y005395D03*
X013926Y005388D03*
D111*
X019816Y005395D03*
D112*
X017772Y005395D03*
D113*
X019823Y005402D03*
D114*
X017765Y005402D03*
D115*
X013929Y005402D03*
X013929Y005416D03*
D116*
X019830Y005409D03*
D117*
X017758Y005409D03*
D118*
X018735Y006158D03*
X016537Y007145D03*
X016390Y005563D03*
X014934Y005409D03*
X014766Y005493D03*
D119*
X013929Y005409D03*
X017611Y005605D03*
D120*
X019841Y005416D03*
D121*
X017748Y005416D03*
D122*
X015707Y005416D03*
D123*
X014937Y005416D03*
X013264Y005871D03*
X013264Y005892D03*
X013264Y005906D03*
X013264Y005927D03*
X013264Y005941D03*
X013264Y005962D03*
X013264Y005976D03*
X013264Y005997D03*
X013264Y006011D03*
X013264Y006032D03*
X013264Y006046D03*
X013264Y006067D03*
X013264Y006081D03*
X013264Y006102D03*
X013264Y006116D03*
X013264Y006137D03*
X013264Y006151D03*
X013264Y006172D03*
X013264Y006186D03*
X013264Y006207D03*
X013264Y006221D03*
X013264Y006242D03*
X013264Y006256D03*
X013264Y006277D03*
X013264Y006291D03*
X013264Y006312D03*
X013264Y006326D03*
X013264Y006347D03*
X013264Y006361D03*
X013264Y006382D03*
X013264Y006396D03*
X013264Y006417D03*
X013264Y006431D03*
X013264Y006452D03*
X013264Y006466D03*
X013264Y006487D03*
X013264Y006501D03*
X013264Y006522D03*
X013264Y006536D03*
X013264Y006557D03*
X013264Y006571D03*
X013264Y006592D03*
X013264Y006606D03*
X013264Y006627D03*
X013264Y006641D03*
X013264Y006662D03*
X013264Y006676D03*
X013264Y006697D03*
X013264Y006711D03*
X013264Y006732D03*
X013264Y006746D03*
X013264Y006767D03*
X013264Y006781D03*
X013264Y006802D03*
X013264Y006816D03*
X013264Y006837D03*
X013264Y006851D03*
X013264Y006872D03*
X013264Y006886D03*
X013264Y006907D03*
X013264Y006921D03*
X013264Y006942D03*
X013264Y006956D03*
X013264Y006977D03*
X013264Y006991D03*
X013264Y007012D03*
X013264Y007026D03*
X013264Y007047D03*
X013264Y007061D03*
X013264Y007082D03*
X013264Y007096D03*
X013264Y007117D03*
X013264Y007131D03*
X013264Y007152D03*
X013264Y007166D03*
X013264Y007187D03*
X013264Y007201D03*
X013264Y007222D03*
X013264Y007236D03*
X013264Y007257D03*
X013264Y007271D03*
X013264Y007292D03*
X013264Y007306D03*
X013264Y007327D03*
X013264Y007341D03*
X013264Y007362D03*
X013264Y007376D03*
X013264Y007397D03*
X013264Y007411D03*
X013264Y007432D03*
X013264Y007446D03*
X013264Y007467D03*
X013264Y007481D03*
X020201Y007481D03*
X020201Y007467D03*
X020201Y007446D03*
X020201Y007432D03*
X020201Y007411D03*
X020201Y007397D03*
X020201Y007376D03*
X020201Y007362D03*
X020201Y007341D03*
X020201Y007327D03*
X020201Y007306D03*
X020201Y007292D03*
X020201Y007271D03*
X020201Y007257D03*
X020201Y007236D03*
X020201Y007222D03*
X020201Y007201D03*
X020201Y007187D03*
X020201Y007166D03*
X020201Y007152D03*
X020201Y007131D03*
X020201Y007117D03*
X020201Y007096D03*
X020201Y007082D03*
X020201Y007061D03*
X020201Y007047D03*
X020201Y007026D03*
X020201Y007012D03*
X020201Y006991D03*
X020201Y006977D03*
X020201Y006956D03*
X020201Y006942D03*
X020201Y006921D03*
X020201Y006907D03*
X020201Y006886D03*
X020201Y006872D03*
X020201Y006851D03*
X020201Y006837D03*
X020201Y006816D03*
X020201Y006802D03*
X020201Y006781D03*
X020201Y006767D03*
X020201Y006746D03*
X020201Y006732D03*
X020201Y006711D03*
X020201Y006697D03*
X020201Y006676D03*
X020201Y006662D03*
X020201Y006641D03*
X020201Y006627D03*
X020201Y006606D03*
X020201Y006592D03*
X020201Y006571D03*
X020201Y006557D03*
X020201Y006536D03*
X020201Y006522D03*
X020201Y006501D03*
X020201Y006487D03*
X020201Y006466D03*
X020201Y006452D03*
X020201Y006431D03*
X020201Y006417D03*
X020201Y006396D03*
X020201Y006382D03*
X020201Y006361D03*
X020201Y006347D03*
X020201Y006326D03*
X020201Y006312D03*
X020201Y006291D03*
X020201Y006277D03*
X020201Y006256D03*
X020201Y006242D03*
X020201Y006221D03*
X020201Y006207D03*
X020201Y006186D03*
X020201Y006172D03*
X020201Y006151D03*
X020201Y006137D03*
X020201Y006116D03*
X020201Y006102D03*
X020201Y006081D03*
X020201Y006067D03*
X020201Y006046D03*
X020201Y006032D03*
X020201Y006011D03*
X020201Y005997D03*
X020201Y005976D03*
X020201Y005962D03*
X020201Y005941D03*
X020201Y005927D03*
X020201Y005906D03*
X020201Y005892D03*
X020201Y005871D03*
D124*
X019848Y005423D03*
X019015Y007278D03*
D125*
X017741Y005423D03*
D126*
X015711Y005423D03*
D127*
X015130Y005605D03*
X014934Y005430D03*
X014934Y005423D03*
X016390Y005570D03*
X016593Y005633D03*
X013268Y007488D03*
X020198Y007488D03*
D128*
X017615Y005598D03*
X013933Y005430D03*
X013933Y005423D03*
D129*
X014878Y006144D03*
X014878Y007278D03*
X016537Y007278D03*
X016537Y006144D03*
X019855Y005430D03*
D130*
X017734Y005430D03*
D131*
X015721Y005430D03*
D132*
X019862Y005437D03*
D133*
X017727Y005437D03*
D134*
X015728Y005437D03*
D135*
X014766Y005437D03*
D136*
X013933Y005437D03*
D137*
X019015Y005598D03*
X019869Y005444D03*
D138*
X017720Y005444D03*
D139*
X016764Y005444D03*
X016764Y005528D03*
X016764Y005535D03*
X016764Y005584D03*
X017093Y006445D03*
X017100Y006459D03*
X017107Y006473D03*
X017107Y006480D03*
X017114Y006494D03*
X017121Y006508D03*
X017121Y006515D03*
X017128Y006529D03*
X017128Y006893D03*
X017121Y006914D03*
X017114Y006928D03*
X017114Y006935D03*
X017107Y006949D03*
X017100Y006963D03*
X015973Y006963D03*
X015966Y006949D03*
X015959Y006935D03*
X015959Y006928D03*
X015952Y006914D03*
X015952Y006508D03*
X015959Y006494D03*
X015966Y006480D03*
X015966Y006473D03*
X015973Y006459D03*
X015476Y006550D03*
X015469Y006529D03*
X015462Y006508D03*
X015455Y006494D03*
X015455Y006480D03*
X015448Y006473D03*
X015441Y006459D03*
X015098Y006739D03*
X015469Y006893D03*
X015462Y006914D03*
X015455Y006928D03*
X015455Y006935D03*
X015448Y006949D03*
X015441Y006963D03*
X014314Y006963D03*
X014307Y006949D03*
X014300Y006928D03*
X014286Y006879D03*
X014293Y006515D03*
X014300Y006494D03*
X014307Y006480D03*
X014307Y006473D03*
X014314Y006459D03*
X014321Y006445D03*
X015126Y005563D03*
X018577Y006305D03*
X019102Y006305D03*
D140*
X015742Y005444D03*
D141*
X016390Y005584D03*
X016565Y005584D03*
X014934Y005444D03*
X014766Y005458D03*
X014885Y006340D03*
X018595Y006564D03*
X019120Y006564D03*
D142*
X013936Y005444D03*
D143*
X019872Y005451D03*
D144*
X017716Y005451D03*
D145*
X016775Y005451D03*
X016390Y005612D03*
X015130Y005591D03*
D146*
X015749Y005451D03*
D147*
X016390Y005591D03*
X016565Y005577D03*
X014766Y005451D03*
X018588Y006326D03*
D148*
X013936Y005451D03*
D149*
X019879Y005458D03*
D150*
X017709Y005458D03*
D151*
X015763Y005458D03*
D152*
X013940Y005458D03*
X013940Y005465D03*
D153*
X014881Y007299D03*
X016533Y007299D03*
X019886Y005465D03*
D154*
X017702Y005465D03*
D155*
X015767Y005465D03*
D156*
X016393Y005605D03*
X016778Y005598D03*
X016778Y005514D03*
X015098Y006725D03*
X014937Y005465D03*
D157*
X019893Y005472D03*
D158*
X017695Y005472D03*
D159*
X016558Y005542D03*
X016537Y006032D03*
X016537Y006977D03*
X016537Y007131D03*
X014941Y005472D03*
X018581Y006312D03*
X019106Y006312D03*
D160*
X013940Y005472D03*
D161*
X019897Y005479D03*
D162*
X017692Y005479D03*
D163*
X013943Y005479D03*
X013943Y005493D03*
D164*
X016537Y006116D03*
X019904Y005486D03*
D165*
X017685Y005486D03*
D166*
X017625Y005577D03*
X013943Y005486D03*
D167*
X019907Y005493D03*
D168*
X017681Y005493D03*
D169*
X018259Y006088D03*
X018595Y006599D03*
X018259Y006788D03*
X018259Y006795D03*
X018245Y006760D03*
X018889Y006305D03*
X019120Y006284D03*
X019414Y006305D03*
X019785Y006130D03*
X019764Y006088D03*
X019785Y006753D03*
X019764Y006795D03*
X019120Y006599D03*
X016565Y005493D03*
X016390Y005668D03*
X016110Y006270D03*
X015305Y006270D03*
X015074Y006515D03*
X014654Y006550D03*
X014675Y006893D03*
X015060Y006900D03*
X015284Y007173D03*
D170*
X019914Y005500D03*
D171*
X017674Y005500D03*
D172*
X015781Y005500D03*
D173*
X013947Y005500D03*
X017629Y005570D03*
D174*
X019015Y005577D03*
X019918Y005507D03*
D175*
X017671Y005507D03*
D176*
X015781Y005507D03*
X019015Y007201D03*
D177*
X018332Y006921D03*
X018325Y006907D03*
X018325Y005976D03*
X018332Y005962D03*
X019697Y005976D03*
X019697Y006907D03*
X019690Y006921D03*
X016904Y007201D03*
X016904Y006221D03*
X016169Y006221D03*
X015245Y006221D03*
X014692Y006501D03*
X014510Y007201D03*
X015245Y007201D03*
X014972Y005507D03*
D178*
X014766Y005507D03*
D179*
X013947Y005507D03*
D180*
X014878Y007320D03*
X016537Y007320D03*
X019925Y005514D03*
D181*
X017664Y005514D03*
D182*
X015784Y005514D03*
D183*
X013950Y005514D03*
X013950Y005528D03*
X017632Y005563D03*
D184*
X019928Y005521D03*
X014881Y006102D03*
D185*
X017660Y005521D03*
D186*
X016771Y005521D03*
X017142Y006592D03*
X015931Y006592D03*
X015490Y006627D03*
X015497Y006697D03*
X015497Y006711D03*
X015497Y006732D03*
X015490Y006802D03*
X015098Y006732D03*
X014881Y006032D03*
X014272Y006606D03*
X014265Y006662D03*
X014265Y006676D03*
X014265Y006697D03*
X014265Y006711D03*
X014265Y006732D03*
X014265Y006746D03*
X014265Y006767D03*
X014272Y006816D03*
D187*
X014293Y006907D03*
X014300Y006921D03*
X014307Y006942D03*
X014314Y006956D03*
X014321Y006977D03*
X014286Y006536D03*
X014300Y006487D03*
X014314Y006466D03*
X014328Y006431D03*
X015448Y006466D03*
X015455Y006487D03*
X015462Y006501D03*
X015476Y006872D03*
X015462Y006921D03*
X015945Y006886D03*
X015952Y006907D03*
X015966Y006942D03*
X015980Y006977D03*
X015959Y006487D03*
X015966Y006466D03*
X015973Y006452D03*
X016554Y005521D03*
X016764Y005577D03*
X017114Y006487D03*
X017128Y006536D03*
X017135Y006557D03*
X017128Y006886D03*
X017121Y006907D03*
X017107Y006942D03*
X017093Y006977D03*
X015126Y005556D03*
D188*
X015781Y005521D03*
D189*
X014993Y005521D03*
X015098Y006802D03*
X018486Y007082D03*
X019263Y006697D03*
X019536Y007082D03*
X019263Y006186D03*
X018738Y006186D03*
X018465Y005822D03*
D190*
X014769Y005521D03*
D191*
X013950Y005521D03*
D192*
X019932Y005528D03*
D193*
X017657Y005528D03*
D194*
X016390Y005528D03*
X014766Y005549D03*
D195*
X015781Y005528D03*
D196*
X015007Y005528D03*
X014881Y006368D03*
X018731Y006690D03*
D197*
X018735Y006725D03*
X016390Y005535D03*
X014766Y005535D03*
X014766Y005528D03*
D198*
X016537Y006095D03*
X019015Y005570D03*
X019939Y005535D03*
D199*
X019449Y005745D03*
X019015Y005535D03*
X018574Y005745D03*
X018735Y006200D03*
X018735Y006683D03*
X018567Y007138D03*
X019015Y007348D03*
X019456Y007138D03*
X019260Y006683D03*
X019267Y006200D03*
X014878Y007033D03*
D200*
X013968Y005619D03*
X017650Y005535D03*
D201*
X016554Y005535D03*
X017149Y006634D03*
X017149Y006648D03*
X017149Y006774D03*
X017149Y006788D03*
X017149Y006795D03*
X015924Y006774D03*
X015924Y006760D03*
X015924Y006753D03*
X015924Y006669D03*
X015924Y006655D03*
X015924Y006648D03*
X015924Y006634D03*
D202*
X015781Y005535D03*
X019015Y005675D03*
D203*
X019438Y005738D03*
X020075Y005850D03*
X018584Y007145D03*
X014881Y006375D03*
X015014Y005535D03*
D204*
X013954Y005535D03*
X013954Y005549D03*
D205*
X019942Y005542D03*
D206*
X020044Y005752D03*
X019015Y005542D03*
X014878Y007012D03*
D207*
X013964Y005591D03*
X017646Y005542D03*
D208*
X018602Y006347D03*
X019127Y006347D03*
X016390Y005542D03*
D209*
X015777Y005542D03*
D210*
X015021Y005542D03*
X018738Y006207D03*
X018731Y006676D03*
X019263Y006207D03*
X019431Y007152D03*
D211*
X014769Y005542D03*
D212*
X013954Y005542D03*
D213*
X019946Y005549D03*
D214*
X020009Y005668D03*
X019267Y006270D03*
X019260Y006613D03*
X018735Y006613D03*
X018735Y006270D03*
X019015Y005549D03*
X019015Y007334D03*
X014871Y006984D03*
X014878Y006424D03*
D215*
X013961Y005584D03*
X017643Y005549D03*
D216*
X015777Y005549D03*
D217*
X015025Y005549D03*
X016306Y006158D03*
X019414Y007159D03*
X020065Y005815D03*
D218*
X019949Y005556D03*
D219*
X019011Y005556D03*
D220*
X017639Y005556D03*
D221*
X016624Y005661D03*
X016561Y005556D03*
X018591Y006571D03*
X019116Y006571D03*
D222*
X017153Y006662D03*
X017153Y006676D03*
X017153Y006697D03*
X017153Y006711D03*
X017153Y006732D03*
X017153Y006746D03*
X017153Y006767D03*
X017146Y006802D03*
X017146Y006816D03*
X017139Y006837D03*
X017139Y006851D03*
X017132Y006872D03*
X017118Y006921D03*
X017146Y006606D03*
X017139Y006571D03*
X017125Y006522D03*
X017118Y006501D03*
X016390Y005626D03*
X016768Y005591D03*
X015956Y006501D03*
X015949Y006522D03*
X015942Y006536D03*
X015942Y006557D03*
X015935Y006571D03*
X015928Y006606D03*
X015928Y006627D03*
X015921Y006676D03*
X015921Y006697D03*
X015921Y006711D03*
X015921Y006732D03*
X015921Y006746D03*
X015928Y006802D03*
X015928Y006816D03*
X015935Y006837D03*
X015935Y006851D03*
X015942Y006872D03*
X015956Y006921D03*
X015487Y006837D03*
X015480Y006851D03*
X015487Y006816D03*
X015494Y006781D03*
X015494Y006767D03*
X015494Y006746D03*
X015494Y006676D03*
X015494Y006662D03*
X015494Y006641D03*
X015487Y006606D03*
X015487Y006592D03*
X015480Y006571D03*
X015480Y006557D03*
X015473Y006536D03*
X015466Y006522D03*
X015473Y006886D03*
X015466Y006907D03*
X014290Y006886D03*
X014283Y006872D03*
X014276Y006851D03*
X014276Y006837D03*
X014269Y006802D03*
X014269Y006781D03*
X014269Y006641D03*
X014269Y006627D03*
X014276Y006592D03*
X014276Y006571D03*
X014283Y006557D03*
X014290Y006522D03*
X014297Y006501D03*
X014913Y005556D03*
X015130Y005577D03*
D223*
X014766Y005556D03*
X018616Y006536D03*
X019141Y006536D03*
D224*
X013957Y005556D03*
D225*
X014881Y006088D03*
X016540Y006088D03*
X019011Y007320D03*
X019956Y005563D03*
D226*
X019960Y005570D03*
X019015Y005563D03*
D227*
X019015Y007215D03*
X015774Y005563D03*
X015718Y005654D03*
D228*
X014769Y005563D03*
X018605Y006354D03*
X019130Y006354D03*
D229*
X013957Y005570D03*
X013957Y005563D03*
D230*
X015770Y005570D03*
D231*
X019963Y005577D03*
D232*
X015767Y005577D03*
X015725Y005647D03*
D233*
X013961Y005577D03*
D234*
X014878Y006473D03*
X014871Y006928D03*
X014871Y006935D03*
X019967Y005584D03*
D235*
X019011Y005584D03*
D236*
X017622Y005584D03*
D237*
X015767Y005584D03*
X015760Y005598D03*
X015739Y005633D03*
X015732Y005640D03*
D238*
X014881Y006081D03*
X014874Y006466D03*
X014881Y007341D03*
X019970Y005591D03*
D239*
X019015Y005591D03*
D240*
X017618Y005591D03*
D241*
X016572Y005591D03*
D242*
X015763Y005591D03*
X015749Y005612D03*
X015742Y005626D03*
X019011Y007222D03*
D243*
X017065Y007026D03*
X017079Y006417D03*
X017065Y006396D03*
X017058Y006382D03*
X016015Y006382D03*
X015420Y006417D03*
X015399Y006382D03*
X015385Y006361D03*
X015098Y006746D03*
X015385Y007061D03*
X016008Y007026D03*
X016029Y007061D03*
X014363Y007047D03*
X014349Y007026D03*
X014335Y006417D03*
X014349Y006396D03*
X014909Y005591D03*
D244*
X019974Y005598D03*
D245*
X018581Y006319D03*
X016537Y007390D03*
X014878Y007390D03*
X015130Y005598D03*
X016390Y005598D03*
D246*
X013964Y005598D03*
X013964Y005605D03*
D247*
X014874Y006459D03*
X019977Y005605D03*
D248*
X019011Y005605D03*
D249*
X015756Y005605D03*
X015749Y005619D03*
D250*
X014878Y006452D03*
X019015Y007327D03*
X019981Y005612D03*
D251*
X019011Y005612D03*
D252*
X017608Y005612D03*
D253*
X013968Y005612D03*
X013968Y005626D03*
D254*
X019984Y005619D03*
D255*
X019011Y005619D03*
D256*
X017604Y005619D03*
D257*
X016596Y005640D03*
X016582Y005619D03*
X020187Y007509D03*
D258*
X019988Y005626D03*
D259*
X019011Y005626D03*
D260*
X017601Y005626D03*
D261*
X019991Y005633D03*
D262*
X019015Y005633D03*
D263*
X013971Y005633D03*
X013971Y005640D03*
D264*
X014878Y006438D03*
X014871Y006970D03*
X019995Y005640D03*
D265*
X019998Y005647D03*
D266*
X019011Y005647D03*
D267*
X020180Y007516D03*
X016603Y005647D03*
X015098Y006711D03*
X013285Y007516D03*
D268*
X014514Y006221D03*
X014920Y005647D03*
X016537Y006277D03*
X016537Y006291D03*
X016537Y006312D03*
X016537Y006326D03*
X016537Y006347D03*
X016537Y006361D03*
X016537Y006382D03*
X016537Y006396D03*
X016537Y006417D03*
X016537Y006431D03*
X016537Y006452D03*
X016537Y006466D03*
X016537Y006487D03*
X016537Y006501D03*
X016537Y006522D03*
X016537Y006536D03*
X016537Y006557D03*
X016537Y006571D03*
X016537Y006592D03*
X016166Y007201D03*
X018350Y006942D03*
X018350Y005941D03*
X019673Y005941D03*
X019687Y005962D03*
X019673Y006942D03*
D269*
X013975Y005661D03*
X013975Y005647D03*
D270*
X020002Y005654D03*
D271*
X019011Y005654D03*
D272*
X017587Y005654D03*
D273*
X018374Y005913D03*
X018374Y006970D03*
X019648Y006970D03*
X019655Y006963D03*
X019669Y006949D03*
X019655Y005920D03*
X019648Y005913D03*
X016883Y007215D03*
X014923Y005654D03*
X014699Y006494D03*
D274*
X013975Y005654D03*
D275*
X014881Y006067D03*
X018738Y006277D03*
X019263Y006277D03*
X019263Y006606D03*
X020005Y005661D03*
D276*
X019011Y005661D03*
D277*
X017583Y005661D03*
D278*
X018409Y007012D03*
X018423Y007026D03*
X019599Y007026D03*
X019613Y007012D03*
X019613Y005871D03*
X014930Y005661D03*
D279*
X019011Y005668D03*
D280*
X017580Y005668D03*
D281*
X019011Y007208D03*
X015700Y005668D03*
D282*
X014934Y005668D03*
X014584Y006179D03*
X015179Y007243D03*
X018469Y007068D03*
X019554Y007068D03*
X018455Y005829D03*
D283*
X013978Y005668D03*
D284*
X018738Y006263D03*
X019263Y006263D03*
X020012Y005675D03*
D285*
X016701Y005675D03*
D286*
X014164Y005675D03*
D287*
X014878Y006417D03*
X018700Y005696D03*
X020016Y005682D03*
X018693Y007187D03*
D288*
X019011Y005682D03*
D289*
X015732Y005682D03*
D290*
X020019Y005689D03*
D291*
X019011Y005689D03*
D292*
X015728Y005689D03*
D293*
X020023Y005696D03*
D294*
X019326Y005696D03*
D295*
X015725Y005696D03*
D296*
X014878Y006410D03*
X018735Y006634D03*
X019260Y006634D03*
X020023Y005703D03*
D297*
X019354Y005703D03*
X014874Y007005D03*
D298*
X014878Y006060D03*
X016537Y006060D03*
X018672Y005703D03*
D299*
X015725Y005703D03*
D300*
X014874Y006998D03*
X018738Y006249D03*
X019263Y006249D03*
X020026Y005710D03*
D301*
X019375Y005710D03*
X019382Y007173D03*
D302*
X019260Y006655D03*
X019267Y006228D03*
X018735Y006228D03*
X018735Y006655D03*
X018644Y007173D03*
X018651Y005710D03*
X020044Y005759D03*
D303*
X015721Y005710D03*
D304*
X016537Y007362D03*
X018735Y006641D03*
X019260Y006641D03*
X019267Y006242D03*
X020030Y005717D03*
D305*
X019396Y005717D03*
X019396Y007166D03*
X018626Y007166D03*
D306*
X018738Y006221D03*
X018633Y005717D03*
X020054Y005787D03*
D307*
X015718Y005717D03*
D308*
X014881Y006403D03*
X019361Y007180D03*
X020033Y005724D03*
D309*
X020061Y005808D03*
X019410Y005724D03*
X019263Y006214D03*
X018738Y006214D03*
X018612Y007159D03*
D310*
X018735Y006669D03*
X019260Y006669D03*
X018616Y005724D03*
X020058Y005794D03*
X016537Y006900D03*
D311*
X015714Y005724D03*
D312*
X018738Y006242D03*
X020033Y005731D03*
D313*
X019424Y005731D03*
D314*
X020065Y005822D03*
X018602Y005731D03*
X014878Y007026D03*
D315*
X015714Y005731D03*
D316*
X019267Y006235D03*
X020037Y005738D03*
D317*
X020072Y005843D03*
X018588Y005738D03*
X019442Y007145D03*
X015116Y007264D03*
D318*
X015711Y005738D03*
D319*
X020040Y005745D03*
D320*
X015707Y005745D03*
D321*
X014881Y006046D03*
X014881Y007376D03*
X016540Y006046D03*
X018563Y005752D03*
X019459Y005752D03*
X019466Y007131D03*
X018556Y007131D03*
D322*
X015704Y005752D03*
D323*
X015137Y006165D03*
X019477Y005759D03*
X019477Y007124D03*
D324*
X018549Y005759D03*
D325*
X015704Y005759D03*
D326*
X020047Y005766D03*
D327*
X019487Y005766D03*
X019487Y007117D03*
D328*
X018539Y005766D03*
D329*
X015700Y005766D03*
D330*
X014878Y007369D03*
X020051Y005780D03*
X020051Y005773D03*
D331*
X019494Y005773D03*
X019263Y006193D03*
X018738Y006193D03*
X018528Y005773D03*
D332*
X015697Y005773D03*
X015697Y005780D03*
D333*
X014878Y007040D03*
X018518Y005780D03*
X019505Y005780D03*
X019260Y006690D03*
X019498Y007110D03*
X018525Y007110D03*
D334*
X018507Y005787D03*
X019515Y005787D03*
X016813Y006172D03*
X016260Y006172D03*
X014601Y006172D03*
D335*
X015693Y005787D03*
D336*
X014598Y007250D03*
X016817Y007250D03*
X018497Y007089D03*
X019526Y007089D03*
X019526Y005794D03*
D337*
X018500Y005794D03*
X018514Y007103D03*
X019508Y007103D03*
X016253Y007250D03*
X015161Y007250D03*
D338*
X015690Y005794D03*
D339*
X020058Y005801D03*
D340*
X019533Y005801D03*
X018490Y005801D03*
X018735Y006697D03*
X018504Y007096D03*
X019519Y007096D03*
X015158Y006172D03*
D341*
X015690Y005801D03*
D342*
X015014Y006480D03*
X018479Y007075D03*
X018479Y005808D03*
D343*
X015686Y005808D03*
D344*
X015683Y005815D03*
D345*
X018448Y005836D03*
X019561Y005822D03*
X019561Y007061D03*
X018462Y007061D03*
D346*
X015683Y005822D03*
D347*
X015112Y006158D03*
X014650Y006158D03*
X016540Y006914D03*
X020068Y005829D03*
D348*
X019568Y005829D03*
X016831Y006179D03*
X016243Y006179D03*
X016236Y007243D03*
X016838Y007243D03*
X015172Y006179D03*
D349*
X015679Y005829D03*
D350*
X020072Y005836D03*
D351*
X019596Y005857D03*
X019575Y005836D03*
X018427Y005857D03*
X018413Y005871D03*
X016845Y006186D03*
X016222Y007236D03*
X015193Y007236D03*
D352*
X015676Y005836D03*
D353*
X016215Y006193D03*
X016859Y006193D03*
X018420Y005864D03*
X018434Y005850D03*
X018441Y005843D03*
X019582Y005843D03*
X019589Y005850D03*
X019603Y005864D03*
X019589Y007033D03*
X018441Y007040D03*
X014556Y006193D03*
D354*
X015676Y005843D03*
D355*
X015672Y005850D03*
D356*
X020075Y005857D03*
D357*
X015672Y005857D03*
D358*
X016537Y007383D03*
X019617Y005878D03*
D359*
X019624Y005885D03*
X019638Y005899D03*
X019260Y006704D03*
X019638Y006984D03*
X018735Y006704D03*
X018399Y006998D03*
X018385Y006984D03*
X018385Y005899D03*
X018399Y005885D03*
X016873Y006200D03*
X016201Y006200D03*
X015214Y006200D03*
D360*
X015039Y006487D03*
X014710Y006487D03*
X016201Y007222D03*
X016873Y007222D03*
X018378Y006977D03*
X018378Y005906D03*
X019631Y005892D03*
X019645Y005906D03*
X019645Y006977D03*
X019631Y006991D03*
D361*
X018392Y006991D03*
X018392Y005892D03*
X015032Y006921D03*
X014542Y007222D03*
D362*
X014531Y007215D03*
X018367Y006963D03*
X018367Y005920D03*
D363*
X019662Y005927D03*
X019662Y006956D03*
X015217Y007222D03*
X014706Y006921D03*
X014531Y006207D03*
D364*
X014521Y006214D03*
X014885Y006354D03*
X015235Y006214D03*
X014696Y006914D03*
X014878Y007054D03*
X015228Y007215D03*
X014521Y007208D03*
X016180Y007208D03*
X016187Y007215D03*
X016894Y007208D03*
X016537Y006599D03*
X016537Y006585D03*
X016537Y006578D03*
X016537Y006564D03*
X016537Y006550D03*
X016537Y006543D03*
X016537Y006529D03*
X016537Y006515D03*
X016537Y006508D03*
X016537Y006494D03*
X016537Y006480D03*
X016537Y006473D03*
X016537Y006459D03*
X016537Y006445D03*
X016537Y006438D03*
X016537Y006424D03*
X016537Y006410D03*
X016537Y006403D03*
X016537Y006389D03*
X016537Y006375D03*
X016537Y006368D03*
X016537Y006354D03*
X016537Y006340D03*
X016537Y006333D03*
X016537Y006319D03*
X016537Y006305D03*
X016537Y006298D03*
X016537Y006284D03*
X016894Y006214D03*
X016180Y006214D03*
X018329Y005969D03*
X018343Y005948D03*
X018357Y005934D03*
X018343Y006935D03*
X018357Y006949D03*
X019393Y006284D03*
X019694Y005969D03*
X019680Y005948D03*
X019666Y005934D03*
X019694Y006914D03*
X019680Y006935D03*
D365*
X019753Y006816D03*
X019760Y006802D03*
X019403Y006592D03*
X019263Y006711D03*
X018878Y006592D03*
X019263Y006172D03*
X019403Y006291D03*
X019760Y006081D03*
X019753Y006067D03*
X018290Y006032D03*
X018283Y006046D03*
X018262Y006081D03*
X018262Y006802D03*
X018283Y006837D03*
X018290Y006851D03*
X016946Y006256D03*
X016141Y006242D03*
X016127Y006256D03*
X015273Y006242D03*
X015098Y006767D03*
X015266Y007187D03*
X014671Y006522D03*
X014468Y006256D03*
D366*
X016537Y006053D03*
X016537Y006613D03*
X016537Y006620D03*
X016537Y006634D03*
X016537Y006648D03*
X016537Y006655D03*
X016537Y006669D03*
X016537Y006683D03*
X016537Y006690D03*
X016537Y006704D03*
X016537Y006718D03*
X016537Y006725D03*
X016537Y006739D03*
X016537Y006753D03*
X016537Y006760D03*
X016537Y006774D03*
X016537Y006788D03*
X016537Y006795D03*
X016537Y006809D03*
X016537Y006823D03*
X016537Y006830D03*
X016537Y006844D03*
X016537Y006858D03*
X016537Y006865D03*
X016537Y006879D03*
X016537Y007369D03*
D367*
X014881Y006389D03*
X014881Y006053D03*
D368*
X016537Y006067D03*
D369*
X016537Y006074D03*
X016537Y007348D03*
X014878Y007348D03*
X014871Y006963D03*
X014878Y006445D03*
X014878Y006074D03*
D370*
X014871Y006942D03*
X016537Y006081D03*
D371*
X014881Y006095D03*
D372*
X016537Y006102D03*
D373*
X016537Y006109D03*
X016537Y007313D03*
D374*
X014881Y006109D03*
D375*
X014444Y006277D03*
X014654Y006557D03*
X014465Y007166D03*
X016124Y007166D03*
X016950Y007166D03*
X016964Y007152D03*
X018245Y006116D03*
X019785Y006746D03*
D376*
X014881Y006116D03*
D377*
X014878Y006123D03*
X016537Y006123D03*
D378*
X016537Y006130D03*
D379*
X014881Y006130D03*
D380*
X014878Y006137D03*
X016537Y006137D03*
D381*
X016537Y006151D03*
X014878Y006151D03*
D382*
X016764Y006158D03*
D383*
X016796Y006165D03*
X016278Y006165D03*
X014619Y006165D03*
X018546Y007124D03*
D384*
X018444Y007047D03*
X019578Y007047D03*
X016848Y007236D03*
X016225Y006186D03*
X015189Y006186D03*
X014573Y006186D03*
X014881Y007047D03*
X014566Y007236D03*
D385*
X016537Y006886D03*
X016537Y006872D03*
X016537Y006851D03*
X016537Y006837D03*
X016537Y006816D03*
X016537Y006802D03*
X016537Y006781D03*
X016537Y006767D03*
X016537Y006746D03*
X016537Y006732D03*
X016537Y006711D03*
X016537Y006697D03*
X016537Y006676D03*
X016537Y006662D03*
X016537Y006641D03*
X016537Y006627D03*
X016537Y006606D03*
X019267Y006221D03*
D386*
X019260Y006648D03*
X018735Y006648D03*
X018735Y006235D03*
X018665Y007180D03*
D387*
X019263Y006627D03*
X019263Y006256D03*
X018738Y006256D03*
X019333Y007187D03*
X014874Y006991D03*
D388*
X019116Y006326D03*
D389*
X018917Y006515D03*
X017027Y006340D03*
X016537Y006998D03*
X016537Y007110D03*
X015382Y007068D03*
X015382Y006354D03*
X014367Y006368D03*
X014367Y007054D03*
D390*
X014885Y006361D03*
D391*
X014881Y006382D03*
X016540Y006907D03*
D392*
X014881Y006396D03*
X019011Y007341D03*
D393*
X014871Y006977D03*
X014878Y006431D03*
D394*
X014727Y006480D03*
X015098Y006795D03*
X018451Y007054D03*
X019571Y007054D03*
X019585Y007040D03*
D395*
X019116Y006578D03*
X017142Y006830D03*
X015931Y006823D03*
X015931Y006599D03*
X015490Y006620D03*
X015497Y006683D03*
X015497Y006690D03*
X015497Y006704D03*
X015497Y006718D03*
X015497Y006725D03*
X015497Y006739D03*
X015490Y006795D03*
X014265Y006760D03*
X014265Y006753D03*
X014265Y006739D03*
X014265Y006725D03*
X014265Y006718D03*
X014265Y006704D03*
X014265Y006690D03*
X014265Y006683D03*
X014265Y006669D03*
X014265Y006655D03*
X014272Y006599D03*
D396*
X018735Y006606D03*
D397*
X018735Y006620D03*
X019260Y006620D03*
D398*
X018731Y006627D03*
D399*
X017149Y006627D03*
X017149Y006641D03*
X017149Y006781D03*
X015924Y006781D03*
X015924Y006767D03*
X015924Y006662D03*
X015924Y006641D03*
D400*
X018735Y006662D03*
X019260Y006662D03*
D401*
X019260Y006676D03*
X018595Y007152D03*
D402*
X015098Y006676D03*
D403*
X015098Y006683D03*
X019263Y006725D03*
D404*
X016540Y006893D03*
X014874Y007019D03*
D405*
X016537Y006921D03*
D406*
X014871Y006949D03*
D407*
X014874Y006956D03*
D408*
X016537Y006970D03*
X016537Y007138D03*
D409*
X017027Y007082D03*
D410*
X016799Y007257D03*
X016274Y007257D03*
X015140Y007257D03*
X014615Y007257D03*
X018535Y007117D03*
D411*
X019011Y007194D03*
D412*
X019015Y007229D03*
D413*
X019011Y007236D03*
D414*
X019011Y007243D03*
D415*
X019015Y007250D03*
D416*
X019015Y007257D03*
D417*
X019015Y007264D03*
D418*
X016775Y007264D03*
X016299Y007264D03*
X014640Y007264D03*
D419*
X019015Y007271D03*
D420*
X016533Y007271D03*
D421*
X014881Y007271D03*
D422*
X019015Y007285D03*
D423*
X016537Y007285D03*
D424*
X014881Y007285D03*
D425*
X019011Y007292D03*
D426*
X016537Y007292D03*
D427*
X014878Y007292D03*
D428*
X019015Y007299D03*
D429*
X019011Y007306D03*
D430*
X016537Y007306D03*
X014878Y007306D03*
D431*
X019011Y007313D03*
D432*
X014878Y007313D03*
D433*
X014878Y007327D03*
X016537Y007327D03*
D434*
X016537Y007334D03*
X014878Y007334D03*
D435*
X016537Y007341D03*
D436*
X016540Y007355D03*
X014881Y007355D03*
D437*
X014881Y007362D03*
D438*
X016537Y007376D03*
D439*
X016733Y007530D03*
D440*
X016733Y007537D03*
D441*
X016733Y007544D03*
D442*
X016733Y007551D03*
D443*
X016733Y007558D03*
D444*
X016733Y007565D03*
D445*
X016733Y007572D03*
D446*
X016733Y007579D03*
D447*
X016733Y007586D03*
D448*
X019584Y011437D03*
X018284Y016187D03*
X021084Y016187D03*
X015484Y016187D03*
X012684Y016187D03*
X009884Y016187D03*
X007084Y016187D03*
X010384Y005387D03*
D449*
X009084Y015687D03*
X011884Y015687D03*
X014684Y015687D03*
X017484Y015687D03*
X020284Y015687D03*
X006284Y015687D03*
M02*
