G75*
%MOIN*%
%OFA0B0*%
%FSLAX24Y24*%
%IPPOS*%
%LPD*%
%AMOC8*
5,1,8,0,0,1.08239X$1,22.5*
%
%ADD10C,0.0000*%
%ADD11R,0.0394X0.0512*%
%ADD12OC8,0.0832*%
%ADD13C,0.1147*%
%ADD14R,0.1147X0.1147*%
%ADD15C,0.0630*%
%ADD16R,0.0630X0.0630*%
%ADD17R,0.0276X0.0315*%
%ADD18R,0.0216X0.0255*%
%ADD19OC8,0.0673*%
%ADD20R,0.0512X0.0394*%
%ADD21R,0.0314X0.0432*%
%ADD22R,0.0432X0.0314*%
%ADD23C,0.0524*%
%ADD24R,0.0315X0.0276*%
%ADD25R,0.0500X0.0420*%
%ADD26R,0.0255X0.0216*%
%ADD27R,0.0315X0.0217*%
%ADD28R,0.0433X0.0433*%
%ADD29R,0.0197X0.0551*%
%ADD30R,0.0315X0.0197*%
%ADD31R,0.0315X0.0117*%
%ADD32C,0.0080*%
%ADD33C,0.0200*%
%ADD34C,0.0295*%
%ADD35C,0.0354*%
%ADD36C,0.0160*%
%ADD37C,0.0280*%
%ADD38C,0.0500*%
%ADD39C,0.0100*%
%ADD40C,0.0240*%
%ADD41C,0.0200*%
D10*
X002834Y001872D02*
X002834Y019588D01*
X003189Y019588D02*
X003191Y019638D01*
X003197Y019688D01*
X003207Y019737D01*
X003221Y019785D01*
X003238Y019832D01*
X003259Y019877D01*
X003284Y019921D01*
X003312Y019962D01*
X003344Y020001D01*
X003378Y020038D01*
X003415Y020072D01*
X003455Y020102D01*
X003497Y020129D01*
X003541Y020153D01*
X003587Y020174D01*
X003634Y020190D01*
X003682Y020203D01*
X003732Y020212D01*
X003781Y020217D01*
X003832Y020218D01*
X003882Y020215D01*
X003931Y020208D01*
X003980Y020197D01*
X004028Y020182D01*
X004074Y020164D01*
X004119Y020142D01*
X004162Y020116D01*
X004203Y020087D01*
X004242Y020055D01*
X004278Y020020D01*
X004310Y019982D01*
X004340Y019942D01*
X004367Y019899D01*
X004390Y019855D01*
X004409Y019809D01*
X004425Y019761D01*
X004437Y019712D01*
X004445Y019663D01*
X004449Y019613D01*
X004449Y019563D01*
X004445Y019513D01*
X004437Y019464D01*
X004425Y019415D01*
X004409Y019367D01*
X004390Y019321D01*
X004367Y019277D01*
X004340Y019234D01*
X004310Y019194D01*
X004278Y019156D01*
X004242Y019121D01*
X004203Y019089D01*
X004162Y019060D01*
X004119Y019034D01*
X004074Y019012D01*
X004028Y018994D01*
X003980Y018979D01*
X003931Y018968D01*
X003882Y018961D01*
X003832Y018958D01*
X003781Y018959D01*
X003732Y018964D01*
X003682Y018973D01*
X003634Y018986D01*
X003587Y019002D01*
X003541Y019023D01*
X003497Y019047D01*
X003455Y019074D01*
X003415Y019104D01*
X003378Y019138D01*
X003344Y019175D01*
X003312Y019214D01*
X003284Y019255D01*
X003259Y019299D01*
X003238Y019344D01*
X003221Y019391D01*
X003207Y019439D01*
X003197Y019488D01*
X003191Y019538D01*
X003189Y019588D01*
X002835Y019588D02*
X002837Y019650D01*
X002843Y019711D01*
X002852Y019772D01*
X002866Y019833D01*
X002883Y019892D01*
X002904Y019950D01*
X002929Y020007D01*
X002957Y020062D01*
X002988Y020115D01*
X003023Y020166D01*
X003061Y020215D01*
X003102Y020262D01*
X003145Y020305D01*
X003192Y020346D01*
X003241Y020384D01*
X003292Y020419D01*
X003345Y020450D01*
X003400Y020478D01*
X003457Y020503D01*
X003515Y020524D01*
X003574Y020541D01*
X003635Y020555D01*
X003696Y020564D01*
X003757Y020570D01*
X003819Y020572D01*
X021535Y020572D01*
X020905Y019588D02*
X020907Y019638D01*
X020913Y019688D01*
X020923Y019737D01*
X020937Y019785D01*
X020954Y019832D01*
X020975Y019877D01*
X021000Y019921D01*
X021028Y019962D01*
X021060Y020001D01*
X021094Y020038D01*
X021131Y020072D01*
X021171Y020102D01*
X021213Y020129D01*
X021257Y020153D01*
X021303Y020174D01*
X021350Y020190D01*
X021398Y020203D01*
X021448Y020212D01*
X021497Y020217D01*
X021548Y020218D01*
X021598Y020215D01*
X021647Y020208D01*
X021696Y020197D01*
X021744Y020182D01*
X021790Y020164D01*
X021835Y020142D01*
X021878Y020116D01*
X021919Y020087D01*
X021958Y020055D01*
X021994Y020020D01*
X022026Y019982D01*
X022056Y019942D01*
X022083Y019899D01*
X022106Y019855D01*
X022125Y019809D01*
X022141Y019761D01*
X022153Y019712D01*
X022161Y019663D01*
X022165Y019613D01*
X022165Y019563D01*
X022161Y019513D01*
X022153Y019464D01*
X022141Y019415D01*
X022125Y019367D01*
X022106Y019321D01*
X022083Y019277D01*
X022056Y019234D01*
X022026Y019194D01*
X021994Y019156D01*
X021958Y019121D01*
X021919Y019089D01*
X021878Y019060D01*
X021835Y019034D01*
X021790Y019012D01*
X021744Y018994D01*
X021696Y018979D01*
X021647Y018968D01*
X021598Y018961D01*
X021548Y018958D01*
X021497Y018959D01*
X021448Y018964D01*
X021398Y018973D01*
X021350Y018986D01*
X021303Y019002D01*
X021257Y019023D01*
X021213Y019047D01*
X021171Y019074D01*
X021131Y019104D01*
X021094Y019138D01*
X021060Y019175D01*
X021028Y019214D01*
X021000Y019255D01*
X020975Y019299D01*
X020954Y019344D01*
X020937Y019391D01*
X020923Y019439D01*
X020913Y019488D01*
X020907Y019538D01*
X020905Y019588D01*
X021535Y020572D02*
X021597Y020570D01*
X021658Y020564D01*
X021719Y020555D01*
X021780Y020541D01*
X021839Y020524D01*
X021897Y020503D01*
X021954Y020478D01*
X022009Y020450D01*
X022062Y020419D01*
X022113Y020384D01*
X022162Y020346D01*
X022209Y020305D01*
X022252Y020262D01*
X022293Y020215D01*
X022331Y020166D01*
X022366Y020115D01*
X022397Y020062D01*
X022425Y020007D01*
X022450Y019950D01*
X022471Y019892D01*
X022488Y019833D01*
X022502Y019772D01*
X022511Y019711D01*
X022517Y019650D01*
X022519Y019588D01*
X022519Y001872D01*
X020905Y001872D02*
X020907Y001922D01*
X020913Y001972D01*
X020923Y002021D01*
X020937Y002069D01*
X020954Y002116D01*
X020975Y002161D01*
X021000Y002205D01*
X021028Y002246D01*
X021060Y002285D01*
X021094Y002322D01*
X021131Y002356D01*
X021171Y002386D01*
X021213Y002413D01*
X021257Y002437D01*
X021303Y002458D01*
X021350Y002474D01*
X021398Y002487D01*
X021448Y002496D01*
X021497Y002501D01*
X021548Y002502D01*
X021598Y002499D01*
X021647Y002492D01*
X021696Y002481D01*
X021744Y002466D01*
X021790Y002448D01*
X021835Y002426D01*
X021878Y002400D01*
X021919Y002371D01*
X021958Y002339D01*
X021994Y002304D01*
X022026Y002266D01*
X022056Y002226D01*
X022083Y002183D01*
X022106Y002139D01*
X022125Y002093D01*
X022141Y002045D01*
X022153Y001996D01*
X022161Y001947D01*
X022165Y001897D01*
X022165Y001847D01*
X022161Y001797D01*
X022153Y001748D01*
X022141Y001699D01*
X022125Y001651D01*
X022106Y001605D01*
X022083Y001561D01*
X022056Y001518D01*
X022026Y001478D01*
X021994Y001440D01*
X021958Y001405D01*
X021919Y001373D01*
X021878Y001344D01*
X021835Y001318D01*
X021790Y001296D01*
X021744Y001278D01*
X021696Y001263D01*
X021647Y001252D01*
X021598Y001245D01*
X021548Y001242D01*
X021497Y001243D01*
X021448Y001248D01*
X021398Y001257D01*
X021350Y001270D01*
X021303Y001286D01*
X021257Y001307D01*
X021213Y001331D01*
X021171Y001358D01*
X021131Y001388D01*
X021094Y001422D01*
X021060Y001459D01*
X021028Y001498D01*
X021000Y001539D01*
X020975Y001583D01*
X020954Y001628D01*
X020937Y001675D01*
X020923Y001723D01*
X020913Y001772D01*
X020907Y001822D01*
X020905Y001872D01*
X021535Y000888D02*
X021597Y000890D01*
X021658Y000896D01*
X021719Y000905D01*
X021780Y000919D01*
X021839Y000936D01*
X021897Y000957D01*
X021954Y000982D01*
X022009Y001010D01*
X022062Y001041D01*
X022113Y001076D01*
X022162Y001114D01*
X022209Y001155D01*
X022252Y001198D01*
X022293Y001245D01*
X022331Y001294D01*
X022366Y001345D01*
X022397Y001398D01*
X022425Y001453D01*
X022450Y001510D01*
X022471Y001568D01*
X022488Y001627D01*
X022502Y001688D01*
X022511Y001749D01*
X022517Y001810D01*
X022519Y001872D01*
X021535Y000887D02*
X003819Y000887D01*
X003189Y001872D02*
X003191Y001922D01*
X003197Y001972D01*
X003207Y002021D01*
X003221Y002069D01*
X003238Y002116D01*
X003259Y002161D01*
X003284Y002205D01*
X003312Y002246D01*
X003344Y002285D01*
X003378Y002322D01*
X003415Y002356D01*
X003455Y002386D01*
X003497Y002413D01*
X003541Y002437D01*
X003587Y002458D01*
X003634Y002474D01*
X003682Y002487D01*
X003732Y002496D01*
X003781Y002501D01*
X003832Y002502D01*
X003882Y002499D01*
X003931Y002492D01*
X003980Y002481D01*
X004028Y002466D01*
X004074Y002448D01*
X004119Y002426D01*
X004162Y002400D01*
X004203Y002371D01*
X004242Y002339D01*
X004278Y002304D01*
X004310Y002266D01*
X004340Y002226D01*
X004367Y002183D01*
X004390Y002139D01*
X004409Y002093D01*
X004425Y002045D01*
X004437Y001996D01*
X004445Y001947D01*
X004449Y001897D01*
X004449Y001847D01*
X004445Y001797D01*
X004437Y001748D01*
X004425Y001699D01*
X004409Y001651D01*
X004390Y001605D01*
X004367Y001561D01*
X004340Y001518D01*
X004310Y001478D01*
X004278Y001440D01*
X004242Y001405D01*
X004203Y001373D01*
X004162Y001344D01*
X004119Y001318D01*
X004074Y001296D01*
X004028Y001278D01*
X003980Y001263D01*
X003931Y001252D01*
X003882Y001245D01*
X003832Y001242D01*
X003781Y001243D01*
X003732Y001248D01*
X003682Y001257D01*
X003634Y001270D01*
X003587Y001286D01*
X003541Y001307D01*
X003497Y001331D01*
X003455Y001358D01*
X003415Y001388D01*
X003378Y001422D01*
X003344Y001459D01*
X003312Y001498D01*
X003284Y001539D01*
X003259Y001583D01*
X003238Y001628D01*
X003221Y001675D01*
X003207Y001723D01*
X003197Y001772D01*
X003191Y001822D01*
X003189Y001872D01*
X002835Y001872D02*
X002837Y001810D01*
X002843Y001749D01*
X002852Y001688D01*
X002866Y001627D01*
X002883Y001568D01*
X002904Y001510D01*
X002929Y001453D01*
X002957Y001398D01*
X002988Y001345D01*
X003023Y001294D01*
X003061Y001245D01*
X003102Y001198D01*
X003145Y001155D01*
X003192Y001114D01*
X003241Y001076D01*
X003292Y001041D01*
X003345Y001010D01*
X003400Y000982D01*
X003457Y000957D01*
X003515Y000936D01*
X003574Y000919D01*
X003635Y000905D01*
X003696Y000896D01*
X003757Y000890D01*
X003819Y000888D01*
X004427Y004671D02*
X004429Y004696D01*
X004435Y004720D01*
X004444Y004742D01*
X004457Y004763D01*
X004473Y004782D01*
X004492Y004798D01*
X004513Y004811D01*
X004535Y004820D01*
X004559Y004826D01*
X004584Y004828D01*
X004609Y004826D01*
X004633Y004820D01*
X004655Y004811D01*
X004676Y004798D01*
X004695Y004782D01*
X004711Y004763D01*
X004724Y004742D01*
X004733Y004720D01*
X004739Y004696D01*
X004741Y004671D01*
X004739Y004646D01*
X004733Y004622D01*
X004724Y004600D01*
X004711Y004579D01*
X004695Y004560D01*
X004676Y004544D01*
X004655Y004531D01*
X004633Y004522D01*
X004609Y004516D01*
X004584Y004514D01*
X004559Y004516D01*
X004535Y004522D01*
X004513Y004531D01*
X004492Y004544D01*
X004473Y004560D01*
X004457Y004579D01*
X004444Y004600D01*
X004435Y004622D01*
X004429Y004646D01*
X004427Y004671D01*
X004427Y006404D02*
X004429Y006429D01*
X004435Y006453D01*
X004444Y006475D01*
X004457Y006496D01*
X004473Y006515D01*
X004492Y006531D01*
X004513Y006544D01*
X004535Y006553D01*
X004559Y006559D01*
X004584Y006561D01*
X004609Y006559D01*
X004633Y006553D01*
X004655Y006544D01*
X004676Y006531D01*
X004695Y006515D01*
X004711Y006496D01*
X004724Y006475D01*
X004733Y006453D01*
X004739Y006429D01*
X004741Y006404D01*
X004739Y006379D01*
X004733Y006355D01*
X004724Y006333D01*
X004711Y006312D01*
X004695Y006293D01*
X004676Y006277D01*
X004655Y006264D01*
X004633Y006255D01*
X004609Y006249D01*
X004584Y006247D01*
X004559Y006249D01*
X004535Y006255D01*
X004513Y006264D01*
X004492Y006277D01*
X004473Y006293D01*
X004457Y006312D01*
X004444Y006333D01*
X004435Y006355D01*
X004429Y006379D01*
X004427Y006404D01*
D11*
X005584Y017787D03*
X006284Y017787D03*
X008384Y017787D03*
X009084Y017787D03*
X011184Y017787D03*
X011884Y017787D03*
X013984Y017787D03*
X014684Y017787D03*
X016784Y017787D03*
X017484Y017787D03*
X019584Y017787D03*
X020284Y017787D03*
X017384Y010287D03*
D12*
X017634Y019237D03*
X016634Y019237D03*
X018634Y019237D03*
X008734Y019237D03*
X007734Y019237D03*
X006734Y019237D03*
D13*
X021284Y012737D03*
D14*
X021284Y010737D03*
D15*
X014784Y018987D03*
X010584Y018987D03*
D16*
X011584Y018987D03*
X013784Y018987D03*
D17*
X013784Y019687D03*
X011584Y019687D03*
X012034Y014287D03*
X011634Y013187D03*
X009234Y014287D03*
X006434Y014287D03*
X005984Y013687D03*
X012084Y008487D03*
X012084Y007987D03*
X012684Y007987D03*
X012684Y008487D03*
X012084Y006887D03*
X014834Y014287D03*
X017634Y014287D03*
X020434Y014287D03*
D18*
X021034Y014287D03*
X018234Y014287D03*
X015434Y014287D03*
X012634Y014287D03*
X012234Y013187D03*
X009834Y014287D03*
X007034Y014287D03*
X005384Y013687D03*
X010984Y019687D03*
X014384Y019687D03*
X012684Y006887D03*
D19*
X012084Y003987D03*
X011084Y003987D03*
X009884Y003987D03*
X009884Y002987D03*
X011084Y002987D03*
X011084Y001987D03*
X012084Y001987D03*
X012084Y002987D03*
X013284Y002987D03*
X014284Y002987D03*
X014284Y001987D03*
X013284Y001987D03*
X015534Y001987D03*
X016534Y001987D03*
X017534Y001987D03*
X018534Y001987D03*
X019534Y001987D03*
X014284Y003987D03*
X013284Y003987D03*
X008684Y003987D03*
X007684Y003987D03*
X006684Y003987D03*
X006684Y002987D03*
X006684Y001987D03*
X007684Y001987D03*
X008684Y001987D03*
X008684Y002987D03*
X007684Y002987D03*
X003584Y008587D03*
X003584Y009587D03*
X003584Y010587D03*
X003584Y011587D03*
X003584Y013037D03*
X003584Y014037D03*
X003584Y015037D03*
X003584Y016037D03*
X003584Y017037D03*
D20*
X016384Y011737D03*
X016384Y011037D03*
X018784Y011837D03*
D21*
X018084Y010287D03*
D22*
X018784Y011137D03*
D23*
X009184Y011087D03*
X009184Y009187D03*
D24*
X011484Y008487D03*
X005934Y002987D03*
X004884Y009287D03*
X004384Y009287D03*
X004384Y009887D03*
X004884Y009887D03*
D25*
X011734Y011987D03*
X011734Y012487D03*
D26*
X011484Y007887D03*
X005934Y002387D03*
D27*
X010501Y006437D03*
X011367Y006063D03*
X011367Y006811D03*
D28*
X011284Y005387D03*
X009884Y005387D03*
X019584Y010537D03*
X019584Y011937D03*
X018284Y015287D03*
X018284Y016687D03*
X021084Y016687D03*
X021084Y015287D03*
X015484Y015287D03*
X015484Y016687D03*
X012684Y016687D03*
X012684Y015287D03*
X009884Y015287D03*
X009884Y016687D03*
X007084Y016687D03*
X007084Y015287D03*
D29*
X006434Y014937D03*
X005934Y014937D03*
X005434Y014937D03*
X004934Y014937D03*
X004934Y017037D03*
X005434Y017037D03*
X005934Y017037D03*
X006434Y017037D03*
X007734Y017037D03*
X008234Y017037D03*
X008734Y017037D03*
X009234Y017037D03*
X010534Y017037D03*
X011034Y017037D03*
X011534Y017037D03*
X012034Y017037D03*
X013334Y017037D03*
X013834Y017037D03*
X014334Y017037D03*
X014834Y017037D03*
X016134Y017037D03*
X016634Y017037D03*
X017134Y017037D03*
X017634Y017037D03*
X018934Y017037D03*
X019434Y017037D03*
X019934Y017037D03*
X020434Y017037D03*
X020434Y014937D03*
X019934Y014937D03*
X019434Y014937D03*
X018934Y014937D03*
X017634Y014937D03*
X017134Y014937D03*
X016634Y014937D03*
X016134Y014937D03*
X014834Y014937D03*
X014334Y014937D03*
X013834Y014937D03*
X013334Y014937D03*
X012034Y014937D03*
X011534Y014937D03*
X011034Y014937D03*
X010534Y014937D03*
X009234Y014937D03*
X008734Y014937D03*
X008234Y014937D03*
X007734Y014937D03*
D30*
X017034Y011761D03*
X017034Y011013D03*
X018134Y011013D03*
X018134Y011761D03*
D31*
X018134Y011387D03*
D32*
X018182Y011253D02*
X017808Y011253D01*
X017538Y011523D01*
X017470Y011591D01*
X017382Y011627D01*
X017332Y011627D01*
X017332Y011918D01*
X017250Y012000D01*
X017086Y012000D01*
X017082Y012001D01*
X016771Y012001D01*
X016715Y012057D01*
X018209Y012057D01*
X018314Y012163D01*
X020114Y013963D01*
X020114Y014545D01*
X020173Y014604D01*
X020173Y015217D01*
X020196Y015217D01*
X020196Y014604D01*
X020214Y014585D01*
X020214Y014561D01*
X020157Y014503D01*
X020157Y014072D01*
X020214Y014014D01*
X020214Y013929D01*
X018843Y012557D01*
X018714Y012429D01*
X018714Y012174D01*
X018470Y012174D01*
X018388Y012092D01*
X018388Y012001D01*
X018087Y012001D01*
X018083Y012000D01*
X017919Y012000D01*
X017837Y011918D01*
X017837Y011605D01*
X017919Y011523D01*
X018083Y011523D01*
X018087Y011521D01*
X018450Y011521D01*
X018470Y011501D01*
X019098Y011501D01*
X019180Y011583D01*
X019180Y011697D01*
X019228Y011697D01*
X019228Y011663D01*
X019310Y011581D01*
X019859Y011581D01*
X019941Y011663D01*
X019941Y012212D01*
X019859Y012294D01*
X019310Y012294D01*
X019228Y012212D01*
X019228Y012177D01*
X019154Y012177D01*
X019154Y012246D01*
X020654Y013746D01*
X020654Y014014D01*
X020712Y014072D01*
X020712Y014503D01*
X020654Y014561D01*
X020654Y014585D01*
X020673Y014604D01*
X020673Y015217D01*
X020728Y015217D01*
X020728Y015013D01*
X020810Y014931D01*
X021359Y014931D01*
X021441Y015013D01*
X021441Y015529D01*
X021467Y015540D01*
X021582Y015655D01*
X021644Y015806D01*
X021644Y015969D01*
X021582Y016120D01*
X021467Y016235D01*
X021316Y016297D01*
X020229Y016297D01*
X020264Y016382D01*
X020264Y016493D01*
X020222Y016596D01*
X020143Y016674D01*
X020173Y016704D01*
X020173Y017371D01*
X020172Y017371D01*
X020176Y017371D01*
X020176Y016696D01*
X020270Y016602D01*
X020376Y016602D01*
X020387Y016597D01*
X020708Y016597D01*
X020708Y016405D01*
X020802Y016311D01*
X021367Y016311D01*
X021461Y016405D01*
X021461Y016970D01*
X021367Y017064D01*
X021015Y017064D01*
X020982Y017077D01*
X020693Y017077D01*
X020693Y017379D01*
X020674Y017398D01*
X020674Y017685D01*
X020641Y017765D01*
X020641Y018110D01*
X020547Y018203D01*
X020021Y018203D01*
X019934Y018116D01*
X019847Y018203D01*
X019321Y018203D01*
X019227Y018110D01*
X019227Y017765D01*
X017841Y017765D01*
X017841Y018110D01*
X017747Y018203D01*
X017221Y018203D01*
X017134Y018116D01*
X017047Y018203D01*
X016521Y018203D01*
X016427Y018110D01*
X016427Y017765D01*
X015041Y017765D01*
X015041Y018110D01*
X014947Y018203D01*
X014421Y018203D01*
X014334Y018116D01*
X014247Y018203D01*
X013721Y018203D01*
X013627Y018110D01*
X013627Y017765D01*
X012241Y017765D01*
X012241Y018110D01*
X012147Y018203D01*
X011621Y018203D01*
X011534Y018116D01*
X011447Y018203D01*
X010921Y018203D01*
X010827Y018110D01*
X010827Y017765D01*
X009441Y017765D01*
X009441Y018110D01*
X009347Y018203D01*
X008821Y018203D01*
X008734Y018116D01*
X008647Y018203D01*
X008121Y018203D01*
X008027Y018110D01*
X008027Y017765D01*
X006641Y017765D01*
X006641Y018110D01*
X006547Y018203D01*
X006021Y018203D01*
X005934Y018116D01*
X005847Y018203D01*
X005321Y018203D01*
X005227Y018110D01*
X005227Y017765D01*
X002974Y017765D01*
X002974Y017843D02*
X005227Y017843D01*
X005227Y017765D02*
X005194Y017685D01*
X005194Y017398D01*
X005176Y017379D01*
X005176Y017197D01*
X005173Y017190D01*
X005173Y017371D01*
X005091Y017453D01*
X004778Y017453D01*
X004696Y017371D01*
X004696Y016704D01*
X004754Y016645D01*
X004754Y016603D01*
X004747Y016596D01*
X004704Y016493D01*
X004704Y016382D01*
X004747Y016279D01*
X004826Y016200D01*
X004929Y016157D01*
X005040Y016157D01*
X005143Y016200D01*
X005222Y016279D01*
X005264Y016382D01*
X005264Y016493D01*
X005222Y016596D01*
X005143Y016674D01*
X005173Y016704D01*
X005173Y016885D01*
X005176Y016877D01*
X005176Y016696D01*
X005270Y016602D01*
X005599Y016602D01*
X005693Y016696D01*
X005693Y016877D01*
X005696Y016885D01*
X005696Y016704D01*
X005754Y016645D01*
X005754Y016603D01*
X005747Y016596D01*
X005704Y016493D01*
X005704Y016382D01*
X005747Y016279D01*
X005826Y016200D01*
X005929Y016157D01*
X006040Y016157D01*
X006099Y016182D01*
X006037Y016120D01*
X005974Y015969D01*
X005974Y015806D01*
X006037Y015655D01*
X006152Y015540D01*
X006303Y015477D01*
X006313Y015477D01*
X006214Y015379D01*
X006214Y015289D01*
X006196Y015271D01*
X006196Y014604D01*
X006214Y014585D01*
X006214Y014561D01*
X006157Y014503D01*
X006157Y014270D01*
X006114Y014312D01*
X006114Y014545D01*
X006173Y014604D01*
X006173Y015271D01*
X006091Y015353D01*
X005778Y015353D01*
X005696Y015271D01*
X005696Y014604D01*
X005754Y014545D01*
X005754Y014172D01*
X005614Y014312D01*
X005614Y014545D01*
X005673Y014604D01*
X005673Y015271D01*
X005591Y015353D01*
X005278Y015353D01*
X005196Y015271D01*
X005196Y014604D01*
X005254Y014545D01*
X005254Y014163D01*
X005704Y013713D01*
X005704Y013632D01*
X005707Y013626D01*
X005707Y013472D01*
X005789Y013390D01*
X005954Y013390D01*
X005954Y013213D01*
X006060Y013107D01*
X007054Y012113D01*
X004957Y012113D01*
X004964Y012132D02*
X004964Y012243D01*
X004922Y012346D01*
X004843Y012425D01*
X004740Y012467D01*
X004664Y012467D01*
X004664Y012543D01*
X004622Y012646D01*
X004543Y012725D01*
X004474Y012753D01*
X004474Y015716D01*
X004363Y015827D01*
X004274Y015916D01*
X004274Y016616D01*
X004163Y016727D01*
X004056Y016835D01*
X004061Y016840D01*
X004061Y017235D01*
X003782Y017514D01*
X003387Y017514D01*
X003108Y017235D01*
X003108Y016840D01*
X003387Y016561D01*
X003782Y016561D01*
X003787Y016566D01*
X003894Y016459D01*
X003894Y016401D01*
X003782Y016514D01*
X003387Y016514D01*
X003108Y016235D01*
X003108Y015840D01*
X003387Y015561D01*
X003782Y015561D01*
X003787Y015566D01*
X003894Y015459D01*
X003894Y014401D01*
X003782Y014514D01*
X003387Y014514D01*
X003108Y014235D01*
X003108Y013840D01*
X002974Y013840D01*
X002974Y013918D02*
X003108Y013918D01*
X003108Y013840D02*
X003387Y013561D01*
X003782Y013561D01*
X003894Y013673D01*
X003894Y013401D01*
X003782Y013514D01*
X003387Y013514D01*
X003108Y013235D01*
X003108Y012872D01*
X002974Y012739D01*
X002974Y018843D01*
X003128Y018689D01*
X003385Y018541D01*
X003671Y018464D01*
X003967Y018464D01*
X004253Y018541D01*
X004509Y018689D01*
X004718Y018898D01*
X004866Y019154D01*
X004943Y019440D01*
X004943Y019736D01*
X004866Y020022D01*
X004718Y020278D01*
X004564Y020432D01*
X020789Y020432D01*
X020635Y020278D01*
X020487Y020022D01*
X020411Y019736D01*
X020411Y019440D01*
X020487Y019154D01*
X020635Y018898D01*
X020845Y018689D01*
X021101Y018541D01*
X021387Y018464D01*
X021683Y018464D01*
X021969Y018541D01*
X022225Y018689D01*
X022379Y018843D01*
X022379Y002617D01*
X022225Y002771D01*
X022379Y002771D01*
X022379Y002693D02*
X022304Y002693D01*
X022225Y002771D02*
X021969Y002919D01*
X021683Y002996D01*
X021387Y002996D01*
X021101Y002919D01*
X020845Y002771D01*
X020635Y002562D01*
X020487Y002306D01*
X020411Y002020D01*
X020411Y001724D01*
X020487Y001438D01*
X020635Y001181D01*
X020789Y001027D01*
X004564Y001027D01*
X004718Y001181D01*
X004866Y001438D01*
X004943Y001724D01*
X004943Y002020D01*
X004866Y002306D01*
X004718Y002562D01*
X004509Y002771D01*
X004253Y002919D01*
X003967Y002996D01*
X003671Y002996D01*
X003385Y002919D01*
X003128Y002771D01*
X002974Y002617D01*
X002974Y010886D01*
X003108Y010753D01*
X003108Y010390D01*
X003387Y010111D01*
X003782Y010111D01*
X004061Y010390D01*
X004061Y010785D01*
X003782Y011064D01*
X003419Y011064D01*
X003254Y011229D01*
X003254Y012396D01*
X003419Y012561D01*
X003782Y012561D01*
X003894Y012673D01*
X003894Y012259D01*
X004294Y011859D01*
X004294Y011209D01*
X005126Y010377D01*
X004606Y010377D01*
X004494Y010266D01*
X004393Y010165D01*
X004169Y010165D01*
X004087Y010083D01*
X004087Y009777D01*
X004061Y009777D01*
X004061Y009785D01*
X003782Y010064D01*
X003387Y010064D01*
X003108Y009785D01*
X003108Y009390D01*
X003387Y009111D01*
X003782Y009111D01*
X004061Y009390D01*
X004061Y009397D01*
X004087Y009397D01*
X004087Y009259D01*
X003837Y009009D01*
X003782Y009064D01*
X003387Y009064D01*
X003108Y008785D01*
X003108Y008390D01*
X003387Y008111D01*
X003782Y008111D01*
X004061Y008390D01*
X004061Y008695D01*
X004375Y009010D01*
X004600Y009010D01*
X004634Y009044D01*
X004669Y009010D01*
X005100Y009010D01*
X005182Y009092D01*
X005182Y009316D01*
X005424Y009559D01*
X005424Y009759D01*
X005463Y009797D01*
X008056Y009797D01*
X008406Y009447D01*
X008876Y009447D01*
X008844Y009415D01*
X008783Y009267D01*
X008783Y009107D01*
X008844Y008960D01*
X008957Y008847D01*
X009104Y008786D01*
X009264Y008786D01*
X009412Y008847D01*
X009525Y008960D01*
X009586Y009107D01*
X009586Y009267D01*
X009525Y009415D01*
X009493Y009447D01*
X009963Y009447D01*
X010163Y009647D01*
X010926Y009647D01*
X010744Y009466D01*
X010744Y008666D01*
X010702Y008624D01*
X010672Y008696D01*
X010593Y008775D01*
X010490Y008817D01*
X010379Y008817D01*
X010276Y008775D01*
X010228Y008727D01*
X008313Y008727D01*
X007564Y009476D01*
X007564Y009543D01*
X007522Y009646D01*
X007443Y009725D01*
X007340Y009767D01*
X007229Y009767D01*
X007126Y009725D01*
X007047Y009646D01*
X007004Y009543D01*
X007004Y009432D01*
X007047Y009329D01*
X007126Y009250D01*
X007229Y009207D01*
X007296Y009207D01*
X008076Y008427D01*
X008056Y008427D01*
X007194Y007566D01*
X007194Y006266D01*
X007094Y006166D01*
X007094Y005659D01*
X007304Y005449D01*
X007304Y005382D01*
X007347Y005279D01*
X007426Y005200D01*
X007529Y005157D01*
X007640Y005157D01*
X007743Y005200D01*
X007822Y005279D01*
X007864Y005382D01*
X007864Y005493D01*
X007822Y005596D01*
X007743Y005675D01*
X007712Y005687D01*
X007743Y005700D01*
X007822Y005779D01*
X007864Y005882D01*
X007864Y005993D01*
X007822Y006096D01*
X007774Y006143D01*
X007774Y007309D01*
X008313Y007847D01*
X010763Y007847D01*
X010874Y007959D01*
X011197Y008281D01*
X011269Y008210D01*
X011700Y008210D01*
X011782Y008292D01*
X011782Y008297D01*
X011807Y008297D01*
X011807Y008272D01*
X011841Y008237D01*
X011807Y008203D01*
X011807Y007772D01*
X011889Y007690D01*
X011894Y007690D01*
X011894Y007185D01*
X011889Y007185D01*
X011807Y007103D01*
X011807Y007001D01*
X011641Y007001D01*
X011583Y007060D01*
X011152Y007060D01*
X011070Y006978D01*
X011070Y006841D01*
X010338Y007573D01*
X010270Y007641D01*
X010182Y007677D01*
X008787Y007677D01*
X008698Y007641D01*
X008072Y007015D01*
X007976Y006975D01*
X007897Y006896D01*
X007854Y006793D01*
X007854Y006682D01*
X007894Y006585D01*
X007894Y006290D01*
X007854Y006193D01*
X007854Y006082D01*
X007897Y005979D01*
X007976Y005900D01*
X008079Y005857D01*
X008190Y005857D01*
X008293Y005900D01*
X008372Y005979D01*
X008414Y006082D01*
X008414Y006193D01*
X008374Y006290D01*
X008374Y006585D01*
X008412Y006675D01*
X008934Y007197D01*
X010035Y007197D01*
X010547Y006686D01*
X010286Y006686D01*
X010204Y006604D01*
X010204Y006409D01*
X009806Y006010D01*
X009694Y005899D01*
X009694Y005744D01*
X009610Y005744D01*
X009528Y005662D01*
X009528Y005113D01*
X009610Y005031D01*
X009694Y005031D01*
X009694Y004464D01*
X009687Y004464D01*
X009504Y004281D01*
X009504Y006246D01*
X009835Y006577D01*
X009840Y006577D01*
X009943Y006620D01*
X010022Y006699D01*
X010064Y006802D01*
X010064Y006913D01*
X010022Y007016D01*
X009943Y007095D01*
X009840Y007137D01*
X009729Y007137D01*
X009626Y007095D01*
X009547Y007016D01*
X009504Y006913D01*
X009504Y006869D01*
X009064Y006429D01*
X009064Y004281D01*
X008882Y004464D01*
X008487Y004464D01*
X008208Y004185D01*
X008208Y003790D01*
X008487Y003511D01*
X008882Y003511D01*
X009064Y003693D01*
X009064Y003679D01*
X008850Y003464D01*
X008487Y003464D01*
X008230Y003207D01*
X008138Y003207D01*
X007882Y003464D01*
X007487Y003464D01*
X007230Y003207D01*
X007138Y003207D01*
X006882Y003464D01*
X006487Y003464D01*
X006230Y003207D01*
X006208Y003207D01*
X006150Y003265D01*
X005719Y003265D01*
X005704Y003251D01*
X005704Y004096D01*
X006604Y004996D01*
X006604Y007911D01*
X006622Y007929D01*
X006664Y008032D01*
X006664Y008143D01*
X006622Y008246D01*
X006604Y008263D01*
X006604Y008281D01*
X006622Y008299D01*
X006664Y008402D01*
X006664Y008513D01*
X006622Y008616D01*
X006543Y008695D01*
X006440Y008737D01*
X006329Y008737D01*
X006226Y008695D01*
X006147Y008616D01*
X006104Y008513D01*
X006104Y008402D01*
X006147Y008299D01*
X006164Y008281D01*
X006164Y008263D01*
X006147Y008246D01*
X006104Y008143D01*
X006104Y008032D01*
X006147Y007929D01*
X006164Y007911D01*
X006164Y005179D01*
X005393Y004407D01*
X005264Y004279D01*
X005264Y002096D01*
X006014Y001346D01*
X006143Y001217D01*
X009025Y001217D01*
X009325Y001517D01*
X009454Y001646D01*
X009454Y002246D01*
X009719Y002511D01*
X010082Y002511D01*
X010168Y002597D01*
X010800Y002597D01*
X010887Y002511D01*
X011282Y002511D01*
X011368Y002597D01*
X011800Y002597D01*
X011887Y002511D01*
X012282Y002511D01*
X012368Y002597D01*
X013000Y002597D01*
X013087Y002511D01*
X013482Y002511D01*
X013568Y002597D01*
X014000Y002597D01*
X014087Y002511D01*
X014482Y002511D01*
X014761Y002790D01*
X014761Y003185D01*
X014482Y003464D01*
X014087Y003464D01*
X014000Y003377D01*
X013568Y003377D01*
X013482Y003464D01*
X013087Y003464D01*
X013000Y003377D01*
X012368Y003377D01*
X012282Y003464D01*
X011887Y003464D01*
X011800Y003377D01*
X011368Y003377D01*
X011282Y003464D01*
X010887Y003464D01*
X010800Y003377D01*
X010674Y003377D01*
X010674Y003723D01*
X010887Y003511D01*
X011282Y003511D01*
X011561Y003790D01*
X011561Y004185D01*
X011282Y004464D01*
X010887Y004464D01*
X010674Y004251D01*
X010674Y004509D01*
X011196Y005031D01*
X011559Y005031D01*
X011641Y005113D01*
X011641Y005662D01*
X011559Y005744D01*
X011010Y005744D01*
X010928Y005662D01*
X010928Y005300D01*
X010406Y004777D01*
X010406Y004777D01*
X010294Y004666D01*
X010294Y004251D01*
X010082Y004464D01*
X010074Y004464D01*
X010074Y005031D01*
X010159Y005031D01*
X010241Y005113D01*
X010241Y005662D01*
X010159Y005744D01*
X010076Y005744D01*
X010522Y006189D01*
X010717Y006189D01*
X010799Y006271D01*
X010799Y006434D01*
X010998Y006234D01*
X011087Y006197D01*
X011535Y006197D01*
X013048Y004684D01*
X013137Y004647D01*
X015185Y004647D01*
X015407Y004425D01*
X015444Y004335D01*
X015444Y002464D01*
X015337Y002464D01*
X015058Y002185D01*
X015058Y001790D01*
X015337Y001511D01*
X015732Y001511D01*
X016011Y001790D01*
X016011Y002185D01*
X015924Y002271D01*
X015924Y004247D01*
X016182Y004247D01*
X016279Y004207D01*
X016390Y004207D01*
X016493Y004250D01*
X016572Y004329D01*
X016614Y004432D01*
X016614Y004543D01*
X016572Y004646D01*
X016493Y004725D01*
X016390Y004767D01*
X016279Y004767D01*
X016182Y004727D01*
X015837Y004727D01*
X015746Y004765D01*
X015488Y005023D01*
X015488Y005023D01*
X015420Y005091D01*
X015332Y005127D01*
X013284Y005127D01*
X011838Y006573D01*
X011790Y006621D01*
X011857Y006621D01*
X011889Y006590D01*
X012280Y006590D01*
X012362Y006672D01*
X012362Y007103D01*
X012280Y007185D01*
X012274Y007185D01*
X012274Y007529D01*
X012344Y007459D01*
X012456Y007347D01*
X013556Y007347D01*
X013813Y007090D01*
X013776Y007075D01*
X013734Y007033D01*
X013693Y007075D01*
X013590Y007117D01*
X013479Y007117D01*
X013376Y007075D01*
X013297Y006996D01*
X013254Y006893D01*
X013254Y006782D01*
X013297Y006679D01*
X013376Y006600D01*
X013479Y006557D01*
X013546Y006557D01*
X014544Y005559D01*
X014656Y005447D01*
X016206Y005447D01*
X017344Y004309D01*
X017344Y002464D01*
X017337Y002464D01*
X017058Y002185D01*
X017058Y001790D01*
X017337Y001511D01*
X017732Y001511D01*
X018011Y001790D01*
X018011Y002185D01*
X017732Y002464D01*
X017724Y002464D01*
X017724Y002529D01*
X018063Y002190D01*
X018058Y002185D01*
X018058Y001790D01*
X018337Y001511D01*
X018732Y001511D01*
X019011Y001790D01*
X019011Y002185D01*
X018898Y002297D01*
X018956Y002297D01*
X019063Y002190D01*
X019058Y002185D01*
X019058Y001790D01*
X019337Y001511D01*
X019732Y001511D01*
X020011Y001790D01*
X020011Y002185D01*
X019732Y002464D01*
X019337Y002464D01*
X019332Y002459D01*
X019113Y002677D01*
X018413Y002677D01*
X018124Y002966D01*
X018124Y004666D01*
X018013Y004777D01*
X016563Y006227D01*
X015213Y006227D01*
X013713Y007727D01*
X012918Y007727D01*
X012962Y007772D01*
X012962Y007847D01*
X014163Y007847D01*
X014274Y007959D01*
X014424Y008109D01*
X014424Y009159D01*
X015113Y009847D01*
X015224Y009959D01*
X015224Y010131D01*
X015272Y010179D01*
X015314Y010282D01*
X015314Y010393D01*
X015301Y010424D01*
X015326Y010400D01*
X015429Y010357D01*
X015540Y010357D01*
X015643Y010400D01*
X015722Y010479D01*
X015764Y010582D01*
X015764Y010693D01*
X015722Y010796D01*
X015643Y010875D01*
X015540Y010917D01*
X015429Y010917D01*
X015326Y010875D01*
X015278Y010827D01*
X014806Y010827D01*
X014694Y010716D01*
X014672Y010694D01*
X014672Y010696D01*
X014593Y010775D01*
X014490Y010817D01*
X014379Y010817D01*
X014276Y010775D01*
X014197Y010696D01*
X014154Y010593D01*
X014154Y010526D01*
X013552Y009924D01*
X013522Y009996D01*
X013480Y010037D01*
X013522Y010079D01*
X013564Y010182D01*
X013564Y010293D01*
X013522Y010396D01*
X013480Y010437D01*
X013522Y010479D01*
X013564Y010582D01*
X013564Y010693D01*
X013522Y010796D01*
X013443Y010875D01*
X013340Y010917D01*
X013229Y010917D01*
X013126Y010875D01*
X013047Y010796D01*
X013004Y010693D01*
X013004Y010626D01*
X012906Y010527D01*
X012643Y010527D01*
X012873Y010757D01*
X012940Y010757D01*
X013043Y010800D01*
X013122Y010879D01*
X013164Y010982D01*
X013164Y011093D01*
X013122Y011196D01*
X013043Y011275D01*
X012940Y011317D01*
X012829Y011317D01*
X012726Y011275D01*
X012684Y011233D01*
X012643Y011275D01*
X012540Y011317D01*
X012429Y011317D01*
X012326Y011275D01*
X012284Y011233D01*
X012243Y011275D01*
X012140Y011317D01*
X012029Y011317D01*
X011926Y011275D01*
X011847Y011196D01*
X011819Y011127D01*
X010956Y011127D01*
X010856Y011027D01*
X009586Y011027D01*
X009586Y011167D01*
X009525Y011315D01*
X009412Y011428D01*
X009264Y011489D01*
X009104Y011489D01*
X008957Y011428D01*
X008844Y011315D01*
X008783Y011167D01*
X008783Y011108D01*
X008713Y011177D01*
X006400Y011177D01*
X006372Y011246D01*
X006293Y011325D01*
X006190Y011367D01*
X006079Y011367D01*
X005976Y011325D01*
X005897Y011246D01*
X005854Y011143D01*
X005854Y011032D01*
X005877Y010977D01*
X005813Y010977D01*
X005714Y011076D01*
X005714Y011143D01*
X005672Y011246D01*
X005593Y011325D01*
X005490Y011367D01*
X005379Y011367D01*
X005276Y011325D01*
X005197Y011246D01*
X005167Y011174D01*
X004874Y011466D01*
X004874Y011981D01*
X004922Y012029D01*
X004964Y012132D01*
X004964Y012191D02*
X006976Y012191D01*
X007054Y012113D02*
X007054Y012032D01*
X007097Y011929D01*
X007176Y011850D01*
X007279Y011807D01*
X007390Y011807D01*
X007493Y011850D01*
X007572Y011929D01*
X007614Y012032D01*
X007614Y012143D01*
X007588Y012207D01*
X007868Y012207D01*
X007926Y012150D01*
X008029Y012107D01*
X008140Y012107D01*
X008243Y012150D01*
X008322Y012229D01*
X008364Y012332D01*
X008364Y012443D01*
X008322Y012546D01*
X008243Y012625D01*
X008140Y012667D01*
X008029Y012667D01*
X007926Y012625D01*
X007868Y012567D01*
X007359Y012567D01*
X006514Y013412D01*
X006514Y013912D01*
X006436Y013990D01*
X006630Y013990D01*
X006712Y014072D01*
X006712Y014503D01*
X006654Y014561D01*
X006654Y014585D01*
X006673Y014604D01*
X006673Y015215D01*
X006675Y015217D01*
X006728Y015217D01*
X006728Y015013D01*
X006810Y014931D01*
X007359Y014931D01*
X007441Y015013D01*
X007441Y015217D01*
X007996Y015217D01*
X007996Y014604D01*
X008046Y014554D01*
X007460Y013967D01*
X007379Y013967D01*
X007276Y013925D01*
X007197Y013846D01*
X007154Y013743D01*
X007154Y013632D01*
X007197Y013529D01*
X007276Y013450D01*
X007379Y013407D01*
X007490Y013407D01*
X007593Y013450D01*
X007672Y013529D01*
X007714Y013632D01*
X007714Y013713D01*
X008234Y014233D01*
X008609Y013858D01*
X008597Y013846D01*
X008554Y013743D01*
X008554Y013632D01*
X008597Y013529D01*
X008676Y013450D01*
X008779Y013407D01*
X008890Y013407D01*
X008954Y013434D01*
X008954Y013113D01*
X009454Y012613D01*
X009560Y012507D01*
X009718Y012507D01*
X009776Y012450D01*
X009879Y012407D01*
X009990Y012407D01*
X010093Y012450D01*
X010172Y012529D01*
X010214Y012632D01*
X010214Y012743D01*
X010172Y012846D01*
X010093Y012925D01*
X009990Y012967D01*
X009879Y012967D01*
X009776Y012925D01*
X009718Y012867D01*
X009709Y012867D01*
X009314Y013262D01*
X009314Y013912D01*
X009236Y013990D01*
X009430Y013990D01*
X009512Y014072D01*
X009512Y014503D01*
X009454Y014561D01*
X009454Y014585D01*
X009473Y014604D01*
X009473Y015217D01*
X009528Y015217D01*
X009528Y015013D01*
X009610Y014931D01*
X010159Y014931D01*
X010241Y015013D01*
X010241Y015217D01*
X010796Y015217D01*
X010796Y014604D01*
X010846Y014554D01*
X010260Y013967D01*
X010179Y013967D01*
X010076Y013925D01*
X009997Y013846D01*
X009954Y013743D01*
X009954Y013632D01*
X009997Y013529D01*
X010076Y013450D01*
X010179Y013407D01*
X010290Y013407D01*
X010393Y013450D01*
X010472Y013529D01*
X010514Y013632D01*
X010514Y013713D01*
X011034Y014233D01*
X011409Y013858D01*
X011397Y013846D01*
X011354Y013743D01*
X011354Y013632D01*
X011397Y013529D01*
X011441Y013485D01*
X011439Y013485D01*
X011357Y013403D01*
X011357Y012972D01*
X011439Y012890D01*
X011444Y012890D01*
X011444Y012837D01*
X011426Y012837D01*
X011344Y012755D01*
X011344Y012027D01*
X010756Y012027D01*
X010596Y011867D01*
X010529Y011867D01*
X010426Y011825D01*
X010347Y011746D01*
X010304Y011643D01*
X010304Y011532D01*
X010347Y011429D01*
X010426Y011350D01*
X010529Y011307D01*
X010640Y011307D01*
X010743Y011350D01*
X010822Y011429D01*
X010864Y011532D01*
X010864Y011599D01*
X010913Y011647D01*
X011416Y011647D01*
X011426Y011637D01*
X012042Y011637D01*
X012124Y011719D01*
X012124Y012301D01*
X012176Y012250D01*
X012279Y012207D01*
X012390Y012207D01*
X012493Y012250D01*
X012572Y012329D01*
X012614Y012432D01*
X012614Y012543D01*
X012572Y012646D01*
X012493Y012725D01*
X012422Y012754D01*
X012409Y012767D01*
X012114Y013062D01*
X012114Y013912D01*
X012036Y013990D01*
X012230Y013990D01*
X012312Y014072D01*
X012312Y014503D01*
X012254Y014561D01*
X012254Y014585D01*
X012273Y014604D01*
X012273Y015217D01*
X012328Y015217D01*
X012328Y015013D01*
X012410Y014931D01*
X012959Y014931D01*
X013041Y015013D01*
X013041Y015217D01*
X013596Y015217D01*
X013596Y014604D01*
X013646Y014554D01*
X013060Y013967D01*
X012979Y013967D01*
X012876Y013925D01*
X012797Y013846D01*
X012754Y013743D01*
X012754Y013632D01*
X012797Y013529D01*
X012876Y013450D01*
X012979Y013407D01*
X013090Y013407D01*
X013193Y013450D01*
X013272Y013529D01*
X013314Y013632D01*
X013314Y013713D01*
X013834Y014233D01*
X014209Y013858D01*
X014197Y013846D01*
X014154Y013743D01*
X014154Y013632D01*
X014197Y013529D01*
X014276Y013450D01*
X014379Y013407D01*
X014450Y013407D01*
X014060Y013017D01*
X013979Y013017D01*
X013876Y012975D01*
X013797Y012896D01*
X013754Y012793D01*
X013754Y012682D01*
X013797Y012579D01*
X013876Y012500D01*
X013979Y012457D01*
X014090Y012457D01*
X014193Y012500D01*
X014272Y012579D01*
X014314Y012682D01*
X014314Y012763D01*
X014914Y013363D01*
X014914Y013912D01*
X014836Y013990D01*
X015030Y013990D01*
X015112Y014072D01*
X015112Y014503D01*
X015054Y014561D01*
X015054Y014585D01*
X015073Y014604D01*
X015073Y015217D01*
X015128Y015217D01*
X015128Y015013D01*
X015210Y014931D01*
X015759Y014931D01*
X015841Y015013D01*
X015841Y015217D01*
X016396Y015217D01*
X016396Y014604D01*
X016446Y014554D01*
X015860Y013967D01*
X015779Y013967D01*
X015676Y013925D01*
X015597Y013846D01*
X015554Y013743D01*
X015554Y013632D01*
X015597Y013529D01*
X015676Y013450D01*
X015779Y013407D01*
X015890Y013407D01*
X015993Y013450D01*
X016072Y013529D01*
X016114Y013632D01*
X016114Y013713D01*
X016634Y014233D01*
X017009Y013858D01*
X016997Y013846D01*
X016954Y013743D01*
X016954Y013632D01*
X016997Y013529D01*
X017076Y013450D01*
X017123Y013430D01*
X016960Y013267D01*
X016879Y013267D01*
X016776Y013225D01*
X016697Y013146D01*
X016654Y013043D01*
X016654Y012932D01*
X016697Y012829D01*
X016776Y012750D01*
X016879Y012707D01*
X016990Y012707D01*
X017093Y012750D01*
X017172Y012829D01*
X017214Y012932D01*
X017214Y013013D01*
X017714Y013513D01*
X017714Y013912D01*
X017636Y013990D01*
X017830Y013990D01*
X017912Y014072D01*
X017912Y014503D01*
X017854Y014561D01*
X017854Y014585D01*
X017873Y014604D01*
X017873Y015217D01*
X017928Y015217D01*
X017928Y015013D01*
X018010Y014931D01*
X018559Y014931D01*
X018641Y015013D01*
X018641Y015217D01*
X019196Y015217D01*
X019196Y014604D01*
X019254Y014545D01*
X019254Y014412D01*
X018075Y013232D01*
X017990Y013267D01*
X017879Y013267D01*
X017776Y013225D01*
X017697Y013146D01*
X017654Y013043D01*
X017654Y012932D01*
X017697Y012829D01*
X017776Y012750D01*
X017879Y012707D01*
X017990Y012707D01*
X018093Y012750D01*
X018150Y012807D01*
X018159Y012807D01*
X019614Y014263D01*
X019614Y014545D01*
X019673Y014604D01*
X019673Y015217D01*
X019696Y015217D01*
X019696Y014604D01*
X019754Y014545D01*
X019754Y014112D01*
X018060Y012417D01*
X015400Y012417D01*
X015343Y012475D01*
X015240Y012517D01*
X015129Y012517D01*
X015026Y012475D01*
X014947Y012396D01*
X014904Y012293D01*
X014904Y012182D01*
X014947Y012079D01*
X015026Y012000D01*
X015129Y011957D01*
X015240Y011957D01*
X015343Y012000D01*
X015400Y012057D01*
X016054Y012057D01*
X015988Y011992D01*
X015988Y011483D01*
X016070Y011401D01*
X016408Y011401D01*
X016382Y011374D01*
X016070Y011374D01*
X015988Y011292D01*
X015988Y010783D01*
X016070Y010701D01*
X016698Y010701D01*
X016780Y010783D01*
X016780Y010814D01*
X016819Y010775D01*
X016983Y010775D01*
X016987Y010773D01*
X017035Y010773D01*
X017044Y010764D01*
X017044Y010440D01*
X017047Y010432D01*
X017047Y009974D01*
X017124Y009897D01*
X017124Y006386D01*
X017164Y006290D01*
X017237Y006217D01*
X017237Y006217D01*
X018994Y004460D01*
X018994Y003860D01*
X019054Y003716D01*
X019163Y003607D01*
X019307Y003547D01*
X019462Y003547D01*
X019605Y003607D01*
X019715Y003716D01*
X019774Y003860D01*
X019774Y004515D01*
X019715Y004658D01*
X019605Y004768D01*
X019462Y004827D01*
X019362Y004827D01*
X017644Y006545D01*
X017644Y009716D01*
X017743Y009617D01*
X018975Y009617D01*
X019104Y009746D01*
X019104Y009746D01*
X019539Y010181D01*
X019859Y010181D01*
X019941Y010263D01*
X019941Y010812D01*
X019859Y010894D01*
X019310Y010894D01*
X019228Y010812D01*
X019228Y010492D01*
X018793Y010057D01*
X017925Y010057D01*
X017721Y010262D01*
X017721Y010601D01*
X017639Y010683D01*
X017524Y010683D01*
X017524Y010858D01*
X017572Y010810D01*
X017661Y010773D01*
X018182Y010773D01*
X018186Y010775D01*
X018350Y010775D01*
X018432Y010857D01*
X018432Y011170D01*
X018350Y011252D01*
X018186Y011252D01*
X018182Y011253D01*
X018352Y011249D02*
X020551Y011249D01*
X020551Y011171D02*
X018431Y011171D01*
X018432Y011092D02*
X020551Y011092D01*
X020551Y011014D02*
X018432Y011014D01*
X018432Y010935D02*
X020551Y010935D01*
X020551Y010857D02*
X019896Y010857D01*
X019941Y010778D02*
X020551Y010778D01*
X020551Y010700D02*
X019941Y010700D01*
X019941Y010621D02*
X020551Y010621D01*
X020551Y010543D02*
X019941Y010543D01*
X019941Y010464D02*
X020551Y010464D01*
X020551Y010386D02*
X019941Y010386D01*
X019941Y010307D02*
X020551Y010307D01*
X020551Y010229D02*
X019907Y010229D01*
X019508Y010150D02*
X020551Y010150D01*
X020551Y010097D02*
X020644Y010004D01*
X021924Y010004D01*
X022018Y010097D01*
X022018Y011377D01*
X021924Y011471D01*
X020644Y011471D01*
X020551Y011377D01*
X020551Y010097D01*
X020576Y010072D02*
X019430Y010072D01*
X019351Y009993D02*
X022379Y009993D01*
X022379Y009915D02*
X019273Y009915D01*
X019194Y009836D02*
X022379Y009836D01*
X022379Y009758D02*
X019116Y009758D01*
X019037Y009679D02*
X022379Y009679D01*
X022379Y009601D02*
X017644Y009601D01*
X017644Y009679D02*
X017681Y009679D01*
X017644Y009522D02*
X022379Y009522D01*
X022379Y009444D02*
X017644Y009444D01*
X017644Y009365D02*
X022379Y009365D01*
X022379Y009287D02*
X017644Y009287D01*
X017644Y009208D02*
X022379Y009208D01*
X022379Y009130D02*
X017644Y009130D01*
X017644Y009051D02*
X022379Y009051D01*
X022379Y008973D02*
X017644Y008973D01*
X017644Y008894D02*
X022379Y008894D01*
X022379Y008816D02*
X017644Y008816D01*
X017644Y008737D02*
X022379Y008737D01*
X022379Y008659D02*
X017644Y008659D01*
X017644Y008580D02*
X022379Y008580D01*
X022379Y008502D02*
X017644Y008502D01*
X017644Y008423D02*
X022379Y008423D01*
X022379Y008345D02*
X017644Y008345D01*
X017644Y008266D02*
X022379Y008266D01*
X022379Y008188D02*
X017644Y008188D01*
X017644Y008109D02*
X022379Y008109D01*
X022379Y008031D02*
X017644Y008031D01*
X017644Y007952D02*
X022379Y007952D01*
X022379Y007874D02*
X017644Y007874D01*
X017644Y007795D02*
X022379Y007795D01*
X022379Y007717D02*
X017644Y007717D01*
X017644Y007638D02*
X022379Y007638D01*
X022379Y007560D02*
X017644Y007560D01*
X017644Y007481D02*
X022379Y007481D01*
X022379Y007403D02*
X017644Y007403D01*
X017644Y007324D02*
X022379Y007324D01*
X022379Y007246D02*
X017644Y007246D01*
X017644Y007167D02*
X022379Y007167D01*
X022379Y007089D02*
X017644Y007089D01*
X017644Y007010D02*
X022379Y007010D01*
X022379Y006932D02*
X017644Y006932D01*
X017644Y006853D02*
X022379Y006853D01*
X022379Y006775D02*
X017644Y006775D01*
X017644Y006696D02*
X022379Y006696D01*
X022379Y006618D02*
X017644Y006618D01*
X017650Y006539D02*
X022379Y006539D01*
X022379Y006461D02*
X017728Y006461D01*
X017807Y006382D02*
X022379Y006382D01*
X022379Y006304D02*
X017885Y006304D01*
X017964Y006225D02*
X022379Y006225D01*
X022379Y006147D02*
X018042Y006147D01*
X018121Y006068D02*
X022379Y006068D01*
X022379Y005990D02*
X018199Y005990D01*
X018278Y005911D02*
X022379Y005911D01*
X022379Y005833D02*
X018356Y005833D01*
X018435Y005754D02*
X022379Y005754D01*
X022379Y005676D02*
X018513Y005676D01*
X018592Y005597D02*
X022379Y005597D01*
X022379Y005519D02*
X018670Y005519D01*
X018749Y005440D02*
X022379Y005440D01*
X022379Y005362D02*
X018827Y005362D01*
X018906Y005283D02*
X022379Y005283D01*
X022379Y005205D02*
X018984Y005205D01*
X019063Y005126D02*
X022379Y005126D01*
X022379Y005048D02*
X019141Y005048D01*
X019220Y004969D02*
X022379Y004969D01*
X022379Y004891D02*
X019298Y004891D01*
X019498Y004812D02*
X022379Y004812D01*
X022379Y004734D02*
X019639Y004734D01*
X019716Y004655D02*
X022379Y004655D01*
X022379Y004577D02*
X019749Y004577D01*
X019774Y004498D02*
X022379Y004498D01*
X022379Y004420D02*
X019774Y004420D01*
X019774Y004341D02*
X022379Y004341D01*
X022379Y004263D02*
X019774Y004263D01*
X019774Y004184D02*
X022379Y004184D01*
X022379Y004106D02*
X019774Y004106D01*
X019774Y004027D02*
X022379Y004027D01*
X022379Y003949D02*
X019774Y003949D01*
X019774Y003870D02*
X022379Y003870D01*
X022379Y003792D02*
X019746Y003792D01*
X019712Y003713D02*
X022379Y003713D01*
X022379Y003635D02*
X019633Y003635D01*
X019484Y003556D02*
X022379Y003556D01*
X022379Y003478D02*
X018124Y003478D01*
X018124Y003556D02*
X019285Y003556D01*
X019135Y003635D02*
X018124Y003635D01*
X018124Y003713D02*
X019057Y003713D01*
X019022Y003792D02*
X018124Y003792D01*
X018124Y003870D02*
X018994Y003870D01*
X018994Y003949D02*
X018124Y003949D01*
X018124Y004027D02*
X018994Y004027D01*
X018994Y004106D02*
X018124Y004106D01*
X018124Y004184D02*
X018994Y004184D01*
X018994Y004263D02*
X018124Y004263D01*
X018124Y004341D02*
X018994Y004341D01*
X018994Y004420D02*
X018124Y004420D01*
X018124Y004498D02*
X018956Y004498D01*
X018877Y004577D02*
X018124Y004577D01*
X018124Y004655D02*
X018799Y004655D01*
X018720Y004734D02*
X018057Y004734D01*
X017978Y004812D02*
X018642Y004812D01*
X018563Y004891D02*
X017900Y004891D01*
X017821Y004969D02*
X018485Y004969D01*
X018406Y005048D02*
X017743Y005048D01*
X017664Y005126D02*
X018328Y005126D01*
X018249Y005205D02*
X017586Y005205D01*
X017507Y005283D02*
X018171Y005283D01*
X018092Y005362D02*
X017429Y005362D01*
X017350Y005440D02*
X018014Y005440D01*
X017935Y005519D02*
X017272Y005519D01*
X017193Y005597D02*
X017857Y005597D01*
X017778Y005676D02*
X017115Y005676D01*
X017036Y005754D02*
X017700Y005754D01*
X017621Y005833D02*
X016958Y005833D01*
X016879Y005911D02*
X017543Y005911D01*
X017464Y005990D02*
X016800Y005990D01*
X016722Y006068D02*
X017386Y006068D01*
X017307Y006147D02*
X016643Y006147D01*
X016565Y006225D02*
X017229Y006225D01*
X017158Y006304D02*
X015136Y006304D01*
X015058Y006382D02*
X017126Y006382D01*
X017124Y006461D02*
X014979Y006461D01*
X014901Y006539D02*
X017124Y006539D01*
X017124Y006618D02*
X014822Y006618D01*
X014744Y006696D02*
X017124Y006696D01*
X017124Y006775D02*
X014665Y006775D01*
X014587Y006853D02*
X017124Y006853D01*
X017124Y006932D02*
X014508Y006932D01*
X014430Y007010D02*
X017124Y007010D01*
X017124Y007089D02*
X014351Y007089D01*
X014273Y007167D02*
X017124Y007167D01*
X017124Y007246D02*
X014194Y007246D01*
X014116Y007324D02*
X017124Y007324D01*
X017124Y007403D02*
X014037Y007403D01*
X013959Y007481D02*
X017124Y007481D01*
X017124Y007560D02*
X013880Y007560D01*
X013802Y007638D02*
X017124Y007638D01*
X017124Y007717D02*
X013723Y007717D01*
X013579Y007324D02*
X012274Y007324D01*
X012274Y007246D02*
X013657Y007246D01*
X013736Y007167D02*
X012298Y007167D01*
X012362Y007089D02*
X013410Y007089D01*
X013311Y007010D02*
X012362Y007010D01*
X012362Y006932D02*
X013270Y006932D01*
X013254Y006853D02*
X012362Y006853D01*
X012362Y006775D02*
X013257Y006775D01*
X013290Y006696D02*
X012362Y006696D01*
X012308Y006618D02*
X013358Y006618D01*
X013564Y006539D02*
X011872Y006539D01*
X011861Y006618D02*
X011793Y006618D01*
X011950Y006461D02*
X013642Y006461D01*
X013721Y006382D02*
X012029Y006382D01*
X012107Y006304D02*
X013799Y006304D01*
X013878Y006225D02*
X012186Y006225D01*
X012264Y006147D02*
X013956Y006147D01*
X014035Y006068D02*
X012343Y006068D01*
X012421Y005990D02*
X014113Y005990D01*
X014192Y005911D02*
X012500Y005911D01*
X012578Y005833D02*
X014270Y005833D01*
X014349Y005754D02*
X012657Y005754D01*
X012735Y005676D02*
X014427Y005676D01*
X014506Y005597D02*
X012814Y005597D01*
X012892Y005519D02*
X014584Y005519D01*
X015334Y005126D02*
X016527Y005126D01*
X016605Y005048D02*
X015463Y005048D01*
X015542Y004969D02*
X016684Y004969D01*
X016762Y004891D02*
X015620Y004891D01*
X015699Y004812D02*
X016841Y004812D01*
X016919Y004734D02*
X016471Y004734D01*
X016562Y004655D02*
X016998Y004655D01*
X017076Y004577D02*
X016600Y004577D01*
X016614Y004498D02*
X017155Y004498D01*
X017233Y004420D02*
X016609Y004420D01*
X016577Y004341D02*
X017312Y004341D01*
X017344Y004263D02*
X016506Y004263D01*
X016198Y004734D02*
X015821Y004734D01*
X015409Y004420D02*
X014526Y004420D01*
X014482Y004464D02*
X014087Y004464D01*
X013808Y004185D01*
X013808Y003790D01*
X014087Y003511D01*
X014482Y003511D01*
X014761Y003790D01*
X014761Y004185D01*
X014482Y004464D01*
X014604Y004341D02*
X015442Y004341D01*
X015444Y004263D02*
X014683Y004263D01*
X014761Y004184D02*
X015444Y004184D01*
X015444Y004106D02*
X014761Y004106D01*
X014761Y004027D02*
X015444Y004027D01*
X015444Y003949D02*
X014761Y003949D01*
X014761Y003870D02*
X015444Y003870D01*
X015444Y003792D02*
X014761Y003792D01*
X014684Y003713D02*
X015444Y003713D01*
X015444Y003635D02*
X014606Y003635D01*
X014527Y003556D02*
X015444Y003556D01*
X015444Y003478D02*
X010674Y003478D01*
X010674Y003556D02*
X010841Y003556D01*
X010763Y003635D02*
X010674Y003635D01*
X010674Y003713D02*
X010684Y003713D01*
X010674Y003399D02*
X010822Y003399D01*
X011346Y003399D02*
X011822Y003399D01*
X011887Y003511D02*
X012282Y003511D01*
X012561Y003790D01*
X012561Y004185D01*
X012282Y004464D01*
X011887Y004464D01*
X011608Y004185D01*
X011608Y003790D01*
X011887Y003511D01*
X011841Y003556D02*
X011327Y003556D01*
X011406Y003635D02*
X011763Y003635D01*
X011684Y003713D02*
X011484Y003713D01*
X011561Y003792D02*
X011608Y003792D01*
X011608Y003870D02*
X011561Y003870D01*
X011561Y003949D02*
X011608Y003949D01*
X011608Y004027D02*
X011561Y004027D01*
X011561Y004106D02*
X011608Y004106D01*
X011608Y004184D02*
X011561Y004184D01*
X011483Y004263D02*
X011686Y004263D01*
X011764Y004341D02*
X011404Y004341D01*
X011326Y004420D02*
X011843Y004420D01*
X012326Y004420D02*
X013043Y004420D01*
X013087Y004464D02*
X012808Y004185D01*
X012808Y003790D01*
X013087Y003511D01*
X013482Y003511D01*
X013761Y003790D01*
X013761Y004185D01*
X013482Y004464D01*
X013087Y004464D01*
X012964Y004341D02*
X012404Y004341D01*
X012483Y004263D02*
X012886Y004263D01*
X012808Y004184D02*
X012561Y004184D01*
X012561Y004106D02*
X012808Y004106D01*
X012808Y004027D02*
X012561Y004027D01*
X012561Y003949D02*
X012808Y003949D01*
X012808Y003870D02*
X012561Y003870D01*
X012561Y003792D02*
X012808Y003792D01*
X012884Y003713D02*
X012484Y003713D01*
X012406Y003635D02*
X012963Y003635D01*
X013041Y003556D02*
X012327Y003556D01*
X012346Y003399D02*
X013022Y003399D01*
X013546Y003399D02*
X014022Y003399D01*
X014041Y003556D02*
X013527Y003556D01*
X013606Y003635D02*
X013963Y003635D01*
X013884Y003713D02*
X013684Y003713D01*
X013761Y003792D02*
X013808Y003792D01*
X013808Y003870D02*
X013761Y003870D01*
X013761Y003949D02*
X013808Y003949D01*
X013808Y004027D02*
X013761Y004027D01*
X013761Y004106D02*
X013808Y004106D01*
X013808Y004184D02*
X013761Y004184D01*
X013683Y004263D02*
X013886Y004263D01*
X013964Y004341D02*
X013604Y004341D01*
X013526Y004420D02*
X014043Y004420D01*
X013117Y004655D02*
X010821Y004655D01*
X010743Y004577D02*
X015255Y004577D01*
X015334Y004498D02*
X010674Y004498D01*
X010674Y004420D02*
X010843Y004420D01*
X010764Y004341D02*
X010674Y004341D01*
X010674Y004263D02*
X010686Y004263D01*
X010294Y004263D02*
X010283Y004263D01*
X010294Y004341D02*
X010204Y004341D01*
X010126Y004420D02*
X010294Y004420D01*
X010294Y004498D02*
X010074Y004498D01*
X010074Y004577D02*
X010294Y004577D01*
X010294Y004655D02*
X010074Y004655D01*
X010074Y004734D02*
X010362Y004734D01*
X010441Y004812D02*
X010074Y004812D01*
X010074Y004891D02*
X010519Y004891D01*
X010598Y004969D02*
X010074Y004969D01*
X010176Y005048D02*
X010676Y005048D01*
X010755Y005126D02*
X010241Y005126D01*
X010241Y005205D02*
X010833Y005205D01*
X010912Y005283D02*
X010241Y005283D01*
X010241Y005362D02*
X010928Y005362D01*
X010928Y005440D02*
X010241Y005440D01*
X010241Y005519D02*
X010928Y005519D01*
X010928Y005597D02*
X010241Y005597D01*
X010227Y005676D02*
X010942Y005676D01*
X011019Y006225D02*
X010753Y006225D01*
X010799Y006304D02*
X010928Y006304D01*
X010850Y006382D02*
X010799Y006382D01*
X010479Y006147D02*
X011585Y006147D01*
X011664Y006068D02*
X010401Y006068D01*
X010322Y005990D02*
X011742Y005990D01*
X011821Y005911D02*
X010244Y005911D01*
X010165Y005833D02*
X011899Y005833D01*
X011978Y005754D02*
X010087Y005754D01*
X009864Y006068D02*
X009504Y006068D01*
X009504Y005990D02*
X009785Y005990D01*
X009707Y005911D02*
X009504Y005911D01*
X009504Y005833D02*
X009694Y005833D01*
X009694Y005754D02*
X009504Y005754D01*
X009504Y005676D02*
X009542Y005676D01*
X009528Y005597D02*
X009504Y005597D01*
X009504Y005519D02*
X009528Y005519D01*
X009528Y005440D02*
X009504Y005440D01*
X009504Y005362D02*
X009528Y005362D01*
X009528Y005283D02*
X009504Y005283D01*
X009504Y005205D02*
X009528Y005205D01*
X009528Y005126D02*
X009504Y005126D01*
X009504Y005048D02*
X009593Y005048D01*
X009504Y004969D02*
X009694Y004969D01*
X009694Y004891D02*
X009504Y004891D01*
X009504Y004812D02*
X009694Y004812D01*
X009694Y004734D02*
X009504Y004734D01*
X009504Y004655D02*
X009694Y004655D01*
X009694Y004577D02*
X009504Y004577D01*
X009504Y004498D02*
X009694Y004498D01*
X009643Y004420D02*
X009504Y004420D01*
X009504Y004341D02*
X009564Y004341D01*
X009064Y004341D02*
X009004Y004341D01*
X009064Y004420D02*
X008926Y004420D01*
X009064Y004498D02*
X006106Y004498D01*
X006028Y004420D02*
X006443Y004420D01*
X006487Y004464D02*
X006208Y004185D01*
X006208Y003790D01*
X006487Y003511D01*
X006882Y003511D01*
X007161Y003790D01*
X007161Y004185D01*
X006882Y004464D01*
X006487Y004464D01*
X006364Y004341D02*
X005949Y004341D01*
X005871Y004263D02*
X006286Y004263D01*
X006208Y004184D02*
X005792Y004184D01*
X005714Y004106D02*
X006208Y004106D01*
X006208Y004027D02*
X005704Y004027D01*
X005704Y003949D02*
X006208Y003949D01*
X006208Y003870D02*
X005704Y003870D01*
X005704Y003792D02*
X006208Y003792D01*
X006284Y003713D02*
X005704Y003713D01*
X005704Y003635D02*
X006363Y003635D01*
X006441Y003556D02*
X005704Y003556D01*
X005704Y003478D02*
X008864Y003478D01*
X008927Y003556D02*
X008942Y003556D01*
X009006Y003635D02*
X009021Y003635D01*
X009329Y003321D02*
X009544Y003321D01*
X009622Y003399D02*
X009407Y003399D01*
X009486Y003478D02*
X010294Y003478D01*
X010294Y003556D02*
X010127Y003556D01*
X010082Y003511D02*
X010294Y003723D01*
X010294Y003377D01*
X010168Y003377D01*
X010082Y003464D01*
X009687Y003464D01*
X009408Y003185D01*
X009408Y002822D01*
X009014Y002429D01*
X009014Y001829D01*
X006153Y001829D01*
X006075Y001908D02*
X009014Y001908D01*
X009014Y001986D02*
X005996Y001986D01*
X005918Y002065D02*
X009014Y002065D01*
X009014Y002143D02*
X005839Y002143D01*
X005761Y002222D02*
X009014Y002222D01*
X009014Y002300D02*
X005704Y002300D01*
X005704Y002279D02*
X005704Y002724D01*
X005719Y002710D01*
X006150Y002710D01*
X006208Y002767D01*
X006230Y002767D01*
X006487Y002511D01*
X006882Y002511D01*
X007138Y002767D01*
X007230Y002767D01*
X007487Y002511D01*
X007882Y002511D01*
X008138Y002767D01*
X008230Y002767D01*
X008487Y002511D01*
X008882Y002511D01*
X009161Y002790D01*
X009161Y003153D01*
X009504Y003496D01*
X009504Y003693D01*
X009687Y003511D01*
X010082Y003511D01*
X010146Y003399D02*
X010294Y003399D01*
X010294Y003635D02*
X010206Y003635D01*
X010284Y003713D02*
X010294Y003713D01*
X009641Y003556D02*
X009504Y003556D01*
X009504Y003635D02*
X009563Y003635D01*
X009465Y003242D02*
X009250Y003242D01*
X009172Y003164D02*
X009408Y003164D01*
X009408Y003085D02*
X009161Y003085D01*
X009161Y003007D02*
X009408Y003007D01*
X009408Y002928D02*
X009161Y002928D01*
X009161Y002850D02*
X009408Y002850D01*
X009357Y002771D02*
X009142Y002771D01*
X009064Y002693D02*
X009279Y002693D01*
X009200Y002614D02*
X008985Y002614D01*
X008907Y002536D02*
X009122Y002536D01*
X009043Y002457D02*
X005704Y002457D01*
X005704Y002379D02*
X009014Y002379D01*
X009454Y002222D02*
X015095Y002222D01*
X015058Y002143D02*
X009454Y002143D01*
X009454Y002065D02*
X015058Y002065D01*
X015058Y001986D02*
X009454Y001986D01*
X009454Y001908D02*
X015058Y001908D01*
X015058Y001829D02*
X009454Y001829D01*
X009454Y001751D02*
X015097Y001751D01*
X015175Y001672D02*
X009454Y001672D01*
X009402Y001594D02*
X015254Y001594D01*
X015332Y001515D02*
X009323Y001515D01*
X009245Y001437D02*
X020488Y001437D01*
X020467Y001515D02*
X019736Y001515D01*
X019815Y001594D02*
X020446Y001594D01*
X020425Y001672D02*
X019893Y001672D01*
X019972Y001751D02*
X020411Y001751D01*
X020411Y001829D02*
X020011Y001829D01*
X020011Y001908D02*
X020411Y001908D01*
X020411Y001986D02*
X020011Y001986D01*
X020011Y002065D02*
X020423Y002065D01*
X020444Y002143D02*
X020011Y002143D01*
X019974Y002222D02*
X020465Y002222D01*
X020486Y002300D02*
X019895Y002300D01*
X019817Y002379D02*
X020530Y002379D01*
X020575Y002457D02*
X019738Y002457D01*
X019255Y002536D02*
X020620Y002536D01*
X020688Y002614D02*
X019176Y002614D01*
X019031Y002222D02*
X018974Y002222D01*
X019011Y002143D02*
X019058Y002143D01*
X019058Y002065D02*
X019011Y002065D01*
X019011Y001986D02*
X019058Y001986D01*
X019058Y001908D02*
X019011Y001908D01*
X019011Y001829D02*
X019058Y001829D01*
X019097Y001751D02*
X018972Y001751D01*
X018893Y001672D02*
X019175Y001672D01*
X019254Y001594D02*
X018815Y001594D01*
X018736Y001515D02*
X019332Y001515D01*
X018332Y001515D02*
X017736Y001515D01*
X017815Y001594D02*
X018254Y001594D01*
X018175Y001672D02*
X017893Y001672D01*
X017972Y001751D02*
X018097Y001751D01*
X018058Y001829D02*
X018011Y001829D01*
X018011Y001908D02*
X018058Y001908D01*
X018058Y001986D02*
X018011Y001986D01*
X018011Y002065D02*
X018058Y002065D01*
X018058Y002143D02*
X018011Y002143D01*
X018031Y002222D02*
X017974Y002222D01*
X017953Y002300D02*
X017895Y002300D01*
X017874Y002379D02*
X017817Y002379D01*
X017796Y002457D02*
X017738Y002457D01*
X017344Y002536D02*
X015924Y002536D01*
X015924Y002614D02*
X017344Y002614D01*
X017344Y002693D02*
X015924Y002693D01*
X015924Y002771D02*
X017344Y002771D01*
X017344Y002850D02*
X015924Y002850D01*
X015924Y002928D02*
X017344Y002928D01*
X017344Y003007D02*
X015924Y003007D01*
X015924Y003085D02*
X017344Y003085D01*
X017344Y003164D02*
X015924Y003164D01*
X015924Y003242D02*
X017344Y003242D01*
X017344Y003321D02*
X015924Y003321D01*
X015924Y003399D02*
X017344Y003399D01*
X017344Y003478D02*
X015924Y003478D01*
X015924Y003556D02*
X017344Y003556D01*
X017344Y003635D02*
X015924Y003635D01*
X015924Y003713D02*
X017344Y003713D01*
X017344Y003792D02*
X015924Y003792D01*
X015924Y003870D02*
X017344Y003870D01*
X017344Y003949D02*
X015924Y003949D01*
X015924Y004027D02*
X017344Y004027D01*
X017344Y004106D02*
X015924Y004106D01*
X015924Y004184D02*
X017344Y004184D01*
X018124Y003399D02*
X022379Y003399D01*
X022379Y003321D02*
X018124Y003321D01*
X018124Y003242D02*
X022379Y003242D01*
X022379Y003164D02*
X018124Y003164D01*
X018124Y003085D02*
X022379Y003085D01*
X022379Y003007D02*
X018124Y003007D01*
X018162Y002928D02*
X021135Y002928D01*
X020981Y002850D02*
X018241Y002850D01*
X018319Y002771D02*
X020845Y002771D01*
X020766Y002693D02*
X018398Y002693D01*
X017330Y002457D02*
X015924Y002457D01*
X015924Y002379D02*
X017252Y002379D01*
X017173Y002300D02*
X015924Y002300D01*
X015974Y002222D02*
X017095Y002222D01*
X017058Y002143D02*
X016011Y002143D01*
X016011Y002065D02*
X017058Y002065D01*
X017058Y001986D02*
X016011Y001986D01*
X016011Y001908D02*
X017058Y001908D01*
X017058Y001829D02*
X016011Y001829D01*
X015972Y001751D02*
X017097Y001751D01*
X017175Y001672D02*
X015893Y001672D01*
X015815Y001594D02*
X017254Y001594D01*
X017332Y001515D02*
X015736Y001515D01*
X015173Y002300D02*
X009508Y002300D01*
X009587Y002379D02*
X015252Y002379D01*
X015330Y002457D02*
X009665Y002457D01*
X010107Y002536D02*
X010862Y002536D01*
X011307Y002536D02*
X011862Y002536D01*
X012307Y002536D02*
X013062Y002536D01*
X013507Y002536D02*
X014062Y002536D01*
X014507Y002536D02*
X015444Y002536D01*
X015444Y002614D02*
X014585Y002614D01*
X014664Y002693D02*
X015444Y002693D01*
X015444Y002771D02*
X014742Y002771D01*
X014761Y002850D02*
X015444Y002850D01*
X015444Y002928D02*
X014761Y002928D01*
X014761Y003007D02*
X015444Y003007D01*
X015444Y003085D02*
X014761Y003085D01*
X014761Y003164D02*
X015444Y003164D01*
X015444Y003242D02*
X014703Y003242D01*
X014625Y003321D02*
X015444Y003321D01*
X015444Y003399D02*
X014546Y003399D01*
X012998Y004734D02*
X010900Y004734D01*
X010978Y004812D02*
X012920Y004812D01*
X012841Y004891D02*
X011057Y004891D01*
X011135Y004969D02*
X012763Y004969D01*
X012684Y005048D02*
X011576Y005048D01*
X011641Y005126D02*
X012606Y005126D01*
X012527Y005205D02*
X011641Y005205D01*
X011641Y005283D02*
X012449Y005283D01*
X012370Y005362D02*
X011641Y005362D01*
X011641Y005440D02*
X012292Y005440D01*
X012213Y005519D02*
X011641Y005519D01*
X011641Y005597D02*
X012135Y005597D01*
X012056Y005676D02*
X011627Y005676D01*
X010536Y006696D02*
X010019Y006696D01*
X010053Y006775D02*
X010457Y006775D01*
X010379Y006853D02*
X010064Y006853D01*
X010057Y006932D02*
X010300Y006932D01*
X010222Y007010D02*
X010024Y007010D01*
X009949Y007089D02*
X010143Y007089D01*
X010065Y007167D02*
X008904Y007167D01*
X008825Y007089D02*
X009620Y007089D01*
X009545Y007010D02*
X008747Y007010D01*
X008668Y006932D02*
X009512Y006932D01*
X009489Y006853D02*
X008590Y006853D01*
X008511Y006775D02*
X009411Y006775D01*
X009332Y006696D02*
X008433Y006696D01*
X008388Y006618D02*
X009254Y006618D01*
X009175Y006539D02*
X008374Y006539D01*
X008374Y006461D02*
X009097Y006461D01*
X009064Y006382D02*
X008374Y006382D01*
X008374Y006304D02*
X009064Y006304D01*
X009064Y006225D02*
X008401Y006225D01*
X008414Y006147D02*
X009064Y006147D01*
X009064Y006068D02*
X008409Y006068D01*
X008376Y005990D02*
X009064Y005990D01*
X009064Y005911D02*
X008304Y005911D01*
X007964Y005911D02*
X007864Y005911D01*
X007864Y005990D02*
X007892Y005990D01*
X007860Y006068D02*
X007833Y006068D01*
X007854Y006147D02*
X007774Y006147D01*
X007774Y006225D02*
X007868Y006225D01*
X007894Y006304D02*
X007774Y006304D01*
X007774Y006382D02*
X007894Y006382D01*
X007894Y006461D02*
X007774Y006461D01*
X007774Y006539D02*
X007894Y006539D01*
X007881Y006618D02*
X007774Y006618D01*
X007774Y006696D02*
X007854Y006696D01*
X007854Y006775D02*
X007774Y006775D01*
X007774Y006853D02*
X007879Y006853D01*
X007933Y006932D02*
X007774Y006932D01*
X007774Y007010D02*
X008062Y007010D01*
X008146Y007089D02*
X007774Y007089D01*
X007774Y007167D02*
X008225Y007167D01*
X008303Y007246D02*
X007774Y007246D01*
X007790Y007324D02*
X008382Y007324D01*
X008460Y007403D02*
X007869Y007403D01*
X007947Y007481D02*
X008539Y007481D01*
X008617Y007560D02*
X008026Y007560D01*
X008104Y007638D02*
X008696Y007638D01*
X008261Y007795D02*
X011807Y007795D01*
X011807Y007874D02*
X010790Y007874D01*
X010868Y007952D02*
X011807Y007952D01*
X011807Y008031D02*
X010947Y008031D01*
X011025Y008109D02*
X011807Y008109D01*
X011807Y008188D02*
X011104Y008188D01*
X011182Y008266D02*
X011212Y008266D01*
X011757Y008266D02*
X011812Y008266D01*
X011862Y007717D02*
X008183Y007717D01*
X007738Y008109D02*
X006664Y008109D01*
X006664Y008031D02*
X007659Y008031D01*
X007581Y007952D02*
X006631Y007952D01*
X006604Y007874D02*
X007502Y007874D01*
X007424Y007795D02*
X006604Y007795D01*
X006604Y007717D02*
X007345Y007717D01*
X007267Y007638D02*
X006604Y007638D01*
X006604Y007560D02*
X007194Y007560D01*
X007194Y007481D02*
X006604Y007481D01*
X006604Y007403D02*
X007194Y007403D01*
X007194Y007324D02*
X006604Y007324D01*
X006604Y007246D02*
X007194Y007246D01*
X007194Y007167D02*
X006604Y007167D01*
X006604Y007089D02*
X007194Y007089D01*
X007194Y007010D02*
X006604Y007010D01*
X006604Y006932D02*
X007194Y006932D01*
X007194Y006853D02*
X006604Y006853D01*
X006604Y006775D02*
X007194Y006775D01*
X007194Y006696D02*
X006604Y006696D01*
X006604Y006618D02*
X007194Y006618D01*
X007194Y006539D02*
X006604Y006539D01*
X006604Y006461D02*
X007194Y006461D01*
X007194Y006382D02*
X006604Y006382D01*
X006604Y006304D02*
X007194Y006304D01*
X007154Y006225D02*
X006604Y006225D01*
X006604Y006147D02*
X007094Y006147D01*
X007094Y006068D02*
X006604Y006068D01*
X006604Y005990D02*
X007094Y005990D01*
X007094Y005911D02*
X006604Y005911D01*
X006604Y005833D02*
X007094Y005833D01*
X007094Y005754D02*
X006604Y005754D01*
X006604Y005676D02*
X007094Y005676D01*
X007156Y005597D02*
X006604Y005597D01*
X006604Y005519D02*
X007234Y005519D01*
X007304Y005440D02*
X006604Y005440D01*
X006604Y005362D02*
X007313Y005362D01*
X007345Y005283D02*
X006604Y005283D01*
X006604Y005205D02*
X007421Y005205D01*
X007748Y005205D02*
X009064Y005205D01*
X009064Y005283D02*
X007824Y005283D01*
X007856Y005362D02*
X009064Y005362D01*
X009064Y005440D02*
X007864Y005440D01*
X007854Y005519D02*
X009064Y005519D01*
X009064Y005597D02*
X007820Y005597D01*
X007740Y005676D02*
X009064Y005676D01*
X009064Y005754D02*
X007797Y005754D01*
X007844Y005833D02*
X009064Y005833D01*
X009504Y006147D02*
X009942Y006147D01*
X010021Y006225D02*
X009504Y006225D01*
X009562Y006304D02*
X010099Y006304D01*
X010178Y006382D02*
X009640Y006382D01*
X009719Y006461D02*
X010204Y006461D01*
X010204Y006539D02*
X009797Y006539D01*
X009938Y006618D02*
X010218Y006618D01*
X010744Y007167D02*
X011871Y007167D01*
X011894Y007246D02*
X010665Y007246D01*
X010587Y007324D02*
X011894Y007324D01*
X011894Y007403D02*
X010508Y007403D01*
X010430Y007481D02*
X011894Y007481D01*
X011894Y007560D02*
X010351Y007560D01*
X010273Y007638D02*
X011894Y007638D01*
X012274Y007481D02*
X012322Y007481D01*
X012274Y007403D02*
X012400Y007403D01*
X011807Y007089D02*
X010822Y007089D01*
X010901Y007010D02*
X011103Y007010D01*
X011070Y006932D02*
X010979Y006932D01*
X011058Y006853D02*
X011070Y006853D01*
X011632Y007010D02*
X011807Y007010D01*
X012962Y007795D02*
X017124Y007795D01*
X017124Y007874D02*
X014190Y007874D01*
X014268Y007952D02*
X017124Y007952D01*
X017124Y008031D02*
X014347Y008031D01*
X014424Y008109D02*
X017124Y008109D01*
X017124Y008188D02*
X014424Y008188D01*
X014424Y008266D02*
X015759Y008266D01*
X015776Y008250D02*
X015879Y008207D01*
X015990Y008207D01*
X016093Y008250D01*
X016172Y008329D01*
X016214Y008432D01*
X016214Y008499D01*
X016523Y008807D01*
X016590Y008807D01*
X016693Y008850D01*
X016772Y008929D01*
X016814Y009032D01*
X016814Y009143D01*
X016772Y009246D01*
X016693Y009325D01*
X016590Y009367D01*
X016479Y009367D01*
X016376Y009325D01*
X016297Y009246D01*
X016254Y009143D01*
X016254Y009076D01*
X015946Y008767D01*
X015879Y008767D01*
X015776Y008725D01*
X015697Y008646D01*
X015654Y008543D01*
X015654Y008432D01*
X015697Y008329D01*
X015776Y008250D01*
X015690Y008345D02*
X014424Y008345D01*
X014424Y008423D02*
X015658Y008423D01*
X015654Y008502D02*
X014424Y008502D01*
X014424Y008580D02*
X015670Y008580D01*
X015710Y008659D02*
X014424Y008659D01*
X014424Y008737D02*
X015806Y008737D01*
X015994Y008816D02*
X014424Y008816D01*
X014424Y008894D02*
X016073Y008894D01*
X016151Y008973D02*
X014424Y008973D01*
X014424Y009051D02*
X016230Y009051D01*
X016254Y009130D02*
X014424Y009130D01*
X014474Y009208D02*
X016281Y009208D01*
X016338Y009287D02*
X014553Y009287D01*
X014631Y009365D02*
X016474Y009365D01*
X016595Y009365D02*
X017124Y009365D01*
X017124Y009287D02*
X016731Y009287D01*
X016787Y009208D02*
X017124Y009208D01*
X017124Y009130D02*
X016814Y009130D01*
X016814Y009051D02*
X017124Y009051D01*
X017124Y008973D02*
X016790Y008973D01*
X016737Y008894D02*
X017124Y008894D01*
X017124Y008816D02*
X016611Y008816D01*
X016453Y008737D02*
X017124Y008737D01*
X017124Y008659D02*
X016375Y008659D01*
X016296Y008580D02*
X017124Y008580D01*
X017124Y008502D02*
X016218Y008502D01*
X016211Y008423D02*
X017124Y008423D01*
X017124Y008345D02*
X016178Y008345D01*
X016109Y008266D02*
X017124Y008266D01*
X017124Y009444D02*
X014710Y009444D01*
X014788Y009522D02*
X017124Y009522D01*
X017124Y009601D02*
X014867Y009601D01*
X014945Y009679D02*
X017124Y009679D01*
X017124Y009758D02*
X015024Y009758D01*
X015102Y009836D02*
X017124Y009836D01*
X017106Y009915D02*
X015181Y009915D01*
X015224Y009993D02*
X017047Y009993D01*
X017047Y010072D02*
X015224Y010072D01*
X015243Y010150D02*
X017047Y010150D01*
X017047Y010229D02*
X015292Y010229D01*
X015314Y010307D02*
X017047Y010307D01*
X017047Y010386D02*
X015609Y010386D01*
X015707Y010464D02*
X017044Y010464D01*
X017044Y010543D02*
X015748Y010543D01*
X015764Y010621D02*
X017044Y010621D01*
X017044Y010700D02*
X015761Y010700D01*
X015729Y010778D02*
X015993Y010778D01*
X015988Y010857D02*
X015661Y010857D01*
X015988Y010935D02*
X013145Y010935D01*
X013164Y011014D02*
X015988Y011014D01*
X015988Y011092D02*
X013164Y011092D01*
X013132Y011171D02*
X015988Y011171D01*
X015988Y011249D02*
X013068Y011249D01*
X012700Y011249D02*
X012668Y011249D01*
X012300Y011249D02*
X012268Y011249D01*
X012047Y011642D02*
X015988Y011642D01*
X015988Y011720D02*
X012124Y011720D01*
X012124Y011799D02*
X015988Y011799D01*
X015988Y011877D02*
X012124Y011877D01*
X012124Y011956D02*
X015988Y011956D01*
X016031Y012034D02*
X015377Y012034D01*
X015184Y012237D02*
X018134Y012237D01*
X019934Y014037D01*
X019934Y014937D01*
X019696Y014939D02*
X019673Y014939D01*
X019673Y015017D02*
X019696Y015017D01*
X019696Y015096D02*
X019673Y015096D01*
X019673Y015174D02*
X019696Y015174D01*
X019673Y014860D02*
X019696Y014860D01*
X019696Y014782D02*
X019673Y014782D01*
X019673Y014703D02*
X019696Y014703D01*
X019696Y014625D02*
X019673Y014625D01*
X019615Y014546D02*
X019753Y014546D01*
X019754Y014468D02*
X019614Y014468D01*
X019614Y014389D02*
X019754Y014389D01*
X019754Y014311D02*
X019614Y014311D01*
X019584Y014232D02*
X019754Y014232D01*
X019754Y014154D02*
X019505Y014154D01*
X019427Y014075D02*
X019718Y014075D01*
X019639Y013997D02*
X019348Y013997D01*
X019270Y013918D02*
X019561Y013918D01*
X019482Y013840D02*
X019191Y013840D01*
X019113Y013761D02*
X019404Y013761D01*
X019325Y013683D02*
X019034Y013683D01*
X018956Y013604D02*
X019247Y013604D01*
X019168Y013526D02*
X018877Y013526D01*
X018799Y013447D02*
X019090Y013447D01*
X019011Y013369D02*
X018720Y013369D01*
X018642Y013290D02*
X018933Y013290D01*
X018854Y013212D02*
X018563Y013212D01*
X018485Y013133D02*
X018776Y013133D01*
X018697Y013055D02*
X018406Y013055D01*
X018328Y012976D02*
X018619Y012976D01*
X018540Y012898D02*
X018249Y012898D01*
X018171Y012819D02*
X018462Y012819D01*
X018383Y012741D02*
X018071Y012741D01*
X018226Y012584D02*
X014274Y012584D01*
X014306Y012662D02*
X018305Y012662D01*
X018148Y012505D02*
X015269Y012505D01*
X015391Y012427D02*
X018069Y012427D01*
X018343Y012191D02*
X018714Y012191D01*
X018714Y012270D02*
X018421Y012270D01*
X018500Y012348D02*
X018714Y012348D01*
X018714Y012427D02*
X018578Y012427D01*
X018657Y012505D02*
X018791Y012505D01*
X018735Y012584D02*
X018870Y012584D01*
X018814Y012662D02*
X018948Y012662D01*
X018892Y012741D02*
X019027Y012741D01*
X018971Y012819D02*
X019105Y012819D01*
X019049Y012898D02*
X019184Y012898D01*
X019128Y012976D02*
X019262Y012976D01*
X019206Y013055D02*
X019341Y013055D01*
X019285Y013133D02*
X019419Y013133D01*
X019363Y013212D02*
X019498Y013212D01*
X019442Y013290D02*
X019576Y013290D01*
X019520Y013369D02*
X019655Y013369D01*
X019599Y013447D02*
X019733Y013447D01*
X019677Y013526D02*
X019812Y013526D01*
X019756Y013604D02*
X019890Y013604D01*
X019834Y013683D02*
X019969Y013683D01*
X019913Y013761D02*
X020047Y013761D01*
X019991Y013840D02*
X020126Y013840D01*
X020070Y013918D02*
X020204Y013918D01*
X020214Y013997D02*
X020114Y013997D01*
X020114Y014075D02*
X020157Y014075D01*
X020157Y014154D02*
X020114Y014154D01*
X020114Y014232D02*
X020157Y014232D01*
X020157Y014311D02*
X020114Y014311D01*
X020114Y014389D02*
X020157Y014389D01*
X020157Y014468D02*
X020114Y014468D01*
X020115Y014546D02*
X020200Y014546D01*
X020196Y014625D02*
X020173Y014625D01*
X020173Y014703D02*
X020196Y014703D01*
X020196Y014782D02*
X020173Y014782D01*
X020173Y014860D02*
X020196Y014860D01*
X020196Y014939D02*
X020173Y014939D01*
X020173Y015017D02*
X020196Y015017D01*
X020196Y015096D02*
X020173Y015096D01*
X020173Y015174D02*
X020196Y015174D01*
X020673Y015174D02*
X020728Y015174D01*
X020728Y015096D02*
X020673Y015096D01*
X020673Y015017D02*
X020728Y015017D01*
X020673Y014939D02*
X020802Y014939D01*
X020673Y014860D02*
X022379Y014860D01*
X022379Y014782D02*
X020673Y014782D01*
X020673Y014703D02*
X022379Y014703D01*
X022379Y014625D02*
X020673Y014625D01*
X020669Y014546D02*
X022379Y014546D01*
X022379Y014468D02*
X020712Y014468D01*
X020712Y014389D02*
X022379Y014389D01*
X022379Y014311D02*
X020712Y014311D01*
X020712Y014232D02*
X022379Y014232D01*
X022379Y014154D02*
X020712Y014154D01*
X020712Y014075D02*
X022379Y014075D01*
X022379Y013997D02*
X020654Y013997D01*
X020654Y013918D02*
X022379Y013918D01*
X022379Y013840D02*
X020654Y013840D01*
X020654Y013761D02*
X022379Y013761D01*
X022379Y013683D02*
X020591Y013683D01*
X020512Y013604D02*
X022379Y013604D01*
X022379Y013526D02*
X020434Y013526D01*
X020355Y013447D02*
X022379Y013447D01*
X022379Y013369D02*
X020277Y013369D01*
X020198Y013290D02*
X022379Y013290D01*
X022379Y013212D02*
X020120Y013212D01*
X020041Y013133D02*
X022379Y013133D01*
X022379Y013055D02*
X019963Y013055D01*
X019884Y012976D02*
X022379Y012976D01*
X022379Y012898D02*
X019806Y012898D01*
X019727Y012819D02*
X022379Y012819D01*
X022379Y012741D02*
X019649Y012741D01*
X019570Y012662D02*
X022379Y012662D01*
X022379Y012584D02*
X019492Y012584D01*
X019413Y012505D02*
X022379Y012505D01*
X022379Y012427D02*
X019335Y012427D01*
X019256Y012348D02*
X022379Y012348D01*
X022379Y012270D02*
X019883Y012270D01*
X019941Y012191D02*
X022379Y012191D01*
X022379Y012113D02*
X019941Y012113D01*
X019941Y012034D02*
X022379Y012034D01*
X022379Y011956D02*
X019941Y011956D01*
X019941Y011877D02*
X022379Y011877D01*
X022379Y011799D02*
X019941Y011799D01*
X019941Y011720D02*
X022379Y011720D01*
X022379Y011642D02*
X019920Y011642D01*
X020580Y011406D02*
X017655Y011406D01*
X017733Y011328D02*
X020551Y011328D01*
X019249Y011642D02*
X019180Y011642D01*
X019161Y011563D02*
X022379Y011563D01*
X022379Y011485D02*
X017576Y011485D01*
X017498Y011563D02*
X017878Y011563D01*
X017837Y011642D02*
X017332Y011642D01*
X017332Y011720D02*
X017837Y011720D01*
X017837Y011799D02*
X017332Y011799D01*
X017332Y011877D02*
X017837Y011877D01*
X017875Y011956D02*
X017294Y011956D01*
X016738Y012034D02*
X018388Y012034D01*
X018409Y012113D02*
X018264Y012113D01*
X017798Y012741D02*
X017071Y012741D01*
X017162Y012819D02*
X017706Y012819D01*
X017668Y012898D02*
X017200Y012898D01*
X017214Y012976D02*
X017654Y012976D01*
X017659Y013055D02*
X017256Y013055D01*
X017335Y013133D02*
X017692Y013133D01*
X017763Y013212D02*
X017413Y013212D01*
X017492Y013290D02*
X018133Y013290D01*
X018211Y013369D02*
X017570Y013369D01*
X017649Y013447D02*
X018290Y013447D01*
X018368Y013526D02*
X017714Y013526D01*
X017714Y013604D02*
X018447Y013604D01*
X018525Y013683D02*
X017714Y013683D01*
X017714Y013761D02*
X018604Y013761D01*
X018682Y013840D02*
X017714Y013840D01*
X017708Y013918D02*
X018761Y013918D01*
X018839Y013997D02*
X017837Y013997D01*
X017912Y014075D02*
X018918Y014075D01*
X018996Y014154D02*
X017912Y014154D01*
X017912Y014232D02*
X019075Y014232D01*
X019153Y014311D02*
X017912Y014311D01*
X017912Y014389D02*
X019232Y014389D01*
X019254Y014468D02*
X017912Y014468D01*
X017869Y014546D02*
X019253Y014546D01*
X019196Y014625D02*
X017873Y014625D01*
X017873Y014703D02*
X019196Y014703D01*
X019196Y014782D02*
X017873Y014782D01*
X017873Y014860D02*
X019196Y014860D01*
X019196Y014939D02*
X018567Y014939D01*
X018641Y015017D02*
X019196Y015017D01*
X019196Y015096D02*
X018641Y015096D01*
X018641Y015174D02*
X019196Y015174D01*
X019434Y014937D02*
X019434Y014337D01*
X018084Y012987D01*
X017934Y012987D01*
X017534Y013587D02*
X016934Y012987D01*
X016654Y012976D02*
X014528Y012976D01*
X014449Y012898D02*
X016668Y012898D01*
X016706Y012819D02*
X014371Y012819D01*
X014314Y012741D02*
X016798Y012741D01*
X016659Y013055D02*
X014606Y013055D01*
X014685Y013133D02*
X016692Y013133D01*
X016763Y013212D02*
X014763Y013212D01*
X014842Y013290D02*
X016983Y013290D01*
X017061Y013369D02*
X014914Y013369D01*
X014914Y013447D02*
X015682Y013447D01*
X015600Y013526D02*
X014914Y013526D01*
X014914Y013604D02*
X015566Y013604D01*
X015554Y013683D02*
X014914Y013683D01*
X014914Y013761D02*
X015562Y013761D01*
X015594Y013840D02*
X014914Y013840D01*
X014908Y013918D02*
X015669Y013918D01*
X015889Y013997D02*
X015037Y013997D01*
X015112Y014075D02*
X015968Y014075D01*
X016046Y014154D02*
X015112Y014154D01*
X015112Y014232D02*
X016125Y014232D01*
X016203Y014311D02*
X015112Y014311D01*
X015112Y014389D02*
X016282Y014389D01*
X016360Y014468D02*
X015112Y014468D01*
X015069Y014546D02*
X016439Y014546D01*
X016396Y014625D02*
X015073Y014625D01*
X015073Y014703D02*
X016396Y014703D01*
X016396Y014782D02*
X015073Y014782D01*
X015073Y014860D02*
X016396Y014860D01*
X016396Y014939D02*
X015767Y014939D01*
X015841Y015017D02*
X016396Y015017D01*
X016396Y015096D02*
X015841Y015096D01*
X015841Y015174D02*
X016396Y015174D01*
X016634Y014937D02*
X016634Y014487D01*
X017234Y013887D01*
X017234Y013687D01*
X016954Y013683D02*
X016114Y013683D01*
X016103Y013604D02*
X016966Y013604D01*
X017000Y013526D02*
X016069Y013526D01*
X015987Y013447D02*
X017082Y013447D01*
X016962Y013761D02*
X016163Y013761D01*
X016241Y013840D02*
X016994Y013840D01*
X016949Y013918D02*
X016320Y013918D01*
X016398Y013997D02*
X016870Y013997D01*
X016792Y014075D02*
X016477Y014075D01*
X016555Y014154D02*
X016713Y014154D01*
X016635Y014232D02*
X016634Y014232D01*
X016634Y014487D02*
X015834Y013687D01*
X014734Y013837D02*
X014734Y013437D01*
X014034Y012737D01*
X013765Y012819D02*
X012357Y012819D01*
X012278Y012898D02*
X013799Y012898D01*
X013880Y012976D02*
X012200Y012976D01*
X012121Y013055D02*
X014097Y013055D01*
X014176Y013133D02*
X012114Y013133D01*
X012114Y013212D02*
X014254Y013212D01*
X014333Y013290D02*
X012114Y013290D01*
X012114Y013369D02*
X014411Y013369D01*
X014282Y013447D02*
X013187Y013447D01*
X013269Y013526D02*
X014200Y013526D01*
X014166Y013604D02*
X013303Y013604D01*
X013314Y013683D02*
X014154Y013683D01*
X014162Y013761D02*
X013363Y013761D01*
X013441Y013840D02*
X014194Y013840D01*
X014149Y013918D02*
X013520Y013918D01*
X013598Y013997D02*
X014070Y013997D01*
X013992Y014075D02*
X013677Y014075D01*
X013755Y014154D02*
X013913Y014154D01*
X013835Y014232D02*
X013834Y014232D01*
X013834Y014487D02*
X014434Y013887D01*
X014434Y013687D01*
X014734Y013837D02*
X014334Y014237D01*
X014334Y014937D01*
X013834Y014937D02*
X013834Y014487D01*
X013034Y013687D01*
X012754Y013683D02*
X012114Y013683D01*
X012114Y013761D02*
X012762Y013761D01*
X012794Y013840D02*
X012114Y013840D01*
X012108Y013918D02*
X012869Y013918D01*
X013089Y013997D02*
X012237Y013997D01*
X012312Y014075D02*
X013168Y014075D01*
X013246Y014154D02*
X012312Y014154D01*
X012312Y014232D02*
X013325Y014232D01*
X013403Y014311D02*
X012312Y014311D01*
X012312Y014389D02*
X013482Y014389D01*
X013560Y014468D02*
X012312Y014468D01*
X012269Y014546D02*
X013639Y014546D01*
X013596Y014625D02*
X012273Y014625D01*
X012273Y014703D02*
X013596Y014703D01*
X013596Y014782D02*
X012273Y014782D01*
X012273Y014860D02*
X013596Y014860D01*
X013596Y014939D02*
X012967Y014939D01*
X013041Y015017D02*
X013596Y015017D01*
X013596Y015096D02*
X013041Y015096D01*
X013041Y015174D02*
X013596Y015174D01*
X013139Y016297D02*
X011829Y016297D01*
X011864Y016382D01*
X011864Y016493D01*
X011822Y016596D01*
X011743Y016674D01*
X011773Y016704D01*
X011773Y017371D01*
X011772Y017371D01*
X011776Y017371D01*
X011776Y016696D01*
X011870Y016602D01*
X011976Y016602D01*
X011987Y016597D01*
X012308Y016597D01*
X012308Y016405D01*
X012402Y016311D01*
X012967Y016311D01*
X013061Y016405D01*
X013061Y016970D01*
X012967Y017064D01*
X012615Y017064D01*
X012582Y017077D01*
X012293Y017077D01*
X012293Y017379D01*
X012274Y017398D01*
X012274Y017685D01*
X012241Y017765D01*
X012241Y017843D02*
X013627Y017843D01*
X013627Y017765D02*
X013594Y017685D01*
X013594Y017398D01*
X013576Y017379D01*
X013576Y017197D01*
X013573Y017190D01*
X013573Y017371D01*
X013491Y017453D01*
X013178Y017453D01*
X013096Y017371D01*
X013096Y016704D01*
X013154Y016645D01*
X013154Y016603D01*
X013147Y016596D01*
X013104Y016493D01*
X013104Y016382D01*
X013139Y016297D01*
X013117Y016352D02*
X013008Y016352D01*
X013061Y016430D02*
X013104Y016430D01*
X013111Y016509D02*
X013061Y016509D01*
X013061Y016587D02*
X013143Y016587D01*
X013134Y016666D02*
X013061Y016666D01*
X013061Y016744D02*
X013096Y016744D01*
X013096Y016823D02*
X013061Y016823D01*
X013061Y016901D02*
X013096Y016901D01*
X013096Y016980D02*
X013051Y016980D01*
X013096Y017058D02*
X012973Y017058D01*
X013096Y017137D02*
X012293Y017137D01*
X012293Y017215D02*
X013096Y017215D01*
X013096Y017294D02*
X012293Y017294D01*
X012293Y017372D02*
X013097Y017372D01*
X013176Y017451D02*
X012274Y017451D01*
X012274Y017529D02*
X013594Y017529D01*
X013594Y017451D02*
X013493Y017451D01*
X013571Y017372D02*
X013576Y017372D01*
X013573Y017294D02*
X013576Y017294D01*
X013573Y017215D02*
X013576Y017215D01*
X013334Y017037D02*
X013334Y016487D01*
X013384Y016437D01*
X014334Y016487D02*
X014384Y016437D01*
X014334Y016487D02*
X014334Y017037D01*
X014573Y017058D02*
X014576Y017058D01*
X014573Y016980D02*
X014576Y016980D01*
X014573Y016901D02*
X014576Y016901D01*
X014573Y016823D02*
X014576Y016823D01*
X014573Y016744D02*
X014576Y016744D01*
X014573Y016704D02*
X014573Y017371D01*
X014572Y017371D01*
X014576Y017371D01*
X014576Y016696D01*
X014670Y016602D01*
X014776Y016602D01*
X014787Y016597D01*
X015108Y016597D01*
X015108Y016405D01*
X015202Y016311D01*
X015767Y016311D01*
X015861Y016405D01*
X015861Y016970D01*
X015767Y017064D01*
X015415Y017064D01*
X015382Y017077D01*
X015093Y017077D01*
X015093Y017379D01*
X015074Y017398D01*
X015074Y017685D01*
X015041Y017765D01*
X015041Y017843D02*
X016427Y017843D01*
X016427Y017765D02*
X016394Y017685D01*
X016394Y017398D01*
X016376Y017379D01*
X016376Y017197D01*
X016373Y017190D01*
X016373Y017371D01*
X016291Y017453D01*
X015978Y017453D01*
X015896Y017371D01*
X015896Y016704D01*
X015954Y016645D01*
X015954Y016603D01*
X015947Y016596D01*
X015904Y016493D01*
X015904Y016382D01*
X015939Y016297D01*
X014629Y016297D01*
X014664Y016382D01*
X014664Y016493D01*
X014622Y016596D01*
X014543Y016674D01*
X014573Y016704D01*
X014552Y016666D02*
X014605Y016666D01*
X014625Y016587D02*
X015108Y016587D01*
X015108Y016509D02*
X014658Y016509D01*
X014664Y016430D02*
X015108Y016430D01*
X015160Y016352D02*
X014652Y016352D01*
X014573Y017137D02*
X014576Y017137D01*
X014573Y017215D02*
X014576Y017215D01*
X014573Y017294D02*
X014576Y017294D01*
X015074Y017451D02*
X015976Y017451D01*
X015897Y017372D02*
X015093Y017372D01*
X015093Y017294D02*
X015896Y017294D01*
X015896Y017215D02*
X015093Y017215D01*
X015093Y017137D02*
X015896Y017137D01*
X015896Y017058D02*
X015773Y017058D01*
X015851Y016980D02*
X015896Y016980D01*
X015896Y016901D02*
X015861Y016901D01*
X015861Y016823D02*
X015896Y016823D01*
X015896Y016744D02*
X015861Y016744D01*
X015861Y016666D02*
X015934Y016666D01*
X015943Y016587D02*
X015861Y016587D01*
X015861Y016509D02*
X015911Y016509D01*
X015904Y016430D02*
X015861Y016430D01*
X015808Y016352D02*
X015917Y016352D01*
X016134Y016487D02*
X016184Y016437D01*
X016134Y016487D02*
X016134Y017037D01*
X016373Y017215D02*
X016376Y017215D01*
X016373Y017294D02*
X016376Y017294D01*
X016371Y017372D02*
X016376Y017372D01*
X016394Y017451D02*
X016293Y017451D01*
X016394Y017529D02*
X015074Y017529D01*
X015074Y017608D02*
X016394Y017608D01*
X016395Y017686D02*
X015074Y017686D01*
X015041Y017922D02*
X016427Y017922D01*
X016427Y018000D02*
X015041Y018000D01*
X015041Y018079D02*
X016427Y018079D01*
X016475Y018157D02*
X014993Y018157D01*
X014375Y018157D02*
X014293Y018157D01*
X014166Y018512D02*
X014259Y018606D01*
X014259Y019369D01*
X014166Y019462D01*
X014081Y019462D01*
X014082Y019464D01*
X014082Y019911D01*
X013988Y020005D01*
X013580Y020005D01*
X013487Y019911D01*
X013487Y019464D01*
X013488Y019462D01*
X013403Y019462D01*
X013338Y019397D01*
X012031Y019397D01*
X011966Y019462D01*
X011881Y019462D01*
X011882Y019464D01*
X011882Y019911D01*
X011788Y020005D01*
X011380Y020005D01*
X011287Y019911D01*
X011287Y019464D01*
X011288Y019462D01*
X011203Y019462D01*
X011109Y019369D01*
X011109Y018606D01*
X011203Y018512D01*
X011966Y018512D01*
X012031Y018577D01*
X013338Y018577D01*
X013403Y018512D01*
X014166Y018512D01*
X014203Y018550D02*
X021085Y018550D01*
X020949Y018628D02*
X014259Y018628D01*
X014259Y018707D02*
X016350Y018707D01*
X016396Y018661D02*
X016873Y018661D01*
X017134Y018923D01*
X017396Y018661D01*
X017873Y018661D01*
X018134Y018923D01*
X018396Y018661D01*
X018873Y018661D01*
X019211Y018999D01*
X019211Y019476D01*
X018873Y019814D01*
X018396Y019814D01*
X018134Y019552D01*
X017873Y019814D01*
X017396Y019814D01*
X017134Y019552D01*
X016873Y019814D01*
X016396Y019814D01*
X016058Y019476D01*
X016058Y018999D01*
X016396Y018661D01*
X016271Y018785D02*
X014259Y018785D01*
X014259Y018864D02*
X016193Y018864D01*
X016114Y018942D02*
X014259Y018942D01*
X014259Y019021D02*
X016058Y019021D01*
X016058Y019099D02*
X014259Y019099D01*
X014259Y019178D02*
X016058Y019178D01*
X016058Y019256D02*
X014259Y019256D01*
X014259Y019335D02*
X016058Y019335D01*
X016058Y019413D02*
X014215Y019413D01*
X014082Y019492D02*
X016074Y019492D01*
X016152Y019570D02*
X014082Y019570D01*
X014082Y019649D02*
X016231Y019649D01*
X016309Y019727D02*
X014082Y019727D01*
X014082Y019806D02*
X016388Y019806D01*
X016881Y019806D02*
X017388Y019806D01*
X017309Y019727D02*
X016959Y019727D01*
X017038Y019649D02*
X017231Y019649D01*
X017152Y019570D02*
X017116Y019570D01*
X017076Y018864D02*
X017193Y018864D01*
X017271Y018785D02*
X016997Y018785D01*
X016919Y018707D02*
X017350Y018707D01*
X017919Y018707D02*
X018350Y018707D01*
X018271Y018785D02*
X017997Y018785D01*
X018076Y018864D02*
X018193Y018864D01*
X018152Y019570D02*
X018116Y019570D01*
X018038Y019649D02*
X018231Y019649D01*
X018309Y019727D02*
X017959Y019727D01*
X017881Y019806D02*
X018388Y019806D01*
X018881Y019806D02*
X020430Y019806D01*
X020411Y019727D02*
X018959Y019727D01*
X019038Y019649D02*
X020411Y019649D01*
X020411Y019570D02*
X019116Y019570D01*
X019195Y019492D02*
X020411Y019492D01*
X020418Y019413D02*
X019211Y019413D01*
X019211Y019335D02*
X020439Y019335D01*
X020460Y019256D02*
X019211Y019256D01*
X019211Y019178D02*
X020481Y019178D01*
X020519Y019099D02*
X019211Y019099D01*
X019211Y019021D02*
X020564Y019021D01*
X020610Y018942D02*
X019154Y018942D01*
X019076Y018864D02*
X020669Y018864D01*
X020748Y018785D02*
X018997Y018785D01*
X018919Y018707D02*
X020826Y018707D01*
X021359Y018471D02*
X003995Y018471D01*
X004269Y018550D02*
X011165Y018550D01*
X011109Y018628D02*
X004405Y018628D01*
X004527Y018707D02*
X006450Y018707D01*
X006496Y018661D02*
X006973Y018661D01*
X007234Y018923D01*
X007496Y018661D01*
X007973Y018661D01*
X008234Y018923D01*
X008496Y018661D01*
X008973Y018661D01*
X009311Y018999D01*
X009311Y019476D01*
X008973Y019814D01*
X008496Y019814D01*
X008234Y019552D01*
X007973Y019814D01*
X007496Y019814D01*
X007234Y019552D01*
X006973Y019814D01*
X006496Y019814D01*
X006158Y019476D01*
X006158Y018999D01*
X006496Y018661D01*
X006371Y018785D02*
X004606Y018785D01*
X004684Y018864D02*
X006293Y018864D01*
X006214Y018942D02*
X004744Y018942D01*
X004789Y019021D02*
X006158Y019021D01*
X006158Y019099D02*
X004835Y019099D01*
X004873Y019178D02*
X006158Y019178D01*
X006158Y019256D02*
X004894Y019256D01*
X004915Y019335D02*
X006158Y019335D01*
X006158Y019413D02*
X004936Y019413D01*
X004943Y019492D02*
X006174Y019492D01*
X006252Y019570D02*
X004943Y019570D01*
X004943Y019649D02*
X006331Y019649D01*
X006409Y019727D02*
X004943Y019727D01*
X004924Y019806D02*
X006488Y019806D01*
X006981Y019806D02*
X007488Y019806D01*
X007409Y019727D02*
X007059Y019727D01*
X007138Y019649D02*
X007331Y019649D01*
X007252Y019570D02*
X007216Y019570D01*
X007176Y018864D02*
X007293Y018864D01*
X007371Y018785D02*
X007097Y018785D01*
X007019Y018707D02*
X007450Y018707D01*
X008019Y018707D02*
X008450Y018707D01*
X008371Y018785D02*
X008097Y018785D01*
X008176Y018864D02*
X008293Y018864D01*
X008252Y019570D02*
X008216Y019570D01*
X008138Y019649D02*
X008331Y019649D01*
X008409Y019727D02*
X008059Y019727D01*
X007981Y019806D02*
X008488Y019806D01*
X008981Y019806D02*
X011287Y019806D01*
X011287Y019884D02*
X004903Y019884D01*
X004882Y019963D02*
X011338Y019963D01*
X011287Y019727D02*
X009059Y019727D01*
X009138Y019649D02*
X011287Y019649D01*
X011287Y019570D02*
X009216Y019570D01*
X009295Y019492D02*
X011287Y019492D01*
X011154Y019413D02*
X009311Y019413D01*
X009311Y019335D02*
X011109Y019335D01*
X011109Y019256D02*
X009311Y019256D01*
X009311Y019178D02*
X011109Y019178D01*
X011109Y019099D02*
X009311Y019099D01*
X009311Y019021D02*
X011109Y019021D01*
X011109Y018942D02*
X009254Y018942D01*
X009176Y018864D02*
X011109Y018864D01*
X011109Y018785D02*
X009097Y018785D01*
X009019Y018707D02*
X011109Y018707D01*
X010875Y018157D02*
X009393Y018157D01*
X009441Y018079D02*
X010827Y018079D01*
X010827Y018000D02*
X009441Y018000D01*
X009441Y017922D02*
X010827Y017922D01*
X010827Y017843D02*
X009441Y017843D01*
X009441Y017765D02*
X009474Y017685D01*
X009474Y017398D01*
X009493Y017379D01*
X009493Y017077D01*
X009782Y017077D01*
X009815Y017064D01*
X010167Y017064D01*
X010261Y016970D01*
X010261Y016405D01*
X010167Y016311D01*
X009602Y016311D01*
X009508Y016405D01*
X009508Y016597D01*
X009187Y016597D01*
X009176Y016602D01*
X009070Y016602D01*
X008976Y016696D01*
X008976Y017371D01*
X008972Y017371D01*
X008973Y017371D01*
X008973Y016704D01*
X008943Y016674D01*
X009022Y016596D01*
X009064Y016493D01*
X009064Y016382D01*
X009029Y016297D01*
X010339Y016297D01*
X010304Y016382D01*
X010304Y016493D01*
X010347Y016596D01*
X010354Y016603D01*
X010354Y016645D01*
X010296Y016704D01*
X010296Y017371D01*
X010378Y017453D01*
X010691Y017453D01*
X010773Y017371D01*
X010773Y017190D01*
X010776Y017197D01*
X010776Y017379D01*
X010794Y017398D01*
X010794Y017685D01*
X010827Y017765D01*
X010795Y017686D02*
X009474Y017686D01*
X009474Y017608D02*
X010794Y017608D01*
X010794Y017529D02*
X009474Y017529D01*
X009474Y017451D02*
X010376Y017451D01*
X010297Y017372D02*
X009493Y017372D01*
X009493Y017294D02*
X010296Y017294D01*
X010296Y017215D02*
X009493Y017215D01*
X009493Y017137D02*
X010296Y017137D01*
X010296Y017058D02*
X010173Y017058D01*
X010251Y016980D02*
X010296Y016980D01*
X010296Y016901D02*
X010261Y016901D01*
X010261Y016823D02*
X010296Y016823D01*
X010296Y016744D02*
X010261Y016744D01*
X010261Y016666D02*
X010334Y016666D01*
X010343Y016587D02*
X010261Y016587D01*
X010261Y016509D02*
X010311Y016509D01*
X010304Y016430D02*
X010261Y016430D01*
X010208Y016352D02*
X010317Y016352D01*
X010534Y016487D02*
X010584Y016437D01*
X010534Y016487D02*
X010534Y017037D01*
X010773Y017215D02*
X010776Y017215D01*
X010773Y017294D02*
X010776Y017294D01*
X010771Y017372D02*
X010776Y017372D01*
X010794Y017451D02*
X010693Y017451D01*
X011534Y017037D02*
X011534Y016487D01*
X011584Y016437D01*
X011864Y016430D02*
X012308Y016430D01*
X012308Y016509D02*
X011858Y016509D01*
X011825Y016587D02*
X012308Y016587D01*
X012360Y016352D02*
X011852Y016352D01*
X011805Y016666D02*
X011752Y016666D01*
X011773Y016744D02*
X011776Y016744D01*
X011773Y016823D02*
X011776Y016823D01*
X011773Y016901D02*
X011776Y016901D01*
X011773Y016980D02*
X011776Y016980D01*
X011773Y017058D02*
X011776Y017058D01*
X011773Y017137D02*
X011776Y017137D01*
X011773Y017215D02*
X011776Y017215D01*
X011773Y017294D02*
X011776Y017294D01*
X012274Y017608D02*
X013594Y017608D01*
X013595Y017686D02*
X012274Y017686D01*
X012241Y017922D02*
X013627Y017922D01*
X013627Y018000D02*
X012241Y018000D01*
X012241Y018079D02*
X013627Y018079D01*
X013675Y018157D02*
X012193Y018157D01*
X012003Y018550D02*
X013365Y018550D01*
X013354Y019413D02*
X012015Y019413D01*
X011882Y019492D02*
X013487Y019492D01*
X013487Y019570D02*
X011882Y019570D01*
X011882Y019649D02*
X013487Y019649D01*
X013487Y019727D02*
X011882Y019727D01*
X011882Y019806D02*
X013487Y019806D01*
X013487Y019884D02*
X011882Y019884D01*
X011830Y019963D02*
X013538Y019963D01*
X014030Y019963D02*
X020472Y019963D01*
X020451Y019884D02*
X014082Y019884D01*
X011575Y018157D02*
X011493Y018157D01*
X009508Y016587D02*
X009025Y016587D01*
X009005Y016666D02*
X008952Y016666D01*
X008973Y016744D02*
X008976Y016744D01*
X008973Y016823D02*
X008976Y016823D01*
X008973Y016901D02*
X008976Y016901D01*
X008973Y016980D02*
X008976Y016980D01*
X008973Y017058D02*
X008976Y017058D01*
X008973Y017137D02*
X008976Y017137D01*
X008973Y017215D02*
X008976Y017215D01*
X008973Y017294D02*
X008976Y017294D01*
X008734Y017037D02*
X008734Y016487D01*
X008784Y016437D01*
X009064Y016430D02*
X009508Y016430D01*
X009508Y016509D02*
X009058Y016509D01*
X009052Y016352D02*
X009560Y016352D01*
X009528Y015174D02*
X009473Y015174D01*
X009473Y015096D02*
X009528Y015096D01*
X009528Y015017D02*
X009473Y015017D01*
X009473Y014939D02*
X009602Y014939D01*
X009473Y014860D02*
X010796Y014860D01*
X010796Y014782D02*
X009473Y014782D01*
X009473Y014703D02*
X010796Y014703D01*
X010796Y014625D02*
X009473Y014625D01*
X009469Y014546D02*
X010839Y014546D01*
X010760Y014468D02*
X009512Y014468D01*
X009512Y014389D02*
X010682Y014389D01*
X010603Y014311D02*
X009512Y014311D01*
X009512Y014232D02*
X010525Y014232D01*
X010446Y014154D02*
X009512Y014154D01*
X009512Y014075D02*
X010368Y014075D01*
X010289Y013997D02*
X009437Y013997D01*
X009308Y013918D02*
X010069Y013918D01*
X009994Y013840D02*
X009314Y013840D01*
X009314Y013761D02*
X009962Y013761D01*
X009954Y013683D02*
X009314Y013683D01*
X009314Y013604D02*
X009966Y013604D01*
X010000Y013526D02*
X009314Y013526D01*
X009314Y013447D02*
X010082Y013447D01*
X010234Y013687D02*
X011034Y014487D01*
X011634Y013887D01*
X011634Y013687D01*
X011354Y013683D02*
X010514Y013683D01*
X010503Y013604D02*
X011366Y013604D01*
X011400Y013526D02*
X010469Y013526D01*
X010387Y013447D02*
X011401Y013447D01*
X011357Y013369D02*
X009314Y013369D01*
X009314Y013290D02*
X011357Y013290D01*
X011357Y013212D02*
X009364Y013212D01*
X009443Y013133D02*
X011357Y013133D01*
X011357Y013055D02*
X009521Y013055D01*
X009600Y012976D02*
X011357Y012976D01*
X011431Y012898D02*
X010120Y012898D01*
X010183Y012819D02*
X011408Y012819D01*
X011344Y012741D02*
X010214Y012741D01*
X010214Y012662D02*
X011344Y012662D01*
X011344Y012584D02*
X010195Y012584D01*
X010148Y012505D02*
X011344Y012505D01*
X011344Y012427D02*
X010037Y012427D01*
X009831Y012427D02*
X008364Y012427D01*
X008364Y012348D02*
X011344Y012348D01*
X011344Y012270D02*
X008339Y012270D01*
X008284Y012191D02*
X011344Y012191D01*
X011344Y012113D02*
X008153Y012113D01*
X008015Y012113D02*
X007614Y012113D01*
X007614Y012034D02*
X011344Y012034D01*
X011422Y011642D02*
X010908Y011642D01*
X010864Y011563D02*
X015988Y011563D01*
X015988Y011485D02*
X010845Y011485D01*
X010799Y011406D02*
X016065Y011406D01*
X016024Y011328D02*
X010690Y011328D01*
X010479Y011328D02*
X009512Y011328D01*
X009552Y011249D02*
X011900Y011249D01*
X011837Y011171D02*
X009585Y011171D01*
X009586Y011092D02*
X010921Y011092D01*
X010369Y011406D02*
X009434Y011406D01*
X009275Y011485D02*
X010324Y011485D01*
X010304Y011563D02*
X004874Y011563D01*
X004874Y011485D02*
X009094Y011485D01*
X008935Y011406D02*
X004934Y011406D01*
X005012Y011328D02*
X005283Y011328D01*
X005200Y011249D02*
X005091Y011249D01*
X004874Y011642D02*
X010304Y011642D01*
X010336Y011720D02*
X004874Y011720D01*
X004874Y011799D02*
X010400Y011799D01*
X010606Y011877D02*
X007520Y011877D01*
X007583Y011956D02*
X010684Y011956D01*
X009934Y012687D02*
X009634Y012687D01*
X009134Y013187D01*
X009134Y013837D01*
X008734Y014237D01*
X008734Y014937D01*
X008234Y014937D02*
X008234Y014487D01*
X008834Y013887D01*
X008834Y013687D01*
X008554Y013683D02*
X007714Y013683D01*
X007703Y013604D02*
X008566Y013604D01*
X008600Y013526D02*
X007669Y013526D01*
X007587Y013447D02*
X008682Y013447D01*
X008954Y013369D02*
X006557Y013369D01*
X006514Y013447D02*
X007282Y013447D01*
X007200Y013526D02*
X006514Y013526D01*
X006514Y013604D02*
X007166Y013604D01*
X007154Y013683D02*
X006514Y013683D01*
X006514Y013761D02*
X007162Y013761D01*
X007194Y013840D02*
X006514Y013840D01*
X006508Y013918D02*
X007269Y013918D01*
X007489Y013997D02*
X006637Y013997D01*
X006712Y014075D02*
X007568Y014075D01*
X007646Y014154D02*
X006712Y014154D01*
X006712Y014232D02*
X007725Y014232D01*
X007803Y014311D02*
X006712Y014311D01*
X006712Y014389D02*
X007882Y014389D01*
X007960Y014468D02*
X006712Y014468D01*
X006669Y014546D02*
X008039Y014546D01*
X007996Y014625D02*
X006673Y014625D01*
X006673Y014703D02*
X007996Y014703D01*
X007996Y014782D02*
X006673Y014782D01*
X006673Y014860D02*
X007996Y014860D01*
X007996Y014939D02*
X007367Y014939D01*
X007441Y015017D02*
X007996Y015017D01*
X007996Y015096D02*
X007441Y015096D01*
X007441Y015174D02*
X007996Y015174D01*
X008234Y014487D02*
X007434Y013687D01*
X007763Y013761D02*
X008562Y013761D01*
X008594Y013840D02*
X007841Y013840D01*
X007920Y013918D02*
X008549Y013918D01*
X008470Y013997D02*
X007998Y013997D01*
X008077Y014075D02*
X008392Y014075D01*
X008313Y014154D02*
X008155Y014154D01*
X008234Y014232D02*
X008235Y014232D01*
X008954Y013290D02*
X006636Y013290D01*
X006714Y013212D02*
X008954Y013212D01*
X008954Y013133D02*
X006793Y013133D01*
X006871Y013055D02*
X009012Y013055D01*
X009091Y012976D02*
X006950Y012976D01*
X007028Y012898D02*
X009169Y012898D01*
X009248Y012819D02*
X007107Y012819D01*
X007185Y012741D02*
X009326Y012741D01*
X009405Y012662D02*
X008152Y012662D01*
X008017Y012662D02*
X007264Y012662D01*
X007342Y012584D02*
X007885Y012584D01*
X008084Y012387D02*
X007284Y012387D01*
X006334Y013337D01*
X006334Y013837D01*
X005934Y014237D01*
X005934Y014937D01*
X005696Y014939D02*
X005673Y014939D01*
X005673Y015017D02*
X005696Y015017D01*
X005696Y015096D02*
X005673Y015096D01*
X005673Y015174D02*
X005696Y015174D01*
X005696Y015253D02*
X005673Y015253D01*
X005612Y015331D02*
X005756Y015331D01*
X006046Y015645D02*
X004474Y015645D01*
X004474Y015567D02*
X006125Y015567D01*
X006276Y015488D02*
X004474Y015488D01*
X004474Y015410D02*
X006246Y015410D01*
X006214Y015331D02*
X006112Y015331D01*
X006173Y015253D02*
X006196Y015253D01*
X006196Y015174D02*
X006173Y015174D01*
X006173Y015096D02*
X006196Y015096D01*
X006196Y015017D02*
X006173Y015017D01*
X006173Y014939D02*
X006196Y014939D01*
X006196Y014860D02*
X006173Y014860D01*
X006173Y014782D02*
X006196Y014782D01*
X006196Y014703D02*
X006173Y014703D01*
X006173Y014625D02*
X006196Y014625D01*
X006200Y014546D02*
X006115Y014546D01*
X006114Y014468D02*
X006157Y014468D01*
X006157Y014389D02*
X006114Y014389D01*
X006115Y014311D02*
X006157Y014311D01*
X005754Y014311D02*
X005615Y014311D01*
X005614Y014389D02*
X005754Y014389D01*
X005754Y014468D02*
X005614Y014468D01*
X005615Y014546D02*
X005753Y014546D01*
X005696Y014625D02*
X005673Y014625D01*
X005673Y014703D02*
X005696Y014703D01*
X005696Y014782D02*
X005673Y014782D01*
X005673Y014860D02*
X005696Y014860D01*
X005434Y014937D02*
X005434Y014237D01*
X005984Y013687D01*
X006134Y013537D01*
X006134Y013287D01*
X007334Y012087D01*
X007148Y011877D02*
X004874Y011877D01*
X004874Y011956D02*
X007086Y011956D01*
X007054Y012034D02*
X004924Y012034D01*
X004953Y012270D02*
X006897Y012270D01*
X006819Y012348D02*
X004919Y012348D01*
X004838Y012427D02*
X006740Y012427D01*
X006662Y012505D02*
X004664Y012505D01*
X004647Y012584D02*
X006583Y012584D01*
X006505Y012662D02*
X004605Y012662D01*
X004504Y012741D02*
X006426Y012741D01*
X006348Y012819D02*
X004474Y012819D01*
X004474Y012898D02*
X006269Y012898D01*
X006191Y012976D02*
X004474Y012976D01*
X004474Y013055D02*
X006112Y013055D01*
X006034Y013133D02*
X004474Y013133D01*
X004474Y013212D02*
X005955Y013212D01*
X005954Y013290D02*
X004474Y013290D01*
X004474Y013369D02*
X005954Y013369D01*
X005731Y013447D02*
X004474Y013447D01*
X004474Y013526D02*
X005707Y013526D01*
X005707Y013604D02*
X004474Y013604D01*
X004474Y013683D02*
X005704Y013683D01*
X005656Y013761D02*
X004474Y013761D01*
X004474Y013840D02*
X005577Y013840D01*
X005499Y013918D02*
X004474Y013918D01*
X004474Y013997D02*
X005420Y013997D01*
X005342Y014075D02*
X004474Y014075D01*
X004474Y014154D02*
X005263Y014154D01*
X005254Y014232D02*
X004474Y014232D01*
X004474Y014311D02*
X005254Y014311D01*
X005254Y014389D02*
X004474Y014389D01*
X004474Y014468D02*
X005254Y014468D01*
X005253Y014546D02*
X004474Y014546D01*
X004474Y014625D02*
X005196Y014625D01*
X005196Y014703D02*
X004474Y014703D01*
X004474Y014782D02*
X005196Y014782D01*
X005196Y014860D02*
X004474Y014860D01*
X004474Y014939D02*
X005196Y014939D01*
X005196Y015017D02*
X004474Y015017D01*
X004474Y015096D02*
X005196Y015096D01*
X005196Y015174D02*
X004474Y015174D01*
X004474Y015253D02*
X005196Y015253D01*
X005256Y015331D02*
X004474Y015331D01*
X004466Y015724D02*
X006008Y015724D01*
X005976Y015802D02*
X004388Y015802D01*
X004309Y015881D02*
X005974Y015881D01*
X005974Y015959D02*
X004274Y015959D01*
X004274Y016038D02*
X006003Y016038D01*
X006035Y016116D02*
X004274Y016116D01*
X004274Y016195D02*
X004838Y016195D01*
X004752Y016273D02*
X004274Y016273D01*
X004274Y016352D02*
X004717Y016352D01*
X004704Y016430D02*
X004274Y016430D01*
X004274Y016509D02*
X004711Y016509D01*
X004743Y016587D02*
X004274Y016587D01*
X004224Y016666D02*
X004734Y016666D01*
X004696Y016744D02*
X004146Y016744D01*
X004067Y016823D02*
X004696Y016823D01*
X004696Y016901D02*
X004061Y016901D01*
X004061Y016980D02*
X004696Y016980D01*
X004696Y017058D02*
X004061Y017058D01*
X004061Y017137D02*
X004696Y017137D01*
X004696Y017215D02*
X004061Y017215D01*
X004002Y017294D02*
X004696Y017294D01*
X004697Y017372D02*
X003923Y017372D01*
X003845Y017451D02*
X004776Y017451D01*
X005093Y017451D02*
X005194Y017451D01*
X005194Y017529D02*
X002974Y017529D01*
X002974Y017451D02*
X003324Y017451D01*
X003245Y017372D02*
X002974Y017372D01*
X002974Y017294D02*
X003167Y017294D01*
X003108Y017215D02*
X002974Y017215D01*
X002974Y017137D02*
X003108Y017137D01*
X003108Y017058D02*
X002974Y017058D01*
X002974Y016980D02*
X003108Y016980D01*
X003108Y016901D02*
X002974Y016901D01*
X002974Y016823D02*
X003125Y016823D01*
X003203Y016744D02*
X002974Y016744D01*
X002974Y016666D02*
X003282Y016666D01*
X003360Y016587D02*
X002974Y016587D01*
X002974Y016509D02*
X003382Y016509D01*
X003303Y016430D02*
X002974Y016430D01*
X002974Y016352D02*
X003225Y016352D01*
X003146Y016273D02*
X002974Y016273D01*
X002974Y016195D02*
X003108Y016195D01*
X003108Y016116D02*
X002974Y016116D01*
X002974Y016038D02*
X003108Y016038D01*
X003108Y015959D02*
X002974Y015959D01*
X002974Y015881D02*
X003108Y015881D01*
X003145Y015802D02*
X002974Y015802D01*
X002974Y015724D02*
X003224Y015724D01*
X003302Y015645D02*
X002974Y015645D01*
X002974Y015567D02*
X003381Y015567D01*
X002974Y015488D02*
X003865Y015488D01*
X003894Y015410D02*
X002974Y015410D01*
X002974Y015331D02*
X003894Y015331D01*
X003894Y015253D02*
X002974Y015253D01*
X002974Y015174D02*
X003894Y015174D01*
X003894Y015096D02*
X002974Y015096D01*
X002974Y015017D02*
X003894Y015017D01*
X003894Y014939D02*
X002974Y014939D01*
X002974Y014860D02*
X003894Y014860D01*
X003894Y014782D02*
X002974Y014782D01*
X002974Y014703D02*
X003894Y014703D01*
X003894Y014625D02*
X002974Y014625D01*
X002974Y014546D02*
X003894Y014546D01*
X003894Y014468D02*
X003828Y014468D01*
X003341Y014468D02*
X002974Y014468D01*
X002974Y014389D02*
X003262Y014389D01*
X003184Y014311D02*
X002974Y014311D01*
X002974Y014232D02*
X003108Y014232D01*
X003108Y014154D02*
X002974Y014154D01*
X002974Y014075D02*
X003108Y014075D01*
X003108Y013997D02*
X002974Y013997D01*
X002974Y013761D02*
X003186Y013761D01*
X003265Y013683D02*
X002974Y013683D01*
X002974Y013604D02*
X003343Y013604D01*
X003320Y013447D02*
X002974Y013447D01*
X002974Y013369D02*
X003242Y013369D01*
X003163Y013290D02*
X002974Y013290D01*
X002974Y013212D02*
X003108Y013212D01*
X003108Y013133D02*
X002974Y013133D01*
X002974Y013055D02*
X003108Y013055D01*
X003108Y012976D02*
X002974Y012976D01*
X002974Y012898D02*
X003108Y012898D01*
X003055Y012819D02*
X002974Y012819D01*
X002974Y012741D02*
X002977Y012741D01*
X003285Y012427D02*
X003894Y012427D01*
X003894Y012505D02*
X003363Y012505D01*
X003254Y012348D02*
X003894Y012348D01*
X003894Y012270D02*
X003254Y012270D01*
X003254Y012191D02*
X003962Y012191D01*
X004040Y012113D02*
X003254Y012113D01*
X003254Y012034D02*
X004119Y012034D01*
X004197Y011956D02*
X003254Y011956D01*
X003254Y011877D02*
X004276Y011877D01*
X004294Y011799D02*
X003254Y011799D01*
X003254Y011720D02*
X004294Y011720D01*
X004294Y011642D02*
X003254Y011642D01*
X003254Y011563D02*
X004294Y011563D01*
X004294Y011485D02*
X003254Y011485D01*
X003254Y011406D02*
X004294Y011406D01*
X004294Y011328D02*
X003254Y011328D01*
X003254Y011249D02*
X004294Y011249D01*
X004332Y011171D02*
X003312Y011171D01*
X003390Y011092D02*
X004411Y011092D01*
X004489Y011014D02*
X003832Y011014D01*
X003910Y010935D02*
X004568Y010935D01*
X004646Y010857D02*
X003989Y010857D01*
X004061Y010778D02*
X004725Y010778D01*
X004803Y010700D02*
X004061Y010700D01*
X004061Y010621D02*
X004882Y010621D01*
X004960Y010543D02*
X004061Y010543D01*
X004061Y010464D02*
X005039Y010464D01*
X005117Y010386D02*
X004057Y010386D01*
X003978Y010307D02*
X004536Y010307D01*
X004457Y010229D02*
X003900Y010229D01*
X003821Y010150D02*
X004154Y010150D01*
X004087Y010072D02*
X002974Y010072D01*
X002974Y010150D02*
X003347Y010150D01*
X003269Y010229D02*
X002974Y010229D01*
X002974Y010307D02*
X003190Y010307D01*
X003112Y010386D02*
X002974Y010386D01*
X002974Y010464D02*
X003108Y010464D01*
X003108Y010543D02*
X002974Y010543D01*
X002974Y010621D02*
X003108Y010621D01*
X003108Y010700D02*
X002974Y010700D01*
X002974Y010778D02*
X003082Y010778D01*
X003004Y010857D02*
X002974Y010857D01*
X002974Y009993D02*
X003316Y009993D01*
X003238Y009915D02*
X002974Y009915D01*
X002974Y009836D02*
X003159Y009836D01*
X003108Y009758D02*
X002974Y009758D01*
X002974Y009679D02*
X003108Y009679D01*
X003108Y009601D02*
X002974Y009601D01*
X002974Y009522D02*
X003108Y009522D01*
X003108Y009444D02*
X002974Y009444D01*
X002974Y009365D02*
X003132Y009365D01*
X003211Y009287D02*
X002974Y009287D01*
X002974Y009208D02*
X003289Y009208D01*
X003368Y009130D02*
X002974Y009130D01*
X002974Y009051D02*
X003374Y009051D01*
X003296Y008973D02*
X002974Y008973D01*
X002974Y008894D02*
X003217Y008894D01*
X003139Y008816D02*
X002974Y008816D01*
X002974Y008737D02*
X003108Y008737D01*
X003108Y008659D02*
X002974Y008659D01*
X002974Y008580D02*
X003108Y008580D01*
X003108Y008502D02*
X002974Y008502D01*
X002974Y008423D02*
X003108Y008423D01*
X003153Y008345D02*
X002974Y008345D01*
X002974Y008266D02*
X003231Y008266D01*
X003310Y008188D02*
X002974Y008188D01*
X002974Y008109D02*
X006104Y008109D01*
X006105Y008031D02*
X002974Y008031D01*
X002974Y007952D02*
X006137Y007952D01*
X006164Y007874D02*
X002974Y007874D01*
X002974Y007795D02*
X006164Y007795D01*
X006164Y007717D02*
X002974Y007717D01*
X002974Y007638D02*
X006164Y007638D01*
X006164Y007560D02*
X002974Y007560D01*
X002974Y007481D02*
X006164Y007481D01*
X006164Y007403D02*
X002974Y007403D01*
X002974Y007324D02*
X006164Y007324D01*
X006164Y007246D02*
X002974Y007246D01*
X002974Y007167D02*
X006164Y007167D01*
X006164Y007089D02*
X002974Y007089D01*
X002974Y007010D02*
X006164Y007010D01*
X006164Y006932D02*
X002974Y006932D01*
X002974Y006853D02*
X006164Y006853D01*
X006164Y006775D02*
X002974Y006775D01*
X002974Y006696D02*
X004514Y006696D01*
X004525Y006701D02*
X004416Y006656D01*
X004332Y006572D01*
X004287Y006463D01*
X004287Y006344D01*
X004332Y006235D01*
X004416Y006151D01*
X004525Y006106D01*
X004643Y006106D01*
X004753Y006151D01*
X004837Y006235D01*
X004882Y006344D01*
X004882Y006463D01*
X004837Y006572D01*
X004753Y006656D01*
X004643Y006701D01*
X004525Y006701D01*
X004655Y006696D02*
X006164Y006696D01*
X006164Y006618D02*
X004791Y006618D01*
X004850Y006539D02*
X006164Y006539D01*
X006164Y006461D02*
X004882Y006461D01*
X004882Y006382D02*
X006164Y006382D01*
X006164Y006304D02*
X004865Y006304D01*
X004827Y006225D02*
X006164Y006225D01*
X006164Y006147D02*
X004742Y006147D01*
X004427Y006147D02*
X002974Y006147D01*
X002974Y006225D02*
X004342Y006225D01*
X004304Y006304D02*
X002974Y006304D01*
X002974Y006382D02*
X004287Y006382D01*
X004287Y006461D02*
X002974Y006461D01*
X002974Y006539D02*
X004319Y006539D01*
X004378Y006618D02*
X002974Y006618D01*
X002974Y006068D02*
X006164Y006068D01*
X006164Y005990D02*
X002974Y005990D01*
X002974Y005911D02*
X006164Y005911D01*
X006164Y005833D02*
X002974Y005833D01*
X002974Y005754D02*
X006164Y005754D01*
X006164Y005676D02*
X002974Y005676D01*
X002974Y005597D02*
X006164Y005597D01*
X006164Y005519D02*
X002974Y005519D01*
X002974Y005440D02*
X006164Y005440D01*
X006164Y005362D02*
X002974Y005362D01*
X002974Y005283D02*
X006164Y005283D01*
X006164Y005205D02*
X002974Y005205D01*
X002974Y005126D02*
X006112Y005126D01*
X006034Y005048D02*
X002974Y005048D01*
X002974Y004969D02*
X005955Y004969D01*
X005877Y004891D02*
X004785Y004891D01*
X004753Y004923D02*
X004837Y004840D01*
X004882Y004730D01*
X004882Y004612D01*
X004837Y004503D01*
X004753Y004419D01*
X004643Y004374D01*
X004525Y004374D01*
X004416Y004419D01*
X004332Y004503D01*
X004287Y004612D01*
X004287Y004730D01*
X004332Y004840D01*
X004416Y004923D01*
X004525Y004969D01*
X004643Y004969D01*
X004753Y004923D01*
X004848Y004812D02*
X005798Y004812D01*
X005720Y004734D02*
X004880Y004734D01*
X004882Y004655D02*
X005641Y004655D01*
X005563Y004577D02*
X004867Y004577D01*
X004832Y004498D02*
X005484Y004498D01*
X005406Y004420D02*
X004754Y004420D01*
X004415Y004420D02*
X002974Y004420D01*
X002974Y004498D02*
X004336Y004498D01*
X004301Y004577D02*
X002974Y004577D01*
X002974Y004655D02*
X004287Y004655D01*
X004288Y004734D02*
X002974Y004734D01*
X002974Y004812D02*
X004321Y004812D01*
X004383Y004891D02*
X002974Y004891D01*
X002974Y004341D02*
X005327Y004341D01*
X005264Y004263D02*
X002974Y004263D01*
X002974Y004184D02*
X005264Y004184D01*
X005264Y004106D02*
X002974Y004106D01*
X002974Y004027D02*
X005264Y004027D01*
X005264Y003949D02*
X002974Y003949D01*
X002974Y003870D02*
X005264Y003870D01*
X005264Y003792D02*
X002974Y003792D01*
X002974Y003713D02*
X005264Y003713D01*
X005264Y003635D02*
X002974Y003635D01*
X002974Y003556D02*
X005264Y003556D01*
X005264Y003478D02*
X002974Y003478D01*
X002974Y003399D02*
X005264Y003399D01*
X005264Y003321D02*
X002974Y003321D01*
X002974Y003242D02*
X005264Y003242D01*
X005264Y003164D02*
X002974Y003164D01*
X002974Y003085D02*
X005264Y003085D01*
X005264Y003007D02*
X002974Y003007D01*
X002974Y002928D02*
X003419Y002928D01*
X003264Y002850D02*
X002974Y002850D01*
X002974Y002771D02*
X003128Y002771D01*
X003050Y002693D02*
X002974Y002693D01*
X004218Y002928D02*
X005264Y002928D01*
X005264Y002850D02*
X004373Y002850D01*
X004509Y002771D02*
X005264Y002771D01*
X005264Y002693D02*
X004587Y002693D01*
X004666Y002614D02*
X005264Y002614D01*
X005264Y002536D02*
X004733Y002536D01*
X004779Y002457D02*
X005264Y002457D01*
X005264Y002379D02*
X004824Y002379D01*
X004868Y002300D02*
X005264Y002300D01*
X005264Y002222D02*
X004889Y002222D01*
X004910Y002143D02*
X005264Y002143D01*
X005296Y002065D02*
X004931Y002065D01*
X004943Y001986D02*
X005374Y001986D01*
X005453Y001908D02*
X004943Y001908D01*
X004943Y001829D02*
X005531Y001829D01*
X005610Y001751D02*
X004943Y001751D01*
X004929Y001672D02*
X005688Y001672D01*
X005767Y001594D02*
X004908Y001594D01*
X004887Y001515D02*
X005845Y001515D01*
X005924Y001437D02*
X004866Y001437D01*
X004820Y001358D02*
X006002Y001358D01*
X006081Y001280D02*
X004775Y001280D01*
X004730Y001201D02*
X020624Y001201D01*
X020579Y001280D02*
X009088Y001280D01*
X009166Y001358D02*
X020533Y001358D01*
X020694Y001123D02*
X004660Y001123D01*
X004581Y001044D02*
X020772Y001044D01*
X021935Y002928D02*
X022379Y002928D01*
X022379Y002850D02*
X022089Y002850D01*
X016448Y005205D02*
X013206Y005205D01*
X013128Y005283D02*
X016370Y005283D01*
X016291Y005362D02*
X013049Y005362D01*
X012971Y005440D02*
X016213Y005440D01*
X013810Y007089D02*
X013659Y007089D01*
X010737Y008659D02*
X010687Y008659D01*
X010630Y008737D02*
X010744Y008737D01*
X010744Y008816D02*
X010494Y008816D01*
X010375Y008816D02*
X009337Y008816D01*
X009460Y008894D02*
X010744Y008894D01*
X010744Y008973D02*
X009530Y008973D01*
X009563Y009051D02*
X010744Y009051D01*
X010744Y009130D02*
X009586Y009130D01*
X009586Y009208D02*
X010744Y009208D01*
X010744Y009287D02*
X009578Y009287D01*
X009545Y009365D02*
X010744Y009365D01*
X010744Y009444D02*
X009496Y009444D01*
X010038Y009522D02*
X010801Y009522D01*
X010879Y009601D02*
X010117Y009601D01*
X010238Y008737D02*
X008303Y008737D01*
X008224Y008816D02*
X009031Y008816D01*
X008909Y008894D02*
X008146Y008894D01*
X008067Y008973D02*
X008838Y008973D01*
X008806Y009051D02*
X007989Y009051D01*
X007910Y009130D02*
X008783Y009130D01*
X008783Y009208D02*
X007832Y009208D01*
X007753Y009287D02*
X008791Y009287D01*
X008823Y009365D02*
X007675Y009365D01*
X007596Y009444D02*
X008873Y009444D01*
X008331Y009522D02*
X007564Y009522D01*
X007540Y009601D02*
X008252Y009601D01*
X008174Y009679D02*
X007488Y009679D01*
X007363Y009758D02*
X008095Y009758D01*
X007206Y009758D02*
X005424Y009758D01*
X005424Y009679D02*
X007080Y009679D01*
X007028Y009601D02*
X005424Y009601D01*
X005388Y009522D02*
X007004Y009522D01*
X007004Y009444D02*
X005310Y009444D01*
X005231Y009365D02*
X007032Y009365D01*
X007089Y009287D02*
X005182Y009287D01*
X005182Y009208D02*
X007226Y009208D01*
X007373Y009130D02*
X005182Y009130D01*
X005142Y009051D02*
X007452Y009051D01*
X007530Y008973D02*
X004339Y008973D01*
X004260Y008894D02*
X007609Y008894D01*
X007687Y008816D02*
X004182Y008816D01*
X004103Y008737D02*
X007766Y008737D01*
X007844Y008659D02*
X006579Y008659D01*
X006636Y008580D02*
X007923Y008580D01*
X008001Y008502D02*
X006664Y008502D01*
X006664Y008423D02*
X008052Y008423D01*
X007973Y008345D02*
X006641Y008345D01*
X006604Y008266D02*
X007895Y008266D01*
X007816Y008188D02*
X006646Y008188D01*
X006164Y008266D02*
X003937Y008266D01*
X003859Y008188D02*
X006123Y008188D01*
X006128Y008345D02*
X004016Y008345D01*
X004061Y008423D02*
X006104Y008423D01*
X006104Y008502D02*
X004061Y008502D01*
X004061Y008580D02*
X006132Y008580D01*
X006190Y008659D02*
X004061Y008659D01*
X003880Y009051D02*
X003794Y009051D01*
X003801Y009130D02*
X003958Y009130D01*
X003879Y009208D02*
X004037Y009208D01*
X004087Y009287D02*
X003958Y009287D01*
X004036Y009365D02*
X004087Y009365D01*
X004087Y009836D02*
X004009Y009836D01*
X003931Y009915D02*
X004087Y009915D01*
X004087Y009993D02*
X003852Y009993D01*
X005714Y011092D02*
X005854Y011092D01*
X005862Y011014D02*
X005776Y011014D01*
X005703Y011171D02*
X005866Y011171D01*
X005900Y011249D02*
X005668Y011249D01*
X005585Y011328D02*
X005983Y011328D01*
X006285Y011328D02*
X008857Y011328D01*
X008817Y011249D02*
X006368Y011249D01*
X007594Y012191D02*
X007884Y012191D01*
X008338Y012505D02*
X009720Y012505D01*
X009483Y012584D02*
X008284Y012584D01*
X009678Y012898D02*
X009749Y012898D01*
X010563Y013761D02*
X011362Y013761D01*
X011394Y013840D02*
X010641Y013840D01*
X010720Y013918D02*
X011349Y013918D01*
X011270Y013997D02*
X010798Y013997D01*
X010877Y014075D02*
X011192Y014075D01*
X011113Y014154D02*
X010955Y014154D01*
X011034Y014232D02*
X011035Y014232D01*
X011034Y014487D02*
X011034Y014937D01*
X010796Y014939D02*
X010167Y014939D01*
X010241Y015017D02*
X010796Y015017D01*
X010796Y015096D02*
X010241Y015096D01*
X010241Y015174D02*
X010796Y015174D01*
X011534Y014937D02*
X011534Y014237D01*
X011934Y013837D01*
X011934Y012987D01*
X012334Y012587D01*
X012334Y012487D01*
X012597Y012584D02*
X013795Y012584D01*
X013762Y012662D02*
X012555Y012662D01*
X012454Y012741D02*
X013754Y012741D01*
X013870Y012505D02*
X012614Y012505D01*
X012612Y012427D02*
X014978Y012427D01*
X014927Y012348D02*
X012580Y012348D01*
X012513Y012270D02*
X014904Y012270D01*
X014904Y012191D02*
X012124Y012191D01*
X012124Y012113D02*
X014933Y012113D01*
X014991Y012034D02*
X012124Y012034D01*
X012124Y012270D02*
X012156Y012270D01*
X012114Y013447D02*
X012882Y013447D01*
X012800Y013526D02*
X012114Y013526D01*
X012114Y013604D02*
X012766Y013604D01*
X012402Y014939D02*
X012273Y014939D01*
X012273Y015017D02*
X012328Y015017D01*
X012328Y015096D02*
X012273Y015096D01*
X012273Y015174D02*
X012328Y015174D01*
X015073Y015174D02*
X015128Y015174D01*
X015128Y015096D02*
X015073Y015096D01*
X015073Y015017D02*
X015128Y015017D01*
X015073Y014939D02*
X015202Y014939D01*
X017134Y014937D02*
X017134Y014237D01*
X017534Y013837D01*
X017534Y013587D01*
X017873Y014939D02*
X018002Y014939D01*
X017928Y015017D02*
X017873Y015017D01*
X017873Y015096D02*
X017928Y015096D01*
X017928Y015174D02*
X017873Y015174D01*
X018002Y016311D02*
X018567Y016311D01*
X018661Y016405D01*
X018661Y016970D01*
X018567Y017064D01*
X018215Y017064D01*
X018182Y017077D01*
X017893Y017077D01*
X017893Y017379D01*
X017874Y017398D01*
X017874Y017685D01*
X017841Y017765D01*
X017841Y017843D02*
X019227Y017843D01*
X019227Y017765D02*
X019194Y017685D01*
X019194Y017398D01*
X019176Y017379D01*
X019176Y017197D01*
X019173Y017190D01*
X019173Y017371D01*
X019091Y017453D01*
X018778Y017453D01*
X018696Y017371D01*
X018696Y016704D01*
X018754Y016645D01*
X018754Y016603D01*
X018747Y016596D01*
X018704Y016493D01*
X018704Y016382D01*
X018739Y016297D01*
X017429Y016297D01*
X017464Y016382D01*
X017464Y016493D01*
X017422Y016596D01*
X017343Y016674D01*
X017373Y016704D01*
X017373Y017371D01*
X017372Y017371D01*
X017376Y017371D01*
X017376Y016696D01*
X017470Y016602D01*
X017576Y016602D01*
X017587Y016597D01*
X017908Y016597D01*
X017908Y016405D01*
X018002Y016311D01*
X017960Y016352D02*
X017452Y016352D01*
X017464Y016430D02*
X017908Y016430D01*
X017908Y016509D02*
X017458Y016509D01*
X017425Y016587D02*
X017908Y016587D01*
X017405Y016666D02*
X017352Y016666D01*
X017373Y016744D02*
X017376Y016744D01*
X017373Y016823D02*
X017376Y016823D01*
X017373Y016901D02*
X017376Y016901D01*
X017373Y016980D02*
X017376Y016980D01*
X017373Y017058D02*
X017376Y017058D01*
X017373Y017137D02*
X017376Y017137D01*
X017373Y017215D02*
X017376Y017215D01*
X017373Y017294D02*
X017376Y017294D01*
X017134Y017037D02*
X017134Y016487D01*
X017184Y016437D01*
X017893Y017137D02*
X018696Y017137D01*
X018696Y017215D02*
X017893Y017215D01*
X017893Y017294D02*
X018696Y017294D01*
X018697Y017372D02*
X017893Y017372D01*
X017874Y017451D02*
X018776Y017451D01*
X019093Y017451D02*
X019194Y017451D01*
X019194Y017529D02*
X017874Y017529D01*
X017874Y017608D02*
X019194Y017608D01*
X019195Y017686D02*
X017874Y017686D01*
X017841Y017922D02*
X019227Y017922D01*
X019227Y018000D02*
X017841Y018000D01*
X017841Y018079D02*
X019227Y018079D01*
X019275Y018157D02*
X017793Y018157D01*
X017175Y018157D02*
X017093Y018157D01*
X018573Y017058D02*
X018696Y017058D01*
X018696Y016980D02*
X018651Y016980D01*
X018661Y016901D02*
X018696Y016901D01*
X018696Y016823D02*
X018661Y016823D01*
X018661Y016744D02*
X018696Y016744D01*
X018661Y016666D02*
X018734Y016666D01*
X018743Y016587D02*
X018661Y016587D01*
X018661Y016509D02*
X018711Y016509D01*
X018704Y016430D02*
X018661Y016430D01*
X018608Y016352D02*
X018717Y016352D01*
X018934Y016487D02*
X018984Y016437D01*
X018934Y016487D02*
X018934Y017037D01*
X019173Y017215D02*
X019176Y017215D01*
X019173Y017294D02*
X019176Y017294D01*
X019171Y017372D02*
X019176Y017372D01*
X019934Y017037D02*
X019934Y016487D01*
X019984Y016437D01*
X020264Y016430D02*
X020708Y016430D01*
X020708Y016509D02*
X020258Y016509D01*
X020225Y016587D02*
X020708Y016587D01*
X020760Y016352D02*
X020252Y016352D01*
X020205Y016666D02*
X020152Y016666D01*
X020173Y016744D02*
X020176Y016744D01*
X020173Y016823D02*
X020176Y016823D01*
X020173Y016901D02*
X020176Y016901D01*
X020173Y016980D02*
X020176Y016980D01*
X020173Y017058D02*
X020176Y017058D01*
X020173Y017137D02*
X020176Y017137D01*
X020173Y017215D02*
X020176Y017215D01*
X020173Y017294D02*
X020176Y017294D01*
X020693Y017294D02*
X022379Y017294D01*
X022379Y017372D02*
X020693Y017372D01*
X020674Y017451D02*
X022379Y017451D01*
X022379Y017529D02*
X020674Y017529D01*
X020674Y017608D02*
X022379Y017608D01*
X022379Y017686D02*
X020674Y017686D01*
X020641Y017765D02*
X022379Y017765D01*
X022379Y017843D02*
X020641Y017843D01*
X020641Y017922D02*
X022379Y017922D01*
X022379Y018000D02*
X020641Y018000D01*
X020641Y018079D02*
X022379Y018079D01*
X022379Y018157D02*
X020593Y018157D01*
X019975Y018157D02*
X019893Y018157D01*
X020693Y017215D02*
X022379Y017215D01*
X022379Y017137D02*
X020693Y017137D01*
X021373Y017058D02*
X022379Y017058D01*
X022379Y016980D02*
X021451Y016980D01*
X021461Y016901D02*
X022379Y016901D01*
X022379Y016823D02*
X021461Y016823D01*
X021461Y016744D02*
X022379Y016744D01*
X022379Y016666D02*
X021461Y016666D01*
X021461Y016587D02*
X022379Y016587D01*
X022379Y016509D02*
X021461Y016509D01*
X021461Y016430D02*
X022379Y016430D01*
X022379Y016352D02*
X021408Y016352D01*
X021374Y016273D02*
X022379Y016273D01*
X022379Y016195D02*
X021507Y016195D01*
X021583Y016116D02*
X022379Y016116D01*
X022379Y016038D02*
X021616Y016038D01*
X021644Y015959D02*
X022379Y015959D01*
X022379Y015881D02*
X021644Y015881D01*
X021643Y015802D02*
X022379Y015802D01*
X022379Y015724D02*
X021610Y015724D01*
X021572Y015645D02*
X022379Y015645D01*
X022379Y015567D02*
X021494Y015567D01*
X021441Y015488D02*
X022379Y015488D01*
X022379Y015410D02*
X021441Y015410D01*
X021441Y015331D02*
X022379Y015331D01*
X022379Y015253D02*
X021441Y015253D01*
X021441Y015174D02*
X022379Y015174D01*
X022379Y015096D02*
X021441Y015096D01*
X021441Y015017D02*
X022379Y015017D01*
X022379Y014939D02*
X021367Y014939D01*
X019286Y012270D02*
X019178Y012270D01*
X019154Y012191D02*
X019228Y012191D01*
X019273Y010857D02*
X018432Y010857D01*
X018353Y010778D02*
X019228Y010778D01*
X019228Y010700D02*
X017524Y010700D01*
X017524Y010778D02*
X017648Y010778D01*
X017525Y010857D02*
X017524Y010857D01*
X017701Y010621D02*
X019228Y010621D01*
X019228Y010543D02*
X017721Y010543D01*
X017721Y010464D02*
X019200Y010464D01*
X019122Y010386D02*
X017721Y010386D01*
X017721Y010307D02*
X019043Y010307D01*
X018965Y010229D02*
X017754Y010229D01*
X017832Y010150D02*
X018886Y010150D01*
X018808Y010072D02*
X017911Y010072D01*
X016815Y010778D02*
X016776Y010778D01*
X015360Y010386D02*
X015314Y010386D01*
X015308Y010857D02*
X013461Y010857D01*
X013529Y010778D02*
X014285Y010778D01*
X014201Y010700D02*
X013561Y010700D01*
X013564Y010621D02*
X014166Y010621D01*
X014154Y010543D02*
X013548Y010543D01*
X013507Y010464D02*
X014093Y010464D01*
X014014Y010386D02*
X013526Y010386D01*
X013558Y010307D02*
X013936Y010307D01*
X013857Y010229D02*
X013564Y010229D01*
X013551Y010150D02*
X013779Y010150D01*
X013700Y010072D02*
X013515Y010072D01*
X013523Y009993D02*
X013622Y009993D01*
X013000Y010621D02*
X012737Y010621D01*
X012659Y010543D02*
X012921Y010543D01*
X013007Y010700D02*
X012816Y010700D01*
X012991Y010778D02*
X013040Y010778D01*
X013100Y010857D02*
X013108Y010857D01*
X014584Y010778D02*
X014757Y010778D01*
X014678Y010700D02*
X014668Y010700D01*
X015100Y012505D02*
X014198Y012505D01*
X008784Y011171D02*
X008719Y011171D01*
X005754Y014232D02*
X005694Y014232D01*
X006673Y014939D02*
X006802Y014939D01*
X006728Y015017D02*
X006673Y015017D01*
X006673Y015096D02*
X006728Y015096D01*
X006728Y015174D02*
X006673Y015174D01*
X006802Y016311D02*
X007367Y016311D01*
X007461Y016405D01*
X007461Y016970D01*
X007367Y017064D01*
X007015Y017064D01*
X006982Y017077D01*
X006693Y017077D01*
X006693Y017379D01*
X006674Y017398D01*
X006674Y017685D01*
X006641Y017765D01*
X006641Y017843D02*
X008027Y017843D01*
X008027Y017765D02*
X007994Y017685D01*
X007994Y017398D01*
X007976Y017379D01*
X007976Y017197D01*
X007973Y017190D01*
X007973Y017371D01*
X007891Y017453D01*
X007578Y017453D01*
X007496Y017371D01*
X007496Y016704D01*
X007554Y016645D01*
X007554Y016603D01*
X007547Y016596D01*
X007504Y016493D01*
X007504Y016382D01*
X007539Y016297D01*
X006303Y016297D01*
X006196Y016253D01*
X006222Y016279D01*
X006264Y016382D01*
X006264Y016493D01*
X006222Y016596D01*
X006143Y016674D01*
X006173Y016704D01*
X006173Y017371D01*
X006172Y017371D01*
X006176Y017371D01*
X006176Y016696D01*
X006270Y016602D01*
X006376Y016602D01*
X006387Y016597D01*
X006708Y016597D01*
X006708Y016405D01*
X006802Y016311D01*
X006760Y016352D02*
X006252Y016352D01*
X006245Y016273D02*
X006216Y016273D01*
X006264Y016430D02*
X006708Y016430D01*
X006708Y016509D02*
X006258Y016509D01*
X006225Y016587D02*
X006708Y016587D01*
X006205Y016666D02*
X006152Y016666D01*
X006173Y016744D02*
X006176Y016744D01*
X006173Y016823D02*
X006176Y016823D01*
X006173Y016901D02*
X006176Y016901D01*
X006173Y016980D02*
X006176Y016980D01*
X006173Y017058D02*
X006176Y017058D01*
X006173Y017137D02*
X006176Y017137D01*
X006173Y017215D02*
X006176Y017215D01*
X006173Y017294D02*
X006176Y017294D01*
X005934Y017037D02*
X005934Y016487D01*
X005984Y016437D01*
X005704Y016430D02*
X005264Y016430D01*
X005252Y016352D02*
X005717Y016352D01*
X005752Y016273D02*
X005216Y016273D01*
X005131Y016195D02*
X005838Y016195D01*
X005711Y016509D02*
X005258Y016509D01*
X005225Y016587D02*
X005743Y016587D01*
X005734Y016666D02*
X005663Y016666D01*
X005693Y016744D02*
X005696Y016744D01*
X005693Y016823D02*
X005696Y016823D01*
X005205Y016666D02*
X005152Y016666D01*
X005173Y016744D02*
X005176Y016744D01*
X005173Y016823D02*
X005176Y016823D01*
X004934Y017037D02*
X004934Y016487D01*
X004984Y016437D01*
X005173Y017215D02*
X005176Y017215D01*
X005173Y017294D02*
X005176Y017294D01*
X005171Y017372D02*
X005176Y017372D01*
X005194Y017608D02*
X002974Y017608D01*
X002974Y017686D02*
X005195Y017686D01*
X005227Y017922D02*
X002974Y017922D01*
X002974Y018000D02*
X005227Y018000D01*
X005227Y018079D02*
X002974Y018079D01*
X002974Y018157D02*
X005275Y018157D01*
X005893Y018157D02*
X005975Y018157D01*
X006593Y018157D02*
X008075Y018157D01*
X008027Y018079D02*
X006641Y018079D01*
X006641Y018000D02*
X008027Y018000D01*
X008027Y017922D02*
X006641Y017922D01*
X006674Y017686D02*
X007995Y017686D01*
X007994Y017608D02*
X006674Y017608D01*
X006674Y017529D02*
X007994Y017529D01*
X007994Y017451D02*
X007893Y017451D01*
X007971Y017372D02*
X007976Y017372D01*
X007973Y017294D02*
X007976Y017294D01*
X007973Y017215D02*
X007976Y017215D01*
X007734Y017037D02*
X007734Y016487D01*
X007784Y016437D01*
X007504Y016430D02*
X007461Y016430D01*
X007461Y016509D02*
X007511Y016509D01*
X007543Y016587D02*
X007461Y016587D01*
X007461Y016666D02*
X007534Y016666D01*
X007496Y016744D02*
X007461Y016744D01*
X007461Y016823D02*
X007496Y016823D01*
X007496Y016901D02*
X007461Y016901D01*
X007451Y016980D02*
X007496Y016980D01*
X007496Y017058D02*
X007373Y017058D01*
X007496Y017137D02*
X006693Y017137D01*
X006693Y017215D02*
X007496Y017215D01*
X007496Y017294D02*
X006693Y017294D01*
X006693Y017372D02*
X007497Y017372D01*
X007576Y017451D02*
X006674Y017451D01*
X007408Y016352D02*
X007517Y016352D01*
X008693Y018157D02*
X008775Y018157D01*
X004855Y020041D02*
X020499Y020041D01*
X020544Y020120D02*
X004810Y020120D01*
X004764Y020198D02*
X020589Y020198D01*
X020635Y020277D02*
X004719Y020277D01*
X004641Y020355D02*
X020712Y020355D01*
X022322Y018785D02*
X022379Y018785D01*
X022379Y018707D02*
X022244Y018707D01*
X022121Y018628D02*
X022379Y018628D01*
X022379Y018550D02*
X021985Y018550D01*
X021711Y018471D02*
X022379Y018471D01*
X022379Y018393D02*
X002974Y018393D01*
X002974Y018471D02*
X003642Y018471D01*
X003368Y018550D02*
X002974Y018550D01*
X002974Y018628D02*
X003232Y018628D01*
X003110Y018707D02*
X002974Y018707D01*
X002974Y018785D02*
X003031Y018785D01*
X002974Y018314D02*
X022379Y018314D01*
X022379Y018236D02*
X002974Y018236D01*
X003787Y016509D02*
X003844Y016509D01*
X003865Y016430D02*
X003894Y016430D01*
X003825Y013604D02*
X003894Y013604D01*
X003894Y013526D02*
X002974Y013526D01*
X003848Y013447D02*
X003894Y013447D01*
X003883Y012662D02*
X003894Y012662D01*
X003894Y012584D02*
X003805Y012584D01*
X006604Y005126D02*
X009064Y005126D01*
X009064Y005048D02*
X006604Y005048D01*
X006577Y004969D02*
X009064Y004969D01*
X009064Y004891D02*
X006499Y004891D01*
X006420Y004812D02*
X009064Y004812D01*
X009064Y004734D02*
X006342Y004734D01*
X006263Y004655D02*
X009064Y004655D01*
X009064Y004577D02*
X006185Y004577D01*
X006926Y004420D02*
X007443Y004420D01*
X007487Y004464D02*
X007208Y004185D01*
X007208Y003790D01*
X007487Y003511D01*
X007882Y003511D01*
X008161Y003790D01*
X008161Y004185D01*
X007882Y004464D01*
X007487Y004464D01*
X007364Y004341D02*
X007004Y004341D01*
X007083Y004263D02*
X007286Y004263D01*
X007208Y004184D02*
X007161Y004184D01*
X007161Y004106D02*
X007208Y004106D01*
X007208Y004027D02*
X007161Y004027D01*
X007161Y003949D02*
X007208Y003949D01*
X007208Y003870D02*
X007161Y003870D01*
X007161Y003792D02*
X007208Y003792D01*
X007284Y003713D02*
X007084Y003713D01*
X007006Y003635D02*
X007363Y003635D01*
X007441Y003556D02*
X006927Y003556D01*
X006946Y003399D02*
X007422Y003399D01*
X007344Y003321D02*
X007025Y003321D01*
X007103Y003242D02*
X007265Y003242D01*
X007305Y002693D02*
X007064Y002693D01*
X006985Y002614D02*
X007383Y002614D01*
X007462Y002536D02*
X006907Y002536D01*
X006462Y002536D02*
X005704Y002536D01*
X005704Y002614D02*
X006383Y002614D01*
X006305Y002693D02*
X005704Y002693D01*
X005704Y002279D02*
X006325Y001657D01*
X008843Y001657D01*
X009014Y001829D01*
X008937Y001751D02*
X006232Y001751D01*
X006310Y001672D02*
X008858Y001672D01*
X008462Y002536D02*
X007907Y002536D01*
X007985Y002614D02*
X008383Y002614D01*
X008305Y002693D02*
X008064Y002693D01*
X008103Y003242D02*
X008265Y003242D01*
X008344Y003321D02*
X008025Y003321D01*
X007946Y003399D02*
X008422Y003399D01*
X008441Y003556D02*
X007927Y003556D01*
X008006Y003635D02*
X008363Y003635D01*
X008284Y003713D02*
X008084Y003713D01*
X008161Y003792D02*
X008208Y003792D01*
X008208Y003870D02*
X008161Y003870D01*
X008161Y003949D02*
X008208Y003949D01*
X008208Y004027D02*
X008161Y004027D01*
X008161Y004106D02*
X008208Y004106D01*
X008208Y004184D02*
X008161Y004184D01*
X008083Y004263D02*
X008286Y004263D01*
X008364Y004341D02*
X008004Y004341D01*
X007926Y004420D02*
X008443Y004420D01*
X006422Y003399D02*
X005704Y003399D01*
X005704Y003321D02*
X006344Y003321D01*
X006265Y003242D02*
X006173Y003242D01*
X021993Y010072D02*
X022379Y010072D01*
X022379Y010150D02*
X022018Y010150D01*
X022018Y010229D02*
X022379Y010229D01*
X022379Y010307D02*
X022018Y010307D01*
X022018Y010386D02*
X022379Y010386D01*
X022379Y010464D02*
X022018Y010464D01*
X022018Y010543D02*
X022379Y010543D01*
X022379Y010621D02*
X022018Y010621D01*
X022018Y010700D02*
X022379Y010700D01*
X022379Y010778D02*
X022018Y010778D01*
X022018Y010857D02*
X022379Y010857D01*
X022379Y010935D02*
X022018Y010935D01*
X022018Y011014D02*
X022379Y011014D01*
X022379Y011092D02*
X022018Y011092D01*
X022018Y011171D02*
X022379Y011171D01*
X022379Y011249D02*
X022018Y011249D01*
X022018Y011328D02*
X022379Y011328D01*
X022379Y011406D02*
X021989Y011406D01*
D33*
X018934Y014787D03*
X018934Y015087D03*
X016134Y015087D03*
X016134Y014787D03*
X013334Y014787D03*
X013334Y015087D03*
X010534Y015087D03*
X010534Y014787D03*
X007734Y014787D03*
X007734Y015087D03*
X004934Y015087D03*
X004934Y014787D03*
X010584Y012187D03*
X014534Y010937D03*
X013934Y007737D03*
X016334Y003887D03*
D34*
X018534Y004387D03*
X016234Y009487D03*
X015684Y010087D03*
X016784Y010087D03*
X015734Y012987D03*
X014834Y012987D03*
X013734Y013187D03*
X012734Y013037D03*
X011134Y013087D03*
X010234Y013087D03*
X009534Y011687D03*
X008834Y011687D03*
X008584Y013187D03*
X007584Y013187D03*
X004834Y013437D03*
X006384Y015887D03*
X006884Y015887D03*
X007234Y015887D03*
X009184Y015887D03*
X009684Y015887D03*
X010034Y015887D03*
X011984Y015887D03*
X012484Y015887D03*
X012834Y015887D03*
X014784Y015887D03*
X015284Y015887D03*
X015634Y015887D03*
X017584Y015887D03*
X018084Y015887D03*
X018434Y015887D03*
X020384Y015887D03*
X020884Y015887D03*
X021234Y015887D03*
X021984Y015437D03*
X021984Y016587D03*
X021984Y017737D03*
X019934Y018787D03*
X019934Y019987D03*
X006194Y009507D03*
X003384Y007287D03*
X003384Y005537D03*
X003384Y003737D03*
X005434Y018787D03*
X005434Y019937D03*
D35*
X020534Y007137D03*
X021134Y006437D03*
X020534Y005737D03*
X021784Y005737D03*
X021784Y007137D03*
X021884Y008687D03*
X019384Y004437D03*
X019384Y003937D03*
X021884Y004187D03*
D36*
X018884Y009837D02*
X017834Y009837D01*
X017384Y010287D01*
X018884Y009837D02*
X019584Y010537D01*
X018984Y011937D02*
X018934Y011987D01*
X018934Y012337D01*
X020434Y013837D01*
X020434Y014287D01*
X020434Y014937D01*
X020434Y015437D01*
X018284Y015437D01*
X017634Y015437D01*
X017634Y014937D01*
X017634Y014287D01*
X017634Y015437D02*
X015484Y015437D01*
X014834Y015437D01*
X014834Y014937D01*
X014834Y014287D01*
X014834Y015437D02*
X012684Y015437D01*
X012684Y015287D01*
X012684Y015437D02*
X012034Y015437D01*
X012034Y014937D01*
X012034Y014287D01*
X012034Y015437D02*
X009884Y015437D01*
X009884Y015287D01*
X009884Y015437D02*
X009234Y015437D01*
X009234Y014937D01*
X009234Y014287D01*
X009234Y015437D02*
X007084Y015437D01*
X007084Y015287D01*
X007084Y015437D02*
X006584Y015437D01*
X006434Y015287D01*
X006434Y014937D01*
X006434Y014287D01*
X007084Y016687D02*
X006934Y016837D01*
X006434Y016837D01*
X006434Y017037D01*
X006434Y017637D01*
X006284Y017787D01*
X005584Y017787D02*
X005434Y017637D01*
X005434Y017037D01*
X008234Y017037D02*
X008234Y017637D01*
X008384Y017787D01*
X009084Y017787D02*
X009234Y017637D01*
X009234Y017037D01*
X009234Y016837D01*
X009734Y016837D01*
X009884Y016687D01*
X011034Y017037D02*
X011034Y017637D01*
X011184Y017787D01*
X011884Y017787D02*
X012034Y017637D01*
X012034Y017037D01*
X012034Y016837D01*
X012534Y016837D01*
X012684Y016687D01*
X013834Y017037D02*
X013834Y017637D01*
X013984Y017787D01*
X014684Y017787D02*
X014834Y017637D01*
X014834Y017037D01*
X014834Y016837D01*
X015334Y016837D01*
X015484Y016687D01*
X016634Y017037D02*
X016634Y017637D01*
X016784Y017787D01*
X017484Y017787D02*
X017634Y017637D01*
X017634Y017287D01*
X017634Y017037D01*
X017634Y016837D01*
X018134Y016837D01*
X018284Y016687D01*
X019434Y017037D02*
X019434Y017637D01*
X019584Y017787D01*
X020284Y017787D02*
X020434Y017637D01*
X020434Y017037D01*
X020434Y016837D01*
X020934Y016837D01*
X021084Y016687D01*
X021084Y015437D02*
X020434Y015437D01*
X021084Y015437D02*
X021084Y015287D01*
X018284Y015287D02*
X018284Y015437D01*
X015484Y015437D02*
X015484Y015287D01*
X013784Y018987D02*
X013784Y019687D01*
X011584Y019687D02*
X011584Y018987D01*
X003584Y013037D02*
X003034Y012487D01*
X003034Y011137D01*
X003584Y010587D01*
X006384Y008457D02*
X006384Y008087D01*
X006384Y005087D01*
X005484Y004187D01*
X005484Y002187D01*
X006234Y001437D01*
X008934Y001437D01*
X009234Y001737D01*
X009234Y002337D01*
X009884Y002987D01*
X009284Y003587D02*
X008684Y002987D01*
X007684Y002987D01*
X006684Y002987D01*
X005934Y002987D01*
X009284Y003587D02*
X009284Y006337D01*
X009784Y006837D01*
X009784Y006857D01*
D37*
X009784Y006857D03*
X008134Y006737D03*
X008134Y006137D03*
X007584Y005937D03*
X007584Y005437D03*
X006384Y008087D03*
X006384Y008457D03*
X007284Y009487D03*
X006134Y011087D03*
X005434Y011087D03*
X004684Y012187D03*
X004384Y012487D03*
X005984Y013687D03*
X007434Y013687D03*
X008834Y013687D03*
X009934Y012687D03*
X010234Y013687D03*
X011634Y013687D03*
X011734Y012487D03*
X012334Y012487D03*
X013034Y013687D03*
X014034Y012737D03*
X014434Y013687D03*
X015834Y013687D03*
X016934Y012987D03*
X017234Y013687D03*
X017934Y012987D03*
X015184Y012237D03*
X015484Y010637D03*
X015034Y010337D03*
X014434Y010137D03*
X014434Y010537D03*
X013284Y010637D03*
X013284Y010237D03*
X013284Y009837D03*
X012384Y009037D03*
X011984Y009037D03*
X011434Y009137D03*
X010434Y008537D03*
X012084Y011037D03*
X012484Y011037D03*
X012884Y011037D03*
X010584Y011587D03*
X008084Y012387D03*
X007334Y012087D03*
X007784Y016437D03*
X008234Y017037D03*
X008784Y016437D03*
X010584Y016437D03*
X011034Y017037D03*
X011584Y016437D03*
X013384Y016437D03*
X013834Y017037D03*
X014384Y016437D03*
X016184Y016437D03*
X016634Y017037D03*
X017184Y016437D03*
X018984Y016437D03*
X019434Y017037D03*
X019984Y016437D03*
X016534Y009087D03*
X015934Y008487D03*
X013934Y008337D03*
X013934Y006837D03*
X013534Y006837D03*
X015684Y004487D03*
X016334Y004487D03*
X005984Y016437D03*
X005434Y017037D03*
X004984Y016437D03*
D38*
X006384Y015887D02*
X006884Y015887D01*
X007234Y015887D01*
X009184Y015887D01*
X009684Y015887D01*
X010034Y015887D01*
X011984Y015887D01*
X012484Y015887D01*
X012834Y015887D01*
X014784Y015887D01*
X015284Y015887D01*
X015634Y015887D01*
X017584Y015887D01*
X018084Y015887D01*
X018434Y015887D01*
X020384Y015887D01*
X020884Y015887D01*
X021234Y015887D01*
X013784Y018987D02*
X011584Y018987D01*
X019384Y004437D02*
X019384Y003937D01*
X014284Y002987D02*
X013284Y002987D01*
X012084Y002987D01*
X011084Y002987D01*
X010484Y002987D01*
X009884Y002987D01*
D39*
X010484Y002987D02*
X010484Y004587D01*
X011284Y005387D01*
X010501Y006437D02*
X009884Y005820D01*
X009884Y005387D01*
X009884Y003987D01*
X007584Y005437D02*
X007284Y005737D01*
X007284Y006087D01*
X007384Y006187D01*
X007384Y007487D01*
X008134Y008237D01*
X010584Y008237D01*
X010934Y008587D01*
X010934Y009387D01*
X011184Y009637D01*
X011534Y009637D01*
X011634Y009737D01*
X012934Y009737D01*
X013134Y009537D01*
X013434Y009537D01*
X014434Y010537D01*
X014734Y010487D02*
X014884Y010637D01*
X015484Y010637D01*
X015034Y010337D02*
X015034Y010037D01*
X014234Y009237D01*
X014234Y008187D01*
X014084Y008037D01*
X012734Y008037D01*
X012684Y007987D01*
X012684Y008387D02*
X013884Y008387D01*
X013934Y008337D01*
X013634Y007537D02*
X015134Y006037D01*
X016484Y006037D01*
X017934Y004587D01*
X017934Y002887D01*
X018334Y002487D01*
X019034Y002487D01*
X019534Y001987D01*
X018534Y001987D02*
X017734Y002787D01*
X017734Y004487D01*
X016384Y005837D01*
X014934Y005837D01*
X013934Y006837D01*
X013534Y006837D02*
X014734Y005637D01*
X016284Y005637D01*
X017534Y004387D01*
X017534Y001987D01*
X012084Y006887D02*
X012008Y006811D01*
X011367Y006811D01*
X012084Y006887D02*
X012084Y007987D01*
X012384Y007687D02*
X012534Y007537D01*
X013634Y007537D01*
X012684Y008387D02*
X012684Y008487D01*
X012084Y008487D02*
X011984Y008487D01*
X011984Y009037D01*
X011834Y009337D02*
X011634Y009137D01*
X011434Y009137D01*
X011284Y009437D02*
X011134Y009287D01*
X011134Y008487D01*
X010684Y008037D01*
X008234Y008037D01*
X007584Y007387D01*
X007584Y005937D01*
X008234Y008537D02*
X007284Y009487D01*
X008134Y009987D02*
X005384Y009987D01*
X005234Y009837D01*
X005234Y009637D01*
X004884Y009287D01*
X004584Y009587D02*
X004884Y009887D01*
X004684Y010187D02*
X008234Y010187D01*
X008584Y009837D01*
X009784Y009837D01*
X009984Y010037D01*
X011334Y010037D01*
X011434Y010137D01*
X013184Y010137D01*
X013284Y010237D01*
X013184Y009937D02*
X011534Y009937D01*
X011434Y009837D01*
X010084Y009837D01*
X009884Y009637D01*
X008484Y009637D01*
X008134Y009987D01*
X008334Y010387D02*
X005384Y010387D01*
X004484Y011287D01*
X004484Y011937D01*
X004084Y012337D01*
X004084Y015537D01*
X003584Y016037D01*
X004084Y015837D02*
X004084Y016537D01*
X003584Y017037D01*
X004084Y015837D02*
X004284Y015637D01*
X004284Y012587D01*
X004384Y012487D01*
X004684Y012237D02*
X004684Y012187D01*
X004684Y011387D01*
X005484Y010587D01*
X008434Y010587D01*
X008784Y010237D01*
X009584Y010237D01*
X009784Y010437D01*
X011134Y010437D01*
X011234Y010537D01*
X012384Y010537D01*
X012884Y011037D01*
X012484Y011037D02*
X012184Y010737D01*
X011134Y010737D01*
X011034Y010637D01*
X009684Y010637D01*
X009484Y010437D01*
X008884Y010437D01*
X008534Y010787D01*
X005734Y010787D01*
X005434Y011087D01*
X006134Y011087D02*
X006234Y010987D01*
X008634Y010987D01*
X008984Y010637D01*
X009384Y010637D01*
X009584Y010837D01*
X010934Y010837D01*
X011034Y010937D01*
X011984Y010937D01*
X012084Y011037D01*
X011584Y011837D02*
X010834Y011837D01*
X010584Y011587D01*
X011584Y011837D02*
X011734Y011987D01*
X011734Y012487D02*
X011634Y012587D01*
X011634Y013187D01*
X013284Y010637D02*
X012984Y010337D01*
X011334Y010337D01*
X011234Y010237D01*
X009884Y010237D01*
X009684Y010037D01*
X008684Y010037D01*
X008334Y010387D01*
X008234Y008537D02*
X010434Y008537D01*
X011484Y008487D02*
X011984Y008487D01*
X012384Y009037D02*
X012384Y007687D01*
X012934Y009137D02*
X012734Y009337D01*
X011834Y009337D01*
X011634Y009437D02*
X011284Y009437D01*
X011634Y009437D02*
X011734Y009537D01*
X012834Y009537D01*
X013034Y009337D01*
X013634Y009337D01*
X014434Y010137D01*
X014734Y010037D02*
X014734Y010487D01*
X014734Y010037D02*
X013834Y009137D01*
X012934Y009137D01*
X013284Y009837D02*
X013184Y009937D01*
X015934Y008487D02*
X016534Y009087D01*
X004684Y010187D02*
X004384Y009887D01*
X004584Y009587D02*
X003584Y009587D01*
X004384Y009287D02*
X003684Y008587D01*
X003584Y008587D01*
D40*
X017384Y010287D02*
X017384Y006437D01*
X019384Y004437D01*
D41*
X016334Y004487D02*
X015684Y004487D01*
X015684Y002137D01*
X015534Y001987D01*
X015684Y004487D02*
X015284Y004887D01*
X013184Y004887D01*
X011634Y006437D01*
X011134Y006437D01*
X010134Y007437D01*
X008834Y007437D01*
X008134Y006737D01*
X008134Y006137D01*
X016384Y011037D02*
X016734Y011387D01*
X017334Y011387D01*
X017708Y011013D01*
X018134Y011013D01*
X018134Y011761D02*
X018708Y011761D01*
X018784Y011837D01*
X018884Y011937D01*
X018984Y011937D01*
X019584Y011937D01*
X017284Y010863D02*
X017284Y010487D01*
X017384Y010387D01*
X017384Y010287D01*
X017284Y010863D02*
X017134Y011013D01*
X017034Y011013D01*
X017034Y011761D02*
X016408Y011761D01*
X016384Y011737D01*
M02*
