G75*
%MOIN*%
%OFA0B0*%
%FSLAX24Y24*%
%IPPOS*%
%LPD*%
%AMOC8*
5,1,8,0,0,1.08239X$1,22.5*
%
%ADD10C,0.0000*%
%ADD11C,0.1340*%
%ADD12R,0.0474X0.0592*%
%ADD13OC8,0.0912*%
%ADD14C,0.0395*%
%ADD15C,0.1227*%
%ADD16R,0.1227X0.1227*%
%ADD17C,0.0710*%
%ADD18R,0.0710X0.0710*%
%ADD19R,0.0356X0.0395*%
%ADD20R,0.0296X0.0335*%
%ADD21OC8,0.0753*%
%ADD22R,0.0592X0.0474*%
%ADD23R,0.0394X0.0512*%
%ADD24R,0.0512X0.0394*%
%ADD25C,0.0604*%
%ADD26R,0.0395X0.0356*%
%ADD27R,0.0580X0.0500*%
%ADD28R,0.0580X0.0060*%
%ADD29R,0.0335X0.0296*%
%ADD30R,0.0395X0.0297*%
%ADD31R,0.0513X0.0513*%
%ADD32R,0.0277X0.0631*%
%ADD33R,0.0395X0.0277*%
%ADD34R,0.0395X0.0197*%
%ADD35C,0.0434*%
D10*
X002834Y001872D02*
X002834Y019588D01*
X003189Y019588D02*
X003191Y019638D01*
X003197Y019688D01*
X003207Y019737D01*
X003221Y019785D01*
X003238Y019832D01*
X003259Y019877D01*
X003284Y019921D01*
X003312Y019962D01*
X003344Y020001D01*
X003378Y020038D01*
X003415Y020072D01*
X003455Y020102D01*
X003497Y020129D01*
X003541Y020153D01*
X003587Y020174D01*
X003634Y020190D01*
X003682Y020203D01*
X003732Y020212D01*
X003781Y020217D01*
X003832Y020218D01*
X003882Y020215D01*
X003931Y020208D01*
X003980Y020197D01*
X004028Y020182D01*
X004074Y020164D01*
X004119Y020142D01*
X004162Y020116D01*
X004203Y020087D01*
X004242Y020055D01*
X004278Y020020D01*
X004310Y019982D01*
X004340Y019942D01*
X004367Y019899D01*
X004390Y019855D01*
X004409Y019809D01*
X004425Y019761D01*
X004437Y019712D01*
X004445Y019663D01*
X004449Y019613D01*
X004449Y019563D01*
X004445Y019513D01*
X004437Y019464D01*
X004425Y019415D01*
X004409Y019367D01*
X004390Y019321D01*
X004367Y019277D01*
X004340Y019234D01*
X004310Y019194D01*
X004278Y019156D01*
X004242Y019121D01*
X004203Y019089D01*
X004162Y019060D01*
X004119Y019034D01*
X004074Y019012D01*
X004028Y018994D01*
X003980Y018979D01*
X003931Y018968D01*
X003882Y018961D01*
X003832Y018958D01*
X003781Y018959D01*
X003732Y018964D01*
X003682Y018973D01*
X003634Y018986D01*
X003587Y019002D01*
X003541Y019023D01*
X003497Y019047D01*
X003455Y019074D01*
X003415Y019104D01*
X003378Y019138D01*
X003344Y019175D01*
X003312Y019214D01*
X003284Y019255D01*
X003259Y019299D01*
X003238Y019344D01*
X003221Y019391D01*
X003207Y019439D01*
X003197Y019488D01*
X003191Y019538D01*
X003189Y019588D01*
X002835Y019588D02*
X002837Y019650D01*
X002843Y019711D01*
X002852Y019772D01*
X002866Y019833D01*
X002883Y019892D01*
X002904Y019950D01*
X002929Y020007D01*
X002957Y020062D01*
X002988Y020115D01*
X003023Y020166D01*
X003061Y020215D01*
X003102Y020262D01*
X003145Y020305D01*
X003192Y020346D01*
X003241Y020384D01*
X003292Y020419D01*
X003345Y020450D01*
X003400Y020478D01*
X003457Y020503D01*
X003515Y020524D01*
X003574Y020541D01*
X003635Y020555D01*
X003696Y020564D01*
X003757Y020570D01*
X003819Y020572D01*
X021535Y020572D01*
X020905Y019588D02*
X020907Y019638D01*
X020913Y019688D01*
X020923Y019737D01*
X020937Y019785D01*
X020954Y019832D01*
X020975Y019877D01*
X021000Y019921D01*
X021028Y019962D01*
X021060Y020001D01*
X021094Y020038D01*
X021131Y020072D01*
X021171Y020102D01*
X021213Y020129D01*
X021257Y020153D01*
X021303Y020174D01*
X021350Y020190D01*
X021398Y020203D01*
X021448Y020212D01*
X021497Y020217D01*
X021548Y020218D01*
X021598Y020215D01*
X021647Y020208D01*
X021696Y020197D01*
X021744Y020182D01*
X021790Y020164D01*
X021835Y020142D01*
X021878Y020116D01*
X021919Y020087D01*
X021958Y020055D01*
X021994Y020020D01*
X022026Y019982D01*
X022056Y019942D01*
X022083Y019899D01*
X022106Y019855D01*
X022125Y019809D01*
X022141Y019761D01*
X022153Y019712D01*
X022161Y019663D01*
X022165Y019613D01*
X022165Y019563D01*
X022161Y019513D01*
X022153Y019464D01*
X022141Y019415D01*
X022125Y019367D01*
X022106Y019321D01*
X022083Y019277D01*
X022056Y019234D01*
X022026Y019194D01*
X021994Y019156D01*
X021958Y019121D01*
X021919Y019089D01*
X021878Y019060D01*
X021835Y019034D01*
X021790Y019012D01*
X021744Y018994D01*
X021696Y018979D01*
X021647Y018968D01*
X021598Y018961D01*
X021548Y018958D01*
X021497Y018959D01*
X021448Y018964D01*
X021398Y018973D01*
X021350Y018986D01*
X021303Y019002D01*
X021257Y019023D01*
X021213Y019047D01*
X021171Y019074D01*
X021131Y019104D01*
X021094Y019138D01*
X021060Y019175D01*
X021028Y019214D01*
X021000Y019255D01*
X020975Y019299D01*
X020954Y019344D01*
X020937Y019391D01*
X020923Y019439D01*
X020913Y019488D01*
X020907Y019538D01*
X020905Y019588D01*
X021535Y020572D02*
X021597Y020570D01*
X021658Y020564D01*
X021719Y020555D01*
X021780Y020541D01*
X021839Y020524D01*
X021897Y020503D01*
X021954Y020478D01*
X022009Y020450D01*
X022062Y020419D01*
X022113Y020384D01*
X022162Y020346D01*
X022209Y020305D01*
X022252Y020262D01*
X022293Y020215D01*
X022331Y020166D01*
X022366Y020115D01*
X022397Y020062D01*
X022425Y020007D01*
X022450Y019950D01*
X022471Y019892D01*
X022488Y019833D01*
X022502Y019772D01*
X022511Y019711D01*
X022517Y019650D01*
X022519Y019588D01*
X022519Y001872D01*
X020905Y001872D02*
X020907Y001922D01*
X020913Y001972D01*
X020923Y002021D01*
X020937Y002069D01*
X020954Y002116D01*
X020975Y002161D01*
X021000Y002205D01*
X021028Y002246D01*
X021060Y002285D01*
X021094Y002322D01*
X021131Y002356D01*
X021171Y002386D01*
X021213Y002413D01*
X021257Y002437D01*
X021303Y002458D01*
X021350Y002474D01*
X021398Y002487D01*
X021448Y002496D01*
X021497Y002501D01*
X021548Y002502D01*
X021598Y002499D01*
X021647Y002492D01*
X021696Y002481D01*
X021744Y002466D01*
X021790Y002448D01*
X021835Y002426D01*
X021878Y002400D01*
X021919Y002371D01*
X021958Y002339D01*
X021994Y002304D01*
X022026Y002266D01*
X022056Y002226D01*
X022083Y002183D01*
X022106Y002139D01*
X022125Y002093D01*
X022141Y002045D01*
X022153Y001996D01*
X022161Y001947D01*
X022165Y001897D01*
X022165Y001847D01*
X022161Y001797D01*
X022153Y001748D01*
X022141Y001699D01*
X022125Y001651D01*
X022106Y001605D01*
X022083Y001561D01*
X022056Y001518D01*
X022026Y001478D01*
X021994Y001440D01*
X021958Y001405D01*
X021919Y001373D01*
X021878Y001344D01*
X021835Y001318D01*
X021790Y001296D01*
X021744Y001278D01*
X021696Y001263D01*
X021647Y001252D01*
X021598Y001245D01*
X021548Y001242D01*
X021497Y001243D01*
X021448Y001248D01*
X021398Y001257D01*
X021350Y001270D01*
X021303Y001286D01*
X021257Y001307D01*
X021213Y001331D01*
X021171Y001358D01*
X021131Y001388D01*
X021094Y001422D01*
X021060Y001459D01*
X021028Y001498D01*
X021000Y001539D01*
X020975Y001583D01*
X020954Y001628D01*
X020937Y001675D01*
X020923Y001723D01*
X020913Y001772D01*
X020907Y001822D01*
X020905Y001872D01*
X021535Y000888D02*
X021597Y000890D01*
X021658Y000896D01*
X021719Y000905D01*
X021780Y000919D01*
X021839Y000936D01*
X021897Y000957D01*
X021954Y000982D01*
X022009Y001010D01*
X022062Y001041D01*
X022113Y001076D01*
X022162Y001114D01*
X022209Y001155D01*
X022252Y001198D01*
X022293Y001245D01*
X022331Y001294D01*
X022366Y001345D01*
X022397Y001398D01*
X022425Y001453D01*
X022450Y001510D01*
X022471Y001568D01*
X022488Y001627D01*
X022502Y001688D01*
X022511Y001749D01*
X022517Y001810D01*
X022519Y001872D01*
X021535Y000887D02*
X003819Y000887D01*
X003189Y001872D02*
X003191Y001922D01*
X003197Y001972D01*
X003207Y002021D01*
X003221Y002069D01*
X003238Y002116D01*
X003259Y002161D01*
X003284Y002205D01*
X003312Y002246D01*
X003344Y002285D01*
X003378Y002322D01*
X003415Y002356D01*
X003455Y002386D01*
X003497Y002413D01*
X003541Y002437D01*
X003587Y002458D01*
X003634Y002474D01*
X003682Y002487D01*
X003732Y002496D01*
X003781Y002501D01*
X003832Y002502D01*
X003882Y002499D01*
X003931Y002492D01*
X003980Y002481D01*
X004028Y002466D01*
X004074Y002448D01*
X004119Y002426D01*
X004162Y002400D01*
X004203Y002371D01*
X004242Y002339D01*
X004278Y002304D01*
X004310Y002266D01*
X004340Y002226D01*
X004367Y002183D01*
X004390Y002139D01*
X004409Y002093D01*
X004425Y002045D01*
X004437Y001996D01*
X004445Y001947D01*
X004449Y001897D01*
X004449Y001847D01*
X004445Y001797D01*
X004437Y001748D01*
X004425Y001699D01*
X004409Y001651D01*
X004390Y001605D01*
X004367Y001561D01*
X004340Y001518D01*
X004310Y001478D01*
X004278Y001440D01*
X004242Y001405D01*
X004203Y001373D01*
X004162Y001344D01*
X004119Y001318D01*
X004074Y001296D01*
X004028Y001278D01*
X003980Y001263D01*
X003931Y001252D01*
X003882Y001245D01*
X003832Y001242D01*
X003781Y001243D01*
X003732Y001248D01*
X003682Y001257D01*
X003634Y001270D01*
X003587Y001286D01*
X003541Y001307D01*
X003497Y001331D01*
X003455Y001358D01*
X003415Y001388D01*
X003378Y001422D01*
X003344Y001459D01*
X003312Y001498D01*
X003284Y001539D01*
X003259Y001583D01*
X003238Y001628D01*
X003221Y001675D01*
X003207Y001723D01*
X003197Y001772D01*
X003191Y001822D01*
X003189Y001872D01*
X002835Y001872D02*
X002837Y001810D01*
X002843Y001749D01*
X002852Y001688D01*
X002866Y001627D01*
X002883Y001568D01*
X002904Y001510D01*
X002929Y001453D01*
X002957Y001398D01*
X002988Y001345D01*
X003023Y001294D01*
X003061Y001245D01*
X003102Y001198D01*
X003145Y001155D01*
X003192Y001114D01*
X003241Y001076D01*
X003292Y001041D01*
X003345Y001010D01*
X003400Y000982D01*
X003457Y000957D01*
X003515Y000936D01*
X003574Y000919D01*
X003635Y000905D01*
X003696Y000896D01*
X003757Y000890D01*
X003819Y000888D01*
X004427Y004671D02*
X004429Y004696D01*
X004435Y004720D01*
X004444Y004742D01*
X004457Y004763D01*
X004473Y004782D01*
X004492Y004798D01*
X004513Y004811D01*
X004535Y004820D01*
X004559Y004826D01*
X004584Y004828D01*
X004609Y004826D01*
X004633Y004820D01*
X004655Y004811D01*
X004676Y004798D01*
X004695Y004782D01*
X004711Y004763D01*
X004724Y004742D01*
X004733Y004720D01*
X004739Y004696D01*
X004741Y004671D01*
X004739Y004646D01*
X004733Y004622D01*
X004724Y004600D01*
X004711Y004579D01*
X004695Y004560D01*
X004676Y004544D01*
X004655Y004531D01*
X004633Y004522D01*
X004609Y004516D01*
X004584Y004514D01*
X004559Y004516D01*
X004535Y004522D01*
X004513Y004531D01*
X004492Y004544D01*
X004473Y004560D01*
X004457Y004579D01*
X004444Y004600D01*
X004435Y004622D01*
X004429Y004646D01*
X004427Y004671D01*
X004427Y006404D02*
X004429Y006429D01*
X004435Y006453D01*
X004444Y006475D01*
X004457Y006496D01*
X004473Y006515D01*
X004492Y006531D01*
X004513Y006544D01*
X004535Y006553D01*
X004559Y006559D01*
X004584Y006561D01*
X004609Y006559D01*
X004633Y006553D01*
X004655Y006544D01*
X004676Y006531D01*
X004695Y006515D01*
X004711Y006496D01*
X004724Y006475D01*
X004733Y006453D01*
X004739Y006429D01*
X004741Y006404D01*
X004739Y006379D01*
X004733Y006355D01*
X004724Y006333D01*
X004711Y006312D01*
X004695Y006293D01*
X004676Y006277D01*
X004655Y006264D01*
X004633Y006255D01*
X004609Y006249D01*
X004584Y006247D01*
X004559Y006249D01*
X004535Y006255D01*
X004513Y006264D01*
X004492Y006277D01*
X004473Y006293D01*
X004457Y006312D01*
X004444Y006333D01*
X004435Y006355D01*
X004429Y006379D01*
X004427Y006404D01*
D11*
X003819Y001872D03*
X021535Y001872D03*
X021535Y019588D03*
X003819Y019588D03*
D12*
X005584Y017787D03*
X006284Y017787D03*
X008384Y017787D03*
X009084Y017787D03*
X011184Y017787D03*
X011884Y017787D03*
X013984Y017787D03*
X014684Y017787D03*
X016784Y017787D03*
X017484Y017787D03*
X019584Y017787D03*
X020284Y017787D03*
X017384Y010287D03*
D13*
X017634Y019237D03*
X016634Y019237D03*
X018634Y019237D03*
X008734Y019237D03*
X007734Y019237D03*
X006734Y019237D03*
D14*
X004584Y006404D03*
X004584Y004671D03*
D15*
X021284Y012737D03*
D16*
X021284Y010737D03*
D17*
X014784Y018987D03*
X010584Y018987D03*
D18*
X011584Y018987D03*
X013784Y018987D03*
D19*
X013784Y019687D03*
X011584Y019687D03*
X012034Y014287D03*
X011634Y013187D03*
X009234Y014287D03*
X006434Y014287D03*
X005984Y013687D03*
X012084Y008487D03*
X012084Y007987D03*
X012684Y007987D03*
X012684Y008487D03*
X012084Y006887D03*
X014834Y014287D03*
X017634Y014287D03*
X020434Y014287D03*
D20*
X021034Y014287D03*
X018234Y014287D03*
X015434Y014287D03*
X012634Y014287D03*
X012234Y013187D03*
X009834Y014287D03*
X007034Y014287D03*
X005384Y013687D03*
X010984Y019687D03*
X014384Y019687D03*
X012684Y006887D03*
D21*
X012084Y003987D03*
X011084Y003987D03*
X009884Y003987D03*
X009884Y002987D03*
X011084Y002987D03*
X011084Y001987D03*
X012084Y001987D03*
X012084Y002987D03*
X013284Y002987D03*
X014284Y002987D03*
X014284Y001987D03*
X013284Y001987D03*
X015534Y001987D03*
X016534Y001987D03*
X017534Y001987D03*
X018534Y001987D03*
X019534Y001987D03*
X014284Y003987D03*
X013284Y003987D03*
X008684Y003987D03*
X007684Y003987D03*
X006684Y003987D03*
X006684Y002987D03*
X006684Y001987D03*
X007684Y001987D03*
X008684Y001987D03*
X008684Y002987D03*
X007684Y002987D03*
X003584Y008587D03*
X003584Y009587D03*
X003584Y010587D03*
X003584Y011587D03*
X003584Y013037D03*
X003584Y014037D03*
X003584Y015037D03*
X003584Y016037D03*
X003584Y017037D03*
D22*
X016384Y011737D03*
X016384Y011037D03*
X018784Y011837D03*
D23*
X018084Y010287D03*
D24*
X018784Y011137D03*
D25*
X009184Y011087D03*
X009184Y009187D03*
D26*
X011484Y008487D03*
X005934Y002987D03*
X004884Y009287D03*
X004384Y009287D03*
X004384Y009887D03*
X004884Y009887D03*
D27*
X011734Y011987D03*
X011734Y012487D03*
D28*
X011734Y012237D03*
D29*
X011484Y007887D03*
X005934Y002387D03*
D30*
X010501Y006437D03*
X011367Y006063D03*
X011367Y006811D03*
D31*
X011284Y005387D03*
X009884Y005387D03*
X019584Y010537D03*
X019584Y011937D03*
X018284Y015287D03*
X018284Y016687D03*
X021084Y016687D03*
X021084Y015287D03*
X015484Y015287D03*
X015484Y016687D03*
X012684Y016687D03*
X012684Y015287D03*
X009884Y015287D03*
X009884Y016687D03*
X007084Y016687D03*
X007084Y015287D03*
D32*
X006434Y014937D03*
X005934Y014937D03*
X005434Y014937D03*
X004934Y014937D03*
X004934Y017037D03*
X005434Y017037D03*
X005934Y017037D03*
X006434Y017037D03*
X007734Y017037D03*
X008234Y017037D03*
X008734Y017037D03*
X009234Y017037D03*
X010534Y017037D03*
X011034Y017037D03*
X011534Y017037D03*
X012034Y017037D03*
X013334Y017037D03*
X013834Y017037D03*
X014334Y017037D03*
X014834Y017037D03*
X016134Y017037D03*
X016634Y017037D03*
X017134Y017037D03*
X017634Y017037D03*
X018934Y017037D03*
X019434Y017037D03*
X019934Y017037D03*
X020434Y017037D03*
X020434Y014937D03*
X019934Y014937D03*
X019434Y014937D03*
X018934Y014937D03*
X017634Y014937D03*
X017134Y014937D03*
X016634Y014937D03*
X016134Y014937D03*
X014834Y014937D03*
X014334Y014937D03*
X013834Y014937D03*
X013334Y014937D03*
X012034Y014937D03*
X011534Y014937D03*
X011034Y014937D03*
X010534Y014937D03*
X009234Y014937D03*
X008734Y014937D03*
X008234Y014937D03*
X007734Y014937D03*
D33*
X017034Y011761D03*
X017034Y011013D03*
X018134Y011013D03*
X018134Y011761D03*
D34*
X018134Y011387D03*
D35*
X021884Y008687D03*
X021784Y007137D03*
X021134Y006437D03*
X020534Y005737D03*
X021784Y005737D03*
X020534Y007137D03*
X019384Y004437D03*
X019384Y003937D03*
X021884Y004187D03*
M02*
