G75*
%MOIN*%
%OFA0B0*%
%FSLAX24Y24*%
%IPPOS*%
%LPD*%
%AMOC8*
5,1,8,0,0,1.08239X$1,22.5*
%
%ADD10C,0.0000*%
%ADD11C,0.0060*%
%ADD12C,0.0320*%
%ADD13C,0.0110*%
%ADD14C,0.0080*%
%ADD15R,0.0300X0.0300*%
%ADD16C,0.0100*%
%ADD17C,0.0050*%
%ADD18C,0.0400*%
%ADD19C,0.0160*%
%ADD20C,0.0140*%
%ADD21R,0.0300X0.0340*%
%ADD22R,0.0250X0.1100*%
D10*
X002834Y001872D02*
X002834Y019588D01*
X003189Y019588D02*
X003191Y019638D01*
X003197Y019688D01*
X003207Y019737D01*
X003221Y019785D01*
X003238Y019832D01*
X003259Y019877D01*
X003284Y019921D01*
X003312Y019962D01*
X003344Y020001D01*
X003378Y020038D01*
X003415Y020072D01*
X003455Y020102D01*
X003497Y020129D01*
X003541Y020153D01*
X003587Y020174D01*
X003634Y020190D01*
X003682Y020203D01*
X003732Y020212D01*
X003781Y020217D01*
X003832Y020218D01*
X003882Y020215D01*
X003931Y020208D01*
X003980Y020197D01*
X004028Y020182D01*
X004074Y020164D01*
X004119Y020142D01*
X004162Y020116D01*
X004203Y020087D01*
X004242Y020055D01*
X004278Y020020D01*
X004310Y019982D01*
X004340Y019942D01*
X004367Y019899D01*
X004390Y019855D01*
X004409Y019809D01*
X004425Y019761D01*
X004437Y019712D01*
X004445Y019663D01*
X004449Y019613D01*
X004449Y019563D01*
X004445Y019513D01*
X004437Y019464D01*
X004425Y019415D01*
X004409Y019367D01*
X004390Y019321D01*
X004367Y019277D01*
X004340Y019234D01*
X004310Y019194D01*
X004278Y019156D01*
X004242Y019121D01*
X004203Y019089D01*
X004162Y019060D01*
X004119Y019034D01*
X004074Y019012D01*
X004028Y018994D01*
X003980Y018979D01*
X003931Y018968D01*
X003882Y018961D01*
X003832Y018958D01*
X003781Y018959D01*
X003732Y018964D01*
X003682Y018973D01*
X003634Y018986D01*
X003587Y019002D01*
X003541Y019023D01*
X003497Y019047D01*
X003455Y019074D01*
X003415Y019104D01*
X003378Y019138D01*
X003344Y019175D01*
X003312Y019214D01*
X003284Y019255D01*
X003259Y019299D01*
X003238Y019344D01*
X003221Y019391D01*
X003207Y019439D01*
X003197Y019488D01*
X003191Y019538D01*
X003189Y019588D01*
X002835Y019588D02*
X002837Y019650D01*
X002843Y019711D01*
X002852Y019772D01*
X002866Y019833D01*
X002883Y019892D01*
X002904Y019950D01*
X002929Y020007D01*
X002957Y020062D01*
X002988Y020115D01*
X003023Y020166D01*
X003061Y020215D01*
X003102Y020262D01*
X003145Y020305D01*
X003192Y020346D01*
X003241Y020384D01*
X003292Y020419D01*
X003345Y020450D01*
X003400Y020478D01*
X003457Y020503D01*
X003515Y020524D01*
X003574Y020541D01*
X003635Y020555D01*
X003696Y020564D01*
X003757Y020570D01*
X003819Y020572D01*
X021535Y020572D01*
X020905Y019588D02*
X020907Y019638D01*
X020913Y019688D01*
X020923Y019737D01*
X020937Y019785D01*
X020954Y019832D01*
X020975Y019877D01*
X021000Y019921D01*
X021028Y019962D01*
X021060Y020001D01*
X021094Y020038D01*
X021131Y020072D01*
X021171Y020102D01*
X021213Y020129D01*
X021257Y020153D01*
X021303Y020174D01*
X021350Y020190D01*
X021398Y020203D01*
X021448Y020212D01*
X021497Y020217D01*
X021548Y020218D01*
X021598Y020215D01*
X021647Y020208D01*
X021696Y020197D01*
X021744Y020182D01*
X021790Y020164D01*
X021835Y020142D01*
X021878Y020116D01*
X021919Y020087D01*
X021958Y020055D01*
X021994Y020020D01*
X022026Y019982D01*
X022056Y019942D01*
X022083Y019899D01*
X022106Y019855D01*
X022125Y019809D01*
X022141Y019761D01*
X022153Y019712D01*
X022161Y019663D01*
X022165Y019613D01*
X022165Y019563D01*
X022161Y019513D01*
X022153Y019464D01*
X022141Y019415D01*
X022125Y019367D01*
X022106Y019321D01*
X022083Y019277D01*
X022056Y019234D01*
X022026Y019194D01*
X021994Y019156D01*
X021958Y019121D01*
X021919Y019089D01*
X021878Y019060D01*
X021835Y019034D01*
X021790Y019012D01*
X021744Y018994D01*
X021696Y018979D01*
X021647Y018968D01*
X021598Y018961D01*
X021548Y018958D01*
X021497Y018959D01*
X021448Y018964D01*
X021398Y018973D01*
X021350Y018986D01*
X021303Y019002D01*
X021257Y019023D01*
X021213Y019047D01*
X021171Y019074D01*
X021131Y019104D01*
X021094Y019138D01*
X021060Y019175D01*
X021028Y019214D01*
X021000Y019255D01*
X020975Y019299D01*
X020954Y019344D01*
X020937Y019391D01*
X020923Y019439D01*
X020913Y019488D01*
X020907Y019538D01*
X020905Y019588D01*
X021535Y020572D02*
X021597Y020570D01*
X021658Y020564D01*
X021719Y020555D01*
X021780Y020541D01*
X021839Y020524D01*
X021897Y020503D01*
X021954Y020478D01*
X022009Y020450D01*
X022062Y020419D01*
X022113Y020384D01*
X022162Y020346D01*
X022209Y020305D01*
X022252Y020262D01*
X022293Y020215D01*
X022331Y020166D01*
X022366Y020115D01*
X022397Y020062D01*
X022425Y020007D01*
X022450Y019950D01*
X022471Y019892D01*
X022488Y019833D01*
X022502Y019772D01*
X022511Y019711D01*
X022517Y019650D01*
X022519Y019588D01*
X022519Y001872D01*
X020905Y001872D02*
X020907Y001922D01*
X020913Y001972D01*
X020923Y002021D01*
X020937Y002069D01*
X020954Y002116D01*
X020975Y002161D01*
X021000Y002205D01*
X021028Y002246D01*
X021060Y002285D01*
X021094Y002322D01*
X021131Y002356D01*
X021171Y002386D01*
X021213Y002413D01*
X021257Y002437D01*
X021303Y002458D01*
X021350Y002474D01*
X021398Y002487D01*
X021448Y002496D01*
X021497Y002501D01*
X021548Y002502D01*
X021598Y002499D01*
X021647Y002492D01*
X021696Y002481D01*
X021744Y002466D01*
X021790Y002448D01*
X021835Y002426D01*
X021878Y002400D01*
X021919Y002371D01*
X021958Y002339D01*
X021994Y002304D01*
X022026Y002266D01*
X022056Y002226D01*
X022083Y002183D01*
X022106Y002139D01*
X022125Y002093D01*
X022141Y002045D01*
X022153Y001996D01*
X022161Y001947D01*
X022165Y001897D01*
X022165Y001847D01*
X022161Y001797D01*
X022153Y001748D01*
X022141Y001699D01*
X022125Y001651D01*
X022106Y001605D01*
X022083Y001561D01*
X022056Y001518D01*
X022026Y001478D01*
X021994Y001440D01*
X021958Y001405D01*
X021919Y001373D01*
X021878Y001344D01*
X021835Y001318D01*
X021790Y001296D01*
X021744Y001278D01*
X021696Y001263D01*
X021647Y001252D01*
X021598Y001245D01*
X021548Y001242D01*
X021497Y001243D01*
X021448Y001248D01*
X021398Y001257D01*
X021350Y001270D01*
X021303Y001286D01*
X021257Y001307D01*
X021213Y001331D01*
X021171Y001358D01*
X021131Y001388D01*
X021094Y001422D01*
X021060Y001459D01*
X021028Y001498D01*
X021000Y001539D01*
X020975Y001583D01*
X020954Y001628D01*
X020937Y001675D01*
X020923Y001723D01*
X020913Y001772D01*
X020907Y001822D01*
X020905Y001872D01*
X021535Y000888D02*
X021597Y000890D01*
X021658Y000896D01*
X021719Y000905D01*
X021780Y000919D01*
X021839Y000936D01*
X021897Y000957D01*
X021954Y000982D01*
X022009Y001010D01*
X022062Y001041D01*
X022113Y001076D01*
X022162Y001114D01*
X022209Y001155D01*
X022252Y001198D01*
X022293Y001245D01*
X022331Y001294D01*
X022366Y001345D01*
X022397Y001398D01*
X022425Y001453D01*
X022450Y001510D01*
X022471Y001568D01*
X022488Y001627D01*
X022502Y001688D01*
X022511Y001749D01*
X022517Y001810D01*
X022519Y001872D01*
X021535Y000887D02*
X003819Y000887D01*
X003189Y001872D02*
X003191Y001922D01*
X003197Y001972D01*
X003207Y002021D01*
X003221Y002069D01*
X003238Y002116D01*
X003259Y002161D01*
X003284Y002205D01*
X003312Y002246D01*
X003344Y002285D01*
X003378Y002322D01*
X003415Y002356D01*
X003455Y002386D01*
X003497Y002413D01*
X003541Y002437D01*
X003587Y002458D01*
X003634Y002474D01*
X003682Y002487D01*
X003732Y002496D01*
X003781Y002501D01*
X003832Y002502D01*
X003882Y002499D01*
X003931Y002492D01*
X003980Y002481D01*
X004028Y002466D01*
X004074Y002448D01*
X004119Y002426D01*
X004162Y002400D01*
X004203Y002371D01*
X004242Y002339D01*
X004278Y002304D01*
X004310Y002266D01*
X004340Y002226D01*
X004367Y002183D01*
X004390Y002139D01*
X004409Y002093D01*
X004425Y002045D01*
X004437Y001996D01*
X004445Y001947D01*
X004449Y001897D01*
X004449Y001847D01*
X004445Y001797D01*
X004437Y001748D01*
X004425Y001699D01*
X004409Y001651D01*
X004390Y001605D01*
X004367Y001561D01*
X004340Y001518D01*
X004310Y001478D01*
X004278Y001440D01*
X004242Y001405D01*
X004203Y001373D01*
X004162Y001344D01*
X004119Y001318D01*
X004074Y001296D01*
X004028Y001278D01*
X003980Y001263D01*
X003931Y001252D01*
X003882Y001245D01*
X003832Y001242D01*
X003781Y001243D01*
X003732Y001248D01*
X003682Y001257D01*
X003634Y001270D01*
X003587Y001286D01*
X003541Y001307D01*
X003497Y001331D01*
X003455Y001358D01*
X003415Y001388D01*
X003378Y001422D01*
X003344Y001459D01*
X003312Y001498D01*
X003284Y001539D01*
X003259Y001583D01*
X003238Y001628D01*
X003221Y001675D01*
X003207Y001723D01*
X003197Y001772D01*
X003191Y001822D01*
X003189Y001872D01*
X002835Y001872D02*
X002837Y001810D01*
X002843Y001749D01*
X002852Y001688D01*
X002866Y001627D01*
X002883Y001568D01*
X002904Y001510D01*
X002929Y001453D01*
X002957Y001398D01*
X002988Y001345D01*
X003023Y001294D01*
X003061Y001245D01*
X003102Y001198D01*
X003145Y001155D01*
X003192Y001114D01*
X003241Y001076D01*
X003292Y001041D01*
X003345Y001010D01*
X003400Y000982D01*
X003457Y000957D01*
X003515Y000936D01*
X003574Y000919D01*
X003635Y000905D01*
X003696Y000896D01*
X003757Y000890D01*
X003819Y000888D01*
X004427Y004371D02*
X004429Y004396D01*
X004435Y004420D01*
X004444Y004442D01*
X004457Y004463D01*
X004473Y004482D01*
X004492Y004498D01*
X004513Y004511D01*
X004535Y004520D01*
X004559Y004526D01*
X004584Y004528D01*
X004609Y004526D01*
X004633Y004520D01*
X004655Y004511D01*
X004676Y004498D01*
X004695Y004482D01*
X004711Y004463D01*
X004724Y004442D01*
X004733Y004420D01*
X004739Y004396D01*
X004741Y004371D01*
X004739Y004346D01*
X004733Y004322D01*
X004724Y004300D01*
X004711Y004279D01*
X004695Y004260D01*
X004676Y004244D01*
X004655Y004231D01*
X004633Y004222D01*
X004609Y004216D01*
X004584Y004214D01*
X004559Y004216D01*
X004535Y004222D01*
X004513Y004231D01*
X004492Y004244D01*
X004473Y004260D01*
X004457Y004279D01*
X004444Y004300D01*
X004435Y004322D01*
X004429Y004346D01*
X004427Y004371D01*
X004427Y006104D02*
X004429Y006129D01*
X004435Y006153D01*
X004444Y006175D01*
X004457Y006196D01*
X004473Y006215D01*
X004492Y006231D01*
X004513Y006244D01*
X004535Y006253D01*
X004559Y006259D01*
X004584Y006261D01*
X004609Y006259D01*
X004633Y006253D01*
X004655Y006244D01*
X004676Y006231D01*
X004695Y006215D01*
X004711Y006196D01*
X004724Y006175D01*
X004733Y006153D01*
X004739Y006129D01*
X004741Y006104D01*
X004739Y006079D01*
X004733Y006055D01*
X004724Y006033D01*
X004711Y006012D01*
X004695Y005993D01*
X004676Y005977D01*
X004655Y005964D01*
X004633Y005955D01*
X004609Y005949D01*
X004584Y005947D01*
X004559Y005949D01*
X004535Y005955D01*
X004513Y005964D01*
X004492Y005977D01*
X004473Y005993D01*
X004457Y006012D01*
X004444Y006033D01*
X004435Y006055D01*
X004429Y006079D01*
X004427Y006104D01*
D11*
X004459Y006517D02*
X004632Y006691D01*
X004632Y006734D01*
X004589Y006778D01*
X004502Y006778D01*
X004459Y006734D01*
X004338Y006734D02*
X004294Y006778D01*
X004208Y006778D01*
X004164Y006734D01*
X004164Y006561D01*
X004208Y006517D01*
X004294Y006517D01*
X004338Y006561D01*
X004459Y006517D02*
X004632Y006517D01*
X004754Y006561D02*
X004797Y006517D01*
X004884Y006517D01*
X004927Y006561D01*
X004927Y006604D01*
X004884Y006648D01*
X004840Y006648D01*
X004884Y006648D02*
X004927Y006691D01*
X004927Y006734D01*
X004884Y006778D01*
X004797Y006778D01*
X004754Y006734D01*
X005625Y006370D02*
X005625Y006110D01*
X005798Y006110D01*
X005920Y006110D02*
X006093Y006110D01*
X006006Y006110D02*
X006006Y006370D01*
X005920Y006283D01*
X006254Y006337D02*
X006254Y006837D01*
X007314Y006837D01*
X007314Y006337D01*
X006254Y006337D01*
X007314Y006337D01*
X007314Y005837D01*
X006254Y005837D01*
X006254Y006337D01*
X006254Y005837D02*
X007314Y005837D01*
X007314Y005337D01*
X007314Y004837D01*
X006254Y004837D01*
X006254Y005337D01*
X007314Y005337D01*
X006254Y005337D01*
X006254Y005837D01*
X004977Y005684D02*
X004977Y005641D01*
X004934Y005598D01*
X004977Y005554D01*
X004977Y005511D01*
X004934Y005467D01*
X004847Y005467D01*
X004804Y005511D01*
X004890Y005598D02*
X004934Y005598D01*
X004977Y005684D02*
X004934Y005728D01*
X004847Y005728D01*
X004804Y005684D01*
X004682Y005684D02*
X004639Y005728D01*
X004552Y005728D01*
X004509Y005684D01*
X004388Y005684D02*
X004388Y005598D01*
X004344Y005554D01*
X004214Y005554D01*
X004214Y005467D02*
X004214Y005728D01*
X004344Y005728D01*
X004388Y005684D01*
X004301Y005554D02*
X004388Y005467D01*
X004509Y005467D02*
X004682Y005641D01*
X004682Y005684D01*
X004682Y005467D02*
X004509Y005467D01*
X004552Y005228D02*
X004509Y005184D01*
X004552Y005228D02*
X004639Y005228D01*
X004682Y005184D01*
X004682Y005141D01*
X004509Y004967D01*
X004682Y004967D01*
X004804Y005098D02*
X004977Y005098D01*
X004934Y005228D02*
X004934Y004967D01*
X004804Y005098D02*
X004934Y005228D01*
X004388Y005184D02*
X004388Y005098D01*
X004344Y005054D01*
X004214Y005054D01*
X004214Y004967D02*
X004214Y005228D01*
X004344Y005228D01*
X004388Y005184D01*
X004301Y005054D02*
X004388Y004967D01*
X006284Y004187D02*
X006284Y003687D01*
X006534Y003437D01*
X006284Y003187D01*
X006284Y002687D01*
X006534Y002437D01*
X006284Y002187D01*
X006284Y001687D01*
X006534Y001437D01*
X007034Y001437D01*
X007284Y001687D01*
X007284Y002187D01*
X007034Y002437D01*
X006534Y002437D01*
X006143Y002741D02*
X006100Y002697D01*
X006013Y002697D01*
X005970Y002741D01*
X006056Y002828D02*
X006100Y002828D01*
X006143Y002784D01*
X006143Y002741D01*
X006100Y002828D02*
X006143Y002871D01*
X006143Y002914D01*
X006100Y002958D01*
X006013Y002958D01*
X005970Y002914D01*
X005848Y002958D02*
X005848Y002784D01*
X005762Y002697D01*
X005675Y002784D01*
X005675Y002958D01*
X005554Y002914D02*
X005554Y002871D01*
X005510Y002828D01*
X005554Y002784D01*
X005554Y002741D01*
X005510Y002697D01*
X005424Y002697D01*
X005380Y002741D01*
X005467Y002828D02*
X005510Y002828D01*
X005554Y002914D02*
X005510Y002958D01*
X005424Y002958D01*
X005380Y002914D01*
X005259Y002828D02*
X005086Y002828D01*
X005172Y002914D02*
X005172Y002741D01*
X005424Y002058D02*
X005380Y002014D01*
X005380Y001841D01*
X005424Y001797D01*
X005510Y001797D01*
X005554Y001841D01*
X005554Y001928D01*
X005467Y001928D01*
X005554Y002014D02*
X005510Y002058D01*
X005424Y002058D01*
X005675Y002058D02*
X005848Y001797D01*
X005848Y002058D01*
X005970Y002058D02*
X005970Y001797D01*
X006100Y001797D01*
X006143Y001841D01*
X006143Y002014D01*
X006100Y002058D01*
X005970Y002058D01*
X005675Y002058D02*
X005675Y001797D01*
X006575Y001221D02*
X006575Y001047D01*
X006575Y001178D02*
X006748Y001178D01*
X006748Y001221D02*
X006748Y001047D01*
X006870Y001047D02*
X007043Y001047D01*
X006956Y001047D02*
X006956Y001308D01*
X006870Y001221D01*
X006748Y001221D02*
X006662Y001308D01*
X006575Y001221D01*
X007284Y001687D02*
X007284Y002187D01*
X007534Y002437D01*
X007284Y002687D01*
X007034Y002437D01*
X007284Y002687D02*
X007284Y003187D01*
X007034Y003437D01*
X006534Y003437D01*
X007034Y003437D02*
X007284Y003687D01*
X007284Y004187D01*
X007034Y004437D01*
X006534Y004437D01*
X006284Y004187D01*
X007284Y004187D02*
X007284Y003687D01*
X007534Y003437D01*
X007284Y003187D01*
X007284Y002687D01*
X007534Y002437D02*
X008034Y002437D01*
X008284Y002187D01*
X008534Y002437D01*
X008284Y002687D01*
X008284Y003187D01*
X008534Y003437D01*
X008284Y003687D01*
X008284Y004187D01*
X008534Y004437D01*
X009034Y004437D01*
X009284Y004187D01*
X009284Y003687D01*
X009034Y003437D01*
X009284Y003187D01*
X009284Y002687D01*
X009034Y002437D01*
X009284Y002187D01*
X009284Y001687D01*
X009034Y001437D01*
X008534Y001437D01*
X008284Y001687D01*
X008284Y002187D01*
X008284Y001687D01*
X008034Y001437D01*
X007534Y001437D01*
X007284Y001687D01*
X007662Y001308D02*
X007748Y001221D01*
X007748Y001047D01*
X007870Y001047D02*
X008043Y001221D01*
X008043Y001264D01*
X008000Y001308D01*
X007913Y001308D01*
X007870Y001264D01*
X007748Y001178D02*
X007575Y001178D01*
X007575Y001221D02*
X007662Y001308D01*
X007575Y001221D02*
X007575Y001047D01*
X007870Y001047D02*
X008043Y001047D01*
X008575Y001047D02*
X008575Y001221D01*
X008662Y001308D01*
X008748Y001221D01*
X008748Y001047D01*
X008870Y001091D02*
X008913Y001047D01*
X009000Y001047D01*
X009043Y001091D01*
X009043Y001134D01*
X009000Y001178D01*
X008956Y001178D01*
X009000Y001178D02*
X009043Y001221D01*
X009043Y001264D01*
X009000Y001308D01*
X008913Y001308D01*
X008870Y001264D01*
X008748Y001178D02*
X008575Y001178D01*
X009484Y001687D02*
X009484Y002187D01*
X009734Y002437D01*
X009484Y002687D01*
X009484Y003187D01*
X009734Y003437D01*
X009484Y003687D01*
X009484Y004187D01*
X009734Y004437D01*
X010234Y004437D01*
X010484Y004187D01*
X010484Y003687D01*
X010234Y003437D01*
X010484Y003187D01*
X010484Y002687D01*
X010234Y002437D01*
X010484Y002187D01*
X010484Y001687D01*
X010234Y001437D01*
X009734Y001437D01*
X009484Y001687D01*
X009679Y001308D02*
X009765Y001308D01*
X009722Y001308D02*
X009722Y001047D01*
X009679Y001047D02*
X009765Y001047D01*
X009875Y001047D02*
X009875Y001308D01*
X010048Y001047D01*
X010048Y001308D01*
X010170Y001221D02*
X010256Y001308D01*
X010256Y001047D01*
X010170Y001047D02*
X010343Y001047D01*
X010679Y001047D02*
X010765Y001047D01*
X010722Y001047D02*
X010722Y001308D01*
X010679Y001308D02*
X010765Y001308D01*
X010875Y001308D02*
X010875Y001047D01*
X011048Y001047D02*
X010875Y001308D01*
X011048Y001308D02*
X011048Y001047D01*
X011170Y001047D02*
X011343Y001221D01*
X011343Y001264D01*
X011300Y001308D01*
X011213Y001308D01*
X011170Y001264D01*
X011234Y001437D02*
X010734Y001437D01*
X010484Y001687D01*
X010484Y002187D01*
X010734Y002437D01*
X010484Y002687D01*
X010484Y003187D01*
X010734Y003437D01*
X010484Y003687D01*
X010484Y004187D01*
X010734Y004437D01*
X011234Y004437D01*
X011484Y004187D01*
X011484Y003687D01*
X011234Y003437D01*
X011484Y003187D01*
X011484Y002687D01*
X011234Y002437D01*
X011484Y002187D01*
X011484Y001687D01*
X011234Y001437D01*
X011170Y001047D02*
X011343Y001047D01*
X011879Y001047D02*
X011965Y001047D01*
X011922Y001047D02*
X011922Y001308D01*
X011879Y001308D02*
X011965Y001308D01*
X012075Y001308D02*
X012248Y001047D01*
X012248Y001308D01*
X012370Y001264D02*
X012413Y001308D01*
X012500Y001308D01*
X012543Y001264D01*
X012543Y001221D01*
X012500Y001178D01*
X012543Y001134D01*
X012543Y001091D01*
X012500Y001047D01*
X012413Y001047D01*
X012370Y001091D01*
X012456Y001178D02*
X012500Y001178D01*
X012434Y001437D02*
X011934Y001437D01*
X011684Y001687D01*
X011684Y002187D01*
X011934Y002437D01*
X011684Y002687D01*
X011684Y003187D01*
X011934Y003437D01*
X011684Y003687D01*
X011684Y004187D01*
X011934Y004437D01*
X012434Y004437D01*
X012684Y004187D01*
X012684Y003687D01*
X012434Y003437D01*
X012684Y003187D01*
X012684Y002687D01*
X012434Y002437D01*
X012684Y002187D01*
X012684Y001687D01*
X012434Y001437D01*
X012684Y001687D02*
X012684Y002187D01*
X012934Y002437D01*
X012684Y002687D01*
X012684Y003187D01*
X012934Y003437D01*
X012684Y003687D01*
X012684Y004187D01*
X012934Y004437D01*
X013434Y004437D01*
X013684Y004187D01*
X013684Y003687D01*
X013434Y003437D01*
X013684Y003187D01*
X013684Y002687D01*
X013434Y002437D01*
X013684Y002187D01*
X013684Y001687D01*
X013434Y001437D01*
X012934Y001437D01*
X012684Y001687D01*
X012879Y001308D02*
X012965Y001308D01*
X012922Y001308D02*
X012922Y001047D01*
X012879Y001047D02*
X012965Y001047D01*
X013075Y001047D02*
X013075Y001308D01*
X013248Y001047D01*
X013248Y001308D01*
X013370Y001178D02*
X013543Y001178D01*
X013500Y001308D02*
X013370Y001178D01*
X013500Y001308D02*
X013500Y001047D01*
X014284Y001219D02*
X014284Y001349D01*
X014327Y001392D01*
X014371Y001392D01*
X014414Y001349D01*
X014414Y001219D01*
X014544Y001219D02*
X014284Y001219D01*
X014414Y001349D02*
X014458Y001392D01*
X014501Y001392D01*
X014544Y001349D01*
X014544Y001219D01*
X014501Y001513D02*
X014544Y001557D01*
X014544Y001644D01*
X014501Y001687D01*
X014284Y001687D01*
X014284Y001808D02*
X014284Y001982D01*
X014327Y001982D01*
X014501Y001808D01*
X014544Y001808D01*
X014544Y001982D01*
X014544Y002103D02*
X014544Y002276D01*
X014544Y002103D02*
X014501Y002103D01*
X014327Y002276D01*
X014284Y002276D01*
X014284Y002103D01*
X014134Y002437D02*
X013884Y002687D01*
X013884Y003187D01*
X014134Y003437D01*
X013884Y003687D01*
X013884Y004187D01*
X014134Y004437D01*
X014634Y004437D01*
X014884Y004187D01*
X014884Y003687D01*
X014634Y003437D01*
X014884Y003187D01*
X014884Y002687D01*
X014634Y002437D01*
X014134Y002437D01*
X013434Y002437D02*
X012934Y002437D01*
X012434Y002437D02*
X011934Y002437D01*
X011234Y002437D02*
X010734Y002437D01*
X010234Y002437D02*
X009734Y002437D01*
X009034Y002437D02*
X008534Y002437D01*
X008284Y002687D02*
X008034Y002437D01*
X008284Y002687D02*
X008284Y003187D01*
X008034Y003437D01*
X007534Y003437D01*
X008034Y003437D02*
X008284Y003687D01*
X008284Y004187D01*
X008034Y004437D01*
X007534Y004437D01*
X007284Y004187D01*
X007780Y004691D02*
X007824Y004647D01*
X007910Y004647D01*
X007954Y004691D01*
X008075Y004691D02*
X008118Y004647D01*
X008205Y004647D01*
X008248Y004691D01*
X008248Y004734D01*
X008205Y004778D01*
X008162Y004778D01*
X008205Y004778D02*
X008248Y004821D01*
X008248Y004864D01*
X008205Y004908D01*
X008118Y004908D01*
X008075Y004864D01*
X007954Y004864D02*
X007910Y004908D01*
X007824Y004908D01*
X007780Y004864D01*
X007780Y004691D01*
X007884Y005057D02*
X007884Y006117D01*
X008384Y006117D01*
X008384Y005057D01*
X007884Y005057D01*
X008370Y004864D02*
X008370Y004821D01*
X008413Y004778D01*
X008500Y004778D01*
X008543Y004734D01*
X008543Y004691D01*
X008500Y004647D01*
X008413Y004647D01*
X008370Y004691D01*
X008370Y004734D01*
X008413Y004778D01*
X008500Y004778D02*
X008543Y004821D01*
X008543Y004864D01*
X008500Y004908D01*
X008413Y004908D01*
X008370Y004864D01*
X008954Y004887D02*
X008954Y005387D01*
X010014Y005387D01*
X010014Y004887D01*
X008954Y004887D01*
X008954Y005530D02*
X009515Y005530D01*
X009354Y005648D02*
X009354Y005735D01*
X009354Y005691D02*
X009094Y005691D01*
X009094Y005648D02*
X009094Y005735D01*
X009137Y005844D02*
X009094Y005888D01*
X009094Y005975D01*
X009137Y006018D01*
X009181Y006139D02*
X009094Y006226D01*
X009354Y006226D01*
X009354Y006139D02*
X009354Y006313D01*
X009311Y006434D02*
X009137Y006607D01*
X009311Y006607D01*
X009354Y006564D01*
X009354Y006477D01*
X009311Y006434D01*
X009137Y006434D01*
X009094Y006477D01*
X009094Y006564D01*
X009137Y006607D01*
X008954Y006745D02*
X009515Y006745D01*
X010014Y006887D02*
X008954Y006887D01*
X008954Y007387D01*
X010014Y007387D01*
X010014Y006887D01*
X010084Y007487D02*
X010784Y007487D01*
X010784Y006187D01*
X010084Y006187D01*
X010084Y007487D01*
X011144Y006487D02*
X011144Y006400D01*
X011187Y006357D01*
X011187Y006236D02*
X011144Y006192D01*
X011144Y006105D01*
X011187Y006062D01*
X011187Y005941D02*
X011274Y005941D01*
X011318Y005898D01*
X011318Y005767D01*
X011404Y005767D02*
X011144Y005767D01*
X011144Y005898D01*
X011187Y005941D01*
X011318Y005854D02*
X011404Y005941D01*
X011404Y006062D02*
X011231Y006236D01*
X011187Y006236D01*
X011404Y006236D02*
X011404Y006062D01*
X011404Y006357D02*
X011231Y006530D01*
X011187Y006530D01*
X011144Y006487D01*
X011404Y006530D02*
X011404Y006357D01*
X011794Y006443D02*
X012054Y006443D01*
X012054Y006357D02*
X012054Y006530D01*
X011881Y006357D02*
X011794Y006443D01*
X011837Y006236D02*
X011794Y006192D01*
X011794Y006105D01*
X011837Y006062D01*
X011837Y005941D02*
X011924Y005941D01*
X011968Y005898D01*
X011968Y005767D01*
X012054Y005767D02*
X011794Y005767D01*
X011794Y005898D01*
X011837Y005941D01*
X011968Y005854D02*
X012054Y005941D01*
X012054Y006062D02*
X011881Y006236D01*
X011837Y006236D01*
X012054Y006236D02*
X012054Y006062D01*
X012444Y006105D02*
X012487Y006062D01*
X012444Y006105D02*
X012444Y006192D01*
X012487Y006236D01*
X012531Y006236D01*
X012704Y006062D01*
X012704Y006236D01*
X012661Y006357D02*
X012487Y006530D01*
X012661Y006530D01*
X012704Y006487D01*
X012704Y006400D01*
X012661Y006357D01*
X012487Y006357D01*
X012444Y006400D01*
X012444Y006487D01*
X012487Y006530D01*
X012487Y005941D02*
X012574Y005941D01*
X012618Y005898D01*
X012618Y005767D01*
X012704Y005767D02*
X012444Y005767D01*
X012444Y005898D01*
X012487Y005941D01*
X012618Y005854D02*
X012704Y005941D01*
X013094Y005898D02*
X013094Y005767D01*
X013354Y005767D01*
X013268Y005767D02*
X013268Y005898D01*
X013224Y005941D01*
X013137Y005941D01*
X013094Y005898D01*
X013268Y005854D02*
X013354Y005941D01*
X013354Y006062D02*
X013354Y006236D01*
X013354Y006149D02*
X013094Y006149D01*
X013181Y006062D01*
X013530Y006141D02*
X013574Y006097D01*
X013660Y006097D01*
X013704Y006141D01*
X013825Y006097D02*
X013998Y006271D01*
X013998Y006314D01*
X013955Y006358D01*
X013868Y006358D01*
X013825Y006314D01*
X013704Y006314D02*
X013660Y006358D01*
X013574Y006358D01*
X013530Y006314D01*
X013530Y006141D01*
X013564Y005978D02*
X013694Y005978D01*
X013738Y005934D01*
X013738Y005848D01*
X013694Y005804D01*
X013564Y005804D01*
X013564Y005717D02*
X013564Y005978D01*
X013651Y005804D02*
X013738Y005717D01*
X013859Y005761D02*
X013902Y005717D01*
X013989Y005717D01*
X014032Y005761D01*
X014032Y005804D01*
X013989Y005848D01*
X013946Y005848D01*
X013989Y005848D02*
X014032Y005891D01*
X014032Y005934D01*
X013989Y005978D01*
X013902Y005978D01*
X013859Y005934D01*
X013825Y006097D02*
X013998Y006097D01*
X014120Y006141D02*
X014293Y006314D01*
X014293Y006141D01*
X014250Y006097D01*
X014163Y006097D01*
X014120Y006141D01*
X014120Y006314D01*
X014163Y006358D01*
X014250Y006358D01*
X014293Y006314D01*
X014284Y006457D02*
X014284Y007517D01*
X014784Y007517D01*
X014784Y006457D01*
X014284Y006457D01*
X013784Y006457D01*
X013784Y007517D01*
X014284Y007517D01*
X014284Y006457D01*
X014544Y006330D02*
X014587Y006243D01*
X014674Y006157D01*
X014674Y006287D01*
X014718Y006330D01*
X014761Y006330D01*
X014804Y006287D01*
X014804Y006200D01*
X014761Y006157D01*
X014674Y006157D01*
X014631Y006036D02*
X014587Y006036D01*
X014544Y005992D01*
X014544Y005905D01*
X014587Y005862D01*
X014587Y005741D02*
X014544Y005698D01*
X014544Y005611D01*
X014587Y005567D01*
X014761Y005567D01*
X014804Y005611D01*
X014804Y005698D01*
X014761Y005741D01*
X014804Y005862D02*
X014631Y006036D01*
X014804Y006036D02*
X014804Y005862D01*
X014954Y005887D02*
X014954Y006387D01*
X016014Y006387D01*
X016014Y005887D01*
X014954Y005887D01*
X015184Y005787D02*
X015884Y005787D01*
X015884Y004487D01*
X015184Y004487D01*
X015184Y005787D01*
X014837Y005330D02*
X015011Y005157D01*
X015054Y005157D01*
X015011Y005036D02*
X014968Y005036D01*
X014924Y004992D01*
X014924Y004949D01*
X014924Y004992D02*
X014881Y005036D01*
X014837Y005036D01*
X014794Y004992D01*
X014794Y004905D01*
X014837Y004862D01*
X014837Y004741D02*
X014794Y004698D01*
X014794Y004611D01*
X014837Y004567D01*
X015011Y004567D01*
X015054Y004611D01*
X015054Y004698D01*
X015011Y004741D01*
X015011Y004862D02*
X015054Y004905D01*
X015054Y004992D01*
X015011Y005036D01*
X014794Y005157D02*
X014794Y005330D01*
X014837Y005330D01*
X014327Y005761D02*
X014284Y005717D01*
X014197Y005717D01*
X014154Y005761D01*
X014327Y005934D01*
X014327Y005761D01*
X014327Y005934D02*
X014284Y005978D01*
X014197Y005978D01*
X014154Y005934D01*
X014154Y005761D01*
X014134Y005617D02*
X013634Y005617D01*
X013634Y004557D01*
X014134Y004557D01*
X014134Y005617D01*
X013484Y005617D02*
X012984Y005617D01*
X012984Y004557D01*
X013484Y004557D01*
X013484Y005617D01*
X012834Y005617D02*
X012334Y005617D01*
X012334Y004557D01*
X012834Y004557D01*
X012834Y005617D01*
X012184Y005617D02*
X011684Y005617D01*
X011684Y004557D01*
X012184Y004557D01*
X012184Y005617D01*
X011534Y005617D02*
X011034Y005617D01*
X011034Y004557D01*
X011534Y004557D01*
X011534Y005617D01*
X010893Y005797D02*
X010720Y005797D01*
X010893Y005971D01*
X010893Y006014D01*
X010850Y006058D01*
X010763Y006058D01*
X010720Y006014D01*
X010598Y005928D02*
X010425Y005928D01*
X010555Y006058D01*
X010555Y005797D01*
X010304Y005841D02*
X010260Y005797D01*
X010174Y005797D01*
X010130Y005841D01*
X010130Y006014D01*
X010174Y006058D01*
X010260Y006058D01*
X010304Y006014D01*
X010381Y005446D02*
X010207Y005446D01*
X010381Y005273D01*
X010424Y005316D01*
X010424Y005403D01*
X010381Y005446D01*
X010381Y005273D02*
X010207Y005273D01*
X010164Y005316D01*
X010164Y005403D01*
X010207Y005446D01*
X010294Y005152D02*
X010294Y004978D01*
X010164Y005108D01*
X010424Y005108D01*
X010381Y004857D02*
X010424Y004814D01*
X010424Y004727D01*
X010381Y004683D01*
X010207Y004683D01*
X010164Y004727D01*
X010164Y004814D01*
X010207Y004857D01*
X009311Y005844D02*
X009354Y005888D01*
X009354Y005975D01*
X009311Y006018D01*
X009311Y005844D02*
X009137Y005844D01*
X008384Y006137D02*
X007684Y006137D01*
X007684Y007437D01*
X008384Y007437D01*
X008384Y006137D01*
X008587Y006817D02*
X008761Y006817D01*
X008804Y006861D01*
X008804Y006948D01*
X008761Y006991D01*
X008674Y007112D02*
X008544Y007242D01*
X008804Y007242D01*
X008674Y007286D02*
X008674Y007112D01*
X008587Y006991D02*
X008544Y006948D01*
X008544Y006861D01*
X008587Y006817D01*
X008631Y007407D02*
X008544Y007493D01*
X008804Y007493D01*
X008804Y007407D02*
X008804Y007580D01*
X008527Y007661D02*
X008527Y007834D01*
X008484Y007878D01*
X008397Y007878D01*
X008354Y007834D01*
X008354Y007791D01*
X008397Y007748D01*
X008527Y007748D01*
X008527Y007661D02*
X008484Y007617D01*
X008397Y007617D01*
X008354Y007661D01*
X008232Y007661D02*
X008189Y007617D01*
X008102Y007617D01*
X008059Y007661D01*
X007938Y007661D02*
X007894Y007617D01*
X007808Y007617D01*
X007764Y007661D01*
X007764Y007834D01*
X007808Y007878D01*
X007894Y007878D01*
X007938Y007834D01*
X008059Y007834D02*
X008102Y007878D01*
X008189Y007878D01*
X008232Y007834D01*
X008232Y007791D01*
X008189Y007748D01*
X008232Y007704D01*
X008232Y007661D01*
X008189Y007748D02*
X008146Y007748D01*
X007494Y007727D02*
X007494Y008047D01*
X007274Y008047D01*
X007834Y008507D02*
X008334Y008507D01*
X008334Y009567D01*
X007834Y009567D01*
X007834Y008507D01*
X007661Y008667D02*
X007704Y008711D01*
X007704Y008798D01*
X007661Y008841D01*
X007704Y008962D02*
X007531Y009136D01*
X007487Y009136D01*
X007444Y009092D01*
X007444Y009005D01*
X007487Y008962D01*
X007487Y008841D02*
X007444Y008798D01*
X007444Y008711D01*
X007487Y008667D01*
X007661Y008667D01*
X007704Y008962D02*
X007704Y009136D01*
X007661Y009257D02*
X007704Y009300D01*
X007704Y009387D01*
X007661Y009430D01*
X007574Y009430D01*
X007531Y009387D01*
X007531Y009343D01*
X007574Y009257D01*
X007444Y009257D01*
X007444Y009430D01*
X007437Y009767D02*
X007611Y009767D01*
X007654Y009811D01*
X007654Y009898D01*
X007611Y009941D01*
X007654Y010062D02*
X007481Y010236D01*
X007437Y010236D01*
X007394Y010192D01*
X007394Y010105D01*
X007437Y010062D01*
X007437Y009941D02*
X007394Y009898D01*
X007394Y009811D01*
X007437Y009767D01*
X007654Y010062D02*
X007654Y010236D01*
X007524Y010357D02*
X007394Y010487D01*
X007654Y010487D01*
X007524Y010530D02*
X007524Y010357D01*
X007834Y010667D02*
X008334Y010667D01*
X008334Y009607D01*
X007834Y009607D01*
X007834Y010667D01*
X007474Y010983D02*
X007214Y010983D01*
X007214Y011114D01*
X007257Y011157D01*
X007344Y011157D01*
X007388Y011114D01*
X007388Y010983D01*
X007388Y011070D02*
X007474Y011157D01*
X007431Y011278D02*
X007474Y011321D01*
X007474Y011408D01*
X007431Y011452D01*
X007388Y011452D01*
X007344Y011408D01*
X007344Y011365D01*
X007344Y011408D02*
X007301Y011452D01*
X007257Y011452D01*
X007214Y011408D01*
X007214Y011321D01*
X007257Y011278D01*
X007074Y011321D02*
X007031Y011278D01*
X007074Y011321D02*
X007074Y011408D01*
X007031Y011452D01*
X006988Y011452D01*
X006944Y011408D01*
X006944Y011365D01*
X006944Y011408D02*
X006901Y011452D01*
X006857Y011452D01*
X006814Y011408D01*
X006814Y011321D01*
X006857Y011278D01*
X006857Y011157D02*
X006944Y011157D01*
X006988Y011114D01*
X006988Y010983D01*
X007074Y010983D02*
X006814Y010983D01*
X006814Y011114D01*
X006857Y011157D01*
X006988Y011070D02*
X007074Y011157D01*
X007074Y011573D02*
X007031Y011573D01*
X006857Y011746D01*
X006814Y011746D01*
X006814Y011573D01*
X007214Y011616D02*
X007214Y011703D01*
X007257Y011746D01*
X007301Y011746D01*
X007344Y011703D01*
X007344Y011616D01*
X007301Y011573D01*
X007257Y011573D01*
X007214Y011616D01*
X007344Y011616D02*
X007388Y011573D01*
X007431Y011573D01*
X007474Y011616D01*
X007474Y011703D01*
X007431Y011746D01*
X007388Y011746D01*
X007344Y011703D01*
X006684Y012017D02*
X006684Y010957D01*
X006184Y010957D01*
X006184Y012017D01*
X006684Y012017D01*
X005984Y012017D02*
X005984Y010957D01*
X005484Y010957D01*
X005484Y012017D01*
X005984Y012017D01*
X005284Y012017D02*
X005284Y010957D01*
X004784Y010957D01*
X004784Y012017D01*
X005284Y012017D01*
X004604Y011887D02*
X004561Y011930D01*
X004518Y011930D01*
X004474Y011887D01*
X004474Y011757D01*
X004561Y011757D01*
X004604Y011800D01*
X004604Y011887D01*
X004474Y011757D02*
X004387Y011843D01*
X004344Y011930D01*
X004084Y012037D02*
X004084Y012537D01*
X003834Y012787D01*
X003334Y012787D01*
X003084Y012537D01*
X003084Y012037D01*
X003334Y011787D01*
X003834Y011787D01*
X004084Y012037D01*
X003834Y011787D02*
X004084Y011537D01*
X004084Y011037D01*
X003834Y010787D01*
X004084Y010537D01*
X004084Y010037D01*
X003834Y009787D01*
X004084Y009537D01*
X004084Y009037D01*
X003834Y008787D01*
X004084Y008537D01*
X004084Y008037D01*
X003834Y007787D01*
X003334Y007787D01*
X003084Y008037D01*
X003084Y008537D01*
X003334Y008787D01*
X003084Y009037D01*
X003084Y009537D01*
X003334Y009787D01*
X003834Y009787D01*
X003334Y009787D02*
X003084Y010037D01*
X003084Y010537D01*
X003334Y010787D01*
X003084Y011037D01*
X003084Y011537D01*
X003334Y011787D01*
X003334Y010787D02*
X003834Y010787D01*
X004344Y011167D02*
X004344Y011298D01*
X004387Y011341D01*
X004474Y011341D01*
X004518Y011298D01*
X004518Y011167D01*
X004604Y011167D02*
X004344Y011167D01*
X004518Y011254D02*
X004604Y011341D01*
X004561Y011462D02*
X004604Y011505D01*
X004604Y011592D01*
X004561Y011636D01*
X004518Y011636D01*
X004474Y011592D01*
X004474Y011549D01*
X004474Y011592D02*
X004431Y011636D01*
X004387Y011636D01*
X004344Y011592D01*
X004344Y011505D01*
X004387Y011462D01*
X004054Y012917D02*
X003794Y012917D01*
X003794Y013048D01*
X003837Y013091D01*
X003924Y013091D01*
X003968Y013048D01*
X003968Y012917D01*
X003968Y013004D02*
X004054Y013091D01*
X004054Y013212D02*
X003881Y013386D01*
X003837Y013386D01*
X003794Y013342D01*
X003794Y013255D01*
X003837Y013212D01*
X004054Y013212D02*
X004054Y013386D01*
X004234Y012957D02*
X004734Y012957D01*
X004734Y014017D01*
X004234Y014017D01*
X004234Y012957D01*
X004844Y012967D02*
X004844Y013098D01*
X004887Y013141D01*
X004974Y013141D01*
X005018Y013098D01*
X005018Y012967D01*
X005104Y012967D02*
X004844Y012967D01*
X005018Y013054D02*
X005104Y013141D01*
X005104Y013262D02*
X005104Y013436D01*
X005104Y013349D02*
X004844Y013349D01*
X004931Y013262D01*
X005234Y012957D02*
X005734Y012957D01*
X005734Y014017D01*
X005234Y014017D01*
X005234Y012957D01*
X005844Y012967D02*
X005844Y013098D01*
X005887Y013141D01*
X005974Y013141D01*
X006018Y013098D01*
X006018Y012967D01*
X006104Y012967D02*
X005844Y012967D01*
X006018Y013054D02*
X006104Y013141D01*
X005974Y013262D02*
X005974Y013436D01*
X005844Y013392D02*
X005974Y013262D01*
X006104Y013392D02*
X005844Y013392D01*
X006234Y012957D02*
X006734Y012957D01*
X006734Y014017D01*
X006234Y014017D01*
X006234Y012957D01*
X006844Y012967D02*
X006844Y013098D01*
X006887Y013141D01*
X006974Y013141D01*
X007018Y013098D01*
X007018Y012967D01*
X007104Y012967D02*
X006844Y012967D01*
X007018Y013054D02*
X007104Y013141D01*
X007061Y013262D02*
X007104Y013305D01*
X007104Y013392D01*
X007061Y013436D01*
X007018Y013436D01*
X006974Y013392D01*
X006974Y013349D01*
X006974Y013392D02*
X006931Y013436D01*
X006887Y013436D01*
X006844Y013392D01*
X006844Y013305D01*
X006887Y013262D01*
X007234Y012957D02*
X007734Y012957D01*
X007734Y014017D01*
X007234Y014017D01*
X007234Y012957D01*
X007844Y012967D02*
X007844Y013098D01*
X007887Y013141D01*
X007974Y013141D01*
X008018Y013098D01*
X008018Y012967D01*
X008104Y012967D02*
X007844Y012967D01*
X008018Y013054D02*
X008104Y013141D01*
X008061Y013262D02*
X008104Y013305D01*
X008104Y013392D01*
X008061Y013436D01*
X008018Y013436D01*
X007974Y013392D01*
X007974Y013262D01*
X008061Y013262D01*
X007974Y013262D02*
X007887Y013349D01*
X007844Y013436D01*
X008234Y012957D02*
X008734Y012957D01*
X008734Y014017D01*
X008234Y014017D01*
X008234Y012957D01*
X008844Y012967D02*
X008844Y013098D01*
X008887Y013141D01*
X008974Y013141D01*
X009018Y013098D01*
X009018Y012967D01*
X009104Y012967D02*
X008844Y012967D01*
X009018Y013054D02*
X009104Y013141D01*
X009061Y013262D02*
X009104Y013305D01*
X009104Y013392D01*
X009061Y013436D01*
X008974Y013436D01*
X008931Y013392D01*
X008931Y013349D01*
X008974Y013262D01*
X008844Y013262D01*
X008844Y013436D01*
X009234Y012957D02*
X009734Y012957D01*
X009734Y014017D01*
X009234Y014017D01*
X009234Y012957D01*
X009844Y012917D02*
X009844Y013048D01*
X009887Y013091D01*
X009974Y013091D01*
X010018Y013048D01*
X010018Y012917D01*
X010104Y012917D02*
X009844Y012917D01*
X010018Y013004D02*
X010104Y013091D01*
X010061Y013212D02*
X010018Y013212D01*
X009974Y013255D01*
X009974Y013342D01*
X010018Y013386D01*
X010061Y013386D01*
X010104Y013342D01*
X010104Y013255D01*
X010061Y013212D01*
X009974Y013255D02*
X009931Y013212D01*
X009887Y013212D01*
X009844Y013255D01*
X009844Y013342D01*
X009887Y013386D01*
X009931Y013386D01*
X009974Y013342D01*
X010234Y012957D02*
X010734Y012957D01*
X010734Y014017D01*
X010234Y014017D01*
X010234Y012957D01*
X010844Y012998D02*
X010844Y012867D01*
X011104Y012867D01*
X011018Y012867D02*
X011018Y012998D01*
X010974Y013041D01*
X010887Y013041D01*
X010844Y012998D01*
X010844Y013162D02*
X010844Y013336D01*
X010887Y013336D01*
X011061Y013162D01*
X011104Y013162D01*
X011104Y013041D02*
X011018Y012954D01*
X011234Y012957D02*
X011734Y012957D01*
X011734Y014017D01*
X011234Y014017D01*
X011234Y012957D01*
X011844Y012967D02*
X011844Y013098D01*
X011887Y013141D01*
X011974Y013141D01*
X012018Y013098D01*
X012018Y012967D01*
X012104Y012967D02*
X011844Y012967D01*
X012018Y013054D02*
X012104Y013141D01*
X012104Y013262D02*
X012104Y013436D01*
X012104Y013349D02*
X011844Y013349D01*
X011931Y013262D01*
X011887Y013557D02*
X011844Y013600D01*
X011844Y013687D01*
X011887Y013730D01*
X012061Y013557D01*
X012104Y013600D01*
X012104Y013687D01*
X012061Y013730D01*
X011887Y013730D01*
X011887Y013557D02*
X012061Y013557D01*
X012234Y014017D02*
X012234Y012957D01*
X012734Y012957D01*
X012734Y014017D01*
X012234Y014017D01*
X012844Y013392D02*
X012844Y013305D01*
X012887Y013262D01*
X012931Y013262D01*
X012974Y013305D01*
X012974Y013436D01*
X012887Y013436D02*
X012844Y013392D01*
X012887Y013436D02*
X013061Y013436D01*
X013104Y013392D01*
X013104Y013305D01*
X013061Y013262D01*
X013104Y013141D02*
X013018Y013054D01*
X013018Y013098D02*
X013018Y012967D01*
X013104Y012967D02*
X012844Y012967D01*
X012844Y013098D01*
X012887Y013141D01*
X012974Y013141D01*
X013018Y013098D01*
X013234Y012957D02*
X013734Y012957D01*
X013734Y014017D01*
X013234Y014017D01*
X013234Y012957D01*
X013774Y012507D02*
X013914Y012647D01*
X014104Y012517D01*
X014094Y012477D02*
X014294Y012577D01*
X014344Y012777D01*
X014494Y012777D01*
X014544Y012577D01*
X014744Y012477D01*
X014944Y012627D01*
X015044Y012527D01*
X014944Y012327D01*
X015044Y012077D01*
X015244Y012077D01*
X015244Y011927D01*
X014994Y011877D01*
X014944Y011627D01*
X015044Y011477D01*
X014944Y011377D01*
X014794Y011477D01*
X014694Y011427D01*
X014594Y011727D01*
X014744Y011927D01*
X014694Y012177D01*
X014494Y012277D01*
X014294Y012277D01*
X014144Y012127D01*
X014144Y011827D01*
X014294Y011727D01*
X014144Y011477D01*
X014094Y011477D01*
X013944Y011377D01*
X013844Y011477D01*
X013944Y011627D01*
X013844Y011877D01*
X013644Y011927D01*
X013644Y012077D01*
X013844Y012077D01*
X013944Y012327D01*
X013794Y012527D01*
X013944Y012627D01*
X014094Y012477D01*
X014043Y012529D02*
X013797Y012529D01*
X013774Y012507D02*
X013904Y012317D01*
X013931Y012295D02*
X014957Y012295D01*
X014954Y012317D02*
X015094Y012507D01*
X014954Y012647D01*
X014754Y012517D01*
X014813Y012529D02*
X015043Y012529D01*
X015016Y012470D02*
X013837Y012470D01*
X013881Y012412D02*
X014987Y012412D01*
X014957Y012353D02*
X013925Y012353D01*
X013908Y012236D02*
X014253Y012236D01*
X014195Y012178D02*
X013885Y012178D01*
X013861Y012119D02*
X014144Y012119D01*
X014144Y012061D02*
X013644Y012061D01*
X013594Y012087D02*
X013824Y012127D01*
X013644Y012002D02*
X014144Y012002D01*
X014144Y011944D02*
X013644Y011944D01*
X013594Y011887D02*
X013594Y012087D01*
X013594Y011887D02*
X013814Y011847D01*
X013812Y011885D02*
X014144Y011885D01*
X014145Y011827D02*
X013864Y011827D01*
X013888Y011768D02*
X014233Y011768D01*
X014284Y011710D02*
X013911Y011710D01*
X013935Y011651D02*
X014249Y011651D01*
X014214Y011593D02*
X013921Y011593D01*
X013894Y011647D02*
X013774Y011467D01*
X013914Y011327D01*
X014094Y011447D01*
X014164Y011407D01*
X014314Y011747D01*
X014554Y011747D02*
X014694Y011407D01*
X014774Y011447D01*
X014954Y011327D01*
X015094Y011467D01*
X014964Y011647D01*
X014949Y011651D02*
X014620Y011651D01*
X014639Y011593D02*
X014967Y011593D01*
X015006Y011534D02*
X014659Y011534D01*
X014678Y011476D02*
X014791Y011476D01*
X014797Y011476D02*
X015043Y011476D01*
X014984Y011417D02*
X014884Y011417D01*
X015130Y011058D02*
X015260Y011058D01*
X015304Y011014D01*
X015304Y010928D01*
X015260Y010884D01*
X015130Y010884D01*
X015130Y010797D02*
X015130Y011058D01*
X015217Y010884D02*
X015304Y010797D01*
X015425Y010797D02*
X015598Y010971D01*
X015598Y011014D01*
X015555Y011058D01*
X015468Y011058D01*
X015425Y011014D01*
X015425Y010797D02*
X015598Y010797D01*
X015720Y010841D02*
X015720Y010884D01*
X015763Y010928D01*
X015850Y010928D01*
X015893Y010884D01*
X015893Y010841D01*
X015850Y010797D01*
X015763Y010797D01*
X015720Y010841D01*
X015763Y010928D02*
X015720Y010971D01*
X015720Y011014D01*
X015763Y011058D01*
X015850Y011058D01*
X015893Y011014D01*
X015893Y010971D01*
X015850Y010928D01*
X016084Y010657D02*
X016084Y011717D01*
X016584Y011717D01*
X017084Y011717D01*
X017084Y010657D01*
X016584Y010657D01*
X016584Y011717D01*
X016584Y010657D01*
X016084Y010657D01*
X015781Y010396D02*
X015824Y010353D01*
X015824Y010266D01*
X015781Y010223D01*
X015694Y010223D02*
X015651Y010309D01*
X015651Y010353D01*
X015694Y010396D01*
X015781Y010396D01*
X015694Y010223D02*
X015564Y010223D01*
X015564Y010396D01*
X015434Y010617D02*
X014934Y010617D01*
X014934Y009557D01*
X015434Y009557D01*
X015434Y010617D01*
X014934Y010617D02*
X014434Y010617D01*
X014434Y009557D01*
X014934Y009557D01*
X014934Y010617D01*
X014304Y010636D02*
X014304Y010462D01*
X014131Y010636D01*
X014087Y010636D01*
X014044Y010592D01*
X014044Y010505D01*
X014087Y010462D01*
X014087Y010341D02*
X014044Y010298D01*
X014044Y010211D01*
X014087Y010167D01*
X014261Y010167D01*
X014304Y010211D01*
X014304Y010298D01*
X014261Y010341D01*
X014304Y010757D02*
X014304Y010930D01*
X014304Y010843D02*
X014044Y010843D01*
X014131Y010757D01*
X014004Y011417D02*
X013904Y011417D01*
X013846Y011476D02*
X014092Y011476D01*
X014179Y011534D02*
X013882Y011534D01*
X013897Y011652D02*
X013872Y011694D01*
X013850Y011738D01*
X013832Y011784D01*
X013817Y011831D01*
X014107Y012513D02*
X014149Y012536D01*
X014192Y012555D01*
X014237Y012572D01*
X014283Y012584D01*
X014284Y012587D02*
X014334Y012827D01*
X014524Y012827D01*
X014574Y012587D01*
X014542Y012587D02*
X014297Y012587D01*
X014311Y012646D02*
X014527Y012646D01*
X014513Y012704D02*
X014326Y012704D01*
X014341Y012763D02*
X014498Y012763D01*
X014641Y012529D02*
X014197Y012529D01*
X013984Y012587D02*
X013884Y012587D01*
X013844Y012967D02*
X013844Y013098D01*
X013887Y013141D01*
X013974Y013141D01*
X014018Y013098D01*
X014018Y012967D01*
X014104Y012967D02*
X013844Y012967D01*
X014018Y013054D02*
X014104Y013141D01*
X014104Y013262D02*
X014104Y013436D01*
X014104Y013349D02*
X013844Y013349D01*
X013931Y013262D01*
X013887Y013557D02*
X013844Y013600D01*
X013844Y013687D01*
X013887Y013730D01*
X013931Y013730D01*
X014104Y013557D01*
X014104Y013730D01*
X014234Y014017D02*
X014734Y014017D01*
X014734Y012957D01*
X014234Y012957D01*
X014234Y014017D01*
X014844Y013643D02*
X014931Y013557D01*
X014844Y013643D02*
X015104Y013643D01*
X015104Y013557D02*
X015104Y013730D01*
X015104Y013436D02*
X015104Y013262D01*
X015104Y013349D02*
X014844Y013349D01*
X014931Y013262D01*
X014974Y013141D02*
X015018Y013098D01*
X015018Y012967D01*
X015104Y012967D02*
X014844Y012967D01*
X014844Y013098D01*
X014887Y013141D01*
X014974Y013141D01*
X015018Y013054D02*
X015104Y013141D01*
X015234Y012957D02*
X015734Y012957D01*
X015734Y014017D01*
X015234Y014017D01*
X015234Y012957D01*
X014984Y012587D02*
X014891Y012587D01*
X014981Y012236D02*
X014576Y012236D01*
X014693Y012178D02*
X015004Y012178D01*
X015027Y012119D02*
X014706Y012119D01*
X014718Y012061D02*
X015244Y012061D01*
X015264Y012087D02*
X015264Y011887D01*
X015044Y011847D01*
X015035Y011885D02*
X014713Y011885D01*
X014741Y011944D02*
X015244Y011944D01*
X015244Y012002D02*
X014729Y012002D01*
X014669Y011827D02*
X014984Y011827D01*
X014973Y011768D02*
X014625Y011768D01*
X014600Y011710D02*
X014961Y011710D01*
X015044Y012127D02*
X015264Y012087D01*
X015527Y012140D02*
X015527Y011880D01*
X015527Y011967D02*
X015657Y011967D01*
X015700Y012010D01*
X015700Y012097D01*
X015657Y012140D01*
X015527Y012140D01*
X015614Y011967D02*
X015700Y011880D01*
X015821Y011880D02*
X015995Y012140D01*
X015821Y012140D02*
X015995Y011880D01*
X016018Y012617D02*
X016018Y012748D01*
X015974Y012791D01*
X015887Y012791D01*
X015844Y012748D01*
X015844Y012617D01*
X016104Y012617D01*
X016018Y012704D02*
X016104Y012791D01*
X016104Y012912D02*
X016104Y013086D01*
X016104Y012999D02*
X015844Y012999D01*
X015931Y012912D01*
X015974Y013207D02*
X015844Y013337D01*
X016104Y013337D01*
X015974Y013380D02*
X015974Y013207D01*
X016234Y012957D02*
X016734Y012957D01*
X016734Y014017D01*
X016234Y014017D01*
X016234Y012957D01*
X016844Y012949D02*
X017104Y012949D01*
X017104Y012862D02*
X017104Y013036D01*
X017061Y013157D02*
X017104Y013200D01*
X017104Y013287D01*
X017061Y013330D01*
X017018Y013330D01*
X016974Y013287D01*
X016974Y013243D01*
X016974Y013287D02*
X016931Y013330D01*
X016887Y013330D01*
X016844Y013287D01*
X016844Y013200D01*
X016887Y013157D01*
X016844Y012949D02*
X016931Y012862D01*
X016974Y012741D02*
X017018Y012698D01*
X017018Y012567D01*
X017104Y012567D02*
X016844Y012567D01*
X016844Y012698D01*
X016887Y012741D01*
X016974Y012741D01*
X017018Y012654D02*
X017104Y012741D01*
X017234Y012957D02*
X017734Y012957D01*
X017734Y014017D01*
X017234Y014017D01*
X017234Y012957D01*
X017844Y012967D02*
X017844Y013098D01*
X017887Y013141D01*
X017974Y013141D01*
X018018Y013098D01*
X018018Y012967D01*
X018104Y012967D02*
X017844Y012967D01*
X018018Y013054D02*
X018104Y013141D01*
X018104Y013262D02*
X018104Y013436D01*
X018104Y013349D02*
X017844Y013349D01*
X017931Y013262D01*
X017974Y013557D02*
X017974Y013687D01*
X018018Y013730D01*
X018061Y013730D01*
X018104Y013687D01*
X018104Y013600D01*
X018061Y013557D01*
X017974Y013557D01*
X017887Y013643D01*
X017844Y013730D01*
X018234Y014017D02*
X018734Y014017D01*
X018734Y012957D01*
X018234Y012957D01*
X018234Y014017D01*
X018844Y013730D02*
X018844Y013557D01*
X018974Y013557D01*
X018931Y013643D01*
X018931Y013687D01*
X018974Y013730D01*
X019061Y013730D01*
X019104Y013687D01*
X019104Y013600D01*
X019061Y013557D01*
X019104Y013436D02*
X019104Y013262D01*
X019104Y013349D02*
X018844Y013349D01*
X018931Y013262D01*
X018887Y013141D02*
X018974Y013141D01*
X019018Y013098D01*
X019018Y012967D01*
X019104Y012967D02*
X018844Y012967D01*
X018844Y013098D01*
X018887Y013141D01*
X019018Y013054D02*
X019104Y013141D01*
X019234Y012957D02*
X019734Y012957D01*
X019734Y014017D01*
X019234Y014017D01*
X019234Y012957D01*
X019844Y012967D02*
X019844Y013098D01*
X019887Y013141D01*
X019974Y013141D01*
X020018Y013098D01*
X020018Y012967D01*
X020104Y012967D02*
X019844Y012967D01*
X020018Y013054D02*
X020104Y013141D01*
X020104Y013262D02*
X020104Y013436D01*
X020104Y013349D02*
X019844Y013349D01*
X019931Y013262D01*
X019931Y013557D02*
X019887Y013557D01*
X019844Y013600D01*
X019844Y013687D01*
X019887Y013730D01*
X019931Y013730D01*
X019974Y013687D01*
X019974Y013600D01*
X019931Y013557D01*
X019974Y013600D02*
X020018Y013557D01*
X020061Y013557D01*
X020104Y013600D01*
X020104Y013687D01*
X020061Y013730D01*
X020018Y013730D01*
X019974Y013687D01*
X020234Y014017D02*
X020734Y014017D01*
X020734Y012957D01*
X020234Y012957D01*
X020234Y014017D01*
X020844Y013730D02*
X020844Y013557D01*
X020844Y013730D02*
X020887Y013730D01*
X021061Y013557D01*
X021104Y013557D01*
X021104Y013436D02*
X021104Y013262D01*
X021104Y013349D02*
X020844Y013349D01*
X020931Y013262D01*
X020974Y013141D02*
X021018Y013098D01*
X021018Y012967D01*
X021104Y012967D02*
X020844Y012967D01*
X020844Y013098D01*
X020887Y013141D01*
X020974Y013141D01*
X021018Y013054D02*
X021104Y013141D01*
X021234Y012957D02*
X021734Y012957D01*
X021734Y014017D01*
X021234Y014017D01*
X021234Y012957D01*
X019834Y010628D02*
X019877Y010584D01*
X019704Y010411D01*
X019747Y010367D01*
X019834Y010367D01*
X019877Y010411D01*
X019877Y010584D01*
X019834Y010628D02*
X019747Y010628D01*
X019704Y010584D01*
X019704Y010411D01*
X019582Y010367D02*
X019409Y010367D01*
X019496Y010367D02*
X019496Y010628D01*
X019409Y010541D01*
X019288Y010584D02*
X019288Y010411D01*
X019244Y010367D01*
X019158Y010367D01*
X019114Y010411D01*
X019114Y010584D01*
X019158Y010628D01*
X019244Y010628D01*
X019288Y010584D01*
X019201Y010454D02*
X019288Y010367D01*
X018064Y010237D02*
X018064Y009737D01*
X017004Y009737D01*
X017004Y010237D01*
X018064Y010237D01*
X018064Y009737D02*
X018064Y009237D01*
X018064Y008737D01*
X017004Y008737D01*
X017004Y009237D01*
X018064Y009237D01*
X017004Y009237D01*
X017004Y009737D01*
X018064Y009737D01*
X017984Y010817D02*
X018027Y010861D01*
X018027Y011034D01*
X017984Y011078D01*
X017897Y011078D01*
X017854Y011034D01*
X017854Y010991D01*
X017897Y010948D01*
X018027Y010948D01*
X017984Y010817D02*
X017897Y010817D01*
X017854Y010861D01*
X017732Y010817D02*
X017559Y010817D01*
X017732Y010991D01*
X017732Y011034D01*
X017689Y011078D01*
X017602Y011078D01*
X017559Y011034D01*
X017438Y011034D02*
X017438Y010948D01*
X017394Y010904D01*
X017264Y010904D01*
X017264Y010817D02*
X017264Y011078D01*
X017394Y011078D01*
X017438Y011034D01*
X017351Y010904D02*
X017438Y010817D01*
X016756Y010108D02*
X016756Y009847D01*
X016670Y009847D02*
X016843Y009847D01*
X016800Y009608D02*
X016713Y009608D01*
X016670Y009564D01*
X016548Y009564D02*
X016505Y009608D01*
X016418Y009608D01*
X016375Y009564D01*
X016254Y009564D02*
X016254Y009478D01*
X016210Y009434D01*
X016080Y009434D01*
X016080Y009347D02*
X016080Y009608D01*
X016210Y009608D01*
X016254Y009564D01*
X016167Y009434D02*
X016254Y009347D01*
X016375Y009391D02*
X016418Y009347D01*
X016505Y009347D01*
X016548Y009391D01*
X016548Y009434D01*
X016505Y009478D01*
X016462Y009478D01*
X016505Y009478D02*
X016548Y009521D01*
X016548Y009564D01*
X016670Y009347D02*
X016843Y009521D01*
X016843Y009564D01*
X016800Y009608D01*
X016548Y009891D02*
X016505Y009847D01*
X016418Y009847D01*
X016375Y009891D01*
X016462Y009978D02*
X016505Y009978D01*
X016548Y009934D01*
X016548Y009891D01*
X016505Y009978D02*
X016548Y010021D01*
X016548Y010064D01*
X016505Y010108D01*
X016418Y010108D01*
X016375Y010064D01*
X016254Y010064D02*
X016254Y009978D01*
X016210Y009934D01*
X016080Y009934D01*
X016080Y009847D02*
X016080Y010108D01*
X016210Y010108D01*
X016254Y010064D01*
X016167Y009934D02*
X016254Y009847D01*
X015824Y009807D02*
X015738Y009720D01*
X015738Y009764D02*
X015738Y009633D01*
X015824Y009633D02*
X015564Y009633D01*
X015564Y009764D01*
X015607Y009807D01*
X015694Y009807D01*
X015738Y009764D01*
X015824Y009928D02*
X015651Y010102D01*
X015607Y010102D01*
X015564Y010058D01*
X015564Y009971D01*
X015607Y009928D01*
X015824Y009928D02*
X015824Y010102D01*
X016670Y010021D02*
X016756Y010108D01*
X016843Y009347D02*
X016670Y009347D01*
X016400Y009108D02*
X016443Y009064D01*
X016443Y009021D01*
X016400Y008978D01*
X016443Y008934D01*
X016443Y008891D01*
X016400Y008847D01*
X016313Y008847D01*
X016270Y008891D01*
X016356Y008978D02*
X016400Y008978D01*
X016400Y009108D02*
X016313Y009108D01*
X016270Y009064D01*
X016148Y008978D02*
X015975Y008978D01*
X016105Y009108D01*
X016105Y008847D01*
X015854Y008891D02*
X015810Y008847D01*
X015724Y008847D01*
X015680Y008891D01*
X015680Y009064D01*
X015724Y009108D01*
X015810Y009108D01*
X015854Y009064D01*
X015821Y008258D02*
X015734Y008258D01*
X015777Y008258D02*
X015777Y007997D01*
X015734Y007997D02*
X015821Y007997D01*
X015930Y008041D02*
X015930Y008214D01*
X015974Y008258D01*
X016060Y008258D01*
X016104Y008214D01*
X016225Y008171D02*
X016312Y008258D01*
X016312Y007997D01*
X016398Y007997D02*
X016225Y007997D01*
X016104Y008041D02*
X016060Y007997D01*
X015974Y007997D01*
X015930Y008041D01*
X016520Y007997D02*
X016693Y008171D01*
X016693Y008214D01*
X016650Y008258D01*
X016563Y008258D01*
X016520Y008214D01*
X016520Y007997D02*
X016693Y007997D01*
X017984Y006917D02*
X018484Y006917D01*
X018484Y005857D01*
X017984Y005857D01*
X017984Y006917D01*
X017531Y006396D02*
X017488Y006396D01*
X017444Y006353D01*
X017444Y006223D01*
X017531Y006223D01*
X017574Y006266D01*
X017574Y006353D01*
X017531Y006396D01*
X017444Y006223D02*
X017357Y006309D01*
X017314Y006396D01*
X017164Y006387D02*
X017164Y005887D01*
X016104Y005887D01*
X016104Y006387D01*
X017164Y006387D01*
X017357Y006102D02*
X017401Y006102D01*
X017444Y006058D01*
X017488Y006102D01*
X017531Y006102D01*
X017574Y006058D01*
X017574Y005971D01*
X017531Y005928D01*
X017531Y005807D02*
X017574Y005764D01*
X017574Y005677D01*
X017531Y005633D01*
X017357Y005633D01*
X017314Y005677D01*
X017314Y005764D01*
X017357Y005807D01*
X017357Y005928D02*
X017314Y005971D01*
X017314Y006058D01*
X017357Y006102D01*
X017444Y006058D02*
X017444Y006015D01*
X017242Y005268D02*
X017242Y004707D01*
X017404Y004587D02*
X017404Y005087D01*
X018464Y005087D01*
X018464Y004587D01*
X017404Y004587D01*
X016943Y004901D02*
X016943Y005074D01*
X016899Y005118D01*
X016812Y005118D01*
X016769Y005074D01*
X016769Y005031D01*
X016812Y004988D01*
X016943Y004988D01*
X016943Y004901D02*
X016899Y004857D01*
X016812Y004857D01*
X016769Y004901D01*
X016648Y004901D02*
X016604Y004857D01*
X016518Y004857D01*
X016474Y004901D01*
X016474Y005074D01*
X016518Y005118D01*
X016604Y005118D01*
X016648Y005074D01*
X016365Y005118D02*
X016278Y005118D01*
X016321Y005118D02*
X016321Y004857D01*
X016278Y004857D02*
X016365Y004857D01*
X016026Y004707D02*
X016026Y005268D01*
X015231Y004346D02*
X015144Y004346D01*
X015144Y004259D01*
X015057Y004173D02*
X015014Y004216D01*
X015014Y004303D01*
X015057Y004346D01*
X015057Y004173D02*
X015231Y004173D01*
X015274Y004216D01*
X015274Y004303D01*
X015231Y004346D01*
X015274Y004063D02*
X015274Y003976D01*
X015274Y004020D02*
X015014Y004020D01*
X015014Y004063D02*
X015014Y003976D01*
X015057Y003855D02*
X015014Y003812D01*
X015014Y003725D01*
X015057Y003682D01*
X015101Y003682D01*
X015144Y003725D01*
X015144Y003812D01*
X015188Y003855D01*
X015231Y003855D01*
X015274Y003812D01*
X015274Y003725D01*
X015231Y003682D01*
X015554Y003637D02*
X015554Y004137D01*
X016614Y004137D01*
X016614Y003637D01*
X015554Y003637D01*
X015724Y003508D02*
X015680Y003464D01*
X015680Y003291D01*
X015724Y003247D01*
X015810Y003247D01*
X015854Y003291D01*
X015975Y003291D02*
X016018Y003247D01*
X016105Y003247D01*
X016148Y003291D01*
X016148Y003334D01*
X016105Y003378D01*
X016062Y003378D01*
X016105Y003378D02*
X016148Y003421D01*
X016148Y003464D01*
X016105Y003508D01*
X016018Y003508D01*
X015975Y003464D01*
X015854Y003464D02*
X015810Y003508D01*
X015724Y003508D01*
X015274Y003259D02*
X015188Y003346D01*
X015014Y003346D01*
X015014Y003173D02*
X015188Y003173D01*
X015274Y003259D01*
X015231Y003052D02*
X015274Y003008D01*
X015274Y002921D01*
X015231Y002878D01*
X015144Y002878D02*
X015101Y002965D01*
X015101Y003008D01*
X015144Y003052D01*
X015231Y003052D01*
X015144Y002878D02*
X015014Y002878D01*
X015014Y003052D01*
X015144Y002757D02*
X015144Y002583D01*
X015057Y002670D02*
X015231Y002670D01*
X015134Y002437D02*
X015634Y002437D01*
X015884Y002187D01*
X016134Y002437D01*
X016634Y002437D01*
X016884Y002187D01*
X017134Y002437D01*
X017634Y002437D01*
X017884Y002187D01*
X018134Y002437D01*
X018634Y002437D01*
X018884Y002187D01*
X019134Y002437D01*
X019634Y002437D01*
X019884Y002187D01*
X019884Y001687D01*
X019634Y001437D01*
X019134Y001437D01*
X018884Y001687D01*
X018634Y001437D01*
X018134Y001437D01*
X017884Y001687D01*
X017884Y002187D01*
X017884Y001687D02*
X017634Y001437D01*
X017134Y001437D01*
X016884Y001687D01*
X016634Y001437D01*
X016134Y001437D01*
X015884Y001687D01*
X015634Y001437D01*
X015134Y001437D01*
X014884Y001687D01*
X014884Y002187D01*
X015134Y002437D01*
X015884Y002187D02*
X015884Y001687D01*
X016074Y001308D02*
X016030Y001264D01*
X016030Y001091D01*
X016074Y001047D01*
X016160Y001047D01*
X016204Y001091D01*
X016204Y001178D01*
X016117Y001178D01*
X016204Y001264D02*
X016160Y001308D01*
X016074Y001308D01*
X016325Y001308D02*
X016325Y001047D01*
X016498Y001047D02*
X016325Y001308D01*
X016498Y001308D02*
X016498Y001047D01*
X016620Y001047D02*
X016620Y001308D01*
X016750Y001308D01*
X016793Y001264D01*
X016793Y001091D01*
X016750Y001047D01*
X016620Y001047D01*
X017030Y001091D02*
X017074Y001047D01*
X017160Y001047D01*
X017204Y001091D01*
X017204Y001134D01*
X017160Y001178D01*
X017074Y001178D01*
X017030Y001221D01*
X017030Y001264D01*
X017074Y001308D01*
X017160Y001308D01*
X017204Y001264D01*
X017325Y001264D02*
X017325Y001091D01*
X017368Y001047D01*
X017455Y001047D01*
X017498Y001091D01*
X017620Y001047D02*
X017620Y001308D01*
X017498Y001264D02*
X017455Y001308D01*
X017368Y001308D01*
X017325Y001264D01*
X017620Y001047D02*
X017793Y001047D01*
X018030Y001091D02*
X018074Y001047D01*
X018160Y001047D01*
X018204Y001091D01*
X018204Y001134D01*
X018160Y001178D01*
X018074Y001178D01*
X018030Y001221D01*
X018030Y001264D01*
X018074Y001308D01*
X018160Y001308D01*
X018204Y001264D01*
X018325Y001308D02*
X018325Y001047D01*
X018455Y001047D01*
X018498Y001091D01*
X018498Y001264D01*
X018455Y001308D01*
X018325Y001308D01*
X018620Y001221D02*
X018620Y001047D01*
X018620Y001178D02*
X018793Y001178D01*
X018793Y001221D02*
X018793Y001047D01*
X018793Y001221D02*
X018706Y001308D01*
X018620Y001221D01*
X019129Y001308D02*
X019215Y001308D01*
X019172Y001308D02*
X019172Y001047D01*
X019129Y001047D02*
X019215Y001047D01*
X019325Y001047D02*
X019325Y001308D01*
X019498Y001047D01*
X019498Y001308D01*
X019620Y001308D02*
X019793Y001308D01*
X019706Y001308D02*
X019706Y001047D01*
X018884Y001687D02*
X018884Y002187D01*
X017693Y003091D02*
X017650Y003047D01*
X017563Y003047D01*
X017520Y003091D01*
X017520Y003178D02*
X017606Y003221D01*
X017650Y003221D01*
X017693Y003178D01*
X017693Y003091D01*
X017520Y003178D02*
X017520Y003308D01*
X017693Y003308D01*
X017934Y003437D02*
X016634Y003437D01*
X016634Y004137D01*
X017934Y004137D01*
X017934Y003437D01*
X018157Y003683D02*
X018331Y003683D01*
X018374Y003727D01*
X018374Y003814D01*
X018331Y003857D01*
X018331Y003978D02*
X018374Y004021D01*
X018374Y004108D01*
X018331Y004152D01*
X018288Y004152D01*
X018244Y004108D01*
X018244Y004065D01*
X018244Y004108D02*
X018201Y004152D01*
X018157Y004152D01*
X018114Y004108D01*
X018114Y004021D01*
X018157Y003978D01*
X018157Y003857D02*
X018114Y003814D01*
X018114Y003727D01*
X018157Y003683D01*
X018201Y004273D02*
X018114Y004359D01*
X018374Y004359D01*
X018374Y004273D02*
X018374Y004446D01*
X018757Y005333D02*
X018714Y005377D01*
X018714Y005464D01*
X018757Y005507D01*
X018757Y005628D02*
X018714Y005671D01*
X018714Y005758D01*
X018757Y005802D01*
X018801Y005802D01*
X018844Y005758D01*
X018888Y005802D01*
X018931Y005802D01*
X018974Y005758D01*
X018974Y005671D01*
X018931Y005628D01*
X018931Y005507D02*
X018974Y005464D01*
X018974Y005377D01*
X018931Y005333D01*
X018757Y005333D01*
X018844Y005715D02*
X018844Y005758D01*
X018757Y005923D02*
X018714Y005966D01*
X018714Y006053D01*
X018757Y006096D01*
X018801Y006096D01*
X018844Y006053D01*
X018888Y006096D01*
X018931Y006096D01*
X018974Y006053D01*
X018974Y005966D01*
X018931Y005923D01*
X018844Y006009D02*
X018844Y006053D01*
X019444Y006054D02*
X019444Y005967D01*
X019444Y006011D02*
X019704Y006011D01*
X019704Y006054D02*
X019704Y005967D01*
X019661Y006164D02*
X019704Y006207D01*
X019704Y006294D01*
X019661Y006337D01*
X019661Y006458D02*
X019618Y006458D01*
X019574Y006502D01*
X019574Y006589D01*
X019618Y006632D01*
X019661Y006632D01*
X019704Y006589D01*
X019704Y006502D01*
X019661Y006458D01*
X019574Y006502D02*
X019531Y006458D01*
X019487Y006458D01*
X019444Y006502D01*
X019444Y006589D01*
X019487Y006632D01*
X019531Y006632D01*
X019574Y006589D01*
X019487Y006337D02*
X019444Y006294D01*
X019444Y006207D01*
X019487Y006164D01*
X019661Y006164D01*
X020637Y004530D02*
X020594Y004487D01*
X020594Y004400D01*
X020637Y004357D01*
X020811Y004357D01*
X020637Y004530D01*
X020811Y004530D01*
X020854Y004487D01*
X020854Y004400D01*
X020811Y004357D01*
X020811Y004236D02*
X020854Y004192D01*
X020854Y004105D01*
X020811Y004062D01*
X020811Y003941D02*
X020854Y003898D01*
X020854Y003811D01*
X020811Y003767D01*
X020637Y003767D01*
X020594Y003811D01*
X020594Y003898D01*
X020637Y003941D01*
X020637Y004062D02*
X020594Y004105D01*
X020594Y004192D01*
X020637Y004236D01*
X020681Y004236D01*
X020724Y004192D01*
X020768Y004236D01*
X020811Y004236D01*
X020724Y004192D02*
X020724Y004149D01*
X017398Y003264D02*
X017398Y003221D01*
X017355Y003178D01*
X017398Y003134D01*
X017398Y003091D01*
X017355Y003047D01*
X017268Y003047D01*
X017225Y003091D01*
X017104Y003091D02*
X017060Y003047D01*
X016974Y003047D01*
X016930Y003091D01*
X016930Y003264D01*
X016974Y003308D01*
X017060Y003308D01*
X017104Y003264D01*
X017225Y003264D02*
X017268Y003308D01*
X017355Y003308D01*
X017398Y003264D01*
X017355Y003178D02*
X017312Y003178D01*
X016443Y003378D02*
X016270Y003378D01*
X016400Y003508D01*
X016400Y003247D01*
X016884Y002187D02*
X016884Y001687D01*
X015693Y001308D02*
X015693Y001134D01*
X015606Y001047D01*
X015520Y001134D01*
X015520Y001308D01*
X015398Y001308D02*
X015225Y001308D01*
X015225Y001178D01*
X015312Y001221D01*
X015355Y001221D01*
X015398Y001178D01*
X015398Y001091D01*
X015355Y001047D01*
X015268Y001047D01*
X015225Y001091D01*
X015104Y001178D02*
X014930Y001178D01*
X015017Y001264D02*
X015017Y001091D01*
X014501Y001513D02*
X014284Y001513D01*
X014134Y003437D02*
X014634Y003437D01*
X013434Y003437D02*
X012934Y003437D01*
X012434Y003437D02*
X011934Y003437D01*
X011234Y003437D02*
X010734Y003437D01*
X010234Y003437D02*
X009734Y003437D01*
X009034Y003437D02*
X008534Y003437D01*
X012075Y001308D02*
X012075Y001047D01*
X013137Y006357D02*
X013094Y006400D01*
X013094Y006487D01*
X013137Y006530D01*
X013311Y006530D01*
X013354Y006487D01*
X013354Y006400D01*
X013311Y006357D01*
X013224Y006400D02*
X013224Y006530D01*
X013224Y006400D02*
X013181Y006357D01*
X013137Y006357D01*
X014444Y007667D02*
X014444Y007798D01*
X014487Y007841D01*
X014574Y007841D01*
X014618Y007798D01*
X014618Y007667D01*
X014704Y007667D02*
X014444Y007667D01*
X014618Y007754D02*
X014704Y007841D01*
X014704Y007962D02*
X014531Y008136D01*
X014487Y008136D01*
X014444Y008092D01*
X014444Y008005D01*
X014487Y007962D01*
X014704Y007962D02*
X014704Y008136D01*
X014661Y008257D02*
X014704Y008300D01*
X014704Y008387D01*
X014661Y008430D01*
X014618Y008430D01*
X014574Y008387D01*
X014574Y008257D01*
X014661Y008257D01*
X014574Y008257D02*
X014487Y008343D01*
X014444Y008430D01*
X012779Y008984D02*
X012605Y008811D01*
X012605Y008767D01*
X012484Y008811D02*
X012441Y008767D01*
X012354Y008767D01*
X012311Y008811D01*
X012311Y008984D01*
X012354Y009028D01*
X012441Y009028D01*
X012484Y008984D01*
X012605Y009028D02*
X012779Y009028D01*
X012779Y008984D01*
X012201Y009028D02*
X012114Y009028D01*
X012158Y009028D02*
X012158Y008767D01*
X012201Y008767D02*
X012114Y008767D01*
X010984Y010257D02*
X010484Y010257D01*
X010484Y011317D01*
X010984Y011317D01*
X010984Y010257D01*
X009684Y009837D02*
X009384Y009837D01*
X009384Y010087D01*
X009384Y009837D02*
X009084Y009837D01*
X009084Y009687D02*
X009684Y009687D01*
X009684Y009487D01*
X009084Y009487D01*
X009084Y009687D01*
X009084Y009337D02*
X009384Y009337D01*
X009384Y009087D01*
X009384Y009337D02*
X009684Y009337D01*
X009632Y011117D02*
X009459Y011117D01*
X009546Y011117D02*
X009546Y011378D01*
X009459Y011291D01*
X009338Y011378D02*
X009164Y011117D01*
X009338Y011117D02*
X009164Y011378D01*
X010364Y011561D02*
X010408Y011517D01*
X010494Y011517D01*
X010538Y011561D01*
X010659Y011517D02*
X010832Y011691D01*
X010832Y011734D01*
X010789Y011778D01*
X010702Y011778D01*
X010659Y011734D01*
X010538Y011734D02*
X010494Y011778D01*
X010408Y011778D01*
X010364Y011734D01*
X010364Y011561D01*
X010659Y011517D02*
X010832Y011517D01*
X010954Y011517D02*
X011127Y011691D01*
X011127Y011734D01*
X011084Y011778D01*
X010997Y011778D01*
X010954Y011734D01*
X010954Y011517D02*
X011127Y011517D01*
X013822Y012129D02*
X013833Y012169D01*
X013847Y012208D01*
X013863Y012245D01*
X013882Y012282D01*
X013903Y012317D01*
X014314Y011747D02*
X014286Y011763D01*
X014259Y011782D01*
X014236Y011804D01*
X014215Y011829D01*
X014197Y011857D01*
X014182Y011886D01*
X014172Y011917D01*
X014164Y011948D01*
X014161Y011981D01*
X014162Y012013D01*
X014166Y012046D01*
X014175Y012077D01*
X014187Y012107D01*
X014202Y012136D01*
X014221Y012163D01*
X014243Y012187D01*
X014267Y012208D01*
X014294Y012227D01*
X014323Y012242D01*
X014354Y012253D01*
X014385Y012261D01*
X014418Y012265D01*
X014450Y012265D01*
X014483Y012261D01*
X014514Y012253D01*
X014545Y012242D01*
X014574Y012227D01*
X014601Y012208D01*
X014625Y012187D01*
X014647Y012163D01*
X014666Y012136D01*
X014681Y012107D01*
X014693Y012077D01*
X014702Y012046D01*
X014706Y012013D01*
X014707Y011981D01*
X014704Y011948D01*
X014696Y011917D01*
X014686Y011886D01*
X014671Y011857D01*
X014653Y011829D01*
X014632Y011804D01*
X014609Y011782D01*
X014582Y011763D01*
X014554Y011747D01*
X015046Y012128D02*
X015034Y012168D01*
X015019Y012207D01*
X015001Y012245D01*
X014981Y012281D01*
X014959Y012316D01*
X014754Y012518D02*
X014711Y012541D01*
X014667Y012561D01*
X014621Y012577D01*
X014575Y012589D01*
X015044Y011848D02*
X015034Y011806D01*
X015021Y011765D01*
X015005Y011725D01*
X014986Y011686D01*
X014964Y011649D01*
X017227Y012140D02*
X017400Y012140D01*
X017314Y012140D02*
X017314Y011880D01*
X017521Y011880D02*
X017695Y012140D01*
X017521Y012140D02*
X017695Y011880D01*
X018037Y015467D02*
X017994Y015511D01*
X017994Y015598D01*
X018037Y015641D01*
X018211Y015641D01*
X018254Y015598D01*
X018254Y015511D01*
X018211Y015467D01*
X018037Y015467D01*
X018168Y015554D02*
X018254Y015641D01*
X018211Y015762D02*
X018168Y015762D01*
X018124Y015805D01*
X018124Y015892D01*
X018168Y015936D01*
X018211Y015936D01*
X018254Y015892D01*
X018254Y015805D01*
X018211Y015762D01*
X018124Y015805D02*
X018081Y015762D01*
X018037Y015762D01*
X017994Y015805D01*
X017994Y015892D01*
X018037Y015936D01*
X018081Y015936D01*
X018124Y015892D01*
X016983Y017354D02*
X016896Y017354D01*
X016853Y017397D01*
X016853Y017440D01*
X016896Y017484D01*
X016983Y017484D01*
X017026Y017440D01*
X017026Y017397D01*
X016983Y017354D01*
X016983Y017484D02*
X017026Y017527D01*
X017026Y017571D01*
X016983Y017614D01*
X016896Y017614D01*
X016853Y017571D01*
X016853Y017527D01*
X016896Y017484D01*
X016732Y017571D02*
X016688Y017614D01*
X016558Y017614D01*
X016558Y017354D01*
X016688Y017354D01*
X016732Y017397D01*
X016732Y017571D01*
X015599Y017491D02*
X015426Y017491D01*
X015556Y017621D01*
X015556Y017361D01*
X015305Y017404D02*
X015305Y017578D01*
X015261Y017621D01*
X015131Y017621D01*
X015131Y017361D01*
X015261Y017361D01*
X015305Y017404D01*
X015198Y018347D02*
X015025Y018347D01*
X015112Y018347D02*
X015112Y018608D01*
X015025Y018521D01*
X014904Y018564D02*
X014860Y018608D01*
X014774Y018608D01*
X014730Y018564D01*
X014730Y018391D01*
X014774Y018347D01*
X014860Y018347D01*
X014904Y018391D01*
X015320Y018478D02*
X015493Y018478D01*
X015450Y018608D02*
X015450Y018347D01*
X015320Y018478D02*
X015450Y018608D01*
X014334Y019087D02*
X014336Y019160D01*
X014342Y019233D01*
X014352Y019305D01*
X014366Y019377D01*
X014383Y019448D01*
X014405Y019518D01*
X014430Y019587D01*
X014459Y019654D01*
X014491Y019719D01*
X014527Y019783D01*
X014567Y019845D01*
X014609Y019904D01*
X014655Y019961D01*
X014704Y020015D01*
X014756Y020067D01*
X014810Y020116D01*
X014867Y020162D01*
X014926Y020204D01*
X014988Y020244D01*
X015052Y020280D01*
X015117Y020312D01*
X015184Y020341D01*
X015253Y020366D01*
X015323Y020388D01*
X015394Y020405D01*
X015466Y020419D01*
X015538Y020429D01*
X015611Y020435D01*
X015684Y020437D01*
X015757Y020435D01*
X015830Y020429D01*
X015902Y020419D01*
X015974Y020405D01*
X016045Y020388D01*
X016115Y020366D01*
X016184Y020341D01*
X016251Y020312D01*
X016316Y020280D01*
X016380Y020244D01*
X016442Y020204D01*
X016501Y020162D01*
X016558Y020116D01*
X016612Y020067D01*
X016664Y020015D01*
X016713Y019961D01*
X016759Y019904D01*
X016801Y019845D01*
X016841Y019783D01*
X016877Y019719D01*
X016909Y019654D01*
X016938Y019587D01*
X016963Y019518D01*
X016985Y019448D01*
X017002Y019377D01*
X017016Y019305D01*
X017026Y019233D01*
X017032Y019160D01*
X017034Y019087D01*
X017032Y019014D01*
X017026Y018941D01*
X017016Y018869D01*
X017002Y018797D01*
X016985Y018726D01*
X016963Y018656D01*
X016938Y018587D01*
X016909Y018520D01*
X016877Y018455D01*
X016841Y018391D01*
X016801Y018329D01*
X016759Y018270D01*
X016713Y018213D01*
X016664Y018159D01*
X016612Y018107D01*
X016558Y018058D01*
X016501Y018012D01*
X016442Y017970D01*
X016380Y017930D01*
X016316Y017894D01*
X016251Y017862D01*
X016184Y017833D01*
X016115Y017808D01*
X016045Y017786D01*
X015974Y017769D01*
X015902Y017755D01*
X015830Y017745D01*
X015757Y017739D01*
X015684Y017737D01*
X015611Y017739D01*
X015538Y017745D01*
X015466Y017755D01*
X015394Y017769D01*
X015323Y017786D01*
X015253Y017808D01*
X015184Y017833D01*
X015117Y017862D01*
X015052Y017894D01*
X014988Y017930D01*
X014926Y017970D01*
X014867Y018012D01*
X014810Y018058D01*
X014756Y018107D01*
X014704Y018159D01*
X014655Y018213D01*
X014609Y018270D01*
X014567Y018329D01*
X014527Y018391D01*
X014491Y018455D01*
X014459Y018520D01*
X014430Y018587D01*
X014405Y018656D01*
X014383Y018726D01*
X014366Y018797D01*
X014352Y018869D01*
X014342Y018941D01*
X014336Y019014D01*
X014334Y019087D01*
X014184Y019027D02*
X013894Y018737D01*
X013474Y018737D01*
X013184Y019027D01*
X012894Y018737D01*
X012474Y018737D01*
X012184Y019027D01*
X011894Y018737D01*
X011474Y018737D01*
X011184Y019027D01*
X011184Y019447D01*
X011474Y019737D01*
X011894Y019737D01*
X012184Y019447D01*
X012474Y019737D01*
X012894Y019737D01*
X013184Y019447D01*
X013474Y019737D01*
X013894Y019737D01*
X014184Y019447D01*
X014184Y019027D01*
X013184Y019027D02*
X013184Y019447D01*
X012184Y019447D02*
X012184Y019027D01*
X011026Y017614D02*
X010853Y017614D01*
X010853Y017484D01*
X010939Y017527D01*
X010983Y017527D01*
X011026Y017484D01*
X011026Y017397D01*
X010983Y017354D01*
X010896Y017354D01*
X010853Y017397D01*
X010732Y017397D02*
X010732Y017571D01*
X010688Y017614D01*
X010558Y017614D01*
X010558Y017354D01*
X010688Y017354D01*
X010732Y017397D01*
X009599Y017361D02*
X009426Y017361D01*
X009513Y017361D02*
X009513Y017621D01*
X009426Y017535D01*
X009305Y017578D02*
X009261Y017621D01*
X009131Y017621D01*
X009131Y017361D01*
X009261Y017361D01*
X009305Y017404D01*
X009305Y017578D01*
X009248Y018347D02*
X009075Y018347D01*
X009162Y018347D02*
X009162Y018608D01*
X009075Y018521D01*
X008954Y018564D02*
X008910Y018608D01*
X008824Y018608D01*
X008780Y018564D01*
X008780Y018391D01*
X008824Y018347D01*
X008910Y018347D01*
X008954Y018391D01*
X009370Y018391D02*
X009413Y018347D01*
X009500Y018347D01*
X009543Y018391D01*
X009543Y018434D01*
X009500Y018478D01*
X009456Y018478D01*
X009500Y018478D02*
X009543Y018521D01*
X009543Y018564D01*
X009500Y018608D01*
X009413Y018608D01*
X009370Y018564D01*
X008334Y019087D02*
X008336Y019160D01*
X008342Y019233D01*
X008352Y019305D01*
X008366Y019377D01*
X008383Y019448D01*
X008405Y019518D01*
X008430Y019587D01*
X008459Y019654D01*
X008491Y019719D01*
X008527Y019783D01*
X008567Y019845D01*
X008609Y019904D01*
X008655Y019961D01*
X008704Y020015D01*
X008756Y020067D01*
X008810Y020116D01*
X008867Y020162D01*
X008926Y020204D01*
X008988Y020244D01*
X009052Y020280D01*
X009117Y020312D01*
X009184Y020341D01*
X009253Y020366D01*
X009323Y020388D01*
X009394Y020405D01*
X009466Y020419D01*
X009538Y020429D01*
X009611Y020435D01*
X009684Y020437D01*
X009757Y020435D01*
X009830Y020429D01*
X009902Y020419D01*
X009974Y020405D01*
X010045Y020388D01*
X010115Y020366D01*
X010184Y020341D01*
X010251Y020312D01*
X010316Y020280D01*
X010380Y020244D01*
X010442Y020204D01*
X010501Y020162D01*
X010558Y020116D01*
X010612Y020067D01*
X010664Y020015D01*
X010713Y019961D01*
X010759Y019904D01*
X010801Y019845D01*
X010841Y019783D01*
X010877Y019719D01*
X010909Y019654D01*
X010938Y019587D01*
X010963Y019518D01*
X010985Y019448D01*
X011002Y019377D01*
X011016Y019305D01*
X011026Y019233D01*
X011032Y019160D01*
X011034Y019087D01*
X011032Y019014D01*
X011026Y018941D01*
X011016Y018869D01*
X011002Y018797D01*
X010985Y018726D01*
X010963Y018656D01*
X010938Y018587D01*
X010909Y018520D01*
X010877Y018455D01*
X010841Y018391D01*
X010801Y018329D01*
X010759Y018270D01*
X010713Y018213D01*
X010664Y018159D01*
X010612Y018107D01*
X010558Y018058D01*
X010501Y018012D01*
X010442Y017970D01*
X010380Y017930D01*
X010316Y017894D01*
X010251Y017862D01*
X010184Y017833D01*
X010115Y017808D01*
X010045Y017786D01*
X009974Y017769D01*
X009902Y017755D01*
X009830Y017745D01*
X009757Y017739D01*
X009684Y017737D01*
X009611Y017739D01*
X009538Y017745D01*
X009466Y017755D01*
X009394Y017769D01*
X009323Y017786D01*
X009253Y017808D01*
X009184Y017833D01*
X009117Y017862D01*
X009052Y017894D01*
X008988Y017930D01*
X008926Y017970D01*
X008867Y018012D01*
X008810Y018058D01*
X008756Y018107D01*
X008704Y018159D01*
X008655Y018213D01*
X008609Y018270D01*
X008567Y018329D01*
X008527Y018391D01*
X008491Y018455D01*
X008459Y018520D01*
X008430Y018587D01*
X008405Y018656D01*
X008383Y018726D01*
X008366Y018797D01*
X008352Y018869D01*
X008342Y018941D01*
X008336Y019014D01*
X008334Y019087D01*
X008184Y019027D02*
X007894Y018737D01*
X007474Y018737D01*
X007184Y019027D01*
X006894Y018737D01*
X006474Y018737D01*
X006184Y019027D01*
X005894Y018737D01*
X005474Y018737D01*
X005184Y019027D01*
X005184Y019447D01*
X005474Y019737D01*
X005894Y019737D01*
X006184Y019447D01*
X006474Y019737D01*
X006894Y019737D01*
X007184Y019447D01*
X007474Y019737D01*
X007894Y019737D01*
X008184Y019447D01*
X008184Y019027D01*
X007184Y019027D02*
X007184Y019447D01*
X006184Y019447D02*
X006184Y019027D01*
X004983Y017614D02*
X004896Y017614D01*
X004853Y017571D01*
X004732Y017571D02*
X004688Y017614D01*
X004558Y017614D01*
X004558Y017354D01*
X004688Y017354D01*
X004732Y017397D01*
X004732Y017571D01*
X004853Y017354D02*
X005026Y017527D01*
X005026Y017571D01*
X004983Y017614D01*
X005026Y017354D02*
X004853Y017354D01*
X004254Y015936D02*
X004254Y015762D01*
X004254Y015849D02*
X003994Y015849D01*
X004081Y015762D01*
X004037Y015641D02*
X004211Y015641D01*
X004254Y015598D01*
X004254Y015511D01*
X004211Y015467D01*
X004037Y015467D01*
X003994Y015511D01*
X003994Y015598D01*
X004037Y015641D01*
X004168Y015554D02*
X004254Y015641D01*
X005994Y015598D02*
X006037Y015641D01*
X006211Y015641D01*
X006254Y015598D01*
X006254Y015511D01*
X006211Y015467D01*
X006037Y015467D01*
X005994Y015511D01*
X005994Y015598D01*
X006037Y015762D02*
X005994Y015805D01*
X005994Y015892D01*
X006037Y015936D01*
X006081Y015936D01*
X006254Y015762D01*
X006254Y015936D01*
X006254Y015641D02*
X006168Y015554D01*
X007994Y015511D02*
X007994Y015598D01*
X008037Y015641D01*
X008211Y015641D01*
X008254Y015598D01*
X008254Y015511D01*
X008211Y015467D01*
X008037Y015467D01*
X007994Y015511D01*
X008168Y015554D02*
X008254Y015641D01*
X008211Y015762D02*
X008254Y015805D01*
X008254Y015892D01*
X008211Y015936D01*
X008168Y015936D01*
X008124Y015892D01*
X008124Y015849D01*
X008124Y015892D02*
X008081Y015936D01*
X008037Y015936D01*
X007994Y015892D01*
X007994Y015805D01*
X008037Y015762D01*
X009994Y015892D02*
X010124Y015762D01*
X010124Y015936D01*
X010254Y015892D02*
X009994Y015892D01*
X010037Y015641D02*
X010211Y015641D01*
X010254Y015598D01*
X010254Y015511D01*
X010211Y015467D01*
X010037Y015467D01*
X009994Y015511D01*
X009994Y015598D01*
X010037Y015641D01*
X010168Y015554D02*
X010254Y015641D01*
X011994Y015598D02*
X012037Y015641D01*
X012211Y015641D01*
X012254Y015598D01*
X012254Y015511D01*
X012211Y015467D01*
X012037Y015467D01*
X011994Y015511D01*
X011994Y015598D01*
X011994Y015762D02*
X012124Y015762D01*
X012081Y015849D01*
X012081Y015892D01*
X012124Y015936D01*
X012211Y015936D01*
X012254Y015892D01*
X012254Y015805D01*
X012211Y015762D01*
X012254Y015641D02*
X012168Y015554D01*
X011994Y015762D02*
X011994Y015936D01*
X013994Y015936D02*
X014037Y015849D01*
X014124Y015762D01*
X014124Y015892D01*
X014168Y015936D01*
X014211Y015936D01*
X014254Y015892D01*
X014254Y015805D01*
X014211Y015762D01*
X014124Y015762D01*
X014037Y015641D02*
X014211Y015641D01*
X014254Y015598D01*
X014254Y015511D01*
X014211Y015467D01*
X014037Y015467D01*
X013994Y015511D01*
X013994Y015598D01*
X014037Y015641D01*
X014168Y015554D02*
X014254Y015641D01*
X015994Y015598D02*
X016037Y015641D01*
X016211Y015641D01*
X016254Y015598D01*
X016254Y015511D01*
X016211Y015467D01*
X016037Y015467D01*
X015994Y015511D01*
X015994Y015598D01*
X015994Y015762D02*
X015994Y015936D01*
X016037Y015936D01*
X016211Y015762D01*
X016254Y015762D01*
X016254Y015641D02*
X016168Y015554D01*
X017474Y018737D02*
X017184Y019027D01*
X017184Y019447D01*
X017474Y019737D01*
X017894Y019737D01*
X018184Y019447D01*
X018474Y019737D01*
X018894Y019737D01*
X019184Y019447D01*
X019474Y019737D01*
X019894Y019737D01*
X020184Y019447D01*
X020184Y019027D01*
X019894Y018737D01*
X019474Y018737D01*
X019184Y019027D01*
X018894Y018737D01*
X018474Y018737D01*
X018184Y019027D01*
X017894Y018737D01*
X017474Y018737D01*
X018184Y019027D02*
X018184Y019447D01*
X019184Y019447D02*
X019184Y019027D01*
X021131Y017621D02*
X021131Y017361D01*
X021261Y017361D01*
X021305Y017404D01*
X021305Y017578D01*
X021261Y017621D01*
X021131Y017621D01*
X021426Y017621D02*
X021599Y017621D01*
X021599Y017578D01*
X021426Y017404D01*
X021426Y017361D01*
X020211Y015936D02*
X020037Y015936D01*
X019994Y015892D01*
X019994Y015805D01*
X020037Y015762D01*
X020081Y015762D01*
X020124Y015805D01*
X020124Y015936D01*
X020211Y015936D02*
X020254Y015892D01*
X020254Y015805D01*
X020211Y015762D01*
X020211Y015641D02*
X020037Y015641D01*
X019994Y015598D01*
X019994Y015511D01*
X020037Y015467D01*
X020211Y015467D01*
X020254Y015511D01*
X020254Y015598D01*
X020211Y015641D01*
X020254Y015641D02*
X020168Y015554D01*
X006643Y008414D02*
X006643Y008328D01*
X006600Y008284D01*
X006470Y008284D01*
X006556Y008284D02*
X006643Y008197D01*
X006594Y008047D02*
X006374Y008047D01*
X006374Y007727D01*
X006193Y007691D02*
X006150Y007647D01*
X006063Y007647D01*
X006020Y007691D01*
X006193Y007864D01*
X006193Y007691D01*
X006193Y007864D02*
X006150Y007908D01*
X006063Y007908D01*
X006020Y007864D01*
X006020Y007691D01*
X005898Y007647D02*
X005725Y007647D01*
X005812Y007647D02*
X005812Y007908D01*
X005725Y007821D01*
X005604Y007864D02*
X005604Y007691D01*
X005560Y007647D01*
X005430Y007647D01*
X005430Y007908D01*
X005560Y007908D01*
X005604Y007864D01*
X005600Y008197D02*
X005513Y008197D01*
X005470Y008241D01*
X005470Y008328D02*
X005556Y008371D01*
X005600Y008371D01*
X005643Y008328D01*
X005643Y008241D01*
X005600Y008197D01*
X005470Y008328D02*
X005470Y008458D01*
X005643Y008458D01*
X005880Y008458D02*
X005880Y008197D01*
X005880Y008284D02*
X006010Y008284D01*
X006054Y008328D01*
X006054Y008414D01*
X006010Y008458D01*
X005880Y008458D01*
X005814Y008637D02*
X005814Y009137D01*
X004754Y009137D01*
X004754Y008637D01*
X005814Y008637D01*
X006175Y008458D02*
X006175Y008197D01*
X006262Y008284D01*
X006348Y008197D01*
X006348Y008458D01*
X006470Y008458D02*
X006600Y008458D01*
X006643Y008414D01*
X006470Y008458D02*
X006470Y008197D01*
X006500Y009297D02*
X006370Y009297D01*
X006370Y009558D01*
X006500Y009558D01*
X006543Y009514D01*
X006543Y009471D01*
X006500Y009428D01*
X006370Y009428D01*
X006500Y009428D02*
X006543Y009384D01*
X006543Y009341D01*
X006500Y009297D01*
X005843Y009297D02*
X005843Y009471D01*
X005756Y009558D01*
X005670Y009471D01*
X005670Y009297D01*
X005670Y009428D02*
X005843Y009428D01*
X005243Y009558D02*
X005243Y009297D01*
X005070Y009558D01*
X005070Y009297D01*
X004948Y009341D02*
X004948Y009514D01*
X004905Y009558D01*
X004818Y009558D01*
X004775Y009514D01*
X004775Y009341D01*
X004818Y009297D01*
X004905Y009297D01*
X004948Y009341D01*
X004880Y008458D02*
X005010Y008458D01*
X005054Y008414D01*
X005054Y008328D01*
X005010Y008284D01*
X004880Y008284D01*
X004880Y008197D02*
X004880Y008458D01*
X004967Y008284D02*
X005054Y008197D01*
X005175Y008241D02*
X005218Y008197D01*
X005305Y008197D01*
X005348Y008241D01*
X005348Y008284D01*
X005305Y008328D01*
X005262Y008328D01*
X005305Y008328D02*
X005348Y008371D01*
X005348Y008414D01*
X005305Y008458D01*
X005218Y008458D01*
X005175Y008414D01*
X003834Y008787D02*
X003334Y008787D01*
D12*
X004384Y008287D03*
X004084Y015137D03*
X006084Y015137D03*
X008084Y015137D03*
X010084Y015137D03*
X012084Y015137D03*
X014084Y015137D03*
X016084Y015137D03*
X018084Y015137D03*
X020084Y015137D03*
X019234Y009837D03*
X016534Y006837D03*
D13*
X011558Y012292D02*
X011411Y012292D01*
X011338Y012366D01*
X011632Y012659D01*
X011632Y012366D01*
X011558Y012292D01*
X011338Y012366D02*
X011338Y012659D01*
X011411Y012733D01*
X011558Y012733D01*
X011632Y012659D01*
X011158Y012366D02*
X011158Y012292D01*
X011085Y012292D01*
X011085Y012366D01*
X011158Y012366D01*
X010872Y012292D02*
X010578Y012292D01*
X010725Y012292D02*
X010725Y012733D01*
X010578Y012586D01*
X010366Y012586D02*
X010219Y012292D01*
X010072Y012586D01*
X009353Y012659D02*
X009353Y012366D01*
X009279Y012292D01*
X009132Y012292D01*
X009059Y012366D01*
X009059Y012659D01*
X009132Y012733D01*
X009279Y012733D01*
X009353Y012659D01*
X008868Y012733D02*
X008721Y012733D01*
X008795Y012733D02*
X008795Y012292D01*
X008868Y012292D02*
X008721Y012292D01*
X008509Y012292D02*
X008362Y012439D01*
X008435Y012439D02*
X008215Y012439D01*
X008215Y012292D02*
X008215Y012733D01*
X008435Y012733D01*
X008509Y012659D01*
X008509Y012513D01*
X008435Y012439D01*
X008002Y012733D02*
X007709Y012733D01*
X007855Y012733D02*
X007855Y012292D01*
X007496Y012292D02*
X007496Y012586D01*
X007496Y012292D02*
X007276Y012292D01*
X007202Y012366D01*
X007202Y012586D01*
X006989Y012513D02*
X006989Y012292D01*
X006769Y012292D01*
X006696Y012366D01*
X006769Y012439D01*
X006989Y012439D01*
X006989Y012513D02*
X006916Y012586D01*
X006769Y012586D01*
X006483Y012439D02*
X006483Y012733D01*
X006189Y012733D02*
X006189Y012439D01*
X006336Y012292D01*
X006483Y012439D01*
D14*
X005734Y014767D02*
X005734Y016107D01*
X007634Y016107D01*
X007634Y014767D01*
X005734Y014767D01*
X005634Y014767D02*
X003734Y014767D01*
X003734Y016107D01*
X005634Y016107D01*
X005634Y014767D01*
X007734Y014767D02*
X007734Y016107D01*
X009634Y016107D01*
X009634Y014767D01*
X007734Y014767D01*
X009734Y014767D02*
X009734Y016107D01*
X011634Y016107D01*
X011634Y014767D01*
X009734Y014767D01*
X011734Y014767D02*
X011734Y016107D01*
X013634Y016107D01*
X013634Y014767D01*
X011734Y014767D01*
X013734Y014767D02*
X013734Y016107D01*
X015634Y016107D01*
X015634Y014767D01*
X013734Y014767D01*
X015734Y014767D02*
X015734Y016107D01*
X017634Y016107D01*
X017634Y014767D01*
X015734Y014767D01*
X017734Y014767D02*
X017734Y016107D01*
X019634Y016107D01*
X019634Y014767D01*
X017734Y014767D01*
X019734Y014767D02*
X019734Y016107D01*
X021634Y016107D01*
X021634Y014767D01*
X019734Y014767D01*
X020204Y010187D02*
X018864Y010187D01*
X018864Y008287D01*
X020204Y008287D01*
X020204Y010187D01*
X019284Y007628D02*
X021644Y007627D01*
X019284Y007628D02*
X019284Y005047D01*
X021644Y005047D01*
X016904Y006487D02*
X015564Y006487D01*
X015564Y008387D01*
X016904Y008387D01*
X016904Y006487D01*
X004564Y008856D02*
X004511Y008802D01*
X004564Y008856D02*
X004564Y008963D01*
X004511Y009016D01*
X004458Y009016D01*
X004404Y008963D01*
X004404Y008856D01*
X004351Y008802D01*
X004297Y008802D01*
X004244Y008856D01*
X004244Y008963D01*
X004297Y009016D01*
X004244Y009171D02*
X004564Y009171D01*
X004458Y009278D01*
X004564Y009384D01*
X004244Y009384D01*
X004244Y009539D02*
X004244Y009699D01*
X004297Y009753D01*
X004511Y009753D01*
X004564Y009699D01*
X004564Y009539D01*
X004244Y009539D01*
X009184Y019587D02*
X009184Y019887D01*
X009034Y019737D02*
X009334Y019737D01*
X015034Y019737D02*
X015334Y019737D01*
X015184Y019587D02*
X015184Y019887D01*
D15*
X014284Y017487D03*
X012284Y017487D03*
X008284Y017487D03*
X006284Y017487D03*
X018284Y017487D03*
X020284Y017487D03*
D16*
X019906Y019907D02*
X019773Y019907D01*
X019706Y019974D01*
X019840Y020108D02*
X019906Y020108D01*
X019973Y020041D01*
X019973Y019974D01*
X019906Y019907D01*
X019906Y020108D02*
X019973Y020174D01*
X019973Y020241D01*
X019906Y020308D01*
X019773Y020308D01*
X019706Y020241D01*
X019513Y020241D02*
X019513Y020108D01*
X019446Y020041D01*
X019246Y020041D01*
X019379Y020041D02*
X019513Y019907D01*
X019246Y019907D02*
X019246Y020308D01*
X019446Y020308D01*
X019513Y020241D01*
X019052Y020241D02*
X019052Y019974D01*
X018986Y019907D01*
X018852Y019907D01*
X018785Y019974D01*
X018785Y020241D01*
X018852Y020308D01*
X018986Y020308D01*
X019052Y020241D01*
X018592Y020308D02*
X018325Y020308D01*
X018459Y020308D02*
X018459Y019907D01*
X018132Y019974D02*
X018132Y020241D01*
X018065Y020308D01*
X017931Y020308D01*
X017865Y020241D01*
X017865Y019974D01*
X017931Y019907D01*
X018065Y019907D01*
X018132Y019974D01*
X017671Y019907D02*
X017671Y020308D01*
X017538Y020174D01*
X017404Y020308D01*
X017404Y019907D01*
X013973Y019907D02*
X013706Y019907D01*
X013973Y020174D01*
X013973Y020241D01*
X013906Y020308D01*
X013773Y020308D01*
X013706Y020241D01*
X013513Y020241D02*
X013513Y020108D01*
X013446Y020041D01*
X013246Y020041D01*
X013379Y020041D02*
X013513Y019907D01*
X013246Y019907D02*
X013246Y020308D01*
X013446Y020308D01*
X013513Y020241D01*
X013052Y020241D02*
X013052Y019974D01*
X012986Y019907D01*
X012852Y019907D01*
X012785Y019974D01*
X012785Y020241D01*
X012852Y020308D01*
X012986Y020308D01*
X013052Y020241D01*
X012592Y020308D02*
X012325Y020308D01*
X012459Y020308D02*
X012459Y019907D01*
X012132Y019974D02*
X012132Y020241D01*
X012065Y020308D01*
X011931Y020308D01*
X011865Y020241D01*
X011865Y019974D01*
X011931Y019907D01*
X012065Y019907D01*
X012132Y019974D01*
X011671Y019907D02*
X011671Y020308D01*
X011538Y020174D01*
X011404Y020308D01*
X011404Y019907D01*
X007973Y019907D02*
X007706Y019907D01*
X007840Y019907D02*
X007840Y020308D01*
X007706Y020174D01*
X007513Y020108D02*
X007513Y020241D01*
X007446Y020308D01*
X007246Y020308D01*
X007246Y019907D01*
X007246Y020041D02*
X007446Y020041D01*
X007513Y020108D01*
X007379Y020041D02*
X007513Y019907D01*
X007052Y019974D02*
X007052Y020241D01*
X006986Y020308D01*
X006852Y020308D01*
X006785Y020241D01*
X006785Y019974D01*
X006852Y019907D01*
X006986Y019907D01*
X007052Y019974D01*
X006592Y020308D02*
X006325Y020308D01*
X006459Y020308D02*
X006459Y019907D01*
X006132Y019974D02*
X006132Y020241D01*
X006065Y020308D01*
X005931Y020308D01*
X005865Y020241D01*
X005865Y019974D01*
X005931Y019907D01*
X006065Y019907D01*
X006132Y019974D01*
X005671Y019907D02*
X005671Y020308D01*
X005538Y020174D01*
X005404Y020308D01*
X005404Y019907D01*
X011164Y010216D02*
X013605Y010216D01*
X013713Y010108D01*
X013713Y007667D01*
X013605Y007559D01*
X011164Y007559D01*
X011056Y007667D01*
X011056Y010108D01*
X011164Y010216D01*
X003784Y005708D02*
X003784Y005508D01*
X003384Y005508D01*
X003384Y005708D01*
X003451Y005775D01*
X003517Y005775D01*
X003584Y005708D01*
X003584Y005508D01*
X003584Y005708D02*
X003651Y005775D01*
X003718Y005775D01*
X003784Y005708D01*
X003718Y005315D02*
X003784Y005248D01*
X003784Y005115D01*
X003718Y005048D01*
X003584Y005115D02*
X003584Y005248D01*
X003651Y005315D01*
X003718Y005315D01*
X003584Y005115D02*
X003517Y005048D01*
X003451Y005048D01*
X003384Y005115D01*
X003384Y005248D01*
X003451Y005315D01*
X003384Y004854D02*
X003718Y004854D01*
X003784Y004788D01*
X003784Y004654D01*
X003718Y004587D01*
X003384Y004587D01*
X018454Y003008D02*
X018588Y003008D01*
X018521Y003008D02*
X018521Y002607D01*
X018454Y002607D02*
X018588Y002607D01*
X018761Y002607D02*
X018761Y003008D01*
X018895Y002874D01*
X019028Y003008D01*
X019028Y002607D01*
X019222Y002674D02*
X019222Y003008D01*
X019489Y003008D02*
X019489Y002674D01*
X019422Y002607D01*
X019288Y002607D01*
X019222Y002674D01*
D17*
X015942Y017765D02*
X015684Y017765D01*
X015684Y017737D02*
X015876Y017751D01*
X016065Y017792D01*
X016245Y017859D01*
X016414Y017952D01*
X016568Y018067D01*
X016705Y018203D01*
X016820Y018358D01*
X016912Y018527D01*
X016980Y018707D01*
X017021Y018895D01*
X017034Y019087D01*
X017021Y019280D01*
X016980Y019468D01*
X016912Y019648D01*
X016820Y019817D01*
X016705Y019971D01*
X016568Y020108D01*
X016414Y020223D01*
X016245Y020315D01*
X016065Y020383D01*
X015876Y020424D01*
X015684Y020437D01*
X015684Y019087D01*
X015692Y019174D01*
X015714Y019258D01*
X015751Y019337D01*
X015801Y019409D01*
X015863Y019470D01*
X015934Y019520D01*
X016013Y019557D01*
X016097Y019580D01*
X016184Y019587D01*
X016271Y019580D01*
X016355Y019557D01*
X016434Y019520D01*
X016506Y019470D01*
X016567Y019409D01*
X016617Y019337D01*
X016654Y019258D01*
X016677Y019174D01*
X016684Y019087D01*
X016677Y019001D01*
X016654Y018916D01*
X016617Y018837D01*
X016567Y018766D01*
X016506Y018704D01*
X016434Y018654D01*
X016355Y018618D01*
X016271Y018595D01*
X016184Y018587D01*
X016097Y018595D01*
X016013Y018618D01*
X015934Y018654D01*
X015863Y018704D01*
X015801Y018766D01*
X015751Y018837D01*
X015714Y018916D01*
X015692Y019001D01*
X015684Y019087D01*
X015684Y017737D01*
X015684Y017814D02*
X016123Y017814D01*
X016251Y017862D02*
X015684Y017862D01*
X015684Y017911D02*
X016340Y017911D01*
X016425Y017959D02*
X015684Y017959D01*
X015684Y018008D02*
X016489Y018008D01*
X016554Y018056D02*
X015684Y018056D01*
X015684Y018105D02*
X016606Y018105D01*
X016655Y018153D02*
X015684Y018153D01*
X015684Y018202D02*
X016703Y018202D01*
X016740Y018250D02*
X015684Y018250D01*
X015684Y018299D02*
X016776Y018299D01*
X016812Y018347D02*
X015684Y018347D01*
X015684Y018396D02*
X016841Y018396D01*
X016867Y018444D02*
X015684Y018444D01*
X015684Y018493D02*
X016894Y018493D01*
X016918Y018541D02*
X015684Y018541D01*
X015684Y018590D02*
X016155Y018590D01*
X016214Y018590D02*
X016936Y018590D01*
X016954Y018638D02*
X016400Y018638D01*
X016481Y018687D02*
X016972Y018687D01*
X016986Y018735D02*
X016537Y018735D01*
X016580Y018784D02*
X016996Y018784D01*
X017007Y018832D02*
X016614Y018832D01*
X016638Y018881D02*
X017017Y018881D01*
X017023Y018929D02*
X016658Y018929D01*
X016671Y018978D02*
X017026Y018978D01*
X017030Y019026D02*
X016679Y019026D01*
X016683Y019075D02*
X017033Y019075D01*
X017032Y019123D02*
X016681Y019123D01*
X016677Y019172D02*
X017028Y019172D01*
X017025Y019220D02*
X016664Y019220D01*
X016649Y019269D02*
X017021Y019269D01*
X017012Y019317D02*
X016627Y019317D01*
X016597Y019366D02*
X017002Y019366D01*
X016991Y019414D02*
X016562Y019414D01*
X016513Y019463D02*
X016981Y019463D01*
X016963Y019511D02*
X016447Y019511D01*
X016345Y019560D02*
X016945Y019560D01*
X016927Y019608D02*
X015684Y019608D01*
X015684Y019560D02*
X016024Y019560D01*
X015922Y019511D02*
X015684Y019511D01*
X015684Y019463D02*
X015855Y019463D01*
X015807Y019414D02*
X015684Y019414D01*
X015684Y019366D02*
X015771Y019366D01*
X015742Y019317D02*
X015684Y019317D01*
X015684Y019269D02*
X015719Y019269D01*
X015704Y019220D02*
X015684Y019220D01*
X015684Y019172D02*
X015692Y019172D01*
X015684Y019123D02*
X015687Y019123D01*
X015684Y019075D02*
X015685Y019075D01*
X015684Y019026D02*
X015690Y019026D01*
X015684Y018978D02*
X015698Y018978D01*
X015684Y018929D02*
X015711Y018929D01*
X015731Y018881D02*
X015684Y018881D01*
X015684Y018832D02*
X015755Y018832D01*
X015789Y018784D02*
X015684Y018784D01*
X015684Y018735D02*
X015832Y018735D01*
X015888Y018687D02*
X015684Y018687D01*
X015684Y018638D02*
X015968Y018638D01*
X015684Y019657D02*
X016908Y019657D01*
X016881Y019705D02*
X015684Y019705D01*
X015684Y019754D02*
X016855Y019754D01*
X016828Y019802D02*
X015684Y019802D01*
X015684Y019851D02*
X016795Y019851D01*
X016758Y019899D02*
X015684Y019899D01*
X015684Y019948D02*
X016722Y019948D01*
X016680Y019996D02*
X015684Y019996D01*
X015684Y020045D02*
X016631Y020045D01*
X016583Y020093D02*
X015684Y020093D01*
X015684Y020142D02*
X016523Y020142D01*
X016458Y020190D02*
X015684Y020190D01*
X015684Y020239D02*
X016385Y020239D01*
X016296Y020288D02*
X015684Y020288D01*
X015684Y020336D02*
X016190Y020336D01*
X016056Y020385D02*
X015684Y020385D01*
X015684Y020433D02*
X015746Y020433D01*
X011002Y019366D02*
X010597Y019366D01*
X010617Y019337D02*
X010567Y019409D01*
X010506Y019470D01*
X010434Y019520D01*
X010355Y019557D01*
X010271Y019580D01*
X010184Y019587D01*
X010097Y019580D01*
X010013Y019557D01*
X009934Y019520D01*
X009863Y019470D01*
X009801Y019409D01*
X009751Y019337D01*
X009714Y019258D01*
X009692Y019174D01*
X009684Y019087D01*
X009684Y020437D01*
X009876Y020424D01*
X010065Y020383D01*
X010245Y020315D01*
X010414Y020223D01*
X010568Y020108D01*
X010705Y019971D01*
X010820Y019817D01*
X010912Y019648D01*
X010980Y019468D01*
X011021Y019280D01*
X011034Y019087D01*
X011021Y018895D01*
X010980Y018707D01*
X010912Y018527D01*
X010820Y018358D01*
X010705Y018203D01*
X010568Y018067D01*
X010414Y017952D01*
X010245Y017859D01*
X010065Y017792D01*
X009876Y017751D01*
X009684Y017737D01*
X009684Y019087D01*
X009692Y019001D01*
X009714Y018916D01*
X009751Y018837D01*
X009801Y018766D01*
X009863Y018704D01*
X009934Y018654D01*
X010013Y018618D01*
X010097Y018595D01*
X010184Y018587D01*
X010271Y018595D01*
X010355Y018618D01*
X010434Y018654D01*
X010506Y018704D01*
X010567Y018766D01*
X010617Y018837D01*
X010654Y018916D01*
X010677Y019001D01*
X010684Y019087D01*
X010677Y019174D01*
X010654Y019258D01*
X010617Y019337D01*
X010627Y019317D02*
X011012Y019317D01*
X011021Y019269D02*
X010649Y019269D01*
X010664Y019220D02*
X011025Y019220D01*
X011028Y019172D02*
X010677Y019172D01*
X010681Y019123D02*
X011032Y019123D01*
X011033Y019075D02*
X010683Y019075D01*
X010679Y019026D02*
X011030Y019026D01*
X011026Y018978D02*
X010671Y018978D01*
X010658Y018929D02*
X011023Y018929D01*
X011017Y018881D02*
X010638Y018881D01*
X010614Y018832D02*
X011007Y018832D01*
X010996Y018784D02*
X010580Y018784D01*
X010537Y018735D02*
X010986Y018735D01*
X010972Y018687D02*
X010481Y018687D01*
X010400Y018638D02*
X010954Y018638D01*
X010936Y018590D02*
X010214Y018590D01*
X010155Y018590D02*
X009684Y018590D01*
X009684Y018638D02*
X009968Y018638D01*
X009888Y018687D02*
X009684Y018687D01*
X009684Y018735D02*
X009832Y018735D01*
X009789Y018784D02*
X009684Y018784D01*
X009684Y018832D02*
X009755Y018832D01*
X009731Y018881D02*
X009684Y018881D01*
X009684Y018929D02*
X009711Y018929D01*
X009698Y018978D02*
X009684Y018978D01*
X009684Y019026D02*
X009690Y019026D01*
X009684Y019075D02*
X009685Y019075D01*
X009684Y019123D02*
X009687Y019123D01*
X009684Y019172D02*
X009692Y019172D01*
X009684Y019220D02*
X009704Y019220D01*
X009719Y019269D02*
X009684Y019269D01*
X009684Y019317D02*
X009742Y019317D01*
X009771Y019366D02*
X009684Y019366D01*
X009684Y019414D02*
X009807Y019414D01*
X009855Y019463D02*
X009684Y019463D01*
X009684Y019511D02*
X009922Y019511D01*
X010024Y019560D02*
X009684Y019560D01*
X009684Y019608D02*
X010927Y019608D01*
X010945Y019560D02*
X010345Y019560D01*
X010447Y019511D02*
X010963Y019511D01*
X010981Y019463D02*
X010513Y019463D01*
X010562Y019414D02*
X010991Y019414D01*
X010908Y019657D02*
X009684Y019657D01*
X009684Y019705D02*
X010881Y019705D01*
X010855Y019754D02*
X009684Y019754D01*
X009684Y019802D02*
X010828Y019802D01*
X010795Y019851D02*
X009684Y019851D01*
X009684Y019899D02*
X010758Y019899D01*
X010722Y019948D02*
X009684Y019948D01*
X009684Y019996D02*
X010680Y019996D01*
X010631Y020045D02*
X009684Y020045D01*
X009684Y020093D02*
X010583Y020093D01*
X010523Y020142D02*
X009684Y020142D01*
X009684Y020190D02*
X010458Y020190D01*
X010385Y020239D02*
X009684Y020239D01*
X009684Y020288D02*
X010296Y020288D01*
X010190Y020336D02*
X009684Y020336D01*
X009684Y020385D02*
X010056Y020385D01*
X009746Y020433D02*
X009684Y020433D01*
X009684Y018541D02*
X010918Y018541D01*
X010894Y018493D02*
X009684Y018493D01*
X009684Y018444D02*
X010867Y018444D01*
X010841Y018396D02*
X009684Y018396D01*
X009684Y018347D02*
X010812Y018347D01*
X010776Y018299D02*
X009684Y018299D01*
X009684Y018250D02*
X010740Y018250D01*
X010703Y018202D02*
X009684Y018202D01*
X009684Y018153D02*
X010655Y018153D01*
X010606Y018105D02*
X009684Y018105D01*
X009684Y018056D02*
X010554Y018056D01*
X010489Y018008D02*
X009684Y018008D01*
X009684Y017959D02*
X010425Y017959D01*
X010340Y017911D02*
X009684Y017911D01*
X009684Y017862D02*
X010251Y017862D01*
X010123Y017814D02*
X009684Y017814D01*
X009684Y017765D02*
X009942Y017765D01*
D18*
X011497Y009775D03*
D19*
X010234Y010787D02*
X010234Y008387D01*
X010232Y008330D01*
X010226Y008274D01*
X010217Y008218D01*
X010204Y008162D01*
X010187Y008108D01*
X010167Y008055D01*
X010143Y008004D01*
X010115Y007954D01*
X010085Y007906D01*
X010051Y007860D01*
X010014Y007817D01*
X009975Y007776D01*
X009933Y007738D01*
X009888Y007703D01*
X009841Y007671D01*
X009792Y007642D01*
X009742Y007616D01*
X009689Y007594D01*
X009636Y007575D01*
X009581Y007560D01*
X009525Y007549D01*
X009469Y007541D01*
X009412Y007537D01*
X009356Y007537D01*
X009299Y007541D01*
X009243Y007549D01*
X009187Y007560D01*
X009132Y007575D01*
X009079Y007594D01*
X009026Y007616D01*
X008976Y007642D01*
X008927Y007671D01*
X008880Y007703D01*
X008835Y007738D01*
X008793Y007776D01*
X008754Y007817D01*
X008717Y007860D01*
X008683Y007906D01*
X008653Y007954D01*
X008625Y008004D01*
X008601Y008055D01*
X008581Y008108D01*
X008564Y008162D01*
X008551Y008218D01*
X008542Y008274D01*
X008536Y008330D01*
X008534Y008387D01*
X008534Y010787D01*
X008536Y010844D01*
X008542Y010900D01*
X008551Y010956D01*
X008564Y011012D01*
X008581Y011066D01*
X008601Y011119D01*
X008625Y011170D01*
X008653Y011220D01*
X008683Y011268D01*
X008717Y011314D01*
X008754Y011357D01*
X008793Y011398D01*
X008835Y011436D01*
X008880Y011471D01*
X008927Y011503D01*
X008976Y011532D01*
X009026Y011558D01*
X009079Y011580D01*
X009132Y011599D01*
X009187Y011614D01*
X009243Y011625D01*
X009299Y011633D01*
X009356Y011637D01*
X009412Y011637D01*
X009469Y011633D01*
X009525Y011625D01*
X009581Y011614D01*
X009636Y011599D01*
X009689Y011580D01*
X009742Y011558D01*
X009792Y011532D01*
X009841Y011503D01*
X009888Y011471D01*
X009933Y011436D01*
X009975Y011398D01*
X010014Y011357D01*
X010051Y011314D01*
X010085Y011268D01*
X010115Y011220D01*
X010143Y011170D01*
X010167Y011119D01*
X010187Y011066D01*
X010204Y011012D01*
X010217Y010956D01*
X010226Y010900D01*
X010232Y010844D01*
X010234Y010787D01*
D20*
X021460Y007988D02*
X021833Y007988D01*
X021647Y008174D02*
X021647Y007801D01*
X021634Y011657D02*
X021634Y012031D01*
D21*
X019094Y006337D03*
D22*
X020159Y004087D03*
M02*
