G75*
%MOIN*%
%OFA0B0*%
%FSLAX24Y24*%
%IPPOS*%
%LPD*%
%AMOC8*
5,1,8,0,0,1.08239X$1,22.5*
%
%ADD10C,0.0000*%
%ADD11R,0.0197X0.0551*%
%ADD12R,0.0433X0.0433*%
%ADD13R,0.0315X0.0276*%
%ADD14OC8,0.0832*%
%ADD15C,0.0630*%
%ADD16R,0.0630X0.0630*%
%ADD17R,0.0472X0.0098*%
%ADD18R,0.0098X0.0472*%
%ADD19OC8,0.0673*%
%ADD20R,0.0255X0.0216*%
%ADD21R,0.0866X0.0709*%
%ADD22R,0.0984X0.0197*%
%ADD23R,0.0276X0.0315*%
%ADD24R,0.0216X0.0255*%
%ADD25R,0.0217X0.0315*%
%ADD26C,0.0524*%
%ADD27R,0.0551X0.0197*%
%ADD28C,0.1147*%
%ADD29R,0.1147X0.1147*%
%ADD30R,0.2441X0.2126*%
%ADD31R,0.0630X0.0394*%
%ADD32R,0.0945X0.1102*%
%ADD33C,0.0394*%
%ADD34R,0.0197X0.0315*%
%ADD35R,0.0117X0.0315*%
%ADD36R,0.0315X0.0197*%
%ADD37R,0.0315X0.0117*%
%ADD38R,0.0394X0.0512*%
%ADD39R,0.0314X0.0432*%
%ADD40R,0.0512X0.0394*%
%ADD41R,0.0432X0.0314*%
%ADD42R,0.0394X0.0472*%
%ADD43R,0.0472X0.0394*%
%ADD44C,0.0080*%
%ADD45C,0.0280*%
%ADD46C,0.0396*%
%ADD47C,0.0357*%
%ADD48C,0.0100*%
%ADD49C,0.0500*%
%ADD50C,0.0400*%
%ADD51C,0.0120*%
%ADD52C,0.0200*%
%ADD53C,0.0160*%
%ADD54C,0.0240*%
D10*
X002834Y001872D02*
X002834Y019588D01*
X003189Y019588D02*
X003191Y019638D01*
X003197Y019688D01*
X003207Y019737D01*
X003221Y019785D01*
X003238Y019832D01*
X003259Y019877D01*
X003284Y019921D01*
X003312Y019962D01*
X003344Y020001D01*
X003378Y020038D01*
X003415Y020072D01*
X003455Y020102D01*
X003497Y020129D01*
X003541Y020153D01*
X003587Y020174D01*
X003634Y020190D01*
X003682Y020203D01*
X003732Y020212D01*
X003781Y020217D01*
X003832Y020218D01*
X003882Y020215D01*
X003931Y020208D01*
X003980Y020197D01*
X004028Y020182D01*
X004074Y020164D01*
X004119Y020142D01*
X004162Y020116D01*
X004203Y020087D01*
X004242Y020055D01*
X004278Y020020D01*
X004310Y019982D01*
X004340Y019942D01*
X004367Y019899D01*
X004390Y019855D01*
X004409Y019809D01*
X004425Y019761D01*
X004437Y019712D01*
X004445Y019663D01*
X004449Y019613D01*
X004449Y019563D01*
X004445Y019513D01*
X004437Y019464D01*
X004425Y019415D01*
X004409Y019367D01*
X004390Y019321D01*
X004367Y019277D01*
X004340Y019234D01*
X004310Y019194D01*
X004278Y019156D01*
X004242Y019121D01*
X004203Y019089D01*
X004162Y019060D01*
X004119Y019034D01*
X004074Y019012D01*
X004028Y018994D01*
X003980Y018979D01*
X003931Y018968D01*
X003882Y018961D01*
X003832Y018958D01*
X003781Y018959D01*
X003732Y018964D01*
X003682Y018973D01*
X003634Y018986D01*
X003587Y019002D01*
X003541Y019023D01*
X003497Y019047D01*
X003455Y019074D01*
X003415Y019104D01*
X003378Y019138D01*
X003344Y019175D01*
X003312Y019214D01*
X003284Y019255D01*
X003259Y019299D01*
X003238Y019344D01*
X003221Y019391D01*
X003207Y019439D01*
X003197Y019488D01*
X003191Y019538D01*
X003189Y019588D01*
X002835Y019588D02*
X002837Y019650D01*
X002843Y019711D01*
X002852Y019772D01*
X002866Y019833D01*
X002883Y019892D01*
X002904Y019950D01*
X002929Y020007D01*
X002957Y020062D01*
X002988Y020115D01*
X003023Y020166D01*
X003061Y020215D01*
X003102Y020262D01*
X003145Y020305D01*
X003192Y020346D01*
X003241Y020384D01*
X003292Y020419D01*
X003345Y020450D01*
X003400Y020478D01*
X003457Y020503D01*
X003515Y020524D01*
X003574Y020541D01*
X003635Y020555D01*
X003696Y020564D01*
X003757Y020570D01*
X003819Y020572D01*
X021535Y020572D01*
X020905Y019588D02*
X020907Y019638D01*
X020913Y019688D01*
X020923Y019737D01*
X020937Y019785D01*
X020954Y019832D01*
X020975Y019877D01*
X021000Y019921D01*
X021028Y019962D01*
X021060Y020001D01*
X021094Y020038D01*
X021131Y020072D01*
X021171Y020102D01*
X021213Y020129D01*
X021257Y020153D01*
X021303Y020174D01*
X021350Y020190D01*
X021398Y020203D01*
X021448Y020212D01*
X021497Y020217D01*
X021548Y020218D01*
X021598Y020215D01*
X021647Y020208D01*
X021696Y020197D01*
X021744Y020182D01*
X021790Y020164D01*
X021835Y020142D01*
X021878Y020116D01*
X021919Y020087D01*
X021958Y020055D01*
X021994Y020020D01*
X022026Y019982D01*
X022056Y019942D01*
X022083Y019899D01*
X022106Y019855D01*
X022125Y019809D01*
X022141Y019761D01*
X022153Y019712D01*
X022161Y019663D01*
X022165Y019613D01*
X022165Y019563D01*
X022161Y019513D01*
X022153Y019464D01*
X022141Y019415D01*
X022125Y019367D01*
X022106Y019321D01*
X022083Y019277D01*
X022056Y019234D01*
X022026Y019194D01*
X021994Y019156D01*
X021958Y019121D01*
X021919Y019089D01*
X021878Y019060D01*
X021835Y019034D01*
X021790Y019012D01*
X021744Y018994D01*
X021696Y018979D01*
X021647Y018968D01*
X021598Y018961D01*
X021548Y018958D01*
X021497Y018959D01*
X021448Y018964D01*
X021398Y018973D01*
X021350Y018986D01*
X021303Y019002D01*
X021257Y019023D01*
X021213Y019047D01*
X021171Y019074D01*
X021131Y019104D01*
X021094Y019138D01*
X021060Y019175D01*
X021028Y019214D01*
X021000Y019255D01*
X020975Y019299D01*
X020954Y019344D01*
X020937Y019391D01*
X020923Y019439D01*
X020913Y019488D01*
X020907Y019538D01*
X020905Y019588D01*
X021535Y020572D02*
X021597Y020570D01*
X021658Y020564D01*
X021719Y020555D01*
X021780Y020541D01*
X021839Y020524D01*
X021897Y020503D01*
X021954Y020478D01*
X022009Y020450D01*
X022062Y020419D01*
X022113Y020384D01*
X022162Y020346D01*
X022209Y020305D01*
X022252Y020262D01*
X022293Y020215D01*
X022331Y020166D01*
X022366Y020115D01*
X022397Y020062D01*
X022425Y020007D01*
X022450Y019950D01*
X022471Y019892D01*
X022488Y019833D01*
X022502Y019772D01*
X022511Y019711D01*
X022517Y019650D01*
X022519Y019588D01*
X022519Y001872D01*
X020905Y001872D02*
X020907Y001922D01*
X020913Y001972D01*
X020923Y002021D01*
X020937Y002069D01*
X020954Y002116D01*
X020975Y002161D01*
X021000Y002205D01*
X021028Y002246D01*
X021060Y002285D01*
X021094Y002322D01*
X021131Y002356D01*
X021171Y002386D01*
X021213Y002413D01*
X021257Y002437D01*
X021303Y002458D01*
X021350Y002474D01*
X021398Y002487D01*
X021448Y002496D01*
X021497Y002501D01*
X021548Y002502D01*
X021598Y002499D01*
X021647Y002492D01*
X021696Y002481D01*
X021744Y002466D01*
X021790Y002448D01*
X021835Y002426D01*
X021878Y002400D01*
X021919Y002371D01*
X021958Y002339D01*
X021994Y002304D01*
X022026Y002266D01*
X022056Y002226D01*
X022083Y002183D01*
X022106Y002139D01*
X022125Y002093D01*
X022141Y002045D01*
X022153Y001996D01*
X022161Y001947D01*
X022165Y001897D01*
X022165Y001847D01*
X022161Y001797D01*
X022153Y001748D01*
X022141Y001699D01*
X022125Y001651D01*
X022106Y001605D01*
X022083Y001561D01*
X022056Y001518D01*
X022026Y001478D01*
X021994Y001440D01*
X021958Y001405D01*
X021919Y001373D01*
X021878Y001344D01*
X021835Y001318D01*
X021790Y001296D01*
X021744Y001278D01*
X021696Y001263D01*
X021647Y001252D01*
X021598Y001245D01*
X021548Y001242D01*
X021497Y001243D01*
X021448Y001248D01*
X021398Y001257D01*
X021350Y001270D01*
X021303Y001286D01*
X021257Y001307D01*
X021213Y001331D01*
X021171Y001358D01*
X021131Y001388D01*
X021094Y001422D01*
X021060Y001459D01*
X021028Y001498D01*
X021000Y001539D01*
X020975Y001583D01*
X020954Y001628D01*
X020937Y001675D01*
X020923Y001723D01*
X020913Y001772D01*
X020907Y001822D01*
X020905Y001872D01*
X021535Y000888D02*
X021597Y000890D01*
X021658Y000896D01*
X021719Y000905D01*
X021780Y000919D01*
X021839Y000936D01*
X021897Y000957D01*
X021954Y000982D01*
X022009Y001010D01*
X022062Y001041D01*
X022113Y001076D01*
X022162Y001114D01*
X022209Y001155D01*
X022252Y001198D01*
X022293Y001245D01*
X022331Y001294D01*
X022366Y001345D01*
X022397Y001398D01*
X022425Y001453D01*
X022450Y001510D01*
X022471Y001568D01*
X022488Y001627D01*
X022502Y001688D01*
X022511Y001749D01*
X022517Y001810D01*
X022519Y001872D01*
X021535Y000887D02*
X003819Y000887D01*
X003189Y001872D02*
X003191Y001922D01*
X003197Y001972D01*
X003207Y002021D01*
X003221Y002069D01*
X003238Y002116D01*
X003259Y002161D01*
X003284Y002205D01*
X003312Y002246D01*
X003344Y002285D01*
X003378Y002322D01*
X003415Y002356D01*
X003455Y002386D01*
X003497Y002413D01*
X003541Y002437D01*
X003587Y002458D01*
X003634Y002474D01*
X003682Y002487D01*
X003732Y002496D01*
X003781Y002501D01*
X003832Y002502D01*
X003882Y002499D01*
X003931Y002492D01*
X003980Y002481D01*
X004028Y002466D01*
X004074Y002448D01*
X004119Y002426D01*
X004162Y002400D01*
X004203Y002371D01*
X004242Y002339D01*
X004278Y002304D01*
X004310Y002266D01*
X004340Y002226D01*
X004367Y002183D01*
X004390Y002139D01*
X004409Y002093D01*
X004425Y002045D01*
X004437Y001996D01*
X004445Y001947D01*
X004449Y001897D01*
X004449Y001847D01*
X004445Y001797D01*
X004437Y001748D01*
X004425Y001699D01*
X004409Y001651D01*
X004390Y001605D01*
X004367Y001561D01*
X004340Y001518D01*
X004310Y001478D01*
X004278Y001440D01*
X004242Y001405D01*
X004203Y001373D01*
X004162Y001344D01*
X004119Y001318D01*
X004074Y001296D01*
X004028Y001278D01*
X003980Y001263D01*
X003931Y001252D01*
X003882Y001245D01*
X003832Y001242D01*
X003781Y001243D01*
X003732Y001248D01*
X003682Y001257D01*
X003634Y001270D01*
X003587Y001286D01*
X003541Y001307D01*
X003497Y001331D01*
X003455Y001358D01*
X003415Y001388D01*
X003378Y001422D01*
X003344Y001459D01*
X003312Y001498D01*
X003284Y001539D01*
X003259Y001583D01*
X003238Y001628D01*
X003221Y001675D01*
X003207Y001723D01*
X003197Y001772D01*
X003191Y001822D01*
X003189Y001872D01*
X002835Y001872D02*
X002837Y001810D01*
X002843Y001749D01*
X002852Y001688D01*
X002866Y001627D01*
X002883Y001568D01*
X002904Y001510D01*
X002929Y001453D01*
X002957Y001398D01*
X002988Y001345D01*
X003023Y001294D01*
X003061Y001245D01*
X003102Y001198D01*
X003145Y001155D01*
X003192Y001114D01*
X003241Y001076D01*
X003292Y001041D01*
X003345Y001010D01*
X003400Y000982D01*
X003457Y000957D01*
X003515Y000936D01*
X003574Y000919D01*
X003635Y000905D01*
X003696Y000896D01*
X003757Y000890D01*
X003819Y000888D01*
X004427Y004371D02*
X004429Y004396D01*
X004435Y004420D01*
X004444Y004442D01*
X004457Y004463D01*
X004473Y004482D01*
X004492Y004498D01*
X004513Y004511D01*
X004535Y004520D01*
X004559Y004526D01*
X004584Y004528D01*
X004609Y004526D01*
X004633Y004520D01*
X004655Y004511D01*
X004676Y004498D01*
X004695Y004482D01*
X004711Y004463D01*
X004724Y004442D01*
X004733Y004420D01*
X004739Y004396D01*
X004741Y004371D01*
X004739Y004346D01*
X004733Y004322D01*
X004724Y004300D01*
X004711Y004279D01*
X004695Y004260D01*
X004676Y004244D01*
X004655Y004231D01*
X004633Y004222D01*
X004609Y004216D01*
X004584Y004214D01*
X004559Y004216D01*
X004535Y004222D01*
X004513Y004231D01*
X004492Y004244D01*
X004473Y004260D01*
X004457Y004279D01*
X004444Y004300D01*
X004435Y004322D01*
X004429Y004346D01*
X004427Y004371D01*
X004427Y006104D02*
X004429Y006129D01*
X004435Y006153D01*
X004444Y006175D01*
X004457Y006196D01*
X004473Y006215D01*
X004492Y006231D01*
X004513Y006244D01*
X004535Y006253D01*
X004559Y006259D01*
X004584Y006261D01*
X004609Y006259D01*
X004633Y006253D01*
X004655Y006244D01*
X004676Y006231D01*
X004695Y006215D01*
X004711Y006196D01*
X004724Y006175D01*
X004733Y006153D01*
X004739Y006129D01*
X004741Y006104D01*
X004739Y006079D01*
X004733Y006055D01*
X004724Y006033D01*
X004711Y006012D01*
X004695Y005993D01*
X004676Y005977D01*
X004655Y005964D01*
X004633Y005955D01*
X004609Y005949D01*
X004584Y005947D01*
X004559Y005949D01*
X004535Y005955D01*
X004513Y005964D01*
X004492Y005977D01*
X004473Y005993D01*
X004457Y006012D01*
X004444Y006033D01*
X004435Y006055D01*
X004429Y006079D01*
X004427Y006104D01*
D11*
X004434Y014387D03*
X003934Y014387D03*
X004934Y014387D03*
X005434Y014387D03*
X005934Y014387D03*
X006434Y014387D03*
X006934Y014387D03*
X007434Y014387D03*
X007934Y014387D03*
X008434Y014387D03*
X008934Y014387D03*
X009434Y014387D03*
X009934Y014387D03*
X010434Y014387D03*
X010934Y014387D03*
X011434Y014387D03*
X011934Y014387D03*
X012434Y014387D03*
X012934Y014387D03*
X013434Y014387D03*
X013934Y014387D03*
X014434Y014387D03*
X014934Y014387D03*
X015434Y014387D03*
X015934Y014387D03*
X016434Y014387D03*
X016934Y014387D03*
X017434Y014387D03*
X017934Y014387D03*
X018434Y014387D03*
X018934Y014387D03*
X019434Y014387D03*
X019934Y014387D03*
X020434Y014387D03*
X020934Y014387D03*
X021434Y014387D03*
X021434Y016487D03*
X020934Y016487D03*
X020434Y016487D03*
X019934Y016487D03*
X019434Y016487D03*
X018934Y016487D03*
X018434Y016487D03*
X017934Y016487D03*
X017434Y016487D03*
X016934Y016487D03*
X016434Y016487D03*
X015934Y016487D03*
X015434Y016487D03*
X014934Y016487D03*
X014434Y016487D03*
X013934Y016487D03*
X013434Y016487D03*
X012934Y016487D03*
X012434Y016487D03*
X011934Y016487D03*
X011434Y016487D03*
X010934Y016487D03*
X010434Y016487D03*
X009934Y016487D03*
X009434Y016487D03*
X008934Y016487D03*
X008434Y016487D03*
X007934Y016487D03*
X007434Y016487D03*
X006934Y016487D03*
X006434Y016487D03*
X005934Y016487D03*
X005434Y016487D03*
X004934Y016487D03*
X004434Y016487D03*
X003934Y016487D03*
D12*
X005384Y017487D03*
X006784Y017487D03*
X007384Y017487D03*
X008784Y017487D03*
X011384Y017487D03*
X012784Y017487D03*
X013384Y017487D03*
X014784Y017487D03*
X017384Y017487D03*
X018784Y017487D03*
X019384Y017487D03*
X020784Y017487D03*
D13*
X020484Y013787D03*
X020484Y013187D03*
X019484Y013187D03*
X019484Y013787D03*
X018484Y013787D03*
X018484Y013187D03*
X017484Y013187D03*
X017484Y013787D03*
X016484Y013787D03*
X016484Y013187D03*
X015484Y013187D03*
X015484Y013787D03*
X014484Y013787D03*
X014484Y013187D03*
X013484Y013187D03*
X013484Y013787D03*
X012484Y013787D03*
X012484Y013187D03*
X011484Y013187D03*
X011484Y013787D03*
X010484Y013787D03*
X010484Y013187D03*
X009484Y013187D03*
X009484Y013787D03*
X008484Y013787D03*
X008484Y013187D03*
X007484Y013187D03*
X007484Y013787D03*
X006484Y013787D03*
X006484Y013187D03*
X005484Y013187D03*
X005484Y013787D03*
X004484Y013787D03*
X004484Y013187D03*
X005034Y011187D03*
X005734Y011187D03*
X006434Y011187D03*
X008084Y010437D03*
X008084Y008737D03*
X010734Y010487D03*
X014034Y007287D03*
X014534Y007287D03*
X014534Y006687D03*
X013884Y005387D03*
X013234Y005387D03*
X013234Y004787D03*
X012584Y004787D03*
X012584Y005387D03*
X011934Y005387D03*
X011284Y005387D03*
X011284Y004787D03*
X011934Y004787D03*
X008134Y005887D03*
X014684Y010387D03*
X015184Y010387D03*
X015184Y009787D03*
X016334Y010887D03*
X016834Y010887D03*
X016834Y011487D03*
X016334Y011487D03*
X018234Y006687D03*
X021484Y013187D03*
X021484Y013787D03*
D14*
X019684Y019237D03*
X018684Y019237D03*
X017684Y019237D03*
X013684Y019237D03*
X012684Y019237D03*
X011684Y019237D03*
X007684Y019237D03*
X006684Y019237D03*
X005684Y019237D03*
D15*
X010184Y019087D03*
X016184Y019087D03*
D16*
X015184Y019087D03*
X009184Y019087D03*
D17*
X010711Y009970D03*
X010711Y009773D03*
X010711Y009576D03*
X010711Y009380D03*
X010711Y009183D03*
X010711Y008986D03*
X010711Y008789D03*
X010711Y008592D03*
X010711Y008395D03*
X010711Y008198D03*
X010711Y008002D03*
X010711Y007805D03*
X014058Y007805D03*
X014058Y008002D03*
X014058Y008198D03*
X014058Y008395D03*
X014058Y008592D03*
X014058Y008789D03*
X014058Y008986D03*
X014058Y009183D03*
X014058Y009380D03*
X014058Y009576D03*
X014058Y009773D03*
X014058Y009970D03*
D18*
X013467Y010561D03*
X013270Y010561D03*
X013073Y010561D03*
X012876Y010561D03*
X012680Y010561D03*
X012483Y010561D03*
X012286Y010561D03*
X012089Y010561D03*
X011892Y010561D03*
X011695Y010561D03*
X011498Y010561D03*
X011302Y010561D03*
X011302Y007214D03*
X011498Y007214D03*
X011695Y007214D03*
X011892Y007214D03*
X012089Y007214D03*
X012286Y007214D03*
X012483Y007214D03*
X012680Y007214D03*
X012876Y007214D03*
X013073Y007214D03*
X013270Y007214D03*
X013467Y007214D03*
D19*
X013184Y003937D03*
X013184Y002937D03*
X013184Y001937D03*
X012184Y001937D03*
X012184Y002937D03*
X012184Y003937D03*
X010984Y003937D03*
X010984Y002937D03*
X010984Y001937D03*
X009984Y001937D03*
X009984Y002937D03*
X009984Y003937D03*
X008784Y003937D03*
X008784Y002937D03*
X008784Y001937D03*
X007784Y001937D03*
X007784Y002937D03*
X007784Y003937D03*
X006784Y003937D03*
X006784Y002937D03*
X006784Y001937D03*
X003584Y008287D03*
X003584Y009287D03*
X003584Y010287D03*
X003584Y011287D03*
X003584Y012287D03*
X014384Y003937D03*
X014384Y002937D03*
X015384Y001937D03*
X016384Y001937D03*
X017384Y001937D03*
X018384Y001937D03*
X019384Y001937D03*
D20*
X018234Y006087D03*
X014684Y009787D03*
X014034Y006687D03*
X013884Y004787D03*
X008134Y005287D03*
X008084Y009337D03*
X008084Y009837D03*
X006434Y011787D03*
X005734Y011787D03*
X005034Y011787D03*
X010734Y011087D03*
D21*
X005529Y007009D03*
X003403Y007009D03*
X003403Y003466D03*
X005529Y003466D03*
D22*
X005647Y004607D03*
X005647Y004922D03*
X005647Y005237D03*
X005647Y005552D03*
X005647Y005867D03*
D23*
X006484Y006087D03*
X006484Y005587D03*
X006484Y005087D03*
X007084Y005087D03*
X007084Y005587D03*
X007084Y006087D03*
X007084Y006587D03*
X005584Y008887D03*
X009784Y007137D03*
X009784Y005137D03*
X015184Y006137D03*
X016934Y006137D03*
X018234Y004837D03*
X016384Y003887D03*
X017234Y008987D03*
X017234Y009487D03*
X017234Y009987D03*
X017834Y009987D03*
D24*
X017834Y009487D03*
X017834Y008987D03*
X016334Y006137D03*
X015784Y006137D03*
X017634Y004837D03*
X015784Y003887D03*
X009184Y005137D03*
X009184Y007137D03*
X006484Y006587D03*
X004984Y008887D03*
D25*
X006564Y007337D03*
X007304Y007337D03*
X006934Y008237D03*
D26*
X009384Y008637D03*
X009384Y010537D03*
D27*
X015184Y008187D03*
X015184Y007687D03*
X015184Y007187D03*
X015184Y006687D03*
X017284Y006687D03*
X017284Y007187D03*
X017284Y007687D03*
X017284Y008187D03*
X018484Y008487D03*
X018484Y008987D03*
X018484Y009487D03*
X018484Y009987D03*
X020584Y009987D03*
X020584Y009487D03*
X020584Y008987D03*
X020584Y008487D03*
D28*
X021634Y010837D03*
D29*
X021634Y008937D03*
D30*
X021119Y006337D03*
D31*
X018245Y005440D03*
X018245Y007235D03*
D32*
X019394Y004087D03*
X021874Y004087D03*
D33*
X017434Y011537D03*
X015734Y011537D03*
D34*
X016260Y005537D03*
X017008Y005537D03*
X017008Y004437D03*
X016260Y004437D03*
D35*
X016634Y004437D03*
D36*
X009784Y005763D03*
X009784Y006511D03*
X008684Y006511D03*
X008684Y005763D03*
D37*
X008684Y006137D03*
D38*
X016934Y003787D03*
D39*
X017634Y003787D03*
D40*
X015534Y005487D03*
X010434Y007187D03*
X008034Y006437D03*
D41*
X008034Y007137D03*
X010434Y006487D03*
X015534Y004787D03*
D42*
X006834Y008887D03*
X006134Y008887D03*
D43*
X006434Y009937D03*
X005734Y009937D03*
X005034Y009937D03*
X005034Y010637D03*
X005734Y010637D03*
X006434Y010637D03*
D44*
X006154Y010974D02*
X006140Y010974D01*
X006084Y010918D01*
X006029Y010974D01*
X006014Y010974D01*
X006032Y010992D01*
X006032Y011383D01*
X005950Y011465D01*
X005519Y011465D01*
X005437Y011383D01*
X005437Y010992D01*
X005454Y010974D01*
X005440Y010974D01*
X005384Y010918D01*
X005329Y010974D01*
X005314Y010974D01*
X005332Y010992D01*
X005332Y011383D01*
X005250Y011465D01*
X004819Y011465D01*
X004737Y011383D01*
X004737Y010992D01*
X004754Y010974D01*
X004740Y010974D01*
X004658Y010892D01*
X004658Y010582D01*
X004524Y010716D01*
X004524Y011566D01*
X004413Y011677D01*
X004031Y012060D01*
X004061Y012090D01*
X004061Y012485D01*
X003782Y012764D01*
X003387Y012764D01*
X003108Y012485D01*
X003108Y012090D01*
X003387Y011811D01*
X003742Y011811D01*
X004144Y011409D01*
X004144Y010996D01*
X004056Y011085D01*
X004061Y011090D01*
X004061Y011485D01*
X003782Y011764D01*
X003387Y011764D01*
X003108Y011485D01*
X002974Y011485D01*
X002974Y011563D02*
X003186Y011563D01*
X003108Y011485D02*
X003108Y011090D01*
X003387Y010811D01*
X003782Y010811D01*
X003787Y010816D01*
X003944Y010659D01*
X003944Y009809D01*
X004244Y009509D01*
X004276Y009477D01*
X004061Y009477D01*
X004061Y009485D01*
X003782Y009764D01*
X003387Y009764D01*
X003108Y009485D01*
X003108Y009090D01*
X003387Y008811D01*
X003782Y008811D01*
X004061Y009090D01*
X004061Y009097D01*
X005307Y009097D01*
X005307Y008672D01*
X005389Y008590D01*
X005780Y008590D01*
X005797Y008607D01*
X005797Y008593D01*
X005879Y008511D01*
X006389Y008511D01*
X006471Y008593D01*
X006471Y009097D01*
X006497Y009097D01*
X006497Y008593D01*
X006579Y008511D01*
X006714Y008511D01*
X006714Y008481D01*
X006686Y008453D01*
X006686Y008022D01*
X006768Y007940D01*
X007101Y007940D01*
X007111Y007950D01*
X007364Y007696D01*
X007364Y007635D01*
X007138Y007635D01*
X007137Y007634D01*
X007093Y007677D01*
X006535Y007677D01*
X006255Y007957D01*
X004225Y007957D01*
X004061Y008122D01*
X004061Y008485D01*
X003782Y008764D01*
X003387Y008764D01*
X003108Y008485D01*
X003108Y008090D01*
X003387Y007811D01*
X003750Y007811D01*
X004043Y007517D01*
X006073Y007517D01*
X006274Y007316D01*
X006274Y007109D01*
X006386Y006997D01*
X007084Y006997D01*
X007084Y006899D01*
X007071Y006885D01*
X006889Y006885D01*
X006807Y006803D01*
X006807Y006372D01*
X006841Y006337D01*
X006807Y006303D01*
X006807Y005872D01*
X006841Y005837D01*
X006807Y005803D01*
X006807Y005372D01*
X006841Y005337D01*
X006807Y005303D01*
X006807Y004872D01*
X006889Y004790D01*
X007280Y004790D01*
X007362Y004872D01*
X007362Y004964D01*
X007376Y004950D01*
X007479Y004907D01*
X007590Y004907D01*
X007693Y004950D01*
X007772Y005029D01*
X007814Y005132D01*
X007814Y005243D01*
X007772Y005346D01*
X007730Y005387D01*
X007772Y005429D01*
X007814Y005532D01*
X007814Y005643D01*
X007772Y005746D01*
X007693Y005825D01*
X007590Y005867D01*
X007479Y005867D01*
X007376Y005825D01*
X007358Y005807D01*
X007328Y005837D01*
X007362Y005872D01*
X007362Y006303D01*
X007328Y006337D01*
X007362Y006372D01*
X007362Y006554D01*
X007484Y006676D01*
X007638Y006522D01*
X007638Y006183D01*
X007720Y006101D01*
X007844Y006101D01*
X007844Y006091D01*
X007837Y006083D01*
X007837Y005692D01*
X007919Y005610D01*
X007943Y005610D01*
X007956Y005597D01*
X008085Y005597D01*
X008122Y005560D01*
X008211Y005523D01*
X008732Y005523D01*
X008736Y005525D01*
X008900Y005525D01*
X008982Y005607D01*
X008982Y005920D01*
X008900Y006002D01*
X008736Y006002D01*
X008732Y006003D01*
X008432Y006003D01*
X008432Y006083D01*
X008424Y006091D01*
X008424Y006177D01*
X008430Y006183D01*
X008430Y006271D01*
X008732Y006271D01*
X008736Y006273D01*
X008900Y006273D01*
X008982Y006355D01*
X008982Y006668D01*
X008900Y006750D01*
X008736Y006750D01*
X008732Y006751D01*
X008371Y006751D01*
X008348Y006774D01*
X008316Y006774D01*
X008313Y006777D01*
X008005Y006777D01*
X007804Y006979D01*
X007804Y007879D01*
X007275Y008407D01*
X007183Y008407D01*
X007183Y008453D01*
X007154Y008481D01*
X007154Y008576D01*
X007171Y008593D01*
X007171Y009106D01*
X007373Y009307D01*
X007440Y009307D01*
X007494Y009330D01*
X007494Y008409D01*
X007794Y008109D01*
X007794Y008109D01*
X007906Y007997D01*
X009613Y007997D01*
X009724Y008109D01*
X010024Y008409D01*
X010024Y008599D01*
X011027Y008599D01*
X011017Y008573D01*
X011005Y008584D01*
X010791Y008584D01*
X010790Y008585D01*
X010313Y008585D01*
X010206Y008477D01*
X010094Y008366D01*
X010094Y007498D01*
X010038Y007442D01*
X010038Y007377D01*
X010038Y007377D01*
X009980Y007435D01*
X009589Y007435D01*
X009507Y007353D01*
X009507Y006922D01*
X009544Y006884D01*
X009544Y006725D01*
X009487Y006668D01*
X009487Y006355D01*
X009569Y006273D01*
X009628Y006273D01*
X009729Y006231D01*
X009840Y006231D01*
X009940Y006273D01*
X010000Y006273D01*
X010082Y006355D01*
X010082Y006668D01*
X010024Y006725D01*
X010024Y006884D01*
X010038Y006897D01*
X010074Y006897D01*
X010120Y006851D01*
X010748Y006851D01*
X010830Y006933D01*
X010830Y007198D01*
X010929Y007157D01*
X011040Y007157D01*
X011112Y007187D01*
X011112Y006433D01*
X011006Y006327D01*
X010756Y006327D01*
X010406Y005977D01*
X010294Y005866D01*
X010294Y005166D01*
X010156Y005027D01*
X010062Y005027D01*
X010062Y005353D01*
X010024Y005391D01*
X010024Y005549D01*
X010082Y005607D01*
X010082Y005920D01*
X010000Y006002D01*
X009836Y006002D01*
X009832Y006003D01*
X009737Y006003D01*
X009733Y006002D01*
X009569Y006002D01*
X009487Y005920D01*
X009487Y005607D01*
X009544Y005549D01*
X009544Y005391D01*
X009507Y005353D01*
X009507Y005027D01*
X009006Y005027D01*
X008806Y004827D01*
X008106Y004827D01*
X007906Y004627D01*
X007206Y004627D01*
X006987Y004409D01*
X006982Y004414D01*
X006587Y004414D01*
X006308Y004135D01*
X006308Y003740D01*
X006587Y003461D01*
X006982Y003461D01*
X007261Y003740D01*
X007261Y004135D01*
X007256Y004140D01*
X007363Y004247D01*
X007420Y004247D01*
X007308Y004135D01*
X007308Y003740D01*
X007587Y003461D01*
X007982Y003461D01*
X008261Y003740D01*
X008261Y004135D01*
X008256Y004140D01*
X008363Y004247D01*
X008420Y004247D01*
X008308Y004135D01*
X008308Y003740D01*
X008587Y003461D01*
X008982Y003461D01*
X009261Y003740D01*
X009261Y004135D01*
X009256Y004140D01*
X009363Y004247D01*
X009620Y004247D01*
X009508Y004135D01*
X009508Y003740D01*
X009787Y003461D01*
X010182Y003461D01*
X010461Y003740D01*
X010461Y003895D01*
X010508Y003942D01*
X010508Y003740D01*
X010787Y003461D01*
X011182Y003461D01*
X011461Y003740D01*
X011461Y004045D01*
X011925Y004510D01*
X012150Y004510D01*
X012232Y004592D01*
X012232Y004983D01*
X012150Y005065D01*
X011719Y005065D01*
X011637Y004983D01*
X011637Y004759D01*
X011582Y004704D01*
X011582Y004983D01*
X011500Y005065D01*
X011074Y005065D01*
X011074Y005110D01*
X011500Y005110D01*
X011582Y005192D01*
X011582Y005416D01*
X011637Y005471D01*
X011637Y005192D01*
X011719Y005110D01*
X012150Y005110D01*
X012232Y005192D01*
X012232Y005416D01*
X012259Y005444D01*
X012287Y005416D01*
X012287Y005192D01*
X012369Y005110D01*
X012800Y005110D01*
X012882Y005192D01*
X012882Y005471D01*
X012937Y005416D01*
X012937Y005192D01*
X013019Y005110D01*
X013450Y005110D01*
X013532Y005192D01*
X013532Y005471D01*
X013587Y005416D01*
X013587Y005192D01*
X013669Y005110D01*
X014100Y005110D01*
X014182Y005192D01*
X014182Y005221D01*
X014354Y005049D01*
X014354Y004982D01*
X014397Y004879D01*
X014476Y004800D01*
X014579Y004757D01*
X014690Y004757D01*
X014793Y004800D01*
X014872Y004879D01*
X014914Y004982D01*
X014914Y005093D01*
X014872Y005196D01*
X014830Y005237D01*
X014872Y005279D01*
X014914Y005382D01*
X014914Y005493D01*
X014872Y005596D01*
X014793Y005675D01*
X014690Y005717D01*
X014623Y005717D01*
X014374Y005966D01*
X014263Y006077D01*
X014063Y006077D01*
X013924Y006216D01*
X013813Y006327D01*
X013463Y006327D01*
X013263Y006527D01*
X013263Y007293D01*
X013263Y007294D01*
X013263Y007508D01*
X013180Y007590D01*
X012970Y007590D01*
X012993Y007600D01*
X013072Y007679D01*
X013114Y007782D01*
X013114Y007893D01*
X013072Y007996D01*
X012993Y008075D01*
X012890Y008117D01*
X012823Y008117D01*
X012174Y008766D01*
X012174Y008916D01*
X012063Y009027D01*
X011643Y009447D01*
X012944Y009447D01*
X012944Y008709D01*
X013277Y008376D01*
X013277Y007135D01*
X013278Y007135D01*
X013278Y006920D01*
X013360Y006838D01*
X013574Y006838D01*
X013656Y006920D01*
X013656Y007024D01*
X013804Y007024D01*
X013819Y007010D01*
X013973Y007010D01*
X013979Y007007D01*
X014031Y007007D01*
X014084Y006955D01*
X014084Y006855D01*
X014237Y006702D01*
X014237Y006492D01*
X014319Y006410D01*
X014750Y006410D01*
X014820Y006480D01*
X014851Y006449D01*
X014994Y006449D01*
X014994Y006435D01*
X014989Y006435D01*
X014907Y006353D01*
X014907Y005922D01*
X014944Y005884D01*
X014944Y005790D01*
X014981Y005701D01*
X015138Y005544D01*
X015138Y005233D01*
X015220Y005151D01*
X015848Y005151D01*
X015930Y005233D01*
X015930Y005297D01*
X016046Y005297D01*
X016104Y005240D01*
X016417Y005240D01*
X016499Y005322D01*
X016499Y005486D01*
X016500Y005490D01*
X016500Y005585D01*
X016499Y005589D01*
X016499Y005753D01*
X016417Y005835D01*
X016104Y005835D01*
X016046Y005777D01*
X015895Y005777D01*
X015848Y005824D01*
X015537Y005824D01*
X015451Y005910D01*
X015462Y005922D01*
X015462Y006353D01*
X015380Y006435D01*
X015374Y006435D01*
X015374Y006449D01*
X015518Y006449D01*
X015600Y006531D01*
X015600Y006844D01*
X015518Y006926D01*
X015374Y006926D01*
X015374Y006949D01*
X015518Y006949D01*
X015566Y006997D01*
X015639Y006997D01*
X015647Y006979D01*
X015726Y006900D01*
X015829Y006857D01*
X015940Y006857D01*
X016043Y006900D01*
X016122Y006979D01*
X016152Y007051D01*
X016706Y006497D01*
X016902Y006497D01*
X016951Y006449D01*
X017618Y006449D01*
X017700Y006531D01*
X017700Y006844D01*
X017618Y006926D01*
X016951Y006926D01*
X016902Y006877D01*
X016863Y006877D01*
X016743Y006997D01*
X016902Y006997D01*
X016951Y006949D01*
X017618Y006949D01*
X017700Y007031D01*
X017700Y007344D01*
X017618Y007426D01*
X016951Y007426D01*
X016902Y007377D01*
X016663Y007377D01*
X016620Y007420D01*
X016693Y007450D01*
X016740Y007497D01*
X016902Y007497D01*
X016951Y007449D01*
X017618Y007449D01*
X017700Y007531D01*
X017700Y007844D01*
X017618Y007926D01*
X016951Y007926D01*
X016902Y007877D01*
X016740Y007877D01*
X016693Y007925D01*
X016590Y007967D01*
X016479Y007967D01*
X016376Y007925D01*
X016297Y007846D01*
X016267Y007774D01*
X015913Y008127D01*
X015600Y008127D01*
X015600Y008344D01*
X015518Y008426D01*
X015477Y008426D01*
X016659Y009607D01*
X016764Y009713D01*
X016764Y010263D01*
X016909Y010407D01*
X017109Y010407D01*
X017309Y010607D01*
X020009Y010607D01*
X020259Y010857D01*
X020364Y010963D01*
X020364Y011821D01*
X020422Y011879D01*
X020464Y011982D01*
X020464Y012093D01*
X020422Y012196D01*
X020343Y012275D01*
X020240Y012317D01*
X020129Y012317D01*
X020026Y012275D01*
X019947Y012196D01*
X019904Y012093D01*
X019904Y011982D01*
X019947Y011879D01*
X020004Y011821D01*
X020004Y011313D01*
X019993Y011325D01*
X019890Y011367D01*
X019779Y011367D01*
X019676Y011325D01*
X019597Y011246D01*
X019564Y011167D01*
X019319Y011167D01*
X019359Y011207D01*
X019464Y011313D01*
X019464Y011821D01*
X019522Y011879D01*
X019564Y011982D01*
X019564Y012093D01*
X019522Y012196D01*
X019443Y012275D01*
X019340Y012317D01*
X019229Y012317D01*
X019126Y012275D01*
X019047Y012196D01*
X019004Y012093D01*
X019004Y011982D01*
X019047Y011879D01*
X019104Y011821D01*
X019104Y011462D01*
X019010Y011367D01*
X017729Y011367D01*
X017771Y011470D01*
X017771Y011604D01*
X017720Y011728D01*
X017625Y011823D01*
X017501Y011874D01*
X017367Y011874D01*
X017244Y011823D01*
X017149Y011728D01*
X017144Y011717D01*
X017098Y011717D01*
X017050Y011765D01*
X016619Y011765D01*
X016584Y011731D01*
X016550Y011765D01*
X016119Y011765D01*
X016071Y011717D01*
X016024Y011717D01*
X016020Y011728D01*
X015925Y011823D01*
X015801Y011874D01*
X015667Y011874D01*
X015544Y011823D01*
X015449Y011728D01*
X015397Y011604D01*
X015397Y011470D01*
X015449Y011347D01*
X015544Y011252D01*
X015667Y011201D01*
X015801Y011201D01*
X015925Y011252D01*
X016020Y011347D01*
X016024Y011357D01*
X016037Y011357D01*
X016037Y011292D01*
X016119Y011210D01*
X016402Y011210D01*
X016358Y011165D01*
X016119Y011165D01*
X016037Y011083D01*
X016037Y010844D01*
X016004Y010812D01*
X016004Y009962D01*
X015208Y009166D01*
X014981Y009166D01*
X015024Y009209D01*
X015274Y009459D01*
X015274Y009510D01*
X015400Y009510D01*
X015482Y009592D01*
X015482Y009983D01*
X015400Y010065D01*
X014969Y010065D01*
X014887Y009983D01*
X014887Y009609D01*
X014756Y009477D01*
X014740Y009477D01*
X014693Y009525D01*
X014590Y009567D01*
X014523Y009567D01*
X014521Y009570D01*
X014434Y009570D01*
X014434Y009684D01*
X014352Y009766D01*
X014137Y009766D01*
X014136Y009766D01*
X013601Y009766D01*
X013593Y009775D01*
X013580Y009780D01*
X014346Y009780D01*
X014346Y009781D01*
X014352Y009781D01*
X014434Y009863D01*
X014434Y009868D01*
X014673Y010107D01*
X014740Y010107D01*
X014745Y010110D01*
X014900Y010110D01*
X014934Y010144D01*
X014969Y010110D01*
X015400Y010110D01*
X015482Y010192D01*
X015482Y010583D01*
X015400Y010665D01*
X014969Y010665D01*
X014934Y010631D01*
X014900Y010665D01*
X014745Y010665D01*
X014740Y010667D01*
X014629Y010667D01*
X014623Y010665D01*
X014469Y010665D01*
X014387Y010583D01*
X014387Y010359D01*
X014188Y010160D01*
X013626Y010160D01*
X013657Y010191D01*
X013657Y010639D01*
X013656Y010640D01*
X013656Y010820D01*
X013676Y010800D01*
X013779Y010757D01*
X013890Y010757D01*
X013993Y010800D01*
X014072Y010879D01*
X014114Y010982D01*
X014114Y011093D01*
X014072Y011196D01*
X013993Y011275D01*
X013890Y011317D01*
X013779Y011317D01*
X013676Y011275D01*
X013618Y011217D01*
X013569Y011217D01*
X014159Y011807D01*
X014218Y011807D01*
X014276Y011750D01*
X014379Y011707D01*
X014490Y011707D01*
X014593Y011750D01*
X014672Y011829D01*
X014714Y011932D01*
X014714Y012043D01*
X014672Y012146D01*
X014593Y012225D01*
X014490Y012267D01*
X014379Y012267D01*
X014276Y012225D01*
X014218Y012167D01*
X014010Y012167D01*
X013904Y012062D01*
X013056Y011214D01*
X013056Y011505D01*
X013259Y011707D01*
X013340Y011707D01*
X013443Y011750D01*
X013522Y011829D01*
X013564Y011932D01*
X013564Y012043D01*
X013522Y012146D01*
X013443Y012225D01*
X013340Y012267D01*
X013229Y012267D01*
X013126Y012225D01*
X013047Y012146D01*
X013004Y012043D01*
X013004Y011962D01*
X012696Y011654D01*
X012696Y010937D01*
X012466Y010937D01*
X012466Y011160D01*
X012360Y011266D01*
X011709Y011917D01*
X011509Y011917D01*
X011309Y012117D01*
X010210Y012117D01*
X010104Y012012D01*
X010010Y011917D01*
X008759Y011917D01*
X008714Y011962D01*
X008714Y012043D01*
X008672Y012146D01*
X008593Y012225D01*
X008490Y012267D01*
X008379Y012267D01*
X008276Y012225D01*
X008197Y012146D01*
X008177Y012099D01*
X008109Y012167D01*
X007500Y012167D01*
X007443Y012225D01*
X007340Y012267D01*
X007229Y012267D01*
X007126Y012225D01*
X007047Y012146D01*
X007004Y012043D01*
X007004Y011932D01*
X007047Y011829D01*
X007126Y011750D01*
X007229Y011707D01*
X007340Y011707D01*
X007443Y011750D01*
X007500Y011807D01*
X007960Y011807D01*
X008250Y011517D01*
X008060Y011517D01*
X007954Y011412D01*
X007860Y011317D01*
X007779Y011317D01*
X007676Y011275D01*
X007597Y011196D01*
X007554Y011093D01*
X007554Y010982D01*
X007597Y010879D01*
X007676Y010800D01*
X007779Y010757D01*
X007890Y010757D01*
X007993Y010800D01*
X008072Y010879D01*
X008114Y010982D01*
X008114Y011063D01*
X008209Y011157D01*
X010309Y011157D01*
X010414Y011263D01*
X010509Y011357D01*
X010960Y011357D01*
X011054Y011263D01*
X011160Y011157D01*
X011360Y011157D01*
X011515Y011002D01*
X011515Y010864D01*
X011506Y010855D01*
X011506Y010266D01*
X011588Y010184D01*
X011649Y010184D01*
X011626Y010175D01*
X011547Y010096D01*
X011532Y010059D01*
X011430Y010160D01*
X010924Y010160D01*
X010924Y010210D01*
X010950Y010210D01*
X011032Y010292D01*
X011032Y010371D01*
X011112Y010371D01*
X011112Y010266D01*
X011194Y010184D01*
X011409Y010184D01*
X011491Y010266D01*
X011491Y010481D01*
X011492Y010482D01*
X011492Y010639D01*
X011491Y010640D01*
X011491Y010855D01*
X011409Y010937D01*
X011194Y010937D01*
X011112Y010855D01*
X011112Y010751D01*
X010964Y010751D01*
X010950Y010765D01*
X010795Y010765D01*
X010790Y010767D01*
X010679Y010767D01*
X010673Y010765D01*
X010519Y010765D01*
X010437Y010683D01*
X010437Y010292D01*
X010519Y010210D01*
X010544Y010210D01*
X010544Y010159D01*
X010417Y010159D01*
X010335Y010077D01*
X010335Y009363D01*
X009814Y009363D01*
X009564Y009612D01*
X009564Y010177D01*
X009612Y010197D01*
X009725Y010310D01*
X009786Y010457D01*
X009786Y010617D01*
X009725Y010765D01*
X009612Y010878D01*
X009464Y010939D01*
X009304Y010939D01*
X009157Y010878D01*
X009044Y010765D01*
X009024Y010717D01*
X008110Y010717D01*
X008108Y010715D01*
X007869Y010715D01*
X007787Y010633D01*
X007787Y010242D01*
X007869Y010160D01*
X008300Y010160D01*
X008382Y010242D01*
X008382Y010357D01*
X009024Y010357D01*
X009044Y010310D01*
X009157Y010197D01*
X009204Y010177D01*
X009204Y009463D01*
X009310Y009357D01*
X009580Y009087D01*
X009512Y009019D01*
X009464Y009039D01*
X009304Y009039D01*
X009157Y008978D01*
X009044Y008865D01*
X009024Y008817D01*
X008382Y008817D01*
X008382Y008933D01*
X008300Y009015D01*
X007874Y009015D01*
X007874Y009816D01*
X007763Y009927D01*
X007613Y010077D01*
X007263Y010077D01*
X006863Y010477D01*
X006811Y010477D01*
X006811Y010892D01*
X006729Y010974D01*
X006714Y010974D01*
X006732Y010992D01*
X006732Y011383D01*
X006650Y011465D01*
X006219Y011465D01*
X006137Y011383D01*
X006137Y010992D01*
X006154Y010974D01*
X006137Y011014D02*
X006032Y011014D01*
X006032Y011092D02*
X006137Y011092D01*
X006137Y011171D02*
X006032Y011171D01*
X006032Y011249D02*
X006137Y011249D01*
X006137Y011328D02*
X006032Y011328D01*
X006009Y011406D02*
X006160Y011406D01*
X006101Y010935D02*
X006067Y010935D01*
X005437Y011014D02*
X005332Y011014D01*
X005332Y011092D02*
X005437Y011092D01*
X005437Y011171D02*
X005332Y011171D01*
X005332Y011249D02*
X005437Y011249D01*
X005437Y011328D02*
X005332Y011328D01*
X005309Y011406D02*
X005460Y011406D01*
X005401Y010935D02*
X005367Y010935D01*
X004737Y011014D02*
X004524Y011014D01*
X004524Y011092D02*
X004737Y011092D01*
X004737Y011171D02*
X004524Y011171D01*
X004524Y011249D02*
X004737Y011249D01*
X004737Y011328D02*
X004524Y011328D01*
X004524Y011406D02*
X004760Y011406D01*
X004524Y011485D02*
X008027Y011485D01*
X007949Y011406D02*
X006709Y011406D01*
X006732Y011328D02*
X007870Y011328D01*
X007650Y011249D02*
X006732Y011249D01*
X006732Y011171D02*
X007587Y011171D01*
X007554Y011092D02*
X006732Y011092D01*
X006732Y011014D02*
X007554Y011014D01*
X007573Y010935D02*
X006767Y010935D01*
X006811Y010857D02*
X007619Y010857D01*
X007728Y010778D02*
X006811Y010778D01*
X006811Y010700D02*
X007854Y010700D01*
X007787Y010621D02*
X006811Y010621D01*
X006811Y010543D02*
X007787Y010543D01*
X007787Y010464D02*
X006876Y010464D01*
X006954Y010386D02*
X007787Y010386D01*
X007787Y010307D02*
X007033Y010307D01*
X007111Y010229D02*
X007800Y010229D01*
X007618Y010072D02*
X009204Y010072D01*
X009204Y010150D02*
X007190Y010150D01*
X007697Y009993D02*
X009204Y009993D01*
X009204Y009915D02*
X007775Y009915D01*
X007854Y009836D02*
X009204Y009836D01*
X009204Y009758D02*
X007874Y009758D01*
X007874Y009679D02*
X009204Y009679D01*
X009204Y009601D02*
X007874Y009601D01*
X007874Y009522D02*
X009204Y009522D01*
X009223Y009444D02*
X007874Y009444D01*
X007874Y009365D02*
X009302Y009365D01*
X009380Y009287D02*
X007874Y009287D01*
X007874Y009208D02*
X009459Y009208D01*
X009537Y009130D02*
X007874Y009130D01*
X007874Y009051D02*
X009544Y009051D01*
X009733Y008986D02*
X009384Y008637D01*
X008184Y008637D01*
X008084Y008737D01*
X008382Y008894D02*
X009073Y008894D01*
X009152Y008973D02*
X008342Y008973D01*
X007494Y008973D02*
X007171Y008973D01*
X007171Y009051D02*
X007494Y009051D01*
X007494Y009130D02*
X007196Y009130D01*
X007274Y009208D02*
X007494Y009208D01*
X007494Y009287D02*
X007353Y009287D01*
X007494Y008894D02*
X007171Y008894D01*
X007171Y008816D02*
X007494Y008816D01*
X007494Y008737D02*
X007171Y008737D01*
X007171Y008659D02*
X007494Y008659D01*
X007494Y008580D02*
X007158Y008580D01*
X007154Y008502D02*
X007494Y008502D01*
X007494Y008423D02*
X007183Y008423D01*
X007338Y008345D02*
X007558Y008345D01*
X007637Y008266D02*
X007416Y008266D01*
X007495Y008188D02*
X007715Y008188D01*
X007794Y008109D02*
X007573Y008109D01*
X007652Y008031D02*
X007872Y008031D01*
X007730Y007952D02*
X010094Y007952D01*
X010094Y007874D02*
X007804Y007874D01*
X007804Y007795D02*
X010094Y007795D01*
X010094Y007717D02*
X007804Y007717D01*
X007804Y007638D02*
X010094Y007638D01*
X010094Y007560D02*
X007804Y007560D01*
X007804Y007481D02*
X010078Y007481D01*
X010038Y007403D02*
X010012Y007403D01*
X009557Y007403D02*
X007804Y007403D01*
X007804Y007324D02*
X009507Y007324D01*
X009507Y007246D02*
X007804Y007246D01*
X007804Y007167D02*
X009507Y007167D01*
X009507Y007089D02*
X007804Y007089D01*
X007804Y007010D02*
X009507Y007010D01*
X009507Y006932D02*
X007851Y006932D01*
X007929Y006853D02*
X009544Y006853D01*
X009544Y006775D02*
X008315Y006775D01*
X008430Y006225D02*
X010654Y006225D01*
X010575Y006147D02*
X008424Y006147D01*
X008432Y006068D02*
X010497Y006068D01*
X010418Y005990D02*
X010012Y005990D01*
X010082Y005911D02*
X010340Y005911D01*
X010294Y005833D02*
X010082Y005833D01*
X010082Y005754D02*
X010294Y005754D01*
X010294Y005676D02*
X010082Y005676D01*
X010072Y005597D02*
X010294Y005597D01*
X010294Y005519D02*
X010024Y005519D01*
X010024Y005440D02*
X010294Y005440D01*
X010294Y005362D02*
X010053Y005362D01*
X010062Y005283D02*
X010294Y005283D01*
X010294Y005205D02*
X010062Y005205D01*
X010062Y005126D02*
X010255Y005126D01*
X010176Y005048D02*
X010062Y005048D01*
X009507Y005048D02*
X007780Y005048D01*
X007812Y005126D02*
X009507Y005126D01*
X009507Y005205D02*
X007814Y005205D01*
X007798Y005283D02*
X009507Y005283D01*
X009516Y005362D02*
X007756Y005362D01*
X007777Y005440D02*
X009544Y005440D01*
X009544Y005519D02*
X007809Y005519D01*
X007814Y005597D02*
X007956Y005597D01*
X007853Y005676D02*
X007801Y005676D01*
X007837Y005754D02*
X007763Y005754D01*
X007837Y005833D02*
X007673Y005833D01*
X007837Y005911D02*
X007362Y005911D01*
X007362Y005990D02*
X007837Y005990D01*
X007837Y006068D02*
X007362Y006068D01*
X007362Y006147D02*
X007674Y006147D01*
X007638Y006225D02*
X007362Y006225D01*
X007361Y006304D02*
X007638Y006304D01*
X007638Y006382D02*
X007362Y006382D01*
X007362Y006461D02*
X007638Y006461D01*
X007621Y006539D02*
X007362Y006539D01*
X007426Y006618D02*
X007543Y006618D01*
X007084Y006932D02*
X002974Y006932D01*
X002974Y007010D02*
X006373Y007010D01*
X006294Y007089D02*
X002974Y007089D01*
X002974Y007167D02*
X006274Y007167D01*
X006274Y007246D02*
X002974Y007246D01*
X002974Y007324D02*
X006266Y007324D01*
X006188Y007403D02*
X002974Y007403D01*
X002974Y007481D02*
X006109Y007481D01*
X006496Y007717D02*
X007344Y007717D01*
X007364Y007638D02*
X007132Y007638D01*
X007265Y007795D02*
X006417Y007795D01*
X006339Y007874D02*
X007187Y007874D01*
X006756Y007952D02*
X006260Y007952D01*
X006686Y008031D02*
X004152Y008031D01*
X004073Y008109D02*
X006686Y008109D01*
X006686Y008188D02*
X004061Y008188D01*
X004061Y008266D02*
X006686Y008266D01*
X006686Y008345D02*
X004061Y008345D01*
X004061Y008423D02*
X006686Y008423D01*
X006714Y008502D02*
X004044Y008502D01*
X003965Y008580D02*
X005810Y008580D01*
X005320Y008659D02*
X003887Y008659D01*
X003808Y008737D02*
X005307Y008737D01*
X005307Y008816D02*
X003787Y008816D01*
X003865Y008894D02*
X005307Y008894D01*
X005307Y008973D02*
X003944Y008973D01*
X004022Y009051D02*
X005307Y009051D01*
X004231Y009522D02*
X004023Y009522D01*
X003945Y009601D02*
X004152Y009601D01*
X004074Y009679D02*
X003866Y009679D01*
X003788Y009758D02*
X003995Y009758D01*
X003944Y009836D02*
X002974Y009836D01*
X002974Y009758D02*
X003381Y009758D01*
X003302Y009679D02*
X002974Y009679D01*
X002974Y009601D02*
X003224Y009601D01*
X003145Y009522D02*
X002974Y009522D01*
X002974Y009444D02*
X003108Y009444D01*
X003108Y009365D02*
X002974Y009365D01*
X002974Y009287D02*
X003108Y009287D01*
X003108Y009208D02*
X002974Y009208D01*
X002974Y009130D02*
X003108Y009130D01*
X003146Y009051D02*
X002974Y009051D01*
X002974Y008973D02*
X003225Y008973D01*
X003303Y008894D02*
X002974Y008894D01*
X002974Y008816D02*
X003382Y008816D01*
X003360Y008737D02*
X002974Y008737D01*
X002974Y008659D02*
X003282Y008659D01*
X003203Y008580D02*
X002974Y008580D01*
X002974Y008502D02*
X003125Y008502D01*
X003108Y008423D02*
X002974Y008423D01*
X002974Y008345D02*
X003108Y008345D01*
X003108Y008266D02*
X002974Y008266D01*
X002974Y008188D02*
X003108Y008188D01*
X003108Y008109D02*
X002974Y008109D01*
X002974Y008031D02*
X003167Y008031D01*
X003245Y007952D02*
X002974Y007952D01*
X002974Y007874D02*
X003324Y007874D01*
X002974Y007795D02*
X003765Y007795D01*
X003844Y007717D02*
X002974Y007717D01*
X002974Y007638D02*
X003922Y007638D01*
X004001Y007560D02*
X002974Y007560D01*
X002974Y006853D02*
X006857Y006853D01*
X006807Y006775D02*
X002974Y006775D01*
X002974Y006696D02*
X006807Y006696D01*
X006807Y006618D02*
X002974Y006618D01*
X002974Y006539D02*
X006807Y006539D01*
X006807Y006461D02*
X002974Y006461D01*
X002974Y006382D02*
X004480Y006382D01*
X004525Y006401D02*
X004416Y006356D01*
X004332Y006272D01*
X004287Y006163D01*
X004287Y006044D01*
X004332Y005935D01*
X004416Y005851D01*
X004525Y005806D01*
X004643Y005806D01*
X004753Y005851D01*
X004837Y005935D01*
X004882Y006044D01*
X004882Y006163D01*
X004837Y006272D01*
X004753Y006356D01*
X004643Y006401D01*
X004525Y006401D01*
X004688Y006382D02*
X006286Y006382D01*
X006289Y006385D02*
X006207Y006303D01*
X006207Y006257D01*
X006193Y006257D01*
X006064Y006129D01*
X006042Y006106D01*
X005097Y006106D01*
X005015Y006024D01*
X005015Y005711D01*
X005016Y005710D01*
X005015Y005709D01*
X005015Y005396D01*
X005016Y005395D01*
X005015Y005394D01*
X005015Y005081D01*
X005016Y005080D01*
X005015Y005079D01*
X005015Y004766D01*
X005097Y004684D01*
X006197Y004684D01*
X006279Y004766D01*
X006279Y004799D01*
X006289Y004790D01*
X006680Y004790D01*
X006762Y004872D01*
X006762Y005303D01*
X006728Y005337D01*
X006762Y005372D01*
X006762Y005803D01*
X006728Y005837D01*
X006762Y005872D01*
X006762Y006303D01*
X006680Y006385D01*
X006289Y006385D01*
X006208Y006304D02*
X004805Y006304D01*
X004856Y006225D02*
X006161Y006225D01*
X006083Y006147D02*
X004882Y006147D01*
X004882Y006068D02*
X005060Y006068D01*
X005015Y005990D02*
X004859Y005990D01*
X004813Y005911D02*
X005015Y005911D01*
X005015Y005833D02*
X004708Y005833D01*
X004460Y005833D02*
X002974Y005833D01*
X002974Y005911D02*
X004356Y005911D01*
X004309Y005990D02*
X002974Y005990D01*
X002974Y006068D02*
X004287Y006068D01*
X004287Y006147D02*
X002974Y006147D01*
X002974Y006225D02*
X004313Y006225D01*
X004364Y006304D02*
X002974Y006304D01*
X002974Y005754D02*
X005015Y005754D01*
X005015Y005676D02*
X002974Y005676D01*
X002974Y005597D02*
X005015Y005597D01*
X005015Y005519D02*
X002974Y005519D01*
X002974Y005440D02*
X005015Y005440D01*
X005015Y005362D02*
X002974Y005362D01*
X002974Y005283D02*
X005015Y005283D01*
X005015Y005205D02*
X002974Y005205D01*
X002974Y005126D02*
X005015Y005126D01*
X005015Y005048D02*
X002974Y005048D01*
X002974Y004969D02*
X005015Y004969D01*
X005015Y004891D02*
X002974Y004891D01*
X002974Y004812D02*
X005015Y004812D01*
X005047Y004734D02*
X002974Y004734D01*
X002974Y004655D02*
X004493Y004655D01*
X004525Y004669D02*
X004416Y004623D01*
X004332Y004540D01*
X004287Y004430D01*
X004287Y004312D01*
X004332Y004203D01*
X004416Y004119D01*
X004525Y004074D01*
X004643Y004074D01*
X004753Y004119D01*
X004837Y004203D01*
X004882Y004312D01*
X004882Y004430D01*
X004837Y004540D01*
X004753Y004623D01*
X004643Y004669D01*
X004525Y004669D01*
X004676Y004655D02*
X007934Y004655D01*
X008012Y004734D02*
X006247Y004734D01*
X006703Y004812D02*
X006866Y004812D01*
X006807Y004891D02*
X006762Y004891D01*
X006762Y004969D02*
X006807Y004969D01*
X006807Y005048D02*
X006762Y005048D01*
X006762Y005126D02*
X006807Y005126D01*
X006807Y005205D02*
X006762Y005205D01*
X006762Y005283D02*
X006807Y005283D01*
X006817Y005362D02*
X006752Y005362D01*
X006762Y005440D02*
X006807Y005440D01*
X006807Y005519D02*
X006762Y005519D01*
X006762Y005597D02*
X006807Y005597D01*
X006807Y005676D02*
X006762Y005676D01*
X006762Y005754D02*
X006807Y005754D01*
X006837Y005833D02*
X006732Y005833D01*
X006762Y005911D02*
X006807Y005911D01*
X006807Y005990D02*
X006762Y005990D01*
X006762Y006068D02*
X006807Y006068D01*
X006807Y006147D02*
X006762Y006147D01*
X006762Y006225D02*
X006807Y006225D01*
X006808Y006304D02*
X006761Y006304D01*
X006807Y006382D02*
X006683Y006382D01*
X007332Y005833D02*
X007395Y005833D01*
X007712Y004969D02*
X008948Y004969D01*
X008869Y004891D02*
X007362Y004891D01*
X007303Y004812D02*
X008091Y004812D01*
X008300Y004184D02*
X008357Y004184D01*
X008308Y004106D02*
X008261Y004106D01*
X008261Y004027D02*
X008308Y004027D01*
X008308Y003949D02*
X008261Y003949D01*
X008261Y003870D02*
X008308Y003870D01*
X008308Y003792D02*
X008261Y003792D01*
X008234Y003713D02*
X008334Y003713D01*
X008413Y003635D02*
X008156Y003635D01*
X008077Y003556D02*
X008491Y003556D01*
X008570Y003478D02*
X007999Y003478D01*
X007982Y003414D02*
X008198Y003197D01*
X008370Y003197D01*
X008587Y003414D01*
X008982Y003414D01*
X009261Y003135D01*
X009261Y002740D01*
X008982Y002461D01*
X008587Y002461D01*
X008370Y002677D01*
X008198Y002677D01*
X007982Y002461D01*
X007587Y002461D01*
X007370Y002677D01*
X007198Y002677D01*
X006982Y002461D01*
X006587Y002461D01*
X006308Y002740D01*
X006308Y003135D01*
X006587Y003414D01*
X006982Y003414D01*
X007198Y003197D01*
X007370Y003197D01*
X007587Y003414D01*
X007982Y003414D01*
X007996Y003399D02*
X008572Y003399D01*
X008494Y003321D02*
X008075Y003321D01*
X008153Y003242D02*
X008415Y003242D01*
X008433Y002614D02*
X008135Y002614D01*
X008057Y002536D02*
X008512Y002536D01*
X009057Y002536D02*
X009712Y002536D01*
X009787Y002461D02*
X010182Y002461D01*
X010268Y002547D01*
X010700Y002547D01*
X010787Y002461D01*
X011182Y002461D01*
X011268Y002547D01*
X011900Y002547D01*
X011987Y002461D01*
X012382Y002461D01*
X012468Y002547D01*
X012900Y002547D01*
X012987Y002461D01*
X013382Y002461D01*
X013468Y002547D01*
X014100Y002547D01*
X014187Y002461D01*
X014582Y002461D01*
X014668Y002547D01*
X018322Y002547D01*
X018465Y002607D01*
X018575Y002716D01*
X019255Y003396D01*
X019925Y003396D01*
X020007Y003478D01*
X020007Y004697D01*
X019925Y004779D01*
X018864Y004779D01*
X018863Y004777D01*
X018775Y004777D01*
X018585Y004968D01*
X018585Y005103D01*
X018618Y005103D01*
X018700Y005185D01*
X018700Y005695D01*
X018618Y005777D01*
X018320Y005777D01*
X018312Y005780D01*
X018177Y005780D01*
X018169Y005777D01*
X017872Y005777D01*
X017790Y005695D01*
X017790Y005185D01*
X017872Y005103D01*
X017905Y005103D01*
X017905Y004930D01*
X017894Y004905D01*
X017894Y004770D01*
X017946Y004645D01*
X017957Y004634D01*
X017957Y004622D01*
X018039Y004540D01*
X018051Y004540D01*
X018346Y004245D01*
X018442Y004149D01*
X018567Y004097D01*
X018782Y004097D01*
X018782Y004027D01*
X017274Y004027D01*
X017274Y004066D02*
X017271Y004069D01*
X017271Y004101D01*
X017248Y004124D01*
X017248Y004485D01*
X017247Y004489D01*
X017247Y004653D01*
X017165Y004735D01*
X016852Y004735D01*
X016770Y004653D01*
X016770Y004489D01*
X016768Y004485D01*
X016768Y004183D01*
X016679Y004183D01*
X016674Y004177D01*
X016588Y004177D01*
X016580Y004185D01*
X016500Y004185D01*
X016500Y004485D01*
X016499Y004489D01*
X016499Y004653D01*
X016417Y004735D01*
X016104Y004735D01*
X016022Y004653D01*
X016022Y004489D01*
X016020Y004485D01*
X016020Y003964D01*
X016057Y003875D01*
X016094Y003838D01*
X016094Y003709D01*
X016107Y003696D01*
X016107Y003672D01*
X016189Y003590D01*
X016580Y003590D01*
X016588Y003597D01*
X016597Y003597D01*
X016597Y003474D01*
X016679Y003391D01*
X017189Y003391D01*
X017271Y003474D01*
X017271Y003706D01*
X017274Y003709D01*
X017274Y004066D01*
X017267Y004106D02*
X018546Y004106D01*
X018406Y004184D02*
X017248Y004184D01*
X017248Y004263D02*
X018328Y004263D01*
X018249Y004341D02*
X017248Y004341D01*
X017248Y004420D02*
X018171Y004420D01*
X018092Y004498D02*
X017247Y004498D01*
X017247Y004577D02*
X018002Y004577D01*
X017942Y004655D02*
X017244Y004655D01*
X017166Y004734D02*
X017909Y004734D01*
X017894Y004812D02*
X014805Y004812D01*
X014877Y004891D02*
X017894Y004891D01*
X017905Y004969D02*
X014909Y004969D01*
X014914Y005048D02*
X017905Y005048D01*
X017848Y005126D02*
X014901Y005126D01*
X014863Y005205D02*
X015166Y005205D01*
X015138Y005283D02*
X014874Y005283D01*
X014906Y005362D02*
X015138Y005362D01*
X015138Y005440D02*
X014914Y005440D01*
X014904Y005519D02*
X015138Y005519D01*
X015085Y005597D02*
X014870Y005597D01*
X014790Y005676D02*
X015006Y005676D01*
X014959Y005754D02*
X014586Y005754D01*
X014508Y005833D02*
X014944Y005833D01*
X014917Y005911D02*
X014429Y005911D01*
X014350Y005990D02*
X014907Y005990D01*
X014907Y006068D02*
X014272Y006068D01*
X013993Y006147D02*
X014907Y006147D01*
X014907Y006225D02*
X013915Y006225D01*
X013836Y006304D02*
X014907Y006304D01*
X014936Y006382D02*
X013408Y006382D01*
X013329Y006461D02*
X014268Y006461D01*
X014237Y006539D02*
X013263Y006539D01*
X013263Y006618D02*
X014237Y006618D01*
X014237Y006696D02*
X013263Y006696D01*
X013263Y006775D02*
X014164Y006775D01*
X014085Y006853D02*
X013590Y006853D01*
X013656Y006932D02*
X014084Y006932D01*
X013818Y007010D02*
X013656Y007010D01*
X013344Y006853D02*
X013263Y006853D01*
X013263Y006932D02*
X013278Y006932D01*
X013278Y007010D02*
X013263Y007010D01*
X013263Y007089D02*
X013278Y007089D01*
X013277Y007167D02*
X013263Y007167D01*
X013263Y007246D02*
X013277Y007246D01*
X013277Y007324D02*
X013263Y007324D01*
X013263Y007403D02*
X013277Y007403D01*
X013277Y007481D02*
X013263Y007481D01*
X013277Y007560D02*
X013211Y007560D01*
X013277Y007638D02*
X013031Y007638D01*
X013087Y007717D02*
X013277Y007717D01*
X013277Y007795D02*
X013114Y007795D01*
X013114Y007874D02*
X013277Y007874D01*
X013277Y007952D02*
X013090Y007952D01*
X013037Y008031D02*
X013277Y008031D01*
X013277Y008109D02*
X012909Y008109D01*
X012752Y008188D02*
X013277Y008188D01*
X013277Y008266D02*
X012674Y008266D01*
X012595Y008345D02*
X013277Y008345D01*
X013230Y008423D02*
X012517Y008423D01*
X012438Y008502D02*
X013151Y008502D01*
X013073Y008580D02*
X012360Y008580D01*
X012281Y008659D02*
X012994Y008659D01*
X012944Y008737D02*
X012203Y008737D01*
X012174Y008816D02*
X012944Y008816D01*
X012944Y008894D02*
X012174Y008894D01*
X012117Y008973D02*
X012944Y008973D01*
X012944Y009051D02*
X012039Y009051D01*
X011960Y009130D02*
X012944Y009130D01*
X012944Y009208D02*
X011882Y009208D01*
X011803Y009287D02*
X012944Y009287D01*
X012944Y009365D02*
X011725Y009365D01*
X011646Y009444D02*
X012944Y009444D01*
X013657Y010229D02*
X014257Y010229D01*
X014336Y010307D02*
X013657Y010307D01*
X013657Y010386D02*
X014387Y010386D01*
X014387Y010464D02*
X013657Y010464D01*
X013657Y010543D02*
X014387Y010543D01*
X014425Y010621D02*
X013657Y010621D01*
X013656Y010700D02*
X016004Y010700D01*
X016004Y010778D02*
X013941Y010778D01*
X014050Y010857D02*
X016037Y010857D01*
X016037Y010935D02*
X014095Y010935D01*
X014114Y011014D02*
X016037Y011014D01*
X016046Y011092D02*
X014114Y011092D01*
X014082Y011171D02*
X016363Y011171D01*
X016634Y011187D02*
X016334Y010887D01*
X016184Y010737D01*
X016184Y009887D01*
X015283Y008986D01*
X014058Y008986D01*
X014058Y008789D02*
X015336Y008789D01*
X016384Y009837D01*
X016384Y010437D01*
X016834Y010887D01*
X016934Y010987D01*
X019734Y010987D01*
X019834Y011087D01*
X019566Y011171D02*
X019322Y011171D01*
X019359Y011207D02*
X019359Y011207D01*
X019401Y011249D02*
X019600Y011249D01*
X019683Y011328D02*
X019464Y011328D01*
X019464Y011406D02*
X020004Y011406D01*
X020004Y011328D02*
X019985Y011328D01*
X020004Y011485D02*
X019464Y011485D01*
X019464Y011563D02*
X020004Y011563D01*
X020004Y011642D02*
X019464Y011642D01*
X019464Y011720D02*
X020004Y011720D01*
X020004Y011799D02*
X019464Y011799D01*
X019520Y011877D02*
X019948Y011877D01*
X019915Y011956D02*
X019554Y011956D01*
X019564Y012034D02*
X019904Y012034D01*
X019913Y012113D02*
X019556Y012113D01*
X019524Y012191D02*
X019945Y012191D01*
X020021Y012270D02*
X019448Y012270D01*
X019284Y012037D02*
X019284Y011387D01*
X019084Y011187D01*
X016634Y011187D01*
X016834Y011487D02*
X016884Y011537D01*
X017434Y011537D01*
X017745Y011406D02*
X019049Y011406D01*
X019104Y011485D02*
X017771Y011485D01*
X017771Y011563D02*
X019104Y011563D01*
X019104Y011642D02*
X017756Y011642D01*
X017723Y011720D02*
X019104Y011720D01*
X019104Y011799D02*
X017649Y011799D01*
X017776Y012150D02*
X017879Y012107D01*
X017990Y012107D01*
X018093Y012150D01*
X018172Y012229D01*
X018214Y012332D01*
X018214Y012443D01*
X018172Y012546D01*
X018093Y012625D01*
X017990Y012667D01*
X017923Y012667D01*
X017681Y012910D01*
X017700Y012910D01*
X017782Y012992D01*
X017782Y013383D01*
X017700Y013465D01*
X017475Y013465D01*
X017431Y013510D01*
X017700Y013510D01*
X017782Y013592D01*
X017782Y013983D01*
X017700Y014065D01*
X017673Y014065D01*
X017673Y014627D01*
X018024Y014627D01*
X018024Y013393D01*
X018187Y013230D01*
X018187Y012992D01*
X018269Y012910D01*
X018700Y012910D01*
X018782Y012992D01*
X018782Y013383D01*
X018700Y013465D01*
X018461Y013465D01*
X018417Y013510D01*
X018700Y013510D01*
X018782Y013592D01*
X018782Y013927D01*
X019014Y013927D01*
X019014Y013403D01*
X019187Y013230D01*
X019187Y012992D01*
X019269Y012910D01*
X019700Y012910D01*
X019782Y012992D01*
X019782Y013383D01*
X019700Y013465D01*
X019461Y013465D01*
X019417Y013510D01*
X019700Y013510D01*
X019782Y013592D01*
X019782Y013983D01*
X019700Y014065D01*
X019673Y014065D01*
X019673Y014627D01*
X020024Y014627D01*
X020024Y013393D01*
X020187Y013230D01*
X020187Y012992D01*
X020269Y012910D01*
X020700Y012910D01*
X020782Y012992D01*
X020782Y013383D01*
X020700Y013465D01*
X020461Y013465D01*
X020417Y013510D01*
X020700Y013510D01*
X020782Y013592D01*
X020782Y013927D01*
X021014Y013927D01*
X021014Y013403D01*
X021120Y013297D01*
X021187Y013230D01*
X021187Y012992D01*
X021269Y012910D01*
X021700Y012910D01*
X021782Y012992D01*
X021782Y013383D01*
X021700Y013465D01*
X021461Y013465D01*
X021417Y013510D01*
X021700Y013510D01*
X021782Y013592D01*
X021782Y013983D01*
X021700Y014065D01*
X021673Y014065D01*
X021673Y014629D01*
X021744Y014700D01*
X021744Y014851D01*
X021773Y014920D01*
X021773Y015055D01*
X021744Y015123D01*
X021744Y017124D01*
X021621Y017247D01*
X021141Y017247D01*
X021141Y017762D01*
X021059Y017844D01*
X020510Y017844D01*
X020428Y017762D01*
X020428Y017247D01*
X020394Y017247D01*
X020394Y019019D01*
X020332Y019170D01*
X020261Y019241D01*
X020261Y019476D01*
X019923Y019814D01*
X019446Y019814D01*
X019184Y019552D01*
X018923Y019814D01*
X018446Y019814D01*
X018184Y019552D01*
X017923Y019814D01*
X017446Y019814D01*
X017108Y019476D01*
X017108Y018999D01*
X017212Y018895D01*
X016202Y017885D01*
X016164Y017847D01*
X015744Y017847D01*
X015744Y018959D01*
X015690Y019091D01*
X015659Y019122D01*
X015659Y019469D01*
X015566Y019562D01*
X014803Y019562D01*
X014709Y019469D01*
X014709Y018706D01*
X014803Y018612D01*
X015024Y018612D01*
X015024Y017844D01*
X014510Y017844D01*
X014444Y017778D01*
X014444Y018969D01*
X014382Y019120D01*
X014267Y019235D01*
X014267Y019235D01*
X014261Y019241D01*
X014261Y019476D01*
X013923Y019814D01*
X013446Y019814D01*
X013184Y019552D01*
X012923Y019814D01*
X012446Y019814D01*
X012184Y019552D01*
X011923Y019814D01*
X011446Y019814D01*
X011108Y019476D01*
X011108Y018999D01*
X011212Y018895D01*
X010164Y017847D01*
X009744Y017847D01*
X009744Y018959D01*
X009690Y019091D01*
X009659Y019122D01*
X009659Y019469D01*
X009566Y019562D01*
X008803Y019562D01*
X008709Y019469D01*
X008709Y018706D01*
X008803Y018612D01*
X009024Y018612D01*
X009024Y017844D01*
X008510Y017844D01*
X008444Y017778D01*
X008444Y018969D01*
X008382Y019120D01*
X008267Y019235D01*
X008267Y019235D01*
X008261Y019241D01*
X008261Y019476D01*
X007923Y019814D01*
X007446Y019814D01*
X007184Y019552D01*
X006923Y019814D01*
X006446Y019814D01*
X006184Y019552D01*
X005923Y019814D01*
X005446Y019814D01*
X005108Y019476D01*
X005108Y018999D01*
X005212Y018895D01*
X004164Y017847D01*
X003747Y017847D01*
X003624Y017724D01*
X003624Y016216D01*
X003526Y016175D01*
X003447Y016096D01*
X003404Y015993D01*
X003404Y015940D01*
X003384Y015920D01*
X003384Y013778D01*
X003376Y013775D01*
X003297Y013696D01*
X003254Y013593D01*
X003254Y013482D01*
X003297Y013379D01*
X003376Y013300D01*
X003479Y013257D01*
X003590Y013257D01*
X003693Y013300D01*
X003772Y013379D01*
X003814Y013482D01*
X003814Y013593D01*
X003784Y013666D01*
X003784Y014627D01*
X004124Y014627D01*
X004124Y014050D01*
X004189Y013986D01*
X004187Y013983D01*
X004187Y013592D01*
X004269Y013510D01*
X004700Y013510D01*
X004709Y013519D01*
X004747Y013429D01*
X004826Y013350D01*
X004929Y013307D01*
X005040Y013307D01*
X005089Y013328D01*
X005187Y013230D01*
X005187Y013017D01*
X004909Y013017D01*
X004782Y013144D01*
X004782Y013383D01*
X004700Y013465D01*
X004269Y013465D01*
X004187Y013383D01*
X004187Y012992D01*
X004269Y012910D01*
X004508Y012910D01*
X004654Y012763D01*
X004760Y012657D01*
X005410Y012657D01*
X005654Y012413D01*
X005654Y012332D01*
X005697Y012229D01*
X005776Y012150D01*
X005879Y012107D01*
X005990Y012107D01*
X006093Y012150D01*
X006172Y012229D01*
X006214Y012332D01*
X006214Y012443D01*
X006172Y012546D01*
X006093Y012625D01*
X005990Y012667D01*
X005909Y012667D01*
X005667Y012910D01*
X005700Y012910D01*
X005782Y012992D01*
X005782Y013383D01*
X005700Y013465D01*
X005461Y013465D01*
X005417Y013510D01*
X005700Y013510D01*
X005782Y013592D01*
X005782Y013983D01*
X005700Y014065D01*
X005673Y014065D01*
X005673Y014627D01*
X006024Y014627D01*
X006024Y013393D01*
X006187Y013230D01*
X006187Y012992D01*
X006269Y012910D01*
X006700Y012910D01*
X006782Y012992D01*
X006782Y013383D01*
X006700Y013465D01*
X006461Y013465D01*
X006417Y013510D01*
X006700Y013510D01*
X006782Y013592D01*
X006782Y013927D01*
X007014Y013927D01*
X007014Y013403D01*
X007187Y013230D01*
X007187Y012992D01*
X007269Y012910D01*
X007700Y012910D01*
X007782Y012992D01*
X007782Y013383D01*
X007700Y013465D01*
X007461Y013465D01*
X007417Y013510D01*
X007700Y013510D01*
X007782Y013592D01*
X007782Y013983D01*
X007700Y014065D01*
X007673Y014065D01*
X007673Y014627D01*
X008024Y014627D01*
X008024Y013393D01*
X008187Y013230D01*
X008187Y012992D01*
X008269Y012910D01*
X008700Y012910D01*
X008782Y012992D01*
X008782Y013383D01*
X008700Y013465D01*
X008461Y013465D01*
X008417Y013510D01*
X008700Y013510D01*
X008782Y013592D01*
X008782Y013927D01*
X009014Y013927D01*
X009014Y013403D01*
X009187Y013230D01*
X009187Y012992D01*
X009269Y012910D01*
X009700Y012910D01*
X009782Y012992D01*
X009782Y013383D01*
X009700Y013465D01*
X009461Y013465D01*
X009417Y013510D01*
X009700Y013510D01*
X009782Y013592D01*
X009782Y013983D01*
X009700Y014065D01*
X009673Y014065D01*
X009673Y014627D01*
X010124Y014627D01*
X010124Y014050D01*
X010189Y013986D01*
X010187Y013983D01*
X010187Y013592D01*
X010269Y013510D01*
X010700Y013510D01*
X010709Y013519D01*
X010747Y013429D01*
X010826Y013350D01*
X010929Y013307D01*
X011040Y013307D01*
X011079Y013324D01*
X011187Y013216D01*
X011187Y012992D01*
X011201Y012977D01*
X010963Y012977D01*
X010782Y013159D01*
X010782Y013383D01*
X010700Y013465D01*
X010269Y013465D01*
X010187Y013383D01*
X010187Y012992D01*
X010269Y012910D01*
X010493Y012910D01*
X010694Y012709D01*
X010806Y012597D01*
X011456Y012597D01*
X011654Y012399D01*
X011654Y012332D01*
X011697Y012229D01*
X011776Y012150D01*
X011879Y012107D01*
X011990Y012107D01*
X012093Y012150D01*
X012172Y012229D01*
X012214Y012332D01*
X012214Y012443D01*
X012172Y012546D01*
X012093Y012625D01*
X011990Y012667D01*
X011923Y012667D01*
X011681Y012910D01*
X011700Y012910D01*
X011782Y012992D01*
X011782Y013383D01*
X011700Y013465D01*
X011475Y013465D01*
X011431Y013510D01*
X011700Y013510D01*
X011782Y013592D01*
X011782Y013983D01*
X011700Y014065D01*
X011673Y014065D01*
X011673Y014627D01*
X012024Y014627D01*
X012024Y013393D01*
X012187Y013230D01*
X012187Y012992D01*
X012269Y012910D01*
X012700Y012910D01*
X012782Y012992D01*
X012782Y013383D01*
X012700Y013465D01*
X012461Y013465D01*
X012417Y013510D01*
X012700Y013510D01*
X012782Y013592D01*
X012782Y013927D01*
X013014Y013927D01*
X013014Y013403D01*
X013187Y013230D01*
X013187Y012992D01*
X013269Y012910D01*
X013700Y012910D01*
X013782Y012992D01*
X013782Y013383D01*
X013700Y013465D01*
X013461Y013465D01*
X013417Y013510D01*
X013700Y013510D01*
X013782Y013592D01*
X013782Y013983D01*
X013700Y014065D01*
X013673Y014065D01*
X013673Y014627D01*
X014024Y014627D01*
X014024Y013393D01*
X014187Y013230D01*
X014187Y012992D01*
X014269Y012910D01*
X014700Y012910D01*
X014782Y012992D01*
X014782Y013383D01*
X014700Y013465D01*
X014461Y013465D01*
X014417Y013510D01*
X014700Y013510D01*
X014782Y013592D01*
X014782Y013927D01*
X015014Y013927D01*
X015014Y013403D01*
X015187Y013230D01*
X015187Y012992D01*
X015269Y012910D01*
X015700Y012910D01*
X015782Y012992D01*
X015782Y013383D01*
X015700Y013465D01*
X015461Y013465D01*
X015417Y013510D01*
X015700Y013510D01*
X015782Y013592D01*
X015782Y013983D01*
X015700Y014065D01*
X015673Y014065D01*
X015673Y014627D01*
X016124Y014627D01*
X016124Y014050D01*
X016189Y013986D01*
X016187Y013983D01*
X016187Y013592D01*
X016269Y013510D01*
X016700Y013510D01*
X016709Y013519D01*
X016747Y013429D01*
X016826Y013350D01*
X016929Y013307D01*
X017040Y013307D01*
X017079Y013324D01*
X017187Y013216D01*
X017187Y012992D01*
X017201Y012977D01*
X017013Y012977D01*
X016782Y013209D01*
X016782Y013383D01*
X016700Y013465D01*
X016269Y013465D01*
X016187Y013383D01*
X016187Y012992D01*
X016269Y012910D01*
X016543Y012910D01*
X016744Y012709D01*
X016856Y012597D01*
X017456Y012597D01*
X017654Y012399D01*
X017654Y012332D01*
X017697Y012229D01*
X017776Y012150D01*
X017734Y012191D02*
X014626Y012191D01*
X014685Y012113D02*
X017865Y012113D01*
X018003Y012113D02*
X019013Y012113D01*
X019004Y012034D02*
X014714Y012034D01*
X014714Y011956D02*
X019015Y011956D01*
X019048Y011877D02*
X014692Y011877D01*
X014642Y011799D02*
X015519Y011799D01*
X015446Y011720D02*
X014521Y011720D01*
X014347Y011720D02*
X014072Y011720D01*
X013993Y011642D02*
X015413Y011642D01*
X015397Y011563D02*
X013915Y011563D01*
X013836Y011485D02*
X015397Y011485D01*
X015424Y011406D02*
X013758Y011406D01*
X013679Y011328D02*
X015467Y011328D01*
X015549Y011249D02*
X014018Y011249D01*
X013834Y011037D02*
X013434Y011037D01*
X013270Y010873D01*
X013270Y010561D01*
X013073Y010561D02*
X013073Y010976D01*
X014084Y011987D01*
X014434Y011987D01*
X014384Y011987D01*
X014227Y011799D02*
X014150Y011799D01*
X013877Y012034D02*
X013564Y012034D01*
X013564Y011956D02*
X013798Y011956D01*
X013720Y011877D02*
X013542Y011877D01*
X013492Y011799D02*
X013641Y011799D01*
X013563Y011720D02*
X013371Y011720D01*
X013484Y011642D02*
X013193Y011642D01*
X013115Y011563D02*
X013406Y011563D01*
X013327Y011485D02*
X013056Y011485D01*
X013056Y011406D02*
X013249Y011406D01*
X013170Y011328D02*
X013056Y011328D01*
X013056Y011249D02*
X013092Y011249D01*
X012876Y011580D02*
X013284Y011987D01*
X013092Y012191D02*
X012134Y012191D01*
X012189Y012270D02*
X017680Y012270D01*
X017654Y012348D02*
X012214Y012348D01*
X012214Y012427D02*
X017626Y012427D01*
X017548Y012505D02*
X012188Y012505D01*
X012134Y012584D02*
X017469Y012584D01*
X017771Y012819D02*
X022379Y012819D01*
X022379Y012741D02*
X017849Y012741D01*
X018002Y012662D02*
X022379Y012662D01*
X022379Y012584D02*
X018134Y012584D01*
X018188Y012505D02*
X022379Y012505D01*
X022379Y012427D02*
X018214Y012427D01*
X018214Y012348D02*
X022379Y012348D01*
X022379Y012270D02*
X020348Y012270D01*
X020424Y012191D02*
X022379Y012191D01*
X022379Y012113D02*
X020456Y012113D01*
X020464Y012034D02*
X022379Y012034D01*
X022379Y011956D02*
X020454Y011956D01*
X020420Y011877D02*
X022379Y011877D01*
X022379Y011799D02*
X020364Y011799D01*
X020364Y011720D02*
X022379Y011720D01*
X022379Y011642D02*
X020364Y011642D01*
X020364Y011563D02*
X022379Y011563D01*
X022379Y011485D02*
X020364Y011485D01*
X020364Y011406D02*
X022379Y011406D01*
X022379Y011328D02*
X020364Y011328D01*
X020364Y011249D02*
X022379Y011249D01*
X022379Y011171D02*
X020364Y011171D01*
X020364Y011092D02*
X022379Y011092D01*
X022379Y011014D02*
X020364Y011014D01*
X020337Y010935D02*
X022379Y010935D01*
X022379Y010857D02*
X020258Y010857D01*
X020180Y010778D02*
X022379Y010778D01*
X022379Y010700D02*
X020101Y010700D01*
X020023Y010621D02*
X022379Y010621D01*
X022379Y010543D02*
X017244Y010543D01*
X017166Y010464D02*
X022379Y010464D01*
X022379Y010386D02*
X016887Y010386D01*
X016809Y010307D02*
X022379Y010307D01*
X022379Y010229D02*
X020990Y010229D01*
X021044Y010174D02*
X020921Y010297D01*
X020247Y010297D01*
X020159Y010209D01*
X020071Y010297D01*
X018147Y010297D01*
X018097Y010247D01*
X018038Y010305D01*
X017630Y010305D01*
X017537Y010211D01*
X017537Y009764D01*
X017630Y009670D01*
X018024Y009670D01*
X018024Y008800D01*
X018147Y008677D01*
X018774Y008677D01*
X018774Y008500D01*
X018897Y008377D01*
X019071Y008377D01*
X020071Y008377D01*
X020124Y008430D01*
X020124Y008330D01*
X020247Y008207D01*
X020991Y008207D01*
X020994Y008204D01*
X022274Y008204D01*
X022368Y008297D01*
X022368Y009577D01*
X022274Y009671D01*
X021044Y009671D01*
X021044Y010174D01*
X021044Y010150D02*
X022379Y010150D01*
X022379Y010072D02*
X021044Y010072D01*
X021044Y009993D02*
X022379Y009993D01*
X022379Y009915D02*
X021044Y009915D01*
X021044Y009836D02*
X022379Y009836D01*
X022379Y009758D02*
X021044Y009758D01*
X021044Y009679D02*
X022379Y009679D01*
X022379Y009601D02*
X022344Y009601D01*
X022368Y009522D02*
X022379Y009522D01*
X022368Y009444D02*
X022379Y009444D01*
X022368Y009365D02*
X022379Y009365D01*
X022368Y009287D02*
X022379Y009287D01*
X022368Y009208D02*
X022379Y009208D01*
X022368Y009130D02*
X022379Y009130D01*
X022368Y009051D02*
X022379Y009051D01*
X022368Y008973D02*
X022379Y008973D01*
X022368Y008894D02*
X022379Y008894D01*
X022368Y008816D02*
X022379Y008816D01*
X022368Y008737D02*
X022379Y008737D01*
X022368Y008659D02*
X022379Y008659D01*
X022368Y008580D02*
X022379Y008580D01*
X022368Y008502D02*
X022379Y008502D01*
X022368Y008423D02*
X022379Y008423D01*
X022368Y008345D02*
X022379Y008345D01*
X022379Y008266D02*
X022337Y008266D01*
X022379Y008188D02*
X015600Y008188D01*
X015600Y008266D02*
X020188Y008266D01*
X020124Y008345D02*
X015599Y008345D01*
X015520Y008423D02*
X018851Y008423D01*
X018774Y008502D02*
X015553Y008502D01*
X015632Y008580D02*
X018774Y008580D01*
X018774Y008659D02*
X015710Y008659D01*
X015789Y008737D02*
X016606Y008737D01*
X016576Y008750D02*
X016679Y008707D01*
X016790Y008707D01*
X016893Y008750D01*
X016940Y008797D01*
X016957Y008797D01*
X016957Y008772D01*
X017039Y008690D01*
X017430Y008690D01*
X017512Y008772D01*
X017512Y009203D01*
X017478Y009237D01*
X017512Y009272D01*
X017512Y009703D01*
X017478Y009737D01*
X017512Y009772D01*
X017512Y010203D01*
X017430Y010285D01*
X017039Y010285D01*
X016957Y010203D01*
X016957Y009772D01*
X016991Y009737D01*
X016957Y009703D01*
X016957Y009272D01*
X016991Y009237D01*
X016957Y009203D01*
X016957Y009177D01*
X016940Y009177D01*
X016893Y009225D01*
X016790Y009267D01*
X016679Y009267D01*
X016576Y009225D01*
X016497Y009146D01*
X016454Y009043D01*
X016454Y008932D01*
X016497Y008829D01*
X016576Y008750D01*
X016510Y008816D02*
X015867Y008816D01*
X015946Y008894D02*
X016470Y008894D01*
X016454Y008973D02*
X016024Y008973D01*
X016103Y009051D02*
X016458Y009051D01*
X016490Y009130D02*
X016181Y009130D01*
X016260Y009208D02*
X016559Y009208D01*
X016417Y009365D02*
X016957Y009365D01*
X016957Y009287D02*
X016338Y009287D01*
X016495Y009444D02*
X016957Y009444D01*
X016957Y009522D02*
X016574Y009522D01*
X016652Y009601D02*
X016957Y009601D01*
X016957Y009679D02*
X016731Y009679D01*
X016764Y009758D02*
X016971Y009758D01*
X016957Y009836D02*
X016764Y009836D01*
X016764Y009915D02*
X016957Y009915D01*
X016957Y009993D02*
X016764Y009993D01*
X016764Y010072D02*
X016957Y010072D01*
X016957Y010150D02*
X016764Y010150D01*
X016764Y010229D02*
X016983Y010229D01*
X017034Y010587D02*
X016834Y010587D01*
X016584Y010337D01*
X016584Y009787D01*
X015389Y008592D01*
X014058Y008592D01*
X014695Y009522D02*
X014801Y009522D01*
X014879Y009601D02*
X014434Y009601D01*
X014434Y009679D02*
X014887Y009679D01*
X014887Y009758D02*
X014359Y009758D01*
X014407Y009836D02*
X014887Y009836D01*
X014887Y009915D02*
X014481Y009915D01*
X014559Y009993D02*
X014897Y009993D01*
X014638Y010072D02*
X016004Y010072D01*
X016004Y010150D02*
X015441Y010150D01*
X015482Y010229D02*
X016004Y010229D01*
X016004Y010307D02*
X015482Y010307D01*
X015482Y010386D02*
X016004Y010386D01*
X016004Y010464D02*
X015482Y010464D01*
X015482Y010543D02*
X016004Y010543D01*
X016004Y010621D02*
X015444Y010621D01*
X015472Y009993D02*
X016004Y009993D01*
X015957Y009915D02*
X015482Y009915D01*
X015482Y009836D02*
X015879Y009836D01*
X015800Y009758D02*
X015482Y009758D01*
X015482Y009679D02*
X015722Y009679D01*
X015643Y009601D02*
X015482Y009601D01*
X015413Y009522D02*
X015565Y009522D01*
X015486Y009444D02*
X015260Y009444D01*
X015181Y009365D02*
X015408Y009365D01*
X015329Y009287D02*
X015103Y009287D01*
X015024Y009208D02*
X015251Y009208D01*
X015931Y008109D02*
X022379Y008109D01*
X022379Y008031D02*
X016009Y008031D01*
X016088Y007952D02*
X016442Y007952D01*
X016325Y007874D02*
X016166Y007874D01*
X016245Y007795D02*
X016276Y007795D01*
X016626Y007952D02*
X022379Y007952D01*
X022379Y007874D02*
X017670Y007874D01*
X017700Y007795D02*
X022379Y007795D01*
X022379Y007717D02*
X017700Y007717D01*
X017700Y007638D02*
X022379Y007638D01*
X022379Y007560D02*
X019409Y007560D01*
X019371Y007597D02*
X017897Y007597D01*
X017892Y007592D01*
X017863Y007592D01*
X017770Y007498D01*
X017770Y006972D01*
X017774Y006967D01*
X017774Y006400D01*
X017897Y006277D01*
X018071Y006277D01*
X019371Y006277D01*
X019494Y006400D01*
X019494Y007474D01*
X019371Y007597D01*
X019487Y007481D02*
X022379Y007481D01*
X022379Y007403D02*
X019494Y007403D01*
X019494Y007324D02*
X022379Y007324D01*
X022379Y007246D02*
X019494Y007246D01*
X019494Y007167D02*
X022379Y007167D01*
X022379Y007089D02*
X019494Y007089D01*
X019494Y007010D02*
X022379Y007010D01*
X022379Y006932D02*
X019494Y006932D01*
X019494Y006853D02*
X022379Y006853D01*
X022379Y006775D02*
X019494Y006775D01*
X019494Y006696D02*
X022379Y006696D01*
X022379Y006618D02*
X019494Y006618D01*
X019494Y006539D02*
X022379Y006539D01*
X022379Y006461D02*
X019494Y006461D01*
X019476Y006382D02*
X022379Y006382D01*
X022379Y006304D02*
X019398Y006304D01*
X018640Y005754D02*
X022379Y005754D01*
X022379Y005676D02*
X018700Y005676D01*
X018700Y005597D02*
X022379Y005597D01*
X022379Y005519D02*
X018700Y005519D01*
X018700Y005440D02*
X022379Y005440D01*
X022379Y005362D02*
X018700Y005362D01*
X018700Y005283D02*
X022379Y005283D01*
X022379Y005205D02*
X018700Y005205D01*
X018641Y005126D02*
X022379Y005126D01*
X022379Y005048D02*
X018585Y005048D01*
X018585Y004969D02*
X022379Y004969D01*
X022379Y004891D02*
X018662Y004891D01*
X018740Y004812D02*
X022379Y004812D01*
X022379Y004734D02*
X019969Y004734D01*
X020007Y004655D02*
X022379Y004655D01*
X022379Y004577D02*
X020007Y004577D01*
X020007Y004498D02*
X022379Y004498D01*
X022379Y004420D02*
X020007Y004420D01*
X020007Y004341D02*
X022379Y004341D01*
X022379Y004263D02*
X020007Y004263D01*
X020007Y004184D02*
X022379Y004184D01*
X022379Y004106D02*
X020007Y004106D01*
X020007Y004027D02*
X022379Y004027D01*
X022379Y003949D02*
X020007Y003949D01*
X020007Y003870D02*
X022379Y003870D01*
X022379Y003792D02*
X020007Y003792D01*
X020007Y003713D02*
X022379Y003713D01*
X022379Y003635D02*
X020007Y003635D01*
X020007Y003556D02*
X022379Y003556D01*
X022379Y003478D02*
X020006Y003478D01*
X019928Y003399D02*
X022379Y003399D01*
X022379Y003321D02*
X019179Y003321D01*
X019101Y003242D02*
X022379Y003242D01*
X022379Y003164D02*
X019022Y003164D01*
X018944Y003085D02*
X022379Y003085D01*
X022379Y003007D02*
X018865Y003007D01*
X018787Y002928D02*
X021135Y002928D01*
X021101Y002919D02*
X020845Y002771D01*
X020635Y002562D01*
X020487Y002306D01*
X020411Y002020D01*
X020411Y001724D01*
X020487Y001438D01*
X020635Y001181D01*
X020789Y001027D01*
X004564Y001027D01*
X004718Y001181D01*
X004866Y001438D01*
X004943Y001724D01*
X004943Y002020D01*
X004866Y002306D01*
X004718Y002562D01*
X004509Y002771D01*
X004253Y002919D01*
X003967Y002996D01*
X003671Y002996D01*
X003385Y002919D01*
X003128Y002771D01*
X002974Y002617D01*
X002974Y018843D01*
X003128Y018689D01*
X003385Y018541D01*
X003671Y018464D01*
X003967Y018464D01*
X004253Y018541D01*
X004509Y018689D01*
X004718Y018898D01*
X004866Y019154D01*
X004943Y019440D01*
X004943Y019736D01*
X004866Y020022D01*
X004718Y020278D01*
X004564Y020432D01*
X020789Y020432D01*
X020635Y020278D01*
X020487Y020022D01*
X020411Y019736D01*
X020411Y019440D01*
X020487Y019154D01*
X020635Y018898D01*
X020845Y018689D01*
X021101Y018541D01*
X021387Y018464D01*
X021683Y018464D01*
X021969Y018541D01*
X022225Y018689D01*
X022379Y018843D01*
X022379Y002617D01*
X022225Y002771D01*
X022379Y002771D01*
X022379Y002693D02*
X022304Y002693D01*
X022225Y002771D02*
X021969Y002919D01*
X021683Y002996D01*
X021387Y002996D01*
X021101Y002919D01*
X020981Y002850D02*
X018708Y002850D01*
X018630Y002771D02*
X020845Y002771D01*
X020766Y002693D02*
X018551Y002693D01*
X018473Y002614D02*
X020688Y002614D01*
X020620Y002536D02*
X014657Y002536D01*
X014916Y002143D02*
X004910Y002143D01*
X004931Y002065D02*
X014908Y002065D01*
X014908Y002135D02*
X014908Y001740D01*
X015187Y001461D01*
X015582Y001461D01*
X015861Y001740D01*
X015861Y002135D01*
X015582Y002414D01*
X015187Y002414D01*
X014908Y002135D01*
X014995Y002222D02*
X004889Y002222D01*
X004868Y002300D02*
X015073Y002300D01*
X015152Y002379D02*
X004824Y002379D01*
X004779Y002457D02*
X020575Y002457D01*
X020530Y002379D02*
X019617Y002379D01*
X019582Y002414D02*
X019187Y002414D01*
X018908Y002135D01*
X018908Y001740D01*
X019187Y001461D01*
X019582Y001461D01*
X019861Y001740D01*
X019861Y002135D01*
X019582Y002414D01*
X019695Y002300D02*
X020486Y002300D01*
X020465Y002222D02*
X019774Y002222D01*
X019852Y002143D02*
X020444Y002143D01*
X020423Y002065D02*
X019861Y002065D01*
X019861Y001986D02*
X020411Y001986D01*
X020411Y001908D02*
X019861Y001908D01*
X019861Y001829D02*
X020411Y001829D01*
X020411Y001751D02*
X019861Y001751D01*
X019793Y001672D02*
X020425Y001672D01*
X020446Y001594D02*
X019715Y001594D01*
X019636Y001515D02*
X020467Y001515D01*
X020488Y001437D02*
X004866Y001437D01*
X004887Y001515D02*
X015132Y001515D01*
X015054Y001594D02*
X004908Y001594D01*
X004929Y001672D02*
X014975Y001672D01*
X014908Y001751D02*
X004943Y001751D01*
X004943Y001829D02*
X014908Y001829D01*
X014908Y001908D02*
X004943Y001908D01*
X004943Y001986D02*
X014908Y001986D01*
X015617Y002379D02*
X017152Y002379D01*
X017187Y002414D02*
X016908Y002135D01*
X016908Y001740D01*
X017187Y001461D01*
X017582Y001461D01*
X017861Y001740D01*
X017861Y002135D01*
X017582Y002414D01*
X017187Y002414D01*
X017073Y002300D02*
X015695Y002300D01*
X015774Y002222D02*
X016995Y002222D01*
X016916Y002143D02*
X015852Y002143D01*
X015861Y002065D02*
X016908Y002065D01*
X016908Y001986D02*
X015861Y001986D01*
X015861Y001908D02*
X016908Y001908D01*
X016908Y001829D02*
X015861Y001829D01*
X015861Y001751D02*
X016908Y001751D01*
X016975Y001672D02*
X015793Y001672D01*
X015715Y001594D02*
X017054Y001594D01*
X017132Y001515D02*
X015636Y001515D01*
X014112Y002536D02*
X013457Y002536D01*
X012912Y002536D02*
X012457Y002536D01*
X011912Y002536D02*
X011257Y002536D01*
X010712Y002536D02*
X010257Y002536D01*
X009787Y002461D02*
X009508Y002740D01*
X009508Y003135D01*
X009787Y003414D01*
X010182Y003414D01*
X010268Y003327D01*
X010700Y003327D01*
X010787Y003414D01*
X011182Y003414D01*
X011268Y003327D01*
X011900Y003327D01*
X011987Y003414D01*
X012382Y003414D01*
X012468Y003327D01*
X012900Y003327D01*
X012987Y003414D01*
X013382Y003414D01*
X013468Y003327D01*
X014100Y003327D01*
X014187Y003414D01*
X014582Y003414D01*
X014668Y003327D01*
X018083Y003327D01*
X018782Y004027D01*
X018704Y003949D02*
X017274Y003949D01*
X017274Y003870D02*
X018626Y003870D01*
X018547Y003792D02*
X017274Y003792D01*
X017274Y003713D02*
X018469Y003713D01*
X018390Y003635D02*
X017271Y003635D01*
X017271Y003556D02*
X018312Y003556D01*
X018233Y003478D02*
X017271Y003478D01*
X017197Y003399D02*
X018155Y003399D01*
X018187Y002414D02*
X017908Y002135D01*
X017908Y001740D01*
X018187Y001461D01*
X018582Y001461D01*
X018861Y001740D01*
X018861Y002135D01*
X018582Y002414D01*
X018187Y002414D01*
X018152Y002379D02*
X017617Y002379D01*
X017695Y002300D02*
X018073Y002300D01*
X017995Y002222D02*
X017774Y002222D01*
X017852Y002143D02*
X017916Y002143D01*
X017908Y002065D02*
X017861Y002065D01*
X017861Y001986D02*
X017908Y001986D01*
X017908Y001908D02*
X017861Y001908D01*
X017861Y001829D02*
X017908Y001829D01*
X017908Y001751D02*
X017861Y001751D01*
X017793Y001672D02*
X017975Y001672D01*
X018054Y001594D02*
X017715Y001594D01*
X017636Y001515D02*
X018132Y001515D01*
X018636Y001515D02*
X019132Y001515D01*
X019054Y001594D02*
X018715Y001594D01*
X018793Y001672D02*
X018975Y001672D01*
X018908Y001751D02*
X018861Y001751D01*
X018861Y001829D02*
X018908Y001829D01*
X018908Y001908D02*
X018861Y001908D01*
X018861Y001986D02*
X018908Y001986D01*
X018908Y002065D02*
X018861Y002065D01*
X018852Y002143D02*
X018916Y002143D01*
X018995Y002222D02*
X018774Y002222D01*
X018695Y002300D02*
X019073Y002300D01*
X019152Y002379D02*
X018617Y002379D01*
X020533Y001358D02*
X004820Y001358D01*
X004775Y001280D02*
X020579Y001280D01*
X020624Y001201D02*
X004730Y001201D01*
X004660Y001123D02*
X020694Y001123D01*
X020772Y001044D02*
X004581Y001044D01*
X004733Y002536D02*
X006512Y002536D01*
X006433Y002614D02*
X004666Y002614D01*
X004587Y002693D02*
X006355Y002693D01*
X006308Y002771D02*
X004509Y002771D01*
X004373Y002850D02*
X006308Y002850D01*
X006308Y002928D02*
X004218Y002928D01*
X003419Y002928D02*
X002974Y002928D01*
X002974Y002850D02*
X003264Y002850D01*
X003128Y002771D02*
X002974Y002771D01*
X002974Y002693D02*
X003050Y002693D01*
X002974Y003007D02*
X006308Y003007D01*
X006308Y003085D02*
X002974Y003085D01*
X002974Y003164D02*
X006337Y003164D01*
X006415Y003242D02*
X002974Y003242D01*
X002974Y003321D02*
X006494Y003321D01*
X006572Y003399D02*
X002974Y003399D01*
X002974Y003478D02*
X006570Y003478D01*
X006491Y003556D02*
X002974Y003556D01*
X002974Y003635D02*
X006413Y003635D01*
X006334Y003713D02*
X002974Y003713D01*
X002974Y003792D02*
X006308Y003792D01*
X006308Y003870D02*
X002974Y003870D01*
X002974Y003949D02*
X006308Y003949D01*
X006308Y004027D02*
X002974Y004027D01*
X002974Y004106D02*
X004448Y004106D01*
X004350Y004184D02*
X002974Y004184D01*
X002974Y004263D02*
X004307Y004263D01*
X004287Y004341D02*
X002974Y004341D01*
X002974Y004420D02*
X004287Y004420D01*
X004315Y004498D02*
X002974Y004498D01*
X002974Y004577D02*
X004369Y004577D01*
X004799Y004577D02*
X007155Y004577D01*
X007077Y004498D02*
X004854Y004498D01*
X004882Y004420D02*
X006998Y004420D01*
X007300Y004184D02*
X007357Y004184D01*
X007308Y004106D02*
X007261Y004106D01*
X007261Y004027D02*
X007308Y004027D01*
X007308Y003949D02*
X007261Y003949D01*
X007261Y003870D02*
X007308Y003870D01*
X007308Y003792D02*
X007261Y003792D01*
X007234Y003713D02*
X007334Y003713D01*
X007413Y003635D02*
X007156Y003635D01*
X007077Y003556D02*
X007491Y003556D01*
X007570Y003478D02*
X006999Y003478D01*
X006996Y003399D02*
X007572Y003399D01*
X007494Y003321D02*
X007075Y003321D01*
X007153Y003242D02*
X007415Y003242D01*
X007433Y002614D02*
X007135Y002614D01*
X007057Y002536D02*
X007512Y002536D01*
X008996Y003399D02*
X009772Y003399D01*
X009770Y003478D02*
X008999Y003478D01*
X009077Y003556D02*
X009691Y003556D01*
X009613Y003635D02*
X009156Y003635D01*
X009234Y003713D02*
X009534Y003713D01*
X009508Y003792D02*
X009261Y003792D01*
X009261Y003870D02*
X009508Y003870D01*
X009508Y003949D02*
X009261Y003949D01*
X009261Y004027D02*
X009508Y004027D01*
X009508Y004106D02*
X009261Y004106D01*
X009300Y004184D02*
X009557Y004184D01*
X009694Y003321D02*
X009075Y003321D01*
X009153Y003242D02*
X009615Y003242D01*
X009537Y003164D02*
X009232Y003164D01*
X009261Y003085D02*
X009508Y003085D01*
X009508Y003007D02*
X009261Y003007D01*
X009261Y002928D02*
X009508Y002928D01*
X009508Y002850D02*
X009261Y002850D01*
X009261Y002771D02*
X009508Y002771D01*
X009555Y002693D02*
X009214Y002693D01*
X009135Y002614D02*
X009633Y002614D01*
X010196Y003399D02*
X010772Y003399D01*
X010770Y003478D02*
X010199Y003478D01*
X010277Y003556D02*
X010691Y003556D01*
X010613Y003635D02*
X010356Y003635D01*
X010434Y003713D02*
X010534Y003713D01*
X010508Y003792D02*
X010461Y003792D01*
X010461Y003870D02*
X010508Y003870D01*
X011199Y003478D02*
X011970Y003478D01*
X011987Y003461D02*
X012382Y003461D01*
X012661Y003740D01*
X012661Y004135D01*
X012656Y004140D01*
X012774Y004259D01*
X012774Y004510D01*
X012800Y004510D01*
X012882Y004592D01*
X012882Y004983D01*
X012800Y005065D01*
X012369Y005065D01*
X012287Y004983D01*
X012287Y004592D01*
X012369Y004510D01*
X012394Y004510D01*
X012394Y004416D01*
X012387Y004409D01*
X012382Y004414D01*
X011987Y004414D01*
X011708Y004135D01*
X011708Y003740D01*
X011987Y003461D01*
X011972Y003399D02*
X011196Y003399D01*
X011277Y003556D02*
X011891Y003556D01*
X011813Y003635D02*
X011356Y003635D01*
X011434Y003713D02*
X011734Y003713D01*
X011708Y003792D02*
X011461Y003792D01*
X011461Y003870D02*
X011708Y003870D01*
X011708Y003949D02*
X011461Y003949D01*
X011461Y004027D02*
X011708Y004027D01*
X011708Y004106D02*
X011522Y004106D01*
X011600Y004184D02*
X011757Y004184D01*
X011679Y004263D02*
X011836Y004263D01*
X011914Y004341D02*
X011757Y004341D01*
X011836Y004420D02*
X012394Y004420D01*
X012394Y004498D02*
X011914Y004498D01*
X011612Y004734D02*
X011582Y004734D01*
X011582Y004812D02*
X011637Y004812D01*
X011637Y004891D02*
X011582Y004891D01*
X011582Y004969D02*
X011637Y004969D01*
X011702Y005048D02*
X011517Y005048D01*
X011517Y005126D02*
X011702Y005126D01*
X011637Y005205D02*
X011582Y005205D01*
X011582Y005283D02*
X011637Y005283D01*
X011637Y005362D02*
X011582Y005362D01*
X011606Y005440D02*
X011637Y005440D01*
X012167Y005126D02*
X012352Y005126D01*
X012352Y005048D02*
X012167Y005048D01*
X012232Y004969D02*
X012287Y004969D01*
X012287Y004891D02*
X012232Y004891D01*
X012232Y004812D02*
X012287Y004812D01*
X012287Y004734D02*
X012232Y004734D01*
X012232Y004655D02*
X012287Y004655D01*
X012302Y004577D02*
X012217Y004577D01*
X012774Y004498D02*
X013044Y004498D01*
X013044Y004510D02*
X013044Y004414D01*
X012987Y004414D01*
X012708Y004135D01*
X012708Y003740D01*
X012987Y003461D01*
X013382Y003461D01*
X013661Y003740D01*
X013661Y004135D01*
X013424Y004371D01*
X013424Y004510D01*
X013450Y004510D01*
X013532Y004592D01*
X013532Y004983D01*
X013450Y005065D01*
X013019Y005065D01*
X012937Y004983D01*
X012937Y004592D01*
X013019Y004510D01*
X013044Y004510D01*
X013044Y004420D02*
X012774Y004420D01*
X012774Y004341D02*
X012914Y004341D01*
X012836Y004263D02*
X012774Y004263D01*
X012757Y004184D02*
X012700Y004184D01*
X012708Y004106D02*
X012661Y004106D01*
X012661Y004027D02*
X012708Y004027D01*
X012708Y003949D02*
X012661Y003949D01*
X012661Y003870D02*
X012708Y003870D01*
X012708Y003792D02*
X012661Y003792D01*
X012634Y003713D02*
X012734Y003713D01*
X012813Y003635D02*
X012556Y003635D01*
X012477Y003556D02*
X012891Y003556D01*
X012970Y003478D02*
X012399Y003478D01*
X012396Y003399D02*
X012972Y003399D01*
X013396Y003399D02*
X014172Y003399D01*
X014187Y003461D02*
X014582Y003461D01*
X014861Y003740D01*
X014861Y004135D01*
X014582Y004414D01*
X014187Y004414D01*
X013908Y004135D01*
X013908Y003740D01*
X014187Y003461D01*
X014170Y003478D02*
X013399Y003478D01*
X013477Y003556D02*
X014091Y003556D01*
X014013Y003635D02*
X013556Y003635D01*
X013634Y003713D02*
X013934Y003713D01*
X013908Y003792D02*
X013661Y003792D01*
X013661Y003870D02*
X013908Y003870D01*
X013908Y003949D02*
X013661Y003949D01*
X013661Y004027D02*
X013908Y004027D01*
X013908Y004106D02*
X013661Y004106D01*
X013611Y004184D02*
X013957Y004184D01*
X014036Y004263D02*
X013533Y004263D01*
X013454Y004341D02*
X014114Y004341D01*
X014654Y004341D02*
X016020Y004341D01*
X016020Y004263D02*
X014733Y004263D01*
X014811Y004184D02*
X016020Y004184D01*
X016020Y004106D02*
X014861Y004106D01*
X014861Y004027D02*
X016020Y004027D01*
X016026Y003949D02*
X014861Y003949D01*
X014861Y003870D02*
X016062Y003870D01*
X016094Y003792D02*
X014861Y003792D01*
X014834Y003713D02*
X016094Y003713D01*
X016144Y003635D02*
X014756Y003635D01*
X014677Y003556D02*
X016597Y003556D01*
X016597Y003478D02*
X014599Y003478D01*
X014596Y003399D02*
X016672Y003399D01*
X016581Y004184D02*
X016768Y004184D01*
X016768Y004263D02*
X016500Y004263D01*
X016500Y004341D02*
X016768Y004341D01*
X016768Y004420D02*
X016500Y004420D01*
X016499Y004498D02*
X016770Y004498D01*
X016770Y004577D02*
X016499Y004577D01*
X016496Y004655D02*
X016772Y004655D01*
X016851Y004734D02*
X016418Y004734D01*
X016103Y004734D02*
X013532Y004734D01*
X013532Y004812D02*
X014463Y004812D01*
X014392Y004891D02*
X013532Y004891D01*
X013532Y004969D02*
X014359Y004969D01*
X014354Y005048D02*
X013467Y005048D01*
X013467Y005126D02*
X013652Y005126D01*
X013587Y005205D02*
X013532Y005205D01*
X013532Y005283D02*
X013587Y005283D01*
X013587Y005362D02*
X013532Y005362D01*
X013532Y005440D02*
X013563Y005440D01*
X012937Y005362D02*
X012882Y005362D01*
X012882Y005440D02*
X012913Y005440D01*
X012937Y005283D02*
X012882Y005283D01*
X012882Y005205D02*
X012937Y005205D01*
X013002Y005126D02*
X012817Y005126D01*
X012817Y005048D02*
X013002Y005048D01*
X012937Y004969D02*
X012882Y004969D01*
X012882Y004891D02*
X012937Y004891D01*
X012937Y004812D02*
X012882Y004812D01*
X012882Y004734D02*
X012937Y004734D01*
X012937Y004655D02*
X012882Y004655D01*
X012867Y004577D02*
X012952Y004577D01*
X013424Y004498D02*
X016022Y004498D01*
X016020Y004420D02*
X013424Y004420D01*
X013517Y004577D02*
X016022Y004577D01*
X016024Y004655D02*
X013532Y004655D01*
X014117Y005126D02*
X014277Y005126D01*
X014198Y005205D02*
X014182Y005205D01*
X014801Y006461D02*
X014839Y006461D01*
X015433Y006382D02*
X016686Y006382D01*
X016657Y006353D02*
X016739Y006435D01*
X017130Y006435D01*
X017212Y006353D01*
X017212Y006199D01*
X017248Y006111D01*
X017248Y005490D01*
X017247Y005486D01*
X017247Y005322D01*
X017165Y005240D01*
X016852Y005240D01*
X016770Y005322D01*
X016770Y005486D01*
X016768Y005490D01*
X016768Y005840D01*
X016739Y005840D01*
X016657Y005922D01*
X016657Y006353D01*
X016657Y006304D02*
X015462Y006304D01*
X015462Y006225D02*
X016657Y006225D01*
X016657Y006147D02*
X015462Y006147D01*
X015462Y006068D02*
X016657Y006068D01*
X016657Y005990D02*
X015462Y005990D01*
X015452Y005911D02*
X016667Y005911D01*
X016768Y005833D02*
X016419Y005833D01*
X016497Y005754D02*
X016768Y005754D01*
X016768Y005676D02*
X016499Y005676D01*
X016499Y005597D02*
X016768Y005597D01*
X016768Y005519D02*
X016500Y005519D01*
X016499Y005440D02*
X016770Y005440D01*
X016770Y005362D02*
X016499Y005362D01*
X016460Y005283D02*
X016808Y005283D01*
X017208Y005283D02*
X017790Y005283D01*
X017790Y005205D02*
X015903Y005205D01*
X015930Y005283D02*
X016060Y005283D01*
X016102Y005833D02*
X015528Y005833D01*
X015530Y006461D02*
X016939Y006461D01*
X017183Y006382D02*
X017792Y006382D01*
X017774Y006461D02*
X017630Y006461D01*
X017700Y006539D02*
X017774Y006539D01*
X017774Y006618D02*
X017700Y006618D01*
X017700Y006696D02*
X017774Y006696D01*
X017774Y006775D02*
X017700Y006775D01*
X017690Y006853D02*
X017774Y006853D01*
X017774Y006932D02*
X016808Y006932D01*
X016507Y006696D02*
X015600Y006696D01*
X015600Y006618D02*
X016585Y006618D01*
X016664Y006539D02*
X015600Y006539D01*
X015600Y006775D02*
X016428Y006775D01*
X016350Y006853D02*
X015590Y006853D01*
X015694Y006932D02*
X015374Y006932D01*
X016075Y006932D02*
X016271Y006932D01*
X016193Y007010D02*
X016135Y007010D01*
X016637Y007403D02*
X016928Y007403D01*
X016918Y007481D02*
X016724Y007481D01*
X017641Y007403D02*
X017770Y007403D01*
X017770Y007481D02*
X017650Y007481D01*
X017700Y007560D02*
X017831Y007560D01*
X017770Y007324D02*
X017700Y007324D01*
X017700Y007246D02*
X017770Y007246D01*
X017770Y007167D02*
X017700Y007167D01*
X017700Y007089D02*
X017770Y007089D01*
X017770Y007010D02*
X017679Y007010D01*
X017871Y006304D02*
X017212Y006304D01*
X017212Y006225D02*
X022379Y006225D01*
X022379Y006147D02*
X017234Y006147D01*
X017248Y006068D02*
X022379Y006068D01*
X022379Y005990D02*
X017248Y005990D01*
X017248Y005911D02*
X022379Y005911D01*
X022379Y005833D02*
X017248Y005833D01*
X017248Y005754D02*
X017849Y005754D01*
X017790Y005676D02*
X017248Y005676D01*
X017248Y005597D02*
X017790Y005597D01*
X017790Y005519D02*
X017248Y005519D01*
X017247Y005440D02*
X017790Y005440D01*
X017790Y005362D02*
X017247Y005362D01*
X020117Y008423D02*
X020124Y008423D01*
X020140Y010229D02*
X020179Y010229D01*
X019934Y010787D02*
X020184Y011037D01*
X020184Y012037D01*
X020202Y012976D02*
X019767Y012976D01*
X019782Y013055D02*
X020187Y013055D01*
X020187Y013133D02*
X019782Y013133D01*
X019782Y013212D02*
X020187Y013212D01*
X020127Y013290D02*
X019782Y013290D01*
X019782Y013369D02*
X020048Y013369D01*
X020024Y013447D02*
X019718Y013447D01*
X019716Y013526D02*
X020024Y013526D01*
X020024Y013604D02*
X019782Y013604D01*
X019782Y013683D02*
X020024Y013683D01*
X020024Y013761D02*
X019782Y013761D01*
X019782Y013840D02*
X020024Y013840D01*
X020024Y013918D02*
X019782Y013918D01*
X019768Y013997D02*
X020024Y013997D01*
X020024Y014075D02*
X019673Y014075D01*
X019673Y014154D02*
X020024Y014154D01*
X020024Y014232D02*
X019673Y014232D01*
X019673Y014311D02*
X020024Y014311D01*
X020024Y014389D02*
X019673Y014389D01*
X019673Y014468D02*
X020024Y014468D01*
X020024Y014546D02*
X019673Y014546D01*
X019673Y014625D02*
X020024Y014625D01*
X020204Y014717D02*
X020204Y013467D01*
X020484Y013187D01*
X020782Y013212D02*
X021187Y013212D01*
X021187Y013133D02*
X020782Y013133D01*
X020782Y013055D02*
X021187Y013055D01*
X021202Y012976D02*
X020767Y012976D01*
X020782Y013290D02*
X021127Y013290D01*
X021120Y013297D02*
X021120Y013297D01*
X021048Y013369D02*
X020782Y013369D01*
X020718Y013447D02*
X021014Y013447D01*
X021014Y013526D02*
X020716Y013526D01*
X020782Y013604D02*
X021014Y013604D01*
X021014Y013683D02*
X020782Y013683D01*
X020782Y013761D02*
X021014Y013761D01*
X021014Y013840D02*
X020782Y013840D01*
X020782Y013918D02*
X021014Y013918D01*
X021194Y013477D02*
X021484Y013187D01*
X021718Y013447D02*
X022379Y013447D01*
X022379Y013369D02*
X021782Y013369D01*
X021782Y013290D02*
X022379Y013290D01*
X022379Y013212D02*
X021782Y013212D01*
X021782Y013133D02*
X022379Y013133D01*
X022379Y013055D02*
X021782Y013055D01*
X021767Y012976D02*
X022379Y012976D01*
X022379Y012898D02*
X017692Y012898D01*
X017767Y012976D02*
X018202Y012976D01*
X018187Y013055D02*
X017782Y013055D01*
X017782Y013133D02*
X018187Y013133D01*
X018187Y013212D02*
X017782Y013212D01*
X017782Y013290D02*
X018127Y013290D01*
X018048Y013369D02*
X017782Y013369D01*
X017718Y013447D02*
X018024Y013447D01*
X018024Y013526D02*
X017716Y013526D01*
X017782Y013604D02*
X018024Y013604D01*
X018024Y013683D02*
X017782Y013683D01*
X017782Y013761D02*
X018024Y013761D01*
X018024Y013840D02*
X017782Y013840D01*
X017782Y013918D02*
X018024Y013918D01*
X018024Y013997D02*
X017768Y013997D01*
X017673Y014075D02*
X018024Y014075D01*
X018024Y014154D02*
X017673Y014154D01*
X017673Y014232D02*
X018024Y014232D01*
X018024Y014311D02*
X017673Y014311D01*
X017673Y014389D02*
X018024Y014389D01*
X018024Y014468D02*
X017673Y014468D01*
X017673Y014546D02*
X018024Y014546D01*
X018024Y014625D02*
X017673Y014625D01*
X018204Y014717D02*
X017734Y015187D01*
X017734Y015887D01*
X018684Y015887D02*
X018684Y015137D01*
X018884Y014937D01*
X019084Y014937D01*
X019194Y014827D01*
X019194Y013477D01*
X019484Y013187D01*
X019202Y012976D02*
X018767Y012976D01*
X018782Y013055D02*
X019187Y013055D01*
X019187Y013133D02*
X018782Y013133D01*
X018782Y013212D02*
X019187Y013212D01*
X019127Y013290D02*
X018782Y013290D01*
X018782Y013369D02*
X019048Y013369D01*
X019014Y013447D02*
X018718Y013447D01*
X018716Y013526D02*
X019014Y013526D01*
X019014Y013604D02*
X018782Y013604D01*
X018782Y013683D02*
X019014Y013683D01*
X019014Y013761D02*
X018782Y013761D01*
X018782Y013840D02*
X019014Y013840D01*
X019014Y013918D02*
X018782Y013918D01*
X018204Y013467D02*
X018204Y014717D01*
X018204Y013467D02*
X018484Y013187D01*
X018189Y012270D02*
X019121Y012270D01*
X019045Y012191D02*
X018134Y012191D01*
X017219Y011799D02*
X015949Y011799D01*
X016023Y011720D02*
X016074Y011720D01*
X016284Y011537D02*
X015734Y011537D01*
X016001Y011328D02*
X016037Y011328D01*
X016079Y011249D02*
X015919Y011249D01*
X016284Y011537D02*
X016334Y011487D01*
X017095Y011720D02*
X017146Y011720D01*
X017234Y010787D02*
X017034Y010587D01*
X017234Y010787D02*
X019934Y010787D01*
X018024Y009601D02*
X017512Y009601D01*
X017512Y009679D02*
X017621Y009679D01*
X017542Y009758D02*
X017498Y009758D01*
X017512Y009836D02*
X017537Y009836D01*
X017537Y009915D02*
X017512Y009915D01*
X017512Y009993D02*
X017537Y009993D01*
X017537Y010072D02*
X017512Y010072D01*
X017512Y010150D02*
X017537Y010150D01*
X017554Y010229D02*
X017486Y010229D01*
X017512Y009522D02*
X018024Y009522D01*
X018024Y009444D02*
X017512Y009444D01*
X017512Y009365D02*
X018024Y009365D01*
X018024Y009287D02*
X017512Y009287D01*
X017507Y009208D02*
X018024Y009208D01*
X018024Y009130D02*
X017512Y009130D01*
X017512Y009051D02*
X018024Y009051D01*
X018024Y008973D02*
X017512Y008973D01*
X017512Y008894D02*
X018024Y008894D01*
X018024Y008816D02*
X017512Y008816D01*
X017478Y008737D02*
X018087Y008737D01*
X016991Y008737D02*
X016862Y008737D01*
X016909Y009208D02*
X016962Y009208D01*
X014242Y012191D02*
X013476Y012191D01*
X013535Y012113D02*
X013955Y012113D01*
X013650Y011249D02*
X013601Y011249D01*
X013656Y010778D02*
X013728Y010778D01*
X012876Y010561D02*
X012876Y011580D01*
X012696Y011563D02*
X012063Y011563D01*
X012141Y011485D02*
X012696Y011485D01*
X012696Y011406D02*
X012220Y011406D01*
X012298Y011328D02*
X012696Y011328D01*
X012696Y011249D02*
X012377Y011249D01*
X012455Y011171D02*
X012696Y011171D01*
X012696Y011092D02*
X012466Y011092D01*
X012466Y011014D02*
X012696Y011014D01*
X012286Y011086D02*
X012286Y010561D01*
X011892Y010561D02*
X011892Y011180D01*
X011534Y011537D01*
X011334Y011537D01*
X011134Y011737D01*
X010384Y011737D01*
X010184Y011537D01*
X008484Y011537D01*
X008034Y011987D01*
X007284Y011987D01*
X007027Y011877D02*
X004213Y011877D01*
X004291Y011799D02*
X007077Y011799D01*
X007197Y011720D02*
X004370Y011720D01*
X004413Y011677D02*
X004413Y011677D01*
X004448Y011642D02*
X008125Y011642D01*
X008047Y011720D02*
X007371Y011720D01*
X007492Y011799D02*
X007968Y011799D01*
X008204Y011563D02*
X004524Y011563D01*
X004144Y011406D02*
X004061Y011406D01*
X004061Y011328D02*
X004144Y011328D01*
X004144Y011249D02*
X004061Y011249D01*
X004061Y011171D02*
X004144Y011171D01*
X004144Y011092D02*
X004061Y011092D01*
X004126Y011014D02*
X004144Y011014D01*
X003825Y010778D02*
X002974Y010778D01*
X002974Y010700D02*
X003903Y010700D01*
X003944Y010621D02*
X002974Y010621D01*
X002974Y010543D02*
X003944Y010543D01*
X003944Y010464D02*
X002974Y010464D01*
X002974Y010386D02*
X003944Y010386D01*
X003944Y010307D02*
X002974Y010307D01*
X002974Y010229D02*
X003944Y010229D01*
X003944Y010150D02*
X002974Y010150D01*
X002974Y010072D02*
X003944Y010072D01*
X003944Y009993D02*
X002974Y009993D01*
X002974Y009915D02*
X003944Y009915D01*
X004619Y010621D02*
X004658Y010621D01*
X004658Y010700D02*
X004540Y010700D01*
X004524Y010778D02*
X004658Y010778D01*
X004658Y010857D02*
X004524Y010857D01*
X004524Y010935D02*
X004701Y010935D01*
X004068Y011485D02*
X004061Y011485D01*
X003990Y011563D02*
X003982Y011563D01*
X003911Y011642D02*
X003904Y011642D01*
X003833Y011720D02*
X003825Y011720D01*
X003754Y011799D02*
X002974Y011799D01*
X002974Y011877D02*
X003320Y011877D01*
X003242Y011956D02*
X002974Y011956D01*
X002974Y012034D02*
X003163Y012034D01*
X003108Y012113D02*
X002974Y012113D01*
X002974Y012191D02*
X003108Y012191D01*
X003108Y012270D02*
X002974Y012270D01*
X002974Y012348D02*
X003108Y012348D01*
X003108Y012427D02*
X002974Y012427D01*
X002974Y012505D02*
X003128Y012505D01*
X003207Y012584D02*
X002974Y012584D01*
X002974Y012662D02*
X003285Y012662D01*
X003364Y012741D02*
X002974Y012741D01*
X002974Y012819D02*
X004598Y012819D01*
X004676Y012741D02*
X003805Y012741D01*
X003883Y012662D02*
X004755Y012662D01*
X004834Y012837D02*
X005484Y012837D01*
X005934Y012387D01*
X005734Y012191D02*
X004061Y012191D01*
X004061Y012113D02*
X005865Y012113D01*
X006003Y012113D02*
X007033Y012113D01*
X007004Y012034D02*
X004056Y012034D01*
X004134Y011956D02*
X007004Y011956D01*
X007092Y012191D02*
X006134Y012191D01*
X006189Y012270D02*
X011680Y012270D01*
X011654Y012348D02*
X006214Y012348D01*
X006214Y012427D02*
X011626Y012427D01*
X011548Y012505D02*
X006188Y012505D01*
X006134Y012584D02*
X011469Y012584D01*
X011771Y012819D02*
X016634Y012819D01*
X016712Y012741D02*
X011849Y012741D01*
X012002Y012662D02*
X016791Y012662D01*
X016555Y012898D02*
X011692Y012898D01*
X011767Y012976D02*
X012202Y012976D01*
X012187Y013055D02*
X011782Y013055D01*
X011782Y013133D02*
X012187Y013133D01*
X012187Y013212D02*
X011782Y013212D01*
X011782Y013290D02*
X012127Y013290D01*
X012048Y013369D02*
X011782Y013369D01*
X011718Y013447D02*
X012024Y013447D01*
X012024Y013526D02*
X011716Y013526D01*
X011782Y013604D02*
X012024Y013604D01*
X012024Y013683D02*
X011782Y013683D01*
X011782Y013761D02*
X012024Y013761D01*
X012024Y013840D02*
X011782Y013840D01*
X011782Y013918D02*
X012024Y013918D01*
X012024Y013997D02*
X011768Y013997D01*
X011673Y014075D02*
X012024Y014075D01*
X012024Y014154D02*
X011673Y014154D01*
X011673Y014232D02*
X012024Y014232D01*
X012024Y014311D02*
X011673Y014311D01*
X011673Y014389D02*
X012024Y014389D01*
X012024Y014468D02*
X011673Y014468D01*
X011673Y014546D02*
X012024Y014546D01*
X012024Y014625D02*
X011673Y014625D01*
X012204Y014717D02*
X011734Y015187D01*
X011734Y015887D01*
X012684Y015887D02*
X012684Y015137D01*
X012884Y014937D01*
X013084Y014937D01*
X013194Y014827D01*
X013194Y013477D01*
X013484Y013187D01*
X013187Y013212D02*
X012782Y013212D01*
X012782Y013290D02*
X013127Y013290D01*
X013048Y013369D02*
X012782Y013369D01*
X012718Y013447D02*
X013014Y013447D01*
X013014Y013526D02*
X012716Y013526D01*
X012782Y013604D02*
X013014Y013604D01*
X013014Y013683D02*
X012782Y013683D01*
X012782Y013761D02*
X013014Y013761D01*
X013014Y013840D02*
X012782Y013840D01*
X012782Y013918D02*
X013014Y013918D01*
X013673Y014075D02*
X014024Y014075D01*
X014024Y013997D02*
X013768Y013997D01*
X013782Y013918D02*
X014024Y013918D01*
X014024Y013840D02*
X013782Y013840D01*
X013782Y013761D02*
X014024Y013761D01*
X014024Y013683D02*
X013782Y013683D01*
X013782Y013604D02*
X014024Y013604D01*
X014024Y013526D02*
X013716Y013526D01*
X013718Y013447D02*
X014024Y013447D01*
X014048Y013369D02*
X013782Y013369D01*
X013782Y013290D02*
X014127Y013290D01*
X014187Y013212D02*
X013782Y013212D01*
X013782Y013133D02*
X014187Y013133D01*
X014187Y013055D02*
X013782Y013055D01*
X013767Y012976D02*
X014202Y012976D01*
X014484Y013187D02*
X014204Y013467D01*
X014204Y014717D01*
X013734Y015187D01*
X013734Y015887D01*
X014684Y015887D02*
X014684Y015137D01*
X014884Y014937D01*
X015084Y014937D01*
X015194Y014827D01*
X015194Y013477D01*
X015484Y013187D01*
X015782Y013212D02*
X016187Y013212D01*
X016187Y013290D02*
X015782Y013290D01*
X015782Y013369D02*
X016187Y013369D01*
X016251Y013447D02*
X015718Y013447D01*
X015716Y013526D02*
X016253Y013526D01*
X016187Y013604D02*
X015782Y013604D01*
X015782Y013683D02*
X016187Y013683D01*
X016187Y013761D02*
X015782Y013761D01*
X015782Y013840D02*
X016187Y013840D01*
X016187Y013918D02*
X015782Y013918D01*
X015768Y013997D02*
X016178Y013997D01*
X016124Y014075D02*
X015673Y014075D01*
X015673Y014154D02*
X016124Y014154D01*
X016124Y014232D02*
X015673Y014232D01*
X015673Y014311D02*
X016124Y014311D01*
X016124Y014389D02*
X015673Y014389D01*
X015673Y014468D02*
X016124Y014468D01*
X016124Y014546D02*
X015673Y014546D01*
X015673Y014625D02*
X016124Y014625D01*
X015014Y013918D02*
X014782Y013918D01*
X014782Y013840D02*
X015014Y013840D01*
X015014Y013761D02*
X014782Y013761D01*
X014782Y013683D02*
X015014Y013683D01*
X015014Y013604D02*
X014782Y013604D01*
X014716Y013526D02*
X015014Y013526D01*
X015014Y013447D02*
X014718Y013447D01*
X014782Y013369D02*
X015048Y013369D01*
X015127Y013290D02*
X014782Y013290D01*
X014782Y013212D02*
X015187Y013212D01*
X015187Y013133D02*
X014782Y013133D01*
X014782Y013055D02*
X015187Y013055D01*
X015202Y012976D02*
X014767Y012976D01*
X015767Y012976D02*
X016202Y012976D01*
X016187Y013055D02*
X015782Y013055D01*
X015782Y013133D02*
X016187Y013133D01*
X016782Y013212D02*
X017187Y013212D01*
X017187Y013133D02*
X016857Y013133D01*
X016935Y013055D02*
X017187Y013055D01*
X017113Y013290D02*
X016782Y013290D01*
X016782Y013369D02*
X016807Y013369D01*
X016739Y013447D02*
X016718Y013447D01*
X014024Y014154D02*
X013673Y014154D01*
X013673Y014232D02*
X014024Y014232D01*
X014024Y014311D02*
X013673Y014311D01*
X013673Y014389D02*
X014024Y014389D01*
X014024Y014468D02*
X013673Y014468D01*
X013673Y014546D02*
X014024Y014546D01*
X014024Y014625D02*
X013673Y014625D01*
X012204Y014717D02*
X012204Y013467D01*
X012484Y013187D01*
X012782Y013133D02*
X013187Y013133D01*
X013187Y013055D02*
X012782Y013055D01*
X012767Y012976D02*
X013202Y012976D01*
X013033Y012113D02*
X012003Y012113D01*
X011865Y012113D02*
X011313Y012113D01*
X011392Y012034D02*
X013004Y012034D01*
X012998Y011956D02*
X011470Y011956D01*
X011434Y011737D02*
X011634Y011737D01*
X012286Y011086D01*
X011984Y011642D02*
X012696Y011642D01*
X012763Y011720D02*
X011906Y011720D01*
X011827Y011799D02*
X012841Y011799D01*
X012920Y011877D02*
X011749Y011877D01*
X011734Y012191D02*
X008626Y012191D01*
X008685Y012113D02*
X010205Y012113D01*
X010127Y012034D02*
X008714Y012034D01*
X008720Y011956D02*
X010048Y011956D01*
X010084Y011737D02*
X010284Y011937D01*
X011234Y011937D01*
X011434Y011737D01*
X011034Y011537D02*
X011234Y011337D01*
X011434Y011337D01*
X011695Y011076D01*
X011695Y010561D01*
X011506Y010543D02*
X011492Y010543D01*
X011492Y010621D02*
X011506Y010621D01*
X011506Y010700D02*
X011491Y010700D01*
X011491Y010778D02*
X011506Y010778D01*
X011508Y010857D02*
X011489Y010857D01*
X011515Y010935D02*
X011410Y010935D01*
X011503Y011014D02*
X008114Y011014D01*
X008095Y010935D02*
X009295Y010935D01*
X009136Y010857D02*
X008050Y010857D01*
X007941Y010778D02*
X009057Y010778D01*
X009384Y010537D02*
X009384Y009537D01*
X009739Y009183D01*
X010711Y009183D01*
X010711Y008986D02*
X009733Y008986D01*
X009811Y009365D02*
X010335Y009365D01*
X010335Y009444D02*
X009732Y009444D01*
X009654Y009522D02*
X010335Y009522D01*
X010335Y009601D02*
X009575Y009601D01*
X009564Y009679D02*
X010335Y009679D01*
X010335Y009758D02*
X009564Y009758D01*
X009564Y009836D02*
X010335Y009836D01*
X010335Y009915D02*
X009564Y009915D01*
X009564Y009993D02*
X010335Y009993D01*
X010335Y010072D02*
X009564Y010072D01*
X009564Y010150D02*
X010408Y010150D01*
X010500Y010229D02*
X009644Y010229D01*
X009723Y010307D02*
X010437Y010307D01*
X010437Y010386D02*
X009756Y010386D01*
X009786Y010464D02*
X010437Y010464D01*
X010437Y010543D02*
X009786Y010543D01*
X009784Y010621D02*
X010437Y010621D01*
X010454Y010700D02*
X009752Y010700D01*
X009712Y010778D02*
X011112Y010778D01*
X011115Y010857D02*
X009633Y010857D01*
X009473Y010935D02*
X011193Y010935D01*
X011146Y011171D02*
X010322Y011171D01*
X010401Y011249D02*
X011068Y011249D01*
X010989Y011328D02*
X010479Y011328D01*
X010414Y011263D02*
X010414Y011263D01*
X010234Y011337D02*
X010434Y011537D01*
X011034Y011537D01*
X011425Y011092D02*
X008144Y011092D01*
X008134Y011337D02*
X010234Y011337D01*
X010084Y011737D02*
X008684Y011737D01*
X008434Y011987D01*
X008242Y012191D02*
X007476Y012191D01*
X008163Y012113D02*
X008183Y012113D01*
X008134Y011337D02*
X007834Y011037D01*
X008184Y010537D02*
X008084Y010437D01*
X008184Y010537D02*
X009384Y010537D01*
X009125Y010229D02*
X008369Y010229D01*
X008382Y010307D02*
X009046Y010307D01*
X010969Y010229D02*
X011150Y010229D01*
X011112Y010307D02*
X011032Y010307D01*
X011453Y010229D02*
X011544Y010229D01*
X011506Y010307D02*
X011491Y010307D01*
X011491Y010386D02*
X011506Y010386D01*
X011506Y010464D02*
X011491Y010464D01*
X011440Y010150D02*
X011601Y010150D01*
X011537Y010072D02*
X011518Y010072D01*
X011020Y008580D02*
X011009Y008580D01*
X010309Y008580D02*
X010024Y008580D01*
X010024Y008502D02*
X010230Y008502D01*
X010152Y008423D02*
X010024Y008423D01*
X009961Y008345D02*
X010094Y008345D01*
X010094Y008266D02*
X009882Y008266D01*
X009804Y008188D02*
X010094Y008188D01*
X010094Y008109D02*
X009725Y008109D01*
X009647Y008031D02*
X010094Y008031D01*
X010830Y007167D02*
X010904Y007167D01*
X010830Y007089D02*
X011112Y007089D01*
X011112Y007167D02*
X011064Y007167D01*
X011112Y007010D02*
X010830Y007010D01*
X010830Y006932D02*
X011112Y006932D01*
X011112Y006853D02*
X010751Y006853D01*
X011112Y006775D02*
X010024Y006775D01*
X010024Y006853D02*
X010118Y006853D01*
X010053Y006696D02*
X011112Y006696D01*
X011112Y006618D02*
X010082Y006618D01*
X010082Y006539D02*
X011112Y006539D01*
X011112Y006461D02*
X010082Y006461D01*
X010082Y006382D02*
X011061Y006382D01*
X010732Y006304D02*
X010031Y006304D01*
X009538Y006304D02*
X008931Y006304D01*
X008982Y006382D02*
X009487Y006382D01*
X009487Y006461D02*
X008982Y006461D01*
X008982Y006539D02*
X009487Y006539D01*
X009487Y006618D02*
X008982Y006618D01*
X008953Y006696D02*
X009515Y006696D01*
X009557Y005990D02*
X008912Y005990D01*
X008982Y005911D02*
X009487Y005911D01*
X009487Y005833D02*
X008982Y005833D01*
X008982Y005754D02*
X009487Y005754D01*
X009487Y005676D02*
X008982Y005676D01*
X008972Y005597D02*
X009496Y005597D01*
X012232Y005362D02*
X012287Y005362D01*
X012287Y005283D02*
X012232Y005283D01*
X012232Y005205D02*
X012287Y005205D01*
X012263Y005440D02*
X012256Y005440D01*
X006514Y004341D02*
X004882Y004341D01*
X004861Y004263D02*
X006436Y004263D01*
X006357Y004184D02*
X004818Y004184D01*
X004721Y004106D02*
X006308Y004106D01*
X006458Y008580D02*
X006510Y008580D01*
X006497Y008659D02*
X006471Y008659D01*
X006471Y008737D02*
X006497Y008737D01*
X006497Y008816D02*
X006471Y008816D01*
X006471Y008894D02*
X006497Y008894D01*
X006497Y008973D02*
X006471Y008973D01*
X006471Y009051D02*
X006497Y009051D01*
X003341Y010857D02*
X002974Y010857D01*
X002974Y010935D02*
X003262Y010935D01*
X003184Y011014D02*
X002974Y011014D01*
X002974Y011092D02*
X003108Y011092D01*
X003108Y011171D02*
X002974Y011171D01*
X002974Y011249D02*
X003108Y011249D01*
X003108Y011328D02*
X002974Y011328D01*
X002974Y011406D02*
X003108Y011406D01*
X002974Y011642D02*
X003265Y011642D01*
X003343Y011720D02*
X002974Y011720D01*
X003962Y012584D02*
X005483Y012584D01*
X005562Y012505D02*
X004040Y012505D01*
X004061Y012427D02*
X005640Y012427D01*
X005654Y012348D02*
X004061Y012348D01*
X004061Y012270D02*
X005680Y012270D01*
X005835Y012741D02*
X010662Y012741D01*
X010584Y012819D02*
X005757Y012819D01*
X005678Y012898D02*
X010505Y012898D01*
X010202Y012976D02*
X009767Y012976D01*
X009782Y013055D02*
X010187Y013055D01*
X010187Y013133D02*
X009782Y013133D01*
X009782Y013212D02*
X010187Y013212D01*
X010187Y013290D02*
X009782Y013290D01*
X009782Y013369D02*
X010187Y013369D01*
X010251Y013447D02*
X009718Y013447D01*
X009716Y013526D02*
X010253Y013526D01*
X010187Y013604D02*
X009782Y013604D01*
X009782Y013683D02*
X010187Y013683D01*
X010187Y013761D02*
X009782Y013761D01*
X009782Y013840D02*
X010187Y013840D01*
X010187Y013918D02*
X009782Y013918D01*
X009768Y013997D02*
X010178Y013997D01*
X010124Y014075D02*
X009673Y014075D01*
X009673Y014154D02*
X010124Y014154D01*
X010124Y014232D02*
X009673Y014232D01*
X009673Y014311D02*
X010124Y014311D01*
X010124Y014389D02*
X009673Y014389D01*
X009673Y014468D02*
X010124Y014468D01*
X010124Y014546D02*
X009673Y014546D01*
X009673Y014625D02*
X010124Y014625D01*
X009194Y014827D02*
X009084Y014937D01*
X008884Y014937D01*
X008684Y015137D01*
X008684Y015887D01*
X007734Y015887D02*
X007734Y015187D01*
X008204Y014717D01*
X008204Y013467D01*
X008484Y013187D01*
X008782Y013212D02*
X009187Y013212D01*
X009187Y013133D02*
X008782Y013133D01*
X008782Y013055D02*
X009187Y013055D01*
X009202Y012976D02*
X008767Y012976D01*
X008782Y013290D02*
X009127Y013290D01*
X009048Y013369D02*
X008782Y013369D01*
X008718Y013447D02*
X009014Y013447D01*
X009014Y013526D02*
X008716Y013526D01*
X008782Y013604D02*
X009014Y013604D01*
X009014Y013683D02*
X008782Y013683D01*
X008782Y013761D02*
X009014Y013761D01*
X009014Y013840D02*
X008782Y013840D01*
X008782Y013918D02*
X009014Y013918D01*
X009194Y013477D02*
X009484Y013187D01*
X009194Y013477D02*
X009194Y014827D01*
X008024Y014625D02*
X007673Y014625D01*
X007673Y014546D02*
X008024Y014546D01*
X008024Y014468D02*
X007673Y014468D01*
X007673Y014389D02*
X008024Y014389D01*
X008024Y014311D02*
X007673Y014311D01*
X007673Y014232D02*
X008024Y014232D01*
X008024Y014154D02*
X007673Y014154D01*
X007673Y014075D02*
X008024Y014075D01*
X008024Y013997D02*
X007768Y013997D01*
X007782Y013918D02*
X008024Y013918D01*
X008024Y013840D02*
X007782Y013840D01*
X007782Y013761D02*
X008024Y013761D01*
X008024Y013683D02*
X007782Y013683D01*
X007782Y013604D02*
X008024Y013604D01*
X008024Y013526D02*
X007716Y013526D01*
X007718Y013447D02*
X008024Y013447D01*
X008048Y013369D02*
X007782Y013369D01*
X007782Y013290D02*
X008127Y013290D01*
X008187Y013212D02*
X007782Y013212D01*
X007782Y013133D02*
X008187Y013133D01*
X008187Y013055D02*
X007782Y013055D01*
X007767Y012976D02*
X008202Y012976D01*
X007484Y013187D02*
X007194Y013477D01*
X007194Y014827D01*
X007084Y014937D01*
X006884Y014937D01*
X006684Y015137D01*
X006684Y015887D01*
X005734Y015887D02*
X005734Y015187D01*
X006204Y014717D01*
X006204Y013467D01*
X006484Y013187D01*
X006187Y013212D02*
X005782Y013212D01*
X005782Y013290D02*
X006127Y013290D01*
X006048Y013369D02*
X005782Y013369D01*
X005718Y013447D02*
X006024Y013447D01*
X006024Y013526D02*
X005716Y013526D01*
X005782Y013604D02*
X006024Y013604D01*
X006024Y013683D02*
X005782Y013683D01*
X005782Y013761D02*
X006024Y013761D01*
X006024Y013840D02*
X005782Y013840D01*
X005782Y013918D02*
X006024Y013918D01*
X006024Y013997D02*
X005768Y013997D01*
X005673Y014075D02*
X006024Y014075D01*
X006024Y014154D02*
X005673Y014154D01*
X005673Y014232D02*
X006024Y014232D01*
X006024Y014311D02*
X005673Y014311D01*
X005673Y014389D02*
X006024Y014389D01*
X006024Y014468D02*
X005673Y014468D01*
X005673Y014546D02*
X006024Y014546D01*
X006024Y014625D02*
X005673Y014625D01*
X005084Y013587D02*
X005484Y013187D01*
X005187Y013212D02*
X004782Y013212D01*
X004782Y013290D02*
X005127Y013290D01*
X005187Y013133D02*
X004793Y013133D01*
X004871Y013055D02*
X005187Y013055D01*
X004834Y012837D02*
X004484Y013187D01*
X004519Y012898D02*
X002974Y012898D01*
X002974Y012976D02*
X004202Y012976D01*
X004187Y013055D02*
X002974Y013055D01*
X002974Y013133D02*
X004187Y013133D01*
X004187Y013212D02*
X002974Y013212D01*
X002974Y013290D02*
X003399Y013290D01*
X003307Y013369D02*
X002974Y013369D01*
X002974Y013447D02*
X003269Y013447D01*
X003254Y013526D02*
X002974Y013526D01*
X002974Y013604D02*
X003259Y013604D01*
X003292Y013683D02*
X002974Y013683D01*
X002974Y013761D02*
X003362Y013761D01*
X003384Y013840D02*
X002974Y013840D01*
X002974Y013918D02*
X003384Y013918D01*
X003384Y013997D02*
X002974Y013997D01*
X002974Y014075D02*
X003384Y014075D01*
X003384Y014154D02*
X002974Y014154D01*
X002974Y014232D02*
X003384Y014232D01*
X003384Y014311D02*
X002974Y014311D01*
X002974Y014389D02*
X003384Y014389D01*
X003384Y014468D02*
X002974Y014468D01*
X002974Y014546D02*
X003384Y014546D01*
X003384Y014625D02*
X002974Y014625D01*
X002974Y014703D02*
X003384Y014703D01*
X003384Y014782D02*
X002974Y014782D01*
X002974Y014860D02*
X003384Y014860D01*
X003384Y014939D02*
X002974Y014939D01*
X002974Y015017D02*
X003384Y015017D01*
X003384Y015096D02*
X002974Y015096D01*
X002974Y015174D02*
X003384Y015174D01*
X003384Y015253D02*
X002974Y015253D01*
X002974Y015331D02*
X003384Y015331D01*
X003384Y015410D02*
X002974Y015410D01*
X002974Y015488D02*
X003384Y015488D01*
X003384Y015567D02*
X002974Y015567D01*
X002974Y015645D02*
X003384Y015645D01*
X003384Y015724D02*
X002974Y015724D01*
X002974Y015802D02*
X003384Y015802D01*
X003384Y015881D02*
X002974Y015881D01*
X002974Y015959D02*
X003404Y015959D01*
X003423Y016038D02*
X002974Y016038D01*
X002974Y016116D02*
X003467Y016116D01*
X003574Y016195D02*
X002974Y016195D01*
X002974Y016273D02*
X003624Y016273D01*
X003624Y016352D02*
X002974Y016352D01*
X002974Y016430D02*
X003624Y016430D01*
X003624Y016509D02*
X002974Y016509D01*
X002974Y016587D02*
X003624Y016587D01*
X003624Y016666D02*
X002974Y016666D01*
X002974Y016744D02*
X003624Y016744D01*
X003624Y016823D02*
X002974Y016823D01*
X002974Y016901D02*
X003624Y016901D01*
X003624Y016980D02*
X002974Y016980D01*
X002974Y017058D02*
X003624Y017058D01*
X003624Y017137D02*
X002974Y017137D01*
X002974Y017215D02*
X003624Y017215D01*
X003624Y017294D02*
X002974Y017294D01*
X002974Y017372D02*
X003624Y017372D01*
X003624Y017451D02*
X002974Y017451D01*
X002974Y017529D02*
X003624Y017529D01*
X003624Y017608D02*
X002974Y017608D01*
X002974Y017686D02*
X003624Y017686D01*
X003665Y017765D02*
X002974Y017765D01*
X002974Y017843D02*
X003743Y017843D01*
X003642Y018471D02*
X002974Y018471D01*
X002974Y018393D02*
X004710Y018393D01*
X004632Y018314D02*
X002974Y018314D01*
X002974Y018236D02*
X004553Y018236D01*
X004475Y018157D02*
X002974Y018157D01*
X002974Y018079D02*
X004396Y018079D01*
X004318Y018000D02*
X002974Y018000D01*
X002974Y017922D02*
X004239Y017922D01*
X003995Y018471D02*
X004789Y018471D01*
X004867Y018550D02*
X004269Y018550D01*
X004405Y018628D02*
X004946Y018628D01*
X005024Y018707D02*
X004527Y018707D01*
X004606Y018785D02*
X005103Y018785D01*
X005181Y018864D02*
X004684Y018864D01*
X004744Y018942D02*
X005164Y018942D01*
X005108Y019021D02*
X004789Y019021D01*
X004835Y019099D02*
X005108Y019099D01*
X005108Y019178D02*
X004873Y019178D01*
X004894Y019256D02*
X005108Y019256D01*
X005108Y019335D02*
X004915Y019335D01*
X004936Y019413D02*
X005108Y019413D01*
X005124Y019492D02*
X004943Y019492D01*
X004943Y019570D02*
X005202Y019570D01*
X005281Y019649D02*
X004943Y019649D01*
X004943Y019727D02*
X005359Y019727D01*
X005438Y019806D02*
X004924Y019806D01*
X004903Y019884D02*
X020451Y019884D01*
X020430Y019806D02*
X019931Y019806D01*
X020009Y019727D02*
X020411Y019727D01*
X020411Y019649D02*
X020088Y019649D01*
X020166Y019570D02*
X020411Y019570D01*
X020411Y019492D02*
X020245Y019492D01*
X020261Y019413D02*
X020418Y019413D01*
X020439Y019335D02*
X020261Y019335D01*
X020261Y019256D02*
X020460Y019256D01*
X020481Y019178D02*
X020324Y019178D01*
X020361Y019099D02*
X020519Y019099D01*
X020564Y019021D02*
X020393Y019021D01*
X020394Y018942D02*
X020610Y018942D01*
X020669Y018864D02*
X020394Y018864D01*
X020394Y018785D02*
X020748Y018785D01*
X020826Y018707D02*
X020394Y018707D01*
X020394Y018628D02*
X020949Y018628D01*
X021085Y018550D02*
X020394Y018550D01*
X020394Y018471D02*
X021359Y018471D01*
X021711Y018471D02*
X022379Y018471D01*
X022379Y018393D02*
X020394Y018393D01*
X020394Y018314D02*
X022379Y018314D01*
X022379Y018236D02*
X020394Y018236D01*
X020394Y018157D02*
X022379Y018157D01*
X022379Y018079D02*
X020394Y018079D01*
X020394Y018000D02*
X022379Y018000D01*
X022379Y017922D02*
X020394Y017922D01*
X020394Y017843D02*
X020509Y017843D01*
X020431Y017765D02*
X020394Y017765D01*
X020394Y017686D02*
X020428Y017686D01*
X020428Y017608D02*
X020394Y017608D01*
X020394Y017529D02*
X020428Y017529D01*
X020428Y017451D02*
X020394Y017451D01*
X020394Y017372D02*
X020428Y017372D01*
X020428Y017294D02*
X020394Y017294D01*
X021141Y017294D02*
X022379Y017294D01*
X022379Y017372D02*
X021141Y017372D01*
X021141Y017451D02*
X022379Y017451D01*
X022379Y017529D02*
X021141Y017529D01*
X021141Y017608D02*
X022379Y017608D01*
X022379Y017686D02*
X021141Y017686D01*
X021138Y017765D02*
X022379Y017765D01*
X022379Y017843D02*
X021059Y017843D01*
X021653Y017215D02*
X022379Y017215D01*
X022379Y017137D02*
X021732Y017137D01*
X021744Y017058D02*
X022379Y017058D01*
X022379Y016980D02*
X021744Y016980D01*
X021744Y016901D02*
X022379Y016901D01*
X022379Y016823D02*
X021744Y016823D01*
X021744Y016744D02*
X022379Y016744D01*
X022379Y016666D02*
X021744Y016666D01*
X021744Y016587D02*
X022379Y016587D01*
X022379Y016509D02*
X021744Y016509D01*
X021744Y016430D02*
X022379Y016430D01*
X022379Y016352D02*
X021744Y016352D01*
X021744Y016273D02*
X022379Y016273D01*
X022379Y016195D02*
X021744Y016195D01*
X021744Y016116D02*
X022379Y016116D01*
X022379Y016038D02*
X021744Y016038D01*
X021744Y015959D02*
X022379Y015959D01*
X022379Y015881D02*
X021744Y015881D01*
X021744Y015802D02*
X022379Y015802D01*
X022379Y015724D02*
X021744Y015724D01*
X021744Y015645D02*
X022379Y015645D01*
X022379Y015567D02*
X021744Y015567D01*
X021744Y015488D02*
X022379Y015488D01*
X022379Y015410D02*
X021744Y015410D01*
X021744Y015331D02*
X022379Y015331D01*
X022379Y015253D02*
X021744Y015253D01*
X021744Y015174D02*
X022379Y015174D01*
X022379Y015096D02*
X021756Y015096D01*
X021773Y015017D02*
X022379Y015017D01*
X022379Y014939D02*
X021773Y014939D01*
X021748Y014860D02*
X022379Y014860D01*
X022379Y014782D02*
X021744Y014782D01*
X021744Y014703D02*
X022379Y014703D01*
X022379Y014625D02*
X021673Y014625D01*
X021673Y014546D02*
X022379Y014546D01*
X022379Y014468D02*
X021673Y014468D01*
X021673Y014389D02*
X022379Y014389D01*
X022379Y014311D02*
X021673Y014311D01*
X021673Y014232D02*
X022379Y014232D01*
X022379Y014154D02*
X021673Y014154D01*
X021673Y014075D02*
X022379Y014075D01*
X022379Y013997D02*
X021768Y013997D01*
X021782Y013918D02*
X022379Y013918D01*
X022379Y013840D02*
X021782Y013840D01*
X021782Y013761D02*
X022379Y013761D01*
X022379Y013683D02*
X021782Y013683D01*
X021782Y013604D02*
X022379Y013604D01*
X022379Y013526D02*
X021716Y013526D01*
X021194Y013477D02*
X021194Y014727D01*
X020684Y015237D01*
X020684Y015887D01*
X019734Y015887D02*
X019734Y015187D01*
X020204Y014717D01*
X016632Y018314D02*
X015744Y018314D01*
X015744Y018236D02*
X016553Y018236D01*
X016475Y018157D02*
X015744Y018157D01*
X015744Y018079D02*
X016396Y018079D01*
X016318Y018000D02*
X015744Y018000D01*
X015744Y017922D02*
X016239Y017922D01*
X016202Y017885D02*
X016202Y017885D01*
X015744Y018393D02*
X016710Y018393D01*
X016789Y018471D02*
X015744Y018471D01*
X015744Y018550D02*
X016867Y018550D01*
X016946Y018628D02*
X015744Y018628D01*
X015744Y018707D02*
X017024Y018707D01*
X017103Y018785D02*
X015744Y018785D01*
X015744Y018864D02*
X017181Y018864D01*
X017164Y018942D02*
X015744Y018942D01*
X015719Y019021D02*
X017108Y019021D01*
X017108Y019099D02*
X015681Y019099D01*
X015659Y019178D02*
X017108Y019178D01*
X017108Y019256D02*
X015659Y019256D01*
X015659Y019335D02*
X017108Y019335D01*
X017108Y019413D02*
X015659Y019413D01*
X015636Y019492D02*
X017124Y019492D01*
X017202Y019570D02*
X014166Y019570D01*
X014245Y019492D02*
X014733Y019492D01*
X014709Y019413D02*
X014261Y019413D01*
X014261Y019335D02*
X014709Y019335D01*
X014709Y019256D02*
X014261Y019256D01*
X014324Y019178D02*
X014709Y019178D01*
X014709Y019099D02*
X014390Y019099D01*
X014423Y019021D02*
X014709Y019021D01*
X014709Y018942D02*
X014444Y018942D01*
X014444Y018864D02*
X014709Y018864D01*
X014709Y018785D02*
X014444Y018785D01*
X014444Y018707D02*
X014709Y018707D01*
X014787Y018628D02*
X014444Y018628D01*
X014444Y018550D02*
X015024Y018550D01*
X015024Y018471D02*
X014444Y018471D01*
X014444Y018393D02*
X015024Y018393D01*
X015024Y018314D02*
X014444Y018314D01*
X014444Y018236D02*
X015024Y018236D01*
X015024Y018157D02*
X014444Y018157D01*
X014444Y018079D02*
X015024Y018079D01*
X015024Y018000D02*
X014444Y018000D01*
X014444Y017922D02*
X015024Y017922D01*
X014509Y017843D02*
X014444Y017843D01*
X014088Y019649D02*
X017281Y019649D01*
X017359Y019727D02*
X014009Y019727D01*
X013931Y019806D02*
X017438Y019806D01*
X017931Y019806D02*
X018438Y019806D01*
X018359Y019727D02*
X018009Y019727D01*
X018088Y019649D02*
X018281Y019649D01*
X018202Y019570D02*
X018166Y019570D01*
X018931Y019806D02*
X019438Y019806D01*
X019359Y019727D02*
X019009Y019727D01*
X019088Y019649D02*
X019281Y019649D01*
X019202Y019570D02*
X019166Y019570D01*
X020472Y019963D02*
X004882Y019963D01*
X004855Y020041D02*
X020499Y020041D01*
X020544Y020120D02*
X004810Y020120D01*
X004764Y020198D02*
X020589Y020198D01*
X020635Y020277D02*
X004719Y020277D01*
X004641Y020355D02*
X020712Y020355D01*
X021985Y018550D02*
X022379Y018550D01*
X022379Y018628D02*
X022121Y018628D01*
X022244Y018707D02*
X022379Y018707D01*
X022379Y018785D02*
X022322Y018785D01*
X013438Y019806D02*
X012931Y019806D01*
X013009Y019727D02*
X013359Y019727D01*
X013281Y019649D02*
X013088Y019649D01*
X013166Y019570D02*
X013202Y019570D01*
X012438Y019806D02*
X011931Y019806D01*
X012009Y019727D02*
X012359Y019727D01*
X012281Y019649D02*
X012088Y019649D01*
X012166Y019570D02*
X012202Y019570D01*
X011438Y019806D02*
X007931Y019806D01*
X008009Y019727D02*
X011359Y019727D01*
X011281Y019649D02*
X008088Y019649D01*
X008166Y019570D02*
X011202Y019570D01*
X011124Y019492D02*
X009636Y019492D01*
X009659Y019413D02*
X011108Y019413D01*
X011108Y019335D02*
X009659Y019335D01*
X009659Y019256D02*
X011108Y019256D01*
X011108Y019178D02*
X009659Y019178D01*
X009681Y019099D02*
X011108Y019099D01*
X011108Y019021D02*
X009719Y019021D01*
X009744Y018942D02*
X011164Y018942D01*
X011181Y018864D02*
X009744Y018864D01*
X009744Y018785D02*
X011103Y018785D01*
X011024Y018707D02*
X009744Y018707D01*
X009744Y018628D02*
X010946Y018628D01*
X010867Y018550D02*
X009744Y018550D01*
X009744Y018471D02*
X010789Y018471D01*
X010710Y018393D02*
X009744Y018393D01*
X009744Y018314D02*
X010632Y018314D01*
X010553Y018236D02*
X009744Y018236D01*
X009744Y018157D02*
X010475Y018157D01*
X010396Y018079D02*
X009744Y018079D01*
X009744Y018000D02*
X010318Y018000D01*
X010239Y017922D02*
X009744Y017922D01*
X009024Y017922D02*
X008444Y017922D01*
X008444Y018000D02*
X009024Y018000D01*
X009024Y018079D02*
X008444Y018079D01*
X008444Y018157D02*
X009024Y018157D01*
X009024Y018236D02*
X008444Y018236D01*
X008444Y018314D02*
X009024Y018314D01*
X009024Y018393D02*
X008444Y018393D01*
X008444Y018471D02*
X009024Y018471D01*
X009024Y018550D02*
X008444Y018550D01*
X008444Y018628D02*
X008787Y018628D01*
X008709Y018707D02*
X008444Y018707D01*
X008444Y018785D02*
X008709Y018785D01*
X008709Y018864D02*
X008444Y018864D01*
X008444Y018942D02*
X008709Y018942D01*
X008709Y019021D02*
X008423Y019021D01*
X008390Y019099D02*
X008709Y019099D01*
X008709Y019178D02*
X008324Y019178D01*
X008261Y019256D02*
X008709Y019256D01*
X008709Y019335D02*
X008261Y019335D01*
X008261Y019413D02*
X008709Y019413D01*
X008733Y019492D02*
X008245Y019492D01*
X007438Y019806D02*
X006931Y019806D01*
X007009Y019727D02*
X007359Y019727D01*
X007281Y019649D02*
X007088Y019649D01*
X007166Y019570D02*
X007202Y019570D01*
X006438Y019806D02*
X005931Y019806D01*
X006009Y019727D02*
X006359Y019727D01*
X006281Y019649D02*
X006088Y019649D01*
X006166Y019570D02*
X006202Y019570D01*
X008444Y017843D02*
X008509Y017843D01*
X007014Y013918D02*
X006782Y013918D01*
X006782Y013840D02*
X007014Y013840D01*
X007014Y013761D02*
X006782Y013761D01*
X006782Y013683D02*
X007014Y013683D01*
X007014Y013604D02*
X006782Y013604D01*
X006716Y013526D02*
X007014Y013526D01*
X007014Y013447D02*
X006718Y013447D01*
X006782Y013369D02*
X007048Y013369D01*
X007127Y013290D02*
X006782Y013290D01*
X006782Y013212D02*
X007187Y013212D01*
X007187Y013133D02*
X006782Y013133D01*
X006782Y013055D02*
X007187Y013055D01*
X007202Y012976D02*
X006767Y012976D01*
X006202Y012976D02*
X005767Y012976D01*
X005782Y013055D02*
X006187Y013055D01*
X006187Y013133D02*
X005782Y013133D01*
X006002Y012662D02*
X010741Y012662D01*
X010885Y013055D02*
X011187Y013055D01*
X011187Y013133D02*
X010807Y013133D01*
X010782Y013212D02*
X011187Y013212D01*
X011113Y013290D02*
X010782Y013290D01*
X010782Y013369D02*
X010807Y013369D01*
X010739Y013447D02*
X010718Y013447D01*
X005084Y013587D02*
X004984Y013587D01*
X004807Y013369D02*
X004782Y013369D01*
X004739Y013447D02*
X004718Y013447D01*
X004251Y013447D02*
X003800Y013447D01*
X003814Y013526D02*
X004253Y013526D01*
X004187Y013604D02*
X003810Y013604D01*
X003784Y013683D02*
X004187Y013683D01*
X004187Y013761D02*
X003784Y013761D01*
X003784Y013840D02*
X004187Y013840D01*
X004187Y013918D02*
X003784Y013918D01*
X003784Y013997D02*
X004178Y013997D01*
X004124Y014075D02*
X003784Y014075D01*
X003784Y014154D02*
X004124Y014154D01*
X004124Y014232D02*
X003784Y014232D01*
X003784Y014311D02*
X004124Y014311D01*
X004124Y014389D02*
X003784Y014389D01*
X003784Y014468D02*
X004124Y014468D01*
X004124Y014546D02*
X003784Y014546D01*
X003784Y014625D02*
X004124Y014625D01*
X004187Y013369D02*
X003762Y013369D01*
X003670Y013290D02*
X004187Y013290D01*
X003368Y018550D02*
X002974Y018550D01*
X002974Y018628D02*
X003232Y018628D01*
X003110Y018707D02*
X002974Y018707D01*
X002974Y018785D02*
X003031Y018785D01*
X021935Y002928D02*
X022379Y002928D01*
X022379Y002850D02*
X022089Y002850D01*
D45*
X016884Y003887D03*
X016384Y003887D03*
X014634Y005037D03*
X014634Y005437D03*
X015784Y006137D03*
X016334Y006137D03*
X015884Y007137D03*
X016534Y007687D03*
X016734Y008987D03*
X017834Y008987D03*
X017834Y009487D03*
X018484Y008487D03*
X019834Y011087D03*
X020184Y012037D03*
X019284Y012037D03*
X018434Y011787D03*
X017934Y012387D03*
X016984Y013587D03*
X016934Y014237D03*
X017934Y014237D03*
X017934Y014537D03*
X017734Y015887D03*
X017934Y016637D03*
X017384Y017487D03*
X018784Y017487D03*
X019384Y017487D03*
X019934Y016637D03*
X020784Y017487D03*
X020684Y015887D03*
X019734Y015887D03*
X018684Y015887D03*
X019934Y014537D03*
X019934Y014237D03*
X015934Y013937D03*
X015934Y013637D03*
X014434Y011987D03*
X013834Y011037D03*
X014684Y010387D03*
X014684Y009787D03*
X014534Y009287D03*
X013434Y009537D03*
X013434Y008937D03*
X012984Y009937D03*
X012584Y009937D03*
X012184Y009937D03*
X011784Y009937D03*
X010734Y010487D03*
X009784Y010987D03*
X008984Y010987D03*
X008434Y011987D03*
X007834Y011037D03*
X007284Y011987D03*
X006434Y011787D03*
X005934Y012387D03*
X004984Y013587D03*
X004934Y014237D03*
X005934Y014237D03*
X005934Y014537D03*
X005734Y015887D03*
X005934Y016637D03*
X005384Y017487D03*
X006784Y017487D03*
X007384Y017487D03*
X007934Y016637D03*
X007734Y015887D03*
X008684Y015887D03*
X007934Y014537D03*
X007934Y014237D03*
X006684Y015887D03*
X008784Y017487D03*
X011384Y017487D03*
X011934Y016637D03*
X011734Y015887D03*
X012684Y015887D03*
X013734Y015887D03*
X013934Y016637D03*
X013384Y017487D03*
X012784Y017487D03*
X014684Y015887D03*
X013934Y014537D03*
X013934Y014237D03*
X011934Y014237D03*
X011934Y014537D03*
X010934Y014237D03*
X010984Y013587D03*
X009934Y013637D03*
X009934Y013937D03*
X011934Y012387D03*
X012434Y011787D03*
X013284Y011987D03*
X011284Y008487D03*
X012034Y007837D03*
X012434Y007837D03*
X012834Y007837D03*
X014034Y007287D03*
X014034Y006687D03*
X010984Y007437D03*
X009784Y006511D03*
X008134Y006387D03*
X008134Y005887D03*
X007534Y005587D03*
X007534Y005187D03*
X006904Y007337D03*
X006564Y007337D03*
X006984Y009587D03*
X007384Y009587D03*
X006434Y009937D03*
X005734Y009937D03*
X005034Y009937D03*
X003534Y013537D03*
X003934Y013637D03*
X003934Y013937D03*
X003684Y015937D03*
X014784Y017487D03*
D46*
X020484Y006937D03*
X020484Y005737D03*
X021734Y005737D03*
X021734Y006937D03*
X021884Y004087D03*
D47*
X018984Y006687D03*
X018984Y007237D03*
X018234Y007237D03*
X018234Y006687D03*
X017984Y008147D03*
X019234Y008837D03*
X019734Y008837D03*
X019734Y009337D03*
X019234Y009337D03*
X019734Y009837D03*
X018734Y010447D03*
X022084Y011887D03*
X022084Y013087D03*
X022084Y014287D03*
X021434Y014987D03*
X021084Y015337D03*
X022084Y015487D03*
X022084Y016687D03*
X022084Y017887D03*
X019384Y015337D03*
X019034Y015337D03*
X017384Y015337D03*
X016984Y015337D03*
X015384Y015337D03*
X015034Y015337D03*
X013384Y015337D03*
X013034Y015337D03*
X011384Y015337D03*
X010984Y015337D03*
X009384Y015337D03*
X009034Y015337D03*
X007384Y015337D03*
X007034Y015337D03*
X005384Y015337D03*
X004984Y015337D03*
X003284Y016587D03*
X003184Y015287D03*
X003184Y013987D03*
X003284Y017887D03*
X009784Y012287D03*
X015584Y012487D03*
X003384Y007037D03*
X003384Y003437D03*
D48*
X005647Y005237D02*
X006334Y005237D01*
X006484Y005087D01*
X006449Y005552D02*
X006484Y005587D01*
X006449Y005552D02*
X005647Y005552D01*
X007084Y005587D02*
X007534Y005587D01*
X007534Y005187D02*
X007184Y005187D01*
X007084Y005087D01*
X007284Y004437D02*
X006784Y003937D01*
X007284Y004437D02*
X007984Y004437D01*
X008184Y004637D01*
X008884Y004637D01*
X009084Y004837D01*
X010234Y004837D01*
X010484Y005087D01*
X010484Y005787D01*
X010834Y006137D01*
X011084Y006137D01*
X011302Y006355D01*
X011302Y007214D01*
X011498Y007214D02*
X011498Y006252D01*
X011184Y005937D01*
X010934Y005937D01*
X010684Y005687D01*
X010684Y004987D01*
X010334Y004637D01*
X009184Y004637D01*
X008984Y004437D01*
X008284Y004437D01*
X007784Y003937D01*
X008784Y003937D02*
X009284Y004437D01*
X010434Y004437D01*
X010884Y004887D01*
X010884Y005587D01*
X011034Y005737D01*
X011334Y005737D01*
X011695Y006098D01*
X011695Y007214D01*
X011892Y007214D02*
X011892Y005995D01*
X011284Y005387D01*
X011934Y005387D02*
X012089Y005542D01*
X012089Y007214D01*
X012286Y007214D02*
X012286Y005686D01*
X012584Y005387D01*
X012584Y004787D02*
X012584Y004337D01*
X012184Y003937D01*
X011934Y004787D02*
X011084Y003937D01*
X010984Y003937D01*
X010934Y004437D02*
X010734Y004437D01*
X010234Y003937D01*
X009984Y003937D01*
X010934Y004437D02*
X011284Y004787D01*
X012483Y006139D02*
X013234Y005387D01*
X013234Y005687D02*
X013584Y005687D01*
X013884Y005387D01*
X013884Y005687D02*
X013634Y005937D01*
X013284Y005937D01*
X012876Y006345D01*
X012876Y007214D01*
X012680Y007214D02*
X012680Y006242D01*
X013234Y005687D01*
X013384Y006137D02*
X013073Y006448D01*
X013073Y007214D01*
X013467Y007214D02*
X014034Y007214D01*
X014034Y007287D01*
X014434Y007387D02*
X014534Y007287D01*
X014684Y007437D01*
X016034Y007437D01*
X016784Y006687D01*
X017284Y006687D01*
X017284Y007187D02*
X016584Y007187D01*
X015834Y007937D01*
X014784Y007937D01*
X014523Y008198D01*
X014058Y008198D01*
X014058Y008002D02*
X014420Y008002D01*
X014734Y007687D01*
X015184Y007687D01*
X015184Y007187D02*
X015834Y007187D01*
X015884Y007137D01*
X015184Y007187D02*
X015184Y006687D01*
X015184Y006137D01*
X014634Y005437D02*
X014184Y005887D01*
X013984Y005887D01*
X013734Y006137D01*
X013384Y006137D01*
X013884Y005687D02*
X014084Y005687D01*
X014334Y005437D01*
X014334Y005337D01*
X014634Y005037D01*
X013234Y004787D02*
X013234Y003987D01*
X013184Y003937D01*
X012483Y006139D02*
X012483Y007214D01*
X012434Y007837D02*
X011784Y008487D01*
X011784Y008737D01*
X011142Y009380D01*
X010711Y009380D01*
X010711Y009576D02*
X011245Y009576D01*
X011984Y008837D01*
X011984Y008687D01*
X012834Y007837D01*
X012034Y007837D02*
X011584Y008287D01*
X011584Y008637D01*
X011433Y008789D01*
X010711Y008789D01*
X009936Y008789D01*
X009834Y008687D01*
X009834Y008487D01*
X009534Y008187D01*
X007984Y008187D01*
X007684Y008487D01*
X007684Y009737D01*
X007534Y009887D01*
X007184Y009887D01*
X006784Y010287D01*
X004684Y010287D01*
X004334Y010637D01*
X004334Y011487D01*
X003584Y012237D01*
X003584Y012287D01*
X003584Y011287D02*
X004134Y010737D01*
X004134Y009887D01*
X004434Y009587D01*
X006984Y009587D01*
X007084Y009287D02*
X007384Y009587D01*
X007084Y009287D02*
X003584Y009287D01*
X005034Y010637D02*
X005034Y011187D01*
X005734Y011187D02*
X005734Y010637D01*
X006434Y010637D02*
X006434Y011187D01*
X006134Y008887D02*
X005584Y008887D01*
X006464Y007487D02*
X006464Y007187D01*
X007014Y007187D01*
X007014Y007487D01*
X006464Y007487D01*
X007014Y007487D01*
X007014Y007388D02*
X006464Y007388D01*
X006464Y007290D02*
X007014Y007290D01*
X007014Y007191D02*
X006464Y007191D01*
X008034Y006587D02*
X008034Y005787D01*
X008234Y005787D01*
X008234Y006587D01*
X008034Y006587D01*
X008034Y006502D02*
X008234Y006502D01*
X008234Y006403D02*
X008034Y006403D01*
X008034Y006305D02*
X008234Y006305D01*
X008234Y006206D02*
X008034Y006206D01*
X008034Y006108D02*
X008234Y006108D01*
X008234Y006009D02*
X008034Y006009D01*
X008034Y005911D02*
X008234Y005911D01*
X008234Y005812D02*
X008034Y005812D01*
X010284Y007337D02*
X010434Y007187D01*
X010284Y007337D02*
X010284Y008287D01*
X010392Y008395D01*
X010711Y008395D01*
X010711Y008198D02*
X010995Y008198D01*
X011284Y008487D01*
X010984Y007805D02*
X010711Y007805D01*
X010984Y007805D02*
X010984Y007437D01*
X011684Y009637D02*
X013134Y009637D01*
X013134Y008787D01*
X013467Y008455D01*
X013467Y007214D01*
X014058Y007805D02*
X014267Y007805D01*
X014434Y007637D01*
X014434Y007387D01*
X014834Y008187D02*
X015184Y008187D01*
X014834Y008187D02*
X014626Y008395D01*
X014058Y008395D01*
X013434Y008937D02*
X013680Y009183D01*
X014058Y009183D01*
X014058Y009380D02*
X014442Y009380D01*
X014534Y009287D01*
X014834Y009287D01*
X015084Y009537D01*
X015084Y009687D01*
X015184Y009787D01*
X015184Y010387D02*
X014684Y010387D01*
X014267Y009970D01*
X014058Y009970D01*
X013467Y009970D01*
X013134Y009637D01*
X013134Y009937D02*
X012984Y009937D01*
X013134Y009937D02*
X013467Y010270D01*
X013467Y010561D01*
X012680Y010561D02*
X012680Y010033D01*
X012584Y009937D01*
X012483Y010236D02*
X012184Y009937D01*
X012089Y010242D02*
X011784Y009937D01*
X011684Y009637D02*
X011352Y009970D01*
X010711Y009970D01*
X010734Y009970D01*
X010734Y010487D01*
X010734Y010561D01*
X011302Y010561D01*
X012089Y010561D02*
X012089Y010242D01*
X012483Y010236D02*
X012483Y010561D01*
X013473Y009576D02*
X013434Y009537D01*
X013473Y009576D02*
X014058Y009576D01*
X016534Y007687D02*
X017284Y007687D01*
X017984Y007387D02*
X019284Y007387D01*
X019284Y006487D01*
X017984Y006487D01*
X017984Y007387D01*
X017984Y007290D02*
X019284Y007290D01*
X019284Y007191D02*
X017984Y007191D01*
X017984Y007093D02*
X019284Y007093D01*
X019284Y006994D02*
X017984Y006994D01*
X017984Y006896D02*
X019284Y006896D01*
X019284Y006797D02*
X017984Y006797D01*
X017984Y006699D02*
X019284Y006699D01*
X019284Y006600D02*
X017984Y006600D01*
X017984Y006502D02*
X019284Y006502D01*
X020334Y008417D02*
X020334Y010087D01*
X020834Y010087D01*
X020834Y009457D01*
X022134Y009457D01*
X020334Y009457D01*
X020334Y009555D02*
X020834Y009555D01*
X020834Y009654D02*
X020334Y009654D01*
X020334Y009752D02*
X020834Y009752D01*
X020834Y009851D02*
X020334Y009851D01*
X020334Y009949D02*
X020834Y009949D01*
X020834Y010048D02*
X020334Y010048D01*
X019984Y010048D02*
X018234Y010048D01*
X018234Y010087D02*
X019984Y010087D01*
X019984Y008587D01*
X018984Y008587D01*
X018984Y008887D01*
X018234Y008887D01*
X018234Y010087D01*
X018234Y009949D02*
X019984Y009949D01*
X019984Y009851D02*
X018234Y009851D01*
X018234Y009752D02*
X019984Y009752D01*
X019984Y009654D02*
X018234Y009654D01*
X018234Y009555D02*
X019984Y009555D01*
X019984Y009457D02*
X018234Y009457D01*
X018234Y009358D02*
X019984Y009358D01*
X019984Y009260D02*
X018234Y009260D01*
X018234Y009161D02*
X019984Y009161D01*
X019984Y009063D02*
X018234Y009063D01*
X018234Y008964D02*
X019984Y008964D01*
X019984Y008866D02*
X018984Y008866D01*
X018984Y008767D02*
X019984Y008767D01*
X019984Y008669D02*
X018984Y008669D01*
X020334Y008669D02*
X022134Y008669D01*
X022134Y008767D02*
X020334Y008767D01*
X020334Y008866D02*
X022134Y008866D01*
X022134Y008964D02*
X020334Y008964D01*
X020334Y009063D02*
X022134Y009063D01*
X022134Y009161D02*
X020334Y009161D01*
X020334Y009260D02*
X022134Y009260D01*
X022134Y009358D02*
X020334Y009358D01*
X020334Y008570D02*
X022134Y008570D01*
X022134Y008472D02*
X020334Y008472D01*
X020334Y008417D02*
X022134Y008417D01*
X022134Y009457D01*
X018484Y009987D02*
X017834Y009987D01*
X017234Y009987D02*
X017234Y009487D01*
X017234Y008987D01*
X016734Y008987D01*
X017934Y012387D02*
X017534Y012787D01*
X016934Y012787D01*
X016534Y013187D01*
X016484Y013187D01*
X016484Y013787D02*
X016434Y013837D01*
X016434Y014387D01*
X016703Y014382D02*
X017034Y014382D01*
X017034Y014480D02*
X016703Y014480D01*
X016703Y014579D02*
X017034Y014579D01*
X017034Y014677D02*
X016703Y014677D01*
X016703Y014733D02*
X016603Y014833D01*
X016334Y014833D01*
X016334Y014837D01*
X015684Y014837D01*
X015684Y014976D01*
X015754Y015046D01*
X015754Y017637D01*
X016684Y017637D01*
X016684Y017199D01*
X016614Y017129D01*
X016614Y015046D01*
X016743Y014917D01*
X017034Y014917D01*
X017034Y014137D01*
X016703Y014137D01*
X016703Y014733D01*
X016660Y014776D02*
X017034Y014776D01*
X017034Y014874D02*
X015684Y014874D01*
X015684Y014973D02*
X016688Y014973D01*
X016614Y015071D02*
X015754Y015071D01*
X015754Y015170D02*
X016614Y015170D01*
X016614Y015268D02*
X015754Y015268D01*
X015754Y015367D02*
X016614Y015367D01*
X016614Y015465D02*
X015754Y015465D01*
X015754Y015564D02*
X016614Y015564D01*
X016614Y015662D02*
X015754Y015662D01*
X015754Y015761D02*
X016614Y015761D01*
X016614Y015859D02*
X015754Y015859D01*
X015754Y015958D02*
X016614Y015958D01*
X016614Y016056D02*
X015754Y016056D01*
X015754Y016155D02*
X016614Y016155D01*
X016614Y016253D02*
X015754Y016253D01*
X015754Y016352D02*
X016614Y016352D01*
X016614Y016450D02*
X015754Y016450D01*
X015754Y016549D02*
X016614Y016549D01*
X016614Y016647D02*
X015754Y016647D01*
X015754Y016746D02*
X016614Y016746D01*
X016614Y016844D02*
X015754Y016844D01*
X015754Y016943D02*
X016614Y016943D01*
X016614Y017041D02*
X015754Y017041D01*
X015754Y017140D02*
X016626Y017140D01*
X016684Y017238D02*
X015754Y017238D01*
X015754Y017337D02*
X016684Y017337D01*
X016684Y017435D02*
X015754Y017435D01*
X015754Y017534D02*
X016684Y017534D01*
X016684Y017632D02*
X015754Y017632D01*
X015534Y017037D02*
X014834Y017037D01*
X014834Y016161D01*
X014860Y016150D01*
X014947Y016063D01*
X014994Y015949D01*
X014994Y015826D01*
X014947Y015712D01*
X014894Y015659D01*
X014894Y015224D01*
X014971Y015147D01*
X015171Y015147D01*
X015181Y015137D01*
X015534Y015137D01*
X015534Y017037D01*
X015534Y016943D02*
X014834Y016943D01*
X014834Y016844D02*
X015534Y016844D01*
X015534Y016746D02*
X014834Y016746D01*
X014834Y016647D02*
X015534Y016647D01*
X015534Y016549D02*
X014834Y016549D01*
X014834Y016450D02*
X015534Y016450D01*
X015534Y016352D02*
X014834Y016352D01*
X014834Y016253D02*
X015534Y016253D01*
X015534Y016155D02*
X014848Y016155D01*
X014950Y016056D02*
X015534Y016056D01*
X015534Y015958D02*
X014991Y015958D01*
X014994Y015859D02*
X015534Y015859D01*
X015534Y015761D02*
X014967Y015761D01*
X014898Y015662D02*
X015534Y015662D01*
X015534Y015564D02*
X014894Y015564D01*
X014894Y015465D02*
X015534Y015465D01*
X015534Y015367D02*
X014894Y015367D01*
X014894Y015268D02*
X015534Y015268D01*
X015534Y015170D02*
X014949Y015170D01*
X014650Y014874D02*
X014344Y014874D01*
X014386Y014833D02*
X014291Y014927D01*
X013944Y015274D01*
X013944Y015659D01*
X013997Y015712D01*
X014044Y015826D01*
X014044Y015949D01*
X013997Y016063D01*
X013910Y016150D01*
X013796Y016197D01*
X013754Y016197D01*
X013754Y017037D01*
X014614Y017037D01*
X014614Y016194D01*
X014509Y016150D01*
X014422Y016063D01*
X014374Y015949D01*
X014374Y015826D01*
X014422Y015712D01*
X014474Y015659D01*
X014474Y015050D01*
X014597Y014927D01*
X014597Y014927D01*
X014797Y014727D01*
X014984Y014727D01*
X014984Y014137D01*
X014703Y014137D01*
X014703Y014733D01*
X014603Y014833D01*
X014386Y014833D01*
X014246Y014973D02*
X014552Y014973D01*
X014474Y015071D02*
X014147Y015071D01*
X014049Y015170D02*
X014474Y015170D01*
X014474Y015268D02*
X013950Y015268D01*
X013944Y015367D02*
X014474Y015367D01*
X014474Y015465D02*
X013944Y015465D01*
X013944Y015564D02*
X014474Y015564D01*
X014471Y015662D02*
X013948Y015662D01*
X014017Y015761D02*
X014401Y015761D01*
X014374Y015859D02*
X014044Y015859D01*
X014041Y015958D02*
X014378Y015958D01*
X014419Y016056D02*
X014000Y016056D01*
X013898Y016155D02*
X014520Y016155D01*
X014614Y016253D02*
X013754Y016253D01*
X013754Y016352D02*
X014614Y016352D01*
X014614Y016450D02*
X013754Y016450D01*
X013754Y016549D02*
X014614Y016549D01*
X014614Y016647D02*
X013754Y016647D01*
X013754Y016746D02*
X014614Y016746D01*
X014614Y016844D02*
X013754Y016844D01*
X013754Y016943D02*
X014614Y016943D01*
X013534Y016943D02*
X012834Y016943D01*
X012834Y017037D02*
X013534Y017037D01*
X013534Y016126D01*
X013472Y016063D01*
X013424Y015949D01*
X013424Y015826D01*
X013472Y015712D01*
X013524Y015659D01*
X013524Y015137D01*
X013181Y015137D01*
X013171Y015147D01*
X012971Y015147D01*
X012894Y015224D01*
X012894Y015659D01*
X012947Y015712D01*
X012994Y015826D01*
X012994Y015949D01*
X012947Y016063D01*
X012860Y016150D01*
X012834Y016161D01*
X012834Y017037D01*
X012834Y016844D02*
X013534Y016844D01*
X013534Y016746D02*
X012834Y016746D01*
X012834Y016647D02*
X013534Y016647D01*
X013534Y016549D02*
X012834Y016549D01*
X012834Y016450D02*
X013534Y016450D01*
X013534Y016352D02*
X012834Y016352D01*
X012834Y016253D02*
X013534Y016253D01*
X013534Y016155D02*
X012848Y016155D01*
X012950Y016056D02*
X013469Y016056D01*
X013428Y015958D02*
X012991Y015958D01*
X012994Y015859D02*
X013424Y015859D01*
X013451Y015761D02*
X012967Y015761D01*
X012898Y015662D02*
X013521Y015662D01*
X013524Y015564D02*
X012894Y015564D01*
X012894Y015465D02*
X013524Y015465D01*
X013524Y015367D02*
X012894Y015367D01*
X012894Y015268D02*
X013524Y015268D01*
X013524Y015170D02*
X012949Y015170D01*
X012650Y014874D02*
X012344Y014874D01*
X012386Y014833D02*
X012291Y014927D01*
X011944Y015274D01*
X011944Y015659D01*
X011997Y015712D01*
X012044Y015826D01*
X012044Y015949D01*
X011997Y016063D01*
X011910Y016150D01*
X011796Y016197D01*
X011754Y016197D01*
X011754Y017037D01*
X012614Y017037D01*
X012614Y016194D01*
X012509Y016150D01*
X012422Y016063D01*
X012374Y015949D01*
X012374Y015826D01*
X012422Y015712D01*
X012474Y015659D01*
X012474Y015050D01*
X012797Y014727D01*
X012984Y014727D01*
X012984Y014137D01*
X012703Y014137D01*
X012703Y014733D01*
X012603Y014833D01*
X012386Y014833D01*
X012246Y014973D02*
X012552Y014973D01*
X012474Y015071D02*
X012147Y015071D01*
X012049Y015170D02*
X012474Y015170D01*
X012474Y015268D02*
X011950Y015268D01*
X011944Y015367D02*
X012474Y015367D01*
X012474Y015465D02*
X011944Y015465D01*
X011944Y015564D02*
X012474Y015564D01*
X012471Y015662D02*
X011948Y015662D01*
X012017Y015761D02*
X012401Y015761D01*
X012374Y015859D02*
X012044Y015859D01*
X012041Y015958D02*
X012378Y015958D01*
X012419Y016056D02*
X012000Y016056D01*
X011898Y016155D02*
X012520Y016155D01*
X012614Y016253D02*
X011754Y016253D01*
X011754Y016352D02*
X012614Y016352D01*
X012614Y016450D02*
X011754Y016450D01*
X011754Y016549D02*
X012614Y016549D01*
X012614Y016647D02*
X011754Y016647D01*
X011754Y016746D02*
X012614Y016746D01*
X012614Y016844D02*
X011754Y016844D01*
X011754Y016943D02*
X012614Y016943D01*
X011534Y016943D02*
X010854Y016943D01*
X010854Y017037D02*
X011534Y017037D01*
X011534Y016126D01*
X011472Y016063D01*
X011424Y015949D01*
X011424Y015826D01*
X011472Y015712D01*
X011524Y015659D01*
X011524Y015137D01*
X010834Y015137D01*
X010834Y016356D01*
X010854Y016404D01*
X010854Y017037D01*
X010854Y016844D02*
X011534Y016844D01*
X011534Y016746D02*
X010854Y016746D01*
X010854Y016647D02*
X011534Y016647D01*
X011534Y016549D02*
X010854Y016549D01*
X010854Y016450D02*
X011534Y016450D01*
X011534Y016352D02*
X010834Y016352D01*
X010834Y016253D02*
X011534Y016253D01*
X011534Y016155D02*
X010834Y016155D01*
X010834Y016056D02*
X011469Y016056D01*
X011428Y015958D02*
X010834Y015958D01*
X010834Y015859D02*
X011424Y015859D01*
X011451Y015761D02*
X010834Y015761D01*
X010834Y015662D02*
X011521Y015662D01*
X011524Y015564D02*
X010834Y015564D01*
X010834Y015465D02*
X011524Y015465D01*
X011524Y015367D02*
X010834Y015367D01*
X010834Y015268D02*
X011524Y015268D01*
X011524Y015170D02*
X010834Y015170D01*
X010614Y015170D02*
X009754Y015170D01*
X009754Y015268D02*
X010614Y015268D01*
X010614Y015367D02*
X009754Y015367D01*
X009754Y015465D02*
X010614Y015465D01*
X010614Y015564D02*
X009754Y015564D01*
X009754Y015662D02*
X010614Y015662D01*
X010614Y015761D02*
X009754Y015761D01*
X009754Y015859D02*
X010614Y015859D01*
X010614Y015958D02*
X009754Y015958D01*
X009754Y016056D02*
X010614Y016056D01*
X010614Y016155D02*
X009754Y016155D01*
X009754Y016253D02*
X010614Y016253D01*
X010614Y016352D02*
X009754Y016352D01*
X009754Y016450D02*
X010614Y016450D01*
X010614Y016549D02*
X009754Y016549D01*
X009754Y016647D02*
X010614Y016647D01*
X010614Y016746D02*
X009754Y016746D01*
X009754Y016844D02*
X010614Y016844D01*
X010614Y016943D02*
X009754Y016943D01*
X009754Y017041D02*
X010614Y017041D01*
X010614Y017129D02*
X010614Y015046D01*
X010743Y014917D01*
X011034Y014917D01*
X011034Y014137D01*
X010703Y014137D01*
X010703Y014733D01*
X010603Y014833D01*
X010334Y014833D01*
X010334Y014837D01*
X009684Y014837D01*
X009684Y014976D01*
X009754Y015046D01*
X009754Y017637D01*
X010684Y017637D01*
X010684Y017199D01*
X010614Y017129D01*
X010626Y017140D02*
X009754Y017140D01*
X009754Y017238D02*
X010684Y017238D01*
X010684Y017337D02*
X009754Y017337D01*
X009754Y017435D02*
X010684Y017435D01*
X010684Y017534D02*
X009754Y017534D01*
X009754Y017632D02*
X010684Y017632D01*
X009534Y017037D02*
X008834Y017037D01*
X008834Y016161D01*
X008860Y016150D01*
X008947Y016063D01*
X008994Y015949D01*
X008994Y015826D01*
X008947Y015712D01*
X008894Y015659D01*
X008894Y015224D01*
X008971Y015147D01*
X009171Y015147D01*
X009181Y015137D01*
X009534Y015137D01*
X009534Y017037D01*
X009534Y016943D02*
X008834Y016943D01*
X008834Y016844D02*
X009534Y016844D01*
X009534Y016746D02*
X008834Y016746D01*
X008834Y016647D02*
X009534Y016647D01*
X009534Y016549D02*
X008834Y016549D01*
X008834Y016450D02*
X009534Y016450D01*
X009534Y016352D02*
X008834Y016352D01*
X008834Y016253D02*
X009534Y016253D01*
X009534Y016155D02*
X008848Y016155D01*
X008950Y016056D02*
X009534Y016056D01*
X009534Y015958D02*
X008991Y015958D01*
X008994Y015859D02*
X009534Y015859D01*
X009534Y015761D02*
X008967Y015761D01*
X008898Y015662D02*
X009534Y015662D01*
X009534Y015564D02*
X008894Y015564D01*
X008894Y015465D02*
X009534Y015465D01*
X009534Y015367D02*
X008894Y015367D01*
X008894Y015268D02*
X009534Y015268D01*
X009534Y015170D02*
X008949Y015170D01*
X008749Y014776D02*
X008660Y014776D01*
X008703Y014733D02*
X008603Y014833D01*
X008386Y014833D01*
X008291Y014927D01*
X007944Y015274D01*
X007944Y015659D01*
X007997Y015712D01*
X008044Y015826D01*
X008044Y015949D01*
X007997Y016063D01*
X007910Y016150D01*
X007796Y016197D01*
X007754Y016197D01*
X007754Y017037D01*
X008614Y017037D01*
X008614Y016194D01*
X008509Y016150D01*
X008422Y016063D01*
X008374Y015949D01*
X008374Y015826D01*
X008422Y015712D01*
X008474Y015659D01*
X008474Y015050D01*
X008797Y014727D01*
X008984Y014727D01*
X008984Y014137D01*
X008703Y014137D01*
X008703Y014733D01*
X008703Y014677D02*
X008984Y014677D01*
X008984Y014579D02*
X008703Y014579D01*
X008703Y014480D02*
X008984Y014480D01*
X008984Y014382D02*
X008703Y014382D01*
X008703Y014283D02*
X008984Y014283D01*
X008984Y014185D02*
X008703Y014185D01*
X008434Y014387D02*
X008434Y013837D01*
X008484Y013787D01*
X009434Y013837D02*
X009484Y013787D01*
X009434Y013837D02*
X009434Y014387D01*
X009684Y014874D02*
X011034Y014874D01*
X011034Y014776D02*
X010660Y014776D01*
X010703Y014677D02*
X011034Y014677D01*
X011034Y014579D02*
X010703Y014579D01*
X010703Y014480D02*
X011034Y014480D01*
X011034Y014382D02*
X010703Y014382D01*
X010703Y014283D02*
X011034Y014283D01*
X011034Y014185D02*
X010703Y014185D01*
X010934Y014237D02*
X010934Y014387D01*
X010434Y014387D02*
X010434Y013837D01*
X010484Y013787D01*
X010984Y013587D02*
X011084Y013587D01*
X011484Y013187D01*
X011534Y012787D02*
X011934Y012387D01*
X011534Y012787D02*
X010884Y012787D01*
X010484Y013187D01*
X011434Y013837D02*
X011484Y013787D01*
X011434Y013837D02*
X011434Y014387D01*
X010688Y014973D02*
X009684Y014973D01*
X009754Y015071D02*
X010614Y015071D01*
X012434Y014387D02*
X012434Y013837D01*
X012484Y013787D01*
X012703Y014185D02*
X012984Y014185D01*
X012984Y014283D02*
X012703Y014283D01*
X012703Y014382D02*
X012984Y014382D01*
X012984Y014480D02*
X012703Y014480D01*
X012703Y014579D02*
X012984Y014579D01*
X012984Y014677D02*
X012703Y014677D01*
X012660Y014776D02*
X012749Y014776D01*
X013434Y014387D02*
X013434Y013837D01*
X013484Y013787D01*
X014434Y013837D02*
X014484Y013787D01*
X014434Y013837D02*
X014434Y014387D01*
X014703Y014382D02*
X014984Y014382D01*
X014984Y014480D02*
X014703Y014480D01*
X014703Y014579D02*
X014984Y014579D01*
X014984Y014677D02*
X014703Y014677D01*
X014660Y014776D02*
X014749Y014776D01*
X014703Y014283D02*
X014984Y014283D01*
X014984Y014185D02*
X014703Y014185D01*
X015434Y014387D02*
X015434Y013837D01*
X015484Y013787D01*
X016703Y014185D02*
X017034Y014185D01*
X017034Y014283D02*
X016703Y014283D01*
X016934Y014237D02*
X016934Y014387D01*
X017434Y014387D02*
X017434Y013837D01*
X017484Y013787D01*
X017084Y013587D02*
X017484Y013187D01*
X017084Y013587D02*
X016984Y013587D01*
X018246Y014973D02*
X018552Y014973D01*
X018474Y015050D02*
X018674Y014850D01*
X018797Y014727D01*
X018984Y014727D01*
X018984Y014137D01*
X018703Y014137D01*
X018703Y014733D01*
X018603Y014833D01*
X018386Y014833D01*
X018291Y014927D01*
X017944Y015274D01*
X017944Y015659D01*
X017997Y015712D01*
X018044Y015826D01*
X018044Y015949D01*
X017997Y016063D01*
X017910Y016150D01*
X017796Y016197D01*
X017754Y016197D01*
X017754Y017037D01*
X018614Y017037D01*
X018614Y016194D01*
X018509Y016150D01*
X018422Y016063D01*
X018374Y015949D01*
X018374Y015826D01*
X018422Y015712D01*
X018474Y015659D01*
X018474Y015050D01*
X018474Y015071D02*
X018147Y015071D01*
X018049Y015170D02*
X018474Y015170D01*
X018474Y015268D02*
X017950Y015268D01*
X017944Y015367D02*
X018474Y015367D01*
X018474Y015465D02*
X017944Y015465D01*
X017944Y015564D02*
X018474Y015564D01*
X018471Y015662D02*
X017948Y015662D01*
X018017Y015761D02*
X018401Y015761D01*
X018374Y015859D02*
X018044Y015859D01*
X018041Y015958D02*
X018378Y015958D01*
X018419Y016056D02*
X018000Y016056D01*
X017898Y016155D02*
X018520Y016155D01*
X018614Y016253D02*
X017754Y016253D01*
X017754Y016352D02*
X018614Y016352D01*
X018614Y016450D02*
X017754Y016450D01*
X017754Y016549D02*
X018614Y016549D01*
X018614Y016647D02*
X017754Y016647D01*
X017754Y016746D02*
X018614Y016746D01*
X018614Y016844D02*
X017754Y016844D01*
X017754Y016943D02*
X018614Y016943D01*
X018834Y016943D02*
X019534Y016943D01*
X019534Y017037D02*
X018834Y017037D01*
X018834Y016161D01*
X018860Y016150D01*
X018947Y016063D01*
X018994Y015949D01*
X018994Y015826D01*
X018947Y015712D01*
X018894Y015659D01*
X018894Y015224D01*
X018971Y015147D01*
X019171Y015147D01*
X019181Y015137D01*
X019524Y015137D01*
X019524Y015659D01*
X019472Y015712D01*
X019424Y015826D01*
X019424Y015949D01*
X019472Y016063D01*
X019534Y016126D01*
X019534Y017037D01*
X019534Y016844D02*
X018834Y016844D01*
X018834Y016746D02*
X019534Y016746D01*
X019534Y016647D02*
X018834Y016647D01*
X018834Y016549D02*
X019534Y016549D01*
X019534Y016450D02*
X018834Y016450D01*
X018834Y016352D02*
X019534Y016352D01*
X019534Y016253D02*
X018834Y016253D01*
X018848Y016155D02*
X019534Y016155D01*
X019469Y016056D02*
X018950Y016056D01*
X018991Y015958D02*
X019428Y015958D01*
X019424Y015859D02*
X018994Y015859D01*
X018967Y015761D02*
X019451Y015761D01*
X019521Y015662D02*
X018898Y015662D01*
X018894Y015564D02*
X019524Y015564D01*
X019524Y015465D02*
X018894Y015465D01*
X018894Y015367D02*
X019524Y015367D01*
X019524Y015268D02*
X018894Y015268D01*
X018949Y015170D02*
X019524Y015170D01*
X019944Y015274D02*
X019944Y015659D01*
X019997Y015712D01*
X020044Y015826D01*
X020044Y015949D01*
X019997Y016063D01*
X019910Y016150D01*
X019796Y016197D01*
X019754Y016197D01*
X019754Y017037D01*
X020614Y017037D01*
X020614Y016194D01*
X020509Y016150D01*
X020422Y016063D01*
X020374Y015949D01*
X020374Y015826D01*
X020422Y015712D01*
X020474Y015659D01*
X020474Y015150D01*
X020984Y014640D01*
X020984Y014137D01*
X020703Y014137D01*
X020703Y014733D01*
X020603Y014833D01*
X020386Y014833D01*
X020291Y014927D01*
X019944Y015274D01*
X019950Y015268D02*
X020474Y015268D01*
X020474Y015170D02*
X020049Y015170D01*
X020147Y015071D02*
X020553Y015071D01*
X020652Y014973D02*
X020246Y014973D01*
X020344Y014874D02*
X020750Y014874D01*
X020660Y014776D02*
X020849Y014776D01*
X020947Y014677D02*
X020703Y014677D01*
X020703Y014579D02*
X020984Y014579D01*
X020984Y014480D02*
X020703Y014480D01*
X020703Y014382D02*
X020984Y014382D01*
X020984Y014283D02*
X020703Y014283D01*
X020703Y014185D02*
X020984Y014185D01*
X021434Y014387D02*
X021434Y013837D01*
X021484Y013787D01*
X020484Y013787D02*
X020434Y013837D01*
X020434Y014387D01*
X021147Y015071D02*
X021534Y015071D01*
X021534Y014973D02*
X021246Y014973D01*
X021281Y014937D02*
X020894Y015324D01*
X020894Y015659D01*
X020947Y015712D01*
X020994Y015826D01*
X020994Y015949D01*
X020947Y016063D01*
X020860Y016150D01*
X020834Y016161D01*
X020834Y017037D01*
X021534Y017037D01*
X021534Y014833D01*
X021386Y014833D01*
X021281Y014937D01*
X021344Y014874D02*
X021534Y014874D01*
X021534Y015170D02*
X021049Y015170D01*
X020950Y015268D02*
X021534Y015268D01*
X021534Y015367D02*
X020894Y015367D01*
X020894Y015465D02*
X021534Y015465D01*
X021534Y015564D02*
X020894Y015564D01*
X020898Y015662D02*
X021534Y015662D01*
X021534Y015761D02*
X020967Y015761D01*
X020994Y015859D02*
X021534Y015859D01*
X021534Y015958D02*
X020991Y015958D01*
X020950Y016056D02*
X021534Y016056D01*
X021534Y016155D02*
X020848Y016155D01*
X020834Y016253D02*
X021534Y016253D01*
X021534Y016352D02*
X020834Y016352D01*
X020834Y016450D02*
X021534Y016450D01*
X021534Y016549D02*
X020834Y016549D01*
X020834Y016647D02*
X021534Y016647D01*
X021534Y016746D02*
X020834Y016746D01*
X020834Y016844D02*
X021534Y016844D01*
X021534Y016943D02*
X020834Y016943D01*
X020614Y016943D02*
X019754Y016943D01*
X019754Y016844D02*
X020614Y016844D01*
X020614Y016746D02*
X019754Y016746D01*
X019754Y016647D02*
X020614Y016647D01*
X020614Y016549D02*
X019754Y016549D01*
X019754Y016450D02*
X020614Y016450D01*
X020614Y016352D02*
X019754Y016352D01*
X019754Y016253D02*
X020614Y016253D01*
X020520Y016155D02*
X019898Y016155D01*
X020000Y016056D02*
X020419Y016056D01*
X020378Y015958D02*
X020041Y015958D01*
X020044Y015859D02*
X020374Y015859D01*
X020401Y015761D02*
X020017Y015761D01*
X019948Y015662D02*
X020471Y015662D01*
X020474Y015564D02*
X019944Y015564D01*
X019944Y015465D02*
X020474Y015465D01*
X020474Y015367D02*
X019944Y015367D01*
X019434Y014387D02*
X019434Y013837D01*
X019484Y013787D01*
X018984Y014185D02*
X018703Y014185D01*
X018703Y014283D02*
X018984Y014283D01*
X018984Y014382D02*
X018703Y014382D01*
X018703Y014480D02*
X018984Y014480D01*
X018984Y014579D02*
X018703Y014579D01*
X018703Y014677D02*
X018984Y014677D01*
X018749Y014776D02*
X018660Y014776D01*
X018650Y014874D02*
X018344Y014874D01*
X018434Y014387D02*
X018434Y013837D01*
X018484Y013787D01*
X017524Y015137D02*
X016834Y015137D01*
X016834Y016356D01*
X016854Y016404D01*
X016854Y017037D01*
X017534Y017037D01*
X017534Y016126D01*
X017472Y016063D01*
X017424Y015949D01*
X017424Y015826D01*
X017472Y015712D01*
X017524Y015659D01*
X017524Y015137D01*
X017524Y015170D02*
X016834Y015170D01*
X016834Y015268D02*
X017524Y015268D01*
X017524Y015367D02*
X016834Y015367D01*
X016834Y015465D02*
X017524Y015465D01*
X017524Y015564D02*
X016834Y015564D01*
X016834Y015662D02*
X017521Y015662D01*
X017451Y015761D02*
X016834Y015761D01*
X016834Y015859D02*
X017424Y015859D01*
X017428Y015958D02*
X016834Y015958D01*
X016834Y016056D02*
X017469Y016056D01*
X017534Y016155D02*
X016834Y016155D01*
X016834Y016253D02*
X017534Y016253D01*
X017534Y016352D02*
X016834Y016352D01*
X016854Y016450D02*
X017534Y016450D01*
X017534Y016549D02*
X016854Y016549D01*
X016854Y016647D02*
X017534Y016647D01*
X017534Y016746D02*
X016854Y016746D01*
X016854Y016844D02*
X017534Y016844D01*
X017534Y016943D02*
X016854Y016943D01*
X008614Y016943D02*
X007754Y016943D01*
X007754Y016844D02*
X008614Y016844D01*
X008614Y016746D02*
X007754Y016746D01*
X007754Y016647D02*
X008614Y016647D01*
X008614Y016549D02*
X007754Y016549D01*
X007754Y016450D02*
X008614Y016450D01*
X008614Y016352D02*
X007754Y016352D01*
X007754Y016253D02*
X008614Y016253D01*
X008520Y016155D02*
X007898Y016155D01*
X008000Y016056D02*
X008419Y016056D01*
X008378Y015958D02*
X008041Y015958D01*
X008044Y015859D02*
X008374Y015859D01*
X008401Y015761D02*
X008017Y015761D01*
X007948Y015662D02*
X008471Y015662D01*
X008474Y015564D02*
X007944Y015564D01*
X007944Y015465D02*
X008474Y015465D01*
X008474Y015367D02*
X007944Y015367D01*
X007950Y015268D02*
X008474Y015268D01*
X008474Y015170D02*
X008049Y015170D01*
X008147Y015071D02*
X008474Y015071D01*
X008552Y014973D02*
X008246Y014973D01*
X008291Y014927D02*
X008291Y014927D01*
X008344Y014874D02*
X008650Y014874D01*
X007524Y015137D02*
X007181Y015137D01*
X007171Y015147D01*
X006971Y015147D01*
X006894Y015224D01*
X006894Y015659D01*
X006947Y015712D01*
X006994Y015826D01*
X006994Y015949D01*
X006947Y016063D01*
X006860Y016150D01*
X006834Y016161D01*
X006834Y017037D01*
X007534Y017037D01*
X007534Y016126D01*
X007472Y016063D01*
X007424Y015949D01*
X007424Y015826D01*
X007472Y015712D01*
X007524Y015659D01*
X007524Y015137D01*
X007524Y015170D02*
X006949Y015170D01*
X006894Y015268D02*
X007524Y015268D01*
X007524Y015367D02*
X006894Y015367D01*
X006894Y015465D02*
X007524Y015465D01*
X007524Y015564D02*
X006894Y015564D01*
X006898Y015662D02*
X007521Y015662D01*
X007451Y015761D02*
X006967Y015761D01*
X006994Y015859D02*
X007424Y015859D01*
X007428Y015958D02*
X006991Y015958D01*
X006950Y016056D02*
X007469Y016056D01*
X007534Y016155D02*
X006848Y016155D01*
X006834Y016253D02*
X007534Y016253D01*
X007534Y016352D02*
X006834Y016352D01*
X006834Y016450D02*
X007534Y016450D01*
X007534Y016549D02*
X006834Y016549D01*
X006834Y016647D02*
X007534Y016647D01*
X007534Y016746D02*
X006834Y016746D01*
X006834Y016844D02*
X007534Y016844D01*
X007534Y016943D02*
X006834Y016943D01*
X006614Y016943D02*
X005754Y016943D01*
X005754Y017037D02*
X006614Y017037D01*
X006614Y016194D01*
X006509Y016150D01*
X006422Y016063D01*
X006374Y015949D01*
X006374Y015826D01*
X006422Y015712D01*
X006474Y015659D01*
X006474Y015050D01*
X006597Y014927D01*
X006797Y014727D01*
X006984Y014727D01*
X006984Y014137D01*
X006703Y014137D01*
X006703Y014733D01*
X006603Y014833D01*
X006386Y014833D01*
X006291Y014927D01*
X005944Y015274D01*
X005944Y015659D01*
X005997Y015712D01*
X006044Y015826D01*
X006044Y015949D01*
X005997Y016063D01*
X005910Y016150D01*
X005796Y016197D01*
X005754Y016197D01*
X005754Y017037D01*
X005754Y016844D02*
X006614Y016844D01*
X006614Y016746D02*
X005754Y016746D01*
X005754Y016647D02*
X006614Y016647D01*
X006614Y016549D02*
X005754Y016549D01*
X005754Y016450D02*
X006614Y016450D01*
X006614Y016352D02*
X005754Y016352D01*
X005754Y016253D02*
X006614Y016253D01*
X006520Y016155D02*
X005898Y016155D01*
X006000Y016056D02*
X006419Y016056D01*
X006378Y015958D02*
X006041Y015958D01*
X006044Y015859D02*
X006374Y015859D01*
X006401Y015761D02*
X006017Y015761D01*
X005948Y015662D02*
X006471Y015662D01*
X006474Y015564D02*
X005944Y015564D01*
X005944Y015465D02*
X006474Y015465D01*
X006474Y015367D02*
X005944Y015367D01*
X005950Y015268D02*
X006474Y015268D01*
X006474Y015170D02*
X006049Y015170D01*
X006147Y015071D02*
X006474Y015071D01*
X006552Y014973D02*
X006246Y014973D01*
X006344Y014874D02*
X006650Y014874D01*
X006660Y014776D02*
X006749Y014776D01*
X006703Y014677D02*
X006984Y014677D01*
X006984Y014579D02*
X006703Y014579D01*
X006703Y014480D02*
X006984Y014480D01*
X006984Y014382D02*
X006703Y014382D01*
X006703Y014283D02*
X006984Y014283D01*
X006984Y014185D02*
X006703Y014185D01*
X006434Y014387D02*
X006434Y013837D01*
X006484Y013787D01*
X007434Y013837D02*
X007484Y013787D01*
X007434Y013837D02*
X007434Y014387D01*
X005434Y014387D02*
X005434Y013837D01*
X005484Y013787D01*
X005034Y014137D02*
X004703Y014137D01*
X004703Y014733D01*
X004603Y014833D01*
X004334Y014833D01*
X004334Y014837D01*
X003834Y014837D01*
X003834Y015664D01*
X003860Y015675D01*
X003947Y015762D01*
X003994Y015876D01*
X003994Y015999D01*
X003947Y016113D01*
X003860Y016200D01*
X003834Y016211D01*
X003834Y017637D01*
X004684Y017637D01*
X004684Y017199D01*
X004614Y017129D01*
X004614Y015046D01*
X004743Y014917D01*
X005034Y014917D01*
X005034Y014137D01*
X005034Y014185D02*
X004703Y014185D01*
X004703Y014283D02*
X005034Y014283D01*
X005034Y014382D02*
X004703Y014382D01*
X004703Y014480D02*
X005034Y014480D01*
X005034Y014579D02*
X004703Y014579D01*
X004703Y014677D02*
X005034Y014677D01*
X005034Y014776D02*
X004660Y014776D01*
X004688Y014973D02*
X003834Y014973D01*
X003834Y015071D02*
X004614Y015071D01*
X004614Y015170D02*
X003834Y015170D01*
X003834Y015268D02*
X004614Y015268D01*
X004614Y015367D02*
X003834Y015367D01*
X003834Y015465D02*
X004614Y015465D01*
X004614Y015564D02*
X003834Y015564D01*
X003834Y015662D02*
X004614Y015662D01*
X004614Y015761D02*
X003946Y015761D01*
X003988Y015859D02*
X004614Y015859D01*
X004614Y015958D02*
X003994Y015958D01*
X003971Y016056D02*
X004614Y016056D01*
X004614Y016155D02*
X003905Y016155D01*
X003834Y016253D02*
X004614Y016253D01*
X004614Y016352D02*
X003834Y016352D01*
X003834Y016450D02*
X004614Y016450D01*
X004614Y016549D02*
X003834Y016549D01*
X003834Y016647D02*
X004614Y016647D01*
X004614Y016746D02*
X003834Y016746D01*
X003834Y016844D02*
X004614Y016844D01*
X004614Y016943D02*
X003834Y016943D01*
X003834Y017041D02*
X004614Y017041D01*
X004626Y017140D02*
X003834Y017140D01*
X003834Y017238D02*
X004684Y017238D01*
X004684Y017337D02*
X003834Y017337D01*
X003834Y017435D02*
X004684Y017435D01*
X004684Y017534D02*
X003834Y017534D01*
X003834Y017632D02*
X004684Y017632D01*
X004854Y017037D02*
X005534Y017037D01*
X005534Y016126D01*
X005472Y016063D01*
X005424Y015949D01*
X005424Y015826D01*
X005472Y015712D01*
X005524Y015659D01*
X005524Y015137D01*
X004834Y015137D01*
X004834Y016356D01*
X004854Y016404D01*
X004854Y017037D01*
X004854Y016943D02*
X005534Y016943D01*
X005534Y016844D02*
X004854Y016844D01*
X004854Y016746D02*
X005534Y016746D01*
X005534Y016647D02*
X004854Y016647D01*
X004854Y016549D02*
X005534Y016549D01*
X005534Y016450D02*
X004854Y016450D01*
X004834Y016352D02*
X005534Y016352D01*
X005534Y016253D02*
X004834Y016253D01*
X004834Y016155D02*
X005534Y016155D01*
X005469Y016056D02*
X004834Y016056D01*
X004834Y015958D02*
X005428Y015958D01*
X005424Y015859D02*
X004834Y015859D01*
X004834Y015761D02*
X005451Y015761D01*
X005521Y015662D02*
X004834Y015662D01*
X004834Y015564D02*
X005524Y015564D01*
X005524Y015465D02*
X004834Y015465D01*
X004834Y015367D02*
X005524Y015367D01*
X005524Y015268D02*
X004834Y015268D01*
X004834Y015170D02*
X005524Y015170D01*
X005034Y014874D02*
X003834Y014874D01*
X004434Y014387D02*
X004434Y013837D01*
X004484Y013787D01*
X016284Y003987D02*
X016284Y003787D01*
X017084Y003787D01*
X017084Y003987D01*
X016284Y003987D01*
X016284Y003941D02*
X017084Y003941D01*
X017084Y003842D02*
X016284Y003842D01*
D49*
X014384Y002937D02*
X013184Y002937D01*
X012184Y002937D01*
X010984Y002937D01*
X009984Y002937D01*
X014384Y002937D02*
X018244Y002937D01*
X019394Y004087D01*
X019984Y016487D02*
X019984Y018937D01*
X019684Y019237D01*
X018684Y019237D02*
X018684Y018787D01*
X018184Y018287D01*
X018184Y016487D01*
X016434Y016487D02*
X016434Y017537D01*
X017684Y018787D01*
X017684Y019237D01*
X014034Y018887D02*
X014034Y016737D01*
X012184Y016437D02*
X012184Y018287D01*
X012684Y018787D01*
X012684Y019237D01*
X013684Y019237D02*
X014034Y018887D01*
X011684Y018787D02*
X010434Y017537D01*
X010434Y016487D01*
X008034Y016637D02*
X008034Y018887D01*
X007684Y019237D01*
X006684Y019237D02*
X006684Y018787D01*
X006184Y018287D01*
X006184Y016587D01*
X004434Y016487D02*
X004434Y017537D01*
X005684Y018787D01*
X005684Y019237D01*
X011684Y019237D02*
X011684Y018787D01*
D50*
X009384Y018887D02*
X009384Y016487D01*
X009384Y018887D02*
X009184Y019087D01*
X015184Y019087D02*
X015384Y018887D01*
X015384Y016487D01*
X018245Y005440D02*
X018245Y004848D01*
X018234Y004837D01*
X018634Y004437D01*
X019044Y004437D01*
X019394Y004087D01*
D51*
X015184Y006687D02*
X014534Y006687D01*
X014284Y006937D01*
X014284Y007037D01*
X014034Y007287D01*
X003584Y013587D02*
X003534Y013537D01*
X003584Y013587D02*
X003584Y015837D01*
X003684Y015937D01*
D52*
X009784Y007137D02*
X010384Y007137D01*
X010434Y007187D01*
X009784Y007137D02*
X009784Y006511D01*
X009784Y005763D02*
X009784Y005137D01*
X008684Y005763D02*
X008258Y005763D01*
X008134Y005887D01*
X008034Y006437D02*
X008108Y006511D01*
X008684Y006511D01*
X015184Y006137D02*
X015184Y005837D01*
X015534Y005487D01*
X015584Y005537D01*
X016260Y005537D01*
X017008Y005537D02*
X017008Y006063D01*
X016934Y006137D01*
X017008Y004437D02*
X017008Y003861D01*
X016934Y003787D01*
X016384Y003887D02*
X016260Y004011D01*
X016260Y004437D01*
D53*
X008034Y006437D02*
X007584Y006887D01*
X007584Y007787D01*
X007184Y008187D01*
X006984Y008187D01*
X006934Y008237D01*
X006934Y008787D01*
X006834Y008887D01*
X006164Y007737D02*
X006564Y007337D01*
X006164Y007737D02*
X004134Y007737D01*
X003584Y008287D01*
X005647Y005867D02*
X006114Y005867D01*
X006284Y006037D01*
X006434Y006037D01*
X006484Y006087D01*
X007084Y006087D02*
X007084Y006587D01*
X007304Y006807D01*
X007304Y007337D01*
D54*
X007784Y002937D02*
X006784Y002937D01*
X007784Y002937D02*
X008784Y002937D01*
M02*
