%
M48
M72
T01C0.0120
T02C0.0197
T03C0.0236
T04C0.0276
T05C0.0315
T06C0.0320
T07C0.0354
T08C0.0472
T09C0.0787
T10C0.1260
%
T01
X5934Y14537
X5934Y14237
X7934Y14537
X7934Y14237
X3934Y13937
X3934Y13637
X9934Y13937
X9934Y13637
X13934Y14537
X13934Y14237
X11934Y14537
X11934Y14237
X15934Y13937
X15934Y13637
X17934Y14537
X17934Y14237
X19934Y14537
X19934Y14237
X18434Y11787
X12434Y11787
X6434Y11787
X14684Y9787
X14034Y6687
X8984Y10987
X9784Y10987
X15784Y6137
X16334Y6137
X18484Y8487
X17834Y8987
X17834Y9487
X5934Y16637
X8784Y17487
X6784Y17487
X7934Y16637
X4934Y14237
X7734Y15887
X6684Y15887
X5734Y15887
X5934Y12387
X4984Y13587
X8684Y15887
X14784Y17487
X12784Y17487
X13734Y15887
X12684Y15887
X11734Y15887
X11934Y12387
X10984Y13587
X14684Y15887
X13934Y16637
X11934Y16637
X10934Y14237
X20784Y17487
X18784Y17487
X19734Y15887
X18684Y15887
X17734Y15887
X17934Y12387
X16984Y13587
X20684Y15887
X19934Y16637
X17934Y16637
X16934Y14237
X5384Y17487
X7384Y17487
X11384Y17487
X13384Y17487
X17384Y17487
X19384Y17487
X3684Y15937
X3534Y13537
X14434Y11987
X13284Y11987
X13834Y11037
X20184Y12037
X19284Y12037
X19834Y11087
X15884Y7137
X16534Y7687
X14034Y7287
X10734Y10487
X14684Y10387
X7284Y11987
X8434Y11987
X7834Y11037
X13434Y8937
X7534Y5587
X13434Y9537
X6984Y9587
X12984Y9937
X7384Y9587
X14534Y9287
X7534Y5187
X14634Y5437
X14634Y5037
X12034Y7837
X11784Y9937
X6564Y7337
X6904Y7337
X12834Y7837
X8134Y5887
X8134Y6387
X16384Y3887
X16884Y3887
X16734Y8987
X10984Y7437
X11284Y8487
X5034Y9937
X9784Y6511
X12584Y9937
X5734Y9937
X12184Y9937
X6434Y9937
X12434Y7837
T02
X3384Y7037
X3384Y3437
X22084Y17887
X22084Y16687
X22084Y15487
X22084Y14287
X22084Y13087
X22084Y11887
X3284Y17887
X3284Y16587
X3184Y15287
X3184Y13987
X9784Y12287
X15584Y12487
X18734Y10447
X17984Y8147
X4984Y15337
X5384Y15337
X7034Y15337
X7384Y15337
X9034Y15337
X9384Y15337
X10984Y15337
X11384Y15337
X13034Y15337
X13384Y15337
X15034Y15337
X15384Y15337
X16984Y15337
X17384Y15337
X19034Y15337
X19384Y15337
X21084Y15337
X21434Y14987
X19234Y9337
X19234Y8837
X19734Y9837
X19734Y9337
X19734Y8837
X18234Y7237
X18984Y7237
X18984Y6687
X18234Y6687
T03
X20484Y6937
X21734Y6937
X21734Y5737
X20484Y5737
X21884Y4087
T04
X9384Y10537
X9384Y8637
T05
X4584Y6104
X4584Y4371
T06
X10184Y19087
X9184Y19087
X16184Y19087
X15184Y19087
T07
X13184Y3937
X13184Y2937
X13184Y1937
X10984Y3937
X10984Y2937
X10984Y1937
X12184Y3937
X12184Y2937
X12184Y1937
X9984Y3937
X9984Y2937
X9984Y1937
X7784Y3937
X7784Y2937
X7784Y1937
X8784Y3937
X8784Y2937
X8784Y1937
X19384Y1937
X18384Y1937
X17384Y1937
X16384Y1937
X15384Y1937
X3584Y8287
X3584Y9287
X3584Y10287
X3584Y11287
X3584Y12287
X6784Y3937
X6784Y2937
X6784Y1937
X14384Y2937
X14384Y3937
T08
X7684Y19237
X6684Y19237
X5684Y19237
X13684Y19237
X12684Y19237
X11684Y19237
X19684Y19237
X18684Y19237
X17684Y19237
T09
X21634Y10837
X21634Y8937
T10
X3819Y19588
X21535Y19588
X3819Y1872
X21535Y1872
M30
