G75*
%MOIN*%
%OFA0B0*%
%FSLAX24Y24*%
%IPPOS*%
%LPD*%
%AMOC8*
5,1,8,0,0,1.08239X$1,22.5*
%
%ADD10C,0.0000*%
%ADD11R,0.0197X0.0591*%
%ADD12R,0.0433X0.0433*%
%ADD13R,0.0394X0.0512*%
%ADD14R,0.0276X0.0315*%
%ADD15R,0.0216X0.0255*%
%ADD16OC8,0.0832*%
%ADD17C,0.0630*%
%ADD18R,0.0630X0.0630*%
%ADD19R,0.0098X0.0217*%
%ADD20R,0.0315X0.0276*%
%ADD21R,0.0255X0.0216*%
%ADD22OC8,0.0673*%
%ADD23R,0.0197X0.0315*%
%ADD24R,0.0117X0.0315*%
%ADD25C,0.0524*%
%ADD26C,0.1147*%
%ADD27R,0.1147X0.1147*%
%ADD28R,0.0314X0.0432*%
%ADD29R,0.0512X0.0394*%
%ADD30R,0.0432X0.0314*%
%ADD31R,0.0945X0.1102*%
%ADD32R,0.0420X0.0500*%
%ADD33R,0.0217X0.0315*%
%ADD34C,0.0080*%
%ADD35C,0.0280*%
%ADD36C,0.0396*%
%ADD37C,0.0357*%
%ADD38C,0.0100*%
%ADD39C,0.0500*%
%ADD40C,0.0160*%
%ADD41C,0.0120*%
%ADD42C,0.0240*%
D10*
X002834Y001872D02*
X002834Y019588D01*
X003189Y019588D02*
X003191Y019638D01*
X003197Y019688D01*
X003207Y019737D01*
X003221Y019785D01*
X003238Y019832D01*
X003259Y019877D01*
X003284Y019921D01*
X003312Y019962D01*
X003344Y020001D01*
X003378Y020038D01*
X003415Y020072D01*
X003455Y020102D01*
X003497Y020129D01*
X003541Y020153D01*
X003587Y020174D01*
X003634Y020190D01*
X003682Y020203D01*
X003732Y020212D01*
X003781Y020217D01*
X003832Y020218D01*
X003882Y020215D01*
X003931Y020208D01*
X003980Y020197D01*
X004028Y020182D01*
X004074Y020164D01*
X004119Y020142D01*
X004162Y020116D01*
X004203Y020087D01*
X004242Y020055D01*
X004278Y020020D01*
X004310Y019982D01*
X004340Y019942D01*
X004367Y019899D01*
X004390Y019855D01*
X004409Y019809D01*
X004425Y019761D01*
X004437Y019712D01*
X004445Y019663D01*
X004449Y019613D01*
X004449Y019563D01*
X004445Y019513D01*
X004437Y019464D01*
X004425Y019415D01*
X004409Y019367D01*
X004390Y019321D01*
X004367Y019277D01*
X004340Y019234D01*
X004310Y019194D01*
X004278Y019156D01*
X004242Y019121D01*
X004203Y019089D01*
X004162Y019060D01*
X004119Y019034D01*
X004074Y019012D01*
X004028Y018994D01*
X003980Y018979D01*
X003931Y018968D01*
X003882Y018961D01*
X003832Y018958D01*
X003781Y018959D01*
X003732Y018964D01*
X003682Y018973D01*
X003634Y018986D01*
X003587Y019002D01*
X003541Y019023D01*
X003497Y019047D01*
X003455Y019074D01*
X003415Y019104D01*
X003378Y019138D01*
X003344Y019175D01*
X003312Y019214D01*
X003284Y019255D01*
X003259Y019299D01*
X003238Y019344D01*
X003221Y019391D01*
X003207Y019439D01*
X003197Y019488D01*
X003191Y019538D01*
X003189Y019588D01*
X002835Y019588D02*
X002837Y019650D01*
X002843Y019711D01*
X002852Y019772D01*
X002866Y019833D01*
X002883Y019892D01*
X002904Y019950D01*
X002929Y020007D01*
X002957Y020062D01*
X002988Y020115D01*
X003023Y020166D01*
X003061Y020215D01*
X003102Y020262D01*
X003145Y020305D01*
X003192Y020346D01*
X003241Y020384D01*
X003292Y020419D01*
X003345Y020450D01*
X003400Y020478D01*
X003457Y020503D01*
X003515Y020524D01*
X003574Y020541D01*
X003635Y020555D01*
X003696Y020564D01*
X003757Y020570D01*
X003819Y020572D01*
X021535Y020572D01*
X020905Y019588D02*
X020907Y019638D01*
X020913Y019688D01*
X020923Y019737D01*
X020937Y019785D01*
X020954Y019832D01*
X020975Y019877D01*
X021000Y019921D01*
X021028Y019962D01*
X021060Y020001D01*
X021094Y020038D01*
X021131Y020072D01*
X021171Y020102D01*
X021213Y020129D01*
X021257Y020153D01*
X021303Y020174D01*
X021350Y020190D01*
X021398Y020203D01*
X021448Y020212D01*
X021497Y020217D01*
X021548Y020218D01*
X021598Y020215D01*
X021647Y020208D01*
X021696Y020197D01*
X021744Y020182D01*
X021790Y020164D01*
X021835Y020142D01*
X021878Y020116D01*
X021919Y020087D01*
X021958Y020055D01*
X021994Y020020D01*
X022026Y019982D01*
X022056Y019942D01*
X022083Y019899D01*
X022106Y019855D01*
X022125Y019809D01*
X022141Y019761D01*
X022153Y019712D01*
X022161Y019663D01*
X022165Y019613D01*
X022165Y019563D01*
X022161Y019513D01*
X022153Y019464D01*
X022141Y019415D01*
X022125Y019367D01*
X022106Y019321D01*
X022083Y019277D01*
X022056Y019234D01*
X022026Y019194D01*
X021994Y019156D01*
X021958Y019121D01*
X021919Y019089D01*
X021878Y019060D01*
X021835Y019034D01*
X021790Y019012D01*
X021744Y018994D01*
X021696Y018979D01*
X021647Y018968D01*
X021598Y018961D01*
X021548Y018958D01*
X021497Y018959D01*
X021448Y018964D01*
X021398Y018973D01*
X021350Y018986D01*
X021303Y019002D01*
X021257Y019023D01*
X021213Y019047D01*
X021171Y019074D01*
X021131Y019104D01*
X021094Y019138D01*
X021060Y019175D01*
X021028Y019214D01*
X021000Y019255D01*
X020975Y019299D01*
X020954Y019344D01*
X020937Y019391D01*
X020923Y019439D01*
X020913Y019488D01*
X020907Y019538D01*
X020905Y019588D01*
X021535Y020572D02*
X021597Y020570D01*
X021658Y020564D01*
X021719Y020555D01*
X021780Y020541D01*
X021839Y020524D01*
X021897Y020503D01*
X021954Y020478D01*
X022009Y020450D01*
X022062Y020419D01*
X022113Y020384D01*
X022162Y020346D01*
X022209Y020305D01*
X022252Y020262D01*
X022293Y020215D01*
X022331Y020166D01*
X022366Y020115D01*
X022397Y020062D01*
X022425Y020007D01*
X022450Y019950D01*
X022471Y019892D01*
X022488Y019833D01*
X022502Y019772D01*
X022511Y019711D01*
X022517Y019650D01*
X022519Y019588D01*
X022519Y001872D01*
X020905Y001872D02*
X020907Y001922D01*
X020913Y001972D01*
X020923Y002021D01*
X020937Y002069D01*
X020954Y002116D01*
X020975Y002161D01*
X021000Y002205D01*
X021028Y002246D01*
X021060Y002285D01*
X021094Y002322D01*
X021131Y002356D01*
X021171Y002386D01*
X021213Y002413D01*
X021257Y002437D01*
X021303Y002458D01*
X021350Y002474D01*
X021398Y002487D01*
X021448Y002496D01*
X021497Y002501D01*
X021548Y002502D01*
X021598Y002499D01*
X021647Y002492D01*
X021696Y002481D01*
X021744Y002466D01*
X021790Y002448D01*
X021835Y002426D01*
X021878Y002400D01*
X021919Y002371D01*
X021958Y002339D01*
X021994Y002304D01*
X022026Y002266D01*
X022056Y002226D01*
X022083Y002183D01*
X022106Y002139D01*
X022125Y002093D01*
X022141Y002045D01*
X022153Y001996D01*
X022161Y001947D01*
X022165Y001897D01*
X022165Y001847D01*
X022161Y001797D01*
X022153Y001748D01*
X022141Y001699D01*
X022125Y001651D01*
X022106Y001605D01*
X022083Y001561D01*
X022056Y001518D01*
X022026Y001478D01*
X021994Y001440D01*
X021958Y001405D01*
X021919Y001373D01*
X021878Y001344D01*
X021835Y001318D01*
X021790Y001296D01*
X021744Y001278D01*
X021696Y001263D01*
X021647Y001252D01*
X021598Y001245D01*
X021548Y001242D01*
X021497Y001243D01*
X021448Y001248D01*
X021398Y001257D01*
X021350Y001270D01*
X021303Y001286D01*
X021257Y001307D01*
X021213Y001331D01*
X021171Y001358D01*
X021131Y001388D01*
X021094Y001422D01*
X021060Y001459D01*
X021028Y001498D01*
X021000Y001539D01*
X020975Y001583D01*
X020954Y001628D01*
X020937Y001675D01*
X020923Y001723D01*
X020913Y001772D01*
X020907Y001822D01*
X020905Y001872D01*
X021535Y000888D02*
X021597Y000890D01*
X021658Y000896D01*
X021719Y000905D01*
X021780Y000919D01*
X021839Y000936D01*
X021897Y000957D01*
X021954Y000982D01*
X022009Y001010D01*
X022062Y001041D01*
X022113Y001076D01*
X022162Y001114D01*
X022209Y001155D01*
X022252Y001198D01*
X022293Y001245D01*
X022331Y001294D01*
X022366Y001345D01*
X022397Y001398D01*
X022425Y001453D01*
X022450Y001510D01*
X022471Y001568D01*
X022488Y001627D01*
X022502Y001688D01*
X022511Y001749D01*
X022517Y001810D01*
X022519Y001872D01*
X021535Y000887D02*
X003819Y000887D01*
X003189Y001872D02*
X003191Y001922D01*
X003197Y001972D01*
X003207Y002021D01*
X003221Y002069D01*
X003238Y002116D01*
X003259Y002161D01*
X003284Y002205D01*
X003312Y002246D01*
X003344Y002285D01*
X003378Y002322D01*
X003415Y002356D01*
X003455Y002386D01*
X003497Y002413D01*
X003541Y002437D01*
X003587Y002458D01*
X003634Y002474D01*
X003682Y002487D01*
X003732Y002496D01*
X003781Y002501D01*
X003832Y002502D01*
X003882Y002499D01*
X003931Y002492D01*
X003980Y002481D01*
X004028Y002466D01*
X004074Y002448D01*
X004119Y002426D01*
X004162Y002400D01*
X004203Y002371D01*
X004242Y002339D01*
X004278Y002304D01*
X004310Y002266D01*
X004340Y002226D01*
X004367Y002183D01*
X004390Y002139D01*
X004409Y002093D01*
X004425Y002045D01*
X004437Y001996D01*
X004445Y001947D01*
X004449Y001897D01*
X004449Y001847D01*
X004445Y001797D01*
X004437Y001748D01*
X004425Y001699D01*
X004409Y001651D01*
X004390Y001605D01*
X004367Y001561D01*
X004340Y001518D01*
X004310Y001478D01*
X004278Y001440D01*
X004242Y001405D01*
X004203Y001373D01*
X004162Y001344D01*
X004119Y001318D01*
X004074Y001296D01*
X004028Y001278D01*
X003980Y001263D01*
X003931Y001252D01*
X003882Y001245D01*
X003832Y001242D01*
X003781Y001243D01*
X003732Y001248D01*
X003682Y001257D01*
X003634Y001270D01*
X003587Y001286D01*
X003541Y001307D01*
X003497Y001331D01*
X003455Y001358D01*
X003415Y001388D01*
X003378Y001422D01*
X003344Y001459D01*
X003312Y001498D01*
X003284Y001539D01*
X003259Y001583D01*
X003238Y001628D01*
X003221Y001675D01*
X003207Y001723D01*
X003197Y001772D01*
X003191Y001822D01*
X003189Y001872D01*
X002835Y001872D02*
X002837Y001810D01*
X002843Y001749D01*
X002852Y001688D01*
X002866Y001627D01*
X002883Y001568D01*
X002904Y001510D01*
X002929Y001453D01*
X002957Y001398D01*
X002988Y001345D01*
X003023Y001294D01*
X003061Y001245D01*
X003102Y001198D01*
X003145Y001155D01*
X003192Y001114D01*
X003241Y001076D01*
X003292Y001041D01*
X003345Y001010D01*
X003400Y000982D01*
X003457Y000957D01*
X003515Y000936D01*
X003574Y000919D01*
X003635Y000905D01*
X003696Y000896D01*
X003757Y000890D01*
X003819Y000888D01*
X004427Y004371D02*
X004429Y004396D01*
X004435Y004420D01*
X004444Y004442D01*
X004457Y004463D01*
X004473Y004482D01*
X004492Y004498D01*
X004513Y004511D01*
X004535Y004520D01*
X004559Y004526D01*
X004584Y004528D01*
X004609Y004526D01*
X004633Y004520D01*
X004655Y004511D01*
X004676Y004498D01*
X004695Y004482D01*
X004711Y004463D01*
X004724Y004442D01*
X004733Y004420D01*
X004739Y004396D01*
X004741Y004371D01*
X004739Y004346D01*
X004733Y004322D01*
X004724Y004300D01*
X004711Y004279D01*
X004695Y004260D01*
X004676Y004244D01*
X004655Y004231D01*
X004633Y004222D01*
X004609Y004216D01*
X004584Y004214D01*
X004559Y004216D01*
X004535Y004222D01*
X004513Y004231D01*
X004492Y004244D01*
X004473Y004260D01*
X004457Y004279D01*
X004444Y004300D01*
X004435Y004322D01*
X004429Y004346D01*
X004427Y004371D01*
X004427Y006104D02*
X004429Y006129D01*
X004435Y006153D01*
X004444Y006175D01*
X004457Y006196D01*
X004473Y006215D01*
X004492Y006231D01*
X004513Y006244D01*
X004535Y006253D01*
X004559Y006259D01*
X004584Y006261D01*
X004609Y006259D01*
X004633Y006253D01*
X004655Y006244D01*
X004676Y006231D01*
X004695Y006215D01*
X004711Y006196D01*
X004724Y006175D01*
X004733Y006153D01*
X004739Y006129D01*
X004741Y006104D01*
X004739Y006079D01*
X004733Y006055D01*
X004724Y006033D01*
X004711Y006012D01*
X004695Y005993D01*
X004676Y005977D01*
X004655Y005964D01*
X004633Y005955D01*
X004609Y005949D01*
X004584Y005947D01*
X004559Y005949D01*
X004535Y005955D01*
X004513Y005964D01*
X004492Y005977D01*
X004473Y005993D01*
X004457Y006012D01*
X004444Y006033D01*
X004435Y006055D01*
X004429Y006079D01*
X004427Y006104D01*
D11*
X004434Y012937D03*
X004934Y012937D03*
X005434Y012937D03*
X005934Y012937D03*
X006434Y012937D03*
X006934Y012937D03*
X007434Y012937D03*
X007934Y012937D03*
X008434Y012937D03*
X008934Y012937D03*
X010434Y012937D03*
X010934Y012937D03*
X011434Y012937D03*
X011934Y012937D03*
X012434Y012937D03*
X012934Y012937D03*
X013434Y012937D03*
X013934Y012937D03*
X014434Y012937D03*
X014934Y012937D03*
X016434Y012937D03*
X016934Y012937D03*
X017434Y012937D03*
X017934Y012937D03*
X018434Y012937D03*
X018934Y012937D03*
X019434Y012937D03*
X019934Y012937D03*
X020434Y012937D03*
X020934Y012937D03*
X020934Y016737D03*
X020434Y016737D03*
X019934Y016737D03*
X019434Y016737D03*
X018934Y016737D03*
X018434Y016737D03*
X017934Y016737D03*
X017434Y016737D03*
X016934Y016737D03*
X016434Y016737D03*
X014934Y016737D03*
X014434Y016737D03*
X013934Y016737D03*
X013434Y016737D03*
X012934Y016737D03*
X012434Y016737D03*
X011934Y016737D03*
X011434Y016737D03*
X010934Y016737D03*
X010434Y016737D03*
X008934Y016737D03*
X008434Y016737D03*
X007934Y016737D03*
X007434Y016737D03*
X006934Y016737D03*
X006434Y016737D03*
X005934Y016737D03*
X005434Y016737D03*
X004934Y016737D03*
X004434Y016737D03*
D12*
X003684Y015937D03*
X003684Y014537D03*
X009684Y014537D03*
X009684Y015937D03*
X015684Y015937D03*
X015684Y014537D03*
X012634Y004837D03*
X011234Y004837D03*
X004354Y006769D03*
X004354Y008169D03*
D13*
X006634Y006687D03*
X005284Y012187D03*
X004584Y012187D03*
X006084Y017487D03*
X006784Y017487D03*
X008084Y017487D03*
X008784Y017487D03*
X012084Y017487D03*
X012784Y017487D03*
X014084Y017487D03*
X014784Y017487D03*
X018084Y017487D03*
X018784Y017487D03*
X020084Y017487D03*
X020784Y017487D03*
X017284Y012187D03*
X016584Y012187D03*
X011284Y012187D03*
X010584Y012187D03*
D14*
X011884Y010487D03*
X013984Y007987D03*
X005784Y008987D03*
X004934Y017487D03*
X009184Y019787D03*
X010934Y017487D03*
X015184Y019787D03*
X016934Y017487D03*
D15*
X016334Y017487D03*
X015784Y019787D03*
X010334Y017487D03*
X009784Y019787D03*
X004334Y017487D03*
X012484Y010487D03*
X014584Y007987D03*
X005184Y008987D03*
D16*
X005684Y019237D03*
X006684Y019237D03*
X007684Y019237D03*
X011684Y019237D03*
X012684Y019237D03*
X013684Y019237D03*
X017684Y019237D03*
X018684Y019237D03*
X019684Y019237D03*
D17*
X016184Y019087D03*
X010184Y019087D03*
D18*
X009184Y019087D03*
X015184Y019087D03*
D19*
X013480Y012398D03*
X013283Y012398D03*
X013086Y012398D03*
X012889Y012398D03*
X012889Y011177D03*
X013086Y011177D03*
X013283Y011177D03*
X013480Y011177D03*
X018889Y011177D03*
X019086Y011177D03*
X019283Y011177D03*
X019480Y011177D03*
X019480Y012398D03*
X019283Y012398D03*
X019086Y012398D03*
X018889Y012398D03*
X007480Y012398D03*
X007283Y012398D03*
X007086Y012398D03*
X006889Y012398D03*
X006889Y011177D03*
X007086Y011177D03*
X007283Y011177D03*
X007480Y011177D03*
D20*
X006434Y011187D03*
X012434Y011187D03*
X013384Y007987D03*
X013384Y007387D03*
X012434Y006687D03*
X012434Y006087D03*
X012934Y006087D03*
X018434Y011187D03*
X006034Y002937D03*
D21*
X006034Y002337D03*
X012934Y006687D03*
X012434Y011787D03*
X018434Y011787D03*
X006434Y011787D03*
D22*
X003584Y011287D03*
X003584Y012287D03*
X003584Y010287D03*
X003584Y009287D03*
X003584Y008287D03*
X006784Y003937D03*
X006784Y002937D03*
X006784Y001937D03*
X007784Y001937D03*
X008784Y001937D03*
X008784Y002937D03*
X007784Y002937D03*
X007784Y003937D03*
X008784Y003937D03*
X009984Y003937D03*
X009984Y002937D03*
X009984Y001937D03*
X010984Y001937D03*
X010984Y002937D03*
X010984Y003937D03*
X012184Y003937D03*
X012184Y002937D03*
X012184Y001937D03*
X013184Y001937D03*
X013184Y002937D03*
X013184Y003937D03*
X014384Y003937D03*
X014384Y002937D03*
X015384Y001937D03*
X016384Y001937D03*
X017384Y001937D03*
X018384Y001937D03*
X019384Y001937D03*
D23*
X006558Y007337D03*
X005810Y007337D03*
X005810Y008437D03*
X006184Y008437D03*
X006558Y008437D03*
D24*
X006184Y007337D03*
D25*
X009384Y008637D03*
X009384Y010537D03*
D26*
X021634Y010837D03*
D27*
X021634Y008937D03*
D28*
X005934Y006687D03*
D29*
X007234Y007837D03*
X007234Y008537D03*
X005134Y008137D03*
D30*
X005134Y007437D03*
D31*
X019244Y006937D03*
X021724Y006937D03*
D32*
X011234Y010487D03*
X010734Y010487D03*
D33*
X013460Y005520D03*
X014208Y005520D03*
X013834Y004654D03*
D34*
X013586Y004497D02*
X013586Y004439D01*
X013668Y004357D01*
X013863Y004357D01*
X013996Y004224D01*
X013908Y004135D01*
X013908Y003740D01*
X014187Y003461D01*
X014582Y003461D01*
X014861Y003740D01*
X014861Y003943D01*
X015064Y003740D01*
X015137Y003667D01*
X015233Y003627D01*
X016124Y003627D01*
X016124Y003045D01*
X015493Y002414D01*
X015187Y002414D01*
X014908Y002135D01*
X014908Y001740D01*
X015187Y001461D01*
X015582Y001461D01*
X015861Y001740D01*
X015861Y002046D01*
X016532Y002717D01*
X016605Y002790D01*
X016644Y002886D01*
X016644Y003627D01*
X016780Y003627D01*
X016829Y003607D01*
X016940Y003607D01*
X017043Y003650D01*
X017122Y003729D01*
X017152Y003801D01*
X017194Y003759D01*
X017194Y002414D01*
X017187Y002414D01*
X016908Y002135D01*
X016908Y001740D01*
X017187Y001461D01*
X017582Y001461D01*
X017861Y001740D01*
X017861Y002135D01*
X017582Y002414D01*
X017574Y002414D01*
X017574Y002479D01*
X017913Y002140D01*
X017908Y002135D01*
X017908Y001740D01*
X018187Y001461D01*
X018582Y001461D01*
X018861Y001740D01*
X018861Y002135D01*
X018582Y002414D01*
X018187Y002414D01*
X018182Y002409D01*
X017774Y002816D01*
X017774Y004016D01*
X017274Y004516D01*
X017163Y004627D01*
X015713Y004627D01*
X014914Y005426D01*
X014914Y005493D01*
X014872Y005596D01*
X014793Y005675D01*
X014690Y005717D01*
X014579Y005717D01*
X014476Y005675D01*
X014397Y005596D01*
X014354Y005493D01*
X014354Y005382D01*
X014397Y005279D01*
X014438Y005237D01*
X014397Y005196D01*
X014381Y005158D01*
X014305Y005235D01*
X014232Y005308D01*
X014136Y005347D01*
X013709Y005347D01*
X013709Y005736D01*
X013627Y005818D01*
X013472Y005818D01*
X013232Y006059D01*
X013232Y006283D01*
X013150Y006365D01*
X012719Y006365D01*
X012684Y006331D01*
X012650Y006365D01*
X012219Y006365D01*
X012137Y006283D01*
X012137Y005897D01*
X011592Y005897D01*
X010382Y007108D01*
X010286Y007147D01*
X008583Y007147D01*
X008487Y007108D01*
X008414Y007035D01*
X008414Y007035D01*
X008024Y006645D01*
X007976Y006625D01*
X007897Y006546D01*
X007854Y006443D01*
X007854Y006332D01*
X007874Y006283D01*
X007874Y005991D01*
X007854Y005943D01*
X007854Y005832D01*
X007897Y005729D01*
X007976Y005650D01*
X008079Y005607D01*
X008190Y005607D01*
X008293Y005650D01*
X008372Y005729D01*
X008414Y005832D01*
X008414Y005943D01*
X008394Y005991D01*
X008394Y006280D01*
X008742Y006627D01*
X009529Y006627D01*
X009527Y006622D01*
X009164Y006259D01*
X009124Y006163D01*
X009124Y004271D01*
X008982Y004414D01*
X008587Y004414D01*
X008308Y004135D01*
X008308Y003740D01*
X008587Y003461D01*
X008940Y003461D01*
X008893Y003414D01*
X008587Y003414D01*
X008370Y003197D01*
X008198Y003197D01*
X007982Y003414D01*
X007587Y003414D01*
X007370Y003197D01*
X007198Y003197D01*
X006982Y003414D01*
X006587Y003414D01*
X006370Y003197D01*
X006268Y003197D01*
X006250Y003215D01*
X005894Y003215D01*
X005894Y003830D01*
X006782Y004717D01*
X006855Y004790D01*
X006894Y004886D01*
X006894Y006297D01*
X006971Y006374D01*
X006971Y006997D01*
X007093Y006997D01*
X007204Y007109D01*
X007204Y007497D01*
X007205Y007497D01*
X007209Y007501D01*
X007548Y007501D01*
X007630Y007583D01*
X007630Y008092D01*
X007548Y008174D01*
X006920Y008174D01*
X006838Y008092D01*
X006838Y007937D01*
X006245Y007937D01*
X006324Y008016D01*
X006404Y008096D01*
X006404Y008140D01*
X006715Y008140D01*
X006792Y008217D01*
X006904Y008217D01*
X006920Y008201D01*
X007548Y008201D01*
X007630Y008283D01*
X007630Y008792D01*
X007548Y008874D01*
X006920Y008874D01*
X006838Y008792D01*
X006838Y008657D01*
X006792Y008657D01*
X006715Y008735D01*
X006402Y008735D01*
X006371Y008704D01*
X006341Y008735D01*
X006028Y008735D01*
X006000Y008707D01*
X006000Y008710D01*
X006062Y008772D01*
X006062Y008897D01*
X009076Y008897D01*
X009044Y008865D01*
X008983Y008717D01*
X008983Y008557D01*
X009044Y008410D01*
X009157Y008297D01*
X009304Y008236D01*
X009464Y008236D01*
X009612Y008297D01*
X009725Y008410D01*
X009786Y008557D01*
X009786Y008717D01*
X010094Y008409D01*
X010206Y008297D01*
X010776Y008297D01*
X010744Y008266D01*
X010256Y007777D01*
X008106Y007777D01*
X007994Y007666D01*
X007044Y006716D01*
X007044Y005409D01*
X007156Y005297D01*
X007254Y005199D01*
X007254Y005132D01*
X007297Y005029D01*
X007376Y004950D01*
X007479Y004907D01*
X007590Y004907D01*
X007693Y004950D01*
X007772Y005029D01*
X007814Y005132D01*
X007814Y005243D01*
X007772Y005346D01*
X007730Y005387D01*
X007772Y005429D01*
X007814Y005532D01*
X007814Y005643D01*
X007772Y005746D01*
X007724Y005793D01*
X007724Y006559D01*
X008363Y007197D01*
X010513Y007197D01*
X010704Y007389D01*
X010704Y007382D01*
X010747Y007279D01*
X010826Y007200D01*
X010929Y007157D01*
X011040Y007157D01*
X011143Y007200D01*
X011222Y007279D01*
X011264Y007382D01*
X011264Y007449D01*
X011413Y007597D01*
X011663Y007597D01*
X011774Y007709D01*
X011782Y007716D01*
X011797Y007679D01*
X011876Y007600D01*
X011979Y007557D01*
X012090Y007557D01*
X012193Y007600D01*
X012234Y007641D01*
X012244Y007631D01*
X012244Y006965D01*
X012219Y006965D01*
X012137Y006883D01*
X012137Y006492D01*
X012219Y006410D01*
X012650Y006410D01*
X012732Y006492D01*
X012732Y006883D01*
X012650Y006965D01*
X012624Y006965D01*
X012624Y007631D01*
X012634Y007641D01*
X012644Y007631D01*
X012644Y007059D01*
X012756Y006947D01*
X012856Y006847D01*
X013156Y006847D01*
X013856Y006147D01*
X014556Y006147D01*
X013232Y006147D01*
X013232Y006225D02*
X013778Y006225D01*
X013699Y006304D02*
X013211Y006304D01*
X013232Y006068D02*
X014635Y006068D01*
X014713Y005990D02*
X013300Y005990D01*
X013379Y005911D02*
X014792Y005911D01*
X014870Y005833D02*
X013457Y005833D01*
X013690Y005754D02*
X014949Y005754D01*
X015027Y005676D02*
X014790Y005676D01*
X014870Y005597D02*
X015106Y005597D01*
X015184Y005519D02*
X014904Y005519D01*
X014914Y005440D02*
X015263Y005440D01*
X015341Y005362D02*
X014979Y005362D01*
X015057Y005283D02*
X015420Y005283D01*
X015498Y005205D02*
X015136Y005205D01*
X015214Y005126D02*
X015577Y005126D01*
X015655Y005048D02*
X015293Y005048D01*
X015371Y004969D02*
X015734Y004969D01*
X015744Y004959D02*
X015856Y004847D01*
X017206Y004847D01*
X017944Y004109D01*
X017944Y003109D01*
X018913Y002140D01*
X018908Y002135D01*
X018908Y001740D01*
X019187Y001461D01*
X019582Y001461D01*
X019861Y001740D01*
X019861Y002135D01*
X019582Y002414D01*
X019187Y002414D01*
X019182Y002409D01*
X018324Y003266D01*
X018324Y004266D01*
X018213Y004377D01*
X017363Y005227D01*
X016013Y005227D01*
X014824Y006416D01*
X014713Y006527D01*
X014013Y006527D01*
X013443Y007097D01*
X013828Y007097D01*
X013876Y007050D01*
X013979Y007007D01*
X014090Y007007D01*
X014193Y007050D01*
X014272Y007129D01*
X014314Y007232D01*
X014314Y007343D01*
X014272Y007446D01*
X014193Y007525D01*
X014090Y007567D01*
X013979Y007567D01*
X013876Y007525D01*
X013828Y007477D01*
X013682Y007477D01*
X013682Y007583D01*
X013600Y007665D01*
X013169Y007665D01*
X013087Y007583D01*
X013087Y007227D01*
X013024Y007227D01*
X013024Y007631D01*
X013072Y007679D01*
X013109Y007769D01*
X013169Y007710D01*
X013600Y007710D01*
X013682Y007792D01*
X013682Y007797D01*
X013707Y007797D01*
X013707Y007772D01*
X013789Y007690D01*
X014180Y007690D01*
X014262Y007772D01*
X014262Y008203D01*
X014180Y008285D01*
X013789Y008285D01*
X013707Y008203D01*
X013707Y008177D01*
X013682Y008177D01*
X013682Y008183D01*
X013600Y008265D01*
X013431Y008265D01*
X013913Y008747D01*
X016582Y008747D01*
X016679Y008707D01*
X016790Y008707D01*
X016893Y008750D01*
X016972Y008829D01*
X017014Y008932D01*
X017014Y009043D01*
X016972Y009146D01*
X016893Y009225D01*
X016790Y009267D01*
X016679Y009267D01*
X016576Y009225D01*
X016497Y009146D01*
X016489Y009127D01*
X014770Y009127D01*
X014772Y009129D01*
X014814Y009232D01*
X014814Y009343D01*
X014772Y009446D01*
X014693Y009525D01*
X014590Y009567D01*
X014479Y009567D01*
X014376Y009525D01*
X014297Y009446D01*
X014289Y009427D01*
X013692Y009427D01*
X013714Y009482D01*
X013714Y009593D01*
X013672Y009696D01*
X013593Y009775D01*
X013490Y009817D01*
X013379Y009817D01*
X013276Y009775D01*
X013228Y009727D01*
X013206Y009727D01*
X012706Y009227D01*
X012543Y009227D01*
X012973Y009657D01*
X013040Y009657D01*
X013143Y009700D01*
X013222Y009779D01*
X013264Y009882D01*
X013264Y009993D01*
X013222Y010096D01*
X013143Y010175D01*
X013040Y010217D01*
X012929Y010217D01*
X012826Y010175D01*
X012784Y010133D01*
X012743Y010175D01*
X012640Y010217D01*
X012529Y010217D01*
X012426Y010175D01*
X012384Y010133D01*
X012343Y010175D01*
X012240Y010217D01*
X012129Y010217D01*
X012093Y010203D01*
X012162Y010272D01*
X012162Y010703D01*
X012080Y010785D01*
X011689Y010785D01*
X011607Y010703D01*
X011607Y010677D01*
X011584Y010677D01*
X011584Y010795D01*
X011502Y010877D01*
X010466Y010877D01*
X010384Y010795D01*
X010384Y010179D01*
X010466Y010097D01*
X011502Y010097D01*
X011584Y010179D01*
X011584Y010297D01*
X011607Y010297D01*
X011607Y010272D01*
X011681Y010198D01*
X011626Y010175D01*
X011547Y010096D01*
X011504Y009993D01*
X011504Y009882D01*
X011527Y009827D01*
X010413Y009827D01*
X010174Y010066D01*
X010063Y010177D01*
X009565Y010177D01*
X009612Y010197D01*
X009725Y010310D01*
X009786Y010457D01*
X009786Y010617D01*
X009725Y010765D01*
X009612Y010878D01*
X009464Y010939D01*
X009304Y010939D01*
X009157Y010878D01*
X009044Y010765D01*
X008983Y010617D01*
X008983Y010457D01*
X009044Y010310D01*
X009157Y010197D01*
X009203Y010177D01*
X007913Y010177D01*
X007813Y010277D01*
X006506Y010277D01*
X006446Y010217D01*
X006379Y010217D01*
X006276Y010175D01*
X006197Y010096D01*
X006154Y009993D01*
X006154Y009882D01*
X006177Y009827D01*
X006113Y009827D01*
X006014Y009926D01*
X006014Y009993D01*
X005972Y010096D01*
X005893Y010175D01*
X005790Y010217D01*
X005679Y010217D01*
X005576Y010175D01*
X005497Y010096D01*
X005454Y009993D01*
X005454Y009882D01*
X005497Y009779D01*
X005576Y009700D01*
X005679Y009657D01*
X005746Y009657D01*
X005844Y009559D01*
X005956Y009447D01*
X006713Y009447D01*
X006732Y009466D01*
X006747Y009429D01*
X006826Y009350D01*
X006929Y009307D01*
X006996Y009307D01*
X007026Y009277D01*
X005988Y009277D01*
X005980Y009285D01*
X005924Y009285D01*
X005924Y009316D01*
X005813Y009427D01*
X005314Y009926D01*
X005314Y009993D01*
X005272Y010096D01*
X005193Y010175D01*
X005090Y010217D01*
X004979Y010217D01*
X004876Y010175D01*
X004797Y010096D01*
X004754Y009993D01*
X004754Y009882D01*
X004797Y009779D01*
X004876Y009700D01*
X004979Y009657D01*
X005046Y009657D01*
X005507Y009196D01*
X005507Y008772D01*
X005589Y008690D01*
X005609Y008690D01*
X005572Y008653D01*
X005572Y008327D01*
X005530Y008327D01*
X005530Y008392D01*
X005448Y008474D01*
X004820Y008474D01*
X004738Y008392D01*
X004738Y008357D01*
X004711Y008357D01*
X004711Y008444D01*
X004629Y008526D01*
X004534Y008526D01*
X004534Y011670D01*
X004417Y011787D01*
X004413Y011791D01*
X004839Y011791D01*
X004921Y011874D01*
X004921Y012501D01*
X004920Y012502D01*
X004927Y012502D01*
X004927Y011865D01*
X005021Y011771D01*
X005547Y011771D01*
X005641Y011865D01*
X005641Y012247D01*
X005644Y012250D01*
X005644Y012527D01*
X005693Y012576D01*
X005693Y013299D01*
X005644Y013347D01*
X005644Y013824D01*
X005234Y014234D01*
X005234Y014297D01*
X005189Y014407D01*
X005104Y014492D01*
X004994Y014537D01*
X004875Y014537D01*
X004764Y014492D01*
X004680Y014407D01*
X004634Y014297D01*
X004634Y014178D01*
X004680Y014067D01*
X004764Y013983D01*
X004875Y013937D01*
X004937Y013937D01*
X005007Y013867D01*
X004929Y013867D01*
X004826Y013825D01*
X004747Y013746D01*
X004704Y013643D01*
X004704Y013532D01*
X004747Y013429D01*
X004754Y013421D01*
X004754Y013349D01*
X004696Y013291D01*
X004696Y012584D01*
X004673Y012584D01*
X004673Y013291D01*
X004624Y013339D01*
X004624Y014066D01*
X004513Y014177D01*
X004113Y014577D01*
X004041Y014577D01*
X004041Y014812D01*
X003959Y014894D01*
X003410Y014894D01*
X003328Y014812D01*
X003328Y014263D01*
X003410Y014181D01*
X003959Y014181D01*
X003965Y014188D01*
X004244Y013909D01*
X004244Y013339D01*
X004196Y013291D01*
X004196Y012759D01*
X003734Y013220D01*
X003734Y013341D01*
X003772Y013379D01*
X003814Y013482D01*
X003814Y013593D01*
X003772Y013696D01*
X003693Y013775D01*
X003590Y013817D01*
X003479Y013817D01*
X003376Y013775D01*
X003297Y013696D01*
X003254Y013593D01*
X003254Y013482D01*
X003297Y013379D01*
X003334Y013341D01*
X003334Y013055D01*
X002974Y013055D01*
X002974Y013133D02*
X003334Y013133D01*
X003334Y013055D02*
X003625Y012764D01*
X003387Y012764D01*
X003108Y012485D01*
X003108Y012090D01*
X003387Y011811D01*
X003782Y011811D01*
X003934Y011963D01*
X003934Y011705D01*
X004134Y011505D01*
X004134Y008526D01*
X004080Y008526D01*
X004050Y008496D01*
X003782Y008764D01*
X003387Y008764D01*
X003108Y008485D01*
X003108Y008090D01*
X003387Y007811D01*
X003782Y007811D01*
X003998Y008027D01*
X003998Y007895D01*
X004080Y007813D01*
X004629Y007813D01*
X004711Y007895D01*
X004711Y007917D01*
X004738Y007917D01*
X004738Y007883D01*
X004820Y007801D01*
X005448Y007801D01*
X005530Y007883D01*
X005530Y007887D01*
X005823Y007887D01*
X005744Y007809D01*
X005590Y007655D01*
X005590Y007571D01*
X005572Y007553D01*
X005572Y007122D01*
X005654Y007040D01*
X005967Y007040D01*
X006049Y007122D01*
X006049Y007491D01*
X006055Y007497D01*
X006274Y007497D01*
X006274Y007109D01*
X006340Y007043D01*
X006297Y007001D01*
X006297Y006662D01*
X006093Y006457D01*
X005575Y006457D01*
X005175Y006857D01*
X004711Y006857D01*
X004711Y007044D01*
X004629Y007126D01*
X004080Y007126D01*
X003998Y007044D01*
X003998Y006495D01*
X004080Y006413D01*
X004629Y006413D01*
X004633Y006417D01*
X004993Y006417D01*
X005264Y006146D01*
X005393Y006017D01*
X006275Y006017D01*
X006374Y006116D01*
X006374Y005045D01*
X005414Y004085D01*
X005374Y003989D01*
X005374Y001986D01*
X005414Y001890D01*
X005487Y001817D01*
X005487Y001817D01*
X006064Y001240D01*
X006137Y001167D01*
X006233Y001127D01*
X009086Y001127D01*
X009182Y001167D01*
X009532Y001517D01*
X009605Y001590D01*
X009644Y001686D01*
X009644Y002230D01*
X009875Y002461D01*
X010182Y002461D01*
X010268Y002547D01*
X010700Y002547D01*
X010787Y002461D01*
X011182Y002461D01*
X011268Y002547D01*
X011900Y002547D01*
X011987Y002461D01*
X012382Y002461D01*
X012468Y002547D01*
X012900Y002547D01*
X012987Y002461D01*
X013382Y002461D01*
X013468Y002547D01*
X014100Y002547D01*
X014187Y002461D01*
X014582Y002461D01*
X014861Y002740D01*
X014861Y003135D01*
X014582Y003414D01*
X014187Y003414D01*
X014100Y003327D01*
X013468Y003327D01*
X013382Y003414D01*
X012987Y003414D01*
X012900Y003327D01*
X012468Y003327D01*
X012382Y003414D01*
X011987Y003414D01*
X011900Y003327D01*
X011774Y003327D01*
X011774Y003673D01*
X011987Y003461D01*
X012382Y003461D01*
X012661Y003740D01*
X012661Y004135D01*
X012382Y004414D01*
X011987Y004414D01*
X011774Y004201D01*
X011774Y004566D01*
X011663Y004677D01*
X011591Y004750D01*
X011591Y005112D01*
X011509Y005194D01*
X010960Y005194D01*
X010878Y005112D01*
X010878Y004563D01*
X010960Y004481D01*
X011322Y004481D01*
X011394Y004409D01*
X011394Y004201D01*
X011182Y004414D01*
X010787Y004414D01*
X010508Y004135D01*
X010508Y003740D01*
X010787Y003461D01*
X011182Y003461D01*
X011394Y003673D01*
X011394Y003327D01*
X011268Y003327D01*
X011182Y003414D01*
X010787Y003414D01*
X010700Y003327D01*
X010268Y003327D01*
X010182Y003414D01*
X009787Y003414D01*
X009508Y003135D01*
X009508Y002828D01*
X009164Y002485D01*
X009124Y002389D01*
X009124Y001845D01*
X008927Y001647D01*
X006392Y001647D01*
X005894Y002145D01*
X005894Y002660D01*
X006250Y002660D01*
X006268Y002677D01*
X006370Y002677D01*
X006587Y002461D01*
X006982Y002461D01*
X007198Y002677D01*
X007370Y002677D01*
X007587Y002461D01*
X007982Y002461D01*
X008198Y002677D01*
X008370Y002677D01*
X008587Y002461D01*
X008982Y002461D01*
X009261Y002740D01*
X009261Y003046D01*
X009605Y003390D01*
X009644Y003486D01*
X009644Y003603D01*
X009787Y003461D01*
X010182Y003461D01*
X010461Y003740D01*
X010461Y004135D01*
X010182Y004414D01*
X009787Y004414D01*
X009644Y004271D01*
X009644Y006004D01*
X009895Y006254D01*
X009943Y006274D01*
X010022Y006353D01*
X010064Y006456D01*
X010064Y006567D01*
X010039Y006627D01*
X010127Y006627D01*
X011337Y005417D01*
X011433Y005377D01*
X012577Y005377D01*
X012760Y005194D01*
X012360Y005194D01*
X012278Y005112D01*
X012278Y004563D01*
X012360Y004481D01*
X012909Y004481D01*
X012925Y004497D01*
X013586Y004497D01*
X013605Y004420D02*
X011774Y004420D01*
X011774Y004498D02*
X012342Y004498D01*
X012278Y004577D02*
X011764Y004577D01*
X011685Y004655D02*
X012278Y004655D01*
X012278Y004734D02*
X011607Y004734D01*
X011591Y004812D02*
X012278Y004812D01*
X012278Y004891D02*
X011591Y004891D01*
X011591Y004969D02*
X012278Y004969D01*
X012278Y005048D02*
X011591Y005048D01*
X011576Y005126D02*
X012292Y005126D01*
X012592Y005362D02*
X009644Y005362D01*
X009644Y005440D02*
X011314Y005440D01*
X011235Y005519D02*
X009644Y005519D01*
X009644Y005597D02*
X011157Y005597D01*
X011078Y005676D02*
X009644Y005676D01*
X009644Y005754D02*
X011000Y005754D01*
X010921Y005833D02*
X009644Y005833D01*
X009644Y005911D02*
X010843Y005911D01*
X010764Y005990D02*
X009644Y005990D01*
X009709Y006068D02*
X010686Y006068D01*
X010607Y006147D02*
X009788Y006147D01*
X009866Y006225D02*
X010529Y006225D01*
X010450Y006304D02*
X009973Y006304D01*
X010034Y006382D02*
X010372Y006382D01*
X010293Y006461D02*
X010064Y006461D01*
X010064Y006539D02*
X010215Y006539D01*
X010136Y006618D02*
X010043Y006618D01*
X009523Y006618D02*
X008733Y006618D01*
X008654Y006539D02*
X009445Y006539D01*
X009366Y006461D02*
X008576Y006461D01*
X008497Y006382D02*
X009288Y006382D01*
X009209Y006304D02*
X008419Y006304D01*
X008394Y006225D02*
X009150Y006225D01*
X009124Y006147D02*
X008394Y006147D01*
X008394Y006068D02*
X009124Y006068D01*
X009124Y005990D02*
X008395Y005990D01*
X008414Y005911D02*
X009124Y005911D01*
X009124Y005833D02*
X008414Y005833D01*
X008382Y005754D02*
X009124Y005754D01*
X009124Y005676D02*
X008319Y005676D01*
X007950Y005676D02*
X007801Y005676D01*
X007814Y005597D02*
X009124Y005597D01*
X009124Y005519D02*
X007809Y005519D01*
X007777Y005440D02*
X009124Y005440D01*
X009124Y005362D02*
X007756Y005362D01*
X007798Y005283D02*
X009124Y005283D01*
X009124Y005205D02*
X007814Y005205D01*
X007812Y005126D02*
X009124Y005126D01*
X009124Y005048D02*
X007780Y005048D01*
X007712Y004969D02*
X009124Y004969D01*
X009124Y004891D02*
X006894Y004891D01*
X006894Y004969D02*
X007356Y004969D01*
X007289Y005048D02*
X006894Y005048D01*
X006894Y005126D02*
X007257Y005126D01*
X007248Y005205D02*
X006894Y005205D01*
X006894Y005283D02*
X007170Y005283D01*
X007091Y005362D02*
X006894Y005362D01*
X006894Y005440D02*
X007044Y005440D01*
X007044Y005519D02*
X006894Y005519D01*
X006894Y005597D02*
X007044Y005597D01*
X007044Y005676D02*
X006894Y005676D01*
X006894Y005754D02*
X007044Y005754D01*
X007044Y005833D02*
X006894Y005833D01*
X006894Y005911D02*
X007044Y005911D01*
X007044Y005990D02*
X006894Y005990D01*
X006894Y006068D02*
X007044Y006068D01*
X007044Y006147D02*
X006894Y006147D01*
X006894Y006225D02*
X007044Y006225D01*
X007044Y006304D02*
X006902Y006304D01*
X006971Y006382D02*
X007044Y006382D01*
X007044Y006461D02*
X006971Y006461D01*
X006971Y006539D02*
X007044Y006539D01*
X007044Y006618D02*
X006971Y006618D01*
X006971Y006696D02*
X007044Y006696D01*
X007103Y006775D02*
X006971Y006775D01*
X006971Y006853D02*
X007182Y006853D01*
X007260Y006932D02*
X006971Y006932D01*
X007106Y007010D02*
X007339Y007010D01*
X007417Y007089D02*
X007185Y007089D01*
X007204Y007167D02*
X007496Y007167D01*
X007574Y007246D02*
X007204Y007246D01*
X007204Y007324D02*
X007653Y007324D01*
X007731Y007403D02*
X007204Y007403D01*
X007204Y007481D02*
X007810Y007481D01*
X007888Y007560D02*
X007608Y007560D01*
X007630Y007638D02*
X007967Y007638D01*
X008045Y007717D02*
X007630Y007717D01*
X007630Y007795D02*
X010274Y007795D01*
X010352Y007874D02*
X007630Y007874D01*
X007630Y007952D02*
X010431Y007952D01*
X010509Y008031D02*
X007630Y008031D01*
X007613Y008109D02*
X010588Y008109D01*
X010666Y008188D02*
X006763Y008188D01*
X006856Y008109D02*
X006404Y008109D01*
X006339Y008031D02*
X006838Y008031D01*
X006838Y007952D02*
X006260Y007952D01*
X005810Y007874D02*
X005522Y007874D01*
X005653Y007717D02*
X002974Y007717D01*
X002974Y007795D02*
X005731Y007795D01*
X005590Y007638D02*
X002974Y007638D01*
X002974Y007560D02*
X005579Y007560D01*
X005572Y007481D02*
X002974Y007481D01*
X002974Y007403D02*
X005572Y007403D01*
X005572Y007324D02*
X002974Y007324D01*
X002974Y007246D02*
X005572Y007246D01*
X005572Y007167D02*
X002974Y007167D01*
X002974Y007089D02*
X004043Y007089D01*
X003998Y007010D02*
X002974Y007010D01*
X002974Y006932D02*
X003998Y006932D01*
X003998Y006853D02*
X002974Y006853D01*
X002974Y006775D02*
X003998Y006775D01*
X003998Y006696D02*
X002974Y006696D01*
X002974Y006618D02*
X003998Y006618D01*
X003998Y006539D02*
X002974Y006539D01*
X002974Y006461D02*
X004032Y006461D01*
X004332Y006272D02*
X004287Y006163D01*
X004287Y006044D01*
X004332Y005935D01*
X004416Y005851D01*
X004525Y005806D01*
X004643Y005806D01*
X004753Y005851D01*
X004837Y005935D01*
X004882Y006044D01*
X004882Y006163D01*
X004837Y006272D01*
X004753Y006356D01*
X004643Y006401D01*
X004525Y006401D01*
X004416Y006356D01*
X004332Y006272D01*
X004364Y006304D02*
X002974Y006304D01*
X002974Y006382D02*
X004480Y006382D01*
X004688Y006382D02*
X005028Y006382D01*
X005107Y006304D02*
X004805Y006304D01*
X004856Y006225D02*
X005185Y006225D01*
X005264Y006147D02*
X004882Y006147D01*
X004882Y006068D02*
X005342Y006068D01*
X005572Y006461D02*
X006097Y006461D01*
X006175Y006539D02*
X005493Y006539D01*
X005415Y006618D02*
X006254Y006618D01*
X006297Y006696D02*
X005336Y006696D01*
X005258Y006775D02*
X006297Y006775D01*
X006297Y006853D02*
X005179Y006853D01*
X005605Y007089D02*
X004666Y007089D01*
X004711Y007010D02*
X006307Y007010D01*
X006297Y006932D02*
X004711Y006932D01*
X004313Y006225D02*
X002974Y006225D01*
X002974Y006147D02*
X004287Y006147D01*
X004287Y006068D02*
X002974Y006068D01*
X002974Y005990D02*
X004309Y005990D01*
X004356Y005911D02*
X002974Y005911D01*
X002974Y005833D02*
X004460Y005833D01*
X004708Y005833D02*
X006374Y005833D01*
X006374Y005911D02*
X004813Y005911D01*
X004859Y005990D02*
X006374Y005990D01*
X006374Y006068D02*
X006326Y006068D01*
X006374Y005754D02*
X002974Y005754D01*
X002974Y005676D02*
X006374Y005676D01*
X006374Y005597D02*
X002974Y005597D01*
X002974Y005519D02*
X006374Y005519D01*
X006374Y005440D02*
X002974Y005440D01*
X002974Y005362D02*
X006374Y005362D01*
X006374Y005283D02*
X002974Y005283D01*
X002974Y005205D02*
X006374Y005205D01*
X006374Y005126D02*
X002974Y005126D01*
X002974Y005048D02*
X006374Y005048D01*
X006299Y004969D02*
X002974Y004969D01*
X002974Y004891D02*
X006220Y004891D01*
X006142Y004812D02*
X002974Y004812D01*
X002974Y004734D02*
X006063Y004734D01*
X005985Y004655D02*
X004676Y004655D01*
X004643Y004669D02*
X004525Y004669D01*
X004416Y004623D01*
X004332Y004540D01*
X004287Y004430D01*
X004287Y004312D01*
X004332Y004203D01*
X004416Y004119D01*
X004525Y004074D01*
X004643Y004074D01*
X004753Y004119D01*
X004837Y004203D01*
X004882Y004312D01*
X004882Y004430D01*
X004837Y004540D01*
X004753Y004623D01*
X004643Y004669D01*
X004493Y004655D02*
X002974Y004655D01*
X002974Y004577D02*
X004369Y004577D01*
X004315Y004498D02*
X002974Y004498D01*
X002974Y004420D02*
X004287Y004420D01*
X004287Y004341D02*
X002974Y004341D01*
X002974Y004263D02*
X004307Y004263D01*
X004350Y004184D02*
X002974Y004184D01*
X002974Y004106D02*
X004448Y004106D01*
X004721Y004106D02*
X005435Y004106D01*
X005390Y004027D02*
X002974Y004027D01*
X002974Y003949D02*
X005374Y003949D01*
X005374Y003870D02*
X002974Y003870D01*
X002974Y003792D02*
X005374Y003792D01*
X005374Y003713D02*
X002974Y003713D01*
X002974Y003635D02*
X005374Y003635D01*
X005374Y003556D02*
X002974Y003556D01*
X002974Y003478D02*
X005374Y003478D01*
X005374Y003399D02*
X002974Y003399D01*
X002974Y003321D02*
X005374Y003321D01*
X005374Y003242D02*
X002974Y003242D01*
X002974Y003164D02*
X005374Y003164D01*
X005374Y003085D02*
X002974Y003085D01*
X002974Y003007D02*
X005374Y003007D01*
X005374Y002928D02*
X004218Y002928D01*
X004253Y002919D02*
X003967Y002996D01*
X003671Y002996D01*
X003385Y002919D01*
X003128Y002771D01*
X002974Y002617D01*
X002974Y018843D01*
X003128Y018689D01*
X003385Y018541D01*
X003671Y018464D01*
X003967Y018464D01*
X004253Y018541D01*
X004509Y018689D01*
X004718Y018898D01*
X004866Y019154D01*
X004943Y019440D01*
X004943Y019736D01*
X004866Y020022D01*
X004718Y020278D01*
X004564Y020432D01*
X020789Y020432D01*
X020635Y020278D01*
X020487Y020022D01*
X020411Y019736D01*
X020411Y019440D01*
X020487Y019154D01*
X020635Y018898D01*
X020845Y018689D01*
X021101Y018541D01*
X021387Y018464D01*
X021683Y018464D01*
X021969Y018541D01*
X022225Y018689D01*
X022379Y018843D01*
X022379Y002617D01*
X022225Y002771D01*
X022379Y002771D01*
X022379Y002693D02*
X022304Y002693D01*
X022225Y002771D02*
X021969Y002919D01*
X021683Y002996D01*
X021387Y002996D01*
X021101Y002919D01*
X020845Y002771D01*
X020635Y002562D01*
X020487Y002306D01*
X020411Y002020D01*
X020411Y001724D01*
X020487Y001438D01*
X020635Y001181D01*
X020789Y001027D01*
X004564Y001027D01*
X004718Y001181D01*
X004866Y001438D01*
X004943Y001724D01*
X004943Y002020D01*
X004866Y002306D01*
X004718Y002562D01*
X004509Y002771D01*
X004253Y002919D01*
X004373Y002850D02*
X005374Y002850D01*
X005374Y002771D02*
X004509Y002771D01*
X004587Y002693D02*
X005374Y002693D01*
X005374Y002614D02*
X004666Y002614D01*
X004733Y002536D02*
X005374Y002536D01*
X005374Y002457D02*
X004779Y002457D01*
X004824Y002379D02*
X005374Y002379D01*
X005374Y002300D02*
X004868Y002300D01*
X004889Y002222D02*
X005374Y002222D01*
X005374Y002143D02*
X004910Y002143D01*
X004931Y002065D02*
X005374Y002065D01*
X005374Y001986D02*
X004943Y001986D01*
X004943Y001908D02*
X005407Y001908D01*
X005475Y001829D02*
X004943Y001829D01*
X004943Y001751D02*
X005553Y001751D01*
X005632Y001672D02*
X004929Y001672D01*
X004908Y001594D02*
X005710Y001594D01*
X005789Y001515D02*
X004887Y001515D01*
X004866Y001437D02*
X005867Y001437D01*
X005946Y001358D02*
X004820Y001358D01*
X004775Y001280D02*
X006024Y001280D01*
X006103Y001201D02*
X004730Y001201D01*
X004660Y001123D02*
X020694Y001123D01*
X020624Y001201D02*
X009216Y001201D01*
X009295Y001280D02*
X020579Y001280D01*
X020533Y001358D02*
X009373Y001358D01*
X009452Y001437D02*
X020488Y001437D01*
X020467Y001515D02*
X019636Y001515D01*
X019715Y001594D02*
X020446Y001594D01*
X020425Y001672D02*
X019793Y001672D01*
X019861Y001751D02*
X020411Y001751D01*
X020411Y001829D02*
X019861Y001829D01*
X019861Y001908D02*
X020411Y001908D01*
X020411Y001986D02*
X019861Y001986D01*
X019861Y002065D02*
X020423Y002065D01*
X020444Y002143D02*
X019852Y002143D01*
X019774Y002222D02*
X020465Y002222D01*
X020486Y002300D02*
X019695Y002300D01*
X019617Y002379D02*
X020530Y002379D01*
X020575Y002457D02*
X019133Y002457D01*
X019055Y002536D02*
X020620Y002536D01*
X020688Y002614D02*
X018976Y002614D01*
X018898Y002693D02*
X020766Y002693D01*
X020845Y002771D02*
X018819Y002771D01*
X018741Y002850D02*
X020981Y002850D01*
X021135Y002928D02*
X018662Y002928D01*
X018584Y003007D02*
X022379Y003007D01*
X022379Y003085D02*
X018505Y003085D01*
X018427Y003164D02*
X022379Y003164D01*
X022379Y003242D02*
X018348Y003242D01*
X018324Y003321D02*
X022379Y003321D01*
X022379Y003399D02*
X018324Y003399D01*
X018324Y003478D02*
X022379Y003478D01*
X022379Y003556D02*
X018324Y003556D01*
X018324Y003635D02*
X022379Y003635D01*
X022379Y003713D02*
X018324Y003713D01*
X018324Y003792D02*
X022379Y003792D01*
X022379Y003870D02*
X018324Y003870D01*
X018324Y003949D02*
X022379Y003949D01*
X022379Y004027D02*
X018324Y004027D01*
X018324Y004106D02*
X022379Y004106D01*
X022379Y004184D02*
X018324Y004184D01*
X018324Y004263D02*
X022379Y004263D01*
X022379Y004341D02*
X018249Y004341D01*
X018171Y004420D02*
X022379Y004420D01*
X022379Y004498D02*
X018092Y004498D01*
X018014Y004577D02*
X022379Y004577D01*
X022379Y004655D02*
X017935Y004655D01*
X017857Y004734D02*
X022379Y004734D01*
X022379Y004812D02*
X017778Y004812D01*
X017700Y004891D02*
X022379Y004891D01*
X022379Y004969D02*
X017621Y004969D01*
X017543Y005048D02*
X022379Y005048D01*
X022379Y005126D02*
X017464Y005126D01*
X017386Y005205D02*
X022379Y005205D01*
X022379Y005283D02*
X015957Y005283D01*
X015879Y005362D02*
X022379Y005362D01*
X022379Y005440D02*
X015800Y005440D01*
X015721Y005519D02*
X022379Y005519D01*
X022379Y005597D02*
X015643Y005597D01*
X015564Y005676D02*
X022379Y005676D01*
X022379Y005754D02*
X015486Y005754D01*
X015407Y005833D02*
X022379Y005833D01*
X022379Y005911D02*
X015329Y005911D01*
X015250Y005990D02*
X022379Y005990D01*
X022379Y006068D02*
X015172Y006068D01*
X015093Y006147D02*
X022379Y006147D01*
X022379Y006225D02*
X015015Y006225D01*
X014936Y006304D02*
X017871Y006304D01*
X017897Y006277D02*
X018654Y006277D01*
X018705Y006226D01*
X019783Y006226D01*
X019877Y006320D01*
X019877Y007555D01*
X019844Y007587D01*
X019844Y008377D01*
X020071Y008377D01*
X020194Y008500D01*
X020194Y009868D01*
X020932Y010605D01*
X020994Y010756D01*
X020994Y011068D01*
X021782Y011855D01*
X021844Y012006D01*
X021844Y015069D01*
X021782Y015220D01*
X021667Y015335D01*
X021317Y015685D01*
X021166Y015747D01*
X020929Y015747D01*
X020964Y015832D01*
X020964Y015943D01*
X020922Y016046D01*
X020843Y016125D01*
X020740Y016167D01*
X020659Y016167D01*
X020614Y016212D01*
X020614Y016326D01*
X020673Y016384D01*
X020673Y017091D01*
X020672Y017091D01*
X020697Y017091D01*
X020696Y017091D01*
X020696Y016384D01*
X020778Y016302D01*
X021091Y016302D01*
X021173Y016384D01*
X021173Y017091D01*
X021124Y017139D01*
X021124Y017416D01*
X021121Y017419D01*
X021121Y017801D01*
X021039Y017883D01*
X020529Y017883D01*
X020447Y017801D01*
X020447Y017174D01*
X020448Y017173D01*
X020441Y017173D01*
X020441Y017810D01*
X020347Y017903D01*
X019821Y017903D01*
X019727Y017810D01*
X019727Y017428D01*
X019724Y017424D01*
X019724Y017147D01*
X019676Y017099D01*
X019676Y016797D01*
X019673Y016790D01*
X019673Y017091D01*
X019591Y017173D01*
X019278Y017173D01*
X019196Y017091D01*
X019196Y016384D01*
X019254Y016326D01*
X019254Y016113D01*
X019454Y015913D01*
X019454Y015832D01*
X019489Y015747D01*
X018929Y015747D01*
X018964Y015832D01*
X018964Y015943D01*
X018922Y016046D01*
X018843Y016125D01*
X018740Y016167D01*
X018659Y016167D01*
X018614Y016212D01*
X018614Y016326D01*
X018673Y016384D01*
X018673Y017091D01*
X018672Y017091D01*
X018697Y017091D01*
X018696Y017091D01*
X018696Y016384D01*
X018778Y016302D01*
X019091Y016302D01*
X019173Y016384D01*
X019173Y017091D01*
X019124Y017139D01*
X019124Y017383D01*
X019147Y017329D01*
X019226Y017250D01*
X019329Y017207D01*
X019440Y017207D01*
X019543Y017250D01*
X019622Y017329D01*
X019664Y017432D01*
X019664Y017543D01*
X019622Y017646D01*
X019543Y017725D01*
X019440Y017767D01*
X019434Y017767D01*
X019434Y017870D01*
X019317Y017987D01*
X019167Y018137D01*
X017651Y018137D01*
X017534Y018020D01*
X017248Y017734D01*
X017226Y017725D01*
X017208Y017707D01*
X017130Y017785D01*
X016739Y017785D01*
X016657Y017703D01*
X016657Y017272D01*
X016734Y017194D01*
X016734Y017129D01*
X016696Y017091D01*
X016696Y016432D01*
X016551Y016287D01*
X015965Y016287D01*
X015959Y016294D01*
X015611Y016294D01*
X015484Y016420D01*
X015484Y017870D01*
X015367Y017987D01*
X015217Y018137D01*
X013601Y018137D01*
X013484Y018020D01*
X013384Y017920D01*
X013317Y017987D01*
X013167Y018137D01*
X011651Y018137D01*
X011534Y018020D01*
X011248Y017734D01*
X011226Y017725D01*
X011208Y017707D01*
X011130Y017785D01*
X010739Y017785D01*
X010657Y017703D01*
X010657Y017272D01*
X010734Y017194D01*
X010734Y017129D01*
X010696Y017091D01*
X010696Y016432D01*
X010551Y016287D01*
X009965Y016287D01*
X009959Y016294D01*
X009611Y016294D01*
X009484Y016420D01*
X009484Y017870D01*
X009367Y017987D01*
X009217Y018137D01*
X007601Y018137D01*
X007451Y017987D01*
X007384Y017920D01*
X007317Y017987D01*
X007167Y018137D01*
X005701Y018137D01*
X005331Y017767D01*
X005329Y017767D01*
X005226Y017725D01*
X005208Y017707D01*
X005130Y017785D01*
X004739Y017785D01*
X004657Y017703D01*
X004657Y017272D01*
X004734Y017194D01*
X004734Y017129D01*
X004696Y017091D01*
X004696Y016432D01*
X004551Y016287D01*
X003965Y016287D01*
X003959Y016294D01*
X003410Y016294D01*
X003328Y016212D01*
X003328Y015663D01*
X003410Y015581D01*
X003959Y015581D01*
X004041Y015663D01*
X004041Y015887D01*
X004717Y015887D01*
X004834Y016005D01*
X005134Y016305D01*
X005134Y016346D01*
X005173Y016384D01*
X005173Y017091D01*
X005134Y017129D01*
X005134Y017194D01*
X005208Y017268D01*
X005226Y017250D01*
X005329Y017207D01*
X005440Y017207D01*
X005543Y017250D01*
X005622Y017329D01*
X005664Y017432D01*
X005664Y017535D01*
X005727Y017598D01*
X005727Y017428D01*
X005724Y017424D01*
X005724Y017147D01*
X005676Y017099D01*
X005676Y016797D01*
X005673Y016790D01*
X005673Y017091D01*
X005591Y017173D01*
X005278Y017173D01*
X005196Y017091D01*
X005196Y016384D01*
X005254Y016326D01*
X005254Y016113D01*
X005454Y015913D01*
X005454Y015832D01*
X005489Y015747D01*
X004903Y015747D01*
X004752Y015685D01*
X004637Y015570D01*
X004574Y015419D01*
X004574Y015256D01*
X004637Y015105D01*
X004752Y014990D01*
X004903Y014927D01*
X020914Y014927D01*
X021024Y014818D01*
X021024Y013373D01*
X020778Y013373D01*
X020696Y013291D01*
X020696Y012584D01*
X020673Y012584D01*
X020673Y013291D01*
X020614Y013349D01*
X020614Y013512D01*
X020509Y013617D01*
X020359Y013767D01*
X018760Y013767D01*
X018654Y013662D01*
X018504Y013512D01*
X018504Y013373D01*
X018278Y013373D01*
X018196Y013291D01*
X018196Y012584D01*
X018173Y012584D01*
X018173Y013291D01*
X018091Y013373D01*
X017778Y013373D01*
X017696Y013291D01*
X017696Y012584D01*
X017693Y012584D01*
X017696Y012584D02*
X017715Y012565D01*
X017697Y012546D01*
X017654Y012443D01*
X017654Y012332D01*
X017697Y012229D01*
X017776Y012150D01*
X017879Y012107D01*
X017954Y012107D01*
X017954Y011513D01*
X018060Y011407D01*
X018080Y011387D01*
X014951Y011387D01*
X014834Y011270D01*
X014634Y011070D01*
X014634Y010667D01*
X014629Y010667D01*
X014526Y010625D01*
X014488Y010587D01*
X014039Y010587D01*
X015009Y011557D01*
X015114Y011663D01*
X015114Y012526D01*
X015173Y012584D01*
X015173Y013291D01*
X015091Y013373D01*
X014778Y013373D01*
X014696Y013291D01*
X014696Y012584D01*
X014673Y012584D01*
X014673Y013291D01*
X014614Y013349D01*
X014614Y013512D01*
X014509Y013617D01*
X014359Y013767D01*
X012760Y013767D01*
X012654Y013662D01*
X012504Y013512D01*
X012504Y013373D01*
X012278Y013373D01*
X012196Y013291D01*
X012196Y012584D01*
X012173Y012584D01*
X012173Y013291D01*
X012091Y013373D01*
X011778Y013373D01*
X011696Y013291D01*
X011696Y012584D01*
X011693Y012584D01*
X011696Y012584D02*
X011715Y012565D01*
X011697Y012546D01*
X011654Y012443D01*
X011654Y012332D01*
X011697Y012229D01*
X011776Y012150D01*
X011879Y012107D01*
X011954Y012107D01*
X011954Y011750D01*
X011867Y011837D01*
X011613Y011837D01*
X011641Y011865D01*
X011641Y012247D01*
X011644Y012250D01*
X011644Y012527D01*
X011693Y012576D01*
X011693Y013299D01*
X011644Y013347D01*
X011644Y013824D01*
X011234Y014234D01*
X011234Y014297D01*
X011189Y014407D01*
X011104Y014492D01*
X010994Y014537D01*
X010875Y014537D01*
X010764Y014492D01*
X010680Y014407D01*
X010634Y014297D01*
X010634Y014178D01*
X010680Y014067D01*
X010764Y013983D01*
X010875Y013937D01*
X010937Y013937D01*
X011007Y013867D01*
X010929Y013867D01*
X010826Y013825D01*
X010747Y013746D01*
X010704Y013643D01*
X010704Y013532D01*
X010744Y013435D01*
X010744Y013339D01*
X010696Y013291D01*
X010696Y012584D01*
X010673Y012584D01*
X010673Y013291D01*
X010624Y013339D01*
X010624Y014066D01*
X010513Y014177D01*
X010113Y014577D01*
X010041Y014577D01*
X010041Y014812D01*
X009959Y014894D01*
X009410Y014894D01*
X009328Y014812D01*
X009328Y014263D01*
X009410Y014181D01*
X009959Y014181D01*
X009965Y014188D01*
X010244Y013909D01*
X010244Y013339D01*
X010196Y013291D01*
X010196Y012584D01*
X009173Y012584D01*
X009173Y013291D01*
X009091Y013373D01*
X008778Y013373D01*
X008696Y013291D01*
X008696Y012584D01*
X008673Y012584D01*
X008673Y013291D01*
X008614Y013349D01*
X008614Y013462D01*
X008414Y013662D01*
X008309Y013767D01*
X006810Y013767D01*
X006610Y013567D01*
X006504Y013462D01*
X006504Y013373D01*
X006278Y013373D01*
X006196Y013291D01*
X006196Y012584D01*
X006173Y012584D01*
X006173Y013291D01*
X006091Y013373D01*
X005778Y013373D01*
X005696Y013291D01*
X005696Y012584D01*
X005693Y012584D01*
X005696Y012584D02*
X005715Y012565D01*
X005697Y012546D01*
X005654Y012443D01*
X005654Y012332D01*
X005697Y012229D01*
X005776Y012150D01*
X005879Y012107D01*
X005954Y012107D01*
X005954Y011513D01*
X006060Y011407D01*
X006137Y011330D01*
X006137Y010992D01*
X006219Y010910D01*
X006650Y010910D01*
X006689Y010949D01*
X006689Y010800D01*
X007084Y010405D01*
X007201Y010287D01*
X008067Y010287D01*
X009217Y011437D01*
X011701Y011437D01*
X012034Y011105D01*
X012137Y011002D01*
X012137Y010992D01*
X012219Y010910D01*
X012650Y010910D01*
X012689Y010949D01*
X012689Y010750D01*
X013251Y010187D01*
X014488Y010187D01*
X014526Y010150D01*
X014629Y010107D01*
X014740Y010107D01*
X014843Y010150D01*
X014922Y010229D01*
X018829Y010229D01*
X018774Y010174D02*
X018774Y007649D01*
X018705Y007649D01*
X018654Y007597D01*
X017897Y007597D01*
X017774Y007474D01*
X017774Y006400D01*
X017897Y006277D01*
X017792Y006382D02*
X014858Y006382D01*
X014824Y006416D02*
X014824Y006416D01*
X014779Y006461D02*
X017774Y006461D01*
X017774Y006539D02*
X014001Y006539D01*
X013922Y006618D02*
X017774Y006618D01*
X017774Y006696D02*
X013844Y006696D01*
X013765Y006775D02*
X017774Y006775D01*
X017774Y006853D02*
X013687Y006853D01*
X013608Y006932D02*
X015694Y006932D01*
X015726Y006900D02*
X015829Y006857D01*
X015940Y006857D01*
X016043Y006900D01*
X016122Y006979D01*
X016141Y007025D01*
X016523Y007407D01*
X016590Y007407D01*
X016693Y007450D01*
X016772Y007529D01*
X016814Y007632D01*
X016814Y007743D01*
X016772Y007846D01*
X016693Y007925D01*
X016590Y007967D01*
X016479Y007967D01*
X016376Y007925D01*
X016297Y007846D01*
X016254Y007743D01*
X016254Y007676D01*
X015979Y007401D01*
X015940Y007417D01*
X015829Y007417D01*
X015726Y007375D01*
X015647Y007296D01*
X015604Y007193D01*
X015604Y007082D01*
X015647Y006979D01*
X015726Y006900D01*
X015634Y007010D02*
X014097Y007010D01*
X013971Y007010D02*
X013530Y007010D01*
X013451Y007089D02*
X013837Y007089D01*
X013832Y007481D02*
X013682Y007481D01*
X013682Y007560D02*
X013961Y007560D01*
X014108Y007560D02*
X016138Y007560D01*
X016060Y007481D02*
X014236Y007481D01*
X014290Y007403D02*
X015794Y007403D01*
X015675Y007324D02*
X014314Y007324D01*
X014314Y007246D02*
X015626Y007246D01*
X015604Y007167D02*
X014288Y007167D01*
X014232Y007089D02*
X015604Y007089D01*
X015975Y007403D02*
X015981Y007403D01*
X016217Y007638D02*
X013627Y007638D01*
X013607Y007717D02*
X013762Y007717D01*
X013707Y007795D02*
X013682Y007795D01*
X013677Y008188D02*
X013707Y008188D01*
X013770Y008266D02*
X013432Y008266D01*
X013511Y008345D02*
X018774Y008345D01*
X018774Y008423D02*
X013589Y008423D01*
X013668Y008502D02*
X018774Y008502D01*
X018774Y008580D02*
X013746Y008580D01*
X013825Y008659D02*
X018774Y008659D01*
X018774Y008737D02*
X016862Y008737D01*
X016959Y008816D02*
X018774Y008816D01*
X018774Y008894D02*
X016999Y008894D01*
X017014Y008973D02*
X018774Y008973D01*
X018774Y009051D02*
X017011Y009051D01*
X016978Y009130D02*
X018774Y009130D01*
X018774Y009208D02*
X016909Y009208D01*
X016559Y009208D02*
X014805Y009208D01*
X014814Y009287D02*
X018774Y009287D01*
X018774Y009365D02*
X014805Y009365D01*
X014773Y009444D02*
X018774Y009444D01*
X018774Y009522D02*
X014695Y009522D01*
X014373Y009522D02*
X013714Y009522D01*
X013711Y009601D02*
X018774Y009601D01*
X018774Y009679D02*
X013679Y009679D01*
X013610Y009758D02*
X018774Y009758D01*
X018774Y009836D02*
X013246Y009836D01*
X013259Y009758D02*
X013201Y009758D01*
X013158Y009679D02*
X013093Y009679D01*
X013079Y009601D02*
X012917Y009601D01*
X012838Y009522D02*
X013001Y009522D01*
X012922Y009444D02*
X012760Y009444D01*
X012681Y009365D02*
X012844Y009365D01*
X012765Y009287D02*
X012603Y009287D01*
X013264Y009915D02*
X018774Y009915D01*
X018774Y009993D02*
X013264Y009993D01*
X013232Y010072D02*
X018774Y010072D01*
X018774Y010150D02*
X014843Y010150D01*
X014922Y010229D02*
X014964Y010332D01*
X014964Y010385D01*
X015034Y010455D01*
X015034Y010905D01*
X015117Y010987D01*
X018141Y010987D01*
X018219Y010910D01*
X018650Y010910D01*
X018725Y010985D01*
X018782Y010929D01*
X018906Y010929D01*
X018906Y010861D01*
X019154Y010613D01*
X019260Y010507D01*
X019674Y010507D01*
X019502Y010335D01*
X019464Y010297D01*
X018897Y010297D01*
X018774Y010174D01*
X019146Y010621D02*
X015034Y010621D01*
X015034Y010543D02*
X019224Y010543D01*
X019334Y010687D02*
X019834Y010687D01*
X020134Y010987D01*
X020134Y011387D01*
X020934Y012187D01*
X020934Y012937D01*
X020696Y012898D02*
X020673Y012898D01*
X020673Y012976D02*
X020696Y012976D01*
X020696Y013055D02*
X020673Y013055D01*
X020673Y013133D02*
X020696Y013133D01*
X020696Y013212D02*
X020673Y013212D01*
X020673Y013290D02*
X020696Y013290D01*
X020774Y013369D02*
X020614Y013369D01*
X020614Y013447D02*
X021024Y013447D01*
X021024Y013526D02*
X020600Y013526D01*
X020522Y013604D02*
X021024Y013604D01*
X021024Y013683D02*
X020443Y013683D01*
X020365Y013761D02*
X021024Y013761D01*
X021024Y013840D02*
X017629Y013840D01*
X017644Y013824D02*
X017234Y014234D01*
X017234Y014297D01*
X017189Y014407D01*
X017104Y014492D01*
X016994Y014537D01*
X016875Y014537D01*
X016764Y014492D01*
X016680Y014407D01*
X016634Y014297D01*
X016634Y014178D01*
X016680Y014067D01*
X016764Y013983D01*
X016875Y013937D01*
X016937Y013937D01*
X017007Y013867D01*
X016929Y013867D01*
X016826Y013825D01*
X016747Y013746D01*
X016704Y013643D01*
X016704Y013532D01*
X016744Y013435D01*
X016744Y013339D01*
X016696Y013291D01*
X016696Y012584D01*
X016673Y012584D01*
X016673Y013291D01*
X016624Y013339D01*
X016624Y014066D01*
X016513Y014177D01*
X016113Y014577D01*
X016041Y014577D01*
X016041Y014812D01*
X015959Y014894D01*
X015410Y014894D01*
X015328Y014812D01*
X015328Y014263D01*
X015410Y014181D01*
X015959Y014181D01*
X015965Y014188D01*
X016244Y013909D01*
X016244Y013339D01*
X016196Y013291D01*
X016196Y012584D01*
X015173Y012584D01*
X015173Y012662D02*
X016196Y012662D01*
X016196Y012584D02*
X016244Y012536D01*
X016244Y012259D01*
X016247Y012256D01*
X016247Y011874D01*
X016329Y011791D01*
X016839Y011791D01*
X016921Y011874D01*
X016921Y012501D01*
X016920Y012502D01*
X016927Y012502D01*
X016927Y011865D01*
X017021Y011771D01*
X017547Y011771D01*
X017641Y011865D01*
X017641Y012247D01*
X017644Y012250D01*
X017644Y012527D01*
X017693Y012576D01*
X017693Y013299D01*
X017644Y013347D01*
X017644Y013824D01*
X017644Y013761D02*
X018754Y013761D01*
X018675Y013683D02*
X017644Y013683D01*
X017644Y013604D02*
X018597Y013604D01*
X018518Y013526D02*
X017644Y013526D01*
X017644Y013447D02*
X018504Y013447D01*
X018684Y013437D02*
X018834Y013587D01*
X020284Y013587D01*
X020434Y013437D01*
X020434Y012937D01*
X020434Y012287D01*
X020184Y012037D01*
X020464Y012034D02*
X020527Y012034D01*
X020464Y012063D02*
X020614Y012213D01*
X020614Y012526D01*
X020673Y012584D01*
X020696Y012584D02*
X020754Y012526D01*
X020754Y012262D01*
X020457Y011965D01*
X020464Y011982D01*
X020464Y012063D01*
X020514Y012113D02*
X020605Y012113D01*
X020593Y012191D02*
X020684Y012191D01*
X020614Y012270D02*
X020754Y012270D01*
X020754Y012348D02*
X020614Y012348D01*
X020614Y012427D02*
X020754Y012427D01*
X020754Y012505D02*
X020614Y012505D01*
X020673Y012662D02*
X020696Y012662D01*
X020696Y012741D02*
X020673Y012741D01*
X020673Y012819D02*
X020696Y012819D01*
X020196Y012819D02*
X020173Y012819D01*
X020173Y012741D02*
X020196Y012741D01*
X020196Y012662D02*
X020173Y012662D01*
X020173Y012584D02*
X020114Y012526D01*
X020114Y012413D01*
X020014Y012313D01*
X020014Y012263D01*
X020026Y012275D01*
X020129Y012317D01*
X020210Y012317D01*
X020254Y012362D01*
X020254Y012526D01*
X020196Y012584D01*
X020173Y012584D01*
X020173Y013291D01*
X020091Y013373D01*
X019778Y013373D01*
X019696Y013291D01*
X019696Y012584D01*
X019673Y012584D01*
X019673Y013291D01*
X019591Y013373D01*
X019278Y013373D01*
X019196Y013291D01*
X019196Y012754D01*
X019184Y012742D01*
X019173Y012754D01*
X019173Y013291D01*
X019091Y013373D01*
X018874Y013373D01*
X018909Y013407D01*
X020210Y013407D01*
X020254Y013363D01*
X020254Y013349D01*
X020196Y013291D01*
X020196Y012584D01*
X020254Y012505D02*
X020114Y012505D01*
X020114Y012427D02*
X020254Y012427D01*
X020241Y012348D02*
X020050Y012348D01*
X020021Y012270D02*
X020014Y012270D01*
X019834Y012387D02*
X019934Y012487D01*
X019934Y012937D01*
X019696Y012898D02*
X019673Y012898D01*
X019673Y012976D02*
X019696Y012976D01*
X019696Y013055D02*
X019673Y013055D01*
X019673Y013133D02*
X019696Y013133D01*
X019696Y013212D02*
X019673Y013212D01*
X019673Y013290D02*
X019696Y013290D01*
X019774Y013369D02*
X019594Y013369D01*
X019274Y013369D02*
X019094Y013369D01*
X019173Y013290D02*
X019196Y013290D01*
X019196Y013212D02*
X019173Y013212D01*
X019173Y013133D02*
X019196Y013133D01*
X019196Y013055D02*
X019173Y013055D01*
X019173Y012976D02*
X019196Y012976D01*
X019196Y012898D02*
X019173Y012898D01*
X019173Y012819D02*
X019196Y012819D01*
X019283Y012586D02*
X019434Y012737D01*
X019434Y012937D01*
X019673Y012819D02*
X019696Y012819D01*
X019696Y012741D02*
X019673Y012741D01*
X019673Y012662D02*
X019696Y012662D01*
X019696Y012584D02*
X019736Y012544D01*
X019654Y012462D01*
X019654Y011762D01*
X019410Y011517D01*
X019410Y011517D01*
X019384Y011492D01*
X019314Y011562D01*
X019209Y011667D01*
X018314Y011667D01*
X018314Y012063D01*
X018509Y012257D01*
X018609Y012358D01*
X018700Y012267D01*
X018700Y012231D01*
X018782Y012149D01*
X019028Y012149D01*
X019004Y012093D01*
X019004Y011982D01*
X019047Y011879D01*
X019126Y011800D01*
X019229Y011757D01*
X019340Y011757D01*
X019443Y011800D01*
X019522Y011879D01*
X019564Y011982D01*
X019564Y012093D01*
X019522Y012196D01*
X019472Y012246D01*
X019472Y012502D01*
X019591Y012502D01*
X019673Y012584D01*
X019698Y012505D02*
X019594Y012505D01*
X019654Y012427D02*
X019472Y012427D01*
X019472Y012348D02*
X019654Y012348D01*
X019654Y012270D02*
X019472Y012270D01*
X019524Y012191D02*
X019654Y012191D01*
X019654Y012113D02*
X019556Y012113D01*
X019564Y012034D02*
X019654Y012034D01*
X019654Y011956D02*
X019554Y011956D01*
X019520Y011877D02*
X019654Y011877D01*
X019654Y011799D02*
X019440Y011799D01*
X019534Y011642D02*
X019234Y011642D01*
X019313Y011563D02*
X019456Y011563D01*
X019613Y011720D02*
X018314Y011720D01*
X018314Y011799D02*
X019128Y011799D01*
X019048Y011877D02*
X018314Y011877D01*
X018314Y011956D02*
X019015Y011956D01*
X019004Y012034D02*
X018314Y012034D01*
X018364Y012113D02*
X019013Y012113D01*
X019283Y012039D02*
X019283Y012398D01*
X019283Y012586D01*
X019086Y012586D02*
X019086Y012398D01*
X019086Y012586D02*
X018934Y012737D01*
X018934Y012937D01*
X018684Y012537D02*
X018784Y012437D01*
X018889Y012437D01*
X018889Y012398D01*
X018697Y012270D02*
X018521Y012270D01*
X018443Y012191D02*
X018740Y012191D01*
X018619Y012348D02*
X018600Y012348D01*
X018434Y012437D02*
X018434Y012937D01*
X018196Y012898D02*
X018173Y012898D01*
X018173Y012976D02*
X018196Y012976D01*
X018196Y013055D02*
X018173Y013055D01*
X018173Y013133D02*
X018196Y013133D01*
X018196Y013212D02*
X018173Y013212D01*
X018173Y013290D02*
X018196Y013290D01*
X018274Y013369D02*
X018094Y013369D01*
X017774Y013369D02*
X017644Y013369D01*
X017693Y013290D02*
X017696Y013290D01*
X017693Y013212D02*
X017696Y013212D01*
X017693Y013133D02*
X017696Y013133D01*
X017693Y013055D02*
X017696Y013055D01*
X017693Y012976D02*
X017696Y012976D01*
X017693Y012898D02*
X017696Y012898D01*
X017693Y012819D02*
X017696Y012819D01*
X017693Y012741D02*
X017696Y012741D01*
X017693Y012662D02*
X017696Y012662D01*
X017680Y012505D02*
X017644Y012505D01*
X017644Y012427D02*
X017654Y012427D01*
X017644Y012348D02*
X017654Y012348D01*
X017644Y012270D02*
X017680Y012270D01*
X017641Y012191D02*
X017734Y012191D01*
X017641Y012113D02*
X017865Y012113D01*
X017954Y012034D02*
X017641Y012034D01*
X017641Y011956D02*
X017954Y011956D01*
X017954Y011877D02*
X017641Y011877D01*
X017575Y011799D02*
X017954Y011799D01*
X017954Y011720D02*
X015114Y011720D01*
X015114Y011799D02*
X016322Y011799D01*
X016247Y011877D02*
X015114Y011877D01*
X015114Y011956D02*
X016247Y011956D01*
X016247Y012034D02*
X015114Y012034D01*
X015114Y012113D02*
X016247Y012113D01*
X016247Y012191D02*
X015114Y012191D01*
X015114Y012270D02*
X016244Y012270D01*
X016244Y012348D02*
X015114Y012348D01*
X015114Y012427D02*
X016244Y012427D01*
X016244Y012505D02*
X015114Y012505D01*
X015173Y012741D02*
X016196Y012741D01*
X016196Y012819D02*
X015173Y012819D01*
X015173Y012898D02*
X016196Y012898D01*
X016196Y012976D02*
X015173Y012976D01*
X015173Y013055D02*
X016196Y013055D01*
X016196Y013133D02*
X015173Y013133D01*
X015173Y013212D02*
X016196Y013212D01*
X016196Y013290D02*
X015173Y013290D01*
X015094Y013369D02*
X016244Y013369D01*
X016244Y013447D02*
X014614Y013447D01*
X014614Y013369D02*
X014774Y013369D01*
X014696Y013290D02*
X014673Y013290D01*
X014673Y013212D02*
X014696Y013212D01*
X014696Y013133D02*
X014673Y013133D01*
X014673Y013055D02*
X014696Y013055D01*
X014696Y012976D02*
X014673Y012976D01*
X014673Y012898D02*
X014696Y012898D01*
X014696Y012819D02*
X014673Y012819D01*
X014673Y012741D02*
X014696Y012741D01*
X014696Y012662D02*
X014673Y012662D01*
X014673Y012584D02*
X014614Y012526D01*
X014614Y012203D01*
X014672Y012146D01*
X014714Y012043D01*
X014714Y011932D01*
X014672Y011829D01*
X014593Y011750D01*
X014490Y011707D01*
X014379Y011707D01*
X014276Y011750D01*
X014197Y011829D01*
X014154Y011932D01*
X014154Y012043D01*
X014197Y012146D01*
X014254Y012203D01*
X014254Y012526D01*
X014196Y012584D01*
X014173Y012584D01*
X014173Y013291D01*
X014091Y013373D01*
X013778Y013373D01*
X013696Y013291D01*
X013696Y012584D01*
X013673Y012584D01*
X013673Y013291D01*
X013591Y013373D01*
X013278Y013373D01*
X013196Y013291D01*
X013196Y012754D01*
X013184Y012742D01*
X013173Y012754D01*
X013173Y013291D01*
X013091Y013373D01*
X012874Y013373D01*
X012909Y013407D01*
X014210Y013407D01*
X014254Y013363D01*
X014254Y013349D01*
X014196Y013291D01*
X014196Y012584D01*
X014173Y012584D02*
X014114Y012526D01*
X014114Y011613D01*
X014009Y011507D01*
X013819Y011317D01*
X013890Y011317D01*
X013993Y011275D01*
X014072Y011196D01*
X014091Y011149D01*
X014754Y011812D01*
X014754Y012526D01*
X014696Y012584D01*
X014754Y012505D02*
X014614Y012505D01*
X014614Y012427D02*
X014754Y012427D01*
X014754Y012348D02*
X014614Y012348D01*
X014614Y012270D02*
X014754Y012270D01*
X014754Y012191D02*
X014626Y012191D01*
X014685Y012113D02*
X014754Y012113D01*
X014754Y012034D02*
X014714Y012034D01*
X014714Y011956D02*
X014754Y011956D01*
X014754Y011877D02*
X014692Y011877D01*
X014642Y011799D02*
X014741Y011799D01*
X014663Y011720D02*
X014521Y011720D01*
X014584Y011642D02*
X014114Y011642D01*
X014114Y011720D02*
X014347Y011720D01*
X014227Y011799D02*
X014114Y011799D01*
X014114Y011877D02*
X014177Y011877D01*
X014154Y011956D02*
X014114Y011956D01*
X014114Y012034D02*
X014154Y012034D01*
X014183Y012113D02*
X014114Y012113D01*
X014114Y012191D02*
X014242Y012191D01*
X014254Y012270D02*
X014114Y012270D01*
X014114Y012348D02*
X014254Y012348D01*
X014254Y012427D02*
X014114Y012427D01*
X014114Y012505D02*
X014254Y012505D01*
X014196Y012662D02*
X014173Y012662D01*
X014173Y012741D02*
X014196Y012741D01*
X014196Y012819D02*
X014173Y012819D01*
X014173Y012898D02*
X014196Y012898D01*
X014196Y012976D02*
X014173Y012976D01*
X014173Y013055D02*
X014196Y013055D01*
X014196Y013133D02*
X014173Y013133D01*
X014173Y013212D02*
X014196Y013212D01*
X014196Y013290D02*
X014173Y013290D01*
X014248Y013369D02*
X014094Y013369D01*
X014284Y013587D02*
X014434Y013437D01*
X014434Y012937D01*
X014434Y011987D01*
X014506Y011563D02*
X014065Y011563D01*
X013986Y011485D02*
X014427Y011485D01*
X014349Y011406D02*
X013908Y011406D01*
X013829Y011328D02*
X014270Y011328D01*
X014192Y011249D02*
X014018Y011249D01*
X014082Y011171D02*
X014113Y011171D01*
X013834Y011037D02*
X013684Y010887D01*
X013384Y010887D01*
X013283Y010989D01*
X013283Y011177D01*
X013283Y011339D01*
X013134Y011487D01*
X012234Y011487D01*
X012134Y011587D01*
X012134Y012137D01*
X012434Y012437D01*
X012434Y012937D01*
X012196Y012898D02*
X012173Y012898D01*
X012173Y012976D02*
X012196Y012976D01*
X012196Y013055D02*
X012173Y013055D01*
X012173Y013133D02*
X012196Y013133D01*
X012196Y013212D02*
X012173Y013212D01*
X012173Y013290D02*
X012196Y013290D01*
X012274Y013369D02*
X012094Y013369D01*
X011774Y013369D02*
X011644Y013369D01*
X011644Y013447D02*
X012504Y013447D01*
X012518Y013526D02*
X011644Y013526D01*
X011644Y013604D02*
X012597Y013604D01*
X012654Y013662D02*
X012654Y013662D01*
X012675Y013683D02*
X011644Y013683D01*
X011644Y013761D02*
X012754Y013761D01*
X012834Y013587D02*
X014284Y013587D01*
X014443Y013683D02*
X016244Y013683D01*
X016244Y013761D02*
X014365Y013761D01*
X014509Y013617D02*
X014509Y013617D01*
X014522Y013604D02*
X016244Y013604D01*
X016244Y013526D02*
X014600Y013526D01*
X014934Y012937D02*
X014934Y011737D01*
X013884Y010687D01*
X013334Y010687D01*
X013086Y010936D01*
X013086Y011177D01*
X012689Y010935D02*
X012676Y010935D01*
X012689Y010857D02*
X011523Y010857D01*
X011584Y010778D02*
X011682Y010778D01*
X011607Y010700D02*
X011584Y010700D01*
X011584Y010229D02*
X011650Y010229D01*
X011601Y010150D02*
X011555Y010150D01*
X011537Y010072D02*
X010168Y010072D01*
X010090Y010150D02*
X010413Y010150D01*
X010384Y010229D02*
X009644Y010229D01*
X009723Y010307D02*
X010384Y010307D01*
X010384Y010386D02*
X009756Y010386D01*
X009786Y010464D02*
X010384Y010464D01*
X010384Y010543D02*
X009786Y010543D01*
X009784Y010621D02*
X010384Y010621D01*
X010384Y010700D02*
X009752Y010700D01*
X009712Y010778D02*
X010384Y010778D01*
X010446Y010857D02*
X009633Y010857D01*
X009473Y010935D02*
X012193Y010935D01*
X012125Y011014D02*
X008794Y011014D01*
X008872Y011092D02*
X012046Y011092D01*
X011968Y011171D02*
X008951Y011171D01*
X009029Y011249D02*
X011889Y011249D01*
X011811Y011328D02*
X009108Y011328D01*
X009186Y011406D02*
X011732Y011406D01*
X011906Y011799D02*
X011954Y011799D01*
X011954Y011877D02*
X011641Y011877D01*
X011641Y011956D02*
X011954Y011956D01*
X011954Y012034D02*
X011641Y012034D01*
X011641Y012113D02*
X011865Y012113D01*
X011734Y012191D02*
X011641Y012191D01*
X011644Y012270D02*
X011680Y012270D01*
X011654Y012348D02*
X011644Y012348D01*
X011644Y012427D02*
X011654Y012427D01*
X011644Y012505D02*
X011680Y012505D01*
X011693Y012662D02*
X011696Y012662D01*
X011693Y012741D02*
X011696Y012741D01*
X011693Y012819D02*
X011696Y012819D01*
X011693Y012898D02*
X011696Y012898D01*
X011693Y012976D02*
X011696Y012976D01*
X011693Y013055D02*
X011696Y013055D01*
X011693Y013133D02*
X011696Y013133D01*
X011693Y013212D02*
X011696Y013212D01*
X011693Y013290D02*
X011696Y013290D01*
X011629Y013840D02*
X016244Y013840D01*
X016235Y013918D02*
X011550Y013918D01*
X011472Y013997D02*
X016156Y013997D01*
X016078Y014075D02*
X011393Y014075D01*
X011315Y014154D02*
X015999Y014154D01*
X016301Y014389D02*
X016673Y014389D01*
X016640Y014311D02*
X016379Y014311D01*
X016458Y014232D02*
X016634Y014232D01*
X016644Y014154D02*
X016536Y014154D01*
X016615Y014075D02*
X016677Y014075D01*
X016624Y013997D02*
X016751Y013997D01*
X016624Y013918D02*
X016956Y013918D01*
X016862Y013840D02*
X016624Y013840D01*
X016624Y013761D02*
X016762Y013761D01*
X016721Y013683D02*
X016624Y013683D01*
X016624Y013604D02*
X016704Y013604D01*
X016707Y013526D02*
X016624Y013526D01*
X016624Y013447D02*
X016739Y013447D01*
X016744Y013369D02*
X016624Y013369D01*
X016673Y013290D02*
X016696Y013290D01*
X016696Y013212D02*
X016673Y013212D01*
X016673Y013133D02*
X016696Y013133D01*
X016696Y013055D02*
X016673Y013055D01*
X016673Y012976D02*
X016696Y012976D01*
X016696Y012898D02*
X016673Y012898D01*
X016673Y012819D02*
X016696Y012819D01*
X016696Y012741D02*
X016673Y012741D01*
X016673Y012662D02*
X016696Y012662D01*
X016696Y012584D02*
X016697Y012583D01*
X016672Y012583D01*
X016673Y012584D01*
X016921Y012427D02*
X016927Y012427D01*
X016921Y012348D02*
X016927Y012348D01*
X016921Y012270D02*
X016927Y012270D01*
X016921Y012191D02*
X016927Y012191D01*
X016921Y012113D02*
X016927Y012113D01*
X016921Y012034D02*
X016927Y012034D01*
X016921Y011956D02*
X016927Y011956D01*
X016921Y011877D02*
X016927Y011877D01*
X016994Y011799D02*
X016847Y011799D01*
X017954Y011642D02*
X015093Y011642D01*
X015015Y011563D02*
X017954Y011563D01*
X017982Y011485D02*
X014936Y011485D01*
X014858Y011406D02*
X018061Y011406D01*
X018234Y011487D02*
X018134Y011587D01*
X018134Y012137D01*
X018434Y012437D01*
X018254Y012512D02*
X018206Y012464D01*
X018172Y012546D01*
X018153Y012565D01*
X018173Y012584D01*
X018196Y012584D02*
X018254Y012526D01*
X018254Y012512D01*
X018248Y012505D02*
X018188Y012505D01*
X018173Y012662D02*
X018196Y012662D01*
X018196Y012741D02*
X018173Y012741D01*
X018173Y012819D02*
X018196Y012819D01*
X018684Y012537D02*
X018684Y013437D01*
X017550Y013918D02*
X021024Y013918D01*
X021024Y013997D02*
X017472Y013997D01*
X017393Y014075D02*
X021024Y014075D01*
X021024Y014154D02*
X017315Y014154D01*
X017236Y014232D02*
X021024Y014232D01*
X021024Y014311D02*
X017229Y014311D01*
X017196Y014389D02*
X021024Y014389D01*
X021024Y014468D02*
X017128Y014468D01*
X016741Y014468D02*
X016222Y014468D01*
X016144Y014546D02*
X021024Y014546D01*
X021024Y014625D02*
X016041Y014625D01*
X016041Y014703D02*
X021024Y014703D01*
X021024Y014782D02*
X016041Y014782D01*
X015992Y014860D02*
X020981Y014860D01*
X021592Y015410D02*
X022379Y015410D01*
X022379Y015488D02*
X021513Y015488D01*
X021435Y015567D02*
X022379Y015567D01*
X022379Y015645D02*
X021356Y015645D01*
X021222Y015724D02*
X022379Y015724D01*
X022379Y015802D02*
X020952Y015802D01*
X020964Y015881D02*
X022379Y015881D01*
X022379Y015959D02*
X020958Y015959D01*
X020925Y016038D02*
X022379Y016038D01*
X022379Y016116D02*
X020851Y016116D01*
X020631Y016195D02*
X022379Y016195D01*
X022379Y016273D02*
X020614Y016273D01*
X020641Y016352D02*
X020728Y016352D01*
X020696Y016430D02*
X020673Y016430D01*
X020673Y016509D02*
X020696Y016509D01*
X020696Y016587D02*
X020673Y016587D01*
X020673Y016666D02*
X020696Y016666D01*
X020696Y016744D02*
X020673Y016744D01*
X020673Y016823D02*
X020696Y016823D01*
X020696Y016901D02*
X020673Y016901D01*
X020673Y016980D02*
X020696Y016980D01*
X020696Y017058D02*
X020673Y017058D01*
X020447Y017215D02*
X020441Y017215D01*
X020441Y017294D02*
X020447Y017294D01*
X020441Y017372D02*
X020447Y017372D01*
X020441Y017451D02*
X020447Y017451D01*
X020441Y017529D02*
X020447Y017529D01*
X020441Y017608D02*
X020447Y017608D01*
X020441Y017686D02*
X020447Y017686D01*
X020441Y017765D02*
X020447Y017765D01*
X020407Y017843D02*
X020490Y017843D01*
X021079Y017843D02*
X022379Y017843D01*
X022379Y017765D02*
X021121Y017765D01*
X021121Y017686D02*
X022379Y017686D01*
X022379Y017608D02*
X021121Y017608D01*
X021121Y017529D02*
X022379Y017529D01*
X022379Y017451D02*
X021121Y017451D01*
X021124Y017372D02*
X022379Y017372D01*
X022379Y017294D02*
X021124Y017294D01*
X021124Y017215D02*
X022379Y017215D01*
X022379Y017137D02*
X021126Y017137D01*
X021173Y017058D02*
X022379Y017058D01*
X022379Y016980D02*
X021173Y016980D01*
X021173Y016901D02*
X022379Y016901D01*
X022379Y016823D02*
X021173Y016823D01*
X021173Y016744D02*
X022379Y016744D01*
X022379Y016666D02*
X021173Y016666D01*
X021173Y016587D02*
X022379Y016587D01*
X022379Y016509D02*
X021173Y016509D01*
X021173Y016430D02*
X022379Y016430D01*
X022379Y016352D02*
X021141Y016352D01*
X020684Y015887D02*
X020434Y016137D01*
X020434Y016737D01*
X019676Y016823D02*
X019673Y016823D01*
X019673Y016901D02*
X019676Y016901D01*
X019673Y016980D02*
X019676Y016980D01*
X019673Y017058D02*
X019676Y017058D01*
X019714Y017137D02*
X019626Y017137D01*
X019724Y017215D02*
X019459Y017215D01*
X019309Y017215D02*
X019124Y017215D01*
X019126Y017137D02*
X019242Y017137D01*
X019196Y017058D02*
X019173Y017058D01*
X019173Y016980D02*
X019196Y016980D01*
X019196Y016901D02*
X019173Y016901D01*
X019173Y016823D02*
X019196Y016823D01*
X019196Y016744D02*
X019173Y016744D01*
X019173Y016666D02*
X019196Y016666D01*
X019196Y016587D02*
X019173Y016587D01*
X019173Y016509D02*
X019196Y016509D01*
X019196Y016430D02*
X019173Y016430D01*
X019141Y016352D02*
X019228Y016352D01*
X019254Y016273D02*
X018614Y016273D01*
X018631Y016195D02*
X019254Y016195D01*
X019254Y016116D02*
X018851Y016116D01*
X018925Y016038D02*
X019329Y016038D01*
X019408Y015959D02*
X018958Y015959D01*
X018964Y015881D02*
X019454Y015881D01*
X019466Y015802D02*
X018952Y015802D01*
X018684Y015887D02*
X018434Y016137D01*
X018434Y016737D01*
X018673Y016744D02*
X018696Y016744D01*
X018696Y016666D02*
X018673Y016666D01*
X018673Y016587D02*
X018696Y016587D01*
X018696Y016509D02*
X018673Y016509D01*
X018673Y016430D02*
X018696Y016430D01*
X018728Y016352D02*
X018641Y016352D01*
X018673Y016823D02*
X018696Y016823D01*
X018696Y016901D02*
X018673Y016901D01*
X018673Y016980D02*
X018696Y016980D01*
X018696Y017058D02*
X018673Y017058D01*
X019124Y017294D02*
X019182Y017294D01*
X019129Y017372D02*
X019124Y017372D01*
X019587Y017294D02*
X019724Y017294D01*
X019724Y017372D02*
X019640Y017372D01*
X019664Y017451D02*
X019727Y017451D01*
X019727Y017529D02*
X019664Y017529D01*
X019637Y017608D02*
X019727Y017608D01*
X019727Y017686D02*
X019581Y017686D01*
X019446Y017765D02*
X019727Y017765D01*
X019761Y017843D02*
X019434Y017843D01*
X019383Y017922D02*
X022379Y017922D01*
X022379Y018000D02*
X019304Y018000D01*
X019226Y018079D02*
X022379Y018079D01*
X022379Y018157D02*
X002974Y018157D01*
X002974Y018079D02*
X005643Y018079D01*
X005565Y018000D02*
X002974Y018000D01*
X002974Y017922D02*
X005486Y017922D01*
X005408Y017843D02*
X002974Y017843D01*
X002974Y017765D02*
X004719Y017765D01*
X004657Y017686D02*
X002974Y017686D01*
X002974Y017608D02*
X004657Y017608D01*
X004657Y017529D02*
X002974Y017529D01*
X002974Y017451D02*
X004657Y017451D01*
X004657Y017372D02*
X002974Y017372D01*
X002974Y017294D02*
X004657Y017294D01*
X004713Y017215D02*
X002974Y017215D01*
X002974Y017137D02*
X004734Y017137D01*
X004696Y017058D02*
X002974Y017058D01*
X002974Y016980D02*
X004696Y016980D01*
X004696Y016901D02*
X002974Y016901D01*
X002974Y016823D02*
X004696Y016823D01*
X004696Y016744D02*
X002974Y016744D01*
X002974Y016666D02*
X004696Y016666D01*
X004696Y016587D02*
X002974Y016587D01*
X002974Y016509D02*
X004696Y016509D01*
X004695Y016430D02*
X002974Y016430D01*
X002974Y016352D02*
X004616Y016352D01*
X004868Y016038D02*
X005329Y016038D01*
X005254Y016116D02*
X004946Y016116D01*
X005025Y016195D02*
X005254Y016195D01*
X005254Y016273D02*
X005103Y016273D01*
X005141Y016352D02*
X005228Y016352D01*
X005196Y016430D02*
X005173Y016430D01*
X005173Y016509D02*
X005196Y016509D01*
X005196Y016587D02*
X005173Y016587D01*
X005173Y016666D02*
X005196Y016666D01*
X005196Y016744D02*
X005173Y016744D01*
X005173Y016823D02*
X005196Y016823D01*
X005196Y016901D02*
X005173Y016901D01*
X005173Y016980D02*
X005196Y016980D01*
X005196Y017058D02*
X005173Y017058D01*
X005134Y017137D02*
X005242Y017137D01*
X005309Y017215D02*
X005156Y017215D01*
X005459Y017215D02*
X005724Y017215D01*
X005714Y017137D02*
X005626Y017137D01*
X005673Y017058D02*
X005676Y017058D01*
X005673Y016980D02*
X005676Y016980D01*
X005673Y016901D02*
X005676Y016901D01*
X005673Y016823D02*
X005676Y016823D01*
X005434Y016737D02*
X005434Y016187D01*
X005734Y015887D01*
X005454Y015881D02*
X004041Y015881D01*
X004041Y015802D02*
X005466Y015802D01*
X005408Y015959D02*
X004789Y015959D01*
X004834Y016005D02*
X004834Y016005D01*
X004846Y015724D02*
X004041Y015724D01*
X004023Y015645D02*
X004713Y015645D01*
X004636Y015567D02*
X002974Y015567D01*
X002974Y015645D02*
X003345Y015645D01*
X003328Y015724D02*
X002974Y015724D01*
X002974Y015802D02*
X003328Y015802D01*
X003328Y015881D02*
X002974Y015881D01*
X002974Y015959D02*
X003328Y015959D01*
X003328Y016038D02*
X002974Y016038D01*
X002974Y016116D02*
X003328Y016116D01*
X003328Y016195D02*
X002974Y016195D01*
X002974Y016273D02*
X003389Y016273D01*
X002974Y015488D02*
X004603Y015488D01*
X004574Y015410D02*
X002974Y015410D01*
X002974Y015331D02*
X004574Y015331D01*
X004576Y015253D02*
X002974Y015253D01*
X002974Y015174D02*
X004608Y015174D01*
X004646Y015096D02*
X002974Y015096D01*
X002974Y015017D02*
X004724Y015017D01*
X004875Y014939D02*
X002974Y014939D01*
X002974Y014860D02*
X003376Y014860D01*
X003328Y014782D02*
X002974Y014782D01*
X002974Y014703D02*
X003328Y014703D01*
X003328Y014625D02*
X002974Y014625D01*
X002974Y014546D02*
X003328Y014546D01*
X003328Y014468D02*
X002974Y014468D01*
X002974Y014389D02*
X003328Y014389D01*
X003328Y014311D02*
X002974Y014311D01*
X002974Y014232D02*
X003358Y014232D01*
X002974Y014154D02*
X003999Y014154D01*
X004078Y014075D02*
X002974Y014075D01*
X002974Y013997D02*
X004156Y013997D01*
X004235Y013918D02*
X002974Y013918D01*
X002974Y013840D02*
X004244Y013840D01*
X004244Y013761D02*
X003706Y013761D01*
X003777Y013683D02*
X004244Y013683D01*
X004244Y013604D02*
X003810Y013604D01*
X003814Y013526D02*
X004244Y013526D01*
X004244Y013447D02*
X003800Y013447D01*
X003762Y013369D02*
X004244Y013369D01*
X004196Y013290D02*
X003734Y013290D01*
X003743Y013212D02*
X004196Y013212D01*
X004196Y013133D02*
X003821Y013133D01*
X003900Y013055D02*
X004196Y013055D01*
X004196Y012976D02*
X003978Y012976D01*
X004057Y012898D02*
X004196Y012898D01*
X004196Y012819D02*
X004135Y012819D01*
X004673Y012819D02*
X004696Y012819D01*
X004696Y012741D02*
X004673Y012741D01*
X004673Y012662D02*
X004696Y012662D01*
X004696Y012584D02*
X004697Y012583D01*
X004672Y012583D01*
X004673Y012584D01*
X004921Y012427D02*
X004927Y012427D01*
X004921Y012348D02*
X004927Y012348D01*
X004921Y012270D02*
X004927Y012270D01*
X004921Y012191D02*
X004927Y012191D01*
X004921Y012113D02*
X004927Y012113D01*
X004921Y012034D02*
X004927Y012034D01*
X004921Y011956D02*
X004927Y011956D01*
X004921Y011877D02*
X004927Y011877D01*
X004994Y011799D02*
X004847Y011799D01*
X004534Y011642D02*
X005954Y011642D01*
X005954Y011720D02*
X004484Y011720D01*
X004534Y011563D02*
X005954Y011563D01*
X005982Y011485D02*
X004534Y011485D01*
X004534Y011406D02*
X006061Y011406D01*
X006137Y011328D02*
X004534Y011328D01*
X004534Y011249D02*
X006137Y011249D01*
X006137Y011171D02*
X004534Y011171D01*
X004534Y011092D02*
X006137Y011092D01*
X006137Y011014D02*
X004534Y011014D01*
X004534Y010935D02*
X006193Y010935D01*
X006434Y011187D02*
X006445Y011177D01*
X006676Y010935D02*
X006689Y010935D01*
X006689Y010857D02*
X004534Y010857D01*
X004534Y010778D02*
X006710Y010778D01*
X006789Y010700D02*
X004534Y010700D01*
X004534Y010621D02*
X006867Y010621D01*
X006946Y010543D02*
X004534Y010543D01*
X004534Y010464D02*
X007024Y010464D01*
X007103Y010386D02*
X004534Y010386D01*
X004534Y010307D02*
X007181Y010307D01*
X007384Y010687D02*
X007884Y010687D01*
X008934Y011737D01*
X008934Y012937D01*
X008696Y012898D02*
X008673Y012898D01*
X008673Y012976D02*
X008696Y012976D01*
X008696Y013055D02*
X008673Y013055D01*
X008673Y013133D02*
X008696Y013133D01*
X008696Y013212D02*
X008673Y013212D01*
X008673Y013290D02*
X008696Y013290D01*
X008774Y013369D02*
X008614Y013369D01*
X008614Y013447D02*
X010244Y013447D01*
X010244Y013369D02*
X009094Y013369D01*
X009173Y013290D02*
X010196Y013290D01*
X010196Y013212D02*
X009173Y013212D01*
X009173Y013133D02*
X010196Y013133D01*
X010196Y013055D02*
X009173Y013055D01*
X009173Y012976D02*
X010196Y012976D01*
X010196Y012898D02*
X009173Y012898D01*
X009173Y012819D02*
X010196Y012819D01*
X010196Y012741D02*
X009173Y012741D01*
X009173Y012662D02*
X010196Y012662D01*
X010196Y012584D02*
X010244Y012536D01*
X010244Y012259D01*
X010247Y012256D01*
X010247Y011874D01*
X010284Y011837D01*
X009114Y011837D01*
X009114Y012526D01*
X009173Y012584D01*
X009114Y012505D02*
X010244Y012505D01*
X010244Y012427D02*
X009114Y012427D01*
X009114Y012348D02*
X010244Y012348D01*
X010244Y012270D02*
X009114Y012270D01*
X009114Y012191D02*
X010247Y012191D01*
X010247Y012113D02*
X009114Y012113D01*
X009114Y012034D02*
X010247Y012034D01*
X010247Y011956D02*
X009114Y011956D01*
X009114Y011877D02*
X010247Y011877D01*
X010672Y012583D02*
X010673Y012584D01*
X010672Y012583D02*
X010697Y012583D01*
X010696Y012584D01*
X010696Y012662D02*
X010673Y012662D01*
X010673Y012741D02*
X010696Y012741D01*
X010696Y012819D02*
X010673Y012819D01*
X010673Y012898D02*
X010696Y012898D01*
X010696Y012976D02*
X010673Y012976D01*
X010673Y013055D02*
X010696Y013055D01*
X010696Y013133D02*
X010673Y013133D01*
X010673Y013212D02*
X010696Y013212D01*
X010696Y013290D02*
X010673Y013290D01*
X010624Y013369D02*
X010744Y013369D01*
X010739Y013447D02*
X010624Y013447D01*
X010624Y013526D02*
X010707Y013526D01*
X010704Y013604D02*
X010624Y013604D01*
X010624Y013683D02*
X010721Y013683D01*
X010762Y013761D02*
X010624Y013761D01*
X010624Y013840D02*
X010862Y013840D01*
X010956Y013918D02*
X010624Y013918D01*
X010624Y013997D02*
X010751Y013997D01*
X010677Y014075D02*
X010615Y014075D01*
X010644Y014154D02*
X010536Y014154D01*
X010458Y014232D02*
X010634Y014232D01*
X010640Y014311D02*
X010379Y014311D01*
X010301Y014389D02*
X010673Y014389D01*
X010741Y014468D02*
X010222Y014468D01*
X010144Y014546D02*
X015328Y014546D01*
X015328Y014468D02*
X011128Y014468D01*
X011196Y014389D02*
X015328Y014389D01*
X015328Y014311D02*
X011229Y014311D01*
X011236Y014232D02*
X015358Y014232D01*
X015328Y014625D02*
X010041Y014625D01*
X010041Y014703D02*
X015328Y014703D01*
X015328Y014782D02*
X010041Y014782D01*
X009992Y014860D02*
X015376Y014860D01*
X014684Y015887D02*
X014434Y016137D01*
X014434Y016737D01*
X013434Y016737D02*
X013434Y016187D01*
X013734Y015887D01*
X012684Y015887D02*
X012434Y016137D01*
X012434Y016737D01*
X011734Y015887D02*
X011434Y016187D01*
X011434Y016737D01*
X010696Y016744D02*
X009484Y016744D01*
X009484Y016666D02*
X010696Y016666D01*
X010696Y016587D02*
X009484Y016587D01*
X009484Y016509D02*
X010696Y016509D01*
X010695Y016430D02*
X009484Y016430D01*
X009553Y016352D02*
X010616Y016352D01*
X010696Y016823D02*
X009484Y016823D01*
X009484Y016901D02*
X010696Y016901D01*
X010696Y016980D02*
X009484Y016980D01*
X009484Y017058D02*
X010696Y017058D01*
X010734Y017137D02*
X009484Y017137D01*
X009484Y017215D02*
X010713Y017215D01*
X010657Y017294D02*
X009484Y017294D01*
X009484Y017372D02*
X010657Y017372D01*
X010657Y017451D02*
X009484Y017451D01*
X009484Y017529D02*
X010657Y017529D01*
X010657Y017608D02*
X009484Y017608D01*
X009484Y017686D02*
X010657Y017686D01*
X010719Y017765D02*
X009484Y017765D01*
X009484Y017843D02*
X011358Y017843D01*
X011436Y017922D02*
X009433Y017922D01*
X009354Y018000D02*
X011515Y018000D01*
X011593Y018079D02*
X009276Y018079D01*
X009566Y018612D02*
X008803Y018612D01*
X008709Y018706D01*
X008709Y019469D01*
X008803Y019562D01*
X008888Y019562D01*
X008887Y019564D01*
X008887Y020011D01*
X008980Y020105D01*
X009388Y020105D01*
X009482Y020011D01*
X009482Y019564D01*
X009481Y019562D01*
X009566Y019562D01*
X009659Y019469D01*
X009659Y018706D01*
X009566Y018612D01*
X009582Y018628D02*
X014787Y018628D01*
X014803Y018612D02*
X015566Y018612D01*
X015659Y018706D01*
X015659Y019469D01*
X015566Y019562D01*
X015481Y019562D01*
X015482Y019564D01*
X015482Y020011D01*
X015388Y020105D01*
X014980Y020105D01*
X014887Y020011D01*
X014887Y019564D01*
X014888Y019562D01*
X014803Y019562D01*
X014709Y019469D01*
X014709Y018706D01*
X014803Y018612D01*
X014709Y018707D02*
X013969Y018707D01*
X013923Y018661D02*
X014261Y018999D01*
X014261Y019476D01*
X013923Y019814D01*
X013446Y019814D01*
X013184Y019552D01*
X012923Y019814D01*
X012446Y019814D01*
X012184Y019552D01*
X011923Y019814D01*
X011446Y019814D01*
X011108Y019476D01*
X011108Y018999D01*
X011446Y018661D01*
X011923Y018661D01*
X012184Y018923D01*
X012446Y018661D01*
X012923Y018661D01*
X013184Y018923D01*
X013446Y018661D01*
X013923Y018661D01*
X014047Y018785D02*
X014709Y018785D01*
X014709Y018864D02*
X014126Y018864D01*
X014204Y018942D02*
X014709Y018942D01*
X014709Y019021D02*
X014261Y019021D01*
X014261Y019099D02*
X014709Y019099D01*
X014709Y019178D02*
X014261Y019178D01*
X014261Y019256D02*
X014709Y019256D01*
X014709Y019335D02*
X014261Y019335D01*
X014261Y019413D02*
X014709Y019413D01*
X014733Y019492D02*
X014245Y019492D01*
X014166Y019570D02*
X014887Y019570D01*
X014887Y019649D02*
X014088Y019649D01*
X014009Y019727D02*
X014887Y019727D01*
X014887Y019806D02*
X013931Y019806D01*
X013438Y019806D02*
X012931Y019806D01*
X013009Y019727D02*
X013359Y019727D01*
X013281Y019649D02*
X013088Y019649D01*
X013166Y019570D02*
X013202Y019570D01*
X013243Y018864D02*
X013126Y018864D01*
X013047Y018785D02*
X013321Y018785D01*
X013400Y018707D02*
X012969Y018707D01*
X013226Y018079D02*
X013543Y018079D01*
X013465Y018000D02*
X013304Y018000D01*
X013383Y017922D02*
X013386Y017922D01*
X012400Y018707D02*
X011969Y018707D01*
X012047Y018785D02*
X012321Y018785D01*
X012243Y018864D02*
X012126Y018864D01*
X012166Y019570D02*
X012202Y019570D01*
X012281Y019649D02*
X012088Y019649D01*
X012009Y019727D02*
X012359Y019727D01*
X012438Y019806D02*
X011931Y019806D01*
X011438Y019806D02*
X009482Y019806D01*
X009482Y019884D02*
X014887Y019884D01*
X014887Y019963D02*
X009482Y019963D01*
X009452Y020041D02*
X014917Y020041D01*
X015452Y020041D02*
X020499Y020041D01*
X020472Y019963D02*
X015482Y019963D01*
X015482Y019884D02*
X020451Y019884D01*
X020430Y019806D02*
X019931Y019806D01*
X019923Y019814D02*
X019446Y019814D01*
X019184Y019552D01*
X018923Y019814D01*
X018446Y019814D01*
X018184Y019552D01*
X017923Y019814D01*
X017446Y019814D01*
X017108Y019476D01*
X017108Y018999D01*
X017446Y018661D01*
X017923Y018661D01*
X018184Y018923D01*
X018446Y018661D01*
X018923Y018661D01*
X019184Y018923D01*
X019446Y018661D01*
X019923Y018661D01*
X020261Y018999D01*
X020261Y019476D01*
X019923Y019814D01*
X020009Y019727D02*
X020411Y019727D01*
X020411Y019649D02*
X020088Y019649D01*
X020166Y019570D02*
X020411Y019570D01*
X020411Y019492D02*
X020245Y019492D01*
X020261Y019413D02*
X020418Y019413D01*
X020439Y019335D02*
X020261Y019335D01*
X020261Y019256D02*
X020460Y019256D01*
X020481Y019178D02*
X020261Y019178D01*
X020261Y019099D02*
X020519Y019099D01*
X020564Y019021D02*
X020261Y019021D01*
X020204Y018942D02*
X020610Y018942D01*
X020669Y018864D02*
X020126Y018864D01*
X020047Y018785D02*
X020748Y018785D01*
X020826Y018707D02*
X019969Y018707D01*
X019400Y018707D02*
X018969Y018707D01*
X019047Y018785D02*
X019321Y018785D01*
X019243Y018864D02*
X019126Y018864D01*
X019166Y019570D02*
X019202Y019570D01*
X019281Y019649D02*
X019088Y019649D01*
X019009Y019727D02*
X019359Y019727D01*
X019438Y019806D02*
X018931Y019806D01*
X018438Y019806D02*
X017931Y019806D01*
X018009Y019727D02*
X018359Y019727D01*
X018281Y019649D02*
X018088Y019649D01*
X018166Y019570D02*
X018202Y019570D01*
X018243Y018864D02*
X018126Y018864D01*
X018047Y018785D02*
X018321Y018785D01*
X018400Y018707D02*
X017969Y018707D01*
X017400Y018707D02*
X015659Y018707D01*
X015659Y018785D02*
X017321Y018785D01*
X017243Y018864D02*
X015659Y018864D01*
X015659Y018942D02*
X017164Y018942D01*
X017108Y019021D02*
X015659Y019021D01*
X015659Y019099D02*
X017108Y019099D01*
X017108Y019178D02*
X015659Y019178D01*
X015659Y019256D02*
X017108Y019256D01*
X017108Y019335D02*
X015659Y019335D01*
X015659Y019413D02*
X017108Y019413D01*
X017124Y019492D02*
X015636Y019492D01*
X015482Y019570D02*
X017202Y019570D01*
X017281Y019649D02*
X015482Y019649D01*
X015482Y019727D02*
X017359Y019727D01*
X017438Y019806D02*
X015482Y019806D01*
X015582Y018628D02*
X020949Y018628D01*
X021085Y018550D02*
X004269Y018550D01*
X004405Y018628D02*
X008787Y018628D01*
X008709Y018707D02*
X007969Y018707D01*
X007923Y018661D02*
X008261Y018999D01*
X008261Y019476D01*
X007923Y019814D01*
X007446Y019814D01*
X007184Y019552D01*
X006923Y019814D01*
X006446Y019814D01*
X006184Y019552D01*
X005923Y019814D01*
X005446Y019814D01*
X005108Y019476D01*
X005108Y018999D01*
X005446Y018661D01*
X005923Y018661D01*
X006184Y018923D01*
X006446Y018661D01*
X006923Y018661D01*
X007184Y018923D01*
X007446Y018661D01*
X007923Y018661D01*
X008047Y018785D02*
X008709Y018785D01*
X008709Y018864D02*
X008126Y018864D01*
X008204Y018942D02*
X008709Y018942D01*
X008709Y019021D02*
X008261Y019021D01*
X008261Y019099D02*
X008709Y019099D01*
X008709Y019178D02*
X008261Y019178D01*
X008261Y019256D02*
X008709Y019256D01*
X008709Y019335D02*
X008261Y019335D01*
X008261Y019413D02*
X008709Y019413D01*
X008733Y019492D02*
X008245Y019492D01*
X008166Y019570D02*
X008887Y019570D01*
X008887Y019649D02*
X008088Y019649D01*
X008009Y019727D02*
X008887Y019727D01*
X008887Y019806D02*
X007931Y019806D01*
X007438Y019806D02*
X006931Y019806D01*
X007009Y019727D02*
X007359Y019727D01*
X007281Y019649D02*
X007088Y019649D01*
X007166Y019570D02*
X007202Y019570D01*
X007243Y018864D02*
X007126Y018864D01*
X007047Y018785D02*
X007321Y018785D01*
X007400Y018707D02*
X006969Y018707D01*
X006400Y018707D02*
X005969Y018707D01*
X006047Y018785D02*
X006321Y018785D01*
X006243Y018864D02*
X006126Y018864D01*
X006166Y019570D02*
X006202Y019570D01*
X006281Y019649D02*
X006088Y019649D01*
X006009Y019727D02*
X006359Y019727D01*
X006438Y019806D02*
X005931Y019806D01*
X005438Y019806D02*
X004924Y019806D01*
X004943Y019727D02*
X005359Y019727D01*
X005281Y019649D02*
X004943Y019649D01*
X004943Y019570D02*
X005202Y019570D01*
X005124Y019492D02*
X004943Y019492D01*
X004936Y019413D02*
X005108Y019413D01*
X005108Y019335D02*
X004915Y019335D01*
X004894Y019256D02*
X005108Y019256D01*
X005108Y019178D02*
X004873Y019178D01*
X004835Y019099D02*
X005108Y019099D01*
X005108Y019021D02*
X004789Y019021D01*
X004744Y018942D02*
X005164Y018942D01*
X005243Y018864D02*
X004684Y018864D01*
X004606Y018785D02*
X005321Y018785D01*
X005400Y018707D02*
X004527Y018707D01*
X003995Y018471D02*
X021359Y018471D01*
X021711Y018471D02*
X022379Y018471D01*
X022379Y018393D02*
X002974Y018393D01*
X002974Y018471D02*
X003642Y018471D01*
X003368Y018550D02*
X002974Y018550D01*
X002974Y018628D02*
X003232Y018628D01*
X003110Y018707D02*
X002974Y018707D01*
X002974Y018785D02*
X003031Y018785D01*
X002974Y018314D02*
X022379Y018314D01*
X022379Y018236D02*
X002974Y018236D01*
X004903Y019884D02*
X008887Y019884D01*
X008887Y019963D02*
X004882Y019963D01*
X004855Y020041D02*
X008917Y020041D01*
X009482Y019727D02*
X011359Y019727D01*
X011281Y019649D02*
X009482Y019649D01*
X009482Y019570D02*
X011202Y019570D01*
X011124Y019492D02*
X009636Y019492D01*
X009659Y019413D02*
X011108Y019413D01*
X011108Y019335D02*
X009659Y019335D01*
X009659Y019256D02*
X011108Y019256D01*
X011108Y019178D02*
X009659Y019178D01*
X009659Y019099D02*
X011108Y019099D01*
X011108Y019021D02*
X009659Y019021D01*
X009659Y018942D02*
X011164Y018942D01*
X011243Y018864D02*
X009659Y018864D01*
X009659Y018785D02*
X011321Y018785D01*
X011400Y018707D02*
X009659Y018707D01*
X011150Y017765D02*
X011279Y017765D01*
X008684Y015887D02*
X008434Y016137D01*
X008434Y016737D01*
X007734Y015887D02*
X007434Y016187D01*
X007434Y016737D01*
X006434Y016737D02*
X006434Y016137D01*
X006684Y015887D01*
X005724Y017294D02*
X005587Y017294D01*
X005640Y017372D02*
X005724Y017372D01*
X005727Y017451D02*
X005664Y017451D01*
X005664Y017529D02*
X005727Y017529D01*
X005323Y017765D02*
X005150Y017765D01*
X007226Y018079D02*
X007543Y018079D01*
X007465Y018000D02*
X007304Y018000D01*
X007383Y017922D02*
X007386Y017922D01*
X004810Y020120D02*
X020544Y020120D01*
X020589Y020198D02*
X004764Y020198D01*
X004719Y020277D02*
X020635Y020277D01*
X020712Y020355D02*
X004641Y020355D01*
X003992Y014860D02*
X009376Y014860D01*
X009328Y014782D02*
X004041Y014782D01*
X004041Y014703D02*
X009328Y014703D01*
X009328Y014625D02*
X004041Y014625D01*
X004144Y014546D02*
X009328Y014546D01*
X009328Y014468D02*
X005128Y014468D01*
X005196Y014389D02*
X009328Y014389D01*
X009328Y014311D02*
X005229Y014311D01*
X005236Y014232D02*
X009358Y014232D01*
X009999Y014154D02*
X005315Y014154D01*
X005393Y014075D02*
X010078Y014075D01*
X010156Y013997D02*
X005472Y013997D01*
X005550Y013918D02*
X010235Y013918D01*
X010244Y013840D02*
X005629Y013840D01*
X005644Y013761D02*
X006804Y013761D01*
X006725Y013683D02*
X005644Y013683D01*
X005644Y013604D02*
X006647Y013604D01*
X006568Y013526D02*
X005644Y013526D01*
X005644Y013447D02*
X006504Y013447D01*
X006684Y013387D02*
X006684Y012537D01*
X006784Y012437D01*
X006889Y012437D01*
X006889Y012398D01*
X007086Y012398D02*
X007086Y012586D01*
X006934Y012737D01*
X006934Y012937D01*
X007173Y012898D02*
X007196Y012898D01*
X007196Y012976D02*
X007173Y012976D01*
X007173Y013055D02*
X007196Y013055D01*
X007196Y013133D02*
X007173Y013133D01*
X007173Y013212D02*
X007196Y013212D01*
X007196Y013290D02*
X007173Y013290D01*
X007173Y013291D02*
X007091Y013373D01*
X006924Y013373D01*
X006959Y013407D01*
X008160Y013407D01*
X008236Y013331D01*
X008196Y013291D01*
X008196Y012584D01*
X008173Y012584D01*
X008173Y013291D01*
X008091Y013373D01*
X007778Y013373D01*
X007696Y013291D01*
X007696Y012584D01*
X007673Y012584D01*
X007673Y013291D01*
X007591Y013373D01*
X007278Y013373D01*
X007196Y013291D01*
X007196Y012754D01*
X007184Y012742D01*
X007173Y012754D01*
X007173Y013291D01*
X007094Y013369D02*
X007274Y013369D01*
X007594Y013369D02*
X007774Y013369D01*
X007696Y013290D02*
X007673Y013290D01*
X007673Y013212D02*
X007696Y013212D01*
X007696Y013133D02*
X007673Y013133D01*
X007673Y013055D02*
X007696Y013055D01*
X007696Y012976D02*
X007673Y012976D01*
X007673Y012898D02*
X007696Y012898D01*
X007696Y012819D02*
X007673Y012819D01*
X007673Y012741D02*
X007696Y012741D01*
X007696Y012662D02*
X007673Y012662D01*
X007673Y012584D02*
X007591Y012502D01*
X007472Y012502D01*
X007472Y012231D01*
X007463Y012222D01*
X007463Y012205D01*
X007522Y012146D01*
X007564Y012043D01*
X007564Y011932D01*
X007522Y011829D01*
X007443Y011750D01*
X007340Y011707D01*
X007229Y011707D01*
X007126Y011750D01*
X007047Y011829D01*
X007004Y011932D01*
X007004Y012043D01*
X007047Y012146D01*
X007050Y012149D01*
X006782Y012149D01*
X006700Y012231D01*
X006700Y012267D01*
X006609Y012358D01*
X006509Y012257D01*
X006314Y012063D01*
X006314Y011667D01*
X007209Y011667D01*
X007314Y011562D01*
X007434Y011442D01*
X007754Y011762D01*
X007754Y012526D01*
X007696Y012584D01*
X007754Y012505D02*
X007594Y012505D01*
X007472Y012427D02*
X007754Y012427D01*
X007754Y012348D02*
X007472Y012348D01*
X007472Y012270D02*
X007754Y012270D01*
X007754Y012191D02*
X007476Y012191D01*
X007535Y012113D02*
X007754Y012113D01*
X007754Y012034D02*
X007564Y012034D01*
X007564Y011956D02*
X007754Y011956D01*
X007754Y011877D02*
X007542Y011877D01*
X007492Y011799D02*
X007754Y011799D01*
X007713Y011720D02*
X007371Y011720D01*
X007234Y011642D02*
X007634Y011642D01*
X007556Y011563D02*
X007313Y011563D01*
X007391Y011485D02*
X007477Y011485D01*
X007283Y011339D02*
X007134Y011487D01*
X006234Y011487D01*
X006134Y011587D01*
X006134Y012137D01*
X006434Y012437D01*
X006434Y012937D01*
X006196Y012898D02*
X006173Y012898D01*
X006173Y012976D02*
X006196Y012976D01*
X006196Y013055D02*
X006173Y013055D01*
X006173Y013133D02*
X006196Y013133D01*
X006196Y013212D02*
X006173Y013212D01*
X006173Y013290D02*
X006196Y013290D01*
X006274Y013369D02*
X006094Y013369D01*
X005774Y013369D02*
X005644Y013369D01*
X005693Y013290D02*
X005696Y013290D01*
X005693Y013212D02*
X005696Y013212D01*
X005693Y013133D02*
X005696Y013133D01*
X005693Y013055D02*
X005696Y013055D01*
X005693Y012976D02*
X005696Y012976D01*
X005693Y012898D02*
X005696Y012898D01*
X005693Y012819D02*
X005696Y012819D01*
X005693Y012741D02*
X005696Y012741D01*
X005693Y012662D02*
X005696Y012662D01*
X005680Y012505D02*
X005644Y012505D01*
X005644Y012427D02*
X005654Y012427D01*
X005644Y012348D02*
X005654Y012348D01*
X005644Y012270D02*
X005680Y012270D01*
X005641Y012191D02*
X005734Y012191D01*
X005641Y012113D02*
X005865Y012113D01*
X005954Y012034D02*
X005641Y012034D01*
X005641Y011956D02*
X005954Y011956D01*
X005954Y011877D02*
X005641Y011877D01*
X005575Y011799D02*
X005954Y011799D01*
X006314Y011799D02*
X007077Y011799D01*
X007027Y011877D02*
X006314Y011877D01*
X006314Y011956D02*
X007004Y011956D01*
X007004Y012034D02*
X006314Y012034D01*
X006364Y012113D02*
X007033Y012113D01*
X007283Y011989D02*
X007283Y012398D01*
X007283Y012586D01*
X007434Y012737D01*
X007434Y012937D01*
X007196Y012819D02*
X007173Y012819D01*
X006697Y012270D02*
X006521Y012270D01*
X006443Y012191D02*
X006740Y012191D01*
X006619Y012348D02*
X006600Y012348D01*
X006254Y012512D02*
X006206Y012464D01*
X006172Y012546D01*
X006153Y012565D01*
X006173Y012584D01*
X006196Y012584D02*
X006254Y012526D01*
X006254Y012512D01*
X006248Y012505D02*
X006188Y012505D01*
X006173Y012662D02*
X006196Y012662D01*
X006196Y012741D02*
X006173Y012741D01*
X006173Y012819D02*
X006196Y012819D01*
X005934Y012937D02*
X005934Y012387D01*
X006314Y011720D02*
X007197Y011720D01*
X007284Y011987D02*
X007283Y011989D01*
X007934Y011687D02*
X007934Y012937D01*
X008173Y012898D02*
X008196Y012898D01*
X008196Y012976D02*
X008173Y012976D01*
X008173Y013055D02*
X008196Y013055D01*
X008196Y013133D02*
X008173Y013133D01*
X008173Y013212D02*
X008196Y013212D01*
X008196Y013290D02*
X008173Y013290D01*
X008198Y013369D02*
X008094Y013369D01*
X008234Y013587D02*
X006884Y013587D01*
X006684Y013387D01*
X008173Y012819D02*
X008196Y012819D01*
X008196Y012741D02*
X008173Y012741D01*
X008173Y012662D02*
X008196Y012662D01*
X008196Y012584D02*
X008254Y012526D01*
X008254Y012203D01*
X008197Y012146D01*
X008154Y012043D01*
X008154Y011932D01*
X008197Y011829D01*
X008276Y011750D01*
X008379Y011707D01*
X008490Y011707D01*
X008593Y011750D01*
X008672Y011829D01*
X008714Y011932D01*
X008714Y012043D01*
X008672Y012146D01*
X008614Y012203D01*
X008614Y012526D01*
X008673Y012584D01*
X008696Y012584D02*
X008754Y012526D01*
X008754Y011812D01*
X008091Y011149D01*
X008072Y011196D01*
X007993Y011275D01*
X007890Y011317D01*
X007819Y011317D01*
X008009Y011507D01*
X008114Y011613D01*
X008114Y012526D01*
X008173Y012584D01*
X008114Y012505D02*
X008254Y012505D01*
X008254Y012427D02*
X008114Y012427D01*
X008114Y012348D02*
X008254Y012348D01*
X008254Y012270D02*
X008114Y012270D01*
X008114Y012191D02*
X008242Y012191D01*
X008183Y012113D02*
X008114Y012113D01*
X008114Y012034D02*
X008154Y012034D01*
X008154Y011956D02*
X008114Y011956D01*
X008114Y011877D02*
X008177Y011877D01*
X008227Y011799D02*
X008114Y011799D01*
X008114Y011720D02*
X008347Y011720D01*
X008521Y011720D02*
X008663Y011720D01*
X008642Y011799D02*
X008741Y011799D01*
X008754Y011877D02*
X008692Y011877D01*
X008714Y011956D02*
X008754Y011956D01*
X008754Y012034D02*
X008714Y012034D01*
X008685Y012113D02*
X008754Y012113D01*
X008754Y012191D02*
X008626Y012191D01*
X008614Y012270D02*
X008754Y012270D01*
X008754Y012348D02*
X008614Y012348D01*
X008614Y012427D02*
X008754Y012427D01*
X008754Y012505D02*
X008614Y012505D01*
X008673Y012662D02*
X008696Y012662D01*
X008696Y012741D02*
X008673Y012741D01*
X008673Y012819D02*
X008696Y012819D01*
X008434Y012937D02*
X008434Y011987D01*
X008584Y011642D02*
X008114Y011642D01*
X008065Y011563D02*
X008506Y011563D01*
X008427Y011485D02*
X007986Y011485D01*
X007908Y011406D02*
X008349Y011406D01*
X008270Y011328D02*
X007829Y011328D01*
X008018Y011249D02*
X008192Y011249D01*
X008113Y011171D02*
X008082Y011171D01*
X007834Y011037D02*
X007684Y010887D01*
X007434Y010887D01*
X007283Y011039D01*
X007283Y011177D01*
X007283Y011339D01*
X007480Y011233D02*
X007934Y011687D01*
X007480Y011233D02*
X007480Y011177D01*
X007086Y011177D02*
X007086Y010986D01*
X007384Y010687D01*
X007861Y010229D02*
X009125Y010229D01*
X009046Y010307D02*
X008087Y010307D01*
X008166Y010386D02*
X009012Y010386D01*
X008983Y010464D02*
X008244Y010464D01*
X008323Y010543D02*
X008983Y010543D01*
X008984Y010621D02*
X008401Y010621D01*
X008480Y010700D02*
X009017Y010700D01*
X009057Y010778D02*
X008558Y010778D01*
X008637Y010857D02*
X009136Y010857D01*
X009295Y010935D02*
X008715Y010935D01*
X010247Y009993D02*
X011504Y009993D01*
X011504Y009915D02*
X010325Y009915D01*
X010404Y009836D02*
X011523Y009836D01*
X012119Y010229D02*
X013210Y010229D01*
X013167Y010150D02*
X014525Y010150D01*
X014954Y010307D02*
X019475Y010307D01*
X019553Y010386D02*
X014966Y010386D01*
X015034Y010464D02*
X019632Y010464D01*
X019334Y010687D02*
X019086Y010936D01*
X019086Y011177D01*
X019283Y011177D02*
X019283Y010989D01*
X019384Y010887D01*
X019634Y010887D01*
X019834Y011087D01*
X019484Y011182D02*
X019484Y011337D01*
X019834Y011687D01*
X019834Y012387D01*
X019283Y012039D02*
X019284Y012037D01*
X019134Y011487D02*
X018234Y011487D01*
X018193Y010935D02*
X015065Y010935D01*
X015034Y010857D02*
X018910Y010857D01*
X018989Y010778D02*
X015034Y010778D01*
X015034Y010700D02*
X019067Y010700D01*
X018775Y010935D02*
X018676Y010935D01*
X018889Y011177D02*
X018889Y011183D01*
X018884Y011187D01*
X019134Y011487D02*
X019283Y011339D01*
X019283Y011177D01*
X019480Y011177D02*
X019484Y011182D01*
X019480Y011177D02*
X019480Y011233D01*
X020556Y010229D02*
X022379Y010229D01*
X022379Y010307D02*
X020634Y010307D01*
X020713Y010386D02*
X022379Y010386D01*
X022379Y010464D02*
X020791Y010464D01*
X020870Y010543D02*
X022379Y010543D01*
X022379Y010621D02*
X020939Y010621D01*
X020971Y010700D02*
X022379Y010700D01*
X022379Y010778D02*
X020994Y010778D01*
X020994Y010857D02*
X022379Y010857D01*
X022379Y010935D02*
X020994Y010935D01*
X020994Y011014D02*
X022379Y011014D01*
X022379Y011092D02*
X021019Y011092D01*
X021098Y011171D02*
X022379Y011171D01*
X022379Y011249D02*
X021176Y011249D01*
X021255Y011328D02*
X022379Y011328D01*
X022379Y011406D02*
X021333Y011406D01*
X021412Y011485D02*
X022379Y011485D01*
X022379Y011563D02*
X021490Y011563D01*
X021569Y011642D02*
X022379Y011642D01*
X022379Y011720D02*
X021647Y011720D01*
X021726Y011799D02*
X022379Y011799D01*
X022379Y011877D02*
X021791Y011877D01*
X021824Y011956D02*
X022379Y011956D01*
X022379Y012034D02*
X021844Y012034D01*
X021844Y012113D02*
X022379Y012113D01*
X022379Y012191D02*
X021844Y012191D01*
X021844Y012270D02*
X022379Y012270D01*
X022379Y012348D02*
X021844Y012348D01*
X021844Y012427D02*
X022379Y012427D01*
X022379Y012505D02*
X021844Y012505D01*
X021844Y012584D02*
X022379Y012584D01*
X022379Y012662D02*
X021844Y012662D01*
X021844Y012741D02*
X022379Y012741D01*
X022379Y012819D02*
X021844Y012819D01*
X021844Y012898D02*
X022379Y012898D01*
X022379Y012976D02*
X021844Y012976D01*
X021844Y013055D02*
X022379Y013055D01*
X022379Y013133D02*
X021844Y013133D01*
X021844Y013212D02*
X022379Y013212D01*
X022379Y013290D02*
X021844Y013290D01*
X021844Y013369D02*
X022379Y013369D01*
X022379Y013447D02*
X021844Y013447D01*
X021844Y013526D02*
X022379Y013526D01*
X022379Y013604D02*
X021844Y013604D01*
X021844Y013683D02*
X022379Y013683D01*
X022379Y013761D02*
X021844Y013761D01*
X021844Y013840D02*
X022379Y013840D01*
X022379Y013918D02*
X021844Y013918D01*
X021844Y013997D02*
X022379Y013997D01*
X022379Y014075D02*
X021844Y014075D01*
X021844Y014154D02*
X022379Y014154D01*
X022379Y014232D02*
X021844Y014232D01*
X021844Y014311D02*
X022379Y014311D01*
X022379Y014389D02*
X021844Y014389D01*
X021844Y014468D02*
X022379Y014468D01*
X022379Y014546D02*
X021844Y014546D01*
X021844Y014625D02*
X022379Y014625D01*
X022379Y014703D02*
X021844Y014703D01*
X021844Y014782D02*
X022379Y014782D01*
X022379Y014860D02*
X021844Y014860D01*
X021844Y014939D02*
X022379Y014939D01*
X022379Y015017D02*
X021844Y015017D01*
X021833Y015096D02*
X022379Y015096D01*
X022379Y015174D02*
X021801Y015174D01*
X021749Y015253D02*
X022379Y015253D01*
X022379Y015331D02*
X021670Y015331D01*
X019734Y015887D02*
X019434Y016187D01*
X019434Y016737D01*
X017734Y015887D02*
X017434Y016187D01*
X017434Y016737D01*
X016696Y016744D02*
X015484Y016744D01*
X015484Y016666D02*
X016696Y016666D01*
X016696Y016587D02*
X015484Y016587D01*
X015484Y016509D02*
X016696Y016509D01*
X016695Y016430D02*
X015484Y016430D01*
X015553Y016352D02*
X016616Y016352D01*
X016696Y016823D02*
X015484Y016823D01*
X015484Y016901D02*
X016696Y016901D01*
X016696Y016980D02*
X015484Y016980D01*
X015484Y017058D02*
X016696Y017058D01*
X016734Y017137D02*
X015484Y017137D01*
X015484Y017215D02*
X016713Y017215D01*
X016657Y017294D02*
X015484Y017294D01*
X015484Y017372D02*
X016657Y017372D01*
X016657Y017451D02*
X015484Y017451D01*
X015484Y017529D02*
X016657Y017529D01*
X016657Y017608D02*
X015484Y017608D01*
X015484Y017686D02*
X016657Y017686D01*
X016719Y017765D02*
X015484Y017765D01*
X015484Y017843D02*
X017358Y017843D01*
X017436Y017922D02*
X015433Y017922D01*
X015354Y018000D02*
X017515Y018000D01*
X017593Y018079D02*
X015276Y018079D01*
X017150Y017765D02*
X017279Y017765D01*
X020094Y013369D02*
X020248Y013369D01*
X020196Y013290D02*
X020173Y013290D01*
X020173Y013212D02*
X020196Y013212D01*
X020196Y013133D02*
X020173Y013133D01*
X020173Y013055D02*
X020196Y013055D01*
X020196Y012976D02*
X020173Y012976D01*
X020173Y012898D02*
X020196Y012898D01*
X020477Y010150D02*
X022379Y010150D01*
X022379Y010072D02*
X020399Y010072D01*
X020320Y009993D02*
X022379Y009993D01*
X022379Y009915D02*
X020242Y009915D01*
X020194Y009836D02*
X022379Y009836D01*
X022379Y009758D02*
X020194Y009758D01*
X020194Y009679D02*
X022379Y009679D01*
X022379Y009601D02*
X022344Y009601D01*
X022368Y009577D02*
X022274Y009671D01*
X020994Y009671D01*
X020901Y009577D01*
X020901Y008297D01*
X020994Y008204D01*
X022274Y008204D01*
X022368Y008297D01*
X022368Y009577D01*
X022368Y009522D02*
X022379Y009522D01*
X022368Y009444D02*
X022379Y009444D01*
X022368Y009365D02*
X022379Y009365D01*
X022368Y009287D02*
X022379Y009287D01*
X022368Y009208D02*
X022379Y009208D01*
X022368Y009130D02*
X022379Y009130D01*
X022368Y009051D02*
X022379Y009051D01*
X022368Y008973D02*
X022379Y008973D01*
X022368Y008894D02*
X022379Y008894D01*
X022368Y008816D02*
X022379Y008816D01*
X022368Y008737D02*
X022379Y008737D01*
X022368Y008659D02*
X022379Y008659D01*
X022368Y008580D02*
X022379Y008580D01*
X022368Y008502D02*
X022379Y008502D01*
X022368Y008423D02*
X022379Y008423D01*
X022368Y008345D02*
X022379Y008345D01*
X022379Y008266D02*
X022337Y008266D01*
X022379Y008188D02*
X019844Y008188D01*
X019844Y008266D02*
X020932Y008266D01*
X020901Y008345D02*
X019844Y008345D01*
X019844Y008109D02*
X022379Y008109D01*
X022379Y008031D02*
X019844Y008031D01*
X019844Y007952D02*
X022379Y007952D01*
X022379Y007874D02*
X019844Y007874D01*
X019844Y007795D02*
X022379Y007795D01*
X022379Y007717D02*
X019844Y007717D01*
X019844Y007638D02*
X022379Y007638D01*
X022379Y007560D02*
X019872Y007560D01*
X019877Y007481D02*
X022379Y007481D01*
X022379Y007403D02*
X019877Y007403D01*
X019877Y007324D02*
X022379Y007324D01*
X022379Y007246D02*
X019877Y007246D01*
X019877Y007167D02*
X022379Y007167D01*
X022379Y007089D02*
X019877Y007089D01*
X019877Y007010D02*
X022379Y007010D01*
X022379Y006932D02*
X019877Y006932D01*
X019877Y006853D02*
X022379Y006853D01*
X022379Y006775D02*
X019877Y006775D01*
X019877Y006696D02*
X022379Y006696D01*
X022379Y006618D02*
X019877Y006618D01*
X019877Y006539D02*
X022379Y006539D01*
X022379Y006461D02*
X019877Y006461D01*
X019877Y006382D02*
X022379Y006382D01*
X022379Y006304D02*
X019861Y006304D01*
X018695Y007638D02*
X016814Y007638D01*
X016814Y007717D02*
X018774Y007717D01*
X018774Y007795D02*
X016793Y007795D01*
X016744Y007874D02*
X018774Y007874D01*
X018774Y007952D02*
X016626Y007952D01*
X016442Y007952D02*
X014262Y007952D01*
X014262Y007874D02*
X016325Y007874D01*
X016276Y007795D02*
X014262Y007795D01*
X014207Y007717D02*
X016254Y007717D01*
X016519Y007403D02*
X017774Y007403D01*
X017774Y007324D02*
X016440Y007324D01*
X016362Y007246D02*
X017774Y007246D01*
X017774Y007167D02*
X016283Y007167D01*
X016205Y007089D02*
X017774Y007089D01*
X017774Y007010D02*
X016135Y007010D01*
X016075Y006932D02*
X017774Y006932D01*
X017781Y007481D02*
X016724Y007481D01*
X016785Y007560D02*
X017860Y007560D01*
X018774Y008031D02*
X014262Y008031D01*
X014262Y008109D02*
X018774Y008109D01*
X018774Y008188D02*
X014262Y008188D01*
X014199Y008266D02*
X018774Y008266D01*
X020117Y008423D02*
X020901Y008423D01*
X020901Y008502D02*
X020194Y008502D01*
X020194Y008580D02*
X020901Y008580D01*
X020901Y008659D02*
X020194Y008659D01*
X020194Y008737D02*
X020901Y008737D01*
X020901Y008816D02*
X020194Y008816D01*
X020194Y008894D02*
X020901Y008894D01*
X020901Y008973D02*
X020194Y008973D01*
X020194Y009051D02*
X020901Y009051D01*
X020901Y009130D02*
X020194Y009130D01*
X020194Y009208D02*
X020901Y009208D01*
X020901Y009287D02*
X020194Y009287D01*
X020194Y009365D02*
X020901Y009365D01*
X020901Y009444D02*
X020194Y009444D01*
X020194Y009522D02*
X020901Y009522D01*
X020924Y009601D02*
X020194Y009601D01*
X016606Y008737D02*
X013903Y008737D01*
X013699Y009444D02*
X014296Y009444D01*
X014772Y009130D02*
X016490Y009130D01*
X014634Y010700D02*
X014151Y010700D01*
X014073Y010621D02*
X014522Y010621D01*
X014634Y010778D02*
X014230Y010778D01*
X014308Y010857D02*
X014634Y010857D01*
X014634Y010935D02*
X014387Y010935D01*
X014465Y011014D02*
X014634Y011014D01*
X014657Y011092D02*
X014544Y011092D01*
X014622Y011171D02*
X014735Y011171D01*
X014701Y011249D02*
X014814Y011249D01*
X014834Y011270D02*
X014834Y011270D01*
X014779Y011328D02*
X014892Y011328D01*
X013934Y011687D02*
X013934Y012937D01*
X013696Y012898D02*
X013673Y012898D01*
X013673Y012976D02*
X013696Y012976D01*
X013696Y013055D02*
X013673Y013055D01*
X013673Y013133D02*
X013696Y013133D01*
X013696Y013212D02*
X013673Y013212D01*
X013673Y013290D02*
X013696Y013290D01*
X013774Y013369D02*
X013594Y013369D01*
X013274Y013369D02*
X013094Y013369D01*
X013173Y013290D02*
X013196Y013290D01*
X013196Y013212D02*
X013173Y013212D01*
X013173Y013133D02*
X013196Y013133D01*
X013196Y013055D02*
X013173Y013055D01*
X013173Y012976D02*
X013196Y012976D01*
X013196Y012898D02*
X013173Y012898D01*
X013173Y012819D02*
X013196Y012819D01*
X013283Y012586D02*
X013434Y012737D01*
X013434Y012937D01*
X013673Y012819D02*
X013696Y012819D01*
X013696Y012741D02*
X013673Y012741D01*
X013673Y012662D02*
X013696Y012662D01*
X013696Y012584D02*
X013754Y012526D01*
X013754Y011762D01*
X013434Y011442D01*
X013314Y011562D01*
X013209Y011667D01*
X012314Y011667D01*
X012314Y012063D01*
X012509Y012257D01*
X012609Y012358D01*
X012700Y012267D01*
X012700Y012231D01*
X012782Y012149D01*
X013050Y012149D01*
X013047Y012146D01*
X013004Y012043D01*
X013004Y011932D01*
X013047Y011829D01*
X013126Y011750D01*
X013229Y011707D01*
X013340Y011707D01*
X013443Y011750D01*
X013522Y011829D01*
X013564Y011932D01*
X013564Y012043D01*
X013522Y012146D01*
X013463Y012205D01*
X013463Y012222D01*
X013472Y012231D01*
X013472Y012502D01*
X013591Y012502D01*
X013673Y012584D01*
X013594Y012505D02*
X013754Y012505D01*
X013754Y012427D02*
X013472Y012427D01*
X013472Y012348D02*
X013754Y012348D01*
X013754Y012270D02*
X013472Y012270D01*
X013476Y012191D02*
X013754Y012191D01*
X013754Y012113D02*
X013535Y012113D01*
X013564Y012034D02*
X013754Y012034D01*
X013754Y011956D02*
X013564Y011956D01*
X013542Y011877D02*
X013754Y011877D01*
X013754Y011799D02*
X013492Y011799D01*
X013371Y011720D02*
X013713Y011720D01*
X013634Y011642D02*
X013234Y011642D01*
X013197Y011720D02*
X012314Y011720D01*
X012314Y011799D02*
X013077Y011799D01*
X013027Y011877D02*
X012314Y011877D01*
X012314Y011956D02*
X013004Y011956D01*
X013004Y012034D02*
X012314Y012034D01*
X012364Y012113D02*
X013033Y012113D01*
X013283Y011989D02*
X013283Y012398D01*
X013283Y012586D01*
X013086Y012586D02*
X013086Y012398D01*
X013086Y012586D02*
X012934Y012737D01*
X012934Y012937D01*
X012684Y012537D02*
X012684Y013437D01*
X012834Y013587D01*
X012196Y012819D02*
X012173Y012819D01*
X012173Y012741D02*
X012196Y012741D01*
X012196Y012662D02*
X012173Y012662D01*
X012173Y012584D02*
X012153Y012565D01*
X012172Y012546D01*
X012206Y012464D01*
X012254Y012512D01*
X012254Y012526D01*
X012196Y012584D01*
X012188Y012505D02*
X012248Y012505D01*
X012521Y012270D02*
X012697Y012270D01*
X012740Y012191D02*
X012443Y012191D01*
X012600Y012348D02*
X012619Y012348D01*
X012784Y012437D02*
X012889Y012437D01*
X012889Y012398D01*
X012784Y012437D02*
X012684Y012537D01*
X013283Y011989D02*
X013284Y011987D01*
X013313Y011563D02*
X013556Y011563D01*
X013477Y011485D02*
X013391Y011485D01*
X013480Y011233D02*
X013934Y011687D01*
X013480Y011233D02*
X013480Y011177D01*
X012896Y010543D02*
X012162Y010543D01*
X012162Y010621D02*
X012817Y010621D01*
X012739Y010700D02*
X012162Y010700D01*
X012087Y010778D02*
X012689Y010778D01*
X012445Y011177D02*
X012434Y011187D01*
X012162Y010464D02*
X012974Y010464D01*
X013053Y010386D02*
X012162Y010386D01*
X012162Y010307D02*
X013131Y010307D01*
X012801Y010150D02*
X012767Y010150D01*
X012401Y010150D02*
X012367Y010150D01*
X010745Y008266D02*
X009539Y008266D01*
X009660Y008345D02*
X010158Y008345D01*
X010080Y008423D02*
X009731Y008423D01*
X009763Y008502D02*
X010001Y008502D01*
X009923Y008580D02*
X009786Y008580D01*
X009786Y008659D02*
X009844Y008659D01*
X009230Y008266D02*
X007614Y008266D01*
X007630Y008345D02*
X009109Y008345D01*
X009038Y008423D02*
X007630Y008423D01*
X007630Y008502D02*
X009006Y008502D01*
X008983Y008580D02*
X007630Y008580D01*
X007630Y008659D02*
X008983Y008659D01*
X008991Y008737D02*
X007630Y008737D01*
X007607Y008816D02*
X009023Y008816D01*
X009073Y008894D02*
X006062Y008894D01*
X006062Y008816D02*
X006862Y008816D01*
X006838Y008737D02*
X006028Y008737D01*
X005578Y008659D02*
X004534Y008659D01*
X004534Y008737D02*
X005541Y008737D01*
X005507Y008816D02*
X004534Y008816D01*
X004534Y008894D02*
X005507Y008894D01*
X005507Y008973D02*
X004534Y008973D01*
X004534Y009051D02*
X005507Y009051D01*
X005507Y009130D02*
X004534Y009130D01*
X004534Y009208D02*
X005495Y009208D01*
X005416Y009287D02*
X004534Y009287D01*
X004534Y009365D02*
X005338Y009365D01*
X005259Y009444D02*
X004534Y009444D01*
X004534Y009522D02*
X005181Y009522D01*
X005102Y009601D02*
X004534Y009601D01*
X004534Y009679D02*
X004925Y009679D01*
X004818Y009758D02*
X004534Y009758D01*
X004534Y009836D02*
X004773Y009836D01*
X004754Y009915D02*
X004534Y009915D01*
X004534Y009993D02*
X004754Y009993D01*
X004787Y010072D02*
X004534Y010072D01*
X004534Y010150D02*
X004851Y010150D01*
X004534Y010229D02*
X006457Y010229D01*
X006251Y010150D02*
X005917Y010150D01*
X005982Y010072D02*
X006187Y010072D01*
X006154Y009993D02*
X006014Y009993D01*
X006025Y009915D02*
X006154Y009915D01*
X006173Y009836D02*
X006104Y009836D01*
X005802Y009601D02*
X005639Y009601D01*
X005625Y009679D02*
X005561Y009679D01*
X005518Y009758D02*
X005482Y009758D01*
X005473Y009836D02*
X005404Y009836D01*
X005454Y009915D02*
X005325Y009915D01*
X005314Y009993D02*
X005454Y009993D01*
X005487Y010072D02*
X005282Y010072D01*
X005217Y010150D02*
X005551Y010150D01*
X005718Y009522D02*
X005881Y009522D01*
X005796Y009444D02*
X006741Y009444D01*
X006810Y009365D02*
X005875Y009365D01*
X005813Y009427D02*
X005813Y009427D01*
X005924Y009287D02*
X007016Y009287D01*
X006838Y008659D02*
X006791Y008659D01*
X006274Y007481D02*
X006049Y007481D01*
X006049Y007403D02*
X006274Y007403D01*
X006274Y007324D02*
X006049Y007324D01*
X006049Y007246D02*
X006274Y007246D01*
X006274Y007167D02*
X006049Y007167D01*
X006016Y007089D02*
X006294Y007089D01*
X005572Y008345D02*
X005530Y008345D01*
X005499Y008423D02*
X005572Y008423D01*
X005572Y008502D02*
X004653Y008502D01*
X004711Y008423D02*
X004770Y008423D01*
X004534Y008580D02*
X005572Y008580D01*
X004747Y007874D02*
X004690Y007874D01*
X004019Y007874D02*
X003845Y007874D01*
X003923Y007952D02*
X003998Y007952D01*
X004044Y008502D02*
X004056Y008502D01*
X004134Y008580D02*
X003965Y008580D01*
X003887Y008659D02*
X004134Y008659D01*
X004134Y008737D02*
X003808Y008737D01*
X003782Y008811D02*
X004061Y009090D01*
X004061Y009485D01*
X003782Y009764D01*
X003387Y009764D01*
X003108Y009485D01*
X003108Y009090D01*
X003387Y008811D01*
X003782Y008811D01*
X003787Y008816D02*
X004134Y008816D01*
X004134Y008894D02*
X003865Y008894D01*
X003944Y008973D02*
X004134Y008973D01*
X004134Y009051D02*
X004022Y009051D01*
X004061Y009130D02*
X004134Y009130D01*
X004134Y009208D02*
X004061Y009208D01*
X004061Y009287D02*
X004134Y009287D01*
X004134Y009365D02*
X004061Y009365D01*
X004061Y009444D02*
X004134Y009444D01*
X004134Y009522D02*
X004023Y009522D01*
X003945Y009601D02*
X004134Y009601D01*
X004134Y009679D02*
X003866Y009679D01*
X003788Y009758D02*
X004134Y009758D01*
X004134Y009836D02*
X002974Y009836D01*
X002974Y009758D02*
X003381Y009758D01*
X003302Y009679D02*
X002974Y009679D01*
X002974Y009601D02*
X003224Y009601D01*
X003145Y009522D02*
X002974Y009522D01*
X002974Y009444D02*
X003108Y009444D01*
X003108Y009365D02*
X002974Y009365D01*
X002974Y009287D02*
X003108Y009287D01*
X003108Y009208D02*
X002974Y009208D01*
X002974Y009130D02*
X003108Y009130D01*
X003146Y009051D02*
X002974Y009051D01*
X002974Y008973D02*
X003225Y008973D01*
X003303Y008894D02*
X002974Y008894D01*
X002974Y008816D02*
X003382Y008816D01*
X003360Y008737D02*
X002974Y008737D01*
X002974Y008659D02*
X003282Y008659D01*
X003203Y008580D02*
X002974Y008580D01*
X002974Y008502D02*
X003125Y008502D01*
X003108Y008423D02*
X002974Y008423D01*
X002974Y008345D02*
X003108Y008345D01*
X003108Y008266D02*
X002974Y008266D01*
X002974Y008188D02*
X003108Y008188D01*
X003108Y008109D02*
X002974Y008109D01*
X002974Y008031D02*
X003167Y008031D01*
X003245Y007952D02*
X002974Y007952D01*
X002974Y007874D02*
X003324Y007874D01*
X002974Y009915D02*
X004134Y009915D01*
X004134Y009993D02*
X002974Y009993D01*
X002974Y010072D02*
X004134Y010072D01*
X004134Y010150D02*
X002974Y010150D01*
X002974Y010229D02*
X004134Y010229D01*
X004134Y010307D02*
X002974Y010307D01*
X002974Y010386D02*
X004134Y010386D01*
X004134Y010464D02*
X002974Y010464D01*
X002974Y010543D02*
X004134Y010543D01*
X004134Y010621D02*
X002974Y010621D01*
X002974Y010700D02*
X004134Y010700D01*
X004134Y010778D02*
X002974Y010778D01*
X002974Y010857D02*
X003341Y010857D01*
X003387Y010811D02*
X003782Y010811D01*
X004061Y011090D01*
X004061Y011485D01*
X003782Y011764D01*
X003387Y011764D01*
X003108Y011485D01*
X002974Y011485D01*
X002974Y011563D02*
X003186Y011563D01*
X003108Y011485D02*
X003108Y011090D01*
X003387Y010811D01*
X003262Y010935D02*
X002974Y010935D01*
X002974Y011014D02*
X003184Y011014D01*
X003108Y011092D02*
X002974Y011092D01*
X002974Y011171D02*
X003108Y011171D01*
X003108Y011249D02*
X002974Y011249D01*
X002974Y011328D02*
X003108Y011328D01*
X003108Y011406D02*
X002974Y011406D01*
X002974Y011642D02*
X003265Y011642D01*
X003343Y011720D02*
X002974Y011720D01*
X002974Y011799D02*
X003934Y011799D01*
X003934Y011877D02*
X003848Y011877D01*
X003927Y011956D02*
X003934Y011956D01*
X003934Y011720D02*
X003825Y011720D01*
X003904Y011642D02*
X003997Y011642D01*
X003982Y011563D02*
X004075Y011563D01*
X004061Y011485D02*
X004134Y011485D01*
X004134Y011406D02*
X004061Y011406D01*
X004061Y011328D02*
X004134Y011328D01*
X004134Y011249D02*
X004061Y011249D01*
X004061Y011171D02*
X004134Y011171D01*
X004134Y011092D02*
X004061Y011092D01*
X004134Y011014D02*
X003985Y011014D01*
X003906Y010935D02*
X004134Y010935D01*
X004134Y010857D02*
X003828Y010857D01*
X003320Y011877D02*
X002974Y011877D01*
X002974Y011956D02*
X003242Y011956D01*
X003163Y012034D02*
X002974Y012034D01*
X002974Y012113D02*
X003108Y012113D01*
X003108Y012191D02*
X002974Y012191D01*
X002974Y012270D02*
X003108Y012270D01*
X003108Y012348D02*
X002974Y012348D01*
X002974Y012427D02*
X003108Y012427D01*
X003128Y012505D02*
X002974Y012505D01*
X002974Y012584D02*
X003207Y012584D01*
X003285Y012662D02*
X002974Y012662D01*
X002974Y012741D02*
X003364Y012741D01*
X003491Y012898D02*
X002974Y012898D01*
X002974Y012976D02*
X003412Y012976D01*
X003569Y012819D02*
X002974Y012819D01*
X002974Y013212D02*
X003334Y013212D01*
X003334Y013290D02*
X002974Y013290D01*
X002974Y013369D02*
X003307Y013369D01*
X003269Y013447D02*
X002974Y013447D01*
X002974Y013526D02*
X003254Y013526D01*
X003259Y013604D02*
X002974Y013604D01*
X002974Y013683D02*
X003292Y013683D01*
X003362Y013761D02*
X002974Y013761D01*
X004222Y014468D02*
X004741Y014468D01*
X004673Y014389D02*
X004301Y014389D01*
X004379Y014311D02*
X004640Y014311D01*
X004634Y014232D02*
X004458Y014232D01*
X004536Y014154D02*
X004644Y014154D01*
X004615Y014075D02*
X004677Y014075D01*
X004624Y013997D02*
X004751Y013997D01*
X004624Y013918D02*
X004956Y013918D01*
X004862Y013840D02*
X004624Y013840D01*
X004624Y013761D02*
X004762Y013761D01*
X004721Y013683D02*
X004624Y013683D01*
X004624Y013604D02*
X004704Y013604D01*
X004707Y013526D02*
X004624Y013526D01*
X004624Y013447D02*
X004739Y013447D01*
X004754Y013369D02*
X004624Y013369D01*
X004673Y013290D02*
X004696Y013290D01*
X004696Y013212D02*
X004673Y013212D01*
X004673Y013133D02*
X004696Y013133D01*
X004696Y013055D02*
X004673Y013055D01*
X004673Y012976D02*
X004696Y012976D01*
X004696Y012898D02*
X004673Y012898D01*
X004934Y012937D02*
X004934Y013537D01*
X004984Y013587D01*
X008234Y013587D02*
X008434Y013387D01*
X008434Y012937D01*
X008550Y013526D02*
X010244Y013526D01*
X010244Y013604D02*
X008472Y013604D01*
X008393Y013683D02*
X010244Y013683D01*
X010244Y013761D02*
X008315Y013761D01*
X011376Y007560D02*
X011973Y007560D01*
X012096Y007560D02*
X012244Y007560D01*
X012244Y007481D02*
X011297Y007481D01*
X011264Y007403D02*
X012244Y007403D01*
X012244Y007324D02*
X011241Y007324D01*
X011189Y007246D02*
X012244Y007246D01*
X012244Y007167D02*
X011064Y007167D01*
X010904Y007167D02*
X008333Y007167D01*
X008255Y007089D02*
X008468Y007089D01*
X008390Y007010D02*
X008176Y007010D01*
X008098Y006932D02*
X008311Y006932D01*
X008233Y006853D02*
X008019Y006853D01*
X007941Y006775D02*
X008154Y006775D01*
X008076Y006696D02*
X007862Y006696D01*
X007784Y006618D02*
X007969Y006618D01*
X007894Y006539D02*
X007724Y006539D01*
X007724Y006461D02*
X007862Y006461D01*
X007854Y006382D02*
X007724Y006382D01*
X007724Y006304D02*
X007866Y006304D01*
X007874Y006225D02*
X007724Y006225D01*
X007724Y006147D02*
X007874Y006147D01*
X007874Y006068D02*
X007724Y006068D01*
X007724Y005990D02*
X007874Y005990D01*
X007854Y005911D02*
X007724Y005911D01*
X007724Y005833D02*
X007854Y005833D01*
X007886Y005754D02*
X007763Y005754D01*
X006864Y004812D02*
X009124Y004812D01*
X009124Y004734D02*
X006799Y004734D01*
X006720Y004655D02*
X009124Y004655D01*
X009124Y004577D02*
X006642Y004577D01*
X006563Y004498D02*
X009124Y004498D01*
X009124Y004420D02*
X006485Y004420D01*
X006514Y004341D02*
X006406Y004341D01*
X006436Y004263D02*
X006328Y004263D01*
X006357Y004184D02*
X006249Y004184D01*
X006308Y004135D02*
X006308Y003740D01*
X006587Y003461D01*
X006982Y003461D01*
X007261Y003740D01*
X007261Y004135D01*
X006982Y004414D01*
X006587Y004414D01*
X006308Y004135D01*
X006308Y004106D02*
X006171Y004106D01*
X006092Y004027D02*
X006308Y004027D01*
X006308Y003949D02*
X006014Y003949D01*
X005935Y003870D02*
X006308Y003870D01*
X006308Y003792D02*
X005894Y003792D01*
X005894Y003713D02*
X006334Y003713D01*
X006413Y003635D02*
X005894Y003635D01*
X005894Y003556D02*
X006491Y003556D01*
X006570Y003478D02*
X005894Y003478D01*
X005894Y003399D02*
X006572Y003399D01*
X006494Y003321D02*
X005894Y003321D01*
X005894Y003242D02*
X006415Y003242D01*
X006996Y003399D02*
X007572Y003399D01*
X007587Y003461D02*
X007982Y003461D01*
X008261Y003740D01*
X008261Y004135D01*
X007982Y004414D01*
X007587Y004414D01*
X007308Y004135D01*
X007308Y003740D01*
X007587Y003461D01*
X007570Y003478D02*
X006999Y003478D01*
X007077Y003556D02*
X007491Y003556D01*
X007413Y003635D02*
X007156Y003635D01*
X007234Y003713D02*
X007334Y003713D01*
X007308Y003792D02*
X007261Y003792D01*
X007261Y003870D02*
X007308Y003870D01*
X007308Y003949D02*
X007261Y003949D01*
X007261Y004027D02*
X007308Y004027D01*
X007308Y004106D02*
X007261Y004106D01*
X007211Y004184D02*
X007357Y004184D01*
X007436Y004263D02*
X007133Y004263D01*
X007054Y004341D02*
X007514Y004341D01*
X008054Y004341D02*
X008514Y004341D01*
X008436Y004263D02*
X008133Y004263D01*
X008211Y004184D02*
X008357Y004184D01*
X008308Y004106D02*
X008261Y004106D01*
X008261Y004027D02*
X008308Y004027D01*
X008308Y003949D02*
X008261Y003949D01*
X008261Y003870D02*
X008308Y003870D01*
X008308Y003792D02*
X008261Y003792D01*
X008234Y003713D02*
X008334Y003713D01*
X008413Y003635D02*
X008156Y003635D01*
X008077Y003556D02*
X008491Y003556D01*
X008570Y003478D02*
X007999Y003478D01*
X007996Y003399D02*
X008572Y003399D01*
X008494Y003321D02*
X008075Y003321D01*
X008153Y003242D02*
X008415Y003242D01*
X008433Y002614D02*
X008135Y002614D01*
X008057Y002536D02*
X008512Y002536D01*
X009057Y002536D02*
X009215Y002536D01*
X009153Y002457D02*
X005894Y002457D01*
X005894Y002379D02*
X009124Y002379D01*
X009124Y002300D02*
X005894Y002300D01*
X005894Y002222D02*
X009124Y002222D01*
X009124Y002143D02*
X005896Y002143D01*
X005975Y002065D02*
X009124Y002065D01*
X009124Y001986D02*
X006053Y001986D01*
X006132Y001908D02*
X009124Y001908D01*
X009109Y001829D02*
X006210Y001829D01*
X006289Y001751D02*
X009030Y001751D01*
X008952Y001672D02*
X006367Y001672D01*
X006512Y002536D02*
X005894Y002536D01*
X005894Y002614D02*
X006433Y002614D01*
X007057Y002536D02*
X007512Y002536D01*
X007433Y002614D02*
X007135Y002614D01*
X007153Y003242D02*
X007415Y003242D01*
X007494Y003321D02*
X007075Y003321D01*
X005906Y004577D02*
X004799Y004577D01*
X004854Y004498D02*
X005828Y004498D01*
X005749Y004420D02*
X004882Y004420D01*
X004882Y004341D02*
X005671Y004341D01*
X005592Y004263D02*
X004861Y004263D01*
X004818Y004184D02*
X005514Y004184D01*
X003419Y002928D02*
X002974Y002928D01*
X002974Y002850D02*
X003264Y002850D01*
X003128Y002771D02*
X002974Y002771D01*
X002974Y002693D02*
X003050Y002693D01*
X004581Y001044D02*
X020772Y001044D01*
X019132Y001515D02*
X018636Y001515D01*
X018715Y001594D02*
X019054Y001594D01*
X018975Y001672D02*
X018793Y001672D01*
X018861Y001751D02*
X018908Y001751D01*
X018908Y001829D02*
X018861Y001829D01*
X018861Y001908D02*
X018908Y001908D01*
X018908Y001986D02*
X018861Y001986D01*
X018861Y002065D02*
X018908Y002065D01*
X018910Y002143D02*
X018852Y002143D01*
X018831Y002222D02*
X018774Y002222D01*
X018753Y002300D02*
X018695Y002300D01*
X018674Y002379D02*
X018617Y002379D01*
X018596Y002457D02*
X018133Y002457D01*
X018055Y002536D02*
X018517Y002536D01*
X018439Y002614D02*
X017976Y002614D01*
X017898Y002693D02*
X018360Y002693D01*
X018282Y002771D02*
X017819Y002771D01*
X017774Y002850D02*
X018203Y002850D01*
X018125Y002928D02*
X017774Y002928D01*
X017774Y003007D02*
X018046Y003007D01*
X017968Y003085D02*
X017774Y003085D01*
X017774Y003164D02*
X017944Y003164D01*
X017944Y003242D02*
X017774Y003242D01*
X017774Y003321D02*
X017944Y003321D01*
X017944Y003399D02*
X017774Y003399D01*
X017774Y003478D02*
X017944Y003478D01*
X017944Y003556D02*
X017774Y003556D01*
X017774Y003635D02*
X017944Y003635D01*
X017944Y003713D02*
X017774Y003713D01*
X017774Y003792D02*
X017944Y003792D01*
X017944Y003870D02*
X017774Y003870D01*
X017774Y003949D02*
X017944Y003949D01*
X017944Y004027D02*
X017763Y004027D01*
X017685Y004106D02*
X017944Y004106D01*
X017869Y004184D02*
X017606Y004184D01*
X017528Y004263D02*
X017790Y004263D01*
X017712Y004341D02*
X017449Y004341D01*
X017371Y004420D02*
X017633Y004420D01*
X017555Y004498D02*
X017292Y004498D01*
X017214Y004577D02*
X017476Y004577D01*
X017398Y004655D02*
X015685Y004655D01*
X015607Y004734D02*
X017319Y004734D01*
X017241Y004812D02*
X015528Y004812D01*
X015450Y004891D02*
X015812Y004891D01*
X015744Y004959D02*
X015744Y004959D01*
X014556Y006147D01*
X014478Y005676D02*
X013709Y005676D01*
X013709Y005597D02*
X014398Y005597D01*
X014365Y005519D02*
X013709Y005519D01*
X013709Y005440D02*
X014354Y005440D01*
X014363Y005362D02*
X013709Y005362D01*
X014256Y005283D02*
X014395Y005283D01*
X014406Y005205D02*
X014334Y005205D01*
X014305Y005235D02*
X014305Y005235D01*
X013879Y004341D02*
X013454Y004341D01*
X013382Y004414D02*
X012987Y004414D01*
X012708Y004135D01*
X012708Y003740D01*
X012987Y003461D01*
X013382Y003461D01*
X013661Y003740D01*
X013661Y004135D01*
X013382Y004414D01*
X013533Y004263D02*
X013957Y004263D01*
X013957Y004184D02*
X013611Y004184D01*
X013661Y004106D02*
X013908Y004106D01*
X013908Y004027D02*
X013661Y004027D01*
X013661Y003949D02*
X013908Y003949D01*
X013908Y003870D02*
X013661Y003870D01*
X013661Y003792D02*
X013908Y003792D01*
X013934Y003713D02*
X013634Y003713D01*
X013556Y003635D02*
X014013Y003635D01*
X014091Y003556D02*
X013477Y003556D01*
X013399Y003478D02*
X014170Y003478D01*
X014172Y003399D02*
X013396Y003399D01*
X012972Y003399D02*
X012396Y003399D01*
X012399Y003478D02*
X012970Y003478D01*
X012891Y003556D02*
X012477Y003556D01*
X012556Y003635D02*
X012813Y003635D01*
X012734Y003713D02*
X012634Y003713D01*
X012661Y003792D02*
X012708Y003792D01*
X012708Y003870D02*
X012661Y003870D01*
X012661Y003949D02*
X012708Y003949D01*
X012708Y004027D02*
X012661Y004027D01*
X012661Y004106D02*
X012708Y004106D01*
X012757Y004184D02*
X012611Y004184D01*
X012533Y004263D02*
X012836Y004263D01*
X012914Y004341D02*
X012454Y004341D01*
X011914Y004341D02*
X011774Y004341D01*
X011774Y004263D02*
X011836Y004263D01*
X011394Y004263D02*
X011333Y004263D01*
X011394Y004341D02*
X011254Y004341D01*
X011383Y004420D02*
X009644Y004420D01*
X009644Y004498D02*
X010942Y004498D01*
X010878Y004577D02*
X009644Y004577D01*
X009644Y004655D02*
X010878Y004655D01*
X010878Y004734D02*
X009644Y004734D01*
X009644Y004812D02*
X010878Y004812D01*
X010878Y004891D02*
X009644Y004891D01*
X009644Y004969D02*
X010878Y004969D01*
X010878Y005048D02*
X009644Y005048D01*
X009644Y005126D02*
X010892Y005126D01*
X010714Y004341D02*
X010254Y004341D01*
X010333Y004263D02*
X010636Y004263D01*
X010557Y004184D02*
X010411Y004184D01*
X010461Y004106D02*
X010508Y004106D01*
X010508Y004027D02*
X010461Y004027D01*
X010461Y003949D02*
X010508Y003949D01*
X010508Y003870D02*
X010461Y003870D01*
X010461Y003792D02*
X010508Y003792D01*
X010534Y003713D02*
X010434Y003713D01*
X010356Y003635D02*
X010613Y003635D01*
X010691Y003556D02*
X010277Y003556D01*
X010199Y003478D02*
X010770Y003478D01*
X010772Y003399D02*
X010196Y003399D01*
X009772Y003399D02*
X009609Y003399D01*
X009641Y003478D02*
X009770Y003478D01*
X009691Y003556D02*
X009644Y003556D01*
X009694Y003321D02*
X009536Y003321D01*
X009457Y003242D02*
X009615Y003242D01*
X009537Y003164D02*
X009379Y003164D01*
X009300Y003085D02*
X009508Y003085D01*
X009508Y003007D02*
X009261Y003007D01*
X009261Y002928D02*
X009508Y002928D01*
X009508Y002850D02*
X009261Y002850D01*
X009261Y002771D02*
X009451Y002771D01*
X009372Y002693D02*
X009214Y002693D01*
X009135Y002614D02*
X009294Y002614D01*
X009715Y002300D02*
X015073Y002300D01*
X014995Y002222D02*
X009644Y002222D01*
X009644Y002143D02*
X014916Y002143D01*
X014908Y002065D02*
X009644Y002065D01*
X009644Y001986D02*
X014908Y001986D01*
X014908Y001908D02*
X009644Y001908D01*
X009644Y001829D02*
X014908Y001829D01*
X014908Y001751D02*
X009644Y001751D01*
X009639Y001672D02*
X014975Y001672D01*
X015054Y001594D02*
X009606Y001594D01*
X009530Y001515D02*
X015132Y001515D01*
X015636Y001515D02*
X017132Y001515D01*
X017054Y001594D02*
X015715Y001594D01*
X015793Y001672D02*
X016975Y001672D01*
X016908Y001751D02*
X015861Y001751D01*
X015861Y001829D02*
X016908Y001829D01*
X016908Y001908D02*
X015861Y001908D01*
X015861Y001986D02*
X016908Y001986D01*
X016908Y002065D02*
X015880Y002065D01*
X015958Y002143D02*
X016916Y002143D01*
X016995Y002222D02*
X016037Y002222D01*
X016115Y002300D02*
X017073Y002300D01*
X017152Y002379D02*
X016194Y002379D01*
X016272Y002457D02*
X017194Y002457D01*
X017194Y002536D02*
X016351Y002536D01*
X016429Y002614D02*
X017194Y002614D01*
X017194Y002693D02*
X016508Y002693D01*
X016586Y002771D02*
X017194Y002771D01*
X017194Y002850D02*
X016629Y002850D01*
X016644Y002928D02*
X017194Y002928D01*
X017194Y003007D02*
X016644Y003007D01*
X016644Y003085D02*
X017194Y003085D01*
X017194Y003164D02*
X016644Y003164D01*
X016644Y003242D02*
X017194Y003242D01*
X017194Y003321D02*
X016644Y003321D01*
X016644Y003399D02*
X017194Y003399D01*
X017194Y003478D02*
X016644Y003478D01*
X016644Y003556D02*
X017194Y003556D01*
X017194Y003635D02*
X017006Y003635D01*
X017106Y003713D02*
X017194Y003713D01*
X017161Y003792D02*
X017148Y003792D01*
X016124Y003556D02*
X014677Y003556D01*
X014599Y003478D02*
X016124Y003478D01*
X016124Y003399D02*
X014596Y003399D01*
X014675Y003321D02*
X016124Y003321D01*
X016124Y003242D02*
X014753Y003242D01*
X014832Y003164D02*
X016124Y003164D01*
X016124Y003085D02*
X014861Y003085D01*
X014861Y003007D02*
X016086Y003007D01*
X016008Y002928D02*
X014861Y002928D01*
X014861Y002850D02*
X015929Y002850D01*
X015851Y002771D02*
X014861Y002771D01*
X014814Y002693D02*
X015772Y002693D01*
X015694Y002614D02*
X014735Y002614D01*
X014657Y002536D02*
X015615Y002536D01*
X015537Y002457D02*
X009872Y002457D01*
X009794Y002379D02*
X015152Y002379D01*
X014112Y002536D02*
X013457Y002536D01*
X012912Y002536D02*
X012457Y002536D01*
X011912Y002536D02*
X011257Y002536D01*
X010712Y002536D02*
X010257Y002536D01*
X011196Y003399D02*
X011394Y003399D01*
X011394Y003478D02*
X011199Y003478D01*
X011277Y003556D02*
X011394Y003556D01*
X011394Y003635D02*
X011356Y003635D01*
X011774Y003635D02*
X011813Y003635D01*
X011774Y003556D02*
X011891Y003556D01*
X011970Y003478D02*
X011774Y003478D01*
X011774Y003399D02*
X011972Y003399D01*
X012749Y005205D02*
X009644Y005205D01*
X009644Y005283D02*
X012671Y005283D01*
X012137Y005911D02*
X011578Y005911D01*
X011499Y005990D02*
X012137Y005990D01*
X012137Y006068D02*
X011421Y006068D01*
X011342Y006147D02*
X012137Y006147D01*
X012137Y006225D02*
X011264Y006225D01*
X011185Y006304D02*
X012158Y006304D01*
X012168Y006461D02*
X011028Y006461D01*
X010950Y006539D02*
X012137Y006539D01*
X012137Y006618D02*
X010871Y006618D01*
X010793Y006696D02*
X012137Y006696D01*
X012137Y006775D02*
X010714Y006775D01*
X010636Y006853D02*
X012137Y006853D01*
X012186Y006932D02*
X010557Y006932D01*
X010479Y007010D02*
X012244Y007010D01*
X012244Y007089D02*
X010400Y007089D01*
X010562Y007246D02*
X010780Y007246D01*
X010728Y007324D02*
X010640Y007324D01*
X011107Y006382D02*
X013621Y006382D01*
X013542Y006461D02*
X012701Y006461D01*
X012732Y006539D02*
X013464Y006539D01*
X013385Y006618D02*
X012732Y006618D01*
X012732Y006696D02*
X013307Y006696D01*
X013228Y006775D02*
X012732Y006775D01*
X012732Y006853D02*
X012850Y006853D01*
X012771Y006932D02*
X012683Y006932D01*
X012693Y007010D02*
X012624Y007010D01*
X012624Y007089D02*
X012644Y007089D01*
X012644Y007167D02*
X012624Y007167D01*
X012624Y007246D02*
X012644Y007246D01*
X012644Y007324D02*
X012624Y007324D01*
X012624Y007403D02*
X012644Y007403D01*
X012644Y007481D02*
X012624Y007481D01*
X012624Y007560D02*
X012644Y007560D01*
X012637Y007638D02*
X012631Y007638D01*
X012237Y007638D02*
X012231Y007638D01*
X011837Y007638D02*
X011704Y007638D01*
X013024Y007560D02*
X013087Y007560D01*
X013087Y007481D02*
X013024Y007481D01*
X013024Y007403D02*
X013087Y007403D01*
X013087Y007324D02*
X013024Y007324D01*
X013024Y007246D02*
X013087Y007246D01*
X013031Y007638D02*
X013142Y007638D01*
X013162Y007717D02*
X013087Y007717D01*
X009714Y004341D02*
X009644Y004341D01*
X009124Y004341D02*
X009054Y004341D01*
X014756Y003635D02*
X015214Y003635D01*
X015091Y003713D02*
X014834Y003713D01*
X014861Y003792D02*
X015012Y003792D01*
X014934Y003870D02*
X014861Y003870D01*
X017574Y002457D02*
X017596Y002457D01*
X017617Y002379D02*
X017674Y002379D01*
X017695Y002300D02*
X017753Y002300D01*
X017774Y002222D02*
X017831Y002222D01*
X017852Y002143D02*
X017910Y002143D01*
X017908Y002065D02*
X017861Y002065D01*
X017861Y001986D02*
X017908Y001986D01*
X017908Y001908D02*
X017861Y001908D01*
X017861Y001829D02*
X017908Y001829D01*
X017908Y001751D02*
X017861Y001751D01*
X017793Y001672D02*
X017975Y001672D01*
X018054Y001594D02*
X017715Y001594D01*
X017636Y001515D02*
X018132Y001515D01*
X021935Y002928D02*
X022379Y002928D01*
X022379Y002850D02*
X022089Y002850D01*
X021985Y018550D02*
X022379Y018550D01*
X022379Y018628D02*
X022121Y018628D01*
X022244Y018707D02*
X022379Y018707D01*
X022379Y018785D02*
X022322Y018785D01*
D35*
X020784Y017487D03*
X019934Y016637D03*
X019384Y017487D03*
X018784Y017487D03*
X017934Y016637D03*
X017384Y017487D03*
X017734Y015887D03*
X018684Y015887D03*
X019734Y015887D03*
X020684Y015887D03*
X019934Y014537D03*
X019934Y014237D03*
X017934Y014237D03*
X017934Y014537D03*
X016934Y014237D03*
X016984Y013587D03*
X015934Y013637D03*
X015934Y013937D03*
X014684Y015887D03*
X013734Y015887D03*
X013934Y016637D03*
X013384Y017487D03*
X012784Y017487D03*
X011934Y016637D03*
X011384Y017487D03*
X011734Y015887D03*
X012684Y015887D03*
X011934Y014537D03*
X011934Y014237D03*
X010934Y014237D03*
X010984Y013587D03*
X009934Y013637D03*
X009934Y013937D03*
X008684Y015887D03*
X007734Y015887D03*
X007934Y016637D03*
X007384Y017487D03*
X006784Y017487D03*
X005934Y016637D03*
X005384Y017487D03*
X005734Y015887D03*
X006684Y015887D03*
X005934Y014537D03*
X005934Y014237D03*
X004934Y014237D03*
X004984Y013587D03*
X003934Y013637D03*
X003934Y013937D03*
X003534Y013537D03*
X005934Y012387D03*
X006434Y011787D03*
X007284Y011987D03*
X007834Y011037D03*
X008434Y011987D03*
X008984Y010987D03*
X009784Y010987D03*
X010734Y010487D03*
X011784Y009937D03*
X012184Y009937D03*
X012584Y009937D03*
X012984Y009937D03*
X013434Y009537D03*
X013434Y008937D03*
X014534Y009287D03*
X014684Y009787D03*
X014684Y010387D03*
X013834Y011037D03*
X013284Y011987D03*
X012434Y011787D03*
X011934Y012387D03*
X013934Y014237D03*
X013934Y014537D03*
X014434Y011987D03*
X016734Y008987D03*
X017834Y008987D03*
X017834Y009487D03*
X018484Y008487D03*
X016534Y007687D03*
X015884Y007137D03*
X015784Y006137D03*
X016334Y006137D03*
X014634Y005437D03*
X014634Y005037D03*
X014034Y006687D03*
X014034Y007287D03*
X012834Y007837D03*
X012434Y007837D03*
X012034Y007837D03*
X011284Y008487D03*
X010984Y007437D03*
X009784Y006511D03*
X008134Y006387D03*
X008134Y005887D03*
X007534Y005587D03*
X007534Y005187D03*
X006904Y007337D03*
X006564Y007337D03*
X006984Y009587D03*
X007384Y009587D03*
X006434Y009937D03*
X005734Y009937D03*
X005034Y009937D03*
X007934Y014237D03*
X007934Y014537D03*
X008784Y017487D03*
X003684Y015937D03*
X014784Y017487D03*
X017934Y012387D03*
X018434Y011787D03*
X019284Y012037D03*
X020184Y012037D03*
X019834Y011087D03*
X016884Y003887D03*
X016384Y003887D03*
D36*
X020484Y005737D03*
X020484Y006937D03*
X021734Y006937D03*
X021734Y005737D03*
X021884Y004087D03*
D37*
X018984Y006687D03*
X018984Y007237D03*
X018234Y007237D03*
X018234Y006687D03*
X017984Y008147D03*
X019234Y008837D03*
X019734Y008837D03*
X019734Y009337D03*
X019234Y009337D03*
X019734Y009837D03*
X018734Y010447D03*
X022084Y011887D03*
X022084Y013087D03*
X022084Y014287D03*
X021434Y014987D03*
X021084Y015337D03*
X022084Y015487D03*
X022084Y016687D03*
X022084Y017887D03*
X019384Y015337D03*
X019034Y015337D03*
X017384Y015337D03*
X016984Y015337D03*
X015384Y015337D03*
X015034Y015337D03*
X013384Y015337D03*
X013034Y015337D03*
X011384Y015337D03*
X010984Y015337D03*
X009384Y015337D03*
X009034Y015337D03*
X007384Y015337D03*
X007034Y015337D03*
X005384Y015337D03*
X004984Y015337D03*
X003284Y016587D03*
X003184Y015287D03*
X003184Y013987D03*
X003284Y017887D03*
X009784Y012287D03*
X015584Y012487D03*
X003384Y007037D03*
X003384Y003437D03*
D38*
X007234Y005487D02*
X007234Y006637D01*
X008184Y007587D01*
X010334Y007587D01*
X010934Y008187D01*
X011384Y008187D01*
X011934Y008737D01*
X012784Y008737D01*
X013284Y009237D01*
X014484Y009237D01*
X014534Y009287D01*
X013834Y008937D02*
X013234Y008337D01*
X012134Y008337D01*
X011584Y007787D01*
X011334Y007787D01*
X010984Y007437D01*
X010434Y007387D02*
X011034Y007987D01*
X011484Y007987D01*
X012034Y008537D01*
X013034Y008537D01*
X013434Y008937D01*
X013834Y008937D02*
X016684Y008937D01*
X016734Y008987D01*
X016534Y007687D02*
X015984Y007137D01*
X015884Y007137D01*
X014634Y006337D02*
X013934Y006337D01*
X013234Y007037D01*
X012934Y007037D01*
X012834Y007137D01*
X012834Y007837D01*
X012434Y007837D02*
X012434Y006687D01*
X012434Y006087D02*
X012934Y006087D01*
X013460Y005561D01*
X013460Y005520D01*
X013801Y004687D02*
X012784Y004687D01*
X012634Y004837D01*
X011584Y004487D02*
X011584Y002937D01*
X011584Y004487D02*
X011234Y004837D01*
X013801Y004687D02*
X013834Y004654D01*
X014384Y004104D01*
X014384Y003937D01*
X015434Y004237D02*
X014634Y005037D01*
X014634Y005437D02*
X015634Y004437D01*
X017084Y004437D01*
X017584Y003937D01*
X017584Y002737D01*
X018384Y001937D01*
X017384Y001937D02*
X017384Y003837D01*
X016984Y004237D01*
X015434Y004237D01*
X015934Y005037D02*
X014634Y006337D01*
X014034Y007287D02*
X013484Y007287D01*
X013384Y007387D01*
X013384Y007987D02*
X013234Y008137D01*
X012334Y008137D01*
X012034Y007837D01*
X011284Y008487D02*
X010284Y008487D01*
X009684Y009087D01*
X005884Y009087D01*
X005784Y008987D01*
X005810Y008961D01*
X005810Y008437D01*
X005784Y008987D02*
X005734Y009037D01*
X005734Y009237D01*
X005034Y009937D01*
X005734Y009937D02*
X006034Y009637D01*
X006634Y009637D01*
X006884Y009887D01*
X007634Y009887D01*
X007734Y009787D01*
X009884Y009787D01*
X010234Y009437D01*
X012084Y009437D01*
X012584Y009937D01*
X012184Y009937D02*
X011884Y009637D01*
X010334Y009637D01*
X009984Y009987D01*
X007834Y009987D01*
X007734Y010087D01*
X006584Y010087D01*
X006434Y009937D01*
X006984Y009587D02*
X007284Y009287D01*
X009784Y009287D01*
X010034Y009037D01*
X012784Y009037D01*
X013284Y009537D01*
X013434Y009537D01*
X012984Y009937D02*
X012284Y009237D01*
X010134Y009237D01*
X009784Y009587D01*
X007384Y009587D01*
X007014Y007487D02*
X006464Y007487D01*
X007014Y007487D01*
X007014Y007187D01*
X006464Y007187D01*
X006464Y007487D01*
X006464Y007388D02*
X007014Y007388D01*
X007014Y007290D02*
X006464Y007290D01*
X006464Y007191D02*
X007014Y007191D01*
X007534Y006637D02*
X008284Y007387D01*
X010434Y007387D01*
X011784Y009937D02*
X011884Y010037D01*
X011884Y010487D01*
X011234Y010487D01*
X011284Y012187D02*
X011434Y012337D01*
X011434Y012937D01*
X011434Y013737D01*
X010934Y014237D01*
X010434Y013987D02*
X010434Y012937D01*
X010434Y012337D01*
X010584Y012187D01*
X010934Y012937D02*
X010934Y013537D01*
X010984Y013587D01*
X010434Y013987D02*
X010034Y014387D01*
X009834Y014387D01*
X009684Y014537D01*
X008934Y016737D02*
X008934Y017337D01*
X008784Y017487D01*
X008084Y017487D02*
X007934Y017337D01*
X007934Y016737D01*
X007934Y016637D01*
X006934Y016737D02*
X006934Y017337D01*
X006784Y017487D01*
X006084Y017487D02*
X005934Y017337D01*
X005934Y016737D01*
X005934Y016637D01*
X004034Y014387D02*
X003834Y014387D01*
X003684Y014537D01*
X004034Y014387D02*
X004434Y013987D01*
X004434Y012937D01*
X004434Y012337D01*
X004584Y012187D01*
X005284Y012187D02*
X005434Y012337D01*
X005434Y012937D01*
X005434Y013737D01*
X004934Y014237D01*
X011934Y012937D02*
X011934Y012387D01*
X015684Y014537D02*
X015834Y014387D01*
X016034Y014387D01*
X016434Y013987D01*
X016434Y012937D01*
X016434Y012337D01*
X016584Y012187D01*
X017284Y012187D02*
X017434Y012337D01*
X017434Y012937D01*
X017434Y013737D01*
X016934Y014237D01*
X016984Y013587D02*
X016934Y013537D01*
X016934Y012937D01*
X017934Y012937D02*
X017934Y012387D01*
X018984Y010087D02*
X019984Y010087D01*
X019984Y008587D01*
X019634Y008587D01*
X019634Y006487D01*
X017984Y006487D01*
X017984Y007387D01*
X018984Y007387D01*
X018984Y010087D01*
X018984Y010048D02*
X019984Y010048D01*
X019984Y009949D02*
X018984Y009949D01*
X018984Y009851D02*
X019984Y009851D01*
X019984Y009752D02*
X018984Y009752D01*
X018984Y009654D02*
X019984Y009654D01*
X019984Y009555D02*
X018984Y009555D01*
X018984Y009457D02*
X019984Y009457D01*
X019984Y009358D02*
X018984Y009358D01*
X018984Y009260D02*
X019984Y009260D01*
X019984Y009161D02*
X018984Y009161D01*
X018984Y009063D02*
X019984Y009063D01*
X019984Y008964D02*
X018984Y008964D01*
X018984Y008866D02*
X019984Y008866D01*
X019984Y008767D02*
X018984Y008767D01*
X018984Y008669D02*
X019984Y008669D01*
X019634Y008570D02*
X018984Y008570D01*
X018984Y008472D02*
X019634Y008472D01*
X019634Y008373D02*
X018984Y008373D01*
X018984Y008275D02*
X019634Y008275D01*
X019634Y008176D02*
X018984Y008176D01*
X018984Y008078D02*
X019634Y008078D01*
X019634Y007979D02*
X018984Y007979D01*
X018984Y007881D02*
X019634Y007881D01*
X019634Y007782D02*
X018984Y007782D01*
X018984Y007684D02*
X019634Y007684D01*
X019634Y007585D02*
X018984Y007585D01*
X018984Y007487D02*
X019634Y007487D01*
X019634Y007388D02*
X018984Y007388D01*
X019634Y007290D02*
X017984Y007290D01*
X017984Y007191D02*
X019634Y007191D01*
X019634Y007093D02*
X017984Y007093D01*
X017984Y006994D02*
X019634Y006994D01*
X019634Y006896D02*
X017984Y006896D01*
X017984Y006797D02*
X019634Y006797D01*
X019634Y006699D02*
X017984Y006699D01*
X017984Y006600D02*
X019634Y006600D01*
X019634Y006502D02*
X017984Y006502D01*
X017284Y005037D02*
X018134Y004187D01*
X018134Y003187D01*
X019384Y001937D01*
X017284Y005037D02*
X015934Y005037D01*
X013984Y007987D02*
X013384Y007987D01*
X007534Y006637D02*
X007534Y005587D01*
X007234Y005487D02*
X007534Y005187D01*
X011934Y016637D02*
X011934Y016737D01*
X011934Y017337D01*
X012084Y017487D01*
X012784Y017487D02*
X012934Y017337D01*
X012934Y016737D01*
X013934Y016737D02*
X013934Y016637D01*
X013934Y016737D02*
X013934Y017337D01*
X014084Y017487D01*
X014784Y017487D02*
X014934Y017337D01*
X014934Y016737D01*
X017934Y016737D02*
X017934Y016637D01*
X017934Y016737D02*
X017934Y017337D01*
X018084Y017487D01*
X018784Y017487D02*
X018934Y017337D01*
X018934Y016737D01*
X019934Y016737D02*
X019934Y016637D01*
X019934Y016737D02*
X019934Y017337D01*
X020084Y017487D01*
X020784Y017487D02*
X020934Y017337D01*
X020934Y016737D01*
D39*
X021084Y015337D02*
X021434Y014987D01*
X021434Y012087D01*
X020584Y011237D01*
X020584Y010837D01*
X019734Y009987D01*
X019734Y009837D01*
X019384Y015337D02*
X019034Y015337D01*
X017384Y015337D01*
X016984Y015337D01*
X015384Y015337D01*
X015034Y015337D01*
X013384Y015337D01*
X013034Y015337D01*
X011384Y015337D01*
X010984Y015337D01*
X009384Y015337D01*
X009034Y015337D01*
X007384Y015337D01*
X007034Y015337D01*
X005384Y015337D01*
X004984Y015337D01*
X009984Y002937D02*
X010984Y002937D01*
X011584Y002937D01*
X012184Y002937D01*
X013184Y002937D01*
X014384Y002937D01*
X019384Y015337D02*
X021084Y015337D01*
D40*
X015184Y019087D02*
X015184Y019787D01*
X009184Y019787D02*
X009184Y019087D01*
X007234Y008537D02*
X007134Y008437D01*
X006558Y008437D01*
X006184Y008437D02*
X006184Y008187D01*
X006104Y008107D01*
X005164Y008107D01*
X005134Y008137D01*
X004386Y008137D01*
X004354Y006769D02*
X004354Y006768D01*
X004484Y006637D01*
X005084Y006637D01*
X005484Y006237D01*
X006184Y006237D01*
X006634Y006687D01*
X005810Y007337D02*
X005810Y007563D01*
X005964Y007717D01*
X007114Y007717D01*
X007234Y007837D01*
D41*
X007284Y010487D02*
X007984Y010487D01*
X009134Y011637D01*
X011784Y011637D01*
X012234Y011187D01*
X012434Y011187D01*
X012445Y011177D02*
X012889Y011177D01*
X012889Y010833D01*
X013334Y010387D01*
X014684Y010387D01*
X014834Y010537D01*
X014834Y010987D01*
X015034Y011187D01*
X018434Y011187D01*
X018884Y011187D01*
X016634Y016087D02*
X015834Y016087D01*
X015684Y015937D01*
X015284Y016337D01*
X015284Y017787D01*
X015134Y017937D01*
X013684Y017937D01*
X013534Y017787D01*
X013534Y017637D01*
X013384Y017487D01*
X013234Y017637D01*
X013234Y017787D01*
X013084Y017937D01*
X011734Y017937D01*
X011384Y017587D01*
X011384Y017487D01*
X010934Y017487D01*
X010934Y016737D01*
X010934Y016387D01*
X010634Y016087D01*
X009834Y016087D01*
X009684Y015937D01*
X009284Y016337D01*
X009284Y017787D01*
X009134Y017937D01*
X007684Y017937D01*
X007534Y017787D01*
X007534Y017637D01*
X007384Y017487D01*
X007234Y017637D01*
X007234Y017787D01*
X007084Y017937D01*
X005784Y017937D01*
X005384Y017537D01*
X005384Y017487D01*
X004934Y017487D01*
X004934Y016737D01*
X004934Y016387D01*
X004634Y016087D01*
X003834Y016087D01*
X003684Y015937D01*
X003534Y013537D02*
X003534Y013137D01*
X004134Y012537D01*
X004134Y011787D01*
X004334Y011587D01*
X004334Y008189D01*
X004354Y008169D01*
X004386Y008137D01*
X006889Y010883D02*
X007284Y010487D01*
X006889Y010883D02*
X006889Y011177D01*
X006445Y011177D01*
X016634Y016087D02*
X016934Y016387D01*
X016934Y016737D01*
X016934Y017487D01*
X017384Y017487D01*
X017384Y017587D01*
X017734Y017937D01*
X019084Y017937D01*
X019234Y017787D01*
X019234Y017637D01*
X019384Y017487D01*
D42*
X010234Y006887D02*
X011484Y005637D01*
X012684Y005637D01*
X013234Y005087D01*
X014084Y005087D01*
X015284Y003887D01*
X016384Y003887D01*
X016384Y002937D01*
X015384Y001937D01*
X016384Y003887D02*
X016884Y003887D01*
X010234Y006887D02*
X008634Y006887D01*
X008134Y006387D01*
X008134Y005887D01*
X009384Y006111D02*
X009784Y006511D01*
X009384Y006111D02*
X009384Y003537D01*
X008784Y002937D01*
X007784Y002937D01*
X006784Y002937D01*
X006034Y002937D01*
X005634Y002037D02*
X005634Y003937D01*
X006634Y004937D01*
X006634Y006687D01*
X006634Y007261D01*
X006558Y007337D01*
X009984Y002937D02*
X009384Y002337D01*
X009384Y001737D01*
X009034Y001387D01*
X006284Y001387D01*
X005634Y002037D01*
M02*
